<?xml version="1.0" encoding="UTF-8" standalone="no"?>
<!DOCTYPE svg PUBLIC "-//W3C//DTD SVG 1.1//EN"
 "http://www.w3.org/Graphics/SVG/1.1/DTD/svg11.dtd">
<!-- Generated by graphviz version 15.0.0 (20260523.1842)
 -->
<!-- Title: BalanceFlow Pages: 1 -->
<svg width="324pt" height="896pt"
 viewBox="0.00 0.00 324.00 896.00" xmlns="http://www.w3.org/2000/svg" xmlns:xlink="http://www.w3.org/1999/xlink">
<g id="graph0" class="graph" transform="scale(1 1) rotate(0) translate(4 891.75)">
<title>BalanceFlow</title>
<!-- Balance -->
<g id="node1" class="node">
<title>Balance</title>
<path fill="#1f3a5f" stroke="black" d="M186.8,-875.75C186.8,-875.75 180.28,-881.75 180.28,-881.75 177.02,-884.75 169.33,-887.75 164.9,-887.75 164.9,-887.75 143.51,-887.75 143.51,-887.75 139.08,-887.75 131.39,-884.75 128.13,-881.75 128.13,-881.75 121.61,-875.75 121.61,-875.75 118.35,-872.75 118.35,-866.75 121.61,-863.75 121.61,-863.75 128.13,-857.75 128.13,-857.75 131.39,-854.75 139.08,-851.75 143.51,-851.75 143.51,-851.75 164.9,-851.75 164.9,-851.75 169.33,-851.75 177.02,-854.75 180.28,-857.75 180.28,-857.75 186.8,-863.75 186.8,-863.75 190.06,-866.75 190.06,-872.75 186.8,-875.75"/>
<text xml:space="preserve" text-anchor="middle" x="154.2" y="-865.88" font-family="Helvetica,sans-Serif" font-size="10.00" fill="#58a6ff">Balance()</text>
</g>
<!-- Scan -->
<g id="node2" class="node">
<title>Scan</title>
<path fill="#2a2a2a" stroke="black" d="M185.08,-814.75C185.08,-814.75 123.33,-814.75 123.33,-814.75 117.33,-814.75 111.33,-808.75 111.33,-802.75 111.33,-802.75 111.33,-783.5 111.33,-783.5 111.33,-777.5 117.33,-771.5 123.33,-771.5 123.33,-771.5 185.08,-771.5 185.08,-771.5 191.08,-771.5 197.08,-777.5 197.08,-783.5 197.08,-783.5 197.08,-802.75 197.08,-802.75 197.08,-808.75 191.08,-814.75 185.08,-814.75"/>
<text xml:space="preserve" text-anchor="middle" x="154.2" y="-801.25" font-family="Helvetica,sans-Serif" font-size="10.00" fill="#c9d1d9">Scan grid</text>
<text xml:space="preserve" text-anchor="middle" x="154.2" y="-790" font-family="Helvetica,sans-Serif" font-size="10.00" fill="#c9d1d9">bottom → top</text>
<text xml:space="preserve" text-anchor="middle" x="154.2" y="-777.25" font-family="Helvetica,sans-Serif" font-size="10.00" fill="#c9d1d9">(row 1 to Rows)</text>
</g>
<!-- Balance&#45;&gt;Scan -->
<g id="edge1" class="edge">
<title>Balance&#45;&gt;Scan</title>
<path fill="none" stroke="black" d="M154.2,-851.44C154.2,-843.98 154.2,-835.01 154.2,-826.4"/>
<polygon fill="black" stroke="black" points="157.7,-826.57 154.2,-816.57 150.7,-826.57 157.7,-826.57"/>
</g>
<!-- CheckEmpty -->
<g id="node3" class="node">
<title>CheckEmpty</title>
<path fill="#2a2a2a" stroke="black" d="M47.72,-723.01C47.72,-723.01 11.48,-711.99 11.48,-711.99 5.74,-710.25 5.74,-706.75 11.48,-705.01 11.48,-705.01 47.72,-693.99 47.72,-693.99 53.46,-692.25 64.94,-692.25 70.68,-693.99 70.68,-693.99 106.92,-705.01 106.92,-705.01 112.66,-706.75 112.66,-710.25 106.92,-711.99 106.92,-711.99 70.68,-723.01 70.68,-723.01 64.94,-724.75 53.46,-724.75 47.72,-723.01"/>
<text xml:space="preserve" text-anchor="middle" x="59.2" y="-704.62" font-family="Helvetica,sans-Serif" font-size="10.00" fill="#c9d1d9">Skip empty?</text>
</g>
<!-- Scan&#45;&gt;CheckEmpty -->
<g id="edge2" class="edge">
<title>Scan&#45;&gt;CheckEmpty</title>
<path fill="none" stroke="black" d="M111.18,-776.11C99.73,-770.31 88.09,-762.83 79.2,-753.5 74.46,-748.52 70.7,-742.21 67.79,-735.94"/>
<polygon fill="black" stroke="black" points="71.19,-735.04 64.21,-727.07 64.7,-737.65 71.19,-735.04"/>
</g>
<!-- CheckEmpty&#45;&gt;Scan -->
<g id="edge4" class="edge">
<title>CheckEmpty&#45;&gt;Scan</title>
<path fill="none" stroke="#30363d" stroke-dasharray="5,2" d="M72.48,-722.96C81.44,-731.87 93.64,-743.67 104.95,-753.5 108.99,-757.01 113.31,-760.6 117.63,-764.11"/>
<polygon fill="#30363d" stroke="#30363d" points="115.27,-766.71 125.27,-770.21 119.64,-761.24 115.27,-766.71"/>
<text xml:space="preserve" text-anchor="middle" x="122.58" y="-745.9" font-family="Helvetica,sans-Serif" font-size="8.00" fill="#8b949e">yes (next)</text>
</g>
<!-- CheckUnbal -->
<g id="node4" class="node">
<title>CheckUnbal</title>
<path fill="#2a2a2a" stroke="black" d="M106.6,-642.43C106.6,-642.43 61.81,-630.57 61.81,-630.57 56.01,-629.04 56.01,-625.96 61.81,-624.43 61.81,-624.43 106.6,-612.57 106.6,-612.57 112.4,-611.04 124,-611.04 129.8,-612.57 129.8,-612.57 174.59,-624.43 174.59,-624.43 180.39,-625.96 180.39,-629.04 174.59,-630.57 174.59,-630.57 129.8,-642.43 129.8,-642.43 124,-643.96 112.4,-643.96 106.6,-642.43"/>
<text xml:space="preserve" text-anchor="middle" x="118.2" y="-623.62" font-family="Helvetica,sans-Serif" font-size="10.00" fill="#c9d1d9">IsUnbalanced?</text>
</g>
<!-- CheckEmpty&#45;&gt;CheckUnbal -->
<g id="edge3" class="edge">
<title>CheckEmpty&#45;&gt;CheckUnbal</title>
<path fill="none" stroke="#3fb950" d="M69.75,-693.38C78.29,-681.95 90.49,-665.61 100.52,-652.18"/>
<polygon fill="#3fb950" stroke="#3fb950" points="103.26,-654.35 106.44,-644.25 97.65,-650.17 103.26,-654.35"/>
<text xml:space="preserve" text-anchor="middle" x="94.97" y="-664.9" font-family="Helvetica,sans-Serif" font-size="8.00" fill="#3fb950">no</text>
</g>
<!-- CheckUnbal&#45;&gt;Scan -->
<g id="edge6" class="edge">
<title>CheckUnbal&#45;&gt;Scan</title>
<path fill="none" stroke="#30363d" stroke-dasharray="5,2" d="M121.84,-645.03C127.76,-671.92 139.57,-725.62 147.17,-760.16"/>
<polygon fill="#30363d" stroke="#30363d" points="143.68,-760.58 149.24,-769.59 150.51,-759.07 143.68,-760.58"/>
<text xml:space="preserve" text-anchor="middle" x="155.32" y="-705.4" font-family="Helvetica,sans-Serif" font-size="8.00" fill="#8b949e">no (next)</text>
</g>
<!-- CheckDynamic -->
<g id="node5" class="node">
<title>CheckDynamic</title>
<path fill="#2a2a2a" stroke="black" d="M121.74,-560.95C121.74,-560.95 46.17,-537.55 46.17,-537.55 40.43,-535.77 40.43,-532.23 46.17,-530.45 46.17,-530.45 121.74,-507.05 121.74,-507.05 127.47,-505.27 138.93,-505.27 144.67,-507.05 144.67,-507.05 220.24,-530.45 220.24,-530.45 225.97,-532.23 225.97,-535.77 220.24,-537.55 220.24,-537.55 144.67,-560.95 144.67,-560.95 138.93,-562.73 127.47,-562.73 121.74,-560.95"/>
<text xml:space="preserve" text-anchor="middle" x="133.2" y="-535.75" font-family="Helvetica,sans-Serif" font-size="10.00" fill="#c9d1d9">IWriteableDynamic</text>
<text xml:space="preserve" text-anchor="middle" x="133.2" y="-524.5" font-family="Helvetica,sans-Serif" font-size="10.00" fill="#c9d1d9">SlotActor?</text>
</g>
<!-- CheckUnbal&#45;&gt;CheckDynamic -->
<g id="edge5" class="edge">
<title>CheckUnbal&#45;&gt;CheckDynamic</title>
<path fill="none" stroke="#3fb950" d="M120.95,-609.72C122.57,-599.84 124.69,-586.91 126.71,-574.58"/>
<polygon fill="#3fb950" stroke="#3fb950" points="130.12,-575.47 128.28,-565.03 123.21,-574.34 130.12,-575.47"/>
<text xml:space="preserve" text-anchor="middle" x="131.25" y="-583.9" font-family="Helvetica,sans-Serif" font-size="8.00" fill="#3fb950">yes</text>
</g>
<!-- CheckDynamic&#45;&gt;Scan -->
<g id="edge8" class="edge">
<title>CheckDynamic&#45;&gt;Scan</title>
<path fill="none" stroke="#30363d" stroke-dasharray="5,2" d="M158.71,-557.06C172.38,-570.62 187.88,-589.25 195.2,-609.5 213.86,-661.09 190.08,-724.07 171.72,-760.97"/>
<polygon fill="#30363d" stroke="#30363d" points="168.66,-759.26 167.18,-769.75 174.88,-762.48 168.66,-759.26"/>
<text xml:space="preserve" text-anchor="middle" x="216.8" y="-664.9" font-family="Helvetica,sans-Serif" font-size="8.00" fill="#8b949e">no (skip)</text>
</g>
<!-- FindSlot -->
<g id="node6" class="node">
<title>FindSlot</title>
<path fill="#2d1f3d" stroke="black" d="M204.45,-458.5C204.45,-458.5 111.95,-458.5 111.95,-458.5 105.95,-458.5 99.95,-452.5 99.95,-446.5 99.95,-446.5 99.95,-434.5 99.95,-434.5 99.95,-428.5 105.95,-422.5 111.95,-422.5 111.95,-422.5 204.45,-422.5 204.45,-422.5 210.45,-422.5 216.45,-428.5 216.45,-434.5 216.45,-434.5 216.45,-446.5 216.45,-446.5 216.45,-452.5 210.45,-458.5 204.45,-458.5"/>
<text xml:space="preserve" text-anchor="middle" x="158.2" y="-442.25" font-family="Helvetica,sans-Serif" font-size="10.00" fill="#d2a8ff">OptimalNextEmptySlot</text>
<text xml:space="preserve" text-anchor="middle" x="158.2" y="-431" font-family="Helvetica,sans-Serif" font-size="10.00" fill="#d2a8ff">(weight algorithm)</text>
</g>
<!-- CheckDynamic&#45;&gt;FindSlot -->
<g id="edge7" class="edge">
<title>CheckDynamic&#45;&gt;FindSlot</title>
<path fill="none" stroke="#3fb950" d="M140.7,-505.55C143.78,-494.3 147.33,-481.28 150.44,-469.92"/>
<polygon fill="#3fb950" stroke="#3fb950" points="153.81,-470.87 153.06,-460.3 147.05,-469.03 153.81,-470.87"/>
<text xml:space="preserve" text-anchor="middle" x="153.94" y="-477.9" font-family="Helvetica,sans-Serif" font-size="8.00" fill="#3fb950">yes</text>
</g>
<!-- Reserve -->
<g id="node7" class="node">
<title>Reserve</title>
<path fill="#3d2a1a" stroke="black" d="M210.2,-385.5C210.2,-385.5 134.2,-385.5 134.2,-385.5 128.2,-385.5 122.2,-379.5 122.2,-373.5 122.2,-373.5 122.2,-355.75 122.2,-355.75 122.2,-349.75 128.2,-343.75 134.2,-343.75 134.2,-343.75 210.2,-343.75 210.2,-343.75 216.2,-343.75 222.2,-349.75 222.2,-355.75 222.2,-355.75 222.2,-373.5 222.2,-373.5 222.2,-379.5 216.2,-385.5 210.2,-385.5"/>
<text xml:space="preserve" text-anchor="middle" x="172.2" y="-372" font-family="Helvetica,sans-Serif" font-size="10.00" fill="#f78166">BalancePathHolder</text>
<text xml:space="preserve" text-anchor="middle" x="172.2" y="-360.75" font-family="Helvetica,sans-Serif" font-size="10.00" fill="#f78166">Reserve(actor, src)</text>
<text xml:space="preserve" text-anchor="middle" x="172.2" y="-349.5" font-family="Helvetica,sans-Serif" font-size="10.00" fill="#f78166">Reserve(actor, dst)</text>
</g>
<!-- FindSlot&#45;&gt;Reserve -->
<g id="edge9" class="edge">
<title>FindSlot&#45;&gt;Reserve</title>
<path fill="none" stroke="black" d="M161.45,-422.37C162.89,-414.78 164.63,-405.61 166.28,-396.87"/>
<polygon fill="black" stroke="black" points="169.67,-397.78 168.1,-387.3 162.79,-396.47 169.67,-397.78"/>
</g>
<!-- Move -->
<g id="node8" class="node">
<title>Move</title>
<path fill="#1a3a1a" stroke="black" d="M219.2,-306.75C219.2,-306.75 131.2,-306.75 131.2,-306.75 125.2,-306.75 119.2,-300.75 119.2,-294.75 119.2,-294.75 119.2,-277 119.2,-277 119.2,-271 125.2,-265 131.2,-265 131.2,-265 219.2,-265 219.2,-265 225.2,-265 231.2,-271 231.2,-277 231.2,-277 231.2,-294.75 231.2,-294.75 231.2,-300.75 225.2,-306.75 219.2,-306.75"/>
<text xml:space="preserve" text-anchor="middle" x="175.2" y="-293.25" font-family="Helvetica,sans-Serif" font-size="10.00" fill="#3fb950">Remove(src)</text>
<text xml:space="preserve" text-anchor="middle" x="175.2" y="-282" font-family="Helvetica,sans-Serif" font-size="10.00" fill="#3fb950">Place(actor, view, dst)</text>
<text xml:space="preserve" text-anchor="middle" x="175.2" y="-270.75" font-family="Helvetica,sans-Serif" font-size="10.00" fill="#3fb950">IsStable = false</text>
</g>
<!-- Reserve&#45;&gt;Move -->
<g id="edge10" class="edge">
<title>Reserve&#45;&gt;Move</title>
<path fill="none" stroke="black" d="M172.99,-343.46C173.29,-335.85 173.63,-327 173.96,-318.59"/>
<polygon fill="black" stroke="black" points="177.46,-318.81 174.35,-308.68 170.46,-318.54 177.46,-318.81"/>
</g>
<!-- RecordPath -->
<g id="node9" class="node">
<title>RecordPath</title>
<path fill="#2a2a2a" stroke="black" d="M216.2,-228C216.2,-228 164.2,-228 164.2,-228 158.2,-228 152.2,-222 152.2,-216 152.2,-216 152.2,-198.25 152.2,-198.25 152.2,-192.25 158.2,-186.25 164.2,-186.25 164.2,-186.25 216.2,-186.25 216.2,-186.25 222.2,-186.25 228.2,-192.25 228.2,-198.25 228.2,-198.25 228.2,-216 228.2,-216 228.2,-222 222.2,-228 216.2,-228"/>
<text xml:space="preserve" text-anchor="middle" x="190.2" y="-214.5" font-family="Helvetica,sans-Serif" font-size="10.00" fill="#c9d1d9">Record target</text>
<text xml:space="preserve" text-anchor="middle" x="190.2" y="-203.25" font-family="Helvetica,sans-Serif" font-size="10.00" fill="#c9d1d9">world position</text>
<text xml:space="preserve" text-anchor="middle" x="190.2" y="-192" font-family="Helvetica,sans-Serif" font-size="10.00" fill="#c9d1d9">in paths dict</text>
</g>
<!-- Move&#45;&gt;RecordPath -->
<g id="edge11" class="edge">
<title>Move&#45;&gt;RecordPath</title>
<path fill="none" stroke="black" d="M179.14,-264.71C180.65,-257.02 182.4,-248.05 184.06,-239.55"/>
<polygon fill="black" stroke="black" points="187.46,-240.39 185.95,-229.91 180.59,-239.05 187.46,-240.39"/>
</g>
<!-- Loop -->
<g id="node10" class="node">
<title>Loop</title>
<path fill="#2a2a2a" stroke="black" d="M215.85,-145.35C215.85,-145.35 149.8,-122.65 149.8,-122.65 144.13,-120.7 144.13,-116.8 149.8,-114.85 149.8,-114.85 215.85,-92.15 215.85,-92.15 221.53,-90.2 232.88,-90.2 238.55,-92.15 238.55,-92.15 304.6,-114.85 304.6,-114.85 310.28,-116.8 310.28,-120.7 304.6,-122.65 304.6,-122.65 238.55,-145.35 238.55,-145.35 232.88,-147.3 221.53,-147.3 215.85,-145.35"/>
<text xml:space="preserve" text-anchor="middle" x="227.2" y="-120.5" font-family="Helvetica,sans-Serif" font-size="10.00" fill="#c9d1d9">hasUnbalanced?</text>
<text xml:space="preserve" text-anchor="middle" x="227.2" y="-109.25" font-family="Helvetica,sans-Serif" font-size="10.00" fill="#c9d1d9">repeat</text>
</g>
<!-- RecordPath&#45;&gt;Loop -->
<g id="edge12" class="edge">
<title>RecordPath&#45;&gt;Loop</title>
<path fill="none" stroke="black" d="M198.78,-186.09C202.59,-177.21 207.18,-166.48 211.56,-156.27"/>
<polygon fill="black" stroke="black" points="214.68,-157.86 215.4,-147.29 208.25,-155.1 214.68,-157.86"/>
</g>
<!-- Loop&#45;&gt;Scan -->
<g id="edge13" class="edge">
<title>Loop&#45;&gt;Scan</title>
<path fill="none" stroke="#f78166" d="M242.16,-144.5C250.89,-161.28 260.2,-184.29 260.2,-206.12 260.2,-709.5 260.2,-709.5 260.2,-709.5 260.2,-739.16 234.06,-759.74 207.75,-772.94"/>
<polygon fill="#f78166" stroke="#f78166" points="206.27,-769.77 198.69,-777.17 209.23,-776.11 206.27,-769.77"/>
<text xml:space="preserve" text-anchor="middle" x="266.2" y="-437.4" font-family="Helvetica,sans-Serif" font-size="8.00" fill="#f78166">yes</text>
</g>
<!-- Animate -->
<g id="node11" class="node">
<title>Animate</title>
<path fill="#1f3a5f" stroke="black" d="M290.33,-43.25C290.33,-43.25 164.08,-43.25 164.08,-43.25 158.08,-43.25 152.08,-37.25 152.08,-31.25 152.08,-31.25 152.08,-12 152.08,-12 152.08,-6 158.08,0 164.08,0 164.08,0 290.33,0 290.33,0 296.33,0 302.33,-6 302.33,-12 302.33,-12 302.33,-31.25 302.33,-31.25 302.33,-37.25 296.33,-43.25 290.33,-43.25"/>
<text xml:space="preserve" text-anchor="middle" x="227.2" y="-29.75" font-family="Helvetica,sans-Serif" font-size="10.00" fill="#58a6ff">AnimatePaths()</text>
<text xml:space="preserve" text-anchor="middle" x="227.2" y="-18.5" font-family="Helvetica,sans-Serif" font-size="10.00" fill="#58a6ff">DOPath(CatmullRom)</text>
<text xml:space="preserve" text-anchor="middle" x="227.2" y="-7.25" font-family="Helvetica,sans-Serif" font-size="10.00" fill="#58a6ff">OnComplete → Release(actor)</text>
</g>
<!-- Loop&#45;&gt;Animate -->
<g id="edge14" class="edge">
<title>Loop&#45;&gt;Animate</title>
<path fill="none" stroke="#3fb950" d="M227.2,-87.91C227.2,-77.46 227.2,-65.68 227.2,-55.03"/>
<polygon fill="#3fb950" stroke="#3fb950" points="230.7,-55.13 227.2,-45.13 223.7,-55.13 230.7,-55.13"/>
<text xml:space="preserve" text-anchor="middle" x="231.7" y="-62.65" font-family="Helvetica,sans-Serif" font-size="8.00" fill="#3fb950">no</text>
</g>
</g>
</svg>
