<?xml version="1.0" encoding="UTF-8" standalone="no"?>
<!DOCTYPE svg PUBLIC "-//W3C//DTD SVG 1.1//EN"
 "http://www.w3.org/Graphics/SVG/1.1/DTD/svg11.dtd">
<!-- Generated by graphviz version 15.0.0 (20260523.1842)
 -->
<!-- Title: Cinematic Pages: 1 -->
<svg width="204pt" height="895pt"
 viewBox="0.00 0.00 204.00 895.00" xmlns="http://www.w3.org/2000/svg" xmlns:xlink="http://www.w3.org/1999/xlink">
<g id="graph0" class="graph" transform="scale(1 1) rotate(0) translate(4 891.18)">
<title>Cinematic</title>
<!-- ScorePoint -->
<g id="node1" class="node">
<title>ScorePoint</title>
<ellipse fill="#3d2a1a" stroke="black" cx="97.76" cy="-857.66" rx="73.36" ry="29.52"/>
<text xml:space="preserve" text-anchor="middle" x="97.76" y="-865.03" font-family="Helvetica,sans-Serif" font-size="10.00" fill="#f78166">ScorePointMessage</text>
<text xml:space="preserve" text-anchor="middle" x="97.76" y="-853.78" font-family="Helvetica,sans-Serif" font-size="10.00" fill="#f78166">+</text>
<text xml:space="preserve" text-anchor="middle" x="97.76" y="-842.53" font-family="Helvetica,sans-Serif" font-size="10.00" fill="#f78166">WillLevelUp() = true</text>
</g>
<!-- WaitTrail -->
<g id="node2" class="node">
<title>WaitTrail</title>
<path fill="#2a2a2a" stroke="black" d="M138.76,-791.13C138.76,-791.13 56.76,-791.13 56.76,-791.13 50.76,-791.13 44.76,-785.13 44.76,-779.13 44.76,-779.13 44.76,-767.13 44.76,-767.13 44.76,-761.13 50.76,-755.13 56.76,-755.13 56.76,-755.13 138.76,-755.13 138.76,-755.13 144.76,-755.13 150.76,-761.13 150.76,-767.13 150.76,-767.13 150.76,-779.13 150.76,-779.13 150.76,-785.13 144.76,-791.13 138.76,-791.13"/>
<text xml:space="preserve" text-anchor="middle" x="97.76" y="-774.88" font-family="Helvetica,sans-Serif" font-size="10.00" fill="#c9d1d9">Wait for tipping trail</text>
<text xml:space="preserve" text-anchor="middle" x="97.76" y="-763.63" font-family="Helvetica,sans-Serif" font-size="10.00" fill="#c9d1d9">in TrailFlightRegistry</text>
</g>
<!-- ScorePoint&#45;&gt;WaitTrail -->
<g id="edge1" class="edge">
<title>ScorePoint&#45;&gt;WaitTrail</title>
<path fill="none" stroke="#f78166" d="M97.76,-827.79C97.76,-819.77 97.76,-811.05 97.76,-803.03"/>
<polygon fill="#f78166" stroke="#f78166" points="101.26,-803.07 97.76,-793.07 94.26,-803.07 101.26,-803.07"/>
</g>
<!-- BeginPanIn -->
<g id="node3" class="node">
<title>BeginPanIn</title>
<path fill="#1f3a5f" stroke="black" d="M162.01,-718.13C162.01,-718.13 33.51,-718.13 33.51,-718.13 27.51,-718.13 21.51,-712.13 21.51,-706.13 21.51,-706.13 21.51,-694.13 21.51,-694.13 21.51,-688.13 27.51,-682.13 33.51,-682.13 33.51,-682.13 162.01,-682.13 162.01,-682.13 168.01,-682.13 174.01,-688.13 174.01,-694.13 174.01,-694.13 174.01,-706.13 174.01,-706.13 174.01,-712.13 168.01,-718.13 162.01,-718.13"/>
<text xml:space="preserve" text-anchor="middle" x="97.76" y="-701.88" font-family="Helvetica,sans-Serif" font-size="10.00" fill="#58a6ff">BeginCinematic(LevelUpPanIn)</text>
<text xml:space="preserve" text-anchor="middle" x="97.76" y="-690.63" font-family="Helvetica,sans-Serif" font-size="10.00" fill="#58a6ff">Pause(Cinematic)</text>
</g>
<!-- WaitTrail&#45;&gt;BeginPanIn -->
<g id="edge2" class="edge">
<title>WaitTrail&#45;&gt;BeginPanIn</title>
<path fill="none" stroke="#58a6ff" d="M97.76,-754.95C97.76,-747.36 97.76,-738.23 97.76,-729.67"/>
<polygon fill="#58a6ff" stroke="#58a6ff" points="101.26,-729.68 97.76,-719.68 94.26,-729.68 101.26,-729.68"/>
</g>
<!-- PanInTick -->
<g id="node4" class="node">
<title>PanInTick</title>
<path fill="#1f3a5f" stroke="black" d="M154.51,-645.13C154.51,-645.13 41.01,-645.13 41.01,-645.13 35.01,-645.13 29.01,-639.13 29.01,-633.13 29.01,-633.13 29.01,-580.13 29.01,-580.13 29.01,-574.13 35.01,-568.13 41.01,-568.13 41.01,-568.13 154.51,-568.13 154.51,-568.13 160.51,-568.13 166.51,-574.13 166.51,-580.13 166.51,-580.13 166.51,-633.13 166.51,-633.13 166.51,-639.13 160.51,-645.13 154.51,-645.13"/>
<text xml:space="preserve" text-anchor="middle" x="97.76" y="-631.63" font-family="Helvetica,sans-Serif" font-size="10.00" fill="#58a6ff">PanInTick</text>
<text xml:space="preserve" text-anchor="middle" x="97.76" y="-620.38" font-family="Helvetica,sans-Serif" font-size="10.00" fill="#58a6ff">─────────</text>
<text xml:space="preserve" text-anchor="middle" x="97.76" y="-609.13" font-family="Helvetica,sans-Serif" font-size="10.00" fill="#58a6ff">SlowDownCurve modulates</text>
<text xml:space="preserve" text-anchor="middle" x="97.76" y="-597.88" font-family="Helvetica,sans-Serif" font-size="10.00" fill="#58a6ff">trail speed (1.0→0.3)</text>
<text xml:space="preserve" text-anchor="middle" x="97.76" y="-585.13" font-family="Helvetica,sans-Serif" font-size="10.00" fill="#58a6ff">Camera pans toward trail</text>
<text xml:space="preserve" text-anchor="middle" x="97.76" y="-573.88" font-family="Helvetica,sans-Serif" font-size="10.00" fill="#58a6ff">(frustum&#45;clamped)</text>
</g>
<!-- BeginPanIn&#45;&gt;PanInTick -->
<g id="edge3" class="edge">
<title>BeginPanIn&#45;&gt;PanInTick</title>
<path fill="none" stroke="#58a6ff" d="M97.76,-681.92C97.76,-674.72 97.76,-665.94 97.76,-656.97"/>
<polygon fill="#58a6ff" stroke="#58a6ff" points="101.26,-657.13 97.76,-647.13 94.26,-657.13 101.26,-657.13"/>
</g>
<!-- TrailComplete -->
<g id="node5" class="node">
<title>TrailComplete</title>
<path fill="#1f3a5f" stroke="black" d="M131.63,-523.13C131.63,-523.13 63.88,-523.13 63.88,-523.13 57.88,-523.13 51.88,-517.13 51.88,-511.13 51.88,-511.13 51.88,-493.38 51.88,-493.38 51.88,-487.38 57.88,-481.38 63.88,-481.38 63.88,-481.38 131.63,-481.38 131.63,-481.38 137.63,-481.38 143.63,-487.38 143.63,-493.38 143.63,-493.38 143.63,-511.13 143.63,-511.13 143.63,-517.13 137.63,-523.13 131.63,-523.13"/>
<text xml:space="preserve" text-anchor="middle" x="97.76" y="-509.63" font-family="Helvetica,sans-Serif" font-size="10.00" fill="#58a6ff">Trail progress ≥ 1</text>
<text xml:space="preserve" text-anchor="middle" x="97.76" y="-498.38" font-family="Helvetica,sans-Serif" font-size="10.00" fill="#58a6ff">Complete()</text>
<text xml:space="preserve" text-anchor="middle" x="97.76" y="-487.13" font-family="Helvetica,sans-Serif" font-size="10.00" fill="#58a6ff">CompleteAll()</text>
</g>
<!-- PanInTick&#45;&gt;TrailComplete -->
<g id="edge4" class="edge">
<title>PanInTick&#45;&gt;TrailComplete</title>
<path fill="none" stroke="#58a6ff" d="M97.76,-567.8C97.76,-557 97.76,-545.33 97.76,-534.93"/>
<polygon fill="#58a6ff" stroke="#58a6ff" points="101.26,-534.95 97.76,-524.95 94.26,-534.95 101.26,-534.95"/>
<text xml:space="preserve" text-anchor="middle" x="120.26" y="-542.53" font-family="Helvetica,sans-Serif" font-size="8.00" fill="#8b949e">progress ≥ 1</text>
</g>
<!-- EndPanIn -->
<g id="node6" class="node">
<title>EndPanIn</title>
<path fill="#2a2a2a" stroke="black" d="M127.51,-444.38C127.51,-444.38 68.01,-444.38 68.01,-444.38 62.01,-444.38 56.01,-438.38 56.01,-432.38 56.01,-432.38 56.01,-420.38 56.01,-420.38 56.01,-414.38 62.01,-408.38 68.01,-408.38 68.01,-408.38 127.51,-408.38 127.51,-408.38 133.51,-408.38 139.51,-414.38 139.51,-420.38 139.51,-420.38 139.51,-432.38 139.51,-432.38 139.51,-438.38 133.51,-444.38 127.51,-444.38"/>
<text xml:space="preserve" text-anchor="middle" x="97.76" y="-422.51" font-family="Helvetica,sans-Serif" font-size="10.00" fill="#c9d1d9">EndCinematic()</text>
</g>
<!-- TrailComplete&#45;&gt;EndPanIn -->
<g id="edge5" class="edge">
<title>TrailComplete&#45;&gt;EndPanIn</title>
<path fill="none" stroke="#30363d" d="M97.76,-481.07C97.76,-473.29 97.76,-464.25 97.76,-455.83"/>
<polygon fill="#30363d" stroke="#30363d" points="101.26,-456.05 97.76,-446.05 94.26,-456.05 101.26,-456.05"/>
</g>
<!-- Popup -->
<g id="node7" class="node">
<title>Popup</title>
<path fill="#1a3a1a" stroke="black" d="M139.88,-363.38C139.88,-363.38 55.63,-363.38 55.63,-363.38 49.63,-363.38 43.63,-357.38 43.63,-351.38 43.63,-351.38 43.63,-311.13 43.63,-311.13 43.63,-305.13 49.63,-299.13 55.63,-299.13 55.63,-299.13 139.88,-299.13 139.88,-299.13 145.88,-299.13 151.88,-305.13 151.88,-311.13 151.88,-311.13 151.88,-351.38 151.88,-351.38 151.88,-357.38 145.88,-363.38 139.88,-363.38"/>
<text xml:space="preserve" text-anchor="middle" x="97.76" y="-349.88" font-family="Helvetica,sans-Serif" font-size="10.00" fill="#3fb950">Level&#45;Up Popup</text>
<text xml:space="preserve" text-anchor="middle" x="97.76" y="-338.63" font-family="Helvetica,sans-Serif" font-size="10.00" fill="#3fb950">Time.timeScale = 0</text>
<text xml:space="preserve" text-anchor="middle" x="97.76" y="-327.38" font-family="Helvetica,sans-Serif" font-size="10.00" fill="#3fb950">─────────</text>
<text xml:space="preserve" text-anchor="middle" x="97.76" y="-316.13" font-family="Helvetica,sans-Serif" font-size="10.00" fill="#3fb950">Glow trails drain bars</text>
<text xml:space="preserve" text-anchor="middle" x="97.76" y="-304.88" font-family="Helvetica,sans-Serif" font-size="10.00" fill="#3fb950">Orbs fly to fill</text>
</g>
<!-- EndPanIn&#45;&gt;Popup -->
<g id="edge6" class="edge">
<title>EndPanIn&#45;&gt;Popup</title>
<path fill="none" stroke="#3fb950" d="M97.76,-408.3C97.76,-398.83 97.76,-386.6 97.76,-374.72"/>
<polygon fill="#3fb950" stroke="#3fb950" points="101.26,-375.06 97.76,-365.06 94.26,-375.06 101.26,-375.06"/>
<text xml:space="preserve" text-anchor="middle" x="117.63" y="-382.78" font-family="Helvetica,sans-Serif" font-size="8.00" fill="#8b949e">gate opens</text>
</g>
<!-- Dismiss -->
<g id="node8" class="node">
<title>Dismiss</title>
<ellipse fill="#3d2a1a" stroke="black" cx="97.76" cy="-240.57" rx="97.76" ry="21.57"/>
<text xml:space="preserve" text-anchor="middle" x="97.76" y="-242.32" font-family="Helvetica,sans-Serif" font-size="10.00" fill="#f78166">LevelUpDismissedMessage</text>
<text xml:space="preserve" text-anchor="middle" x="97.76" y="-231.07" font-family="Helvetica,sans-Serif" font-size="10.00" fill="#f78166">(player pressed Continue)</text>
</g>
<!-- Popup&#45;&gt;Dismiss -->
<g id="edge7" class="edge">
<title>Popup&#45;&gt;Dismiss</title>
<path fill="none" stroke="#f78166" d="M97.76,-298.74C97.76,-290.64 97.76,-281.92 97.76,-273.79"/>
<polygon fill="#f78166" stroke="#f78166" points="101.26,-273.96 97.76,-263.96 94.26,-273.96 101.26,-273.96"/>
</g>
<!-- BeginRestore -->
<g id="node9" class="node">
<title>BeginRestore</title>
<path fill="#2d1f3d" stroke="black" d="M166.51,-182C166.51,-182 29.01,-182 29.01,-182 23.01,-182 17.01,-176 17.01,-170 17.01,-170 17.01,-158 17.01,-158 17.01,-152 23.01,-146 29.01,-146 29.01,-146 166.51,-146 166.51,-146 172.51,-146 178.51,-152 178.51,-158 178.51,-158 178.51,-170 178.51,-170 178.51,-176 172.51,-182 166.51,-182"/>
<text xml:space="preserve" text-anchor="middle" x="97.76" y="-165.75" font-family="Helvetica,sans-Serif" font-size="10.00" fill="#d2a8ff">BeginCinematic(LevelUpRestore)</text>
<text xml:space="preserve" text-anchor="middle" x="97.76" y="-154.5" font-family="Helvetica,sans-Serif" font-size="10.00" fill="#d2a8ff">Resume(Cinematic)</text>
</g>
<!-- Dismiss&#45;&gt;BeginRestore -->
<g id="edge8" class="edge">
<title>Dismiss&#45;&gt;BeginRestore</title>
<path fill="none" stroke="#d2a8ff" d="M97.76,-218.8C97.76,-210.95 97.76,-201.87 97.76,-193.44"/>
<polygon fill="#d2a8ff" stroke="#d2a8ff" points="101.26,-193.65 97.76,-183.65 94.26,-193.65 101.26,-193.65"/>
</g>
<!-- RestoreTick -->
<g id="node10" class="node">
<title>RestoreTick</title>
<path fill="#2d1f3d" stroke="black" d="M154.13,-109C154.13,-109 41.38,-109 41.38,-109 35.38,-109 29.38,-103 29.38,-97 29.38,-97 29.38,-85 29.38,-85 29.38,-79 35.38,-73 41.38,-73 41.38,-73 154.13,-73 154.13,-73 160.13,-73 166.13,-79 166.13,-85 166.13,-85 166.13,-97 166.13,-97 166.13,-103 160.13,-109 154.13,-109"/>
<text xml:space="preserve" text-anchor="middle" x="97.76" y="-93.5" font-family="Helvetica,sans-Serif" font-size="10.00" fill="#d2a8ff">Ramp Time.timeScale 0→1</text>
<text xml:space="preserve" text-anchor="middle" x="97.76" y="-80.75" font-family="Helvetica,sans-Serif" font-size="10.00" fill="#d2a8ff">Camera tweens to base</text>
</g>
<!-- BeginRestore&#45;&gt;RestoreTick -->
<g id="edge9" class="edge">
<title>BeginRestore&#45;&gt;RestoreTick</title>
<path fill="none" stroke="#d2a8ff" d="M97.76,-145.81C97.76,-138.23 97.76,-129.1 97.76,-120.54"/>
<polygon fill="#d2a8ff" stroke="#d2a8ff" points="101.26,-120.54 97.76,-110.54 94.26,-120.54 101.26,-120.54"/>
</g>
<!-- Done -->
<g id="node11" class="node">
<title>Done</title>
<path fill="#2a2a2a" stroke="black" d="M143.26,-36C143.26,-36 52.26,-36 52.26,-36 46.26,-36 40.26,-30 40.26,-24 40.26,-24 40.26,-12 40.26,-12 40.26,-6 46.26,0 52.26,0 52.26,0 143.26,0 143.26,0 149.26,0 155.26,-6 155.26,-12 155.26,-12 155.26,-24 155.26,-24 155.26,-30 149.26,-36 143.26,-36"/>
<text xml:space="preserve" text-anchor="middle" x="97.76" y="-19.75" font-family="Helvetica,sans-Serif" font-size="10.00" fill="#c9d1d9">EndCinematic()</text>
<text xml:space="preserve" text-anchor="middle" x="97.76" y="-8.5" font-family="Helvetica,sans-Serif" font-size="10.00" fill="#c9d1d9">NavigationState.Game</text>
</g>
<!-- RestoreTick&#45;&gt;Done -->
<g id="edge10" class="edge">
<title>RestoreTick&#45;&gt;Done</title>
<path fill="none" stroke="#30363d" d="M97.76,-72.81C97.76,-65.23 97.76,-56.1 97.76,-47.54"/>
<polygon fill="#30363d" stroke="#30363d" points="101.26,-47.54 97.76,-37.54 94.26,-47.54 101.26,-47.54"/>
</g>
</g>
</svg>
