<?xml version="1.0" encoding="UTF-8" standalone="no"?>
<!DOCTYPE svg PUBLIC "-//W3C//DTD SVG 1.1//EN"
 "http://www.w3.org/Graphics/SVG/1.1/DTD/svg11.dtd">
<!-- Generated by graphviz version 15.0.0 (20260523.1842)
 -->
<!-- Title: BalloonParty.Configuration.BalloonsConfiguration Pages: 1 -->
<svg width="1450pt" height="797pt"
 viewBox="0.00 0.00 1450.00 797.00" xmlns="http://www.w3.org/2000/svg" xmlns:xlink="http://www.w3.org/1999/xlink">
<g id="graph0" class="graph" transform="scale(1 1) rotate(0) translate(4 793.25)">
<title>BalloonParty.Configuration.BalloonsConfiguration</title>
<!-- Node1 -->
<g id="Node000001" class="node">
<title>Node1</title>
<g id="a_Node000001"><a xlink:title=" ">
<polygon fill="#999999" stroke="#666666" points="1441.75,-31.25 1308,-31.25 1308,-0.75 1441.75,-0.75 1441.75,-31.25"/>
<text xml:space="preserve" text-anchor="start" x="1316" y="-17.75" font-family="Helvetica,sans-Serif" font-size="10.00">BalloonParty.Configuration.</text>
<text xml:space="preserve" text-anchor="middle" x="1374.88" y="-6.5" font-family="Helvetica,sans-Serif" font-size="10.00">BalloonsConfiguration</text>
</a>
</g>
</g>
<!-- Node2 -->
<g id="Node000002" class="node">
<title>Node2</title>
<g id="a_Node000002"><a xlink:title=" ">
<polygon fill="white" stroke="#666666" points="121,-96.62 33,-96.62 33,-77.38 121,-77.38 121,-96.62"/>
<text xml:space="preserve" text-anchor="middle" x="77" y="-83.12" font-family="Helvetica,sans-Serif" font-size="10.00">ScriptableObject</text>
</a>
</g>
</g>
<!-- Node2&#45;&gt;Node1 -->
<g id="edge1_Node000001_Node000002" class="edge">
<title>Node2&#45;&gt;Node1</title>
<g id="a_edge1_Node000001_Node000002"><a xlink:title=" ">
<path fill="none" stroke="#63b8ff" d="M102.53,-70.97C143.44,-45.84 228.93,0 308.38,0 308.38,0 308.38,0 1165.62,0 1213.31,0 1266.95,-4.22 1307.85,-8.33"/>
<polygon fill="#63b8ff" stroke="#63b8ff" points="100.79,-67.93 94.18,-76.22 104.51,-73.86 100.79,-67.93"/>
</a>
</g>
</g>
<!-- Node17 -->
<g id="Node000017" class="node">
<title>Node17</title>
<g id="a_Node000017"><a xlink:href="class_balloon_party_1_1_configuration_1_1_game_palette.html" target="_top" xlink:title=" ">
<polygon fill="white" stroke="#666666" points="376.25,-236.25 242.5,-236.25 242.5,-205.75 376.25,-205.75 376.25,-236.25"/>
<text xml:space="preserve" text-anchor="start" x="250.5" y="-222.75" font-family="Helvetica,sans-Serif" font-size="10.00">BalloonParty.Configuration.</text>
<text xml:space="preserve" text-anchor="middle" x="309.38" y="-211.5" font-family="Helvetica,sans-Serif" font-size="10.00">GamePalette</text>
</a>
</g>
</g>
<!-- Node2&#45;&gt;Node17 -->
<g id="edge22_Node000017_Node000002" class="edge">
<title>Node2&#45;&gt;Node17</title>
<g id="a_edge22_Node000017_Node000002"><a xlink:title=" ">
<path fill="none" stroke="#63b8ff" d="M105.12,-102.77C149.53,-128.6 237.25,-179.63 281.5,-205.37"/>
<polygon fill="#63b8ff" stroke="#63b8ff" points="107.03,-99.84 96.62,-97.83 103.51,-105.89 107.03,-99.84"/>
</a>
</g>
</g>
<!-- Node19 -->
<g id="Node000019" class="node">
<title>Node19</title>
<g id="a_Node000019"><a xlink:href="class_balloon_party_1_1_configuration_1_1_item_configuration.html" target="_top" xlink:title=" ">
<polygon fill="white" stroke="#666666" points="376.25,-482.25 242.5,-482.25 242.5,-451.75 376.25,-451.75 376.25,-482.25"/>
<text xml:space="preserve" text-anchor="start" x="250.5" y="-468.75" font-family="Helvetica,sans-Serif" font-size="10.00">BalloonParty.Configuration.</text>
<text xml:space="preserve" text-anchor="middle" x="309.38" y="-457.5" font-family="Helvetica,sans-Serif" font-size="10.00">ItemConfiguration</text>
</a>
</g>
</g>
<!-- Node2&#45;&gt;Node19 -->
<g id="edge25_Node000019_Node000002" class="edge">
<title>Node2&#45;&gt;Node19</title>
<g id="a_edge25_Node000019_Node000002"><a xlink:title=" ">
<path fill="none" stroke="#63b8ff" d="M98.54,-104.13C132.24,-132.73 196.81,-189.73 209.5,-217 230.66,-262.48 196.14,-402.85 227.5,-442 231.54,-447.05 236.59,-451.1 242.16,-454.34"/>
<polygon fill="#63b8ff" stroke="#63b8ff" points="100.98,-101.61 91.08,-97.85 96.47,-106.97 100.98,-101.61"/>
</a>
</g>
</g>
<!-- Node21 -->
<g id="Node000021" class="node">
<title>Node21</title>
<g id="a_Node000021"><a xlink:href="class_balloon_party_1_1_configuration_1_1_balloons_configuration.html" target="_top" xlink:title=" ">
<polygon fill="white" stroke="#666666" points="1441.75,-148.25 1308,-148.25 1308,-117.75 1441.75,-117.75 1441.75,-148.25"/>
<text xml:space="preserve" text-anchor="start" x="1316" y="-134.75" font-family="Helvetica,sans-Serif" font-size="10.00">BalloonParty.Configuration.</text>
<text xml:space="preserve" text-anchor="middle" x="1374.88" y="-123.5" font-family="Helvetica,sans-Serif" font-size="10.00">BalloonsConfiguration</text>
</a>
</g>
</g>
<!-- Node2&#45;&gt;Node21 -->
<g id="edge28_Node000021_Node000002" class="edge">
<title>Node2&#45;&gt;Node21</title>
<g id="a_edge28_Node000021_Node000002"><a xlink:title=" ">
<path fill="none" stroke="#63b8ff" d="M132.54,-78.84C179.13,-72.58 248,-65 308.38,-65 308.38,-65 308.38,-65 1165.62,-65 1232.75,-65 1306.31,-97.32 1345.52,-117.4"/>
<polygon fill="#63b8ff" stroke="#63b8ff" points="132.12,-75.37 122.69,-80.19 133.07,-82.3 132.12,-75.37"/>
</a>
</g>
</g>
<!-- Node3 -->
<g id="Node000003" class="node">
<title>Node3</title>
<g id="a_Node000003"><a xlink:href="class_balloon_party_1_1_configuration_1_1_balloon_prefab_entry.html" target="_top" xlink:title=" ">
<polygon fill="white" stroke="#666666" points="1231.5,-148.25 1097.75,-148.25 1097.75,-117.75 1231.5,-117.75 1231.5,-148.25"/>
<text xml:space="preserve" text-anchor="start" x="1105.75" y="-134.75" font-family="Helvetica,sans-Serif" font-size="10.00">BalloonParty.Configuration.</text>
<text xml:space="preserve" text-anchor="middle" x="1164.62" y="-123.5" font-family="Helvetica,sans-Serif" font-size="10.00">BalloonPrefabEntry</text>
</a>
</g>
</g>
<!-- Node3&#45;&gt;Node1 -->
<g id="edge2_Node000001_Node000003" class="edge">
<title>Node3&#45;&gt;Node1</title>
<g id="a_edge2_Node000001_Node000003"><a xlink:title=" ">
<path fill="none" stroke="#9a32cd" stroke-dasharray="5,2" d="M1203.19,-111.89C1244.33,-88.78 1309.33,-52.26 1346.11,-31.6"/>
<polygon fill="#9a32cd" stroke="#9a32cd" points="1201.6,-108.77 1194.6,-116.72 1205.03,-114.88 1201.6,-108.77"/>
</a>
</g>
<text xml:space="preserve" text-anchor="start" x="1252.5" y="-90.98" font-family="Helvetica,sans-Serif" font-size="10.00" fill="grey">_entries</text>
</g>
<!-- Node3&#45;&gt;Node21 -->
<g id="edge29_Node000021_Node000003" class="edge">
<title>Node3&#45;&gt;Node21</title>
<g id="a_edge29_Node000021_Node000003"><a xlink:title=" ">
<path fill="none" stroke="#9a32cd" stroke-dasharray="5,2" d="M1243.05,-133C1264.24,-133 1287,-133 1307.51,-133"/>
<polygon fill="#9a32cd" stroke="#9a32cd" points="1243.32,-129.5 1233.32,-133 1243.32,-136.5 1243.32,-129.5"/>
</a>
</g>
<text xml:space="preserve" text-anchor="start" x="1252.5" y="-139" font-family="Helvetica,sans-Serif" font-size="10.00" fill="grey">_entries</text>
</g>
<!-- Node4 -->
<g id="Node000004" class="node">
<title>Node4</title>
<g id="a_Node000004"><a xlink:href="class_balloon_party_1_1_balloon_1_1_view_1_1_balloon_view.html" target="_top" xlink:title=" ">
<polygon fill="white" stroke="#666666" points="981.5,-449.25 850,-449.25 850,-418.75 981.5,-418.75 981.5,-449.25"/>
<text xml:space="preserve" text-anchor="start" x="858" y="-435.75" font-family="Helvetica,sans-Serif" font-size="10.00">BalloonParty.Balloon.View.</text>
<text xml:space="preserve" text-anchor="middle" x="915.75" y="-424.5" font-family="Helvetica,sans-Serif" font-size="10.00">BalloonView</text>
</a>
</g>
</g>
<!-- Node4&#45;&gt;Node3 -->
<g id="edge3_Node000003_Node000004" class="edge">
<title>Node4&#45;&gt;Node3</title>
<g id="a_edge3_Node000003_Node000004"><a xlink:title=" ">
<path fill="none" stroke="#9a32cd" stroke-dasharray="5,2" d="M935.62,-409.54C952.4,-387.89 977.71,-355.51 1000.25,-327.75 1055.06,-260.26 1122.26,-181.31 1150.32,-148.51"/>
<polygon fill="#9a32cd" stroke="#9a32cd" points="933.04,-407.15 929.69,-417.2 938.58,-411.43 933.04,-407.15"/>
</a>
</g>
<text xml:space="preserve" text-anchor="start" x="1023.88" y="-333.75" font-family="Helvetica,sans-Serif" font-size="10.00" fill="grey">_prefab</text>
</g>
<!-- Node5 -->
<g id="Node000005" class="node">
<title>Node5</title>
<g id="a_Node000005"><a xlink:title=" ">
<polygon fill="white" stroke="#666666" points="118.75,-633.62 35.25,-633.62 35.25,-614.38 118.75,-614.38 118.75,-633.62"/>
<text xml:space="preserve" text-anchor="middle" x="77" y="-620.12" font-family="Helvetica,sans-Serif" font-size="10.00">MonoBehaviour</text>
</a>
</g>
</g>
<!-- Node5&#45;&gt;Node4 -->
<g id="edge4_Node000004_Node000005" class="edge">
<title>Node5&#45;&gt;Node4</title>
<g id="a_edge4_Node000004_Node000005"><a xlink:title=" ">
<path fill="none" stroke="#63b8ff" d="M130.23,-627C242.35,-632.23 513.84,-638.33 734.5,-591 779.21,-581.41 795.09,-583.99 831.25,-556 869.2,-526.62 896.26,-475.06 908.09,-449.41"/>
<polygon fill="#63b8ff" stroke="#63b8ff" points="130.6,-623.52 120.44,-626.53 130.26,-630.51 130.6,-623.52"/>
</a>
</g>
</g>
<!-- Node9 -->
<g id="Node000009" class="node">
<title>Node9</title>
<g id="a_Node000009"><a xlink:href="class_balloon_party_1_1_shared_1_1_rendering_1_1_colorable_renderer.html" target="_top" xlink:title="Non&#45;generic MonoBehaviour base that implements IColorableRenderer.">
<polygon fill="white" stroke="#666666" points="386.38,-685.25 232.38,-685.25 232.38,-654.75 386.38,-654.75 386.38,-685.25"/>
<text xml:space="preserve" text-anchor="start" x="240.38" y="-671.75" font-family="Helvetica,sans-Serif" font-size="10.00">BalloonParty.Shared.Rendering.</text>
<text xml:space="preserve" text-anchor="middle" x="309.38" y="-660.5" font-family="Helvetica,sans-Serif" font-size="10.00">ColorableRenderer</text>
</a>
</g>
</g>
<!-- Node5&#45;&gt;Node9 -->
<g id="edge9_Node000009_Node000005" class="edge">
<title>Node5&#45;&gt;Node9</title>
<g id="a_edge9_Node000009_Node000005"><a xlink:title=" ">
<path fill="none" stroke="#63b8ff" d="M130.29,-634.44C160.39,-640.45 198.75,-648.11 232.16,-654.78"/>
<polygon fill="#63b8ff" stroke="#63b8ff" points="131.16,-631.05 120.67,-632.52 129.79,-637.91 131.16,-631.05"/>
</a>
</g>
</g>
<!-- Node11 -->
<g id="Node000011" class="node">
<title>Node11</title>
<g id="a_Node000011"><a xlink:href="class_balloon_party_1_1_shared_1_1_animation_1_1_tween_tracker.html" target="_top" xlink:title=" ">
<polygon fill="white" stroke="#666666" points="562.5,-735.25 409.25,-735.25 409.25,-704.75 562.5,-704.75 562.5,-735.25"/>
<text xml:space="preserve" text-anchor="start" x="417.25" y="-721.75" font-family="Helvetica,sans-Serif" font-size="10.00">BalloonParty.Shared.Animation.</text>
<text xml:space="preserve" text-anchor="middle" x="485.88" y="-710.5" font-family="Helvetica,sans-Serif" font-size="10.00">TweenTracker</text>
</a>
</g>
</g>
<!-- Node5&#45;&gt;Node11 -->
<g id="edge12_Node000011_Node000005" class="edge">
<title>Node5&#45;&gt;Node11</title>
<g id="a_edge12_Node000011_Node000005"><a xlink:title=" ">
<path fill="none" stroke="#63b8ff" d="M122.85,-637.6C133.24,-641.23 144.14,-645.43 154,-650 171.27,-658.01 209.43,-688.01 227.5,-694 286.44,-713.53 356.78,-719.55 409.02,-720.96"/>
<polygon fill="#63b8ff" stroke="#63b8ff" points="124.3,-634.39 113.7,-634.52 122.06,-641.03 124.3,-634.39"/>
</a>
</g>
</g>
<!-- Node12 -->
<g id="Node000012" class="node">
<title>Node12</title>
<g id="a_Node000012"><a xlink:href="class_balloon_party_1_1_item_1_1_item_display_service.html" target="_top" xlink:title=" ">
<polygon fill="white" stroke="#666666" points="731.5,-419.25 583.5,-419.25 583.5,-388.75 731.5,-388.75 731.5,-419.25"/>
<text xml:space="preserve" text-anchor="start" x="591.5" y="-405.75" font-family="Helvetica,sans-Serif" font-size="10.00">BalloonParty.Item.ItemDisplay</text>
<text xml:space="preserve" text-anchor="middle" x="657.5" y="-394.5" font-family="Helvetica,sans-Serif" font-size="10.00">Service</text>
</a>
</g>
</g>
<!-- Node5&#45;&gt;Node12 -->
<g id="edge14_Node000012_Node000005" class="edge">
<title>Node5&#45;&gt;Node12</title>
<g id="a_edge14_Node000012_Node000005"><a xlink:title=" ">
<path fill="none" stroke="#63b8ff" d="M130.24,-616.22C249.02,-598.08 531.49,-552.24 562.5,-522 587.35,-497.76 559.51,-473.65 580.5,-446 589.07,-434.71 601.59,-426.05 614.01,-419.61"/>
<polygon fill="#63b8ff" stroke="#63b8ff" points="129.79,-612.75 120.43,-617.71 130.85,-619.67 129.79,-612.75"/>
</a>
</g>
</g>
<!-- Node13 -->
<g id="Node000013" class="node">
<title>Node13</title>
<g id="a_Node000013"><a xlink:href="class_balloon_party_1_1_item_1_1_item_visual_view.html" target="_top" xlink:title=" ">
<polygon fill="white" stroke="#666666" points="391.25,-519.62 227.5,-519.62 227.5,-500.38 391.25,-500.38 391.25,-519.62"/>
<text xml:space="preserve" text-anchor="middle" x="309.38" y="-506.12" font-family="Helvetica,sans-Serif" font-size="10.00">BalloonParty.Item.ItemVisualView</text>
</a>
</g>
</g>
<!-- Node5&#45;&gt;Node13 -->
<g id="edge16_Node000013_Node000005" class="edge">
<title>Node5&#45;&gt;Node13</title>
<g id="a_edge16_Node000013_Node000005"><a xlink:title=" ">
<path fill="none" stroke="#63b8ff" d="M108.49,-608.91C156.24,-585.29 247.37,-540.19 287.98,-520.09"/>
<polygon fill="#63b8ff" stroke="#63b8ff" points="107.21,-605.64 99.8,-613.21 110.32,-611.91 107.21,-605.64"/>
</a>
</g>
</g>
<!-- Node6 -->
<g id="Node000006" class="node">
<title>Node6</title>
<g id="a_Node000006"><a xlink:href="interface_balloon_party_1_1_shared_1_1_pool_1_1_i_poolable.html" target="_top" xlink:title=" ">
<polygon fill="white" stroke="#666666" points="141.62,-559.25 12.38,-559.25 12.38,-528.75 141.62,-528.75 141.62,-559.25"/>
<text xml:space="preserve" text-anchor="start" x="20.38" y="-545.75" font-family="Helvetica,sans-Serif" font-size="10.00">BalloonParty.Shared.Pool.</text>
<text xml:space="preserve" text-anchor="middle" x="77" y="-534.5" font-family="Helvetica,sans-Serif" font-size="10.00">IPoolable</text>
</a>
</g>
</g>
<!-- Node6&#45;&gt;Node4 -->
<g id="edge5_Node000004_Node000006" class="edge">
<title>Node6&#45;&gt;Node4</title>
<g id="a_edge5_Node000004_Node000006"><a xlink:title=" ">
<path fill="none" stroke="#63b8ff" d="M153.07,-558.88C276.24,-580.58 528.18,-613.55 734.5,-567 780.95,-556.52 792.63,-548.85 831.25,-521 860.28,-500.06 887.79,-468.28 902.85,-449.48"/>
<polygon fill="#63b8ff" stroke="#63b8ff" points="153.87,-555.47 143.41,-557.15 152.63,-562.36 153.87,-555.47"/>
</a>
</g>
</g>
<!-- Node6&#45;&gt;Node13 -->
<g id="edge18_Node000013_Node000006" class="edge">
<title>Node6&#45;&gt;Node13</title>
<g id="a_edge18_Node000013_Node000006"><a xlink:title=" ">
<path fill="none" stroke="#63b8ff" d="M153.19,-532.9C181.13,-528.78 212.65,-524.13 239.95,-520.1"/>
<polygon fill="#63b8ff" stroke="#63b8ff" points="152.75,-529.43 143.36,-534.35 153.77,-536.36 152.75,-529.43"/>
</a>
</g>
</g>
<!-- Node7 -->
<g id="Node000007" class="node">
<title>Node7</title>
<g id="a_Node000007"><a xlink:href="interface_balloon_party_1_1_slots_1_1_actor_1_1_i_slot_actor_view.html" target="_top" xlink:title=" ">
<polygon fill="white" stroke="#666666" points="719.5,-558.25 595.5,-558.25 595.5,-527.75 719.5,-527.75 719.5,-558.25"/>
<text xml:space="preserve" text-anchor="start" x="603.5" y="-544.75" font-family="Helvetica,sans-Serif" font-size="10.00">BalloonParty.Slots.Actor.</text>
<text xml:space="preserve" text-anchor="middle" x="657.5" y="-533.5" font-family="Helvetica,sans-Serif" font-size="10.00">ISlotActorView</text>
</a>
</g>
</g>
<!-- Node7&#45;&gt;Node4 -->
<g id="edge6_Node000004_Node000007" class="edge">
<title>Node7&#45;&gt;Node4</title>
<g id="a_edge6_Node000004_Node000007"><a xlink:title=" ">
<path fill="none" stroke="#63b8ff" d="M730.79,-527.18C762.48,-518.85 799.59,-507.18 831.25,-492 855.12,-480.55 879.69,-462.61 895.94,-449.71"/>
<polygon fill="#63b8ff" stroke="#63b8ff" points="730.1,-523.74 721.28,-529.61 731.84,-530.52 730.1,-523.74"/>
</a>
</g>
</g>
<!-- Node8 -->
<g id="Node000008" class="node">
<title>Node8</title>
<g id="a_Node000008"><a xlink:href="interface_balloon_party_1_1_nudge_1_1_i_nudgeable.html" target="_top" xlink:title="View&#45;side contract for actors that can play a nudge animation.">
<polygon fill="white" stroke="#666666" points="734.5,-509.62 580.5,-509.62 580.5,-490.38 734.5,-490.38 734.5,-509.62"/>
<text xml:space="preserve" text-anchor="middle" x="657.5" y="-496.12" font-family="Helvetica,sans-Serif" font-size="10.00">BalloonParty.Nudge.INudgeable</text>
</a>
</g>
</g>
<!-- Node8&#45;&gt;Node4 -->
<g id="edge7_Node000004_Node000008" class="edge">
<title>Node8&#45;&gt;Node4</title>
<g id="a_edge7_Node000004_Node000008"><a xlink:title=" ">
<path fill="none" stroke="#63b8ff" d="M745.83,-488.16C773.45,-483.4 803.9,-477.08 831.25,-469 848.43,-463.92 866.87,-456.43 882.04,-449.67"/>
<polygon fill="#63b8ff" stroke="#63b8ff" points="745.37,-484.69 736.08,-489.79 746.53,-491.59 745.37,-484.69"/>
</a>
</g>
</g>
<!-- Node9&#45;&gt;Node4 -->
<g id="edge8_Node000004_Node000009" class="edge">
<title>Node9&#45;&gt;Node4</title>
<g id="a_edge8_Node000004_Node000009"><a xlink:title=" ">
<path fill="none" stroke="#9a32cd" stroke-dasharray="5,2" d="M398.19,-675.52C528.28,-681.92 764.1,-686.12 831.25,-638 895.02,-592.3 910.2,-488.98 913.72,-449.62"/>
<polygon fill="#9a32cd" stroke="#9a32cd" points="398.38,-672.03 388.22,-675.02 398.03,-679.02 398.38,-672.03"/>
</a>
</g>
<text xml:space="preserve" text-anchor="start" x="612.88" y="-685.02" font-family="Helvetica,sans-Serif" font-size="10.00" fill="grey">_colorableRenderers</text>
</g>
<!-- Node10 -->
<g id="Node000010" class="node">
<title>Node10</title>
<g id="a_Node000010"><a xlink:href="interface_balloon_party_1_1_shared_1_1_rendering_1_1_i_colorable_renderer.html" target="_top" xlink:title=" ">
<polygon fill="white" stroke="#666666" points="154,-689.25 0,-689.25 0,-658.75 154,-658.75 154,-689.25"/>
<text xml:space="preserve" text-anchor="start" x="8" y="-675.75" font-family="Helvetica,sans-Serif" font-size="10.00">BalloonParty.Shared.Rendering.</text>
<text xml:space="preserve" text-anchor="middle" x="77" y="-664.5" font-family="Helvetica,sans-Serif" font-size="10.00">IColorableRenderer</text>
</a>
</g>
</g>
<!-- Node10&#45;&gt;Node9 -->
<g id="edge10_Node000009_Node000010" class="edge">
<title>Node10&#45;&gt;Node9</title>
<g id="a_edge10_Node000009_Node000010"><a xlink:title=" ">
<path fill="none" stroke="#63b8ff" d="M165.7,-672.48C187.59,-672.1 210.9,-671.69 232.19,-671.32"/>
<polygon fill="#63b8ff" stroke="#63b8ff" points="165.84,-668.97 155.9,-672.65 165.96,-675.97 165.84,-668.97"/>
</a>
</g>
</g>
<!-- Node11&#45;&gt;Node4 -->
<g id="edge11_Node000004_Node000011" class="edge">
<title>Node11&#45;&gt;Node4</title>
<g id="a_edge11_Node000004_Node000011"><a xlink:title=" ">
<path fill="none" stroke="#9a32cd" stroke-dasharray="5,2" d="M574.13,-721.34C662.96,-720.92 792.91,-714.77 831.25,-684 906.19,-623.85 914.37,-494.16 914.89,-449.49"/>
<polygon fill="#9a32cd" stroke="#9a32cd" points="574.2,-717.84 564.21,-721.37 574.21,-724.84 574.2,-717.84"/>
</a>
</g>
<text xml:space="preserve" text-anchor="start" x="625.25" y="-727.27" font-family="Helvetica,sans-Serif" font-size="10.00" fill="grey">_tweenTracker</text>
</g>
<!-- Node12&#45;&gt;Node4 -->
<g id="edge13_Node000004_Node000012" class="edge">
<title>Node12&#45;&gt;Node4</title>
<g id="a_edge13_Node000004_Node000012"><a xlink:title=" ">
<path fill="none" stroke="#9a32cd" stroke-dasharray="5,2" d="M743.04,-413.52C771.12,-416.72 802.53,-420.35 831.25,-423.75 837.2,-424.45 843.38,-425.2 849.57,-425.95"/>
<polygon fill="#9a32cd" stroke="#9a32cd" points="743.48,-410.05 733.15,-412.4 742.69,-417.01 743.48,-410.05"/>
</a>
</g>
<text xml:space="preserve" text-anchor="start" x="763.38" y="-429.75" font-family="Helvetica,sans-Serif" font-size="10.00" fill="grey">_itemService</text>
</g>
<!-- Node13&#45;&gt;Node12 -->
<g id="edge15_Node000012_Node000013" class="edge">
<title>Node13&#45;&gt;Node12</title>
<g id="a_edge15_Node000012_Node000013"><a xlink:title=" ">
<path fill="none" stroke="#9a32cd" stroke-dasharray="5,2" d="M402.92,-503.63C469.53,-498.26 549.8,-489.89 562.5,-480 580.15,-466.25 564.67,-448.81 580.5,-433 585.9,-427.61 592.4,-423.2 599.3,-419.61"/>
<polygon fill="#9a32cd" stroke="#9a32cd" points="402.72,-500.13 393.02,-504.41 403.27,-507.11 402.72,-500.13"/>
</a>
</g>
<text xml:space="preserve" text-anchor="start" x="459.25" y="-508.74" font-family="Helvetica,sans-Serif" font-size="10.00" fill="grey">_activeView</text>
</g>
<!-- Node14 -->
<g id="Node000014" class="node">
<title>Node14</title>
<g id="a_Node000014"><a xlink:href="interface_balloon_party_1_1_item_1_1_i_item_view.html" target="_top" xlink:title=" ">
<polygon fill="white" stroke="#666666" points="146.88,-507.62 7.12,-507.62 7.12,-488.38 146.88,-488.38 146.88,-507.62"/>
<text xml:space="preserve" text-anchor="middle" x="77" y="-494.12" font-family="Helvetica,sans-Serif" font-size="10.00">BalloonParty.Item.IItemView</text>
</a>
</g>
</g>
<!-- Node14&#45;&gt;Node13 -->
<g id="edge17_Node000013_Node000014" class="edge">
<title>Node14&#45;&gt;Node13</title>
<g id="a_edge17_Node000013_Node000014"><a xlink:title=" ">
<path fill="none" stroke="#63b8ff" d="M158.55,-502.2C180.77,-503.35 204.88,-504.61 227.14,-505.77"/>
<polygon fill="#63b8ff" stroke="#63b8ff" points="158.8,-498.7 148.63,-501.68 158.44,-505.69 158.8,-498.7"/>
</a>
</g>
</g>
<!-- Node15 -->
<g id="Node000015" class="node">
<title>Node15</title>
<g id="a_Node000015"><a xlink:href="interface_balloon_party_1_1_item_1_1_i_transform_capture.html" target="_top" xlink:title="Implement on components whose transform state must be captured.">
<polygon fill="white" stroke="#666666" points="380.75,-433.25 238,-433.25 238,-402.75 380.75,-402.75 380.75,-433.25"/>
<text xml:space="preserve" text-anchor="start" x="246" y="-419.75" font-family="Helvetica,sans-Serif" font-size="10.00">BalloonParty.Item.ITransform</text>
<text xml:space="preserve" text-anchor="middle" x="309.38" y="-408.5" font-family="Helvetica,sans-Serif" font-size="10.00">Capture</text>
</a>
</g>
</g>
<!-- Node15&#45;&gt;Node12 -->
<g id="edge19_Node000012_Node000015" class="edge">
<title>Node15&#45;&gt;Node12</title>
<g id="a_edge19_Node000012_Node000015"><a xlink:title=" ">
<path fill="none" stroke="#9a32cd" stroke-dasharray="5,2" d="M392.16,-414.69C450.11,-412.35 527.19,-409.23 583.15,-406.97"/>
<polygon fill="#9a32cd" stroke="#9a32cd" points="392.2,-411.19 382.35,-415.09 392.48,-418.18 392.2,-411.19"/>
</a>
</g>
<text xml:space="preserve" text-anchor="start" x="452.88" y="-419.86" font-family="Helvetica,sans-Serif" font-size="10.00" fill="grey">_activeCapture</text>
</g>
<!-- Node16 -->
<g id="Node000016" class="node">
<title>Node16</title>
<g id="a_Node000016"><a xlink:href="interface_balloon_party_1_1_shared_1_1_i_game_configuration.html" target="_top" xlink:title=" ">
<polygon fill="white" stroke="#666666" points="377.38,-310.25 241.38,-310.25 241.38,-279.75 377.38,-279.75 377.38,-310.25"/>
<text xml:space="preserve" text-anchor="start" x="249.38" y="-296.75" font-family="Helvetica,sans-Serif" font-size="10.00">BalloonParty.Shared.IGame</text>
<text xml:space="preserve" text-anchor="middle" x="309.38" y="-285.5" font-family="Helvetica,sans-Serif" font-size="10.00">Configuration</text>
</a>
</g>
</g>
<!-- Node16&#45;&gt;Node4 -->
<g id="edge31_Node000004_Node000016" class="edge">
<title>Node16&#45;&gt;Node4</title>
<g id="a_edge31_Node000004_Node000016"><a xlink:title=" ">
<path fill="none" stroke="#9a32cd" stroke-dasharray="5,2" d="M355.74,-275.3C372.26,-269.11 391.29,-263.09 409.25,-260 476.38,-248.47 495.53,-247.61 562.5,-260 688.28,-283.28 721.23,-297.75 831.25,-363 857.6,-378.63 883.83,-402.68 899.67,-418.38"/>
<polygon fill="#9a32cd" stroke="#9a32cd" points="354.75,-271.93 346.7,-278.81 357.29,-278.45 354.75,-271.93"/>
</a>
</g>
<text xml:space="preserve" text-anchor="start" x="641.75" y="-314.77" font-family="Helvetica,sans-Serif" font-size="10.00" fill="grey">_config</text>
</g>
<!-- Node16&#45;&gt;Node12 -->
<g id="edge20_Node000012_Node000016" class="edge">
<title>Node16&#45;&gt;Node12</title>
<g id="a_edge20_Node000012_Node000016"><a xlink:title=" ">
<path fill="none" stroke="#9a32cd" stroke-dasharray="5,2" d="M388.92,-300.99C441,-307.75 509.28,-322.14 562.5,-352.75 572.65,-358.59 570.89,-365.3 580.5,-372 589.66,-378.39 600.29,-383.85 610.65,-388.36"/>
<polygon fill="#9a32cd" stroke="#9a32cd" points="389.58,-297.54 379.23,-299.81 388.73,-304.49 389.58,-297.54"/>
</a>
</g>
<text xml:space="preserve" text-anchor="start" x="470.12" y="-358.75" font-family="Helvetica,sans-Serif" font-size="10.00" fill="grey">_config</text>
</g>
<!-- Node17&#45;&gt;Node4 -->
<g id="edge30_Node000004_Node000017" class="edge">
<title>Node17&#45;&gt;Node4</title>
<g id="a_edge30_Node000004_Node000017"><a xlink:title=" ">
<path fill="none" stroke="#9a32cd" stroke-dasharray="5,2" d="M388.02,-211.78C475.14,-204.39 619.34,-201.19 734.5,-242.75 822.69,-274.58 885.45,-378.55 906.77,-418.33"/>
<polygon fill="#9a32cd" stroke="#9a32cd" points="387.8,-208.28 378.15,-212.66 388.42,-215.25 387.8,-208.28"/>
</a>
</g>
<text xml:space="preserve" text-anchor="start" x="640.25" y="-248.75" font-family="Helvetica,sans-Serif" font-size="10.00" fill="grey">_palette</text>
</g>
<!-- Node17&#45;&gt;Node12 -->
<g id="edge21_Node000012_Node000017" class="edge">
<title>Node17&#45;&gt;Node12</title>
<g id="a_edge21_Node000012_Node000017"><a xlink:title=" ">
<path fill="none" stroke="#9a32cd" stroke-dasharray="5,2" d="M387.45,-235.56C456.97,-249.38 550.17,-269.9 562.5,-282.75 590.52,-311.95 554.88,-340.68 580.5,-372 586.03,-378.76 593.24,-384.11 601.01,-388.35"/>
<polygon fill="#9a32cd" stroke="#9a32cd" points="388.49,-232.2 378,-233.7 387.13,-239.07 388.49,-232.2"/>
</a>
</g>
<text xml:space="preserve" text-anchor="start" x="468.62" y="-288.75" font-family="Helvetica,sans-Serif" font-size="10.00" fill="grey">_palette</text>
</g>
<!-- Node18 -->
<g id="Node000018" class="node">
<title>Node18</title>
<g id="a_Node000018"><a xlink:href="class_balloon_party_1_1_configuration_1_1_palette_entry.html" target="_top" xlink:title=" ">
<polygon fill="white" stroke="#666666" points="143.88,-236.25 10.12,-236.25 10.12,-205.75 143.88,-205.75 143.88,-236.25"/>
<text xml:space="preserve" text-anchor="start" x="18.12" y="-222.75" font-family="Helvetica,sans-Serif" font-size="10.00">BalloonParty.Configuration.</text>
<text xml:space="preserve" text-anchor="middle" x="77" y="-211.5" font-family="Helvetica,sans-Serif" font-size="10.00">PaletteEntry</text>
</a>
</g>
</g>
<!-- Node18&#45;&gt;Node17 -->
<g id="edge23_Node000017_Node000018" class="edge">
<title>Node18&#45;&gt;Node17</title>
<g id="a_edge23_Node000017_Node000018"><a xlink:title=" ">
<path fill="none" stroke="#9a32cd" stroke-dasharray="5,2" d="M155.71,-221C183.76,-221 215.14,-221 242.12,-221"/>
<polygon fill="#9a32cd" stroke="#9a32cd" points="155.84,-217.5 145.84,-221 155.84,-224.5 155.84,-217.5"/>
</a>
</g>
<text xml:space="preserve" text-anchor="start" x="175" y="-227" font-family="Helvetica,sans-Serif" font-size="10.00" fill="grey">_colors</text>
</g>
<!-- Node19&#45;&gt;Node4 -->
<g id="edge32_Node000004_Node000019" class="edge">
<title>Node19&#45;&gt;Node4</title>
<g id="a_edge32_Node000004_Node000019"><a xlink:title=" ">
<path fill="none" stroke="#9a32cd" stroke-dasharray="5,2" d="M386.49,-487.48C388.13,-488.59 389.72,-489.77 391.25,-491 404.24,-501.5 394.88,-515.47 409.25,-524 467.82,-558.77 507.88,-564.69 562.5,-524 584.91,-507.3 558.85,-481.42 580.5,-463.75 581.79,-462.69 752.97,-447.87 849.82,-439.55"/>
<polygon fill="#9a32cd" stroke="#9a32cd" points="388.33,-484.5 377.93,-482.52 384.82,-490.56 388.33,-484.5"/>
</a>
</g>
<text xml:space="preserve" text-anchor="start" x="631.25" y="-469.75" font-family="Helvetica,sans-Serif" font-size="10.00" fill="grey">_itemConfig</text>
</g>
<!-- Node19&#45;&gt;Node12 -->
<g id="edge24_Node000012_Node000019" class="edge">
<title>Node19&#45;&gt;Node12</title>
<g id="a_edge24_Node000012_Node000019"><a xlink:title=" ">
<path fill="none" stroke="#9a32cd" stroke-dasharray="5,2" d="M387.96,-461.04C438.17,-456.23 504.71,-448.07 562.5,-435 579.93,-431.06 598.71,-425.2 614.87,-419.64"/>
<polygon fill="#9a32cd" stroke="#9a32cd" points="387.68,-457.55 378.05,-461.96 388.33,-464.52 387.68,-457.55"/>
</a>
</g>
<text xml:space="preserve" text-anchor="start" x="459.62" y="-464.45" font-family="Helvetica,sans-Serif" font-size="10.00" fill="grey">_itemConfig</text>
</g>
<!-- Node20 -->
<g id="Node000020" class="node">
<title>Node20</title>
<g id="a_Node000020"><a xlink:href="class_balloon_party_1_1_shared_1_1_pool_1_1_pool_manager.html" target="_top" xlink:title=" ">
<polygon fill="white" stroke="#666666" points="374,-384.25 244.75,-384.25 244.75,-353.75 374,-353.75 374,-384.25"/>
<text xml:space="preserve" text-anchor="start" x="252.75" y="-370.75" font-family="Helvetica,sans-Serif" font-size="10.00">BalloonParty.Shared.Pool.</text>
<text xml:space="preserve" text-anchor="middle" x="309.38" y="-359.5" font-family="Helvetica,sans-Serif" font-size="10.00">PoolManager</text>
</a>
</g>
</g>
<!-- Node20&#45;&gt;Node4 -->
<g id="edge33_Node000004_Node000020" class="edge">
<title>Node20&#45;&gt;Node4</title>
<g id="a_edge33_Node000004_Node000020"><a xlink:title=" ">
<path fill="none" stroke="#9a32cd" stroke-dasharray="5,2" d="M385.71,-358.81C471.13,-349.34 614.16,-339.83 734.5,-362.75 790.03,-373.33 850.31,-400.71 885.18,-418.28"/>
<polygon fill="#9a32cd" stroke="#9a32cd" points="385.34,-355.32 375.8,-359.94 386.14,-362.28 385.34,-355.32"/>
</a>
</g>
<text xml:space="preserve" text-anchor="start" x="627.12" y="-368.75" font-family="Helvetica,sans-Serif" font-size="10.00" fill="grey">_poolManager</text>
</g>
<!-- Node20&#45;&gt;Node12 -->
<g id="edge26_Node000012_Node000020" class="edge">
<title>Node20&#45;&gt;Node12</title>
<g id="a_edge26_Node000012_Node000020"><a xlink:title=" ">
<path fill="none" stroke="#9a32cd" stroke-dasharray="5,2" d="M385.7,-372.11C435.93,-374.72 503.33,-379.26 562.5,-386.75 569.25,-387.6 576.25,-388.63 583.24,-389.74"/>
<polygon fill="#9a32cd" stroke="#9a32cd" points="385.97,-368.62 375.8,-371.61 385.62,-375.61 385.97,-368.62"/>
</a>
</g>
<text xml:space="preserve" text-anchor="start" x="455.5" y="-392.75" font-family="Helvetica,sans-Serif" font-size="10.00" fill="grey">_poolManager</text>
</g>
<!-- Node21&#45;&gt;Node4 -->
<g id="edge27_Node000004_Node000021" class="edge">
<title>Node21&#45;&gt;Node4</title>
<g id="a_edge27_Node000004_Node000021"><a xlink:title=" ">
<path fill="none" stroke="#9a32cd" stroke-dasharray="5,2" d="M1345.23,-155.49C1293.58,-195.63 1180.78,-281.36 1079.75,-345 1035.28,-373.01 981.36,-401.43 948.05,-418.39"/>
<polygon fill="#9a32cd" stroke="#9a32cd" points="1347.22,-158.38 1352.96,-149.47 1342.92,-152.86 1347.22,-158.38"/>
</a>
</g>
<text xml:space="preserve" text-anchor="start" x="1129.75" y="-339.32" font-family="Helvetica,sans-Serif" font-size="10.00" fill="grey">_balloonsConfig</text>
</g>
<!-- Node22 -->
<g id="Node000022" class="node">
<title>Node22</title>
<g id="a_Node000022"><a xlink:href="interface_balloon_party_1_1_balloon_1_1_view_1_1_i_balloon_view_binding.html" target="_top" xlink:title="Implemented by MonoBehaviours on a balloon prefab that need to react to model binding.">
<polygon fill="white" stroke="#666666" points="723.25,-197.25 591.75,-197.25 591.75,-166.75 723.25,-166.75 723.25,-197.25"/>
<text xml:space="preserve" text-anchor="start" x="599.75" y="-183.75" font-family="Helvetica,sans-Serif" font-size="10.00">BalloonParty.Balloon.View.</text>
<text xml:space="preserve" text-anchor="middle" x="657.5" y="-172.5" font-family="Helvetica,sans-Serif" font-size="10.00">IBalloonViewBinding</text>
</a>
</g>
</g>
<!-- Node22&#45;&gt;Node4 -->
<g id="edge34_Node000004_Node000022" class="edge">
<title>Node22&#45;&gt;Node4</title>
<g id="a_edge34_Node000004_Node000022"><a xlink:title=" ">
<path fill="none" stroke="#9a32cd" stroke-dasharray="5,2" d="M734.95,-185.34C773.99,-188.51 816.35,-194.69 831.25,-206.75 899.04,-261.62 911.79,-376.84 914.19,-418.53"/>
<polygon fill="#9a32cd" stroke="#9a32cd" points="735.25,-181.85 725.02,-184.59 734.73,-188.83 735.25,-181.85"/>
</a>
</g>
<text xml:space="preserve" text-anchor="start" x="760.38" y="-212.75" font-family="Helvetica,sans-Serif" font-size="10.00" fill="grey">_viewBindings</text>
</g>
<!-- Node23 -->
<g id="Node000023" class="node">
<title>Node23</title>
<g id="a_Node000023"><a xlink:href="interface_balloon_party_1_1_balloon_1_1_type_1_1_i_balloon_variant.html" target="_top" xlink:title=" ">
<polygon fill="white" stroke="#666666" points="723.62,-789.25 591.38,-789.25 591.38,-758.75 723.62,-758.75 723.62,-789.25"/>
<text xml:space="preserve" text-anchor="start" x="599.38" y="-775.75" font-family="Helvetica,sans-Serif" font-size="10.00">BalloonParty.Balloon.Type.</text>
<text xml:space="preserve" text-anchor="middle" x="657.5" y="-764.5" font-family="Helvetica,sans-Serif" font-size="10.00">IBalloonVariant</text>
</a>
</g>
</g>
<!-- Node23&#45;&gt;Node4 -->
<g id="edge35_Node000004_Node000023" class="edge">
<title>Node23&#45;&gt;Node4</title>
<g id="a_edge35_Node000004_Node000023"><a xlink:title=" ">
<path fill="none" stroke="#9a32cd" stroke-dasharray="5,2" d="M735.03,-774.68C768.42,-771.06 805.7,-761.11 831.25,-737 874.41,-696.27 904.5,-506.03 912.58,-449.73"/>
<polygon fill="#9a32cd" stroke="#9a32cd" points="735.04,-771.17 725.39,-775.54 735.66,-778.14 735.04,-771.17"/>
</a>
</g>
<text xml:space="preserve" text-anchor="start" x="774.62" y="-777.77" font-family="Helvetica,sans-Serif" font-size="10.00" fill="grey">_variant</text>
</g>
<!-- Node24 -->
<g id="Node000024" class="node">
<title>Node24</title>
<g id="a_Node000024"><a xlink:href="class_balloon_party_1_1_configuration_1_1_hit_vfx_override.html" target="_top" xlink:title=" ">
<polygon fill="white" stroke="#666666" points="724.38,-148.25 590.62,-148.25 590.62,-117.75 724.38,-117.75 724.38,-148.25"/>
<text xml:space="preserve" text-anchor="start" x="598.62" y="-134.75" font-family="Helvetica,sans-Serif" font-size="10.00">BalloonParty.Configuration.</text>
<text xml:space="preserve" text-anchor="middle" x="657.5" y="-123.5" font-family="Helvetica,sans-Serif" font-size="10.00">HitVfxOverride</text>
</a>
</g>
</g>
<!-- Node24&#45;&gt;Node3 -->
<g id="edge38_Node000003_Node000024" class="edge">
<title>Node24&#45;&gt;Node3</title>
<g id="a_edge38_Node000003_Node000024"><a xlink:title=" ">
<path fill="none" stroke="#9a32cd" stroke-dasharray="5,2" d="M735.93,-139.81C820.5,-146.18 959.92,-153.53 1079.75,-145 1085.47,-144.59 1091.4,-144.03 1097.33,-143.37"/>
<polygon fill="#9a32cd" stroke="#9a32cd" points="736.37,-136.34 726.13,-139.06 735.83,-143.32 736.37,-136.34"/>
</a>
</g>
<text xml:space="preserve" text-anchor="start" x="879.38" y="-154.86" font-family="Helvetica,sans-Serif" font-size="10.00" fill="grey">_hitVfxOverrides</text>
</g>
<!-- Node24&#45;&gt;Node4 -->
<g id="edge36_Node000004_Node000024" class="edge">
<title>Node24&#45;&gt;Node4</title>
<g id="a_edge36_Node000004_Node000024"><a xlink:title=" ">
<path fill="none" stroke="#9a32cd" stroke-dasharray="5,2" d="M735.8,-143.93C778.23,-150.58 823.75,-159.06 831.25,-165.75 908.06,-234.24 914.98,-372.06 915.04,-418.4"/>
<polygon fill="#9a32cd" stroke="#9a32cd" points="736.44,-140.49 726.02,-142.42 735.37,-147.41 736.44,-140.49"/>
</a>
</g>
<text xml:space="preserve" text-anchor="start" x="755.5" y="-171.75" font-family="Helvetica,sans-Serif" font-size="10.00" fill="grey">_hitVfxOverrides</text>
</g>
<!-- Node25 -->
<g id="Node000025" class="node">
<title>Node25</title>
<g id="a_Node000025"><a xlink:href="class_balloon_party_1_1_nudge_1_1_nudge_override.html" target="_top" xlink:title=" ">
<polygon fill="white" stroke="#666666" points="982.25,-123.25 849.25,-123.25 849.25,-92.75 982.25,-92.75 982.25,-123.25"/>
<text xml:space="preserve" text-anchor="start" x="857.25" y="-109.75" font-family="Helvetica,sans-Serif" font-size="10.00">BalloonParty.Nudge.Nudge</text>
<text xml:space="preserve" text-anchor="middle" x="915.75" y="-98.5" font-family="Helvetica,sans-Serif" font-size="10.00">Override</text>
</a>
</g>
</g>
<!-- Node25&#45;&gt;Node3 -->
<g id="edge37_Node000003_Node000025" class="edge">
<title>Node25&#45;&gt;Node3</title>
<g id="a_edge37_Node000003_Node000025"><a xlink:title=" ">
<path fill="none" stroke="#9a32cd" stroke-dasharray="5,2" d="M993.66,-115.79C1026.96,-119.16 1065.56,-123.07 1097.55,-126.31"/>
<polygon fill="#9a32cd" stroke="#9a32cd" points="994.39,-112.34 984.09,-114.82 993.69,-119.31 994.39,-112.34"/>
</a>
</g>
<text xml:space="preserve" text-anchor="start" x="1003.25" y="-130.2" font-family="Helvetica,sans-Serif" font-size="10.00" fill="grey">_nudgeOverrides</text>
</g>
</g>
</svg>
