<?xml version="1.0" encoding="UTF-8" standalone="no"?>
<!DOCTYPE svg PUBLIC "-//W3C//DTD SVG 1.1//EN"
 "http://www.w3.org/Graphics/SVG/1.1/DTD/svg11.dtd">
<!-- Generated by graphviz version 15.0.0 (20260523.1842)
 -->
<!-- Title: BalloonParty.Projectile.View.ProjectileView Pages: 1 -->
<svg width="1051pt" height="547pt"
 viewBox="0.00 0.00 1051.00 547.00" xmlns="http://www.w3.org/2000/svg" xmlns:xlink="http://www.w3.org/1999/xlink">
<g id="graph0" class="graph" transform="scale(1 1) rotate(0) translate(4 542.76)">
<title>BalloonParty.Projectile.View.ProjectileView</title>
<!-- Node1 -->
<g id="Node000001" class="node">
<title>Node1</title>
<g id="a_Node000001"><a xlink:title=" ">
<polygon fill="#999999" stroke="#666666" points="1042.5,-240.5 926,-240.5 926,-210 1042.5,-210 1042.5,-240.5"/>
<text xml:space="preserve" text-anchor="start" x="934" y="-227" font-family="Helvetica,sans-Serif" font-size="10.00">BalloonParty.Projectile.</text>
<text xml:space="preserve" text-anchor="middle" x="984.25" y="-215.75" font-family="Helvetica,sans-Serif" font-size="10.00">View.ProjectileView</text>
</a>
</g>
</g>
<!-- Node2 -->
<g id="Node000002" class="node">
<title>Node2</title>
<g id="a_Node000002"><a xlink:title=" ">
<polygon fill="white" stroke="#666666" points="535.38,-483.88 451.88,-483.88 451.88,-464.62 535.38,-464.62 535.38,-483.88"/>
<text xml:space="preserve" text-anchor="middle" x="493.62" y="-470.38" font-family="Helvetica,sans-Serif" font-size="10.00">MonoBehaviour</text>
</a>
</g>
</g>
<!-- Node2&#45;&gt;Node1 -->
<g id="edge1_Node000001_Node000002" class="edge">
<title>Node2&#45;&gt;Node1</title>
<g id="a_edge1_Node000001_Node000002"><a xlink:title=" ">
<path fill="none" stroke="#63b8ff" d="M527.6,-488.63C604.28,-519.59 796.5,-582.6 908,-490.25 947.59,-457.45 973.76,-292.83 981.12,-240.94"/>
<polygon fill="#63b8ff" stroke="#63b8ff" points="529.13,-485.47 518.55,-484.89 526.46,-491.94 529.13,-485.47"/>
</a>
</g>
</g>
<!-- Node13 -->
<g id="Node000013" class="node">
<title>Node13</title>
<g id="a_Node000013"><a xlink:href="class_balloon_party_1_1_projectile_1_1_view_1_1_projectile_trail.html" target="_top" xlink:title=" ">
<polygon fill="white" stroke="#666666" points="799.25,-489.5 682.75,-489.5 682.75,-459 799.25,-459 799.25,-489.5"/>
<text xml:space="preserve" text-anchor="start" x="690.75" y="-476" font-family="Helvetica,sans-Serif" font-size="10.00">BalloonParty.Projectile.</text>
<text xml:space="preserve" text-anchor="middle" x="741" y="-464.75" font-family="Helvetica,sans-Serif" font-size="10.00">View.ProjectileTrail</text>
</a>
</g>
</g>
<!-- Node2&#45;&gt;Node13 -->
<g id="edge13_Node000013_Node000002" class="edge">
<title>Node2&#45;&gt;Node13</title>
<g id="a_edge13_Node000013_Node000002"><a xlink:title=" ">
<path fill="none" stroke="#63b8ff" d="M547.03,-474.25C586.89,-474.25 641.68,-474.25 682.7,-474.25"/>
<polygon fill="#63b8ff" stroke="#63b8ff" points="547.21,-470.75 537.21,-474.25 547.21,-477.75 547.21,-470.75"/>
</a>
</g>
</g>
<!-- Node14 -->
<g id="Node000014" class="node">
<title>Node14</title>
<g id="a_Node000014"><a xlink:href="class_balloon_party_1_1_projectile_1_1_view_1_1_projectile_shield_view.html" target="_top" xlink:title=" ">
<polygon fill="white" stroke="#666666" points="805.25,-342.5 676.75,-342.5 676.75,-312 805.25,-312 805.25,-342.5"/>
<text xml:space="preserve" text-anchor="start" x="684.75" y="-329" font-family="Helvetica,sans-Serif" font-size="10.00">BalloonParty.Projectile.</text>
<text xml:space="preserve" text-anchor="middle" x="741" y="-317.75" font-family="Helvetica,sans-Serif" font-size="10.00">View.ProjectileShieldView</text>
</a>
</g>
</g>
<!-- Node2&#45;&gt;Node14 -->
<g id="edge15_Node000014_Node000002" class="edge">
<title>Node2&#45;&gt;Node14</title>
<g id="a_edge15_Node000014_Node000002"><a xlink:title=" ">
<path fill="none" stroke="#63b8ff" d="M538.43,-460.67C569.56,-449.98 611.62,-433.37 645.25,-412.25 677.06,-392.27 708.41,-361.34 725.88,-342.82"/>
<polygon fill="#63b8ff" stroke="#63b8ff" points="537.71,-457.22 529.35,-463.72 539.94,-463.85 537.71,-457.22"/>
</a>
</g>
</g>
<!-- Node3 -->
<g id="Node000003" class="node">
<title>Node3</title>
<g id="a_Node000003"><a xlink:href="interface_balloon_party_1_1_shared_1_1_pool_1_1_i_poolable.html" target="_top" xlink:title=" ">
<polygon fill="white" stroke="#666666" points="805.62,-154.5 676.38,-154.5 676.38,-124 805.62,-124 805.62,-154.5"/>
<text xml:space="preserve" text-anchor="start" x="684.38" y="-141" font-family="Helvetica,sans-Serif" font-size="10.00">BalloonParty.Shared.Pool.</text>
<text xml:space="preserve" text-anchor="middle" x="741" y="-129.75" font-family="Helvetica,sans-Serif" font-size="10.00">IPoolable</text>
</a>
</g>
</g>
<!-- Node3&#45;&gt;Node1 -->
<g id="edge2_Node000001_Node000003" class="edge">
<title>Node3&#45;&gt;Node1</title>
<g id="a_edge2_Node000001_Node000003"><a xlink:title=" ">
<path fill="none" stroke="#63b8ff" d="M817.32,-144.76C846.54,-148.84 879.7,-155.93 908,-168.25 930.84,-178.19 953.09,-196.42 967.39,-209.6"/>
<polygon fill="#63b8ff" stroke="#63b8ff" points="817.78,-141.29 807.42,-143.48 816.89,-148.23 817.78,-141.29"/>
</a>
</g>
</g>
<!-- Node4 -->
<g id="Node000004" class="node">
<title>Node4</title>
<g id="a_Node000004"><a xlink:href="class_balloon_party_1_1_configuration_1_1_game_palette.html" target="_top" xlink:title=" ">
<polygon fill="white" stroke="#666666" points="560.5,-432.5 426.75,-432.5 426.75,-402 560.5,-402 560.5,-432.5"/>
<text xml:space="preserve" text-anchor="start" x="434.75" y="-419" font-family="Helvetica,sans-Serif" font-size="10.00">BalloonParty.Configuration.</text>
<text xml:space="preserve" text-anchor="middle" x="493.62" y="-407.75" font-family="Helvetica,sans-Serif" font-size="10.00">GamePalette</text>
</a>
</g>
</g>
<!-- Node4&#45;&gt;Node1 -->
<g id="edge3_Node000001_Node000004" class="edge">
<title>Node4&#45;&gt;Node1</title>
<g id="a_edge3_Node000001_Node000004"><a xlink:title=" ">
<path fill="none" stroke="#9a32cd" stroke-dasharray="5,2" d="M572.11,-417.81C595.75,-416.87 621.71,-414.71 645.25,-410.25 768.65,-386.89 807.61,-381.72 908,-306.25 933.62,-286.99 957.84,-258.39 971.58,-240.83"/>
<polygon fill="#9a32cd" stroke="#9a32cd" points="572.1,-414.31 562.22,-418.13 572.33,-421.31 572.1,-414.31"/>
</a>
</g>
<text xml:space="preserve" text-anchor="start" x="723.75" y="-412.51" font-family="Helvetica,sans-Serif" font-size="10.00" fill="grey">_palette</text>
</g>
<!-- Node4&#45;&gt;Node14 -->
<g id="edge16_Node000014_Node000004" class="edge">
<title>Node4&#45;&gt;Node14</title>
<g id="a_edge16_Node000014_Node000004"><a xlink:title=" ">
<path fill="none" stroke="#9a32cd" stroke-dasharray="5,2" d="M557.9,-398.36C591.4,-388.19 628.91,-376.48 645.25,-370.25 666.52,-362.14 689.8,-351.6 707.97,-342.98"/>
<polygon fill="#9a32cd" stroke="#9a32cd" points="557.2,-394.91 548.65,-401.16 559.23,-401.61 557.2,-394.91"/>
</a>
</g>
<text xml:space="preserve" text-anchor="start" x="594.62" y="-396.93" font-family="Helvetica,sans-Serif" font-size="10.00" fill="grey">_palette</text>
</g>
<!-- Node5 -->
<g id="Node000005" class="node">
<title>Node5</title>
<g id="a_Node000005"><a xlink:title=" ">
<polygon fill="white" stroke="#666666" points="273,-460.88 185,-460.88 185,-441.62 273,-441.62 273,-460.88"/>
<text xml:space="preserve" text-anchor="middle" x="229" y="-447.38" font-family="Helvetica,sans-Serif" font-size="10.00">ScriptableObject</text>
</a>
</g>
</g>
<!-- Node5&#45;&gt;Node4 -->
<g id="edge4_Node000004_Node000005" class="edge">
<title>Node5&#45;&gt;Node4</title>
<g id="a_edge4_Node000004_Node000005"><a xlink:title=" ">
<path fill="none" stroke="#63b8ff" d="M284.26,-448.12C319.8,-445.65 367.19,-441.54 408.75,-435.25 414.49,-434.38 420.43,-433.36 426.38,-432.25"/>
<polygon fill="#63b8ff" stroke="#63b8ff" points="284.41,-444.6 274.67,-448.77 284.88,-451.59 284.41,-444.6"/>
</a>
</g>
</g>
<!-- Node6 -->
<g id="Node000006" class="node">
<title>Node6</title>
<g id="a_Node000006"><a xlink:href="class_balloon_party_1_1_configuration_1_1_palette_entry.html" target="_top" xlink:title=" ">
<polygon fill="white" stroke="#666666" points="295.88,-423.5 162.12,-423.5 162.12,-393 295.88,-393 295.88,-423.5"/>
<text xml:space="preserve" text-anchor="start" x="170.12" y="-410" font-family="Helvetica,sans-Serif" font-size="10.00">BalloonParty.Configuration.</text>
<text xml:space="preserve" text-anchor="middle" x="229" y="-398.75" font-family="Helvetica,sans-Serif" font-size="10.00">PaletteEntry</text>
</a>
</g>
</g>
<!-- Node6&#45;&gt;Node4 -->
<g id="edge5_Node000004_Node000006" class="edge">
<title>Node6&#45;&gt;Node4</title>
<g id="a_edge5_Node000004_Node000006"><a xlink:title=" ">
<path fill="none" stroke="#9a32cd" stroke-dasharray="5,2" d="M307.73,-410.91C345.46,-412.21 390.3,-413.74 426.37,-414.98"/>
<polygon fill="#9a32cd" stroke="#9a32cd" points="307.9,-407.42 297.78,-410.57 307.66,-414.41 307.9,-407.42"/>
</a>
</g>
<text xml:space="preserve" text-anchor="start" x="346.12" y="-420.34" font-family="Helvetica,sans-Serif" font-size="10.00" fill="grey">_colors</text>
</g>
<!-- Node7 -->
<g id="Node000007" class="node">
<title>Node7</title>
<g id="a_Node000007"><a xlink:href="interface_balloon_party_1_1_shared_1_1_i_game_configuration.html" target="_top" xlink:title=" ">
<polygon fill="white" stroke="#666666" points="297,-197.5 161,-197.5 161,-167 297,-167 297,-197.5"/>
<text xml:space="preserve" text-anchor="start" x="169" y="-184" font-family="Helvetica,sans-Serif" font-size="10.00">BalloonParty.Shared.IGame</text>
<text xml:space="preserve" text-anchor="middle" x="229" y="-172.75" font-family="Helvetica,sans-Serif" font-size="10.00">Configuration</text>
</a>
</g>
</g>
<!-- Node7&#45;&gt;Node1 -->
<g id="edge6_Node000001_Node000007" class="edge">
<title>Node7&#45;&gt;Node1</title>
<g id="a_edge6_Node000001_Node000007"><a xlink:title=" ">
<path fill="none" stroke="#9a32cd" stroke-dasharray="5,2" d="M308.53,-181.98C421.56,-182.22 636.56,-185.07 818.75,-201.25 854.4,-204.42 894.11,-210.15 925.58,-215.21"/>
<polygon fill="#9a32cd" stroke="#9a32cd" points="308.77,-178.48 298.77,-181.96 308.76,-185.48 308.77,-178.48"/>
</a>
</g>
<text xml:space="preserve" text-anchor="start" x="596.12" y="-195.77" font-family="Helvetica,sans-Serif" font-size="10.00" fill="grey">_config</text>
</g>
<!-- Node7&#45;&gt;Node14 -->
<g id="edge17_Node000014_Node000007" class="edge">
<title>Node7&#45;&gt;Node14</title>
<g id="a_edge17_Node000014_Node000007"><a xlink:title=" ">
<path fill="none" stroke="#9a32cd" stroke-dasharray="5,2" d="M251.64,-206.07C285.18,-241.13 353.53,-305.35 426.75,-332.25 508.82,-362.4 611.34,-352.71 676.26,-341.33"/>
<polygon fill="#9a32cd" stroke="#9a32cd" points="254.32,-203.82 244.92,-198.93 249.22,-208.61 254.32,-203.82"/>
</a>
</g>
<text xml:space="preserve" text-anchor="start" x="477.88" y="-358.36" font-family="Helvetica,sans-Serif" font-size="10.00" fill="grey">_config</text>
</g>
<!-- Node16 -->
<g id="Node000016" class="node">
<title>Node16</title>
<g id="a_Node000016"><a xlink:href="class_balloon_party_1_1_slots_1_1_grid_1_1_slot_grid.html" target="_top" xlink:title=" ">
<polygon fill="white" stroke="#666666" points="553.38,-136.5 433.88,-136.5 433.88,-106 553.38,-106 553.38,-136.5"/>
<text xml:space="preserve" text-anchor="start" x="441.88" y="-123" font-family="Helvetica,sans-Serif" font-size="10.00">BalloonParty.Slots.Grid.</text>
<text xml:space="preserve" text-anchor="middle" x="493.62" y="-111.75" font-family="Helvetica,sans-Serif" font-size="10.00">SlotGrid</text>
</a>
</g>
</g>
<!-- Node7&#45;&gt;Node16 -->
<g id="edge21_Node000016_Node000007" class="edge">
<title>Node7&#45;&gt;Node16</title>
<g id="a_edge21_Node000016_Node000007"><a xlink:title=" ">
<path fill="none" stroke="#9a32cd" stroke-dasharray="5,2" d="M278.56,-162.63C290.35,-158.36 303.02,-154.18 315,-151 353.99,-140.66 398.79,-133.19 433.64,-128.32"/>
<polygon fill="#9a32cd" stroke="#9a32cd" points="277.59,-159.26 269.44,-166.02 280.03,-165.82 277.59,-159.26"/>
</a>
</g>
<text xml:space="preserve" text-anchor="start" x="346.12" y="-157" font-family="Helvetica,sans-Serif" font-size="10.00" fill="grey">_config</text>
</g>
<!-- Node8 -->
<g id="Node000008" class="node">
<title>Node8</title>
<g id="a_Node000008"><a xlink:href="class_balloon_party_1_1_game_1_1_score_1_1_color_streak_tracker.html" target="_top" xlink:title=" ">
<polygon fill="white" stroke="#666666" points="806.38,-105.5 675.62,-105.5 675.62,-75 806.38,-75 806.38,-105.5"/>
<text xml:space="preserve" text-anchor="start" x="683.62" y="-92" font-family="Helvetica,sans-Serif" font-size="10.00">BalloonParty.Game.Score.</text>
<text xml:space="preserve" text-anchor="middle" x="741" y="-80.75" font-family="Helvetica,sans-Serif" font-size="10.00">ColorStreakTracker</text>
</a>
</g>
</g>
<!-- Node8&#45;&gt;Node1 -->
<g id="edge7_Node000001_Node000008" class="edge">
<title>Node8&#45;&gt;Node1</title>
<g id="a_edge7_Node000001_Node000008"><a xlink:title=" ">
<path fill="none" stroke="#9a32cd" stroke-dasharray="5,2" d="M817.93,-95.81C847.82,-100.77 881.29,-109.98 908,-127 940.43,-147.67 964.3,-187.47 975.72,-209.54"/>
<polygon fill="#9a32cd" stroke="#9a32cd" points="818.58,-92.37 808.17,-94.34 817.54,-99.29 818.58,-92.37"/>
</a>
</g>
<text xml:space="preserve" text-anchor="start" x="839.75" y="-133" font-family="Helvetica,sans-Serif" font-size="10.00" fill="grey">_streakTracker</text>
</g>
<!-- Node9 -->
<g id="Node000009" class="node">
<title>Node9</title>
<g id="a_Node000009"><a xlink:title=" ">
<polygon fill="white" stroke="#666666" points="527.5,-87.88 459.75,-87.88 459.75,-68.62 527.5,-68.62 527.5,-87.88"/>
<text xml:space="preserve" text-anchor="middle" x="493.62" y="-74.38" font-family="Helvetica,sans-Serif" font-size="10.00">IDisposable</text>
</a>
</g>
</g>
<!-- Node9&#45;&gt;Node8 -->
<g id="edge8_Node000008_Node000009" class="edge">
<title>Node9&#45;&gt;Node8</title>
<g id="a_edge8_Node000008_Node000009"><a xlink:title=" ">
<path fill="none" stroke="#63b8ff" d="M539.2,-80.43C577.27,-82.29 632.52,-84.99 675.43,-87.09"/>
<polygon fill="#63b8ff" stroke="#63b8ff" points="539.64,-76.95 529.48,-79.95 539.3,-83.94 539.64,-76.95"/>
</a>
</g>
</g>
<!-- Node10 -->
<g id="Node000010" class="node">
<title>Node10</title>
<g id="a_Node000010"><a xlink:href="class_balloon_party_1_1_shared_1_1_pause_1_1_pause_service.html" target="_top" xlink:title="Central coordinator for gameplay pause states.">
<polygon fill="white" stroke="#666666" points="809.75,-56.5 672.25,-56.5 672.25,-26 809.75,-26 809.75,-56.5"/>
<text xml:space="preserve" text-anchor="start" x="680.25" y="-43" font-family="Helvetica,sans-Serif" font-size="10.00">BalloonParty.Shared.Pause.</text>
<text xml:space="preserve" text-anchor="middle" x="741" y="-31.75" font-family="Helvetica,sans-Serif" font-size="10.00">PauseService</text>
</a>
</g>
</g>
<!-- Node10&#45;&gt;Node1 -->
<g id="edge9_Node000001_Node000010" class="edge">
<title>Node10&#45;&gt;Node1</title>
<g id="a_edge9_Node000001_Node000010"><a xlink:title=" ">
<path fill="none" stroke="#9a32cd" stroke-dasharray="5,2" d="M821.09,-45.24C850.82,-50.12 883.36,-59.89 908,-79 951.78,-112.95 972.42,-179.43 979.85,-209.64"/>
<polygon fill="#9a32cd" stroke="#9a32cd" points="821.76,-41.8 811.36,-43.81 820.75,-48.72 821.76,-41.8"/>
</a>
</g>
<text xml:space="preserve" text-anchor="start" x="840.12" y="-85" font-family="Helvetica,sans-Serif" font-size="10.00" fill="grey">_pauseService</text>
</g>
<!-- Node11 -->
<g id="Node000011" class="node">
<title>Node11</title>
<g id="a_Node000011"><a xlink:href="interface_balloon_party_1_1_projectile_1_1_model_1_1_i_writeable_projectile_model.html" target="_top" xlink:title=" ">
<polygon fill="white" stroke="#666666" points="818.75,-240.5 663.25,-240.5 663.25,-210 818.75,-210 818.75,-240.5"/>
<text xml:space="preserve" text-anchor="start" x="671.25" y="-227" font-family="Helvetica,sans-Serif" font-size="10.00">BalloonParty.Projectile.</text>
<text xml:space="preserve" text-anchor="middle" x="741" y="-215.75" font-family="Helvetica,sans-Serif" font-size="10.00">Model.IWriteableProjectileModel</text>
</a>
</g>
</g>
<!-- Node11&#45;&gt;Node1 -->
<g id="edge10_Node000001_Node000011" class="edge">
<title>Node11&#45;&gt;Node1</title>
<g id="a_edge10_Node000001_Node000011"><a xlink:title=" ">
<path fill="none" stroke="#9a32cd" stroke-dasharray="5,2" d="M830.12,-225.25C861.99,-225.25 897.13,-225.25 925.7,-225.25"/>
<polygon fill="#9a32cd" stroke="#9a32cd" points="830.51,-221.75 820.51,-225.25 830.51,-228.75 830.51,-221.75"/>
</a>
</g>
<text xml:space="preserve" text-anchor="start" x="856.62" y="-231.25" font-family="Helvetica,sans-Serif" font-size="10.00" fill="grey">_model</text>
</g>
<!-- Node12 -->
<g id="Node000012" class="node">
<title>Node12</title>
<g id="a_Node000012"><a xlink:href="interface_balloon_party_1_1_projectile_1_1_model_1_1_i_projectile_model.html" target="_top" xlink:title=" ">
<polygon fill="white" stroke="#666666" points="551.88,-257.5 435.38,-257.5 435.38,-227 551.88,-227 551.88,-257.5"/>
<text xml:space="preserve" text-anchor="start" x="443.38" y="-244" font-family="Helvetica,sans-Serif" font-size="10.00">BalloonParty.Projectile.</text>
<text xml:space="preserve" text-anchor="middle" x="493.62" y="-232.75" font-family="Helvetica,sans-Serif" font-size="10.00">Model.IProjectileModel</text>
</a>
</g>
</g>
<!-- Node12&#45;&gt;Node11 -->
<g id="edge11_Node000011_Node000012" class="edge">
<title>Node12&#45;&gt;Node11</title>
<g id="a_edge11_Node000011_Node000012"><a xlink:title=" ">
<path fill="none" stroke="#63b8ff" d="M563.39,-229.94C568.49,-229.28 573.57,-228.7 578.5,-228.25 606.01,-225.71 636.25,-224.68 663.06,-224.38"/>
<polygon fill="#63b8ff" stroke="#63b8ff" points="563.15,-226.44 553.73,-231.28 564.12,-233.37 563.15,-226.44"/>
</a>
</g>
</g>
<!-- Node12&#45;&gt;Node14 -->
<g id="edge25_Node000014_Node000012" class="edge">
<title>Node12&#45;&gt;Node14</title>
<g id="a_edge25_Node000014_Node000012"><a xlink:title=" ">
<path fill="none" stroke="#9a32cd" stroke-dasharray="5,2" d="M551.35,-261.64C579.59,-271.32 614.23,-283.23 645.25,-294 661.72,-299.72 679.78,-306.04 695.67,-311.63"/>
<polygon fill="#9a32cd" stroke="#9a32cd" points="552.49,-258.33 541.9,-258.4 550.22,-264.95 552.49,-258.33"/>
</a>
</g>
<text xml:space="preserve" text-anchor="start" x="596.12" y="-300" font-family="Helvetica,sans-Serif" font-size="10.00" fill="grey">_model</text>
</g>
<!-- Node13&#45;&gt;Node1 -->
<g id="edge12_Node000001_Node000013" class="edge">
<title>Node13&#45;&gt;Node1</title>
<g id="a_edge12_Node000001_Node000013"><a xlink:title=" ">
<path fill="none" stroke="#9a32cd" stroke-dasharray="5,2" d="M810.79,-473.85C843.7,-470.24 881.6,-460.62 908,-437.25 967.95,-384.19 980.14,-280.16 982.62,-240.82"/>
<polygon fill="#9a32cd" stroke="#9a32cd" points="810.53,-470.36 800.88,-474.75 811.16,-477.33 810.53,-470.36"/>
</a>
</g>
<text xml:space="preserve" text-anchor="start" x="840.88" y="-475.43" font-family="Helvetica,sans-Serif" font-size="10.00" fill="grey">_projectileTrail</text>
</g>
<!-- Node14&#45;&gt;Node1 -->
<g id="edge14_Node000001_Node000014" class="edge">
<title>Node14&#45;&gt;Node1</title>
<g id="a_edge14_Node000001_Node000014"><a xlink:title=" ">
<path fill="none" stroke="#9a32cd" stroke-dasharray="5,2" d="M789.75,-307.06C835.64,-287.66 904.05,-258.73 946.04,-240.98"/>
<polygon fill="#9a32cd" stroke="#9a32cd" points="788.41,-303.83 780.56,-310.95 791.13,-310.28 788.41,-303.83"/>
</a>
</g>
<text xml:space="preserve" text-anchor="start" x="846.12" y="-291.39" font-family="Helvetica,sans-Serif" font-size="10.00" fill="grey">_shieldView</text>
</g>
<!-- Node15 -->
<g id="Node000015" class="node">
<title>Node15</title>
<g id="a_Node000015"><a xlink:href="class_balloon_party_1_1_shared_1_1_pool_1_1_pool_manager.html" target="_top" xlink:title=" ">
<polygon fill="white" stroke="#666666" points="558.25,-323.5 429,-323.5 429,-293 558.25,-293 558.25,-323.5"/>
<text xml:space="preserve" text-anchor="start" x="437" y="-310" font-family="Helvetica,sans-Serif" font-size="10.00">BalloonParty.Shared.Pool.</text>
<text xml:space="preserve" text-anchor="middle" x="493.62" y="-298.75" font-family="Helvetica,sans-Serif" font-size="10.00">PoolManager</text>
</a>
</g>
</g>
<!-- Node15&#45;&gt;Node14 -->
<g id="edge18_Node000014_Node000015" class="edge">
<title>Node15&#45;&gt;Node14</title>
<g id="a_edge18_Node000014_Node000015"><a xlink:title=" ">
<path fill="none" stroke="#9a32cd" stroke-dasharray="5,2" d="M569.79,-314.07C603.93,-316.71 643.88,-319.81 676.49,-322.33"/>
<polygon fill="#9a32cd" stroke="#9a32cd" points="570.2,-310.59 559.96,-313.31 569.66,-317.57 570.2,-310.59"/>
</a>
</g>
<text xml:space="preserve" text-anchor="start" x="581.5" y="-325.45" font-family="Helvetica,sans-Serif" font-size="10.00" fill="grey">_poolManager</text>
</g>
<!-- Node16&#45;&gt;Node14 -->
<g id="edge19_Node000014_Node000016" class="edge">
<title>Node16&#45;&gt;Node14</title>
<g id="a_edge19_Node000014_Node000016"><a xlink:title=" ">
<path fill="none" stroke="#9a32cd" stroke-dasharray="5,2" d="M516.99,-145.1C533.36,-162.06 556.48,-184.98 578.5,-203.25 606.38,-226.38 616.36,-228.15 645.25,-250 672.5,-270.61 702.95,-295.85 721.8,-311.75"/>
<polygon fill="#9a32cd" stroke="#9a32cd" points="519.57,-142.74 510.13,-137.93 514.51,-147.58 519.57,-142.74"/>
</a>
</g>
<text xml:space="preserve" text-anchor="start" x="601.38" y="-256" font-family="Helvetica,sans-Serif" font-size="10.00" fill="grey">_grid</text>
</g>
<!-- Node17 -->
<g id="Node000017" class="node">
<title>Node17</title>
<g id="a_Node000017"><a xlink:href="class_balloon_party_1_1_slots_1_1_grid_1_1_balance_path_holder.html" target="_top" xlink:title="Tracks grid slots that are currently in&#45;transit due to balance animations.">
<polygon fill="white" stroke="#666666" points="288.75,-128.5 169.25,-128.5 169.25,-98 288.75,-98 288.75,-128.5"/>
<text xml:space="preserve" text-anchor="start" x="177.25" y="-115" font-family="Helvetica,sans-Serif" font-size="10.00">BalloonParty.Slots.Grid.</text>
<text xml:space="preserve" text-anchor="middle" x="229" y="-103.75" font-family="Helvetica,sans-Serif" font-size="10.00">BalancePathHolder</text>
</a>
</g>
</g>
<!-- Node17&#45;&gt;Node16 -->
<g id="edge20_Node000016_Node000017" class="edge">
<title>Node17&#45;&gt;Node16</title>
<g id="a_edge20_Node000016_Node000017"><a xlink:title=" ">
<path fill="none" stroke="#9a32cd" stroke-dasharray="5,2" d="M300.57,-109.98C333.47,-109.06 373.14,-108.83 408.75,-111 416.8,-111.49 425.27,-112.24 433.6,-113.12"/>
<polygon fill="#9a32cd" stroke="#9a32cd" points="300.63,-106.48 290.74,-110.28 300.84,-113.47 300.63,-106.48"/>
</a>
</g>
<text xml:space="preserve" text-anchor="start" x="318" y="-117" font-family="Helvetica,sans-Serif" font-size="10.00" fill="grey">_balancePathHolder</text>
</g>
<!-- Node18 -->
<g id="Node000018" class="node">
<title>Node18</title>
<g id="a_Node000018"><a xlink:href="interface_balloon_party_1_1_slots_1_1_actor_1_1_i_writeable_slot_actor.html" target="_top" xlink:title=" ">
<polygon fill="white" stroke="#666666" points="291,-79.5 167,-79.5 167,-49 291,-49 291,-79.5"/>
<text xml:space="preserve" text-anchor="start" x="175" y="-66" font-family="Helvetica,sans-Serif" font-size="10.00">BalloonParty.Slots.Actor.</text>
<text xml:space="preserve" text-anchor="middle" x="229" y="-54.75" font-family="Helvetica,sans-Serif" font-size="10.00">IWriteableSlotActor</text>
</a>
</g>
</g>
<!-- Node18&#45;&gt;Node16 -->
<g id="edge22_Node000016_Node000018" class="edge">
<title>Node18&#45;&gt;Node16</title>
<g id="a_edge22_Node000016_Node000018"><a xlink:title=" ">
<path fill="none" stroke="#9a32cd" stroke-dasharray="5,2" d="M302.5,-68.22C335.48,-71.46 374.68,-77.33 408.75,-88 417.33,-90.69 418.51,-93.65 426.75,-97.25 433.33,-100.13 440.38,-102.95 447.32,-105.6"/>
<polygon fill="#9a32cd" stroke="#9a32cd" points="302.89,-64.74 292.61,-67.32 302.25,-71.71 302.89,-64.74"/>
</a>
</g>
<text xml:space="preserve" text-anchor="start" x="348.75" y="-94" font-family="Helvetica,sans-Serif" font-size="10.00" fill="grey">_slots</text>
</g>
<!-- Node19 -->
<g id="Node000019" class="node">
<title>Node19</title>
<g id="a_Node000019"><a xlink:href="interface_balloon_party_1_1_slots_1_1_actor_1_1_i_slot_actor.html" target="_top" xlink:title=" ">
<polygon fill="white" stroke="#666666" points="124,-79.5 0,-79.5 0,-49 124,-49 124,-79.5"/>
<text xml:space="preserve" text-anchor="start" x="8" y="-66" font-family="Helvetica,sans-Serif" font-size="10.00">BalloonParty.Slots.Actor.</text>
<text xml:space="preserve" text-anchor="middle" x="62" y="-54.75" font-family="Helvetica,sans-Serif" font-size="10.00">ISlotActor</text>
</a>
</g>
</g>
<!-- Node19&#45;&gt;Node18 -->
<g id="edge23_Node000018_Node000019" class="edge">
<title>Node19&#45;&gt;Node18</title>
<g id="a_edge23_Node000018_Node000019"><a xlink:title=" ">
<path fill="none" stroke="#63b8ff" d="M135.87,-64.25C146.09,-64.25 156.52,-64.25 166.51,-64.25"/>
<polygon fill="#63b8ff" stroke="#63b8ff" points="135.95,-60.75 125.95,-64.25 135.95,-67.75 135.95,-60.75"/>
</a>
</g>
</g>
<!-- Node20 -->
<g id="Node000020" class="node">
<title>Node20</title>
<g id="a_Node000020"><a xlink:href="interface_balloon_party_1_1_slots_1_1_actor_1_1_i_slot_actor_view.html" target="_top" xlink:title=" ">
<polygon fill="white" stroke="#666666" points="291,-30.5 167,-30.5 167,0 291,0 291,-30.5"/>
<text xml:space="preserve" text-anchor="start" x="175" y="-17" font-family="Helvetica,sans-Serif" font-size="10.00">BalloonParty.Slots.Actor.</text>
<text xml:space="preserve" text-anchor="middle" x="229" y="-5.75" font-family="Helvetica,sans-Serif" font-size="10.00">ISlotActorView</text>
</a>
</g>
</g>
<!-- Node20&#45;&gt;Node16 -->
<g id="edge24_Node000016_Node000020" class="edge">
<title>Node20&#45;&gt;Node16</title>
<g id="a_edge24_Node000016_Node000020"><a xlink:title=" ">
<path fill="none" stroke="#9a32cd" stroke-dasharray="5,2" d="M302.79,-13C338.36,-15.57 379.66,-24.49 408.75,-49 426.25,-63.75 410.5,-81.13 426.75,-97.25 429.95,-100.42 433.6,-103.18 437.5,-105.57"/>
<polygon fill="#9a32cd" stroke="#9a32cd" points="303.16,-9.51 292.98,-12.46 302.77,-16.5 303.16,-9.51"/>
</a>
</g>
<text xml:space="preserve" text-anchor="start" x="346.5" y="-55" font-family="Helvetica,sans-Serif" font-size="10.00" fill="grey">_views</text>
</g>
</g>
</svg>
