<?xml version="1.0" encoding="UTF-8" standalone="no"?>
<!DOCTYPE svg PUBLIC "-//W3C//DTD SVG 1.1//EN"
 "http://www.w3.org/Graphics/SVG/1.1/DTD/svg11.dtd">
<!-- Generated by graphviz version 15.0.0 (20260523.1842)
 -->
<!-- Title: BalloonParty.UI.LevelUp.LevelUpPopUp Pages: 1 -->
<!--zoomable 389 -->

<svg id="main" version="1.1" xmlns="http://www.w3.org/2000/svg" xmlns:xlink="http://www.w3.org/1999/xlink" xml:space="preserve" onload="init(evt)">

<style type="text/css"><![CDATA[
.node, .edge {opacity: 0.7;}
.node.selected, .edge.selected {opacity: 1;}
.edge:hover path { stroke: red; }
.edge:hover polygon { stroke: red; fill: red; }
]]></style>

<defs>
  <circle id="rim" cx="0" cy="0" r="7"/>
  <circle id="rim2" cx="0" cy="0" r="3.5"/>
  <g id="zoomPlus">
    <use xlink:href="#rim" fill="#404040"><set attributeName="fill" to="#808080" begin="zoomplus.mouseover" end="zoomplus.mouseout"/></use>
    <path d="M-4,0h8M0,-4v8" fill="none" stroke="white" stroke-width="1.5" pointer-events="none"/>
  </g>
  <g id="zoomMin">
    <use xlink:href="#rim" fill="#404040"><set attributeName="fill" to="#808080" begin="zoomminus.mouseover" end="zoomminus.mouseout"/></use>
    <path d="M-4,0h8" fill="none" stroke="white" stroke-width="1.5" pointer-events="none"/>
  </g>
  <g id="arrowUp" transform="translate(30 24)">
    <use xlink:href="#rim"/>
    <path pointer-events="none" fill="none" stroke="white" stroke-width="1.5" d="M0,-3.0v7 M-2.5,-0.5L0,-3.0L2.5,-0.5"/>
  </g>
  <g id="arrowRight" transform="rotate(90) translate(36 -43)">
    <use xlink:href="#rim"/>
    <path pointer-events="none" fill="none" stroke="white" stroke-width="1.5" d="M0,-3.0v7 M-2.5,-0.5L0,-3.0L2.5,-0.5"/>
  </g>
  <g id="arrowDown" transform="rotate(180) translate(-30 -48)">
    <use xlink:href="#rim"/>
    <path pointer-events="none" fill="none" stroke="white" stroke-width="1.5" d="M0,-3.0v7 M-2.5,-0.5L0,-3.0L2.5,-0.5"/>
  </g>
  <g id="arrowLeft" transform="rotate(270) translate(-36 17)">
    <use xlink:href="#rim"/>
    <path pointer-events="none" fill="none" stroke="white" stroke-width="1.5" d="M0,-3.0v7 M-2.5,-0.5L0,-3.0L2.5,-0.5"/>
  </g>
  <g id="resetDef">
    <use xlink:href="#rim2" fill="#404040"><set attributeName="fill" to="#808080" begin="reset.mouseover" end="reset.mouseout"/></use>
  </g>
</defs>
<script type="application/ecmascript">
var viewWidth = 887;
var viewHeight = 389;
var sectionId = 'dynsection-1';
</script>
<script type="application/ecmascript" xlink:href="svg.min.js"/>
<svg id="graph" class="graph">
<g id="viewport">
<title>BalloonParty.UI.LevelUp.LevelUpPopUp</title>
<!-- Node1 -->
<g id="Node000001" class="node">
<title>Node1</title>
<g id="a_Node000001"><a xlink:title=" ">
<polygon fill="#999999" stroke="#666666" points="878.5,-171.5 753,-171.5 753,-141 878.5,-141 878.5,-171.5"/>
<text xml:space="preserve" text-anchor="start" x="761" y="-158" font-family="Helvetica,sans-Serif" font-size="10.00">BalloonParty.UI.LevelUp.</text>
<text xml:space="preserve" text-anchor="middle" x="815.75" y="-146.75" font-family="Helvetica,sans-Serif" font-size="10.00">LevelUpPopUp</text>
</a>
</g>
</g>
<!-- Node2 -->
<g id="Node000002" class="node">
<title>Node2</title>
<g id="a_Node000002"><a xlink:title=" ">
<polygon fill="white" stroke="#666666" points="112.38,-346.88 28.88,-346.88 28.88,-327.62 112.38,-327.62 112.38,-346.88"/>
<text xml:space="preserve" text-anchor="middle" x="70.62" y="-333.38" font-family="Helvetica,sans-Serif" font-size="10.00">MonoBehaviour</text>
</a>
</g>
</g>
<!-- Node2&#45;&gt;Node1 -->
<g id="edge1_Node000001_Node000002" class="edge">
<title>Node2&#45;&gt;Node1</title>
<g id="a_edge1_Node000001_Node000002"><a xlink:title=" ">
<path fill="none" stroke="#63b8ff" d="M121.92,-349.92C222.87,-372.7 455.38,-411.74 629.25,-338.25 713.61,-302.59 780.82,-209.04 805.04,-171.84"/>
<polygon fill="#63b8ff" stroke="#63b8ff" points="122.85,-346.54 112.32,-347.7 121.28,-353.36 122.85,-346.54"/>
</a>
</g>
</g>
<!-- Node15 -->
<g id="Node000015" class="node">
<title>Node15</title>
<g id="a_Node000015"><a xlink:href="class_balloon_party_1_1_u_i_1_1_score_1_1_flying_trail.html" target="_top" xlink:title=" ">
<polygon fill="white" stroke="#666666" points="365.75,-166.5 224.5,-166.5 224.5,-136 365.75,-136 365.75,-166.5"/>
<text xml:space="preserve" text-anchor="start" x="232.5" y="-153" font-family="Helvetica,sans-Serif" font-size="10.00">BalloonParty.UI.Score.Flying</text>
<text xml:space="preserve" text-anchor="middle" x="295.12" y="-141.75" font-family="Helvetica,sans-Serif" font-size="10.00">Trail</text>
</a>
</g>
</g>
<!-- Node2&#45;&gt;Node15 -->
<g id="edge17_Node000015_Node000002" class="edge">
<title>Node2&#45;&gt;Node15</title>
<g id="a_edge17_Node000015_Node000002"><a xlink:title=" ">
<path fill="none" stroke="#63b8ff" d="M84.66,-318.28C108.45,-285.01 162.1,-215.9 223,-176.25 228.37,-172.75 234.3,-169.68 240.36,-166.99"/>
<polygon fill="#63b8ff" stroke="#63b8ff" points="82.02,-315.95 79.13,-326.15 87.75,-319.98 82.02,-315.95"/>
</a>
</g>
</g>
<!-- Node3 -->
<g id="Node000003" class="node">
<title>Node3</title>
<g id="a_Node000003"><a xlink:href="interface_balloon_party_1_1_shared_1_1_i_ready_gate.html" target="_top" xlink:title="Blocks a caller until some external condition allows it to proceed.">
<polygon fill="white" stroke="#666666" points="629.25,-165.88 470,-165.88 470,-146.62 629.25,-146.62 629.25,-165.88"/>
<text xml:space="preserve" text-anchor="middle" x="549.62" y="-152.38" font-family="Helvetica,sans-Serif" font-size="10.00">BalloonParty.Shared.IReadyGate</text>
</a>
</g>
</g>
<!-- Node3&#45;&gt;Node1 -->
<g id="edge2_Node000001_Node000003" class="edge">
<title>Node3&#45;&gt;Node1</title>
<g id="a_edge2_Node000001_Node000003"><a xlink:title=" ">
<path fill="none" stroke="#9a32cd" stroke-dasharray="5,2" d="M640.77,-156.25C677.6,-156.25 719.27,-156.25 752.6,-156.25"/>
<polygon fill="#9a32cd" stroke="#9a32cd" points="641.03,-152.75 631.03,-156.25 641.03,-159.75 641.03,-152.75"/>
</a>
</g>
<text xml:space="preserve" text-anchor="start" x="679.12" y="-162.25" font-family="Helvetica,sans-Serif" font-size="10.00" fill="grey">_gate</text>
</g>
<!-- Node4 -->
<g id="Node000004" class="node">
<title>Node4</title>
<g id="a_Node000004"><a xlink:href="class_balloon_party_1_1_shared_1_1_pause_1_1_pause_service.html" target="_top" xlink:title="Central coordinator for gameplay pause states.">
<polygon fill="white" stroke="#666666" points="618.38,-79.5 480.88,-79.5 480.88,-49 618.38,-49 618.38,-79.5"/>
<text xml:space="preserve" text-anchor="start" x="488.88" y="-66" font-family="Helvetica,sans-Serif" font-size="10.00">BalloonParty.Shared.Pause.</text>
<text xml:space="preserve" text-anchor="middle" x="549.62" y="-54.75" font-family="Helvetica,sans-Serif" font-size="10.00">PauseService</text>
</a>
</g>
</g>
<!-- Node4&#45;&gt;Node1 -->
<g id="edge3_Node000001_Node000004" class="edge">
<title>Node4&#45;&gt;Node1</title>
<g id="a_edge3_Node000001_Node000004"><a xlink:title=" ">
<path fill="none" stroke="#9a32cd" stroke-dasharray="5,2" d="M629.83,-72.78C663.22,-78.21 701.93,-86.97 735,-101 758.1,-110.8 781.33,-127.91 796.71,-140.5"/>
<polygon fill="#9a32cd" stroke="#9a32cd" points="630.64,-69.37 620.22,-71.3 629.57,-76.28 630.64,-69.37"/>
</a>
</g>
<text xml:space="preserve" text-anchor="start" x="658.88" y="-107" font-family="Helvetica,sans-Serif" font-size="10.00" fill="grey">_pauseService</text>
</g>
<!-- Node5 -->
<g id="Node000005" class="node">
<title>Node5</title>
<g id="a_Node000005"><a xlink:href="interface_balloon_party_1_1_game_1_1_run_1_1_i_run_resettable.html" target="_top" xlink:title="Implemented by services holding per&#45;run state that must be cleared when a run restarts.">
<polygon fill="white" stroke="#666666" points="367.25,-31.5 223,-31.5 223,-1 367.25,-1 367.25,-31.5"/>
<text xml:space="preserve" text-anchor="start" x="231" y="-18" font-family="Helvetica,sans-Serif" font-size="10.00">BalloonParty.Game.Run.IRun</text>
<text xml:space="preserve" text-anchor="middle" x="295.12" y="-6.75" font-family="Helvetica,sans-Serif" font-size="10.00">Resettable</text>
</a>
</g>
</g>
<!-- Node5&#45;&gt;Node4 -->
<g id="edge4_Node000004_Node000005" class="edge">
<title>Node5&#45;&gt;Node4</title>
<g id="a_edge4_Node000004_Node000005"><a xlink:title=" ">
<path fill="none" stroke="#63b8ff" d="M378.6,-17.9C402.61,-19.91 428.65,-23.62 452,-30.25 460.6,-32.69 461.71,-35.88 470,-39.25 478.1,-42.54 486.8,-45.68 495.36,-48.55"/>
<polygon fill="#63b8ff" stroke="#63b8ff" points="379.11,-14.42 368.88,-17.17 378.59,-21.4 379.11,-14.42"/>
</a>
</g>
</g>
<!-- Node6 -->
<g id="Node000006" class="node">
<title>Node6</title>
<g id="a_Node000006"><a xlink:href="class_balloon_party_1_1_shared_1_1_pause_1_1_time_scale_service.html" target="_top" xlink:title="The only legal writer of Time.timeScale (a style&#45;audit rule bans writes elsewhere).">
<polygon fill="white" stroke="#666666" points="618.38,-128.5 480.88,-128.5 480.88,-98 618.38,-98 618.38,-128.5"/>
<text xml:space="preserve" text-anchor="start" x="488.88" y="-115" font-family="Helvetica,sans-Serif" font-size="10.00">BalloonParty.Shared.Pause.</text>
<text xml:space="preserve" text-anchor="middle" x="549.62" y="-103.75" font-family="Helvetica,sans-Serif" font-size="10.00">TimeScaleService</text>
</a>
</g>
</g>
<!-- Node5&#45;&gt;Node6 -->
<g id="edge6_Node000006_Node000005" class="edge">
<title>Node5&#45;&gt;Node6</title>
<g id="a_edge6_Node000006_Node000005"><a xlink:title=" ">
<path fill="none" stroke="#63b8ff" d="M378.53,-30.67C409.36,-37.34 439.86,-45.86 452,-55.25 465.22,-65.47 457.11,-77.62 470,-88.25 474.42,-91.9 479.38,-95.01 484.6,-97.68"/>
<polygon fill="#63b8ff" stroke="#63b8ff" points="379.62,-27.33 369.12,-28.7 378.19,-34.18 379.62,-27.33"/>
</a>
</g>
</g>
<!-- Node6&#45;&gt;Node1 -->
<g id="edge5_Node000001_Node000006" class="edge">
<title>Node6&#45;&gt;Node1</title>
<g id="a_edge5_Node000001_Node000006"><a xlink:title=" ">
<path fill="none" stroke="#9a32cd" stroke-dasharray="5,2" d="M630.15,-120.12C662.8,-123.59 700.88,-128.48 735,-135 743.16,-136.56 751.72,-138.5 760.07,-140.58"/>
<polygon fill="#9a32cd" stroke="#9a32cd" points="630.66,-116.65 620.35,-119.11 629.94,-123.62 630.66,-116.65"/>
</a>
</g>
<text xml:space="preserve" text-anchor="start" x="650.25" y="-141" font-family="Helvetica,sans-Serif" font-size="10.00" fill="grey">_timeScaleService</text>
</g>
<!-- Node7 -->
<g id="Node000007" class="node">
<title>Node7</title>
<g id="a_Node000007"><a xlink:href="interface_balloon_party_1_1_configuration_1_1_i_game_palette.html" target="_top" xlink:title=" ">
<polygon fill="white" stroke="#666666" points="616.5,-30.5 482.75,-30.5 482.75,0 616.5,0 616.5,-30.5"/>
<text xml:space="preserve" text-anchor="start" x="490.75" y="-17" font-family="Helvetica,sans-Serif" font-size="10.00">BalloonParty.Configuration.</text>
<text xml:space="preserve" text-anchor="middle" x="549.62" y="-5.75" font-family="Helvetica,sans-Serif" font-size="10.00">IGamePalette</text>
</a>
</g>
</g>
<!-- Node7&#45;&gt;Node1 -->
<g id="edge7_Node000001_Node000007" class="edge">
<title>Node7&#45;&gt;Node1</title>
<g id="a_edge7_Node000001_Node000007"><a xlink:title=" ">
<path fill="none" stroke="#9a32cd" stroke-dasharray="5,2" d="M627.69,-19.99C662.57,-25.01 703.04,-35.05 735,-55 769.36,-76.44 795,-118.18 807.07,-140.79"/>
<polygon fill="#9a32cd" stroke="#9a32cd" points="628.45,-16.56 618.08,-18.73 627.54,-23.5 628.45,-16.56"/>
</a>
</g>
<text xml:space="preserve" text-anchor="start" x="673.88" y="-61" font-family="Helvetica,sans-Serif" font-size="10.00" fill="grey">_palette</text>
</g>
<!-- Node8 -->
<g id="Node000008" class="node">
<title>Node8</title>
<g id="a_Node000008"><a xlink:href="class_balloon_party_1_1_shared_1_1_pool_1_1_pool_manager.html" target="_top" xlink:title=" ">
<polygon fill="white" stroke="#666666" points="359.75,-351.5 230.5,-351.5 230.5,-321 359.75,-321 359.75,-351.5"/>
<text xml:space="preserve" text-anchor="start" x="238.5" y="-338" font-family="Helvetica,sans-Serif" font-size="10.00">BalloonParty.Shared.Pool.</text>
<text xml:space="preserve" text-anchor="middle" x="295.12" y="-326.75" font-family="Helvetica,sans-Serif" font-size="10.00">PoolManager</text>
</a>
</g>
</g>
<!-- Node8&#45;&gt;Node1 -->
<g id="edge8_Node000001_Node000008" class="edge">
<title>Node8&#45;&gt;Node1</title>
<g id="a_edge8_Node000001_Node000008"><a xlink:title=" ">
<path fill="none" stroke="#9a32cd" stroke-dasharray="5,2" d="M371.36,-333.87C397.18,-331.9 426.09,-328.4 452,-322.25 583.61,-290.99 615.39,-273.44 735,-210.25 756.14,-199.08 778.55,-183.54 794.21,-172"/>
<polygon fill="#9a32cd" stroke="#9a32cd" points="371.36,-330.36 361.63,-334.54 371.84,-337.34 371.36,-330.36"/>
</a>
</g>
<text xml:space="preserve" text-anchor="start" x="519.25" y="-323.16" font-family="Helvetica,sans-Serif" font-size="10.00" fill="grey">_poolManager</text>
</g>
<!-- Node9 -->
<g id="Node000009" class="node">
<title>Node9</title>
<g id="a_Node000009"><a xlink:href="class_balloon_party_1_1_game_1_1_score_1_1_score_trail_service.html" target="_top" xlink:title=" ">
<polygon fill="white" stroke="#666666" points="615,-214.5 484.25,-214.5 484.25,-184 615,-184 615,-214.5"/>
<text xml:space="preserve" text-anchor="start" x="492.25" y="-201" font-family="Helvetica,sans-Serif" font-size="10.00">BalloonParty.Game.Score.</text>
<text xml:space="preserve" text-anchor="middle" x="549.62" y="-189.75" font-family="Helvetica,sans-Serif" font-size="10.00">ScoreTrailService</text>
</a>
</g>
</g>
<!-- Node8&#45;&gt;Node9 -->
<g id="edge14_Node000009_Node000008" class="edge">
<title>Node8&#45;&gt;Node9</title>
<g id="a_edge14_Node000009_Node000008"><a xlink:title=" ">
<path fill="none" stroke="#9a32cd" stroke-dasharray="5,2" d="M352.87,-316.67C357.75,-314.88 362.59,-313.06 367.25,-311.25 405.41,-296.46 416.78,-296.08 452,-275.25 482.13,-257.43 513.31,-231.25 531.83,-214.74"/>
<polygon fill="#9a32cd" stroke="#9a32cd" points="351.83,-313.33 343.62,-320.02 354.21,-319.91 351.83,-313.33"/>
</a>
</g>
<text xml:space="preserve" text-anchor="start" x="388.25" y="-310.46" font-family="Helvetica,sans-Serif" font-size="10.00" fill="grey">_poolManager</text>
</g>
<!-- Node9&#45;&gt;Node1 -->
<g id="edge9_Node000001_Node000009" class="edge">
<title>Node9&#45;&gt;Node1</title>
<g id="a_edge9_Node000001_Node000009"><a xlink:title=" ">
<path fill="none" stroke="#9a32cd" stroke-dasharray="5,2" d="M626.43,-191.9C659.86,-188.11 699.53,-182.88 735,-176.25 741.73,-174.99 748.75,-173.5 755.7,-171.91"/>
<polygon fill="#9a32cd" stroke="#9a32cd" points="626.4,-188.38 616.85,-192.96 627.17,-195.33 626.4,-188.38"/>
</a>
</g>
<text xml:space="preserve" text-anchor="start" x="650.62" y="-195.16" font-family="Helvetica,sans-Serif" font-size="10.00" fill="grey">_scoreTrailService</text>
</g>
<!-- Node10 -->
<g id="Node000010" class="node">
<title>Node10</title>
<g id="a_Node000010"><a xlink:title=" ">
<polygon fill="white" stroke="#666666" points="324.12,-68.88 266.12,-68.88 266.12,-49.62 324.12,-49.62 324.12,-68.88"/>
<text xml:space="preserve" text-anchor="middle" x="295.12" y="-55.38" font-family="Helvetica,sans-Serif" font-size="10.00">IStartable</text>
</a>
</g>
</g>
<!-- Node10&#45;&gt;Node9 -->
<g id="edge10_Node000009_Node000010" class="edge">
<title>Node10&#45;&gt;Node9</title>
<g id="a_edge10_Node000009_Node000010"><a xlink:title=" ">
<path fill="none" stroke="#63b8ff" d="M335.32,-68.89C345.76,-71.68 356.99,-74.89 367.25,-78.25 405.67,-90.82 424.84,-81.31 452,-111.25 471.85,-133.13 449.34,-154.13 470,-175.25 474.09,-179.43 478.89,-182.89 484.06,-185.75"/>
<polygon fill="#63b8ff" stroke="#63b8ff" points="336.4,-65.55 325.84,-66.42 334.63,-72.33 336.4,-65.55"/>
</a>
</g>
</g>
<!-- Node11 -->
<g id="Node000011" class="node">
<title>Node11</title>
<g id="a_Node000011"><a xlink:title=" ">
<polygon fill="white" stroke="#666666" points="329,-301.88 261.25,-301.88 261.25,-282.62 329,-282.62 329,-301.88"/>
<text xml:space="preserve" text-anchor="middle" x="295.12" y="-288.38" font-family="Helvetica,sans-Serif" font-size="10.00">IDisposable</text>
</a>
</g>
</g>
<!-- Node11&#45;&gt;Node9 -->
<g id="edge11_Node000009_Node000011" class="edge">
<title>Node11&#45;&gt;Node9</title>
<g id="a_edge11_Node000009_Node000011"><a xlink:title=" ">
<path fill="none" stroke="#63b8ff" d="M340.5,-283.51C372.18,-276.57 415.48,-265.64 452,-251.25 477.34,-241.26 504.52,-226.21 523.58,-214.86"/>
<polygon fill="#63b8ff" stroke="#63b8ff" points="339.91,-280.06 330.87,-285.57 341.38,-286.91 339.91,-280.06"/>
</a>
</g>
</g>
<!-- Node12 -->
<g id="Node000012" class="node">
<title>Node12</title>
<g id="a_Node000012"><a xlink:href="interface_balloon_party_1_1_shared_1_1_i_game_configuration.html" target="_top" xlink:title=" ">
<polygon fill="white" stroke="#666666" points="363.12,-264.5 227.12,-264.5 227.12,-234 363.12,-234 363.12,-264.5"/>
<text xml:space="preserve" text-anchor="start" x="235.12" y="-251" font-family="Helvetica,sans-Serif" font-size="10.00">BalloonParty.Shared.IGame</text>
<text xml:space="preserve" text-anchor="middle" x="295.12" y="-239.75" font-family="Helvetica,sans-Serif" font-size="10.00">Configuration</text>
</a>
</g>
</g>
<!-- Node12&#45;&gt;Node9 -->
<g id="edge12_Node000009_Node000012" class="edge">
<title>Node12&#45;&gt;Node9</title>
<g id="a_edge12_Node000009_Node000012"><a xlink:title=" ">
<path fill="none" stroke="#9a32cd" stroke-dasharray="5,2" d="M374.65,-233.7C409.81,-226.74 450.76,-218.63 484.09,-212.03"/>
<polygon fill="#9a32cd" stroke="#9a32cd" points="374.07,-230.25 364.94,-235.62 375.43,-237.11 374.07,-230.25"/>
</a>
</g>
<text xml:space="preserve" text-anchor="start" x="402.88" y="-236.2" font-family="Helvetica,sans-Serif" font-size="10.00" fill="grey">_config</text>
</g>
<!-- Node13 -->
<g id="Node000013" class="node">
<title>Node13</title>
<g id="a_Node000013"><a xlink:href="class_balloon_party_1_1_shared_1_1_pool_1_1_trail_flight_registry-1-g.html" target="_top" xlink:title="Central registry for all in&#45;flight trails.">
<polygon fill="white" stroke="#666666" points="359.75,-215.5 230.5,-215.5 230.5,-185 359.75,-185 359.75,-215.5"/>
<text xml:space="preserve" text-anchor="start" x="238.5" y="-202" font-family="Helvetica,sans-Serif" font-size="10.00">BalloonParty.Shared.Pool.</text>
<text xml:space="preserve" text-anchor="middle" x="295.12" y="-190.75" font-family="Helvetica,sans-Serif" font-size="10.00">TrailFlightRegistry&lt; TId &gt;</text>
</a>
</g>
</g>
<!-- Node13&#45;&gt;Node9 -->
<g id="edge13_Node000009_Node000013" class="edge">
<title>Node13&#45;&gt;Node9</title>
<g id="a_edge13_Node000009_Node000013"><a xlink:title=" ">
<path fill="none" stroke="#9a32cd" stroke-dasharray="5,2" d="M371.52,-199.95C407.25,-199.81 449.5,-199.64 483.77,-199.51"/>
<polygon fill="#9a32cd" stroke="#9a32cd" points="371.67,-196.45 361.68,-199.99 371.7,-203.45 371.67,-196.45"/>
</a>
</g>
<text xml:space="preserve" text-anchor="start" x="402.88" y="-205.87" font-family="Helvetica,sans-Serif" font-size="10.00" fill="grey">_flights</text>
</g>
<!-- Node14 -->
<g id="Node000014" class="node">
<title>Node14</title>
<g id="a_Node000014"><a xlink:href="class_balloon_party_1_1_shared_1_1_pool_1_1_trail_endpoint_registry.html" target="_top" xlink:title="Maps a key to the ITrailEndpoint registered under it.">
<polygon fill="white" stroke="#666666" points="359.75,-117.5 230.5,-117.5 230.5,-87 359.75,-87 359.75,-117.5"/>
<text xml:space="preserve" text-anchor="start" x="238.5" y="-104" font-family="Helvetica,sans-Serif" font-size="10.00">BalloonParty.Shared.Pool.</text>
<text xml:space="preserve" text-anchor="middle" x="295.12" y="-92.75" font-family="Helvetica,sans-Serif" font-size="10.00">TrailEndpointRegistry</text>
</a>
</g>
</g>
<!-- Node14&#45;&gt;Node9 -->
<g id="edge15_Node000009_Node000014" class="edge">
<title>Node14&#45;&gt;Node9</title>
<g id="a_edge15_Node000009_Node000014"><a xlink:title=" ">
<path fill="none" stroke="#9a32cd" stroke-dasharray="5,2" d="M371.4,-110.92C398.87,-117.01 428.85,-127.37 452,-145 464.45,-154.48 457.69,-165.59 470,-175.25 474.27,-178.6 479,-181.48 483.97,-183.96"/>
<polygon fill="#9a32cd" stroke="#9a32cd" points="372.19,-107.51 361.7,-108.94 370.79,-114.37 372.19,-107.51"/>
</a>
</g>
<text xml:space="preserve" text-anchor="start" x="395" y="-151" font-family="Helvetica,sans-Serif" font-size="10.00" fill="grey">_endpoints</text>
</g>
<!-- Node15&#45;&gt;Node9 -->
<g id="edge16_Node000009_Node000015" class="edge">
<title>Node15&#45;&gt;Node9</title>
<g id="a_edge16_Node000009_Node000015"><a xlink:title=" ">
<path fill="none" stroke="#9a32cd" stroke-dasharray="5,2" d="M377.33,-164.45C401.41,-168.56 427.81,-173.27 452,-178 462.37,-180.03 473.33,-182.31 484,-184.6"/>
<polygon fill="#9a32cd" stroke="#9a32cd" points="378.02,-161.02 367.58,-162.8 376.85,-167.92 378.02,-161.02"/>
</a>
</g>
<text xml:space="preserve" text-anchor="start" x="393.88" y="-184" font-family="Helvetica,sans-Serif" font-size="10.00" fill="grey">_trailPrefab</text>
</g>
<!-- Node16 -->
<g id="Node000016" class="node">
<title>Node16</title>
<g id="a_Node000016"><a xlink:href="interface_balloon_party_1_1_shared_1_1_pool_1_1_i_poolable.html" target="_top" xlink:title=" ">
<polygon fill="white" stroke="#666666" points="135.25,-141.5 6,-141.5 6,-111 135.25,-111 135.25,-141.5"/>
<text xml:space="preserve" text-anchor="start" x="14" y="-128" font-family="Helvetica,sans-Serif" font-size="10.00">BalloonParty.Shared.Pool.</text>
<text xml:space="preserve" text-anchor="middle" x="70.62" y="-116.75" font-family="Helvetica,sans-Serif" font-size="10.00">IPoolable</text>
</a>
</g>
</g>
<!-- Node16&#45;&gt;Node15 -->
<g id="edge18_Node000015_Node000016" class="edge">
<title>Node16&#45;&gt;Node15</title>
<g id="a_edge18_Node000015_Node000016"><a xlink:title=" ">
<path fill="none" stroke="#63b8ff" d="M146.96,-134.72C171.98,-137.53 199.71,-140.64 224.29,-143.4"/>
<polygon fill="#63b8ff" stroke="#63b8ff" points="147.52,-131.26 137.19,-133.62 146.73,-138.21 147.52,-131.26"/>
</a>
</g>
</g>
<!-- Node17 -->
<g id="Node000017" class="node">
<title>Node17</title>
<g id="a_Node000017"><a xlink:href="struct_balloon_party_1_1_u_i_1_1_score_1_1_flying_trail_1_1_motion_style.html" target="_top" xlink:title=" ">
<polygon fill="white" stroke="#666666" points="141.25,-190.5 0,-190.5 0,-160 141.25,-160 141.25,-190.5"/>
<text xml:space="preserve" text-anchor="start" x="8" y="-177" font-family="Helvetica,sans-Serif" font-size="10.00">BalloonParty.UI.Score.Flying</text>
<text xml:space="preserve" text-anchor="middle" x="70.62" y="-165.75" font-family="Helvetica,sans-Serif" font-size="10.00">Trail.MotionStyle</text>
</a>
</g>
</g>
<!-- Node17&#45;&gt;Node15 -->
<g id="edge19_Node000015_Node000017" class="edge">
<title>Node17&#45;&gt;Node15</title>
<g id="a_edge19_Node000015_Node000017"><a xlink:title=" ">
<path fill="none" stroke="#9a32cd" stroke-dasharray="5,2" d="M152.98,-166.47C176.27,-163.96 201.45,-161.25 224,-158.81"/>
<polygon fill="#9a32cd" stroke="#9a32cd" points="152.79,-162.97 143.22,-167.53 153.54,-169.93 152.79,-162.97"/>
</a>
</g>
<text xml:space="preserve" text-anchor="start" x="162.25" y="-171.4" font-family="Helvetica,sans-Serif" font-size="10.00" fill="grey">_motions</text>
</g>
</g>
</svg>

<g id="navigator" transform="translate(0 0)" fill="#404254">
  <rect fill="#f2f5e9" fill-opacity="0.5" stroke="#606060" stroke-width=".5" x="0" y="0" width="60" height="60"/>
  <use id="zoomplus" xlink:href="#zoomPlus" x="17" y="9" onmousedown="handleZoom(evt,'in')"/>
  <use id="zoomminus" xlink:href="#zoomMin" x="42" y="9" onmousedown="handleZoom(evt,'out')"/>
  <use id="reset" xlink:href="#resetDef" x="30" y="36" onmousedown="handleReset()"/>
   <use id="arrowup" xlink:href="#arrowUp" x="0" y="0" onmousedown="handlePan(0,-1)"/>
  <use id="arrowright" xlink:href="#arrowRight" x="0" y="0" onmousedown="handlePan(1,0)"/>
  <use id="arrowdown" xlink:href="#arrowDown" x="0" y="0" onmousedown="handlePan(0,1)"/>
  <use id="arrowleft" xlink:href="#arrowLeft" x="0" y="0" onmousedown="handlePan(-1,0)"/>
</g>
<svg viewBox="0 0 15 15" width="100%" height="30px" preserveAspectRatio="xMaxYMin meet">
 <g id="arrow_out" transform="scale(0.3 0.3)">
  <a xlink:href="class_balloon_party_1_1_u_i_1_1_level_up_1_1_level_up_pop_up__coll__graph_org.svg" target="_base">
   <rect id="button" ry="5" rx="5" y="6" x="6" height="38" width="38"
        fill="#f2f5e9" fill-opacity="0.5" stroke="#606060" stroke-width="1.0"/>
   <path id="arrow"
     d="M 11.500037,31.436501 C 11.940474,20.09759 22.043105,11.32322 32.158766,21.979434 L 37.068811,17.246167 C 37.068811,17.246167 37.088388,32 37.088388,32 L 22.160133,31.978069 C 22.160133,31.978069 26.997745,27.140456 26.997745,27.140456 C 18.528582,18.264221 13.291696,25.230495 11.500037,31.436501 z"
     style="fill:#404040;"/>
  </a>
 </g>
</svg>

<style type='text/css'>
<![CDATA[
[data-mouse-over-selected='false'] { opacity: 0.7; }
[data-mouse-over-selected='true']  { opacity: 1.0; }
]]>
</style>
<script type="application/ecmascript"><![CDATA[
document.addEventListener('DOMContentLoaded', (event) => {
  highlightEdges();
  highlightAdjacentNodes();
});
]]></script>
</svg>
