<?xml version="1.0" encoding="UTF-8" standalone="no"?>
<!DOCTYPE svg PUBLIC "-//W3C//DTD SVG 1.1//EN"
 "http://www.w3.org/Graphics/SVG/1.1/DTD/svg11.dtd">
<!-- Generated by graphviz version 15.0.0 (20260523.1842)
 -->
<!-- Title: BalloonParty.Configuration.GridActorConfiguration Pages: 1 -->
<svg width="940pt" height="223pt"
 viewBox="0.00 0.00 940.00 223.00" xmlns="http://www.w3.org/2000/svg" xmlns:xlink="http://www.w3.org/1999/xlink">
<g id="graph0" class="graph" transform="scale(1 1) rotate(0) translate(4 218.88)">
<title>BalloonParty.Configuration.GridActorConfiguration</title>
<!-- Node1 -->
<g id="Node000001" class="node">
<title>Node1</title>
<g id="a_Node000001"><a xlink:title=" ">
<polygon fill="#999999" stroke="#666666" points="932.25,-177.5 798.5,-177.5 798.5,-147 932.25,-147 932.25,-177.5"/>
<text xml:space="preserve" text-anchor="start" x="806.5" y="-164" font-family="Helvetica,sans-Serif" font-size="10.00">BalloonParty.Configuration.</text>
<text xml:space="preserve" text-anchor="middle" x="865.38" y="-152.75" font-family="Helvetica,sans-Serif" font-size="10.00">GridActorConfiguration</text>
</a>
</g>
</g>
<!-- Node2 -->
<g id="Node000002" class="node">
<title>Node2</title>
<g id="a_Node000002"><a xlink:title=" ">
<polygon fill="white" stroke="#666666" points="699.12,-214.88 611.12,-214.88 611.12,-195.62 699.12,-195.62 699.12,-214.88"/>
<text xml:space="preserve" text-anchor="middle" x="655.12" y="-201.38" font-family="Helvetica,sans-Serif" font-size="10.00">ScriptableObject</text>
</a>
</g>
</g>
<!-- Node2&#45;&gt;Node1 -->
<g id="edge1_Node000001_Node000002" class="edge">
<title>Node2&#45;&gt;Node1</title>
<g id="a_edge1_Node000001_Node000002"><a xlink:title=" ">
<path fill="none" stroke="#63b8ff" d="M710.62,-194C737.38,-188.47 769.86,-181.77 798.05,-175.94"/>
<polygon fill="#63b8ff" stroke="#63b8ff" points="710.1,-190.53 701.01,-195.98 711.51,-197.39 710.1,-190.53"/>
</a>
</g>
</g>
<!-- Node3 -->
<g id="Node000003" class="node">
<title>Node3</title>
<g id="a_Node000003"><a xlink:href="interface_balloon_party_1_1_configuration_1_1_i_grid_actor_configuration.html" target="_top" xlink:title=" ">
<polygon fill="white" stroke="#666666" points="722,-177.5 588.25,-177.5 588.25,-147 722,-147 722,-177.5"/>
<text xml:space="preserve" text-anchor="start" x="596.25" y="-164" font-family="Helvetica,sans-Serif" font-size="10.00">BalloonParty.Configuration.</text>
<text xml:space="preserve" text-anchor="middle" x="655.12" y="-152.75" font-family="Helvetica,sans-Serif" font-size="10.00">IGridActorConfiguration</text>
</a>
</g>
</g>
<!-- Node3&#45;&gt;Node1 -->
<g id="edge2_Node000001_Node000003" class="edge">
<title>Node3&#45;&gt;Node1</title>
<g id="a_edge2_Node000001_Node000003"><a xlink:title=" ">
<path fill="none" stroke="#63b8ff" d="M733.55,-162.25C754.74,-162.25 777.5,-162.25 798.01,-162.25"/>
<polygon fill="#63b8ff" stroke="#63b8ff" points="733.82,-158.75 723.82,-162.25 733.82,-165.75 733.82,-158.75"/>
</a>
</g>
</g>
<!-- Node4 -->
<g id="Node000004" class="node">
<title>Node4</title>
<g id="a_Node000004"><a xlink:href="class_balloon_party_1_1_configuration_1_1_grid_actor_prefab_entry.html" target="_top" xlink:title=" ">
<polygon fill="white" stroke="#666666" points="722,-128.5 588.25,-128.5 588.25,-98 722,-98 722,-128.5"/>
<text xml:space="preserve" text-anchor="start" x="596.25" y="-115" font-family="Helvetica,sans-Serif" font-size="10.00">BalloonParty.Configuration.</text>
<text xml:space="preserve" text-anchor="middle" x="655.12" y="-103.75" font-family="Helvetica,sans-Serif" font-size="10.00">GridActorPrefabEntry</text>
</a>
</g>
</g>
<!-- Node4&#45;&gt;Node1 -->
<g id="edge3_Node000001_Node000004" class="edge">
<title>Node4&#45;&gt;Node1</title>
<g id="a_edge3_Node000001_Node000004"><a xlink:title=" ">
<path fill="none" stroke="#9a32cd" stroke-dasharray="5,2" d="M733.56,-130.17C749.12,-133.67 765.35,-137.39 780.5,-141 787.95,-142.78 795.76,-144.69 803.5,-146.61"/>
<polygon fill="#9a32cd" stroke="#9a32cd" points="734.37,-126.76 723.84,-127.99 732.84,-133.59 734.37,-126.76"/>
</a>
</g>
<text xml:space="preserve" text-anchor="start" x="743" y="-147" font-family="Helvetica,sans-Serif" font-size="10.00" fill="grey">_entries</text>
</g>
<!-- Node5 -->
<g id="Node000005" class="node">
<title>Node5</title>
<g id="a_Node000005"><a xlink:href="interface_balloon_party_1_1_configuration_1_1_i_weighted_entry.html" target="_top" xlink:title="Common contract for weighted prefab entries that support max&#45;count limits.">
<polygon fill="white" stroke="#666666" points="514,-152.5 380.25,-152.5 380.25,-122 514,-122 514,-152.5"/>
<text xml:space="preserve" text-anchor="start" x="388.25" y="-139" font-family="Helvetica,sans-Serif" font-size="10.00">BalloonParty.Configuration.</text>
<text xml:space="preserve" text-anchor="middle" x="447.12" y="-127.75" font-family="Helvetica,sans-Serif" font-size="10.00">IWeightedEntry</text>
</a>
</g>
</g>
<!-- Node5&#45;&gt;Node4 -->
<g id="edge4_Node000004_Node000005" class="edge">
<title>Node5&#45;&gt;Node4</title>
<g id="a_edge4_Node000004_Node000005"><a xlink:title=" ">
<path fill="none" stroke="#63b8ff" d="M525.66,-128.22C546.16,-125.83 568.1,-123.27 587.94,-120.96"/>
<polygon fill="#63b8ff" stroke="#63b8ff" points="525.47,-124.72 515.94,-129.35 526.28,-131.67 525.47,-124.72"/>
</a>
</g>
</g>
<!-- Node6 -->
<g id="Node000006" class="node">
<title>Node6</title>
<g id="a_Node000006"><a xlink:href="class_balloon_party_1_1_slots_1_1_actor_1_1_archetype_1_1_grid_actor_view.html" target="_top" xlink:title=" ">
<polygon fill="white" stroke="#666666" points="510.25,-103.5 384,-103.5 384,-73 510.25,-73 510.25,-103.5"/>
<text xml:space="preserve" text-anchor="start" x="392" y="-90" font-family="Helvetica,sans-Serif" font-size="10.00">BalloonParty.Slots.Actor.</text>
<text xml:space="preserve" text-anchor="middle" x="447.12" y="-78.75" font-family="Helvetica,sans-Serif" font-size="10.00">Archetype.GridActorView</text>
</a>
</g>
</g>
<!-- Node6&#45;&gt;Node4 -->
<g id="edge5_Node000004_Node000006" class="edge">
<title>Node6&#45;&gt;Node4</title>
<g id="a_edge5_Node000004_Node000006"><a xlink:title=" ">
<path fill="none" stroke="#9a32cd" stroke-dasharray="5,2" d="M522.02,-96.31C537.93,-98.12 554.66,-100.08 570.25,-102 575.94,-102.7 581.84,-103.45 587.76,-104.22"/>
<polygon fill="#9a32cd" stroke="#9a32cd" points="522.43,-92.84 512.1,-95.2 521.65,-99.79 522.43,-92.84"/>
</a>
</g>
<text xml:space="preserve" text-anchor="start" x="535" y="-108" font-family="Helvetica,sans-Serif" font-size="10.00" fill="grey">_prefab</text>
</g>
<!-- Node7 -->
<g id="Node000007" class="node">
<title>Node7</title>
<g id="a_Node000007"><a xlink:title=" ">
<polygon fill="white" stroke="#666666" points="83.5,-143.88 0,-143.88 0,-124.62 83.5,-124.62 83.5,-143.88"/>
<text xml:space="preserve" text-anchor="middle" x="41.75" y="-130.38" font-family="Helvetica,sans-Serif" font-size="10.00">MonoBehaviour</text>
</a>
</g>
</g>
<!-- Node7&#45;&gt;Node6 -->
<g id="edge6_Node000006_Node000007" class="edge">
<title>Node7&#45;&gt;Node6</title>
<g id="a_edge6_Node000006_Node000007"><a xlink:title=" ">
<path fill="none" stroke="#63b8ff" d="M95.15,-142.96C160.15,-151.51 273.25,-158.89 362.25,-125.25 371.24,-121.85 371.7,-117.65 380.25,-113.25 386.78,-109.89 393.86,-106.73 400.89,-103.87"/>
<polygon fill="#63b8ff" stroke="#63b8ff" points="95.87,-139.53 85.48,-141.62 94.91,-146.46 95.87,-139.53"/>
</a>
</g>
</g>
<!-- Node10 -->
<g id="Node000010" class="node">
<title>Node10</title>
<g id="a_Node000010"><a xlink:href="class_balloon_party_1_1_shared_1_1_animation_1_1_tween_tracker.html" target="_top" xlink:title=" ">
<polygon fill="white" stroke="#666666" points="273.75,-128.5 120.5,-128.5 120.5,-98 273.75,-98 273.75,-128.5"/>
<text xml:space="preserve" text-anchor="start" x="128.5" y="-115" font-family="Helvetica,sans-Serif" font-size="10.00">BalloonParty.Shared.Animation.</text>
<text xml:space="preserve" text-anchor="middle" x="197.12" y="-103.75" font-family="Helvetica,sans-Serif" font-size="10.00">TweenTracker</text>
</a>
</g>
</g>
<!-- Node7&#45;&gt;Node10 -->
<g id="edge10_Node000010_Node000007" class="edge">
<title>Node7&#45;&gt;Node10</title>
<g id="a_edge10_Node000010_Node000007"><a xlink:title=" ">
<path fill="none" stroke="#63b8ff" d="M95.04,-127.09C103.18,-125.98 111.73,-124.81 120.26,-123.64"/>
<polygon fill="#63b8ff" stroke="#63b8ff" points="94.78,-123.59 85.35,-128.42 95.73,-130.53 94.78,-123.59"/>
</a>
</g>
</g>
<!-- Node8 -->
<g id="Node000008" class="node">
<title>Node8</title>
<g id="a_Node000008"><a xlink:href="interface_balloon_party_1_1_shared_1_1_pool_1_1_i_poolable.html" target="_top" xlink:title=" ">
<polygon fill="white" stroke="#666666" points="261.75,-79.5 132.5,-79.5 132.5,-49 261.75,-49 261.75,-79.5"/>
<text xml:space="preserve" text-anchor="start" x="140.5" y="-66" font-family="Helvetica,sans-Serif" font-size="10.00">BalloonParty.Shared.Pool.</text>
<text xml:space="preserve" text-anchor="middle" x="197.12" y="-54.75" font-family="Helvetica,sans-Serif" font-size="10.00">IPoolable</text>
</a>
</g>
</g>
<!-- Node8&#45;&gt;Node6 -->
<g id="edge7_Node000006_Node000008" class="edge">
<title>Node8&#45;&gt;Node6</title>
<g id="a_edge7_Node000006_Node000008"><a xlink:title=" ">
<path fill="none" stroke="#63b8ff" d="M273.22,-71.52C308.56,-74.94 350.2,-78.97 383.76,-82.21"/>
<polygon fill="#63b8ff" stroke="#63b8ff" points="273.79,-68.06 263.5,-70.58 273.11,-75.02 273.79,-68.06"/>
</a>
</g>
</g>
<!-- Node9 -->
<g id="Node000009" class="node">
<title>Node9</title>
<g id="a_Node000009"><a xlink:href="interface_balloon_party_1_1_slots_1_1_actor_1_1_i_slot_actor_view.html" target="_top" xlink:title=" ">
<polygon fill="white" stroke="#666666" points="259.12,-30.5 135.12,-30.5 135.12,0 259.12,0 259.12,-30.5"/>
<text xml:space="preserve" text-anchor="start" x="143.12" y="-17" font-family="Helvetica,sans-Serif" font-size="10.00">BalloonParty.Slots.Actor.</text>
<text xml:space="preserve" text-anchor="middle" x="197.12" y="-5.75" font-family="Helvetica,sans-Serif" font-size="10.00">ISlotActorView</text>
</a>
</g>
</g>
<!-- Node9&#45;&gt;Node6 -->
<g id="edge8_Node000006_Node000009" class="edge">
<title>Node9&#45;&gt;Node6</title>
<g id="a_edge8_Node000006_Node000009"><a xlink:title=" ">
<path fill="none" stroke="#63b8ff" d="M262.19,-34.11C302.8,-46.06 354.7,-61.34 393.01,-72.62"/>
<polygon fill="#63b8ff" stroke="#63b8ff" points="263.36,-30.8 252.78,-31.34 261.38,-37.52 263.36,-30.8"/>
</a>
</g>
</g>
<!-- Node10&#45;&gt;Node6 -->
<g id="edge9_Node000006_Node000010" class="edge">
<title>Node10&#45;&gt;Node6</title>
<g id="a_edge9_Node000006_Node000010"><a xlink:title=" ">
<path fill="none" stroke="#9a32cd" stroke-dasharray="5,2" d="M285.49,-104.44C317.82,-101.18 353.8,-97.56 383.5,-94.56"/>
<polygon fill="#9a32cd" stroke="#9a32cd" points="285.32,-100.94 275.72,-105.43 286.03,-107.91 285.32,-100.94"/>
</a>
</g>
<text xml:space="preserve" text-anchor="start" x="294.75" y="-109.72" font-family="Helvetica,sans-Serif" font-size="10.00" fill="grey">_tweenTracker</text>
</g>
</g>
</svg>
