<?xml version="1.0" encoding="UTF-8" standalone="no"?>
<!DOCTYPE svg PUBLIC "-//W3C//DTD SVG 1.1//EN"
 "http://www.w3.org/Graphics/SVG/1.1/DTD/svg11.dtd">
<!-- Generated by graphviz version 15.0.0 (20260523.1842)
 -->
<!-- Title: BalloonParty.Editor.AutoFieldPropertyDrawer Pages: 1 -->
<svg width="445pt" height="186pt"
 viewBox="0.00 0.00 445.00 186.00" xmlns="http://www.w3.org/2000/svg" xmlns:xlink="http://www.w3.org/1999/xlink">
<g id="graph0" class="graph" transform="scale(1 1) rotate(0) translate(4 181.5)">
<title>BalloonParty.Editor.AutoFieldPropertyDrawer</title>
<!-- Node1 -->
<g id="Node000001" class="node">
<title>Node1</title>
<g id="a_Node000001"><a xlink:title="Base class for property drawers that want common fields drawn automatically via serialized&#45;property r...">
<polygon fill="#999999" stroke="#666666" points="241.25,-103.5 120.25,-103.5 120.25,-73 241.25,-73 241.25,-103.5"/>
<text xml:space="preserve" text-anchor="start" x="128.25" y="-90" font-family="Helvetica,sans-Serif" font-size="10.00">BalloonParty.Editor.Auto</text>
<text xml:space="preserve" text-anchor="middle" x="180.75" y="-78.75" font-family="Helvetica,sans-Serif" font-size="10.00">FieldPropertyDrawer</text>
</a>
</g>
</g>
<!-- Node3 -->
<g id="Node000003" class="node">
<title>Node3</title>
<g id="a_Node000003"><a xlink:href="class_balloon_party_1_1_configuration_1_1_editor_1_1_balloon_prefab_entry_drawer.html" target="_top" xlink:title=" ">
<polygon fill="white" stroke="#666666" points="436.5,-177.5 277.25,-177.5 277.25,-147 436.5,-147 436.5,-177.5"/>
<text xml:space="preserve" text-anchor="start" x="285.25" y="-164" font-family="Helvetica,sans-Serif" font-size="10.00">BalloonParty.Configuration.</text>
<text xml:space="preserve" text-anchor="middle" x="356.88" y="-152.75" font-family="Helvetica,sans-Serif" font-size="10.00">Editor.BalloonPrefabEntryDrawer</text>
</a>
</g>
</g>
<!-- Node1&#45;&gt;Node3 -->
<g id="edge2_Node000001_Node000003" class="edge">
<title>Node1&#45;&gt;Node3</title>
<g id="a_edge2_Node000001_Node000003"><a xlink:title=" ">
<path fill="none" stroke="#63b8ff" d="M218.93,-109.15C236.33,-118.45 257.52,-129.12 277.25,-137.25 285.33,-140.58 294.02,-143.74 302.58,-146.63"/>
<polygon fill="#63b8ff" stroke="#63b8ff" points="220.96,-106.27 210.5,-104.58 217.63,-112.43 220.96,-106.27"/>
</a>
</g>
</g>
<!-- Node4 -->
<g id="Node000004" class="node">
<title>Node4</title>
<g id="a_Node000004"><a xlink:href="class_balloon_party_1_1_configuration_1_1_editor_1_1_hit_vfx_override_drawer.html" target="_top" xlink:title=" ">
<polygon fill="white" stroke="#666666" points="426.75,-128.5 287,-128.5 287,-98 426.75,-98 426.75,-128.5"/>
<text xml:space="preserve" text-anchor="start" x="295" y="-115" font-family="Helvetica,sans-Serif" font-size="10.00">BalloonParty.Configuration.</text>
<text xml:space="preserve" text-anchor="middle" x="356.88" y="-103.75" font-family="Helvetica,sans-Serif" font-size="10.00">Editor.HitVfxOverrideDrawer</text>
</a>
</g>
</g>
<!-- Node1&#45;&gt;Node4 -->
<g id="edge3_Node000001_Node000004" class="edge">
<title>Node1&#45;&gt;Node4</title>
<g id="a_edge3_Node000001_Node000004"><a xlink:title=" ">
<path fill="none" stroke="#63b8ff" d="M253.05,-98.49C264.12,-100.08 275.54,-101.72 286.56,-103.3"/>
<polygon fill="#63b8ff" stroke="#63b8ff" points="253.57,-95.03 243.17,-97.07 252.57,-101.95 253.57,-95.03"/>
</a>
</g>
</g>
<!-- Node5 -->
<g id="Node000005" class="node">
<title>Node5</title>
<g id="a_Node000005"><a xlink:href="class_balloon_party_1_1_configuration_1_1_editor_1_1_item_settings_drawer.html" target="_top" xlink:title=" ">
<polygon fill="white" stroke="#666666" points="423.75,-79.5 290,-79.5 290,-49 423.75,-49 423.75,-79.5"/>
<text xml:space="preserve" text-anchor="start" x="298" y="-66" font-family="Helvetica,sans-Serif" font-size="10.00">BalloonParty.Configuration.</text>
<text xml:space="preserve" text-anchor="middle" x="356.88" y="-54.75" font-family="Helvetica,sans-Serif" font-size="10.00">Editor.ItemSettingsDrawer</text>
</a>
</g>
</g>
<!-- Node1&#45;&gt;Node5 -->
<g id="edge4_Node000001_Node000005" class="edge">
<title>Node1&#45;&gt;Node5</title>
<g id="a_edge4_Node000001_Node000005"><a xlink:title=" ">
<path fill="none" stroke="#63b8ff" d="M252.71,-78.47C264.9,-76.79 277.52,-75.05 289.58,-73.39"/>
<polygon fill="#63b8ff" stroke="#63b8ff" points="252.6,-74.95 243.17,-79.78 253.56,-81.89 252.6,-74.95"/>
</a>
</g>
</g>
<!-- Node6 -->
<g id="Node000006" class="node">
<title>Node6</title>
<g id="a_Node000006"><a xlink:href="class_balloon_party_1_1_nudge_1_1_editor_1_1_nudge_override_drawer.html" target="_top" xlink:title=" ">
<polygon fill="white" stroke="#666666" points="423,-30.5 290.75,-30.5 290.75,0 423,0 423,-30.5"/>
<text xml:space="preserve" text-anchor="start" x="298.75" y="-17" font-family="Helvetica,sans-Serif" font-size="10.00">BalloonParty.Nudge.Editor.</text>
<text xml:space="preserve" text-anchor="middle" x="356.88" y="-5.75" font-family="Helvetica,sans-Serif" font-size="10.00">NudgeOverrideDrawer</text>
</a>
</g>
</g>
<!-- Node1&#45;&gt;Node6 -->
<g id="edge5_Node000001_Node000006" class="edge">
<title>Node1&#45;&gt;Node6</title>
<g id="a_edge5_Node000001_Node000006"><a xlink:title=" ">
<path fill="none" stroke="#63b8ff" d="M219.74,-67.42C237,-58.41 257.86,-48.15 277.25,-40.25 285.34,-36.95 294.04,-33.81 302.6,-30.93"/>
<polygon fill="#63b8ff" stroke="#63b8ff" points="218.58,-64.08 211.38,-71.84 221.85,-70.26 218.58,-64.08"/>
</a>
</g>
</g>
<!-- Node2 -->
<g id="Node000002" class="node">
<title>Node2</title>
<g id="a_Node000002"><a xlink:title=" ">
<polygon fill="white" stroke="#666666" points="84.25,-97.88 0,-97.88 0,-78.62 84.25,-78.62 84.25,-97.88"/>
<text xml:space="preserve" text-anchor="middle" x="42.12" y="-84.38" font-family="Helvetica,sans-Serif" font-size="10.00">PropertyDrawer</text>
</a>
</g>
</g>
<!-- Node2&#45;&gt;Node1 -->
<g id="edge1_Node000001_Node000002" class="edge">
<title>Node2&#45;&gt;Node1</title>
<g id="a_edge1_Node000001_Node000002"><a xlink:title=" ">
<path fill="none" stroke="#63b8ff" d="M95.78,-88.25C103.67,-88.25 111.85,-88.25 119.88,-88.25"/>
<polygon fill="#63b8ff" stroke="#63b8ff" points="96,-84.75 86,-88.25 96,-91.75 96,-84.75"/>
</a>
</g>
</g>
</g>
</svg>
