<?xml version="1.0" encoding="UTF-8" standalone="no"?>
<!DOCTYPE svg PUBLIC "-//W3C//DTD SVG 1.1//EN"
 "http://www.w3.org/Graphics/SVG/1.1/DTD/svg11.dtd">
<!-- Generated by graphviz version 15.0.0 (20260523.1842)
 -->
<!-- Title: BalloonParty.Projectile.View.ProjectileView Pages: 1 -->
<!--zoomable 876 -->

<svg id="main" version="1.1" xmlns="http://www.w3.org/2000/svg" xmlns:xlink="http://www.w3.org/1999/xlink" xml:space="preserve" onload="init(evt)">

<style type="text/css"><![CDATA[
.node, .edge {opacity: 0.7;}
.node.selected, .edge.selected {opacity: 1;}
.edge:hover path { stroke: red; }
.edge:hover polygon { stroke: red; fill: red; }
]]></style>

<defs>
  <circle id="rim" cx="0" cy="0" r="7"/>
  <circle id="rim2" cx="0" cy="0" r="3.5"/>
  <g id="zoomPlus">
    <use xlink:href="#rim" fill="#404040"><set attributeName="fill" to="#808080" begin="zoomplus.mouseover" end="zoomplus.mouseout"/></use>
    <path d="M-4,0h8M0,-4v8" fill="none" stroke="white" stroke-width="1.5" pointer-events="none"/>
  </g>
  <g id="zoomMin">
    <use xlink:href="#rim" fill="#404040"><set attributeName="fill" to="#808080" begin="zoomminus.mouseover" end="zoomminus.mouseout"/></use>
    <path d="M-4,0h8" fill="none" stroke="white" stroke-width="1.5" pointer-events="none"/>
  </g>
  <g id="arrowUp" transform="translate(30 24)">
    <use xlink:href="#rim"/>
    <path pointer-events="none" fill="none" stroke="white" stroke-width="1.5" d="M0,-3.0v7 M-2.5,-0.5L0,-3.0L2.5,-0.5"/>
  </g>
  <g id="arrowRight" transform="rotate(90) translate(36 -43)">
    <use xlink:href="#rim"/>
    <path pointer-events="none" fill="none" stroke="white" stroke-width="1.5" d="M0,-3.0v7 M-2.5,-0.5L0,-3.0L2.5,-0.5"/>
  </g>
  <g id="arrowDown" transform="rotate(180) translate(-30 -48)">
    <use xlink:href="#rim"/>
    <path pointer-events="none" fill="none" stroke="white" stroke-width="1.5" d="M0,-3.0v7 M-2.5,-0.5L0,-3.0L2.5,-0.5"/>
  </g>
  <g id="arrowLeft" transform="rotate(270) translate(-36 17)">
    <use xlink:href="#rim"/>
    <path pointer-events="none" fill="none" stroke="white" stroke-width="1.5" d="M0,-3.0v7 M-2.5,-0.5L0,-3.0L2.5,-0.5"/>
  </g>
  <g id="resetDef">
    <use xlink:href="#rim2" fill="#404040"><set attributeName="fill" to="#808080" begin="reset.mouseover" end="reset.mouseout"/></use>
  </g>
</defs>
<script type="application/ecmascript">
var viewWidth = 1216;
var viewHeight = 876;
var sectionId = 'dynsection-1';
</script>
<script type="application/ecmascript" xlink:href="svg.min.js"/>
<svg id="graph" class="graph">
<g id="viewport">
<title>BalloonParty.Projectile.View.ProjectileView</title>
<!-- Node1 -->
<g id="Node000001" class="node">
<title>Node1</title>
<g id="a_Node000001"><a xlink:title=" ">
<polygon fill="#999999" stroke="#666666" points="1208.25,-586.5 1091.75,-586.5 1091.75,-556 1208.25,-556 1208.25,-586.5"/>
<text xml:space="preserve" text-anchor="start" x="1099.75" y="-573" font-family="Helvetica,sans-Serif" font-size="10.00">BalloonParty.Projectile.</text>
<text xml:space="preserve" text-anchor="middle" x="1150" y="-561.75" font-family="Helvetica,sans-Serif" font-size="10.00">View.ProjectileView</text>
</a>
</g>
</g>
<!-- Node2 -->
<g id="Node000002" class="node">
<title>Node2</title>
<g id="a_Node000002"><a xlink:title=" ">
<polygon fill="white" stroke="#666666" points="684.62,-816.88 601.12,-816.88 601.12,-797.62 684.62,-797.62 684.62,-816.88"/>
<text xml:space="preserve" text-anchor="middle" x="642.88" y="-803.38" font-family="Helvetica,sans-Serif" font-size="10.00">MonoBehaviour</text>
</a>
</g>
</g>
<!-- Node2&#45;&gt;Node1 -->
<g id="edge1_Node000001_Node000002" class="edge">
<title>Node2&#45;&gt;Node1</title>
<g id="a_edge1_Node000001_Node000002"><a xlink:title=" ">
<path fill="none" stroke="#63b8ff" d="M696.29,-808.69C797.71,-810.42 1015.89,-808.69 1073.75,-764.25 1131.65,-719.78 1145.04,-624.48 1148.1,-586.92"/>
<polygon fill="#63b8ff" stroke="#63b8ff" points="696.39,-805.19 686.33,-808.5 696.26,-812.19 696.39,-805.19"/>
</a>
</g>
</g>
<!-- Node24 -->
<g id="Node000024" class="node">
<title>Node24</title>
<g id="a_Node000024"><a xlink:href="class_balloon_party_1_1_projectile_1_1_view_1_1_projectile_trail.html" target="_top" xlink:title=" ">
<polygon fill="white" stroke="#666666" points="967.25,-865.5 850.75,-865.5 850.75,-835 967.25,-835 967.25,-865.5"/>
<text xml:space="preserve" text-anchor="start" x="858.75" y="-852" font-family="Helvetica,sans-Serif" font-size="10.00">BalloonParty.Projectile.</text>
<text xml:space="preserve" text-anchor="middle" x="909" y="-840.75" font-family="Helvetica,sans-Serif" font-size="10.00">View.ProjectileTrail</text>
</a>
</g>
</g>
<!-- Node2&#45;&gt;Node24 -->
<g id="edge26_Node000024_Node000002" class="edge">
<title>Node2&#45;&gt;Node24</title>
<g id="a_edge26_Node000024_Node000002"><a xlink:title=" ">
<path fill="none" stroke="#63b8ff" d="M696.03,-815.74C740.63,-823 804.71,-833.43 850.72,-840.92"/>
<polygon fill="#63b8ff" stroke="#63b8ff" points="696.78,-812.32 686.35,-814.16 695.66,-819.23 696.78,-812.32"/>
</a>
</g>
</g>
<!-- Node25 -->
<g id="Node000025" class="node">
<title>Node25</title>
<g id="a_Node000025"><a xlink:href="class_balloon_party_1_1_projectile_1_1_view_1_1_projectile_shield_view.html" target="_top" xlink:title=" ">
<polygon fill="white" stroke="#666666" points="973.25,-609.5 844.75,-609.5 844.75,-579 973.25,-579 973.25,-609.5"/>
<text xml:space="preserve" text-anchor="start" x="852.75" y="-596" font-family="Helvetica,sans-Serif" font-size="10.00">BalloonParty.Projectile.</text>
<text xml:space="preserve" text-anchor="middle" x="909" y="-584.75" font-family="Helvetica,sans-Serif" font-size="10.00">View.ProjectileShieldView</text>
</a>
</g>
</g>
<!-- Node2&#45;&gt;Node25 -->
<g id="edge28_Node000025_Node000002" class="edge">
<title>Node2&#45;&gt;Node25</title>
<g id="a_edge28_Node000025_Node000002"><a xlink:title=" ">
<path fill="none" stroke="#63b8ff" d="M696.35,-801.37C739.85,-795.41 797.09,-784.7 813.25,-768.25 840.31,-740.71 814.1,-717.85 831.25,-683.25 845.84,-653.82 872.43,-626.2 890.16,-609.76"/>
<polygon fill="#63b8ff" stroke="#63b8ff" points="696.01,-797.88 686.55,-802.66 696.92,-804.82 696.01,-797.88"/>
</a>
</g>
</g>
<!-- Node3 -->
<g id="Node000003" class="node">
<title>Node3</title>
<g id="a_Node000003"><a xlink:href="interface_balloon_party_1_1_shared_1_1_pool_1_1_i_poolable.html" target="_top" xlink:title=" ">
<polygon fill="white" stroke="#666666" points="973.62,-440.5 844.38,-440.5 844.38,-410 973.62,-410 973.62,-440.5"/>
<text xml:space="preserve" text-anchor="start" x="852.38" y="-427" font-family="Helvetica,sans-Serif" font-size="10.00">BalloonParty.Shared.Pool.</text>
<text xml:space="preserve" text-anchor="middle" x="909" y="-415.75" font-family="Helvetica,sans-Serif" font-size="10.00">IPoolable</text>
</a>
</g>
</g>
<!-- Node3&#45;&gt;Node1 -->
<g id="edge2_Node000001_Node000003" class="edge">
<title>Node3&#45;&gt;Node1</title>
<g id="a_edge2_Node000001_Node000003"><a xlink:title=" ">
<path fill="none" stroke="#63b8ff" d="M985.1,-425.82C1014.76,-429.15 1047.86,-437.02 1073.75,-454.25 1111.35,-479.27 1134.17,-530.17 1143.74,-555.79"/>
<polygon fill="#63b8ff" stroke="#63b8ff" points="985.72,-422.37 975.43,-424.9 985.05,-429.33 985.72,-422.37"/>
</a>
</g>
</g>
<!-- Node4 -->
<g id="Node000004" class="node">
<title>Node4</title>
<g id="a_Node000004"><a xlink:href="interface_balloon_party_1_1_configuration_1_1_i_game_palette.html" target="_top" xlink:title=" ">
<polygon fill="white" stroke="#666666" points="709.75,-673.5 576,-673.5 576,-643 709.75,-643 709.75,-673.5"/>
<text xml:space="preserve" text-anchor="start" x="584" y="-660" font-family="Helvetica,sans-Serif" font-size="10.00">BalloonParty.Configuration.</text>
<text xml:space="preserve" text-anchor="middle" x="642.88" y="-648.75" font-family="Helvetica,sans-Serif" font-size="10.00">IGamePalette</text>
</a>
</g>
</g>
<!-- Node4&#45;&gt;Node1 -->
<g id="edge3_Node000001_Node000004" class="edge">
<title>Node4&#45;&gt;Node1</title>
<g id="a_edge3_Node000001_Node000004"><a xlink:title=" ">
<path fill="none" stroke="#9a32cd" stroke-dasharray="5,2" d="M708.82,-677.53C713.99,-679.36 719.1,-681.28 724,-683.25 732.3,-686.59 733.29,-690.2 742,-692.25 772.82,-699.53 781.98,-697.28 813.25,-692.25 930.4,-673.41 1060.16,-615.05 1118.11,-586.84"/>
<polygon fill="#9a32cd" stroke="#9a32cd" points="710.2,-674.3 699.6,-674.38 707.93,-680.92 710.2,-674.3"/>
</a>
</g>
<text xml:space="preserve" text-anchor="start" x="891.75" y="-694.49" font-family="Helvetica,sans-Serif" font-size="10.00" fill="grey">_palette</text>
</g>
<!-- Node4&#45;&gt;Node25 -->
<g id="edge29_Node000025_Node000004" class="edge">
<title>Node4&#45;&gt;Node25</title>
<g id="a_edge29_Node000025_Node000004"><a xlink:title=" ">
<path fill="none" stroke="#9a32cd" stroke-dasharray="5,2" d="M720,-639.8C759.51,-630.23 807.2,-618.67 844.67,-609.6"/>
<polygon fill="#9a32cd" stroke="#9a32cd" points="719.19,-636.4 710.3,-642.16 720.84,-643.2 719.19,-636.4"/>
</a>
</g>
<text xml:space="preserve" text-anchor="start" x="760.38" y="-639.86" font-family="Helvetica,sans-Serif" font-size="10.00" fill="grey">_palette</text>
</g>
<!-- Node5 -->
<g id="Node000005" class="node">
<title>Node5</title>
<g id="a_Node000005"><a xlink:href="interface_balloon_party_1_1_shared_1_1_i_game_configuration.html" target="_top" xlink:title=" ">
<polygon fill="white" stroke="#666666" points="375.12,-568.5 239.12,-568.5 239.12,-538 375.12,-538 375.12,-568.5"/>
<text xml:space="preserve" text-anchor="start" x="247.12" y="-555" font-family="Helvetica,sans-Serif" font-size="10.00">BalloonParty.Shared.IGame</text>
<text xml:space="preserve" text-anchor="middle" x="307.12" y="-543.75" font-family="Helvetica,sans-Serif" font-size="10.00">Configuration</text>
</a>
</g>
</g>
<!-- Node5&#45;&gt;Node1 -->
<g id="edge4_Node000001_Node000005" class="edge">
<title>Node5&#45;&gt;Node1</title>
<g id="a_edge4_Node000001_Node000005"><a xlink:title=" ">
<path fill="none" stroke="#9a32cd" stroke-dasharray="5,2" d="M362.09,-533.9C412.85,-516.78 491.36,-493.03 561.75,-483.25 749.59,-457.14 803.06,-474.12 986.75,-521.25 1025.72,-531.25 1035.32,-534.35 1073.75,-546.25 1083.22,-549.18 1093.31,-552.44 1102.93,-555.61"/>
<polygon fill="#9a32cd" stroke="#9a32cd" points="361.14,-530.53 352.81,-537.07 363.4,-537.15 361.14,-530.53"/>
</a>
</g>
<text xml:space="preserve" text-anchor="start" x="761.88" y="-485.99" font-family="Helvetica,sans-Serif" font-size="10.00" fill="grey">_config</text>
</g>
<!-- Node5&#45;&gt;Node25 -->
<g id="edge30_Node000025_Node000005" class="edge">
<title>Node5&#45;&gt;Node25</title>
<g id="a_edge30_Node000025_Node000005"><a xlink:title=" ">
<path fill="none" stroke="#9a32cd" stroke-dasharray="5,2" d="M387.07,-553.56C470.84,-554.47 606.99,-557.61 724,-568 764.18,-571.57 808.99,-577.91 844.33,-583.47"/>
<polygon fill="#9a32cd" stroke="#9a32cd" points="387.16,-550.06 377.12,-553.46 387.09,-557.06 387.16,-550.06"/>
</a>
</g>
<text xml:space="preserve" text-anchor="start" x="627.12" y="-574" font-family="Helvetica,sans-Serif" font-size="10.00" fill="grey">_config</text>
</g>
<!-- Node27 -->
<g id="Node000027" class="node">
<title>Node27</title>
<g id="a_Node000027"><a xlink:href="class_balloon_party_1_1_slots_1_1_grid_1_1_slot_grid.html" target="_top" xlink:title=" ">
<polygon fill="white" stroke="#666666" points="702.62,-624.5 583.12,-624.5 583.12,-594 702.62,-594 702.62,-624.5"/>
<text xml:space="preserve" text-anchor="start" x="591.12" y="-611" font-family="Helvetica,sans-Serif" font-size="10.00">BalloonParty.Slots.Grid.</text>
<text xml:space="preserve" text-anchor="middle" x="642.88" y="-599.75" font-family="Helvetica,sans-Serif" font-size="10.00">SlotGrid</text>
</a>
</g>
</g>
<!-- Node5&#45;&gt;Node27 -->
<g id="edge35_Node000027_Node000005" class="edge">
<title>Node5&#45;&gt;Node27</title>
<g id="a_edge35_Node000027_Node000005"><a xlink:title=" ">
<path fill="none" stroke="#9a32cd" stroke-dasharray="5,2" d="M386.89,-564.75C432.73,-571.64 491.59,-580.82 543.75,-590 556.4,-592.23 569.94,-594.77 582.79,-597.27"/>
<polygon fill="#9a32cd" stroke="#9a32cd" points="387.43,-561.29 377.02,-563.27 386.4,-568.22 387.43,-561.29"/>
</a>
</g>
<text xml:space="preserve" text-anchor="start" x="459.25" y="-596" font-family="Helvetica,sans-Serif" font-size="10.00" fill="grey">_config</text>
</g>
<!-- Node6 -->
<g id="Node000006" class="node">
<title>Node6</title>
<g id="a_Node000006"><a xlink:href="class_balloon_party_1_1_projectile_1_1_controller_1_1_projectile_hit_resolver.html" target="_top" xlink:title="Resolves what happens when a projectile collides with a balloon: evaluates the hit,...">
<polygon fill="white" stroke="#666666" points="985.25,-391.5 832.75,-391.5 832.75,-361 985.25,-361 985.25,-391.5"/>
<text xml:space="preserve" text-anchor="start" x="840.75" y="-378" font-family="Helvetica,sans-Serif" font-size="10.00">BalloonParty.Projectile.</text>
<text xml:space="preserve" text-anchor="middle" x="909" y="-366.75" font-family="Helvetica,sans-Serif" font-size="10.00">Controller.ProjectileHitResolver</text>
</a>
</g>
</g>
<!-- Node6&#45;&gt;Node1 -->
<g id="edge5_Node000001_Node000006" class="edge">
<title>Node6&#45;&gt;Node1</title>
<g id="a_edge5_Node000001_Node000006"><a xlink:title=" ">
<path fill="none" stroke="#9a32cd" stroke-dasharray="5,2" d="M996.47,-377.87C1023.5,-382.12 1051.92,-390.88 1073.75,-408 1122.24,-446.04 1140.7,-522.55 1146.6,-555.53"/>
<polygon fill="#9a32cd" stroke="#9a32cd" points="997.29,-374.45 986.9,-376.57 996.34,-381.39 997.29,-374.45"/>
</a>
</g>
<text xml:space="preserve" text-anchor="start" x="1011.88" y="-414" font-family="Helvetica,sans-Serif" font-size="10.00" fill="grey">_hitResolver</text>
</g>
<!-- Node7 -->
<g id="Node000007" class="node">
<title>Node7</title>
<g id="a_Node000007"><a xlink:href="class_balloon_party_1_1_game_1_1_score_1_1_color_streak_tracker.html" target="_top" xlink:title=" ">
<polygon fill="white" stroke="#666666" points="708.25,-403.5 577.5,-403.5 577.5,-373 708.25,-373 708.25,-403.5"/>
<text xml:space="preserve" text-anchor="start" x="585.5" y="-390" font-family="Helvetica,sans-Serif" font-size="10.00">BalloonParty.Game.Score.</text>
<text xml:space="preserve" text-anchor="middle" x="642.88" y="-378.75" font-family="Helvetica,sans-Serif" font-size="10.00">ColorStreakTracker</text>
</a>
</g>
</g>
<!-- Node7&#45;&gt;Node6 -->
<g id="edge6_Node000006_Node000007" class="edge">
<title>Node7&#45;&gt;Node6</title>
<g id="a_edge6_Node000006_Node000007"><a xlink:title=" ">
<path fill="none" stroke="#9a32cd" stroke-dasharray="5,2" d="M719.71,-384.8C755.06,-383.2 797.02,-381.29 832.34,-379.69"/>
<polygon fill="#9a32cd" stroke="#9a32cd" points="719.83,-381.3 710,-385.25 720.15,-388.29 719.83,-381.3"/>
</a>
</g>
<text xml:space="preserve" text-anchor="start" x="745" y="-389.68" font-family="Helvetica,sans-Serif" font-size="10.00" fill="grey">_streakTracker</text>
</g>
<!-- Node8 -->
<g id="Node000008" class="node">
<title>Node8</title>
<g id="a_Node000008"><a xlink:href="interface_balloon_party_1_1_game_1_1_score_1_1_i_color_streak.html" target="_top" xlink:title="Read&#45;only access to the current same&#45;colour pop streak, for HUD feedback.">
<polygon fill="white" stroke="#666666" points="372.5,-439.5 241.75,-439.5 241.75,-409 372.5,-409 372.5,-439.5"/>
<text xml:space="preserve" text-anchor="start" x="249.75" y="-426" font-family="Helvetica,sans-Serif" font-size="10.00">BalloonParty.Game.Score.</text>
<text xml:space="preserve" text-anchor="middle" x="307.12" y="-414.75" font-family="Helvetica,sans-Serif" font-size="10.00">IColorStreak</text>
</a>
</g>
</g>
<!-- Node8&#45;&gt;Node7 -->
<g id="edge7_Node000007_Node000008" class="edge">
<title>Node8&#45;&gt;Node7</title>
<g id="a_edge7_Node000007_Node000008"><a xlink:title=" ">
<path fill="none" stroke="#63b8ff" d="M384.31,-416.28C430.46,-411.43 490.5,-405.06 543.75,-399.25 554.57,-398.07 566.06,-396.8 577.22,-395.55"/>
<polygon fill="#63b8ff" stroke="#63b8ff" points="383.98,-412.8 374.4,-417.32 384.71,-419.76 383.98,-412.8"/>
</a>
</g>
</g>
<!-- Node9 -->
<g id="Node000009" class="node">
<title>Node9</title>
<g id="a_Node000009"><a xlink:title=" ">
<polygon fill="white" stroke="#666666" points="341,-390.88 273.25,-390.88 273.25,-371.62 341,-371.62 341,-390.88"/>
<text xml:space="preserve" text-anchor="middle" x="307.12" y="-377.38" font-family="Helvetica,sans-Serif" font-size="10.00">IDisposable</text>
</a>
</g>
</g>
<!-- Node9&#45;&gt;Node7 -->
<g id="edge8_Node000007_Node000009" class="edge">
<title>Node9&#45;&gt;Node7</title>
<g id="a_edge8_Node000007_Node000009"><a xlink:title=" ">
<path fill="none" stroke="#63b8ff" d="M352.61,-382.18C410.23,-383.39 511.08,-385.51 577.18,-386.89"/>
<polygon fill="#63b8ff" stroke="#63b8ff" points="352.93,-378.69 342.86,-381.98 352.78,-385.69 352.93,-378.69"/>
</a>
</g>
</g>
<!-- Node12 -->
<g id="Node000012" class="node">
<title>Node12</title>
<g id="a_Node000012"><a xlink:href="class_balloon_party_1_1_shared_1_1_disturbance_1_1_disturbance_field_service.html" target="_top" xlink:title="Screen&#45;space disturbance field any system can stamp into; runs one diffusion blit per tick to reform ...">
<polygon fill="white" stroke="#666666" points="724,-257.5 561.75,-257.5 561.75,-227 724,-227 724,-257.5"/>
<text xml:space="preserve" text-anchor="start" x="569.75" y="-244" font-family="Helvetica,sans-Serif" font-size="10.00">BalloonParty.Shared.Disturbance.</text>
<text xml:space="preserve" text-anchor="middle" x="642.88" y="-232.75" font-family="Helvetica,sans-Serif" font-size="10.00">DisturbanceFieldService</text>
</a>
</g>
</g>
<!-- Node9&#45;&gt;Node12 -->
<g id="edge14_Node000012_Node000009" class="edge">
<title>Node9&#45;&gt;Node12</title>
<g id="a_edge14_Node000012_Node000009"><a xlink:title=" ">
<path fill="none" stroke="#63b8ff" d="M352.35,-378.76C401.5,-374.46 482.06,-362.81 543.75,-331.25 579.58,-312.92 612.28,-278.06 629.38,-257.84"/>
<polygon fill="#63b8ff" stroke="#63b8ff" points="352.36,-375.24 342.67,-379.53 352.92,-382.22 352.36,-375.24"/>
</a>
</g>
</g>
<!-- Node10 -->
<g id="Node000010" class="node">
<title>Node10</title>
<g id="a_Node000010"><a xlink:href="class_balloon_party_1_1_shared_1_1_pause_1_1_pause_service.html" target="_top" xlink:title="Central coordinator for gameplay pause states.">
<polygon fill="white" stroke="#666666" points="543.75,-771.5 406.25,-771.5 406.25,-741 543.75,-741 543.75,-771.5"/>
<text xml:space="preserve" text-anchor="start" x="414.25" y="-758" font-family="Helvetica,sans-Serif" font-size="10.00">BalloonParty.Shared.Pause.</text>
<text xml:space="preserve" text-anchor="middle" x="475" y="-746.75" font-family="Helvetica,sans-Serif" font-size="10.00">PauseService</text>
</a>
</g>
</g>
<!-- Node10&#45;&gt;Node1 -->
<g id="edge9_Node000001_Node000010" class="edge">
<title>Node10&#45;&gt;Node1</title>
<g id="a_edge9_Node000001_Node000010"><a xlink:title=" ">
<path fill="none" stroke="#9a32cd" stroke-dasharray="5,2" d="M555.29,-763.35C658.84,-769.46 843.76,-769.42 986.75,-709.25 1052.87,-681.43 1111.96,-616.52 1136.69,-586.72"/>
<polygon fill="#9a32cd" stroke="#9a32cd" points="555.7,-759.87 545.5,-762.73 555.26,-766.85 555.7,-759.87"/>
</a>
</g>
<text xml:space="preserve" text-anchor="start" x="745.38" y="-767.96" font-family="Helvetica,sans-Serif" font-size="10.00" fill="grey">_pauseService</text>
</g>
<!-- Node11 -->
<g id="Node000011" class="node">
<title>Node11</title>
<g id="a_Node000011"><a xlink:href="interface_balloon_party_1_1_game_1_1_run_1_1_i_run_resettable.html" target="_top" xlink:title="Implemented by services holding per&#45;run state that must be cleared when a run restarts.">
<polygon fill="white" stroke="#666666" points="144.25,-756.5 0,-756.5 0,-726 144.25,-726 144.25,-756.5"/>
<text xml:space="preserve" text-anchor="start" x="8" y="-743" font-family="Helvetica,sans-Serif" font-size="10.00">BalloonParty.Game.Run.IRun</text>
<text xml:space="preserve" text-anchor="middle" x="72.12" y="-731.75" font-family="Helvetica,sans-Serif" font-size="10.00">Resettable</text>
</a>
</g>
</g>
<!-- Node11&#45;&gt;Node10 -->
<g id="edge10_Node000010_Node000011" class="edge">
<title>Node11&#45;&gt;Node10</title>
<g id="a_edge10_Node000010_Node000011"><a xlink:title=" ">
<path fill="none" stroke="#63b8ff" d="M155.44,-744.33C229.35,-747.1 336.57,-751.11 405.8,-753.7"/>
<polygon fill="#63b8ff" stroke="#63b8ff" points="155.97,-740.85 145.84,-743.97 155.71,-747.84 155.97,-740.85"/>
</a>
</g>
</g>
<!-- Node28 -->
<g id="Node000028" class="node">
<title>Node28</title>
<g id="a_Node000028"><a xlink:href="class_balloon_party_1_1_slots_1_1_grid_1_1_balance_path_holder.html" target="_top" xlink:title="Tracks grid slots that are currently in&#45;transit due to balance animations.">
<polygon fill="white" stroke="#666666" points="366.88,-730.5 247.38,-730.5 247.38,-700 366.88,-700 366.88,-730.5"/>
<text xml:space="preserve" text-anchor="start" x="255.38" y="-717" font-family="Helvetica,sans-Serif" font-size="10.00">BalloonParty.Slots.Grid.</text>
<text xml:space="preserve" text-anchor="middle" x="307.12" y="-705.75" font-family="Helvetica,sans-Serif" font-size="10.00">BalancePathHolder</text>
</a>
</g>
</g>
<!-- Node11&#45;&gt;Node28 -->
<g id="edge34_Node000028_Node000011" class="edge">
<title>Node11&#45;&gt;Node28</title>
<g id="a_edge34_Node000028_Node000011"><a xlink:title=" ">
<path fill="none" stroke="#63b8ff" d="M155.95,-732.01C185.99,-728.66 219.31,-724.94 246.91,-721.86"/>
<polygon fill="#63b8ff" stroke="#63b8ff" points="155.67,-728.52 146.12,-733.1 156.45,-735.47 155.67,-728.52"/>
</a>
</g>
</g>
<!-- Node12&#45;&gt;Node1 -->
<g id="edge11_Node000001_Node000012" class="edge">
<title>Node12&#45;&gt;Node1</title>
<g id="a_edge11_Node000001_Node000012"><a xlink:title=" ">
<path fill="none" stroke="#9a32cd" stroke-dasharray="5,2" d="M735.43,-245.21C833.29,-253.47 986.15,-281.87 1073.75,-376.25 1123.37,-429.71 1141.46,-519.43 1146.94,-555.52"/>
<polygon fill="#9a32cd" stroke="#9a32cd" points="735.83,-241.73 725.59,-244.44 735.28,-248.71 735.83,-241.73"/>
</a>
</g>
<text xml:space="preserve" text-anchor="start" x="870.75" y="-315.03" font-family="Helvetica,sans-Serif" font-size="10.00" fill="grey">_disturbanceField</text>
</g>
<!-- Node13 -->
<g id="Node000013" class="node">
<title>Node13</title>
<g id="a_Node000013"><a xlink:title=" ">
<polygon fill="white" stroke="#666666" points="336.12,-353.88 278.12,-353.88 278.12,-334.62 336.12,-334.62 336.12,-353.88"/>
<text xml:space="preserve" text-anchor="middle" x="307.12" y="-340.38" font-family="Helvetica,sans-Serif" font-size="10.00">IStartable</text>
</a>
</g>
</g>
<!-- Node13&#45;&gt;Node12 -->
<g id="edge12_Node000012_Node000013" class="edge">
<title>Node13&#45;&gt;Node12</title>
<g id="a_edge12_Node000012_Node000013"><a xlink:title=" ">
<path fill="none" stroke="#63b8ff" d="M347.96,-341.37C395.77,-336.94 477.76,-326.16 543.75,-301.25 572.39,-290.44 602.08,-271.28 621.2,-257.74"/>
<polygon fill="#63b8ff" stroke="#63b8ff" points="347.73,-337.88 338.08,-342.24 348.34,-344.85 347.73,-337.88"/>
</a>
</g>
</g>
<!-- Node14 -->
<g id="Node000014" class="node">
<title>Node14</title>
<g id="a_Node000014"><a xlink:title=" ">
<polygon fill="white" stroke="#666666" points="335,-316.88 279.25,-316.88 279.25,-297.62 335,-297.62 335,-316.88"/>
<text xml:space="preserve" text-anchor="middle" x="307.12" y="-303.38" font-family="Helvetica,sans-Serif" font-size="10.00">ITickable</text>
</a>
</g>
</g>
<!-- Node14&#45;&gt;Node12 -->
<g id="edge13_Node000012_Node000014" class="edge">
<title>Node14&#45;&gt;Node12</title>
<g id="a_edge13_Node000012_Node000014"><a xlink:title=" ">
<path fill="none" stroke="#63b8ff" d="M346.77,-304.58C393.8,-300.78 475.42,-292.41 543.75,-276.25 563.58,-271.56 585.02,-264.39 602.79,-257.84"/>
<polygon fill="#63b8ff" stroke="#63b8ff" points="346.51,-301.09 336.81,-305.35 347.05,-308.07 346.51,-301.09"/>
</a>
</g>
</g>
<!-- Node15 -->
<g id="Node000015" class="node">
<title>Node15</title>
<g id="a_Node000015"><a xlink:href="interface_balloon_party_1_1_configuration_1_1_i_disturbance_field_settings.html" target="_top" xlink:title=" ">
<polygon fill="white" stroke="#666666" points="139,-252.5 5.25,-252.5 5.25,-222 139,-222 139,-252.5"/>
<text xml:space="preserve" text-anchor="start" x="13.25" y="-239" font-family="Helvetica,sans-Serif" font-size="10.00">BalloonParty.Configuration.</text>
<text xml:space="preserve" text-anchor="middle" x="72.12" y="-227.75" font-family="Helvetica,sans-Serif" font-size="10.00">IDisturbanceFieldSettings</text>
</a>
</g>
</g>
<!-- Node15&#45;&gt;Node12 -->
<g id="edge15_Node000012_Node000015" class="edge">
<title>Node15&#45;&gt;Node12</title>
<g id="a_edge15_Node000012_Node000015"><a xlink:title=" ">
<path fill="none" stroke="#9a32cd" stroke-dasharray="5,2" d="M150.48,-247.38C154.46,-247.72 158.4,-248.01 162.25,-248.25 331.49,-258.65 374.27,-253.43 543.75,-248.25 549.46,-248.08 555.36,-247.84 561.3,-247.57"/>
<polygon fill="#9a32cd" stroke="#9a32cd" points="151.02,-243.92 140.74,-246.47 150.37,-250.89 151.02,-243.92"/>
</a>
</g>
<text xml:space="preserve" text-anchor="start" x="287.25" y="-260.25" font-family="Helvetica,sans-Serif" font-size="10.00" fill="grey">_settings</text>
</g>
<!-- Node19 -->
<g id="Node000019" class="node">
<title>Node19</title>
<g id="a_Node000019"><a xlink:href="class_balloon_party_1_1_shared_1_1_disturbance_1_1_disturbance_field_resources.html" target="_top" xlink:title="Holds the disturbance field&#39;s GPU resources and the blit&#45;and&#45;swap, kept apart from DisturbanceFieldSe...">
<polygon fill="white" stroke="#666666" points="388.25,-226.5 226,-226.5 226,-196 388.25,-196 388.25,-226.5"/>
<text xml:space="preserve" text-anchor="start" x="234" y="-213" font-family="Helvetica,sans-Serif" font-size="10.00">BalloonParty.Shared.Disturbance.</text>
<text xml:space="preserve" text-anchor="middle" x="307.12" y="-201.75" font-family="Helvetica,sans-Serif" font-size="10.00">DisturbanceFieldResources</text>
</a>
</g>
</g>
<!-- Node15&#45;&gt;Node19 -->
<g id="edge20_Node000019_Node000015" class="edge">
<title>Node15&#45;&gt;Node19</title>
<g id="a_edge20_Node000019_Node000015"><a xlink:title=" ">
<path fill="none" stroke="#9a32cd" stroke-dasharray="5,2" d="M150.54,-228.61C174.69,-225.92 201.38,-222.94 225.74,-220.22"/>
<polygon fill="#9a32cd" stroke="#9a32cd" points="150.32,-225.11 140.77,-229.7 151.1,-232.07 150.32,-225.11"/>
</a>
</g>
<text xml:space="preserve" text-anchor="start" x="165.25" y="-232.58" font-family="Helvetica,sans-Serif" font-size="10.00" fill="grey">_settings</text>
</g>
<!-- Node16 -->
<g id="Node000016" class="node">
<title>Node16</title>
<g id="a_Node000016"><a xlink:href="interface_balloon_party_1_1_configuration_1_1_i_game_display_configuration.html" target="_top" xlink:title=" ">
<polygon fill="white" stroke="#666666" points="375.12,-177.5 239.12,-177.5 239.12,-147 375.12,-147 375.12,-177.5"/>
<text xml:space="preserve" text-anchor="start" x="247.12" y="-164" font-family="Helvetica,sans-Serif" font-size="10.00">BalloonParty.Configuration.</text>
<text xml:space="preserve" text-anchor="middle" x="307.12" y="-152.75" font-family="Helvetica,sans-Serif" font-size="10.00">IGameDisplayConfiguration</text>
</a>
</g>
</g>
<!-- Node16&#45;&gt;Node12 -->
<g id="edge16_Node000012_Node000016" class="edge">
<title>Node16&#45;&gt;Node12</title>
<g id="a_edge16_Node000012_Node000016"><a xlink:title=" ">
<path fill="none" stroke="#9a32cd" stroke-dasharray="5,2" d="M386.65,-168.74C433.03,-173.91 492.52,-182.87 543.75,-198 567.77,-205.09 593.53,-216.88 612.62,-226.51"/>
<polygon fill="#9a32cd" stroke="#9a32cd" points="387.28,-165.29 376.96,-167.7 386.53,-172.25 387.28,-165.29"/>
</a>
</g>
<text xml:space="preserve" text-anchor="start" x="442.75" y="-204" font-family="Helvetica,sans-Serif" font-size="10.00" fill="grey">_displayConfig</text>
</g>
<!-- Node17 -->
<g id="Node000017" class="node">
<title>Node17</title>
<g id="a_Node000017"><a xlink:href="class_balloon_party_1_1_shared_1_1_impact_event_bus.html" target="_top" xlink:title="Frame&#45;scoped one&#45;shot impact events.">
<polygon fill="white" stroke="#666666" points="375.5,-128.5 238.75,-128.5 238.75,-98 375.5,-98 375.5,-128.5"/>
<text xml:space="preserve" text-anchor="start" x="246.75" y="-115" font-family="Helvetica,sans-Serif" font-size="10.00">BalloonParty.Shared.Impact</text>
<text xml:space="preserve" text-anchor="middle" x="307.12" y="-103.75" font-family="Helvetica,sans-Serif" font-size="10.00">EventBus</text>
</a>
</g>
</g>
<!-- Node17&#45;&gt;Node12 -->
<g id="edge17_Node000012_Node000017" class="edge">
<title>Node17&#45;&gt;Node12</title>
<g id="a_edge17_Node000012_Node000017"><a xlink:title=" ">
<path fill="none" stroke="#9a32cd" stroke-dasharray="5,2" d="M387.25,-113.96C434.72,-117.16 495.13,-126.23 543.75,-150 580.93,-168.17 613.61,-205.32 630.23,-226.51"/>
<polygon fill="#9a32cd" stroke="#9a32cd" points="387.48,-110.47 377.29,-113.38 387.07,-117.46 387.48,-110.47"/>
</a>
</g>
<text xml:space="preserve" text-anchor="start" x="449.12" y="-156" font-family="Helvetica,sans-Serif" font-size="10.00" fill="grey">_impactBus</text>
</g>
<!-- Node18 -->
<g id="Node000018" class="node">
<title>Node18</title>
<g id="a_Node000018"><a xlink:title=" ">
<polygon fill="white" stroke="#666666" points="109.38,-122.88 34.88,-122.88 34.88,-103.62 109.38,-103.62 109.38,-122.88"/>
<text xml:space="preserve" text-anchor="middle" x="72.12" y="-109.38" font-family="Helvetica,sans-Serif" font-size="10.00">ILateTickable</text>
</a>
</g>
</g>
<!-- Node18&#45;&gt;Node17 -->
<g id="edge18_Node000017_Node000018" class="edge">
<title>Node18&#45;&gt;Node17</title>
<g id="a_edge18_Node000017_Node000018"><a xlink:title=" ">
<path fill="none" stroke="#63b8ff" d="M121.22,-113.25C155.03,-113.25 200.74,-113.25 238.25,-113.25"/>
<polygon fill="#63b8ff" stroke="#63b8ff" points="121.3,-109.75 111.3,-113.25 121.3,-116.75 121.3,-109.75"/>
</a>
</g>
</g>
<!-- Node19&#45;&gt;Node12 -->
<g id="edge19_Node000012_Node000019" class="edge">
<title>Node19&#45;&gt;Node12</title>
<g id="a_edge19_Node000012_Node000019"><a xlink:title=" ">
<path fill="none" stroke="#9a32cd" stroke-dasharray="5,2" d="M400.06,-218.3C443.64,-221.81 496.41,-226.3 543.75,-231 549.47,-231.57 555.37,-232.18 561.31,-232.81"/>
<polygon fill="#9a32cd" stroke="#9a32cd" points="400.36,-214.81 390.12,-217.51 399.81,-221.79 400.36,-214.81"/>
</a>
</g>
<text xml:space="preserve" text-anchor="start" x="451" y="-237" font-family="Helvetica,sans-Serif" font-size="10.00" fill="grey">_resources</text>
</g>
<!-- Node20 -->
<g id="Node000020" class="node">
<title>Node20</title>
<g id="a_Node000020"><a xlink:href="class_balloon_party_1_1_shared_1_1_disturbance_1_1_disturbance_field_coordinates.html" target="_top" xlink:title="World↔field&#45;UV geometry for the disturbance RT: derives the field&#39;s world&#45;space bounds and texel dime...">
<polygon fill="white" stroke="#666666" points="388.25,-79.5 226,-79.5 226,-49 388.25,-49 388.25,-79.5"/>
<text xml:space="preserve" text-anchor="start" x="234" y="-66" font-family="Helvetica,sans-Serif" font-size="10.00">BalloonParty.Shared.Disturbance.</text>
<text xml:space="preserve" text-anchor="middle" x="307.12" y="-54.75" font-family="Helvetica,sans-Serif" font-size="10.00">DisturbanceFieldCoordinates</text>
</a>
</g>
</g>
<!-- Node20&#45;&gt;Node12 -->
<g id="edge21_Node000012_Node000020" class="edge">
<title>Node20&#45;&gt;Node12</title>
<g id="a_edge21_Node000012_Node000020"><a xlink:title=" ">
<path fill="none" stroke="#9a32cd" stroke-dasharray="5,2" d="M399.95,-58.37C446.18,-59.55 501.28,-67.62 543.75,-94 595.14,-125.92 625.36,-195.86 636.7,-226.9"/>
<polygon fill="#9a32cd" stroke="#9a32cd" points="400.26,-54.88 390.22,-58.24 400.17,-61.88 400.26,-54.88"/>
</a>
</g>
<text xml:space="preserve" text-anchor="start" x="457.75" y="-100" font-family="Helvetica,sans-Serif" font-size="10.00" fill="grey">_coords</text>
</g>
<!-- Node21 -->
<g id="Node000021" class="node">
<title>Node21</title>
<g id="a_Node000021"><a xlink:href="class_balloon_party_1_1_shared_1_1_disturbance_1_1_lerp_stamp_scheduler.html" target="_top" xlink:title="Ramps &quot;duration&quot; stamps over time: rather than a single&#45;frame pop, a stamp&#39;s strength is spread acros...">
<polygon fill="white" stroke="#666666" points="388.25,-30.5 226,-30.5 226,0 388.25,0 388.25,-30.5"/>
<text xml:space="preserve" text-anchor="start" x="234" y="-17" font-family="Helvetica,sans-Serif" font-size="10.00">BalloonParty.Shared.Disturbance.</text>
<text xml:space="preserve" text-anchor="middle" x="307.12" y="-5.75" font-family="Helvetica,sans-Serif" font-size="10.00">LerpStampScheduler</text>
</a>
</g>
</g>
<!-- Node21&#45;&gt;Node12 -->
<g id="edge22_Node000012_Node000021" class="edge">
<title>Node21&#45;&gt;Node12</title>
<g id="a_edge22_Node000012_Node000021"><a xlink:title=" ">
<path fill="none" stroke="#9a32cd" stroke-dasharray="5,2" d="M399.94,-3.35C446.81,-2.03 502.49,-8.26 543.75,-37 610.19,-83.28 633.14,-187.06 639.65,-226.57"/>
<polygon fill="#9a32cd" stroke="#9a32cd" points="399.9,0.15 390.06,-3.77 400.19,-6.85 399.9,0.15"/>
</a>
</g>
<text xml:space="preserve" text-anchor="start" x="442.75" y="-43" font-family="Helvetica,sans-Serif" font-size="10.00" fill="grey">_lerpScheduler</text>
</g>
<!-- Node22 -->
<g id="Node000022" class="node">
<title>Node22</title>
<g id="a_Node000022"><a xlink:href="interface_balloon_party_1_1_projectile_1_1_model_1_1_i_writeable_projectile_model.html" target="_top" xlink:title=" ">
<polygon fill="white" stroke="#666666" points="986.75,-560.5 831.25,-560.5 831.25,-530 986.75,-530 986.75,-560.5"/>
<text xml:space="preserve" text-anchor="start" x="839.25" y="-547" font-family="Helvetica,sans-Serif" font-size="10.00">BalloonParty.Projectile.</text>
<text xml:space="preserve" text-anchor="middle" x="909" y="-535.75" font-family="Helvetica,sans-Serif" font-size="10.00">Model.IWriteableProjectileModel</text>
</a>
</g>
</g>
<!-- Node22&#45;&gt;Node1 -->
<g id="edge23_Node000001_Node000022" class="edge">
<title>Node22&#45;&gt;Node1</title>
<g id="a_edge23_Node000001_Node000022"><a xlink:title=" ">
<path fill="none" stroke="#9a32cd" stroke-dasharray="5,2" d="M998.66,-549.73C1023.05,-551.48 1049.47,-553.84 1073.75,-557 1079.55,-557.75 1085.58,-558.67 1091.59,-559.67"/>
<polygon fill="#9a32cd" stroke="#9a32cd" points="998.96,-546.25 988.75,-549.06 998.49,-553.23 998.96,-546.25"/>
</a>
</g>
<text xml:space="preserve" text-anchor="start" x="1023.5" y="-563" font-family="Helvetica,sans-Serif" font-size="10.00" fill="grey">_model</text>
</g>
<!-- Node23 -->
<g id="Node000023" class="node">
<title>Node23</title>
<g id="a_Node000023"><a xlink:href="interface_balloon_party_1_1_projectile_1_1_model_1_1_i_projectile_model.html" target="_top" xlink:title=" ">
<polygon fill="white" stroke="#666666" points="701.12,-522.5 584.62,-522.5 584.62,-492 701.12,-492 701.12,-522.5"/>
<text xml:space="preserve" text-anchor="start" x="592.62" y="-509" font-family="Helvetica,sans-Serif" font-size="10.00">BalloonParty.Projectile.</text>
<text xml:space="preserve" text-anchor="middle" x="642.88" y="-497.75" font-family="Helvetica,sans-Serif" font-size="10.00">Model.IProjectileModel</text>
</a>
</g>
</g>
<!-- Node23&#45;&gt;Node22 -->
<g id="edge24_Node000022_Node000023" class="edge">
<title>Node23&#45;&gt;Node22</title>
<g id="a_edge24_Node000022_Node000023"><a xlink:title=" ">
<path fill="none" stroke="#63b8ff" d="M712.72,-503.27C743.69,-502.81 780.56,-504.11 813.25,-510.25 834.1,-514.17 856.41,-522.2 874.14,-529.59"/>
<polygon fill="#63b8ff" stroke="#63b8ff" points="713.03,-499.76 703.11,-503.48 713.18,-506.76 713.03,-499.76"/>
</a>
</g>
</g>
<!-- Node23&#45;&gt;Node25 -->
<g id="edge39_Node000025_Node000023" class="edge">
<title>Node23&#45;&gt;Node25</title>
<g id="a_edge39_Node000025_Node000023"><a xlink:title=" ">
<path fill="none" stroke="#9a32cd" stroke-dasharray="5,2" d="M712.88,-509.85C752.49,-512.6 797.43,-518.29 813.25,-530 828.68,-541.42 816.92,-556.48 831.25,-569.25 835.33,-572.89 839.95,-575.99 844.85,-578.65"/>
<polygon fill="#9a32cd" stroke="#9a32cd" points="713.32,-506.37 703.12,-509.23 712.87,-513.35 713.32,-506.37"/>
</a>
</g>
<text xml:space="preserve" text-anchor="start" x="761.88" y="-536" font-family="Helvetica,sans-Serif" font-size="10.00" fill="grey">_model</text>
</g>
<!-- Node24&#45;&gt;Node1 -->
<g id="edge25_Node000001_Node000024" class="edge">
<title>Node24&#45;&gt;Node1</title>
<g id="a_edge25_Node000001_Node000024"><a xlink:title=" ">
<path fill="none" stroke="#9a32cd" stroke-dasharray="5,2" d="M978.83,-853.82C1011.18,-851.89 1048.18,-843.99 1073.75,-821.25 1144.71,-758.15 1149.92,-630.9 1149.48,-586.75"/>
<polygon fill="#9a32cd" stroke="#9a32cd" points="978.97,-850.31 969.11,-854.2 979.24,-857.3 978.97,-850.31"/>
</a>
</g>
<text xml:space="preserve" text-anchor="start" x="1007.75" y="-856.85" font-family="Helvetica,sans-Serif" font-size="10.00" fill="grey">_projectileTrail</text>
</g>
<!-- Node25&#45;&gt;Node1 -->
<g id="edge27_Node000001_Node000025" class="edge">
<title>Node25&#45;&gt;Node1</title>
<g id="a_edge27_Node000001_Node000025"><a xlink:title=" ">
<path fill="none" stroke="#9a32cd" stroke-dasharray="5,2" d="M985.16,-587.02C1019.55,-583.71 1059.65,-579.85 1091.57,-576.78"/>
<polygon fill="#9a32cd" stroke="#9a32cd" points="984.86,-583.53 975.24,-587.97 985.53,-590.5 984.86,-583.53"/>
</a>
</g>
<text xml:space="preserve" text-anchor="start" x="1013" y="-590.81" font-family="Helvetica,sans-Serif" font-size="10.00" fill="grey">_shieldView</text>
</g>
<!-- Node26 -->
<g id="Node000026" class="node">
<title>Node26</title>
<g id="a_Node000026"><a xlink:href="class_balloon_party_1_1_shared_1_1_pool_1_1_pool_manager.html" target="_top" xlink:title=" ">
<polygon fill="white" stroke="#666666" points="707.5,-722.5 578.25,-722.5 578.25,-692 707.5,-692 707.5,-722.5"/>
<text xml:space="preserve" text-anchor="start" x="586.25" y="-709" font-family="Helvetica,sans-Serif" font-size="10.00">BalloonParty.Shared.Pool.</text>
<text xml:space="preserve" text-anchor="middle" x="642.88" y="-697.75" font-family="Helvetica,sans-Serif" font-size="10.00">PoolManager</text>
</a>
</g>
</g>
<!-- Node26&#45;&gt;Node25 -->
<g id="edge31_Node000025_Node000026" class="edge">
<title>Node26&#45;&gt;Node25</title>
<g id="a_edge31_Node000025_Node000026"><a xlink:title=" ">
<path fill="none" stroke="#9a32cd" stroke-dasharray="5,2" d="M705.35,-688.22C711.66,-686.22 717.96,-684.21 724,-682.25 763.81,-669.35 775.33,-669.95 813.25,-652.25 839.29,-640.09 867.11,-622.44 885.83,-609.81"/>
<polygon fill="#9a32cd" stroke="#9a32cd" points="704.72,-684.75 696.24,-691.09 706.83,-691.42 704.72,-684.75"/>
</a>
</g>
<text xml:space="preserve" text-anchor="start" x="747.25" y="-682.41" font-family="Helvetica,sans-Serif" font-size="10.00" fill="grey">_poolManager</text>
</g>
<!-- Node27&#45;&gt;Node25 -->
<g id="edge32_Node000025_Node000027" class="edge">
<title>Node27&#45;&gt;Node25</title>
<g id="a_edge32_Node000025_Node000027"><a xlink:title=" ">
<path fill="none" stroke="#9a32cd" stroke-dasharray="5,2" d="M714.17,-597.83C723.51,-596.67 732.97,-595.67 742,-595 775.77,-592.48 813.51,-592.12 844.46,-592.46"/>
<polygon fill="#9a32cd" stroke="#9a32cd" points="713.84,-594.35 704.38,-599.12 714.75,-601.29 713.84,-594.35"/>
</a>
</g>
<text xml:space="preserve" text-anchor="start" x="767.12" y="-601" font-family="Helvetica,sans-Serif" font-size="10.00" fill="grey">_grid</text>
</g>
<!-- Node28&#45;&gt;Node27 -->
<g id="edge33_Node000027_Node000028" class="edge">
<title>Node28&#45;&gt;Node27</title>
<g id="a_edge33_Node000027_Node000028"><a xlink:title=" ">
<path fill="none" stroke="#9a32cd" stroke-dasharray="5,2" d="M378.52,-711.37C438.44,-706.74 518.67,-697 543.75,-677.25 560.03,-664.43 546.43,-648.2 561.75,-634.25 567.78,-628.76 575.01,-624.47 582.63,-621.13"/>
<polygon fill="#9a32cd" stroke="#9a32cd" points="378.43,-707.86 368.71,-712.09 378.94,-714.85 378.43,-707.86"/>
</a>
</g>
<text xml:space="preserve" text-anchor="start" x="431.12" y="-714.56" font-family="Helvetica,sans-Serif" font-size="10.00" fill="grey">_balancePathHolder</text>
</g>
<!-- Node29 -->
<g id="Node000029" class="node">
<title>Node29</title>
<g id="a_Node000029"><a xlink:href="interface_balloon_party_1_1_slots_1_1_actor_1_1_i_writeable_slot_actor.html" target="_top" xlink:title=" ">
<polygon fill="white" stroke="#666666" points="369.12,-632.5 245.12,-632.5 245.12,-602 369.12,-602 369.12,-632.5"/>
<text xml:space="preserve" text-anchor="start" x="253.12" y="-619" font-family="Helvetica,sans-Serif" font-size="10.00">BalloonParty.Slots.Actor.</text>
<text xml:space="preserve" text-anchor="middle" x="307.12" y="-607.75" font-family="Helvetica,sans-Serif" font-size="10.00">IWriteableSlotActor</text>
</a>
</g>
</g>
<!-- Node29&#45;&gt;Node27 -->
<g id="edge36_Node000027_Node000029" class="edge">
<title>Node29&#45;&gt;Node27</title>
<g id="a_edge36_Node000027_Node000029"><a xlink:title=" ">
<path fill="none" stroke="#9a32cd" stroke-dasharray="5,2" d="M380.72,-615.51C441.21,-614.06 526.32,-612.02 582.73,-610.67"/>
<polygon fill="#9a32cd" stroke="#9a32cd" points="380.77,-612.01 370.85,-615.75 380.93,-619.01 380.77,-612.01"/>
</a>
</g>
<text xml:space="preserve" text-anchor="start" x="461.88" y="-620.89" font-family="Helvetica,sans-Serif" font-size="10.00" fill="grey">_slots</text>
</g>
<!-- Node30 -->
<g id="Node000030" class="node">
<title>Node30</title>
<g id="a_Node000030"><a xlink:href="interface_balloon_party_1_1_slots_1_1_actor_1_1_i_slot_actor.html" target="_top" xlink:title=" ">
<polygon fill="white" stroke="#666666" points="134.12,-632.5 10.12,-632.5 10.12,-602 134.12,-602 134.12,-632.5"/>
<text xml:space="preserve" text-anchor="start" x="18.12" y="-619" font-family="Helvetica,sans-Serif" font-size="10.00">BalloonParty.Slots.Actor.</text>
<text xml:space="preserve" text-anchor="middle" x="72.12" y="-607.75" font-family="Helvetica,sans-Serif" font-size="10.00">ISlotActor</text>
</a>
</g>
</g>
<!-- Node30&#45;&gt;Node29 -->
<g id="edge37_Node000029_Node000030" class="edge">
<title>Node30&#45;&gt;Node29</title>
<g id="a_edge37_Node000029_Node000030"><a xlink:title=" ">
<path fill="none" stroke="#63b8ff" d="M145.81,-617.25C177.62,-617.25 214.53,-617.25 244.91,-617.25"/>
<polygon fill="#63b8ff" stroke="#63b8ff" points="145.86,-613.75 135.86,-617.25 145.86,-620.75 145.86,-613.75"/>
</a>
</g>
</g>
<!-- Node31 -->
<g id="Node000031" class="node">
<title>Node31</title>
<g id="a_Node000031"><a xlink:href="interface_balloon_party_1_1_slots_1_1_actor_1_1_i_slot_actor_view.html" target="_top" xlink:title=" ">
<polygon fill="white" stroke="#666666" points="369.12,-681.5 245.12,-681.5 245.12,-651 369.12,-651 369.12,-681.5"/>
<text xml:space="preserve" text-anchor="start" x="253.12" y="-668" font-family="Helvetica,sans-Serif" font-size="10.00">BalloonParty.Slots.Actor.</text>
<text xml:space="preserve" text-anchor="middle" x="307.12" y="-656.75" font-family="Helvetica,sans-Serif" font-size="10.00">ISlotActorView</text>
</a>
</g>
</g>
<!-- Node31&#45;&gt;Node27 -->
<g id="edge38_Node000027_Node000031" class="edge">
<title>Node31&#45;&gt;Node27</title>
<g id="a_edge38_Node000027_Node000031"><a xlink:title=" ">
<path fill="none" stroke="#9a32cd" stroke-dasharray="5,2" d="M380.79,-659.69C427.59,-654.8 489.59,-647.09 543.75,-636.25 558.91,-633.22 575.17,-629.1 590.01,-625"/>
<polygon fill="#9a32cd" stroke="#9a32cd" points="380.63,-656.19 371.04,-660.69 381.35,-663.15 380.63,-656.19"/>
</a>
</g>
<text xml:space="preserve" text-anchor="start" x="459.62" y="-662.46" font-family="Helvetica,sans-Serif" font-size="10.00" fill="grey">_views</text>
</g>
</g>
</svg>

<g id="navigator" transform="translate(0 0)" fill="#404254">
  <rect fill="#f2f5e9" fill-opacity="0.5" stroke="#606060" stroke-width=".5" x="0" y="0" width="60" height="60"/>
  <use id="zoomplus" xlink:href="#zoomPlus" x="17" y="9" onmousedown="handleZoom(evt,'in')"/>
  <use id="zoomminus" xlink:href="#zoomMin" x="42" y="9" onmousedown="handleZoom(evt,'out')"/>
  <use id="reset" xlink:href="#resetDef" x="30" y="36" onmousedown="handleReset()"/>
   <use id="arrowup" xlink:href="#arrowUp" x="0" y="0" onmousedown="handlePan(0,-1)"/>
  <use id="arrowright" xlink:href="#arrowRight" x="0" y="0" onmousedown="handlePan(1,0)"/>
  <use id="arrowdown" xlink:href="#arrowDown" x="0" y="0" onmousedown="handlePan(0,1)"/>
  <use id="arrowleft" xlink:href="#arrowLeft" x="0" y="0" onmousedown="handlePan(-1,0)"/>
</g>
<svg viewBox="0 0 15 15" width="100%" height="30px" preserveAspectRatio="xMaxYMin meet">
 <g id="arrow_out" transform="scale(0.3 0.3)">
  <a xlink:href="class_balloon_party_1_1_projectile_1_1_view_1_1_projectile_view__coll__graph_org.svg" target="_base">
   <rect id="button" ry="5" rx="5" y="6" x="6" height="38" width="38"
        fill="#f2f5e9" fill-opacity="0.5" stroke="#606060" stroke-width="1.0"/>
   <path id="arrow"
     d="M 11.500037,31.436501 C 11.940474,20.09759 22.043105,11.32322 32.158766,21.979434 L 37.068811,17.246167 C 37.068811,17.246167 37.088388,32 37.088388,32 L 22.160133,31.978069 C 22.160133,31.978069 26.997745,27.140456 26.997745,27.140456 C 18.528582,18.264221 13.291696,25.230495 11.500037,31.436501 z"
     style="fill:#404040;"/>
  </a>
 </g>
</svg>

<style type='text/css'>
<![CDATA[
[data-mouse-over-selected='false'] { opacity: 0.7; }
[data-mouse-over-selected='true']  { opacity: 1.0; }
]]>
</style>
<script type="application/ecmascript"><![CDATA[
document.addEventListener('DOMContentLoaded', (event) => {
  highlightEdges();
  highlightAdjacentNodes();
});
]]></script>
</svg>
