<?xml version="1.0" encoding="UTF-8" standalone="no"?>
<!DOCTYPE svg PUBLIC "-//W3C//DTD SVG 1.1//EN"
 "http://www.w3.org/Graphics/SVG/1.1/DTD/svg11.dtd">
<!-- Generated by graphviz version 15.0.0 (20260523.1842)
 -->
<!-- Title: BalloonParty.Editor.ChainLightningViewEditor Pages: 1 -->
<!--zoomable 205 -->

<svg id="main" version="1.1" xmlns="http://www.w3.org/2000/svg" xmlns:xlink="http://www.w3.org/1999/xlink" xml:space="preserve" onload="init(evt)">

<style type="text/css"><![CDATA[
.node, .edge {opacity: 0.7;}
.node.selected, .edge.selected {opacity: 1;}
.edge:hover path { stroke: red; }
.edge:hover polygon { stroke: red; fill: red; }
]]></style>

<defs>
  <circle id="rim" cx="0" cy="0" r="7"/>
  <circle id="rim2" cx="0" cy="0" r="3.5"/>
  <g id="zoomPlus">
    <use xlink:href="#rim" fill="#404040"><set attributeName="fill" to="#808080" begin="zoomplus.mouseover" end="zoomplus.mouseout"/></use>
    <path d="M-4,0h8M0,-4v8" fill="none" stroke="white" stroke-width="1.5" pointer-events="none"/>
  </g>
  <g id="zoomMin">
    <use xlink:href="#rim" fill="#404040"><set attributeName="fill" to="#808080" begin="zoomminus.mouseover" end="zoomminus.mouseout"/></use>
    <path d="M-4,0h8" fill="none" stroke="white" stroke-width="1.5" pointer-events="none"/>
  </g>
  <g id="arrowUp" transform="translate(30 24)">
    <use xlink:href="#rim"/>
    <path pointer-events="none" fill="none" stroke="white" stroke-width="1.5" d="M0,-3.0v7 M-2.5,-0.5L0,-3.0L2.5,-0.5"/>
  </g>
  <g id="arrowRight" transform="rotate(90) translate(36 -43)">
    <use xlink:href="#rim"/>
    <path pointer-events="none" fill="none" stroke="white" stroke-width="1.5" d="M0,-3.0v7 M-2.5,-0.5L0,-3.0L2.5,-0.5"/>
  </g>
  <g id="arrowDown" transform="rotate(180) translate(-30 -48)">
    <use xlink:href="#rim"/>
    <path pointer-events="none" fill="none" stroke="white" stroke-width="1.5" d="M0,-3.0v7 M-2.5,-0.5L0,-3.0L2.5,-0.5"/>
  </g>
  <g id="arrowLeft" transform="rotate(270) translate(-36 17)">
    <use xlink:href="#rim"/>
    <path pointer-events="none" fill="none" stroke="white" stroke-width="1.5" d="M0,-3.0v7 M-2.5,-0.5L0,-3.0L2.5,-0.5"/>
  </g>
  <g id="resetDef">
    <use xlink:href="#rim2" fill="#404040"><set attributeName="fill" to="#808080" begin="reset.mouseover" end="reset.mouseout"/></use>
  </g>
</defs>
<script type="application/ecmascript">
var viewWidth = 857;
var viewHeight = 205;
var sectionId = 'dynsection-1';
</script>
<script type="application/ecmascript" xlink:href="svg.min.js"/>
<svg id="graph" class="graph">
<g id="viewport">
<title>BalloonParty.Editor.ChainLightningViewEditor</title>
<!-- Node1 -->
<g id="Node000001" class="node">
<title>Node1</title>
<g id="a_Node000001"><a xlink:title=" ">
<polygon fill="#999999" stroke="#666666" points="849.25,-135.5 723,-135.5 723,-105 849.25,-105 849.25,-135.5"/>
<text xml:space="preserve" text-anchor="start" x="731" y="-122" font-family="Helvetica,sans-Serif" font-size="10.00">BalloonParty.Editor.Chain</text>
<text xml:space="preserve" text-anchor="middle" x="786.12" y="-110.75" font-family="Helvetica,sans-Serif" font-size="10.00">LightningViewEditor</text>
</a>
</g>
</g>
<!-- Node2 -->
<g id="Node000002" class="node">
<title>Node2</title>
<g id="a_Node000002"><a xlink:title=" ">
<polygon fill="white" stroke="#666666" points="614.25,-150.88 521,-150.88 521,-131.62 614.25,-131.62 614.25,-150.88"/>
<text xml:space="preserve" text-anchor="middle" x="567.62" y="-137.38" font-family="Helvetica,sans-Serif" font-size="10.00">NaughtyInspector</text>
</a>
</g>
</g>
<!-- Node2&#45;&gt;Node1 -->
<g id="edge1_Node000001_Node000002" class="edge">
<title>Node2&#45;&gt;Node1</title>
<g id="a_edge1_Node000001_Node000002"><a xlink:title=" ">
<path fill="none" stroke="#63b8ff" d="M625.64,-135.72C655.54,-132.82 692.21,-129.26 722.85,-126.29"/>
<polygon fill="#63b8ff" stroke="#63b8ff" points="625.66,-132.2 616.05,-136.65 626.34,-139.17 625.66,-132.2"/>
</a>
</g>
</g>
<!-- Node3 -->
<g id="Node000003" class="node">
<title>Node3</title>
<g id="a_Node000003"><a xlink:href="class_balloon_party_1_1_editor_1_1_effect_preview_1_1_effect_view_preview_player.html" target="_top" xlink:title="Reusable editor preview player for Shared.Pool.EffectView subclasses.">
<polygon fill="white" stroke="#666666" points="649.5,-113.5 485.75,-113.5 485.75,-83 649.5,-83 649.5,-113.5"/>
<text xml:space="preserve" text-anchor="start" x="493.75" y="-100" font-family="Helvetica,sans-Serif" font-size="10.00">BalloonParty.Editor.Effect</text>
<text xml:space="preserve" text-anchor="middle" x="567.62" y="-88.75" font-family="Helvetica,sans-Serif" font-size="10.00">Preview.EffectViewPreviewPlayer</text>
</a>
</g>
</g>
<!-- Node3&#45;&gt;Node1 -->
<g id="edge2_Node000001_Node000003" class="edge">
<title>Node3&#45;&gt;Node1</title>
<g id="a_edge2_Node000001_Node000003"><a xlink:title=" ">
<path fill="none" stroke="#9a32cd" stroke-dasharray="5,2" d="M661.05,-102.93C675.77,-104.03 690.82,-105.38 705,-107 710.74,-107.66 716.7,-108.44 722.66,-109.3"/>
<polygon fill="#9a32cd" stroke="#9a32cd" points="661.6,-99.46 651.38,-102.24 661.1,-106.44 661.6,-99.46"/>
</a>
</g>
<text xml:space="preserve" text-anchor="start" x="670.5" y="-113" font-family="Helvetica,sans-Serif" font-size="10.00" fill="grey">_player</text>
</g>
<!-- Node4 -->
<g id="Node000004" class="node">
<title>Node4</title>
<g id="a_Node000004"><a xlink:href="class_balloon_party_1_1_editor_1_1_editor_u_i_1_1_editor_animation_loop.html" target="_top" xlink:title="Manages a play/pause/stop animation loop driven by EditorApplication.update.">
<polygon fill="white" stroke="#666666" points="378.5,-196.5 252.25,-196.5 252.25,-166 378.5,-166 378.5,-196.5"/>
<text xml:space="preserve" text-anchor="start" x="260.25" y="-183" font-family="Helvetica,sans-Serif" font-size="10.00">BalloonParty.Editor.Editor</text>
<text xml:space="preserve" text-anchor="middle" x="315.38" y="-171.75" font-family="Helvetica,sans-Serif" font-size="10.00">UI.EditorAnimationLoop</text>
</a>
</g>
</g>
<!-- Node4&#45;&gt;Node3 -->
<g id="edge3_Node000003_Node000004" class="edge">
<title>Node4&#45;&gt;Node3</title>
<g id="a_edge3_Node000003_Node000004"><a xlink:title=" ">
<path fill="none" stroke="#9a32cd" stroke-dasharray="5,2" d="M374.49,-161.89C402.73,-152.33 437.11,-140.46 467.75,-129.25 475.81,-126.3 477.63,-125.03 485.75,-122.25 494.06,-119.41 502.92,-116.58 511.62,-113.91"/>
<polygon fill="#9a32cd" stroke="#9a32cd" points="373.38,-158.57 365.03,-165.09 375.62,-165.2 373.38,-158.57"/>
</a>
</g>
<text xml:space="preserve" text-anchor="start" x="414.12" y="-155.85" font-family="Helvetica,sans-Serif" font-size="10.00" fill="grey">_animLoop</text>
</g>
<!-- Node5 -->
<g id="Node000005" class="node">
<title>Node5</title>
<g id="a_Node000005"><a xlink:href="class_balloon_party_1_1_editor_1_1_editor_u_i_1_1_palette_color_picker.html" target="_top" xlink:title="Reusable palette color picker and swatch drawing for editor UI.">
<polygon fill="white" stroke="#666666" points="378.5,-79.5 252.25,-79.5 252.25,-49 378.5,-49 378.5,-79.5"/>
<text xml:space="preserve" text-anchor="start" x="260.25" y="-66" font-family="Helvetica,sans-Serif" font-size="10.00">BalloonParty.Editor.Editor</text>
<text xml:space="preserve" text-anchor="middle" x="315.38" y="-54.75" font-family="Helvetica,sans-Serif" font-size="10.00">UI.PaletteColorPicker</text>
</a>
</g>
</g>
<!-- Node5&#45;&gt;Node3 -->
<g id="edge4_Node000003_Node000005" class="edge">
<title>Node5&#45;&gt;Node3</title>
<g id="a_edge4_Node000003_Node000005"><a xlink:title=" ">
<path fill="none" stroke="#9a32cd" stroke-dasharray="5,2" d="M389.78,-73.63C414.56,-76.84 442.36,-80.51 467.75,-84 473.51,-84.79 479.45,-85.62 485.43,-86.46"/>
<polygon fill="#9a32cd" stroke="#9a32cd" points="390.5,-70.19 380.13,-72.38 389.6,-77.13 390.5,-70.19"/>
</a>
</g>
<text xml:space="preserve" text-anchor="start" x="410.75" y="-90" font-family="Helvetica,sans-Serif" font-size="10.00" fill="grey">_colorPicker</text>
</g>
<!-- Node6 -->
<g id="Node000006" class="node">
<title>Node6</title>
<g id="a_Node000006"><a xlink:href="class_balloon_party_1_1_editor_1_1_editor_u_i_1_1_config_asset_cache-1-g.html" target="_top" xlink:title="Lazily finds and caches a ScriptableObject asset by type via AssetDatabase.FindAssets.">
<polygon fill="white" stroke="#666666" points="136,-105.5 0,-105.5 0,-75 136,-75 136,-105.5"/>
<text xml:space="preserve" text-anchor="start" x="8" y="-92" font-family="Helvetica,sans-Serif" font-size="10.00">BalloonParty.Editor.Editor</text>
<text xml:space="preserve" text-anchor="middle" x="68" y="-80.75" font-family="Helvetica,sans-Serif" font-size="10.00">UI.ConfigAssetCache&lt; T &gt;</text>
</a>
</g>
</g>
<!-- Node6&#45;&gt;Node3 -->
<g id="edge6_Node000003_Node000006" class="edge">
<title>Node6&#45;&gt;Node3</title>
<g id="a_edge6_Node000003_Node000006"><a xlink:title=" ">
<path fill="none" stroke="#9a32cd" stroke-dasharray="5,2" d="M147.41,-100.77C149.63,-100.95 151.83,-101.11 154,-101.25 293.16,-110.22 328.32,-103.36 467.75,-101.25 473.5,-101.16 479.44,-101.05 485.42,-100.91"/>
<polygon fill="#9a32cd" stroke="#9a32cd" points="147.98,-97.31 137.71,-99.89 147.35,-104.28 147.98,-97.31"/>
</a>
</g>
<text xml:space="preserve" text-anchor="start" x="272.25" y="-127" font-family="Helvetica,sans-Serif" font-size="10.00" fill="grey">_gameConfigCache</text>
<text xml:space="preserve" text-anchor="start" x="272.25" y="-111.75" font-family="Helvetica,sans-Serif" font-size="10.00" fill="grey">_itemConfigCache</text>
</g>
<!-- Node6&#45;&gt;Node5 -->
<g id="edge5_Node000005_Node000006" class="edge">
<title>Node6&#45;&gt;Node5</title>
<g id="a_edge5_Node000005_Node000006"><a xlink:title=" ">
<path fill="none" stroke="#9a32cd" stroke-dasharray="5,2" d="M147.59,-81.92C181.28,-78.35 220.08,-74.24 251.78,-70.88"/>
<polygon fill="#9a32cd" stroke="#9a32cd" points="147.45,-78.42 137.88,-82.95 148.19,-85.38 147.45,-78.42"/>
</a>
</g>
<text xml:space="preserve" text-anchor="start" x="157" y="-87.1" font-family="Helvetica,sans-Serif" font-size="10.00" fill="grey">_paletteCache</text>
</g>
<!-- Node7 -->
<g id="Node000007" class="node">
<title>Node7</title>
<g id="a_Node000007"><a xlink:href="interface_balloon_party_1_1_editor_1_1_effect_preview_1_1_i_effect_preview_module.html" target="_top" xlink:title="Pluggable preview module for EffectViewPreviewPlayer.">
<polygon fill="white" stroke="#666666" points="389.75,-30.5 241,-30.5 241,0 389.75,0 389.75,-30.5"/>
<text xml:space="preserve" text-anchor="start" x="249" y="-17" font-family="Helvetica,sans-Serif" font-size="10.00">BalloonParty.Editor.Effect</text>
<text xml:space="preserve" text-anchor="middle" x="315.38" y="-5.75" font-family="Helvetica,sans-Serif" font-size="10.00">Preview.IEffectPreviewModule</text>
</a>
</g>
</g>
<!-- Node7&#45;&gt;Node3 -->
<g id="edge7_Node000003_Node000007" class="edge">
<title>Node7&#45;&gt;Node3</title>
<g id="a_edge7_Node000003_Node000007"><a xlink:title=" ">
<path fill="none" stroke="#9a32cd" stroke-dasharray="5,2" d="M396.15,-33.72C419.45,-39.78 444.82,-47.03 467.75,-55 490.4,-62.87 515.12,-73.69 534.18,-82.53"/>
<polygon fill="#9a32cd" stroke="#9a32cd" points="397.27,-30.39 386.72,-31.31 395.54,-37.17 397.27,-30.39"/>
</a>
</g>
<text xml:space="preserve" text-anchor="start" x="419.38" y="-61" font-family="Helvetica,sans-Serif" font-size="10.00" fill="grey">_module</text>
</g>
</g>
</svg>

<g id="navigator" transform="translate(0 0)" fill="#404254">
  <rect fill="#f2f5e9" fill-opacity="0.5" stroke="#606060" stroke-width=".5" x="0" y="0" width="60" height="60"/>
  <use id="zoomplus" xlink:href="#zoomPlus" x="17" y="9" onmousedown="handleZoom(evt,'in')"/>
  <use id="zoomminus" xlink:href="#zoomMin" x="42" y="9" onmousedown="handleZoom(evt,'out')"/>
  <use id="reset" xlink:href="#resetDef" x="30" y="36" onmousedown="handleReset()"/>
   <use id="arrowup" xlink:href="#arrowUp" x="0" y="0" onmousedown="handlePan(0,-1)"/>
  <use id="arrowright" xlink:href="#arrowRight" x="0" y="0" onmousedown="handlePan(1,0)"/>
  <use id="arrowdown" xlink:href="#arrowDown" x="0" y="0" onmousedown="handlePan(0,1)"/>
  <use id="arrowleft" xlink:href="#arrowLeft" x="0" y="0" onmousedown="handlePan(-1,0)"/>
</g>
<svg viewBox="0 0 15 15" width="100%" height="30px" preserveAspectRatio="xMaxYMin meet">
 <g id="arrow_out" transform="scale(0.3 0.3)">
  <a xlink:href="class_balloon_party_1_1_editor_1_1_chain_lightning_view_editor__coll__graph_org.svg" target="_base">
   <rect id="button" ry="5" rx="5" y="6" x="6" height="38" width="38"
        fill="#f2f5e9" fill-opacity="0.5" stroke="#606060" stroke-width="1.0"/>
   <path id="arrow"
     d="M 11.500037,31.436501 C 11.940474,20.09759 22.043105,11.32322 32.158766,21.979434 L 37.068811,17.246167 C 37.068811,17.246167 37.088388,32 37.088388,32 L 22.160133,31.978069 C 22.160133,31.978069 26.997745,27.140456 26.997745,27.140456 C 18.528582,18.264221 13.291696,25.230495 11.500037,31.436501 z"
     style="fill:#404040;"/>
  </a>
 </g>
</svg>

<style type='text/css'>
<![CDATA[
[data-mouse-over-selected='false'] { opacity: 0.7; }
[data-mouse-over-selected='true']  { opacity: 1.0; }
]]>
</style>
<script type="application/ecmascript"><![CDATA[
document.addEventListener('DOMContentLoaded', (event) => {
  highlightEdges();
  highlightAdjacentNodes();
});
]]></script>
</svg>
