<?xml version="1.0" encoding="UTF-8" standalone="no"?>
<!DOCTYPE svg PUBLIC "-//W3C//DTD SVG 1.1//EN"
 "http://www.w3.org/Graphics/SVG/1.1/DTD/svg11.dtd">
<!-- Generated by graphviz version 15.0.0 (20260523.1842)
 -->
<!-- Title: BalloonParty.Item.ItemDisplayService Pages: 1 -->
<svg width="605pt" height="312pt"
 viewBox="0.00 0.00 605.00 312.00" xmlns="http://www.w3.org/2000/svg" xmlns:xlink="http://www.w3.org/1999/xlink">
<g id="graph0" class="graph" transform="scale(1 1) rotate(0) translate(4 308.32)">
<title>BalloonParty.Item.ItemDisplayService</title>
<!-- Node1 -->
<g id="Node000001" class="node">
<title>Node1</title>
<g id="a_Node000001"><a xlink:title=" ">
<polygon fill="#999999" stroke="#666666" points="596.5,-177.5 448.5,-177.5 448.5,-147 596.5,-147 596.5,-177.5"/>
<text xml:space="preserve" text-anchor="start" x="456.5" y="-164" font-family="Helvetica,sans-Serif" font-size="10.00">BalloonParty.Item.ItemDisplay</text>
<text xml:space="preserve" text-anchor="middle" x="522.5" y="-152.75" font-family="Helvetica,sans-Serif" font-size="10.00">Service</text>
</a>
</g>
</g>
<!-- Node2 -->
<g id="Node000002" class="node">
<title>Node2</title>
<g id="a_Node000002"><a xlink:title=" ">
<polygon fill="white" stroke="#666666" points="111.62,-301.88 28.12,-301.88 28.12,-282.62 111.62,-282.62 111.62,-301.88"/>
<text xml:space="preserve" text-anchor="middle" x="69.88" y="-288.38" font-family="Helvetica,sans-Serif" font-size="10.00">MonoBehaviour</text>
</a>
</g>
</g>
<!-- Node2&#45;&gt;Node1 -->
<g id="edge1_Node000001_Node000002" class="edge">
<title>Node2&#45;&gt;Node1</title>
<g id="a_edge1_Node000001_Node000002"><a xlink:title=" ">
<path fill="none" stroke="#63b8ff" d="M123.23,-299.44C196.53,-306.96 331.82,-311.35 430.5,-259.25 467.25,-239.84 497.31,-199.77 511.92,-177.69"/>
<polygon fill="#63b8ff" stroke="#63b8ff" points="123.84,-295.99 113.52,-298.38 123.08,-302.95 123.84,-295.99"/>
</a>
</g>
</g>
<!-- Node3 -->
<g id="Node000003" class="node">
<title>Node3</title>
<g id="a_Node000003"><a xlink:href="class_balloon_party_1_1_item_1_1_item_visual_view.html" target="_top" xlink:title=" ">
<polygon fill="white" stroke="#666666" points="340.5,-263.88 176.75,-263.88 176.75,-244.62 340.5,-244.62 340.5,-263.88"/>
<text xml:space="preserve" text-anchor="middle" x="258.62" y="-250.38" font-family="Helvetica,sans-Serif" font-size="10.00">BalloonParty.Item.ItemVisualView</text>
</a>
</g>
</g>
<!-- Node2&#45;&gt;Node3 -->
<g id="edge3_Node000003_Node000002" class="edge">
<title>Node2&#45;&gt;Node3</title>
<g id="a_edge3_Node000003_Node000002"><a xlink:title=" ">
<path fill="none" stroke="#63b8ff" d="M122.9,-281.66C149.55,-276.24 181.83,-269.67 208.11,-264.33"/>
<polygon fill="#63b8ff" stroke="#63b8ff" points="122.44,-278.19 113.34,-283.61 123.84,-285.04 122.44,-278.19"/>
</a>
</g>
</g>
<!-- Node3&#45;&gt;Node1 -->
<g id="edge2_Node000001_Node000003" class="edge">
<title>Node3&#45;&gt;Node1</title>
<g id="a_edge2_Node000001_Node000003"><a xlink:title=" ">
<path fill="none" stroke="#9a32cd" stroke-dasharray="5,2" d="M342.59,-242C371.06,-236.31 402.74,-228.29 430.5,-217.25 455.89,-207.16 482.34,-190.35 500.13,-177.97"/>
<polygon fill="#9a32cd" stroke="#9a32cd" points="342.08,-238.53 332.92,-243.86 343.4,-245.41 342.08,-238.53"/>
</a>
</g>
<text xml:space="preserve" text-anchor="start" x="367.88" y="-243.9" font-family="Helvetica,sans-Serif" font-size="10.00" fill="grey">_activeView</text>
</g>
<!-- Node4 -->
<g id="Node000004" class="node">
<title>Node4</title>
<g id="a_Node000004"><a xlink:href="interface_balloon_party_1_1_item_1_1_i_item_view.html" target="_top" xlink:title=" ">
<polygon fill="white" stroke="#666666" points="139.75,-257.88 0,-257.88 0,-238.62 139.75,-238.62 139.75,-257.88"/>
<text xml:space="preserve" text-anchor="middle" x="69.88" y="-244.38" font-family="Helvetica,sans-Serif" font-size="10.00">BalloonParty.Item.IItemView</text>
</a>
</g>
</g>
<!-- Node4&#45;&gt;Node3 -->
<g id="edge4_Node000003_Node000004" class="edge">
<title>Node4&#45;&gt;Node3</title>
<g id="a_edge4_Node000003_Node000004"><a xlink:title=" ">
<path fill="none" stroke="#63b8ff" d="M151.38,-250.84C159.7,-251.1 168.15,-251.38 176.48,-251.64"/>
<polygon fill="#63b8ff" stroke="#63b8ff" points="151.77,-247.35 141.66,-250.52 151.54,-254.34 151.77,-247.35"/>
</a>
</g>
</g>
<!-- Node5 -->
<g id="Node000005" class="node">
<title>Node5</title>
<g id="a_Node000005"><a xlink:href="interface_balloon_party_1_1_shared_1_1_pool_1_1_i_poolable.html" target="_top" xlink:title=" ">
<polygon fill="white" stroke="#666666" points="134.5,-220.5 5.25,-220.5 5.25,-190 134.5,-190 134.5,-220.5"/>
<text xml:space="preserve" text-anchor="start" x="13.25" y="-207" font-family="Helvetica,sans-Serif" font-size="10.00">BalloonParty.Shared.Pool.</text>
<text xml:space="preserve" text-anchor="middle" x="69.88" y="-195.75" font-family="Helvetica,sans-Serif" font-size="10.00">IPoolable</text>
</a>
</g>
</g>
<!-- Node5&#45;&gt;Node3 -->
<g id="edge5_Node000003_Node000005" class="edge">
<title>Node5&#45;&gt;Node3</title>
<g id="a_edge5_Node000003_Node000005"><a xlink:title=" ">
<path fill="none" stroke="#63b8ff" d="M135.36,-224.03C149,-227.86 163.32,-231.77 176.75,-235.25 188.48,-238.29 201.22,-241.38 213.04,-244.16"/>
<polygon fill="#63b8ff" stroke="#63b8ff" points="136.64,-220.75 126.06,-221.4 134.73,-227.49 136.64,-220.75"/>
</a>
</g>
</g>
<!-- Node6 -->
<g id="Node000006" class="node">
<title>Node6</title>
<g id="a_Node000006"><a xlink:href="interface_balloon_party_1_1_item_1_1_i_transform_capture.html" target="_top" xlink:title="Implement on components whose transform state must be captured.">
<polygon fill="white" stroke="#666666" points="330,-226.5 187.25,-226.5 187.25,-196 330,-196 330,-226.5"/>
<text xml:space="preserve" text-anchor="start" x="195.25" y="-213" font-family="Helvetica,sans-Serif" font-size="10.00">BalloonParty.Item.ITransform</text>
<text xml:space="preserve" text-anchor="middle" x="258.62" y="-201.75" font-family="Helvetica,sans-Serif" font-size="10.00">Capture</text>
</a>
</g>
</g>
<!-- Node6&#45;&gt;Node1 -->
<g id="edge6_Node000001_Node000006" class="edge">
<title>Node6&#45;&gt;Node1</title>
<g id="a_edge6_Node000001_Node000006"><a xlink:title=" ">
<path fill="none" stroke="#9a32cd" stroke-dasharray="5,2" d="M341.53,-198.93C369.79,-194.38 401.6,-188.95 430.5,-183.25 438.77,-181.62 447.44,-179.79 456,-177.9"/>
<polygon fill="#9a32cd" stroke="#9a32cd" points="341.29,-195.42 331.97,-200.45 342.4,-202.33 341.29,-195.42"/>
</a>
</g>
<text xml:space="preserve" text-anchor="start" x="361.5" y="-201.86" font-family="Helvetica,sans-Serif" font-size="10.00" fill="grey">_activeCapture</text>
</g>
<!-- Node7 -->
<g id="Node000007" class="node">
<title>Node7</title>
<g id="a_Node000007"><a xlink:href="interface_balloon_party_1_1_shared_1_1_i_game_configuration.html" target="_top" xlink:title=" ">
<polygon fill="white" stroke="#666666" points="326.62,-177.5 190.62,-177.5 190.62,-147 326.62,-147 326.62,-177.5"/>
<text xml:space="preserve" text-anchor="start" x="198.62" y="-164" font-family="Helvetica,sans-Serif" font-size="10.00">BalloonParty.Shared.IGame</text>
<text xml:space="preserve" text-anchor="middle" x="258.62" y="-152.75" font-family="Helvetica,sans-Serif" font-size="10.00">Configuration</text>
</a>
</g>
</g>
<!-- Node7&#45;&gt;Node1 -->
<g id="edge7_Node000001_Node000007" class="edge">
<title>Node7&#45;&gt;Node1</title>
<g id="a_edge7_Node000001_Node000007"><a xlink:title=" ">
<path fill="none" stroke="#9a32cd" stroke-dasharray="5,2" d="M338.18,-162.25C373.12,-162.25 414.02,-162.25 448.31,-162.25"/>
<polygon fill="#9a32cd" stroke="#9a32cd" points="338.58,-158.75 328.58,-162.25 338.58,-165.75 338.58,-158.75"/>
</a>
</g>
<text xml:space="preserve" text-anchor="start" x="378.75" y="-168.25" font-family="Helvetica,sans-Serif" font-size="10.00" fill="grey">_config</text>
</g>
<!-- Node8 -->
<g id="Node000008" class="node">
<title>Node8</title>
<g id="a_Node000008"><a xlink:href="interface_balloon_party_1_1_configuration_1_1_i_game_palette.html" target="_top" xlink:title=" ">
<polygon fill="white" stroke="#666666" points="325.5,-128.5 191.75,-128.5 191.75,-98 325.5,-98 325.5,-128.5"/>
<text xml:space="preserve" text-anchor="start" x="199.75" y="-115" font-family="Helvetica,sans-Serif" font-size="10.00">BalloonParty.Configuration.</text>
<text xml:space="preserve" text-anchor="middle" x="258.62" y="-103.75" font-family="Helvetica,sans-Serif" font-size="10.00">IGamePalette</text>
</a>
</g>
</g>
<!-- Node8&#45;&gt;Node1 -->
<g id="edge8_Node000001_Node000008" class="edge">
<title>Node8&#45;&gt;Node1</title>
<g id="a_edge8_Node000001_Node000008"><a xlink:title=" ">
<path fill="none" stroke="#9a32cd" stroke-dasharray="5,2" d="M336.97,-124.66C366.34,-129.3 400.04,-134.98 430.5,-141 438.94,-142.67 447.78,-144.56 456.5,-146.5"/>
<polygon fill="#9a32cd" stroke="#9a32cd" points="337.86,-121.26 327.44,-123.17 336.78,-128.18 337.86,-121.26"/>
</a>
</g>
<text xml:space="preserve" text-anchor="start" x="377.25" y="-147" font-family="Helvetica,sans-Serif" font-size="10.00" fill="grey">_palette</text>
</g>
<!-- Node9 -->
<g id="Node000009" class="node">
<title>Node9</title>
<g id="a_Node000009"><a xlink:href="interface_balloon_party_1_1_configuration_1_1_i_item_configuration.html" target="_top" xlink:title=" ">
<polygon fill="white" stroke="#666666" points="325.5,-79.5 191.75,-79.5 191.75,-49 325.5,-49 325.5,-79.5"/>
<text xml:space="preserve" text-anchor="start" x="199.75" y="-66" font-family="Helvetica,sans-Serif" font-size="10.00">BalloonParty.Configuration.</text>
<text xml:space="preserve" text-anchor="middle" x="258.62" y="-54.75" font-family="Helvetica,sans-Serif" font-size="10.00">IItemConfiguration</text>
</a>
</g>
</g>
<!-- Node9&#45;&gt;Node1 -->
<g id="edge9_Node000001_Node000009" class="edge">
<title>Node9&#45;&gt;Node1</title>
<g id="a_edge9_Node000001_Node000009"><a xlink:title=" ">
<path fill="none" stroke="#9a32cd" stroke-dasharray="5,2" d="M336.85,-78.4C366.75,-85.2 400.85,-94.62 430.5,-107 455.74,-117.54 482.21,-134.36 500.06,-146.67"/>
<polygon fill="#9a32cd" stroke="#9a32cd" points="337.61,-74.98 327.09,-76.25 336.1,-81.82 337.61,-74.98"/>
</a>
</g>
<text xml:space="preserve" text-anchor="start" x="368.25" y="-113" font-family="Helvetica,sans-Serif" font-size="10.00" fill="grey">_itemConfig</text>
</g>
<!-- Node10 -->
<g id="Node000010" class="node">
<title>Node10</title>
<g id="a_Node000010"><a xlink:href="class_balloon_party_1_1_shared_1_1_pool_1_1_pool_manager.html" target="_top" xlink:title=" ">
<polygon fill="white" stroke="#666666" points="323.25,-30.5 194,-30.5 194,0 323.25,0 323.25,-30.5"/>
<text xml:space="preserve" text-anchor="start" x="202" y="-17" font-family="Helvetica,sans-Serif" font-size="10.00">BalloonParty.Shared.Pool.</text>
<text xml:space="preserve" text-anchor="middle" x="258.62" y="-5.75" font-family="Helvetica,sans-Serif" font-size="10.00">PoolManager</text>
</a>
</g>
</g>
<!-- Node10&#45;&gt;Node1 -->
<g id="edge10_Node000001_Node000010" class="edge">
<title>Node10&#45;&gt;Node1</title>
<g id="a_edge10_Node000001_Node000010"><a xlink:title=" ">
<path fill="none" stroke="#9a32cd" stroke-dasharray="5,2" d="M334.39,-26.74C365.71,-33.87 401.5,-45.2 430.5,-63 466.16,-84.89 496.44,-124.69 511.43,-146.66"/>
<polygon fill="#9a32cd" stroke="#9a32cd" points="335.51,-23.4 324.99,-24.71 334.03,-30.24 335.51,-23.4"/>
</a>
</g>
<text xml:space="preserve" text-anchor="start" x="364.12" y="-69" font-family="Helvetica,sans-Serif" font-size="10.00" fill="grey">_poolManager</text>
</g>
</g>
</svg>
