<?xml version="1.0" encoding="UTF-8" standalone="no"?>
<!DOCTYPE svg PUBLIC "-//W3C//DTD SVG 1.1//EN"
 "http://www.w3.org/Graphics/SVG/1.1/DTD/svg11.dtd">
<!-- Generated by graphviz version 15.0.0 (20260523.1842)
 -->
<!-- Title: BalloonParty.UI.Score.ProgressNotice Pages: 1 -->
<svg width="633pt" height="121pt"
 viewBox="0.00 0.00 633.00 121.00" xmlns="http://www.w3.org/2000/svg" xmlns:xlink="http://www.w3.org/1999/xlink">
<g id="graph0" class="graph" transform="scale(1 1) rotate(0) translate(4 116.88)">
<title>BalloonParty.UI.Score.ProgressNotice</title>
<!-- Node1 -->
<g id="Node000001" class="node">
<title>Node1</title>
<g id="a_Node000001"><a xlink:title=" ">
<polygon fill="#999999" stroke="#666666" points="625,-79.5 471,-79.5 471,-49 625,-49 625,-79.5"/>
<text xml:space="preserve" text-anchor="start" x="479" y="-66" font-family="Helvetica,sans-Serif" font-size="10.00">BalloonParty.UI.Score.Progress</text>
<text xml:space="preserve" text-anchor="middle" x="548" y="-54.75" font-family="Helvetica,sans-Serif" font-size="10.00">Notice</text>
</a>
</g>
</g>
<!-- Node2 -->
<g id="Node000002" class="node">
<title>Node2</title>
<g id="a_Node000002"><a xlink:title=" ">
<polygon fill="white" stroke="#666666" points="118.75,-112.88 35.25,-112.88 35.25,-93.62 118.75,-93.62 118.75,-112.88"/>
<text xml:space="preserve" text-anchor="middle" x="77" y="-99.38" font-family="Helvetica,sans-Serif" font-size="10.00">MonoBehaviour</text>
</a>
</g>
</g>
<!-- Node2&#45;&gt;Node1 -->
<g id="edge1_Node000001_Node000002" class="edge">
<title>Node2&#45;&gt;Node1</title>
<g id="a_edge1_Node000001_Node000002"><a xlink:title=" ">
<path fill="none" stroke="#63b8ff" d="M130.1,-103.57C202.76,-103.37 338.49,-100.67 453,-85.25 462.94,-83.91 473.39,-82.05 483.56,-79.97"/>
<polygon fill="#63b8ff" stroke="#63b8ff" points="130.5,-100.07 120.51,-103.58 130.51,-107.07 130.5,-100.07"/>
</a>
</g>
</g>
<!-- Node4 -->
<g id="Node000004" class="node">
<title>Node4</title>
<g id="a_Node000004"><a xlink:href="class_balloon_party_1_1_shared_1_1_rendering_1_1_colorable_renderer.html" target="_top" xlink:title="Non&#45;generic MonoBehaviour base that implements IColorableRenderer.">
<polygon fill="white" stroke="#666666" points="345,-79.5 191,-79.5 191,-49 345,-49 345,-79.5"/>
<text xml:space="preserve" text-anchor="start" x="199" y="-66" font-family="Helvetica,sans-Serif" font-size="10.00">BalloonParty.Shared.Rendering.</text>
<text xml:space="preserve" text-anchor="middle" x="268" y="-54.75" font-family="Helvetica,sans-Serif" font-size="10.00">ColorableRenderer</text>
</a>
</g>
</g>
<!-- Node2&#45;&gt;Node4 -->
<g id="edge4_Node000004_Node000002" class="edge">
<title>Node2&#45;&gt;Node4</title>
<g id="a_edge4_Node000004_Node000002"><a xlink:title=" ">
<path fill="none" stroke="#63b8ff" d="M130.04,-92.51C148.87,-88.63 170.55,-84.15 191.02,-79.93"/>
<polygon fill="#63b8ff" stroke="#63b8ff" points="129.58,-89.03 120.49,-94.48 130.99,-95.89 129.58,-89.03"/>
</a>
</g>
</g>
<!-- Node3 -->
<g id="Node000003" class="node">
<title>Node3</title>
<g id="a_Node000003"><a xlink:href="interface_balloon_party_1_1_shared_1_1_pool_1_1_i_poolable.html" target="_top" xlink:title=" ">
<polygon fill="white" stroke="#666666" points="332.62,-30.5 203.38,-30.5 203.38,0 332.62,0 332.62,-30.5"/>
<text xml:space="preserve" text-anchor="start" x="211.38" y="-17" font-family="Helvetica,sans-Serif" font-size="10.00">BalloonParty.Shared.Pool.</text>
<text xml:space="preserve" text-anchor="middle" x="268" y="-5.75" font-family="Helvetica,sans-Serif" font-size="10.00">IPoolable</text>
</a>
</g>
</g>
<!-- Node3&#45;&gt;Node1 -->
<g id="edge2_Node000001_Node000003" class="edge">
<title>Node3&#45;&gt;Node1</title>
<g id="a_edge2_Node000001_Node000003"><a xlink:title=" ">
<path fill="none" stroke="#63b8ff" d="M343.87,-28.45C383.15,-35.37 431.18,-43.84 470.67,-50.8"/>
<polygon fill="#63b8ff" stroke="#63b8ff" points="344.73,-25.04 334.27,-26.75 343.51,-31.94 344.73,-25.04"/>
</a>
</g>
</g>
<!-- Node4&#45;&gt;Node1 -->
<g id="edge3_Node000001_Node000004" class="edge">
<title>Node4&#45;&gt;Node1</title>
<g id="a_edge3_Node000001_Node000004"><a xlink:title=" ">
<path fill="none" stroke="#9a32cd" stroke-dasharray="5,2" d="M356.52,-64.25C393.21,-64.25 435.46,-64.25 470.84,-64.25"/>
<polygon fill="#9a32cd" stroke="#9a32cd" points="356.85,-60.75 346.85,-64.25 356.85,-67.75 356.85,-60.75"/>
</a>
</g>
<text xml:space="preserve" text-anchor="start" x="366" y="-70.25" font-family="Helvetica,sans-Serif" font-size="10.00" fill="grey">_colorableRenderer</text>
</g>
<!-- Node5 -->
<g id="Node000005" class="node">
<title>Node5</title>
<g id="a_Node000005"><a xlink:href="interface_balloon_party_1_1_shared_1_1_rendering_1_1_i_colorable_renderer.html" target="_top" xlink:title=" ">
<polygon fill="white" stroke="#666666" points="154,-72.5 0,-72.5 0,-42 154,-42 154,-72.5"/>
<text xml:space="preserve" text-anchor="start" x="8" y="-59" font-family="Helvetica,sans-Serif" font-size="10.00">BalloonParty.Shared.Rendering.</text>
<text xml:space="preserve" text-anchor="middle" x="77" y="-47.75" font-family="Helvetica,sans-Serif" font-size="10.00">IColorableRenderer</text>
</a>
</g>
</g>
<!-- Node5&#45;&gt;Node4 -->
<g id="edge5_Node000004_Node000005" class="edge">
<title>Node5&#45;&gt;Node4</title>
<g id="a_edge5_Node000004_Node000005"><a xlink:title=" ">
<path fill="none" stroke="#63b8ff" d="M165.66,-60.5C174.02,-60.81 182.45,-61.12 190.69,-61.42"/>
<polygon fill="#63b8ff" stroke="#63b8ff" points="165.96,-57.01 155.84,-60.13 165.7,-64 165.96,-57.01"/>
</a>
</g>
</g>
</g>
</svg>
