<?xml version="1.0" encoding="UTF-8" standalone="no"?>
<!DOCTYPE svg PUBLIC "-//W3C//DTD SVG 1.1//EN"
 "http://www.w3.org/Graphics/SVG/1.1/DTD/svg11.dtd">
<!-- Generated by graphviz version 15.0.0 (20260523.1842)
 -->
<!-- Title: BalloonParty.UI.Score.ColorProgressBar Pages: 1 -->
<svg width="240pt" height="105pt"
 viewBox="0.00 0.00 240.00 105.00" xmlns="http://www.w3.org/2000/svg" xmlns:xlink="http://www.w3.org/1999/xlink">
<g id="graph0" class="graph" transform="scale(1 1) rotate(0) translate(4 101)">
<title>BalloonParty.UI.Score.ColorProgressBar</title>
<!-- Node1 -->
<g id="Node000001" class="node">
<title>Node1</title>
<g id="a_Node000001"><a xlink:title=" ">
<polygon fill="#999999" stroke="#666666" points="172.88,-30.5 34.62,-30.5 34.62,0 172.88,0 172.88,-30.5"/>
<text xml:space="preserve" text-anchor="start" x="42.62" y="-17" font-family="Helvetica,sans-Serif" font-size="10.00">BalloonParty.UI.Score.Color</text>
<text xml:space="preserve" text-anchor="middle" x="103.75" y="-5.75" font-family="Helvetica,sans-Serif" font-size="10.00">ProgressBar</text>
</a>
</g>
</g>
<!-- Node2 -->
<g id="Node000002" class="node">
<title>Node2</title>
<g id="a_Node000002"><a xlink:title=" ">
<polygon fill="white" stroke="#666666" points="83.5,-91.38 0,-91.38 0,-72.12 83.5,-72.12 83.5,-91.38"/>
<text xml:space="preserve" text-anchor="middle" x="41.75" y="-77.88" font-family="Helvetica,sans-Serif" font-size="10.00">MonoBehaviour</text>
</a>
</g>
</g>
<!-- Node2&#45;&gt;Node1 -->
<g id="edge1_Node000001_Node000002" class="edge">
<title>Node2&#45;&gt;Node1</title>
<g id="a_edge1_Node000001_Node000002"><a xlink:title=" ">
<path fill="none" stroke="#63b8ff" d="M58.27,-63.56C68.17,-53.27 80.6,-40.34 89.96,-30.59"/>
<polygon fill="#63b8ff" stroke="#63b8ff" points="55.83,-61.06 51.42,-70.69 60.87,-65.91 55.83,-61.06"/>
</a>
</g>
</g>
<!-- Node3 -->
<g id="Node000003" class="node">
<title>Node3</title>
<g id="a_Node000003"><a xlink:href="interface_balloon_party_1_1_game_1_1_score_1_1_i_trail_target.html" target="_top" xlink:title=" ">
<polygon fill="white" stroke="#666666" points="232.12,-97 101.38,-97 101.38,-66.5 232.12,-66.5 232.12,-97"/>
<text xml:space="preserve" text-anchor="start" x="109.38" y="-83.5" font-family="Helvetica,sans-Serif" font-size="10.00">BalloonParty.Game.Score.</text>
<text xml:space="preserve" text-anchor="middle" x="166.75" y="-72.25" font-family="Helvetica,sans-Serif" font-size="10.00">ITrailTarget</text>
</a>
</g>
</g>
<!-- Node3&#45;&gt;Node1 -->
<g id="edge2_Node000001_Node000003" class="edge">
<title>Node3&#45;&gt;Node1</title>
<g id="a_edge2_Node000001_Node000003"><a xlink:title=" ">
<path fill="none" stroke="#63b8ff" d="M144.44,-57.91C135.64,-48.9 125.79,-38.82 117.99,-30.83"/>
<polygon fill="#63b8ff" stroke="#63b8ff" points="141.91,-60.32 151.4,-65.03 146.91,-55.43 141.91,-60.32"/>
</a>
</g>
</g>
</g>
</svg>
