<?xml version="1.0" encoding="UTF-8" standalone="no"?>
<!DOCTYPE svg PUBLIC "-//W3C//DTD SVG 1.1//EN"
 "http://www.w3.org/Graphics/SVG/1.1/DTD/svg11.dtd">
<!-- Generated by graphviz version 15.0.0 (20260523.1842)
 -->
<!-- Title: BalloonParty.Item.Paint.PaintSplashView Pages: 1 -->
<!--zoomable 444 -->

<svg id="main" version="1.1" xmlns="http://www.w3.org/2000/svg" xmlns:xlink="http://www.w3.org/1999/xlink" xml:space="preserve" onload="init(evt)">

<style type="text/css"><![CDATA[
.node, .edge {opacity: 0.7;}
.node.selected, .edge.selected {opacity: 1;}
.edge:hover path { stroke: red; }
.edge:hover polygon { stroke: red; fill: red; }
]]></style>

<defs>
  <circle id="rim" cx="0" cy="0" r="7"/>
  <circle id="rim2" cx="0" cy="0" r="3.5"/>
  <g id="zoomPlus">
    <use xlink:href="#rim" fill="#404040"><set attributeName="fill" to="#808080" begin="zoomplus.mouseover" end="zoomplus.mouseout"/></use>
    <path d="M-4,0h8M0,-4v8" fill="none" stroke="white" stroke-width="1.5" pointer-events="none"/>
  </g>
  <g id="zoomMin">
    <use xlink:href="#rim" fill="#404040"><set attributeName="fill" to="#808080" begin="zoomminus.mouseover" end="zoomminus.mouseout"/></use>
    <path d="M-4,0h8" fill="none" stroke="white" stroke-width="1.5" pointer-events="none"/>
  </g>
  <g id="arrowUp" transform="translate(30 24)">
    <use xlink:href="#rim"/>
    <path pointer-events="none" fill="none" stroke="white" stroke-width="1.5" d="M0,-3.0v7 M-2.5,-0.5L0,-3.0L2.5,-0.5"/>
  </g>
  <g id="arrowRight" transform="rotate(90) translate(36 -43)">
    <use xlink:href="#rim"/>
    <path pointer-events="none" fill="none" stroke="white" stroke-width="1.5" d="M0,-3.0v7 M-2.5,-0.5L0,-3.0L2.5,-0.5"/>
  </g>
  <g id="arrowDown" transform="rotate(180) translate(-30 -48)">
    <use xlink:href="#rim"/>
    <path pointer-events="none" fill="none" stroke="white" stroke-width="1.5" d="M0,-3.0v7 M-2.5,-0.5L0,-3.0L2.5,-0.5"/>
  </g>
  <g id="arrowLeft" transform="rotate(270) translate(-36 17)">
    <use xlink:href="#rim"/>
    <path pointer-events="none" fill="none" stroke="white" stroke-width="1.5" d="M0,-3.0v7 M-2.5,-0.5L0,-3.0L2.5,-0.5"/>
  </g>
  <g id="resetDef">
    <use xlink:href="#rim2" fill="#404040"><set attributeName="fill" to="#808080" begin="reset.mouseover" end="reset.mouseout"/></use>
  </g>
</defs>
<script type="application/ecmascript">
var viewWidth = 933;
var viewHeight = 444;
var sectionId = 'dynsection-1';
</script>
<script type="application/ecmascript" xlink:href="svg.min.js"/>
<svg id="graph" class="graph">
<g id="viewport">
<title>BalloonParty.Item.Paint.PaintSplashView</title>
<!-- Node1 -->
<g id="Node000001" class="node">
<title>Node1</title>
<g id="a_Node000001"><a xlink:title="Poolable paint&#45;splash effect.">
<polygon fill="#999999" stroke="#666666" points="925,-130.5 804,-130.5 804,-100 925,-100 925,-130.5"/>
<text xml:space="preserve" text-anchor="start" x="812" y="-117" font-family="Helvetica,sans-Serif" font-size="10.00">BalloonParty.Item.Paint.</text>
<text xml:space="preserve" text-anchor="middle" x="864.5" y="-105.75" font-family="Helvetica,sans-Serif" font-size="10.00">PaintSplashView</text>
</a>
</g>
</g>
<!-- Node2 -->
<g id="Node000002" class="node">
<title>Node2</title>
<g id="a_Node000002"><a xlink:href="class_balloon_party_1_1_shared_1_1_pool_1_1_effect_view.html" target="_top" xlink:title="Abstract base for poolable effect MonoBehaviours.">
<polygon fill="white" stroke="#666666" points="411.12,-185.5 281.88,-185.5 281.88,-155 411.12,-155 411.12,-185.5"/>
<text xml:space="preserve" text-anchor="start" x="289.88" y="-172" font-family="Helvetica,sans-Serif" font-size="10.00">BalloonParty.Shared.Pool.</text>
<text xml:space="preserve" text-anchor="middle" x="346.5" y="-160.75" font-family="Helvetica,sans-Serif" font-size="10.00">EffectView</text>
</a>
</g>
</g>
<!-- Node2&#45;&gt;Node1 -->
<g id="edge1_Node000001_Node000002" class="edge">
<title>Node2&#45;&gt;Node1</title>
<g id="a_edge1_Node000001_Node000002"><a xlink:title=" ">
<path fill="none" stroke="#63b8ff" d="M423.02,-165.16C510.58,-158.8 659.13,-146.61 786,-129.25 791.69,-128.47 797.6,-127.57 803.5,-126.61"/>
<polygon fill="#63b8ff" stroke="#63b8ff" points="422.84,-161.66 413.11,-165.87 423.34,-168.65 422.84,-161.66"/>
</a>
</g>
</g>
<!-- Node10 -->
<g id="Node000010" class="node">
<title>Node10</title>
<g id="a_Node000010"><a xlink:href="class_balloon_party_1_1_configuration_1_1_item_settings.html" target="_top" xlink:title=" ">
<polygon fill="white" stroke="#666666" points="701.25,-288.5 567.5,-288.5 567.5,-258 701.25,-258 701.25,-288.5"/>
<text xml:space="preserve" text-anchor="start" x="575.5" y="-275" font-family="Helvetica,sans-Serif" font-size="10.00">BalloonParty.Configuration.</text>
<text xml:space="preserve" text-anchor="middle" x="634.38" y="-263.75" font-family="Helvetica,sans-Serif" font-size="10.00">ItemSettings</text>
</a>
</g>
</g>
<!-- Node2&#45;&gt;Node10 -->
<g id="edge12_Node000010_Node000002" class="edge">
<title>Node2&#45;&gt;Node10</title>
<g id="a_edge12_Node000010_Node000002"><a xlink:title=" ">
<path fill="none" stroke="#9a32cd" stroke-dasharray="5,2" d="M422.69,-179.19C461.7,-185.63 509.44,-196.39 549.5,-214 574.47,-224.98 599.55,-244 615.69,-257.52"/>
<polygon fill="#9a32cd" stroke="#9a32cd" points="423.33,-175.75 412.91,-177.64 422.24,-182.66 423.33,-175.75"/>
</a>
</g>
<text xml:space="preserve" text-anchor="start" x="444.5" y="-220" font-family="Helvetica,sans-Serif" font-size="10.00" fill="grey">_activationEffectPrefab</text>
</g>
<!-- Node3 -->
<g id="Node000003" class="node">
<title>Node3</title>
<g id="a_Node000003"><a xlink:title=" ">
<polygon fill="white" stroke="#666666" points="118.75,-142.88 35.25,-142.88 35.25,-123.62 118.75,-123.62 118.75,-142.88"/>
<text xml:space="preserve" text-anchor="middle" x="77" y="-129.38" font-family="Helvetica,sans-Serif" font-size="10.00">MonoBehaviour</text>
</a>
</g>
</g>
<!-- Node3&#45;&gt;Node2 -->
<g id="edge2_Node000002_Node000003" class="edge">
<title>Node3&#45;&gt;Node2</title>
<g id="a_edge2_Node000002_Node000003"><a xlink:title=" ">
<path fill="none" stroke="#63b8ff" d="M130.36,-140.49C173.66,-146.48 235.34,-155.01 281.56,-161.41"/>
<polygon fill="#63b8ff" stroke="#63b8ff" points="131.1,-137.06 120.71,-139.16 130.14,-143.99 131.1,-137.06"/>
</a>
</g>
</g>
<!-- Node7 -->
<g id="Node000007" class="node">
<title>Node7</title>
<g id="a_Node000007"><a xlink:href="class_balloon_party_1_1_shared_1_1_rendering_1_1_colorable_renderer.html" target="_top" xlink:title="Non&#45;generic MonoBehaviour base that implements IColorableRenderer.">
<polygon fill="white" stroke="#666666" points="423.5,-130.5 269.5,-130.5 269.5,-100 423.5,-100 423.5,-130.5"/>
<text xml:space="preserve" text-anchor="start" x="277.5" y="-117" font-family="Helvetica,sans-Serif" font-size="10.00">BalloonParty.Shared.Rendering.</text>
<text xml:space="preserve" text-anchor="middle" x="346.5" y="-105.75" font-family="Helvetica,sans-Serif" font-size="10.00">ColorableRenderer</text>
</a>
</g>
</g>
<!-- Node3&#45;&gt;Node7 -->
<g id="edge7_Node000007_Node000003" class="edge">
<title>Node3&#45;&gt;Node7</title>
<g id="a_edge7_Node000007_Node000003"><a xlink:title=" ">
<path fill="none" stroke="#63b8ff" d="M130.45,-129.72C170,-127.06 224.83,-123.37 269.23,-120.38"/>
<polygon fill="#63b8ff" stroke="#63b8ff" points="130.46,-126.21 120.72,-130.38 130.93,-133.2 130.46,-126.21"/>
</a>
</g>
</g>
<!-- Node4 -->
<g id="Node000004" class="node">
<title>Node4</title>
<g id="a_Node000004"><a xlink:href="interface_balloon_party_1_1_shared_1_1_pool_1_1_i_poolable.html" target="_top" xlink:title=" ">
<polygon fill="white" stroke="#666666" points="141.62,-228.5 12.38,-228.5 12.38,-198 141.62,-198 141.62,-228.5"/>
<text xml:space="preserve" text-anchor="start" x="20.38" y="-215" font-family="Helvetica,sans-Serif" font-size="10.00">BalloonParty.Shared.Pool.</text>
<text xml:space="preserve" text-anchor="middle" x="77" y="-203.75" font-family="Helvetica,sans-Serif" font-size="10.00">IPoolable</text>
</a>
</g>
</g>
<!-- Node4&#45;&gt;Node2 -->
<g id="edge3_Node000002_Node000004" class="edge">
<title>Node4&#45;&gt;Node2</title>
<g id="a_edge3_Node000002_Node000004"><a xlink:title=" ">
<path fill="none" stroke="#63b8ff" d="M153.22,-201.16C193.63,-194.66 242.93,-186.74 281.49,-180.54"/>
<polygon fill="#63b8ff" stroke="#63b8ff" points="152.89,-197.67 143.57,-202.71 154,-204.58 152.89,-197.67"/>
</a>
</g>
</g>
<!-- Node5 -->
<g id="Node000005" class="node">
<title>Node5</title>
<g id="a_Node000005"><a xlink:href="interface_balloon_party_1_1_shared_1_1_i_effect.html" target="_top" xlink:title="Abstracts any visual effect that can be triggered at a world position and optionally tinted.">
<polygon fill="white" stroke="#666666" points="145,-179.88 9,-179.88 9,-160.62 145,-160.62 145,-179.88"/>
<text xml:space="preserve" text-anchor="middle" x="77" y="-166.38" font-family="Helvetica,sans-Serif" font-size="10.00">BalloonParty.Shared.IEffect</text>
</a>
</g>
</g>
<!-- Node5&#45;&gt;Node2 -->
<g id="edge4_Node000002_Node000005" class="edge">
<title>Node5&#45;&gt;Node2</title>
<g id="a_edge4_Node000002_Node000005"><a xlink:title=" ">
<path fill="none" stroke="#63b8ff" d="M156.43,-170.25C196.24,-170.25 243.99,-170.25 281.54,-170.25"/>
<polygon fill="#63b8ff" stroke="#63b8ff" points="156.67,-166.75 146.67,-170.25 156.67,-173.75 156.67,-166.75"/>
</a>
</g>
</g>
<!-- Node6 -->
<g id="Node000006" class="node">
<title>Node6</title>
<g id="a_Node000006"><a xlink:href="interface_balloon_party_1_1_item_1_1_paint_1_1_i_splash_effect.html" target="_top" xlink:title="A pooled effect that can be prepared with paint&#45;blob flights before playing.">
<polygon fill="white" stroke="#666666" points="694.88,-79.5 573.88,-79.5 573.88,-49 694.88,-49 694.88,-79.5"/>
<text xml:space="preserve" text-anchor="start" x="581.88" y="-66" font-family="Helvetica,sans-Serif" font-size="10.00">BalloonParty.Item.Paint.</text>
<text xml:space="preserve" text-anchor="middle" x="634.38" y="-54.75" font-family="Helvetica,sans-Serif" font-size="10.00">ISplashEffect</text>
</a>
</g>
</g>
<!-- Node6&#45;&gt;Node1 -->
<g id="edge5_Node000001_Node000006" class="edge">
<title>Node6&#45;&gt;Node1</title>
<g id="a_edge5_Node000001_Node000006"><a xlink:title=" ">
<path fill="none" stroke="#63b8ff" d="M706.54,-80.16C737.68,-87.12 773.82,-95.2 803.57,-101.85"/>
<polygon fill="#63b8ff" stroke="#63b8ff" points="707.31,-76.75 696.79,-77.98 705.78,-83.58 707.31,-76.75"/>
</a>
</g>
</g>
<!-- Node7&#45;&gt;Node1 -->
<g id="edge6_Node000001_Node000007" class="edge">
<title>Node7&#45;&gt;Node1</title>
<g id="a_edge6_Node000001_Node000007"><a xlink:title=" ">
<path fill="none" stroke="#9a32cd" stroke-dasharray="5,2" d="M435.42,-115.25C540.35,-115.25 712.97,-115.25 803.63,-115.25"/>
<polygon fill="#9a32cd" stroke="#9a32cd" points="435.43,-111.75 425.43,-115.25 435.43,-118.75 435.43,-111.75"/>
</a>
</g>
<text xml:space="preserve" text-anchor="start" x="600.25" y="-121.25" font-family="Helvetica,sans-Serif" font-size="10.00" fill="grey">_blobRenderers</text>
</g>
<!-- Node8 -->
<g id="Node000008" class="node">
<title>Node8</title>
<g id="a_Node000008"><a xlink:href="interface_balloon_party_1_1_shared_1_1_rendering_1_1_i_colorable_renderer.html" target="_top" xlink:title=" ">
<polygon fill="white" stroke="#666666" points="154,-105.5 0,-105.5 0,-75 154,-75 154,-105.5"/>
<text xml:space="preserve" text-anchor="start" x="8" y="-92" font-family="Helvetica,sans-Serif" font-size="10.00">BalloonParty.Shared.Rendering.</text>
<text xml:space="preserve" text-anchor="middle" x="77" y="-80.75" font-family="Helvetica,sans-Serif" font-size="10.00">IColorableRenderer</text>
</a>
</g>
</g>
<!-- Node8&#45;&gt;Node7 -->
<g id="edge8_Node000007_Node000008" class="edge">
<title>Node8&#45;&gt;Node7</title>
<g id="a_edge8_Node000007_Node000008"><a xlink:title=" ">
<path fill="none" stroke="#63b8ff" d="M165.46,-98.42C198.91,-101.55 236.76,-105.09 269.1,-108.11"/>
<polygon fill="#63b8ff" stroke="#63b8ff" points="166.09,-94.97 155.8,-97.52 165.43,-101.94 166.09,-94.97"/>
</a>
</g>
</g>
<!-- Node9 -->
<g id="Node000009" class="node">
<title>Node9</title>
<g id="a_Node000009"><a xlink:href="class_balloon_party_1_1_shared_1_1_pool_1_1_pool_manager.html" target="_top" xlink:title=" ">
<polygon fill="white" stroke="#666666" points="699,-30.5 569.75,-30.5 569.75,0 699,0 699,-30.5"/>
<text xml:space="preserve" text-anchor="start" x="577.75" y="-17" font-family="Helvetica,sans-Serif" font-size="10.00">BalloonParty.Shared.Pool.</text>
<text xml:space="preserve" text-anchor="middle" x="634.38" y="-5.75" font-family="Helvetica,sans-Serif" font-size="10.00">PoolManager</text>
</a>
</g>
</g>
<!-- Node9&#45;&gt;Node1 -->
<g id="edge9_Node000001_Node000009" class="edge">
<title>Node9&#45;&gt;Node1</title>
<g id="a_edge9_Node000001_Node000009"><a xlink:title=" ">
<path fill="none" stroke="#9a32cd" stroke-dasharray="5,2" d="M710.09,-33.61C734.86,-40.95 762.18,-50.45 786,-62 807.3,-72.33 829.33,-88.04 844.44,-99.72"/>
<polygon fill="#9a32cd" stroke="#9a32cd" points="711.32,-30.32 700.74,-30.91 709.37,-37.05 711.32,-30.32"/>
</a>
</g>
<text xml:space="preserve" text-anchor="start" x="722.25" y="-68" font-family="Helvetica,sans-Serif" font-size="10.00" fill="grey">_poolManager</text>
</g>
<!-- Node10&#45;&gt;Node1 -->
<g id="edge10_Node000001_Node000010" class="edge">
<title>Node10&#45;&gt;Node1</title>
<g id="a_edge10_Node000001_Node000010"><a xlink:title=" ">
<path fill="none" stroke="#9a32cd" stroke-dasharray="5,2" d="M669.69,-251.66C700.51,-232.03 746.82,-201.99 786,-174.25 806.01,-160.08 828.22,-143.04 843.71,-130.92"/>
<polygon fill="#9a32cd" stroke="#9a32cd" points="668.1,-248.52 661.53,-256.84 671.85,-254.43 668.1,-248.52"/>
</a>
</g>
<text xml:space="preserve" text-anchor="start" x="732.75" y="-224.72" font-family="Helvetica,sans-Serif" font-size="10.00" fill="grey">_settings</text>
</g>
<!-- Node11 -->
<g id="Node000011" class="node">
<title>Node11</title>
<g id="a_Node000011"><a xlink:href="interface_balloon_party_1_1_configuration_1_1_i_weighted_entry.html" target="_top" xlink:title="Common contract for weighted prefab entries that support max&#45;count limits.">
<polygon fill="white" stroke="#666666" points="413.38,-386.5 279.62,-386.5 279.62,-356 413.38,-356 413.38,-386.5"/>
<text xml:space="preserve" text-anchor="start" x="287.62" y="-373" font-family="Helvetica,sans-Serif" font-size="10.00">BalloonParty.Configuration.</text>
<text xml:space="preserve" text-anchor="middle" x="346.5" y="-361.75" font-family="Helvetica,sans-Serif" font-size="10.00">IWeightedEntry</text>
</a>
</g>
</g>
<!-- Node11&#45;&gt;Node10 -->
<g id="edge11_Node000010_Node000011" class="edge">
<title>Node11&#45;&gt;Node10</title>
<g id="a_edge11_Node000010_Node000011"><a xlink:title=" ">
<path fill="none" stroke="#63b8ff" d="M424.86,-364.08C463.45,-358.58 510.16,-348.97 549.5,-332.25 574.73,-321.53 599.96,-302.35 616.06,-288.78"/>
<polygon fill="#63b8ff" stroke="#63b8ff" points="424.63,-360.57 415.19,-365.38 425.57,-367.51 424.63,-360.57"/>
</a>
</g>
</g>
<!-- Node12 -->
<g id="Node000012" class="node">
<title>Node12</title>
<g id="a_Node000012"><a xlink:href="class_balloon_party_1_1_configuration_1_1_bomb_settings.html" target="_top" xlink:title=" ">
<polygon fill="white" stroke="#666666" points="413.38,-337.5 279.62,-337.5 279.62,-307 413.38,-307 413.38,-337.5"/>
<text xml:space="preserve" text-anchor="start" x="287.62" y="-324" font-family="Helvetica,sans-Serif" font-size="10.00">BalloonParty.Configuration.</text>
<text xml:space="preserve" text-anchor="middle" x="346.5" y="-312.75" font-family="Helvetica,sans-Serif" font-size="10.00">BombSettings</text>
</a>
</g>
</g>
<!-- Node12&#45;&gt;Node10 -->
<g id="edge13_Node000010_Node000012" class="edge">
<title>Node12&#45;&gt;Node10</title>
<g id="a_edge13_Node000010_Node000012"><a xlink:title=" ">
<path fill="none" stroke="#9a32cd" stroke-dasharray="5,2" d="M425.17,-313.47C462.87,-308.7 508.71,-302.16 549.5,-294.25 557.46,-292.71 565.79,-290.88 573.99,-288.96"/>
<polygon fill="#9a32cd" stroke="#9a32cd" points="424.75,-309.99 415.26,-314.7 425.61,-316.94 424.75,-309.99"/>
</a>
</g>
<text xml:space="preserve" text-anchor="start" x="480.88" y="-316.87" font-family="Helvetica,sans-Serif" font-size="10.00" fill="grey">_bomb</text>
</g>
<!-- Node13 -->
<g id="Node000013" class="node">
<title>Node13</title>
<g id="a_Node000013"><a xlink:href="class_balloon_party_1_1_nudge_1_1_nudge_override.html" target="_top" xlink:title=" ">
<polygon fill="white" stroke="#666666" points="143.5,-337.5 10.5,-337.5 10.5,-307 143.5,-307 143.5,-337.5"/>
<text xml:space="preserve" text-anchor="start" x="18.5" y="-324" font-family="Helvetica,sans-Serif" font-size="10.00">BalloonParty.Nudge.Nudge</text>
<text xml:space="preserve" text-anchor="middle" x="77" y="-312.75" font-family="Helvetica,sans-Serif" font-size="10.00">Override</text>
</a>
</g>
</g>
<!-- Node13&#45;&gt;Node12 -->
<g id="edge14_Node000012_Node000013" class="edge">
<title>Node13&#45;&gt;Node12</title>
<g id="a_edge14_Node000012_Node000013"><a xlink:title=" ">
<path fill="none" stroke="#9a32cd" stroke-dasharray="5,2" d="M155.18,-322.25C194.53,-322.25 241.88,-322.25 279.51,-322.25"/>
<polygon fill="#9a32cd" stroke="#9a32cd" points="155.29,-318.75 145.29,-322.25 155.29,-325.75 155.29,-318.75"/>
</a>
</g>
<text xml:space="preserve" text-anchor="start" x="175" y="-328.25" font-family="Helvetica,sans-Serif" font-size="10.00" fill="grey">_nudgeOverrides</text>
</g>
<!-- Node14 -->
<g id="Node000014" class="node">
<title>Node14</title>
<g id="a_Node000014"><a xlink:href="class_balloon_party_1_1_configuration_1_1_laser_settings.html" target="_top" xlink:title=" ">
<polygon fill="white" stroke="#666666" points="413.38,-288.5 279.62,-288.5 279.62,-258 413.38,-258 413.38,-288.5"/>
<text xml:space="preserve" text-anchor="start" x="287.62" y="-275" font-family="Helvetica,sans-Serif" font-size="10.00">BalloonParty.Configuration.</text>
<text xml:space="preserve" text-anchor="middle" x="346.5" y="-263.75" font-family="Helvetica,sans-Serif" font-size="10.00">LaserSettings</text>
</a>
</g>
</g>
<!-- Node14&#45;&gt;Node10 -->
<g id="edge15_Node000010_Node000014" class="edge">
<title>Node14&#45;&gt;Node10</title>
<g id="a_edge15_Node000010_Node000014"><a xlink:title=" ">
<path fill="none" stroke="#9a32cd" stroke-dasharray="5,2" d="M425.17,-273.25C469.71,-273.25 525.02,-273.25 567.43,-273.25"/>
<polygon fill="#9a32cd" stroke="#9a32cd" points="425.32,-269.75 415.32,-273.25 425.32,-276.75 425.32,-269.75"/>
</a>
</g>
<text xml:space="preserve" text-anchor="start" x="482.38" y="-279.25" font-family="Helvetica,sans-Serif" font-size="10.00" fill="grey">_laser</text>
</g>
<!-- Node15 -->
<g id="Node000015" class="node">
<title>Node15</title>
<g id="a_Node000015"><a xlink:href="class_balloon_party_1_1_configuration_1_1_lightning_settings.html" target="_top" xlink:title=" ">
<polygon fill="white" stroke="#666666" points="413.38,-239.5 279.62,-239.5 279.62,-209 413.38,-209 413.38,-239.5"/>
<text xml:space="preserve" text-anchor="start" x="287.62" y="-226" font-family="Helvetica,sans-Serif" font-size="10.00">BalloonParty.Configuration.</text>
<text xml:space="preserve" text-anchor="middle" x="346.5" y="-214.75" font-family="Helvetica,sans-Serif" font-size="10.00">LightningSettings</text>
</a>
</g>
</g>
<!-- Node15&#45;&gt;Node10 -->
<g id="edge16_Node000010_Node000015" class="edge">
<title>Node15&#45;&gt;Node10</title>
<g id="a_edge16_Node000010_Node000015"><a xlink:title=" ">
<path fill="none" stroke="#9a32cd" stroke-dasharray="5,2" d="M425.19,-232.86C462.88,-237.57 508.72,-244.06 549.5,-252 557.76,-253.61 566.42,-255.53 574.9,-257.55"/>
<polygon fill="#9a32cd" stroke="#9a32cd" points="425.62,-229.39 415.27,-231.65 424.77,-236.34 425.62,-229.39"/>
</a>
</g>
<text xml:space="preserve" text-anchor="start" x="474.88" y="-258" font-family="Helvetica,sans-Serif" font-size="10.00" fill="grey">_lightning</text>
</g>
<!-- Node16 -->
<g id="Node000016" class="node">
<title>Node16</title>
<g id="a_Node000016"><a xlink:href="class_balloon_party_1_1_configuration_1_1_paint_settings.html" target="_top" xlink:title=" ">
<polygon fill="white" stroke="#666666" points="413.38,-435.5 279.62,-435.5 279.62,-405 413.38,-405 413.38,-435.5"/>
<text xml:space="preserve" text-anchor="start" x="287.62" y="-422" font-family="Helvetica,sans-Serif" font-size="10.00">BalloonParty.Configuration.</text>
<text xml:space="preserve" text-anchor="middle" x="346.5" y="-410.75" font-family="Helvetica,sans-Serif" font-size="10.00">PaintSettings</text>
</a>
</g>
</g>
<!-- Node16&#45;&gt;Node10 -->
<g id="edge17_Node000010_Node000016" class="edge">
<title>Node16&#45;&gt;Node10</title>
<g id="a_edge17_Node000010_Node000016"><a xlink:title=" ">
<path fill="none" stroke="#9a32cd" stroke-dasharray="5,2" d="M424.97,-407.58C464.3,-398.75 511.64,-384.29 549.5,-361.25 580.87,-342.16 608.34,-308.36 622.73,-288.68"/>
<polygon fill="#9a32cd" stroke="#9a32cd" points="424.36,-404.13 415.32,-409.66 425.83,-410.97 424.36,-404.13"/>
</a>
</g>
<text xml:space="preserve" text-anchor="start" x="482.38" y="-409.03" font-family="Helvetica,sans-Serif" font-size="10.00" fill="grey">_paint</text>
</g>
</g>
</svg>

<g id="navigator" transform="translate(0 0)" fill="#404254">
  <rect fill="#f2f5e9" fill-opacity="0.5" stroke="#606060" stroke-width=".5" x="0" y="0" width="60" height="60"/>
  <use id="zoomplus" xlink:href="#zoomPlus" x="17" y="9" onmousedown="handleZoom(evt,'in')"/>
  <use id="zoomminus" xlink:href="#zoomMin" x="42" y="9" onmousedown="handleZoom(evt,'out')"/>
  <use id="reset" xlink:href="#resetDef" x="30" y="36" onmousedown="handleReset()"/>
   <use id="arrowup" xlink:href="#arrowUp" x="0" y="0" onmousedown="handlePan(0,-1)"/>
  <use id="arrowright" xlink:href="#arrowRight" x="0" y="0" onmousedown="handlePan(1,0)"/>
  <use id="arrowdown" xlink:href="#arrowDown" x="0" y="0" onmousedown="handlePan(0,1)"/>
  <use id="arrowleft" xlink:href="#arrowLeft" x="0" y="0" onmousedown="handlePan(-1,0)"/>
</g>
<svg viewBox="0 0 15 15" width="100%" height="30px" preserveAspectRatio="xMaxYMin meet">
 <g id="arrow_out" transform="scale(0.3 0.3)">
  <a xlink:href="class_balloon_party_1_1_item_1_1_paint_1_1_paint_splash_view__coll__graph_org.svg" target="_base">
   <rect id="button" ry="5" rx="5" y="6" x="6" height="38" width="38"
        fill="#f2f5e9" fill-opacity="0.5" stroke="#606060" stroke-width="1.0"/>
   <path id="arrow"
     d="M 11.500037,31.436501 C 11.940474,20.09759 22.043105,11.32322 32.158766,21.979434 L 37.068811,17.246167 C 37.068811,17.246167 37.088388,32 37.088388,32 L 22.160133,31.978069 C 22.160133,31.978069 26.997745,27.140456 26.997745,27.140456 C 18.528582,18.264221 13.291696,25.230495 11.500037,31.436501 z"
     style="fill:#404040;"/>
  </a>
 </g>
</svg>

<style type='text/css'>
<![CDATA[
[data-mouse-over-selected='false'] { opacity: 0.7; }
[data-mouse-over-selected='true']  { opacity: 1.0; }
]]>
</style>
<script type="application/ecmascript"><![CDATA[
document.addEventListener('DOMContentLoaded', (event) => {
  highlightEdges();
  highlightAdjacentNodes();
});
]]></script>
</svg>
