<?xml version="1.0" encoding="UTF-8" standalone="no"?>
<!DOCTYPE svg PUBLIC "-//W3C//DTD SVG 1.1//EN"
 "http://www.w3.org/Graphics/SVG/1.1/DTD/svg11.dtd">
<!-- Generated by graphviz version 15.0.0 (20260523.1842)
 -->
<!-- Title: BalloonParty.Shared.Rendering.ColorableRenderer&lt; T &gt; Pages: 1 -->
<svg width="727pt" height="137pt"
 viewBox="0.00 0.00 727.00 137.00" xmlns="http://www.w3.org/2000/svg" xmlns:xlink="http://www.w3.org/1999/xlink">
<g id="graph0" class="graph" transform="scale(1 1) rotate(0) translate(4 132.5)">
<title>BalloonParty.Shared.Rendering.ColorableRenderer&lt; T &gt;</title>
<!-- Node1 -->
<g id="Node000001" class="node">
<title>Node1</title>
<g id="a_Node000001"><a xlink:title="Generic layer that fetches the required T &#160;component on Awake.">
<polygon fill="#999999" stroke="#666666" points="534,-79.5 380,-79.5 380,-49 534,-49 534,-79.5"/>
<text xml:space="preserve" text-anchor="start" x="388" y="-66" font-family="Helvetica,sans-Serif" font-size="10.00">BalloonParty.Shared.Rendering.</text>
<text xml:space="preserve" text-anchor="middle" x="457" y="-54.75" font-family="Helvetica,sans-Serif" font-size="10.00">ColorableRenderer&lt; T &gt;</text>
</a>
</g>
</g>
<!-- Node5 -->
<g id="Node000005" class="node">
<title>Node5</title>
<g id="a_Node000005"><a xlink:href="class_balloon_party_1_1_balloon_1_1_view_1_1_particle_colorable_renderer.html" target="_top" xlink:title=" ">
<polygon fill="white" stroke="#666666" points="710.12,-128.5 578.62,-128.5 578.62,-98 710.12,-98 710.12,-128.5"/>
<text xml:space="preserve" text-anchor="start" x="586.62" y="-115" font-family="Helvetica,sans-Serif" font-size="10.00">BalloonParty.Balloon.View.</text>
<text xml:space="preserve" text-anchor="middle" x="644.38" y="-103.75" font-family="Helvetica,sans-Serif" font-size="10.00">ParticleColorableRenderer</text>
</a>
</g>
</g>
<!-- Node1&#45;&gt;Node5 -->
<g id="edge4_Node000001_Node000005" class="edge">
<title>Node1&#45;&gt;Node5</title>
<g id="a_edge4_Node000001_Node000005"><a xlink:title=" ">
<path fill="none" stroke="#63b8ff" d="M528.35,-82.84C546.69,-87.69 566.27,-92.87 583.97,-97.55"/>
<polygon fill="#63b8ff" stroke="#63b8ff" points="529.44,-79.51 518.88,-80.34 527.66,-86.28 529.44,-79.51"/>
</a>
</g>
</g>
<!-- Node6 -->
<g id="Node000006" class="node">
<title>Node6</title>
<g id="a_Node000006"><a xlink:href="class_balloon_party_1_1_balloon_1_1_view_1_1_sprite_colorable_renderer.html" target="_top" xlink:title=" ">
<polygon fill="white" stroke="#666666" points="710.12,-79.5 578.62,-79.5 578.62,-49 710.12,-49 710.12,-79.5"/>
<text xml:space="preserve" text-anchor="start" x="586.62" y="-66" font-family="Helvetica,sans-Serif" font-size="10.00">BalloonParty.Balloon.View.</text>
<text xml:space="preserve" text-anchor="middle" x="644.38" y="-54.75" font-family="Helvetica,sans-Serif" font-size="10.00">SpriteColorableRenderer</text>
</a>
</g>
</g>
<!-- Node1&#45;&gt;Node6 -->
<g id="edge5_Node000001_Node000006" class="edge">
<title>Node1&#45;&gt;Node6</title>
<g id="a_edge5_Node000001_Node000006"><a xlink:title=" ">
<path fill="none" stroke="#63b8ff" d="M545.82,-64.25C556.76,-64.25 567.79,-64.25 578.31,-64.25"/>
<polygon fill="#63b8ff" stroke="#63b8ff" points="545.98,-60.75 535.98,-64.25 545.98,-67.75 545.98,-60.75"/>
</a>
</g>
</g>
<!-- Node7 -->
<g id="Node000007" class="node">
<title>Node7</title>
<g id="a_Node000007"><a xlink:href="class_balloon_party_1_1_u_i_1_1_score_1_1_graphic_colorable_renderer.html" target="_top" xlink:title=" ">
<polygon fill="white" stroke="#666666" points="718.75,-30.5 570,-30.5 570,0 718.75,0 718.75,-30.5"/>
<text xml:space="preserve" text-anchor="start" x="578" y="-17" font-family="Helvetica,sans-Serif" font-size="10.00">BalloonParty.UI.Score.Graphic</text>
<text xml:space="preserve" text-anchor="middle" x="644.38" y="-5.75" font-family="Helvetica,sans-Serif" font-size="10.00">ColorableRenderer</text>
</a>
</g>
</g>
<!-- Node1&#45;&gt;Node7 -->
<g id="edge6_Node000001_Node000007" class="edge">
<title>Node1&#45;&gt;Node7</title>
<g id="a_edge6_Node000001_Node000007"><a xlink:title=" ">
<path fill="none" stroke="#63b8ff" d="M528.35,-45.66C546.69,-40.81 566.27,-35.63 583.97,-30.95"/>
<polygon fill="#63b8ff" stroke="#63b8ff" points="527.66,-42.22 518.88,-48.16 529.44,-48.99 527.66,-42.22"/>
</a>
</g>
</g>
<!-- Node2 -->
<g id="Node000002" class="node">
<title>Node2</title>
<g id="a_Node000002"><a xlink:href="class_balloon_party_1_1_shared_1_1_rendering_1_1_colorable_renderer.html" target="_top" xlink:title="Non&#45;generic MonoBehaviour base that implements IColorableRenderer.">
<polygon fill="white" stroke="#666666" points="344,-79.5 190,-79.5 190,-49 344,-49 344,-79.5"/>
<text xml:space="preserve" text-anchor="start" x="198" y="-66" font-family="Helvetica,sans-Serif" font-size="10.00">BalloonParty.Shared.Rendering.</text>
<text xml:space="preserve" text-anchor="middle" x="267" y="-54.75" font-family="Helvetica,sans-Serif" font-size="10.00">ColorableRenderer</text>
</a>
</g>
</g>
<!-- Node2&#45;&gt;Node1 -->
<g id="edge1_Node000001_Node000002" class="edge">
<title>Node2&#45;&gt;Node1</title>
<g id="a_edge1_Node000001_Node000002"><a xlink:title=" ">
<path fill="none" stroke="#63b8ff" d="M355.97,-64.25C363.86,-64.25 371.82,-64.25 379.6,-64.25"/>
<polygon fill="#63b8ff" stroke="#63b8ff" points="355.98,-60.75 345.98,-64.25 355.98,-67.75 355.98,-60.75"/>
</a>
</g>
</g>
<!-- Node3 -->
<g id="Node000003" class="node">
<title>Node3</title>
<g id="a_Node000003"><a xlink:title=" ">
<polygon fill="white" stroke="#666666" points="118.75,-95.88 35.25,-95.88 35.25,-76.62 118.75,-76.62 118.75,-95.88"/>
<text xml:space="preserve" text-anchor="middle" x="77" y="-82.38" font-family="Helvetica,sans-Serif" font-size="10.00">MonoBehaviour</text>
</a>
</g>
</g>
<!-- Node3&#45;&gt;Node2 -->
<g id="edge2_Node000002_Node000003" class="edge">
<title>Node3&#45;&gt;Node2</title>
<g id="a_edge2_Node000002_Node000003"><a xlink:title=" ">
<path fill="none" stroke="#63b8ff" d="M130.17,-80.15C148.58,-77.99 169.68,-75.52 189.67,-73.18"/>
<polygon fill="#63b8ff" stroke="#63b8ff" points="129.82,-76.66 120.3,-81.3 130.64,-83.61 129.82,-76.66"/>
</a>
</g>
</g>
<!-- Node4 -->
<g id="Node000004" class="node">
<title>Node4</title>
<g id="a_Node000004"><a xlink:href="interface_balloon_party_1_1_shared_1_1_rendering_1_1_i_colorable_renderer.html" target="_top" xlink:title=" ">
<polygon fill="white" stroke="#666666" points="154,-58.5 0,-58.5 0,-28 154,-28 154,-58.5"/>
<text xml:space="preserve" text-anchor="start" x="8" y="-45" font-family="Helvetica,sans-Serif" font-size="10.00">BalloonParty.Shared.Rendering.</text>
<text xml:space="preserve" text-anchor="middle" x="77" y="-33.75" font-family="Helvetica,sans-Serif" font-size="10.00">IColorableRenderer</text>
</a>
</g>
</g>
<!-- Node4&#45;&gt;Node2 -->
<g id="edge3_Node000002_Node000004" class="edge">
<title>Node4&#45;&gt;Node2</title>
<g id="a_edge3_Node000002_Node000004"><a xlink:title=" ">
<path fill="none" stroke="#63b8ff" d="M165.69,-53.05C173.68,-53.94 181.73,-54.84 189.6,-55.72"/>
<polygon fill="#63b8ff" stroke="#63b8ff" points="166.3,-49.59 155.97,-51.96 165.52,-56.55 166.3,-49.59"/>
</a>
</g>
</g>
</g>
</svg>
