<?xml version="1.0" encoding="UTF-8" standalone="no"?>
<!DOCTYPE svg PUBLIC "-//W3C//DTD SVG 1.1//EN"
 "http://www.w3.org/Graphics/SVG/1.1/DTD/svg11.dtd">
<!-- Generated by graphviz version 15.0.0 (20260523.1842)
 -->
<!-- Title: BalloonParty.Shared.Rendering.CompositeColorableRenderer Pages: 1 -->
<svg width="264pt" height="190pt"
 viewBox="0.00 0.00 264.00 190.00" xmlns="http://www.w3.org/2000/svg" xmlns:xlink="http://www.w3.org/1999/xlink">
<g id="graph0" class="graph" transform="scale(1 1) rotate(0) translate(4 185.75)">
<title>BalloonParty.Shared.Rendering.CompositeColorableRenderer</title>
<!-- Node1 -->
<g id="Node000001" class="node">
<title>Node1</title>
<g id="a_Node000001"><a xlink:title=" ">
<polygon fill="#999999" stroke="#666666" points="186.75,-30.5 32.75,-30.5 32.75,0 186.75,0 186.75,-30.5"/>
<text xml:space="preserve" text-anchor="start" x="40.75" y="-17" font-family="Helvetica,sans-Serif" font-size="10.00">BalloonParty.Shared.Rendering.</text>
<text xml:space="preserve" text-anchor="middle" x="109.75" y="-5.75" font-family="Helvetica,sans-Serif" font-size="10.00">CompositeColorableRenderer</text>
</a>
</g>
</g>
<!-- Node2 -->
<g id="Node000002" class="node">
<title>Node2</title>
<g id="a_Node000002"><a xlink:href="class_balloon_party_1_1_shared_1_1_rendering_1_1_colorable_renderer.html" target="_top" xlink:title="Non&#45;generic MonoBehaviour base that implements IColorableRenderer.">
<polygon fill="white" stroke="#666666" points="186.75,-114.25 32.75,-114.25 32.75,-83.75 186.75,-83.75 186.75,-114.25"/>
<text xml:space="preserve" text-anchor="start" x="40.75" y="-100.75" font-family="Helvetica,sans-Serif" font-size="10.00">BalloonParty.Shared.Rendering.</text>
<text xml:space="preserve" text-anchor="middle" x="109.75" y="-89.5" font-family="Helvetica,sans-Serif" font-size="10.00">ColorableRenderer</text>
</a>
</g>
</g>
<!-- Node2&#45;&gt;Node1 -->
<g id="edge1_Node000001_Node000002" class="edge">
<title>Node2&#45;&gt;Node1</title>
<g id="a_edge1_Node000001_Node000002"><a xlink:title=" ">
<path fill="none" stroke="#63b8ff" d="M108.01,-72.2C107.9,-70.02 107.81,-67.85 107.75,-65.75 107.51,-58.09 107.51,-56.16 107.75,-48.5 107.93,-42.67 108.29,-36.25 108.66,-30.69"/>
<polygon fill="#63b8ff" stroke="#63b8ff" points="104.51,-72.27 108.58,-82.05 111.49,-71.86 104.51,-72.27"/>
</a>
</g>
</g>
<!-- Node2&#45;&gt;Node1 -->
<g id="edge4_Node000001_Node000002" class="edge">
<title>Node2&#45;&gt;Node1</title>
<g id="a_edge4_Node000001_Node000002"><a xlink:title=" ">
<path fill="none" stroke="#9a32cd" stroke-dasharray="5,2" d="M109.75,-72.22C109.75,-58.53 109.75,-42.21 109.75,-30.74"/>
<polygon fill="#9a32cd" stroke="#9a32cd" points="106.25,-71.87 109.75,-81.87 113.25,-71.87 106.25,-71.87"/>
</a>
</g>
<text xml:space="preserve" text-anchor="start" x="112.75" y="-54.5" font-family="Helvetica,sans-Serif" font-size="10.00" fill="grey">_renderers</text>
</g>
<!-- Node3 -->
<g id="Node000003" class="node">
<title>Node3</title>
<g id="a_Node000003"><a xlink:title=" ">
<polygon fill="white" stroke="#666666" points="83.5,-176.12 0,-176.12 0,-156.88 83.5,-156.88 83.5,-176.12"/>
<text xml:space="preserve" text-anchor="middle" x="41.75" y="-162.62" font-family="Helvetica,sans-Serif" font-size="10.00">MonoBehaviour</text>
</a>
</g>
</g>
<!-- Node3&#45;&gt;Node2 -->
<g id="edge2_Node000002_Node000003" class="edge">
<title>Node3&#45;&gt;Node2</title>
<g id="a_edge2_Node000002_Node000003"><a xlink:title=" ">
<path fill="none" stroke="#63b8ff" d="M59.22,-148.68C70.17,-138.13 84.15,-124.66 94.63,-114.57"/>
<polygon fill="#63b8ff" stroke="#63b8ff" points="57.07,-145.88 52.3,-155.34 61.93,-150.93 57.07,-145.88"/>
</a>
</g>
</g>
<!-- Node4 -->
<g id="Node000004" class="node">
<title>Node4</title>
<g id="a_Node000004"><a xlink:href="interface_balloon_party_1_1_shared_1_1_rendering_1_1_i_colorable_renderer.html" target="_top" xlink:title=" ">
<polygon fill="white" stroke="#666666" points="255.75,-181.75 101.75,-181.75 101.75,-151.25 255.75,-151.25 255.75,-181.75"/>
<text xml:space="preserve" text-anchor="start" x="109.75" y="-168.25" font-family="Helvetica,sans-Serif" font-size="10.00">BalloonParty.Shared.Rendering.</text>
<text xml:space="preserve" text-anchor="middle" x="178.75" y="-157" font-family="Helvetica,sans-Serif" font-size="10.00">IColorableRenderer</text>
</a>
</g>
</g>
<!-- Node4&#45;&gt;Node2 -->
<g id="edge3_Node000002_Node000004" class="edge">
<title>Node4&#45;&gt;Node2</title>
<g id="a_edge3_Node000002_Node000004"><a xlink:title=" ">
<path fill="none" stroke="#63b8ff" d="M155.13,-143.07C145.16,-133.62 133.86,-122.88 125.02,-114.5"/>
<polygon fill="#63b8ff" stroke="#63b8ff" points="152.68,-145.58 162.34,-149.92 157.5,-140.5 152.68,-145.58"/>
</a>
</g>
</g>
</g>
</svg>
