<?xml version="1.0" encoding="UTF-8" standalone="no"?>
<!DOCTYPE svg PUBLIC "-//W3C//DTD SVG 1.1//EN"
 "http://www.w3.org/Graphics/SVG/1.1/DTD/svg11.dtd">
<!-- Generated by graphviz version 15.0.0 (20260523.1842)
 -->
<!-- Title: BalloonParty.Balloon.Type.ColorableBalloonVariant Pages: 1 -->
<svg width="242pt" height="172pt"
 viewBox="0.00 0.00 242.00 172.00" xmlns="http://www.w3.org/2000/svg" xmlns:xlink="http://www.w3.org/1999/xlink">
<g id="graph0" class="graph" transform="scale(1 1) rotate(0) translate(4 167.5)">
<title>BalloonParty.Balloon.Type.ColorableBalloonVariant</title>
<!-- Node1 -->
<g id="Node000001" class="node">
<title>Node1</title>
<g id="a_Node000001"><a xlink:title=" ">
<polygon fill="#999999" stroke="#666666" points="170.88,-97 38.62,-97 38.62,-66.5 170.88,-66.5 170.88,-97"/>
<text xml:space="preserve" text-anchor="start" x="46.62" y="-83.5" font-family="Helvetica,sans-Serif" font-size="10.00">BalloonParty.Balloon.Type.</text>
<text xml:space="preserve" text-anchor="middle" x="104.75" y="-72.25" font-family="Helvetica,sans-Serif" font-size="10.00">ColorableBalloonVariant</text>
</a>
</g>
</g>
<!-- Node4 -->
<g id="Node000004" class="node">
<title>Node4</title>
<g id="a_Node000004"><a xlink:title=" ">
<polygon fill="white" stroke="#666666" points="170.88,-30.5 38.62,-30.5 38.62,0 170.88,0 170.88,-30.5"/>
<text xml:space="preserve" text-anchor="start" x="46.62" y="-17" font-family="Helvetica,sans-Serif" font-size="10.00">BalloonParty.Balloon.Type.</text>
<text xml:space="preserve" text-anchor="middle" x="104.75" y="-5.75" font-family="Helvetica,sans-Serif" font-size="10.00">SimpleBalloonVariant</text>
</a>
</g>
</g>
<!-- Node1&#45;&gt;Node4 -->
<g id="edge3_Node000001_Node000004" class="edge">
<title>Node1&#45;&gt;Node4</title>
<g id="a_edge3_Node000001_Node000004"><a xlink:title=" ">
<path fill="none" stroke="#63b8ff" d="M104.75,-54.81C104.75,-46.64 104.75,-37.91 104.75,-30.83"/>
<polygon fill="#63b8ff" stroke="#63b8ff" points="101.25,-54.6 104.75,-64.6 108.25,-54.6 101.25,-54.6"/>
</a>
</g>
</g>
<!-- Node2 -->
<g id="Node000002" class="node">
<title>Node2</title>
<g id="a_Node000002"><a xlink:title=" ">
<polygon fill="white" stroke="#666666" points="83.5,-157.88 0,-157.88 0,-138.62 83.5,-138.62 83.5,-157.88"/>
<text xml:space="preserve" text-anchor="middle" x="41.75" y="-144.38" font-family="Helvetica,sans-Serif" font-size="10.00">MonoBehaviour</text>
</a>
</g>
</g>
<!-- Node2&#45;&gt;Node1 -->
<g id="edge1_Node000001_Node000002" class="edge">
<title>Node2&#45;&gt;Node1</title>
<g id="a_edge1_Node000001_Node000002"><a xlink:title=" ">
<path fill="none" stroke="#63b8ff" d="M58.54,-130.06C68.59,-119.77 81.22,-106.84 90.74,-97.09"/>
<polygon fill="#63b8ff" stroke="#63b8ff" points="56.05,-127.6 51.57,-137.2 61.06,-132.49 56.05,-127.6"/>
</a>
</g>
</g>
<!-- Node3 -->
<g id="Node000003" class="node">
<title>Node3</title>
<g id="a_Node000003"><a xlink:href="interface_balloon_party_1_1_balloon_1_1_type_1_1_i_balloon_variant.html" target="_top" xlink:title=" ">
<polygon fill="white" stroke="#666666" points="233.88,-163.5 101.62,-163.5 101.62,-133 233.88,-133 233.88,-163.5"/>
<text xml:space="preserve" text-anchor="start" x="109.62" y="-150" font-family="Helvetica,sans-Serif" font-size="10.00">BalloonParty.Balloon.Type.</text>
<text xml:space="preserve" text-anchor="middle" x="167.75" y="-138.75" font-family="Helvetica,sans-Serif" font-size="10.00">IBalloonVariant</text>
</a>
</g>
</g>
<!-- Node3&#45;&gt;Node1 -->
<g id="edge2_Node000001_Node000003" class="edge">
<title>Node3&#45;&gt;Node1</title>
<g id="a_edge2_Node000001_Node000003"><a xlink:title=" ">
<path fill="none" stroke="#63b8ff" d="M145.44,-124.41C136.64,-115.4 126.79,-105.32 118.99,-97.33"/>
<polygon fill="#63b8ff" stroke="#63b8ff" points="142.91,-126.82 152.4,-131.53 147.91,-121.93 142.91,-126.82"/>
</a>
</g>
</g>
</g>
</svg>
