<?xml version="1.0" encoding="UTF-8" standalone="no"?>
<!DOCTYPE svg PUBLIC "-//W3C//DTD SVG 1.1//EN"
 "http://www.w3.org/Graphics/SVG/1.1/DTD/svg11.dtd">
<!-- Generated by graphviz version 15.0.0 (20260523.1842)
 -->
<!-- Title: BalloonParty.Shared.Pool.PoolChannel&lt; TItem &gt; Pages: 1 -->
<!--zoomable 333 -->

<svg id="main" version="1.1" xmlns="http://www.w3.org/2000/svg" xmlns:xlink="http://www.w3.org/1999/xlink" xml:space="preserve" onload="init(evt)">

<style type="text/css"><![CDATA[
.node, .edge {opacity: 0.7;}
.node.selected, .edge.selected {opacity: 1;}
.edge:hover path { stroke: red; }
.edge:hover polygon { stroke: red; fill: red; }
]]></style>

<defs>
  <circle id="rim" cx="0" cy="0" r="7"/>
  <circle id="rim2" cx="0" cy="0" r="3.5"/>
  <g id="zoomPlus">
    <use xlink:href="#rim" fill="#404040"><set attributeName="fill" to="#808080" begin="zoomplus.mouseover" end="zoomplus.mouseout"/></use>
    <path d="M-4,0h8M0,-4v8" fill="none" stroke="white" stroke-width="1.5" pointer-events="none"/>
  </g>
  <g id="zoomMin">
    <use xlink:href="#rim" fill="#404040"><set attributeName="fill" to="#808080" begin="zoomminus.mouseover" end="zoomminus.mouseout"/></use>
    <path d="M-4,0h8" fill="none" stroke="white" stroke-width="1.5" pointer-events="none"/>
  </g>
  <g id="arrowUp" transform="translate(30 24)">
    <use xlink:href="#rim"/>
    <path pointer-events="none" fill="none" stroke="white" stroke-width="1.5" d="M0,-3.0v7 M-2.5,-0.5L0,-3.0L2.5,-0.5"/>
  </g>
  <g id="arrowRight" transform="rotate(90) translate(36 -43)">
    <use xlink:href="#rim"/>
    <path pointer-events="none" fill="none" stroke="white" stroke-width="1.5" d="M0,-3.0v7 M-2.5,-0.5L0,-3.0L2.5,-0.5"/>
  </g>
  <g id="arrowDown" transform="rotate(180) translate(-30 -48)">
    <use xlink:href="#rim"/>
    <path pointer-events="none" fill="none" stroke="white" stroke-width="1.5" d="M0,-3.0v7 M-2.5,-0.5L0,-3.0L2.5,-0.5"/>
  </g>
  <g id="arrowLeft" transform="rotate(270) translate(-36 17)">
    <use xlink:href="#rim"/>
    <path pointer-events="none" fill="none" stroke="white" stroke-width="1.5" d="M0,-3.0v7 M-2.5,-0.5L0,-3.0L2.5,-0.5"/>
  </g>
  <g id="resetDef">
    <use xlink:href="#rim2" fill="#404040"><set attributeName="fill" to="#808080" begin="reset.mouseover" end="reset.mouseout"/></use>
  </g>
</defs>
<script type="application/ecmascript">
var viewWidth = 689;
var viewHeight = 333;
var sectionId = 'dynsection-0';
</script>
<script type="application/ecmascript" xlink:href="svg.min.js"/>
<svg id="graph" class="graph">
<g id="viewport">
<title>BalloonParty.Shared.Pool.PoolChannel&lt; TItem &gt;</title>
<!-- Node1 -->
<g id="Node000001" class="node">
<title>Node1</title>
<g id="a_Node000001"><a xlink:title=" ">
<polygon fill="#999999" stroke="#666666" points="294.5,-177.5 165.25,-177.5 165.25,-147 294.5,-147 294.5,-177.5"/>
<text xml:space="preserve" text-anchor="start" x="173.25" y="-164" font-family="Helvetica,sans-Serif" font-size="10.00">BalloonParty.Shared.Pool.</text>
<text xml:space="preserve" text-anchor="middle" x="229.88" y="-152.75" font-family="Helvetica,sans-Serif" font-size="10.00">PoolChannel&lt; TItem &gt;</text>
</a>
</g>
</g>
<!-- Node3 -->
<g id="Node000003" class="node">
<title>Node3</title>
<g id="a_Node000003"><a xlink:href="class_balloon_party_1_1_item_1_1_item_visual_pool_channel.html" target="_top" xlink:title=" ">
<polygon fill="white" stroke="#666666" points="478.5,-324.5 336.5,-324.5 336.5,-294 478.5,-294 478.5,-324.5"/>
<text xml:space="preserve" text-anchor="start" x="344.5" y="-311" font-family="Helvetica,sans-Serif" font-size="10.00">BalloonParty.Item.ItemVisual</text>
<text xml:space="preserve" text-anchor="middle" x="407.5" y="-299.75" font-family="Helvetica,sans-Serif" font-size="10.00">PoolChannel</text>
</a>
</g>
</g>
<!-- Node1&#45;&gt;Node3 -->
<g id="edge2_Node000001_Node000003" class="edge">
<title>Node1&#45;&gt;Node3</title>
<g id="a_edge2_Node000001_Node000003"><a xlink:title=" ">
<path fill="none" stroke="#63b8ff" d="M245.34,-187.45C262.37,-214.98 293.13,-258.58 330.5,-284.25 335.65,-287.79 341.34,-290.86 347.22,-293.51"/>
<polygon fill="#63b8ff" stroke="#63b8ff" points="248.44,-185.81 240.28,-179.05 242.44,-189.42 248.44,-185.81"/>
</a>
</g>
</g>
<!-- Node4 -->
<g id="Node000004" class="node">
<title>Node4</title>
<g id="a_Node000004"><a xlink:href="class_balloon_party_1_1_shared_1_1_pool_1_1_effect_pool_channel.html" target="_top" xlink:title="Creates EffectView instances from a prefab that already has a concrete EffectView subclass attached (...">
<polygon fill="white" stroke="#666666" points="472.12,-275.5 342.88,-275.5 342.88,-245 472.12,-245 472.12,-275.5"/>
<text xml:space="preserve" text-anchor="start" x="350.88" y="-262" font-family="Helvetica,sans-Serif" font-size="10.00">BalloonParty.Shared.Pool.</text>
<text xml:space="preserve" text-anchor="middle" x="407.5" y="-250.75" font-family="Helvetica,sans-Serif" font-size="10.00">EffectPoolChannel</text>
</a>
</g>
</g>
<!-- Node1&#45;&gt;Node4 -->
<g id="edge3_Node000001_Node000004" class="edge">
<title>Node1&#45;&gt;Node4</title>
<g id="a_edge3_Node000001_Node000004"><a xlink:title=" ">
<path fill="none" stroke="#63b8ff" d="M257.23,-185.15C276.48,-200.95 303.79,-221.51 330.5,-235.25 337.17,-238.68 344.41,-241.78 351.68,-244.53"/>
<polygon fill="#63b8ff" stroke="#63b8ff" points="259.54,-182.52 249.62,-178.79 255.05,-187.89 259.54,-182.52"/>
</a>
</g>
</g>
<!-- Node5 -->
<g id="Node000005" class="node">
<title>Node5</title>
<g id="a_Node000005"><a xlink:href="class_balloon_party_1_1_shared_1_1_pool_1_1_injecting_pool_channel-1-g.html" target="_top" xlink:title="Pool channel that instantiates prefabs and injects [Inject] fields from a parent IObjectResolver — wi...">
<polygon fill="white" stroke="#666666" points="483.38,-226.5 331.62,-226.5 331.62,-196 483.38,-196 483.38,-226.5"/>
<text xml:space="preserve" text-anchor="start" x="339.62" y="-213" font-family="Helvetica,sans-Serif" font-size="10.00">BalloonParty.Shared.Pool.</text>
<text xml:space="preserve" text-anchor="middle" x="407.5" y="-201.75" font-family="Helvetica,sans-Serif" font-size="10.00">InjectingPoolChannel&lt; TItem &gt;</text>
</a>
</g>
</g>
<!-- Node1&#45;&gt;Node5 -->
<g id="edge4_Node000001_Node000005" class="edge">
<title>Node1&#45;&gt;Node5</title>
<g id="a_edge4_Node000001_Node000005"><a xlink:title=" ">
<path fill="none" stroke="#63b8ff" d="M297.53,-180.85C314.85,-185.68 333.34,-190.84 350.08,-195.51"/>
<polygon fill="#63b8ff" stroke="#63b8ff" points="298.96,-177.61 288.38,-178.3 297.08,-184.35 298.96,-177.61"/>
</a>
</g>
</g>
<!-- Node10 -->
<g id="Node000010" class="node">
<title>Node10</title>
<g id="a_Node000010"><a xlink:href="class_balloon_party_1_1_shared_1_1_pool_1_1_particle_pool_channel.html" target="_top" xlink:title="Pool channel for effects driven exclusively by a ParticleSystem.">
<polygon fill="white" stroke="#666666" points="472.12,-177.5 342.88,-177.5 342.88,-147 472.12,-147 472.12,-177.5"/>
<text xml:space="preserve" text-anchor="start" x="350.88" y="-164" font-family="Helvetica,sans-Serif" font-size="10.00">BalloonParty.Shared.Pool.</text>
<text xml:space="preserve" text-anchor="middle" x="407.5" y="-152.75" font-family="Helvetica,sans-Serif" font-size="10.00">ParticlePoolChannel</text>
</a>
</g>
</g>
<!-- Node1&#45;&gt;Node10 -->
<g id="edge9_Node000001_Node000010" class="edge">
<title>Node1&#45;&gt;Node10</title>
<g id="a_edge9_Node000001_Node000010"><a xlink:title=" ">
<path fill="none" stroke="#63b8ff" d="M306.27,-162.25C318.39,-162.25 330.83,-162.25 342.65,-162.25"/>
<polygon fill="#63b8ff" stroke="#63b8ff" points="306.29,-158.75 296.29,-162.25 306.29,-165.75 306.29,-158.75"/>
</a>
</g>
</g>
<!-- Node11 -->
<g id="Node000011" class="node">
<title>Node11</title>
<g id="a_Node000011"><a xlink:href="class_balloon_party_1_1_u_i_1_1_score_1_1_progress_notice_pool_channel.html" target="_top" xlink:title=" ">
<polygon fill="white" stroke="#666666" points="484.5,-128.5 330.5,-128.5 330.5,-98 484.5,-98 484.5,-128.5"/>
<text xml:space="preserve" text-anchor="start" x="338.5" y="-115" font-family="Helvetica,sans-Serif" font-size="10.00">BalloonParty.UI.Score.Progress</text>
<text xml:space="preserve" text-anchor="middle" x="407.5" y="-103.75" font-family="Helvetica,sans-Serif" font-size="10.00">NoticePoolChannel</text>
</a>
</g>
</g>
<!-- Node1&#45;&gt;Node11 -->
<g id="edge10_Node000001_Node000011" class="edge">
<title>Node1&#45;&gt;Node11</title>
<g id="a_edge10_Node000001_Node000011"><a xlink:title=" ">
<path fill="none" stroke="#63b8ff" d="M297.53,-143.65C314.85,-138.82 333.34,-133.66 350.08,-128.99"/>
<polygon fill="#63b8ff" stroke="#63b8ff" points="297.08,-140.15 288.38,-146.2 298.96,-146.89 297.08,-140.15"/>
</a>
</g>
</g>
<!-- Node12 -->
<g id="Node000012" class="node">
<title>Node12</title>
<g id="a_Node000012"><a xlink:href="class_balloon_party_1_1_u_i_1_1_score_1_1_score_trail_pool_channel.html" target="_top" xlink:title=" ">
<polygon fill="white" stroke="#666666" points="477.75,-79.5 337.25,-79.5 337.25,-49 477.75,-49 477.75,-79.5"/>
<text xml:space="preserve" text-anchor="start" x="345.25" y="-66" font-family="Helvetica,sans-Serif" font-size="10.00">BalloonParty.UI.Score.Score</text>
<text xml:space="preserve" text-anchor="middle" x="407.5" y="-54.75" font-family="Helvetica,sans-Serif" font-size="10.00">TrailPoolChannel</text>
</a>
</g>
</g>
<!-- Node1&#45;&gt;Node12 -->
<g id="edge11_Node000001_Node000012" class="edge">
<title>Node1&#45;&gt;Node12</title>
<g id="a_edge11_Node000001_Node000012"><a xlink:title=" ">
<path fill="none" stroke="#63b8ff" d="M257.23,-139.35C276.48,-123.55 303.79,-102.99 330.5,-89.25 337.17,-85.82 344.41,-82.72 351.68,-79.97"/>
<polygon fill="#63b8ff" stroke="#63b8ff" points="255.05,-136.61 249.62,-145.71 259.54,-141.98 255.05,-136.61"/>
</a>
</g>
</g>
<!-- Node13 -->
<g id="Node000013" class="node">
<title>Node13</title>
<g id="a_Node000013"><a xlink:href="class_balloon_party_1_1_u_i_1_1_shields_1_1_shield_trail_pool_channel.html" target="_top" xlink:title=" ">
<polygon fill="white" stroke="#666666" points="468.38,-30.5 346.62,-30.5 346.62,0 468.38,0 468.38,-30.5"/>
<text xml:space="preserve" text-anchor="start" x="354.62" y="-17" font-family="Helvetica,sans-Serif" font-size="10.00">BalloonParty.UI.Shields.</text>
<text xml:space="preserve" text-anchor="middle" x="407.5" y="-5.75" font-family="Helvetica,sans-Serif" font-size="10.00">ShieldTrailPoolChannel</text>
</a>
</g>
</g>
<!-- Node1&#45;&gt;Node13 -->
<g id="edge12_Node000001_Node000013" class="edge">
<title>Node1&#45;&gt;Node13</title>
<g id="a_edge12_Node000001_Node000013"><a xlink:title=" ">
<path fill="none" stroke="#63b8ff" d="M245.34,-137.05C262.37,-109.52 293.13,-65.92 330.5,-40.25 335.65,-36.71 341.34,-33.64 347.22,-30.99"/>
<polygon fill="#63b8ff" stroke="#63b8ff" points="242.44,-135.08 240.28,-145.45 248.44,-138.69 242.44,-135.08"/>
</a>
</g>
</g>
<!-- Node2 -->
<g id="Node000002" class="node">
<title>Node2</title>
<g id="a_Node000002"><a xlink:href="interface_balloon_party_1_1_shared_1_1_pool_1_1_i_pool_channel.html" target="_top" xlink:title="Non&#45;generic marker so we can store any PoolChannel in a typed dictionary.">
<polygon fill="white" stroke="#666666" points="129.25,-177.5 0,-177.5 0,-147 129.25,-147 129.25,-177.5"/>
<text xml:space="preserve" text-anchor="start" x="8" y="-164" font-family="Helvetica,sans-Serif" font-size="10.00">BalloonParty.Shared.Pool.</text>
<text xml:space="preserve" text-anchor="middle" x="64.62" y="-152.75" font-family="Helvetica,sans-Serif" font-size="10.00">IPoolChannel</text>
</a>
</g>
</g>
<!-- Node2&#45;&gt;Node1 -->
<g id="edge1_Node000001_Node000002" class="edge">
<title>Node2&#45;&gt;Node1</title>
<g id="a_edge1_Node000001_Node000002"><a xlink:title=" ">
<path fill="none" stroke="#63b8ff" d="M140.96,-162.25C149,-162.25 157.12,-162.25 165.01,-162.25"/>
<polygon fill="#63b8ff" stroke="#63b8ff" points="141.19,-158.75 131.19,-162.25 141.19,-165.75 141.19,-158.75"/>
</a>
</g>
</g>
<!-- Node6 -->
<g id="Node000006" class="node">
<title>Node6</title>
<g id="a_Node000006"><a xlink:href="class_balloon_party_1_1_balloon_1_1_spawner_1_1_balloon_pool_channel.html" target="_top" xlink:title=" ">
<polygon fill="white" stroke="#666666" points="674.88,-299.5 526.12,-299.5 526.12,-269 674.88,-269 674.88,-299.5"/>
<text xml:space="preserve" text-anchor="start" x="534.12" y="-286" font-family="Helvetica,sans-Serif" font-size="10.00">BalloonParty.Balloon.Spawner.</text>
<text xml:space="preserve" text-anchor="middle" x="600.5" y="-274.75" font-family="Helvetica,sans-Serif" font-size="10.00">BalloonPoolChannel</text>
</a>
</g>
</g>
<!-- Node5&#45;&gt;Node6 -->
<g id="edge5_Node000005_Node000006" class="edge">
<title>Node5&#45;&gt;Node6</title>
<g id="a_edge5_Node000005_Node000006"><a xlink:title=" ">
<path fill="none" stroke="#63b8ff" d="M472.34,-230.93C476.5,-232.62 480.59,-234.39 484.5,-236.25 501.65,-244.39 503.3,-251.21 520.5,-259.25 527.8,-262.66 535.68,-265.78 543.55,-268.57"/>
<polygon fill="#63b8ff" stroke="#63b8ff" points="473.91,-227.79 463.32,-227.47 471.4,-234.32 473.91,-227.79"/>
</a>
</g>
</g>
<!-- Node7 -->
<g id="Node000007" class="node">
<title>Node7</title>
<g id="a_Node000007"><a xlink:href="class_balloon_party_1_1_projectile_1_1_projectile_pool_channel.html" target="_top" xlink:title=" ">
<polygon fill="white" stroke="#666666" points="658.75,-250.5 542.25,-250.5 542.25,-220 658.75,-220 658.75,-250.5"/>
<text xml:space="preserve" text-anchor="start" x="550.25" y="-237" font-family="Helvetica,sans-Serif" font-size="10.00">BalloonParty.Projectile.</text>
<text xml:space="preserve" text-anchor="middle" x="600.5" y="-225.75" font-family="Helvetica,sans-Serif" font-size="10.00">ProjectilePoolChannel</text>
</a>
</g>
</g>
<!-- Node5&#45;&gt;Node7 -->
<g id="edge6_Node000005_Node000007" class="edge">
<title>Node5&#45;&gt;Node7</title>
<g id="a_edge6_Node000005_Node000007"><a xlink:title=" ">
<path fill="none" stroke="#63b8ff" d="M494.68,-222.08C510.63,-224.08 526.93,-226.13 541.77,-228"/>
<polygon fill="#63b8ff" stroke="#63b8ff" points="495.57,-218.66 485.22,-220.89 494.7,-225.61 495.57,-218.66"/>
</a>
</g>
</g>
<!-- Node8 -->
<g id="Node000008" class="node">
<title>Node8</title>
<g id="a_Node000008"><a xlink:href="class_balloon_party_1_1_slots_1_1_actor_1_1_archetype_1_1_grid_actor_pool_channel.html" target="_top" xlink:title=" ">
<polygon fill="white" stroke="#666666" points="680.5,-201.5 520.5,-201.5 520.5,-171 680.5,-171 680.5,-201.5"/>
<text xml:space="preserve" text-anchor="start" x="528.5" y="-188" font-family="Helvetica,sans-Serif" font-size="10.00">BalloonParty.Slots.Actor.</text>
<text xml:space="preserve" text-anchor="middle" x="600.5" y="-176.75" font-family="Helvetica,sans-Serif" font-size="10.00">Archetype.GridActorPoolChannel</text>
</a>
</g>
</g>
<!-- Node5&#45;&gt;Node8 -->
<g id="edge7_Node000005_Node000008" class="edge">
<title>Node5&#45;&gt;Node8</title>
<g id="a_edge7_Node000005_Node000008"><a xlink:title=" ">
<path fill="none" stroke="#63b8ff" d="M495.08,-199.92C503.47,-198.82 511.95,-197.71 520.27,-196.62"/>
<polygon fill="#63b8ff" stroke="#63b8ff" points="494.68,-196.44 485.21,-201.21 495.58,-203.38 494.68,-196.44"/>
</a>
</g>
</g>
<!-- Node9 -->
<g id="Node000009" class="node">
<title>Node9</title>
<g id="a_Node000009"><a xlink:href="class_balloon_party_1_1_slots_1_1_actor_1_1_static_actor_pool_channel.html" target="_top" xlink:title=" ">
<polygon fill="white" stroke="#666666" points="662.5,-152.5 538.5,-152.5 538.5,-122 662.5,-122 662.5,-152.5"/>
<text xml:space="preserve" text-anchor="start" x="546.5" y="-139" font-family="Helvetica,sans-Serif" font-size="10.00">BalloonParty.Slots.Actor.</text>
<text xml:space="preserve" text-anchor="middle" x="600.5" y="-127.75" font-family="Helvetica,sans-Serif" font-size="10.00">StaticActorPoolChannel</text>
</a>
</g>
</g>
<!-- Node5&#45;&gt;Node9 -->
<g id="edge8_Node000005_Node000009" class="edge">
<title>Node5&#45;&gt;Node9</title>
<g id="a_edge8_Node000005_Node000009"><a xlink:title=" ">
<path fill="none" stroke="#63b8ff" d="M472.95,-191.42C476.91,-189.78 480.78,-188.06 484.5,-186.25 501.79,-177.84 503.16,-170.57 520.5,-162.25 527.63,-158.83 535.35,-155.72 543.07,-152.96"/>
<polygon fill="#63b8ff" stroke="#63b8ff" points="471.83,-188.1 463.78,-195 474.37,-194.62 471.83,-188.1"/>
</a>
</g>
</g>
</g>
</svg>

<g id="navigator" transform="translate(0 0)" fill="#404254">
  <rect fill="#f2f5e9" fill-opacity="0.5" stroke="#606060" stroke-width=".5" x="0" y="0" width="60" height="60"/>
  <use id="zoomplus" xlink:href="#zoomPlus" x="17" y="9" onmousedown="handleZoom(evt,'in')"/>
  <use id="zoomminus" xlink:href="#zoomMin" x="42" y="9" onmousedown="handleZoom(evt,'out')"/>
  <use id="reset" xlink:href="#resetDef" x="30" y="36" onmousedown="handleReset()"/>
   <use id="arrowup" xlink:href="#arrowUp" x="0" y="0" onmousedown="handlePan(0,-1)"/>
  <use id="arrowright" xlink:href="#arrowRight" x="0" y="0" onmousedown="handlePan(1,0)"/>
  <use id="arrowdown" xlink:href="#arrowDown" x="0" y="0" onmousedown="handlePan(0,1)"/>
  <use id="arrowleft" xlink:href="#arrowLeft" x="0" y="0" onmousedown="handlePan(-1,0)"/>
</g>
<svg viewBox="0 0 15 15" width="100%" height="30px" preserveAspectRatio="xMaxYMin meet">
 <g id="arrow_out" transform="scale(0.3 0.3)">
  <a xlink:href="class_balloon_party_1_1_shared_1_1_pool_1_1_pool_channel-1-g__inherit__graph_org.svg" target="_base">
   <rect id="button" ry="5" rx="5" y="6" x="6" height="38" width="38"
        fill="#f2f5e9" fill-opacity="0.5" stroke="#606060" stroke-width="1.0"/>
   <path id="arrow"
     d="M 11.500037,31.436501 C 11.940474,20.09759 22.043105,11.32322 32.158766,21.979434 L 37.068811,17.246167 C 37.068811,17.246167 37.088388,32 37.088388,32 L 22.160133,31.978069 C 22.160133,31.978069 26.997745,27.140456 26.997745,27.140456 C 18.528582,18.264221 13.291696,25.230495 11.500037,31.436501 z"
     style="fill:#404040;"/>
  </a>
 </g>
</svg>

<style type='text/css'>
<![CDATA[
[data-mouse-over-selected='false'] { opacity: 0.7; }
[data-mouse-over-selected='true']  { opacity: 1.0; }
]]>
</style>
<script type="application/ecmascript"><![CDATA[
document.addEventListener('DOMContentLoaded', (event) => {
  highlightEdges();
  highlightAdjacentNodes();
});
]]></script>
</svg>
