<?xml version="1.0" encoding="UTF-8" standalone="no"?>
<!DOCTYPE svg PUBLIC "-//W3C//DTD SVG 1.1//EN"
 "http://www.w3.org/Graphics/SVG/1.1/DTD/svg11.dtd">
<!-- Generated by graphviz version 15.0.0 (20260523.1842)
 -->
<!-- Title: BalloonParty.UI.Score.ColorProgressBar Pages: 1 -->
<svg width="1151pt" height="554pt"
 viewBox="0.00 0.00 1151.00 554.00" xmlns="http://www.w3.org/2000/svg" xmlns:xlink="http://www.w3.org/1999/xlink">
<g id="graph0" class="graph" transform="scale(1 1) rotate(0) translate(4 550.25)">
<title>BalloonParty.UI.Score.ColorProgressBar</title>
<!-- Node1 -->
<g id="Node000001" class="node">
<title>Node1</title>
<g id="a_Node000001"><a xlink:title=" ">
<polygon fill="#999999" stroke="#666666" points="1143,-275.5 1004.75,-275.5 1004.75,-245 1143,-245 1143,-275.5"/>
<text xml:space="preserve" text-anchor="start" x="1012.75" y="-262" font-family="Helvetica,sans-Serif" font-size="10.00">BalloonParty.UI.Score.Color</text>
<text xml:space="preserve" text-anchor="middle" x="1073.88" y="-250.75" font-family="Helvetica,sans-Serif" font-size="10.00">ProgressBar</text>
</a>
</g>
</g>
<!-- Node2 -->
<g id="Node000002" class="node">
<title>Node2</title>
<g id="a_Node000002"><a xlink:title=" ">
<polygon fill="white" stroke="#666666" points="118.75,-460.88 35.25,-460.88 35.25,-441.62 118.75,-441.62 118.75,-460.88"/>
<text xml:space="preserve" text-anchor="middle" x="77" y="-447.38" font-family="Helvetica,sans-Serif" font-size="10.00">MonoBehaviour</text>
</a>
</g>
</g>
<!-- Node2&#45;&gt;Node1 -->
<g id="edge1_Node000001_Node000002" class="edge">
<title>Node2&#45;&gt;Node1</title>
<g id="a_edge1_Node000001_Node000002"><a xlink:title=" ">
<path fill="none" stroke="#63b8ff" d="M97.04,-468.42C129.44,-495.79 198.48,-546.25 267,-546.25 267,-546.25 267,-546.25 805.75,-546.25 895.79,-546.25 924.69,-520.49 986.75,-455.25 1038.02,-401.35 1061.87,-311.88 1069.76,-275.92"/>
<polygon fill="#63b8ff" stroke="#63b8ff" points="99.54,-465.96 89.69,-462.05 94.96,-471.25 99.54,-465.96"/>
</a>
</g>
</g>
<!-- Node4 -->
<g id="Node000004" class="node">
<title>Node4</title>
<g id="a_Node000004"><a xlink:href="class_balloon_party_1_1_u_i_1_1_score_1_1_progress_notice.html" target="_top" xlink:title=" ">
<polygon fill="white" stroke="#666666" points="625,-452.5 471,-452.5 471,-422 625,-422 625,-452.5"/>
<text xml:space="preserve" text-anchor="start" x="479" y="-439" font-family="Helvetica,sans-Serif" font-size="10.00">BalloonParty.UI.Score.Progress</text>
<text xml:space="preserve" text-anchor="middle" x="548" y="-427.75" font-family="Helvetica,sans-Serif" font-size="10.00">Notice</text>
</a>
</g>
</g>
<!-- Node2&#45;&gt;Node4 -->
<g id="edge4_Node000004_Node000002" class="edge">
<title>Node2&#45;&gt;Node4</title>
<g id="a_edge4_Node000004_Node000002"><a xlink:title=" ">
<path fill="none" stroke="#63b8ff" d="M130.14,-450.12C202.59,-448.49 337.77,-445.24 453,-441.25 458.71,-441.05 464.62,-440.83 470.56,-440.6"/>
<polygon fill="#63b8ff" stroke="#63b8ff" points="130.5,-446.61 120.58,-450.33 130.66,-453.61 130.5,-446.61"/>
</a>
</g>
</g>
<!-- Node6 -->
<g id="Node000006" class="node">
<title>Node6</title>
<g id="a_Node000006"><a xlink:href="class_balloon_party_1_1_shared_1_1_rendering_1_1_colorable_renderer.html" target="_top" xlink:title="Non&#45;generic MonoBehaviour base that implements IColorableRenderer.">
<polygon fill="white" stroke="#666666" points="345,-427.5 191,-427.5 191,-397 345,-397 345,-427.5"/>
<text xml:space="preserve" text-anchor="start" x="199" y="-414" font-family="Helvetica,sans-Serif" font-size="10.00">BalloonParty.Shared.Rendering.</text>
<text xml:space="preserve" text-anchor="middle" x="268" y="-402.75" font-family="Helvetica,sans-Serif" font-size="10.00">ColorableRenderer</text>
</a>
</g>
</g>
<!-- Node2&#45;&gt;Node6 -->
<g id="edge7_Node000006_Node000002" class="edge">
<title>Node2&#45;&gt;Node6</title>
<g id="a_edge7_Node000006_Node000002"><a xlink:title=" ">
<path fill="none" stroke="#63b8ff" d="M130.04,-440.51C148.87,-436.63 170.55,-432.15 191.02,-427.93"/>
<polygon fill="#63b8ff" stroke="#63b8ff" points="129.58,-437.03 120.49,-442.48 130.99,-443.89 129.58,-437.03"/>
</a>
</g>
</g>
<!-- Node18 -->
<g id="Node000018" class="node">
<title>Node18</title>
<g id="a_Node000018"><a xlink:href="class_balloon_party_1_1_u_i_1_1_score_1_1_flying_trail.html" target="_top" xlink:title=" ">
<polygon fill="white" stroke="#666666" points="618.62,-177.5 477.38,-177.5 477.38,-147 618.62,-147 618.62,-177.5"/>
<text xml:space="preserve" text-anchor="start" x="485.38" y="-164" font-family="Helvetica,sans-Serif" font-size="10.00">BalloonParty.UI.Score.Flying</text>
<text xml:space="preserve" text-anchor="middle" x="548" y="-152.75" font-family="Helvetica,sans-Serif" font-size="10.00">Trail</text>
</a>
</g>
</g>
<!-- Node2&#45;&gt;Node18 -->
<g id="edge22_Node000018_Node000002" class="edge">
<title>Node2&#45;&gt;Node18</title>
<g id="a_edge22_Node000018_Node000002"><a xlink:title=" ">
<path fill="none" stroke="#63b8ff" d="M129.87,-444.81C139.01,-441.47 147.63,-436.53 154,-429.25 227.36,-345.36 108.55,-256.23 191,-181.25 273.54,-106.19 416.33,-127.41 493.62,-146.54"/>
<polygon fill="#63b8ff" stroke="#63b8ff" points="129.03,-441.41 120.44,-447.6 131.02,-448.12 129.03,-441.41"/>
</a>
</g>
</g>
<!-- Node3 -->
<g id="Node000003" class="node">
<title>Node3</title>
<g id="a_Node000003"><a xlink:href="interface_balloon_party_1_1_shared_1_1_pool_1_1_i_trail_endpoint.html" target="_top" xlink:title="A named anchor a trail flies to or from — a fixed point in the world or UI that a trail controller re...">
<polygon fill="white" stroke="#666666" points="869.38,-226.5 740.12,-226.5 740.12,-196 869.38,-196 869.38,-226.5"/>
<text xml:space="preserve" text-anchor="start" x="748.12" y="-213" font-family="Helvetica,sans-Serif" font-size="10.00">BalloonParty.Shared.Pool.</text>
<text xml:space="preserve" text-anchor="middle" x="804.75" y="-201.75" font-family="Helvetica,sans-Serif" font-size="10.00">ITrailEndpoint</text>
</a>
</g>
</g>
<!-- Node3&#45;&gt;Node1 -->
<g id="edge2_Node000001_Node000003" class="edge">
<title>Node3&#45;&gt;Node1</title>
<g id="a_edge2_Node000001_Node000003"><a xlink:title=" ">
<path fill="none" stroke="#63b8ff" d="M880.95,-225.04C919.67,-232.15 966.54,-240.74 1004.27,-247.67"/>
<polygon fill="#63b8ff" stroke="#63b8ff" points="881.69,-221.62 871.22,-223.26 880.43,-228.51 881.69,-221.62"/>
</a>
</g>
</g>
<!-- Node4&#45;&gt;Node1 -->
<g id="edge3_Node000001_Node000004" class="edge">
<title>Node4&#45;&gt;Node1</title>
<g id="a_edge3_Node000001_Node000004"><a xlink:title=" ">
<path fill="none" stroke="#9a32cd" stroke-dasharray="5,2" d="M602.63,-456.13C615.67,-459.91 629.7,-463.31 643,-465.25 754.73,-481.54 961.57,-447.99 986.75,-430.25 1040.71,-392.23 1062.87,-310.23 1070.03,-275.88"/>
<polygon fill="#9a32cd" stroke="#9a32cd" points="603.97,-452.88 593.38,-453.32 601.94,-459.58 603.97,-452.88"/>
</a>
</g>
<text xml:space="preserve" text-anchor="start" x="760.12" y="-490.7" font-family="Helvetica,sans-Serif" font-size="10.00" fill="grey">_pointNoticePrefab</text>
<text xml:space="preserve" text-anchor="start" x="760.12" y="-475.45" font-family="Helvetica,sans-Serif" font-size="10.00" fill="grey">_streakNoticePrefab</text>
</g>
<!-- Node20 -->
<g id="Node000020" class="node">
<title>Node20</title>
<g id="a_Node000020"><a xlink:href="class_balloon_party_1_1_u_i_1_1_score_1_1_progress_notice_presenter.html" target="_top" xlink:title="Owns a progress bar&#39;s floating notices, split out of ColorProgressBar to keep the view lean.">
<polygon fill="white" stroke="#666666" points="881.75,-430.5 727.75,-430.5 727.75,-400 881.75,-400 881.75,-430.5"/>
<text xml:space="preserve" text-anchor="start" x="735.75" y="-417" font-family="Helvetica,sans-Serif" font-size="10.00">BalloonParty.UI.Score.Progress</text>
<text xml:space="preserve" text-anchor="middle" x="804.75" y="-405.75" font-family="Helvetica,sans-Serif" font-size="10.00">NoticePresenter</text>
</a>
</g>
</g>
<!-- Node4&#45;&gt;Node20 -->
<g id="edge27_Node000020_Node000004" class="edge">
<title>Node4&#45;&gt;Node20</title>
<g id="a_edge27_Node000020_Node000004"><a xlink:title=" ">
<path fill="none" stroke="#9a32cd" stroke-dasharray="5,2" d="M636.58,-429.69C666.1,-427.14 698.79,-424.31 727.37,-421.85"/>
<polygon fill="#9a32cd" stroke="#9a32cd" points="636.6,-426.17 626.94,-430.52 637.21,-433.15 636.6,-426.17"/>
</a>
</g>
<text xml:space="preserve" text-anchor="start" x="646" y="-450.12" font-family="Helvetica,sans-Serif" font-size="10.00" fill="grey">_pointPrefab</text>
<text xml:space="preserve" text-anchor="start" x="646" y="-434.87" font-family="Helvetica,sans-Serif" font-size="10.00" fill="grey">_streakPrefab</text>
</g>
<!-- Node5 -->
<g id="Node000005" class="node">
<title>Node5</title>
<g id="a_Node000005"><a xlink:href="interface_balloon_party_1_1_shared_1_1_pool_1_1_i_poolable.html" target="_top" xlink:title=" ">
<polygon fill="white" stroke="#666666" points="332.62,-338.5 203.38,-338.5 203.38,-308 332.62,-308 332.62,-338.5"/>
<text xml:space="preserve" text-anchor="start" x="211.38" y="-325" font-family="Helvetica,sans-Serif" font-size="10.00">BalloonParty.Shared.Pool.</text>
<text xml:space="preserve" text-anchor="middle" x="268" y="-313.75" font-family="Helvetica,sans-Serif" font-size="10.00">IPoolable</text>
</a>
</g>
</g>
<!-- Node5&#45;&gt;Node4 -->
<g id="edge5_Node000004_Node000005" class="edge">
<title>Node5&#45;&gt;Node4</title>
<g id="a_edge5_Node000004_Node000005"><a xlink:title=" ">
<path fill="none" stroke="#63b8ff" d="M317.81,-343.27C372.31,-365.62 459.38,-401.32 509.03,-421.68"/>
<polygon fill="#63b8ff" stroke="#63b8ff" points="319.34,-340.11 308.76,-339.56 316.69,-346.59 319.34,-340.11"/>
</a>
</g>
</g>
<!-- Node5&#45;&gt;Node18 -->
<g id="edge23_Node000018_Node000005" class="edge">
<title>Node5&#45;&gt;Node18</title>
<g id="a_edge23_Node000018_Node000005"><a xlink:title=" ">
<path fill="none" stroke="#63b8ff" d="M313.41,-302.62C352.92,-282.85 410.8,-250.31 453,-211.25 463.05,-201.95 459.91,-194.28 471,-186.25 475.37,-183.09 480.18,-180.33 485.18,-177.93"/>
<polygon fill="#63b8ff" stroke="#63b8ff" points="312.07,-299.38 304.64,-306.94 315.16,-305.66 312.07,-299.38"/>
</a>
</g>
</g>
<!-- Node6&#45;&gt;Node4 -->
<g id="edge6_Node000004_Node000006" class="edge">
<title>Node6&#45;&gt;Node4</title>
<g id="a_edge6_Node000004_Node000006"><a xlink:title=" ">
<path fill="none" stroke="#9a32cd" stroke-dasharray="5,2" d="M356.69,-416.48C387.22,-418.32 421.66,-420.8 453,-424 458.74,-424.59 464.66,-425.26 470.62,-425.99"/>
<polygon fill="#9a32cd" stroke="#9a32cd" points="356.9,-412.99 346.71,-415.9 356.49,-419.98 356.9,-412.99"/>
</a>
</g>
<text xml:space="preserve" text-anchor="start" x="366" y="-430" font-family="Helvetica,sans-Serif" font-size="10.00" fill="grey">_colorableRenderer</text>
</g>
<!-- Node7 -->
<g id="Node000007" class="node">
<title>Node7</title>
<g id="a_Node000007"><a xlink:href="interface_balloon_party_1_1_shared_1_1_rendering_1_1_i_colorable_renderer.html" target="_top" xlink:title=" ">
<polygon fill="white" stroke="#666666" points="154,-420.5 0,-420.5 0,-390 154,-390 154,-420.5"/>
<text xml:space="preserve" text-anchor="start" x="8" y="-407" font-family="Helvetica,sans-Serif" font-size="10.00">BalloonParty.Shared.Rendering.</text>
<text xml:space="preserve" text-anchor="middle" x="77" y="-395.75" font-family="Helvetica,sans-Serif" font-size="10.00">IColorableRenderer</text>
</a>
</g>
</g>
<!-- Node7&#45;&gt;Node6 -->
<g id="edge8_Node000006_Node000007" class="edge">
<title>Node7&#45;&gt;Node6</title>
<g id="a_edge8_Node000006_Node000007"><a xlink:title=" ">
<path fill="none" stroke="#63b8ff" d="M165.66,-408.5C174.02,-408.81 182.45,-409.12 190.69,-409.42"/>
<polygon fill="#63b8ff" stroke="#63b8ff" points="165.96,-405.01 155.84,-408.13 165.7,-412 165.96,-405.01"/>
</a>
</g>
</g>
<!-- Node8 -->
<g id="Node000008" class="node">
<title>Node8</title>
<g id="a_Node000008"><a xlink:href="interface_balloon_party_1_1_configuration_1_1_i_game_palette.html" target="_top" xlink:title=" ">
<polygon fill="white" stroke="#666666" points="871.62,-177.5 737.88,-177.5 737.88,-147 871.62,-147 871.62,-177.5"/>
<text xml:space="preserve" text-anchor="start" x="745.88" y="-164" font-family="Helvetica,sans-Serif" font-size="10.00">BalloonParty.Configuration.</text>
<text xml:space="preserve" text-anchor="middle" x="804.75" y="-152.75" font-family="Helvetica,sans-Serif" font-size="10.00">IGamePalette</text>
</a>
</g>
</g>
<!-- Node8&#45;&gt;Node1 -->
<g id="edge9_Node000001_Node000008" class="edge">
<title>Node8&#45;&gt;Node1</title>
<g id="a_edge9_Node000001_Node000008"><a xlink:title=" ">
<path fill="none" stroke="#9a32cd" stroke-dasharray="5,2" d="M882.73,-175.75C915.54,-182.9 953.78,-193.13 986.75,-207 1010.41,-216.95 1035.09,-232.87 1051.94,-244.71"/>
<polygon fill="#9a32cd" stroke="#9a32cd" points="883.82,-172.4 873.31,-173.75 882.37,-179.25 883.82,-172.4"/>
</a>
</g>
<text xml:space="preserve" text-anchor="start" x="926" y="-213" font-family="Helvetica,sans-Serif" font-size="10.00" fill="grey">_palette</text>
</g>
<!-- Node9 -->
<g id="Node000009" class="node">
<title>Node9</title>
<g id="a_Node000009"><a xlink:href="interface_balloon_party_1_1_shared_1_1_i_game_configuration.html" target="_top" xlink:title=" ">
<polygon fill="white" stroke="#666666" points="616,-321.5 480,-321.5 480,-291 616,-291 616,-321.5"/>
<text xml:space="preserve" text-anchor="start" x="488" y="-308" font-family="Helvetica,sans-Serif" font-size="10.00">BalloonParty.Shared.IGame</text>
<text xml:space="preserve" text-anchor="middle" x="548" y="-296.75" font-family="Helvetica,sans-Serif" font-size="10.00">Configuration</text>
</a>
</g>
</g>
<!-- Node9&#45;&gt;Node1 -->
<g id="edge10_Node000001_Node000009" class="edge">
<title>Node9&#45;&gt;Node1</title>
<g id="a_edge10_Node000001_Node000009"><a xlink:title=" ">
<path fill="none" stroke="#9a32cd" stroke-dasharray="5,2" d="M627.63,-323.34C632.81,-324.1 637.97,-324.75 643,-325.25 672.52,-328.2 680.18,-327.58 709.75,-325.25 834.02,-315.44 864.54,-305.81 986.75,-281.25 994.6,-279.67 1002.81,-277.87 1010.91,-276"/>
<polygon fill="#9a32cd" stroke="#9a32cd" points="628.19,-319.89 617.77,-321.77 627.09,-326.8 628.19,-319.89"/>
</a>
</g>
<text xml:space="preserve" text-anchor="start" x="789" y="-329.61" font-family="Helvetica,sans-Serif" font-size="10.00" fill="grey">_config</text>
</g>
<!-- Node13 -->
<g id="Node000013" class="node">
<title>Node13</title>
<g id="a_Node000013"><a xlink:href="class_balloon_party_1_1_game_1_1_score_1_1_score_trail_service.html" target="_top" xlink:title=" ">
<polygon fill="white" stroke="#666666" points="870.12,-275.5 739.38,-275.5 739.38,-245 870.12,-245 870.12,-275.5"/>
<text xml:space="preserve" text-anchor="start" x="747.38" y="-262" font-family="Helvetica,sans-Serif" font-size="10.00">BalloonParty.Game.Score.</text>
<text xml:space="preserve" text-anchor="middle" x="804.75" y="-250.75" font-family="Helvetica,sans-Serif" font-size="10.00">ScoreTrailService</text>
</a>
</g>
</g>
<!-- Node9&#45;&gt;Node13 -->
<g id="edge17_Node000013_Node000009" class="edge">
<title>Node9&#45;&gt;Node13</title>
<g id="a_edge17_Node000013_Node000009"><a xlink:title=" ">
<path fill="none" stroke="#9a32cd" stroke-dasharray="5,2" d="M590.06,-286.02C606.17,-279.03 625.08,-271.96 643,-268 674.1,-261.13 709.38,-258.84 738.95,-258.42"/>
<polygon fill="#9a32cd" stroke="#9a32cd" points="588.98,-282.67 581.29,-289.96 591.84,-289.06 588.98,-282.67"/>
</a>
</g>
<text xml:space="preserve" text-anchor="start" x="660.62" y="-274" font-family="Helvetica,sans-Serif" font-size="10.00" fill="grey">_config</text>
</g>
<!-- Node10 -->
<g id="Node000010" class="node">
<title>Node10</title>
<g id="a_Node000010"><a xlink:href="class_balloon_party_1_1_shared_1_1_pool_1_1_pool_manager.html" target="_top" xlink:title=" ">
<polygon fill="white" stroke="#666666" points="612.62,-379.5 483.38,-379.5 483.38,-349 612.62,-349 612.62,-379.5"/>
<text xml:space="preserve" text-anchor="start" x="491.38" y="-366" font-family="Helvetica,sans-Serif" font-size="10.00">BalloonParty.Shared.Pool.</text>
<text xml:space="preserve" text-anchor="middle" x="548" y="-354.75" font-family="Helvetica,sans-Serif" font-size="10.00">PoolManager</text>
</a>
</g>
</g>
<!-- Node10&#45;&gt;Node1 -->
<g id="edge11_Node000001_Node000010" class="edge">
<title>Node10&#45;&gt;Node1</title>
<g id="a_edge11_Node000001_Node000010"><a xlink:title=" ">
<path fill="none" stroke="#9a32cd" stroke-dasharray="5,2" d="M624.33,-365.26C692.31,-364.77 794.71,-360.5 881.75,-342.25 930.32,-332.07 941.23,-324.02 986.75,-304.25 1006.46,-295.69 1027.99,-284.69 1044.6,-275.83"/>
<polygon fill="#9a32cd" stroke="#9a32cd" points="624.39,-361.76 614.4,-365.31 624.42,-368.76 624.39,-361.76"/>
</a>
</g>
<text xml:space="preserve" text-anchor="start" x="774.38" y="-367.47" font-family="Helvetica,sans-Serif" font-size="10.00" fill="grey">_poolManager</text>
</g>
<!-- Node10&#45;&gt;Node13 -->
<g id="edge19_Node000013_Node000010" class="edge">
<title>Node10&#45;&gt;Node13</title>
<g id="a_edge19_Node000013_Node000010"><a xlink:title=" ">
<path fill="none" stroke="#9a32cd" stroke-dasharray="5,2" d="M595.68,-344.17C631.64,-328.82 682.68,-307.3 727.75,-289.25 738.76,-284.84 750.73,-280.2 761.84,-275.96"/>
<polygon fill="#9a32cd" stroke="#9a32cd" points="594.7,-340.78 586.88,-347.93 597.45,-347.22 594.7,-340.78"/>
</a>
</g>
<text xml:space="preserve" text-anchor="start" x="646" y="-329.59" font-family="Helvetica,sans-Serif" font-size="10.00" fill="grey">_poolManager</text>
</g>
<!-- Node10&#45;&gt;Node20 -->
<g id="edge26_Node000020_Node000010" class="edge">
<title>Node10&#45;&gt;Node20</title>
<g id="a_edge26_Node000020_Node000010"><a xlink:title=" ">
<path fill="none" stroke="#9a32cd" stroke-dasharray="5,2" d="M624.23,-379.31C656.79,-385.83 694.85,-393.45 727.52,-399.99"/>
<polygon fill="#9a32cd" stroke="#9a32cd" points="624.93,-375.88 614.44,-377.35 623.56,-382.75 624.93,-375.88"/>
</a>
</g>
<text xml:space="preserve" text-anchor="start" x="646" y="-401.82" font-family="Helvetica,sans-Serif" font-size="10.00" fill="grey">_poolManager</text>
</g>
<!-- Node11 -->
<g id="Node000011" class="node">
<title>Node11</title>
<g id="a_Node000011"><a xlink:href="interface_balloon_party_1_1_game_1_1_score_1_1_i_score_query.html" target="_top" xlink:title="Read&#45;only queries into per&#45;colour level progress, for HUD bars that display it without driving the sc...">
<polygon fill="white" stroke="#666666" points="870.12,-128.5 739.38,-128.5 739.38,-98 870.12,-98 870.12,-128.5"/>
<text xml:space="preserve" text-anchor="start" x="747.38" y="-115" font-family="Helvetica,sans-Serif" font-size="10.00">BalloonParty.Game.Score.</text>
<text xml:space="preserve" text-anchor="middle" x="804.75" y="-103.75" font-family="Helvetica,sans-Serif" font-size="10.00">IScoreQuery</text>
</a>
</g>
</g>
<!-- Node11&#45;&gt;Node1 -->
<g id="edge12_Node000001_Node000011" class="edge">
<title>Node11&#45;&gt;Node1</title>
<g id="a_edge12_Node000001_Node000011"><a xlink:title=" ">
<path fill="none" stroke="#9a32cd" stroke-dasharray="5,2" d="M881.59,-121.75C915.68,-128.16 955.23,-139.38 986.75,-159 1022.02,-180.95 1050.27,-222.09 1063.93,-244.58"/>
<polygon fill="#9a32cd" stroke="#9a32cd" points="882.21,-118.3 871.75,-120.01 880.99,-125.2 882.21,-118.3"/>
</a>
</g>
<text xml:space="preserve" text-anchor="start" x="907.62" y="-165" font-family="Helvetica,sans-Serif" font-size="10.00" fill="grey">_scoreController</text>
</g>
<!-- Node12 -->
<g id="Node000012" class="node">
<title>Node12</title>
<g id="a_Node000012"><a xlink:href="interface_balloon_party_1_1_game_1_1_score_1_1_i_color_streak.html" target="_top" xlink:title="Read&#45;only access to the current same&#45;colour pop streak, for HUD feedback.">
<polygon fill="white" stroke="#666666" points="870.12,-79.5 739.38,-79.5 739.38,-49 870.12,-49 870.12,-79.5"/>
<text xml:space="preserve" text-anchor="start" x="747.38" y="-66" font-family="Helvetica,sans-Serif" font-size="10.00">BalloonParty.Game.Score.</text>
<text xml:space="preserve" text-anchor="middle" x="804.75" y="-54.75" font-family="Helvetica,sans-Serif" font-size="10.00">IColorStreak</text>
</a>
</g>
</g>
<!-- Node12&#45;&gt;Node1 -->
<g id="edge13_Node000001_Node000012" class="edge">
<title>Node12&#45;&gt;Node1</title>
<g id="a_edge13_Node000001_Node000012"><a xlink:title=" ">
<path fill="none" stroke="#9a32cd" stroke-dasharray="5,2" d="M881.34,-67.28C916.29,-71.98 956.63,-82.44 986.75,-105 1035.1,-141.22 1059.9,-212.98 1068.87,-244.63"/>
<polygon fill="#9a32cd" stroke="#9a32cd" points="882.05,-63.84 871.71,-66.13 881.22,-70.79 882.05,-63.84"/>
</a>
</g>
<text xml:space="preserve" text-anchor="start" x="910.62" y="-111" font-family="Helvetica,sans-Serif" font-size="10.00" fill="grey">_streakTracker</text>
</g>
<!-- Node13&#45;&gt;Node1 -->
<g id="edge14_Node000001_Node000013" class="edge">
<title>Node13&#45;&gt;Node1</title>
<g id="a_edge14_Node000001_Node000013"><a xlink:title=" ">
<path fill="none" stroke="#9a32cd" stroke-dasharray="5,2" d="M881.63,-260.25C920.33,-260.25 967.04,-260.25 1004.61,-260.25"/>
<polygon fill="#9a32cd" stroke="#9a32cd" points="881.93,-256.75 871.93,-260.25 881.93,-263.75 881.93,-256.75"/>
</a>
</g>
<text xml:space="preserve" text-anchor="start" x="902.75" y="-266.25" font-family="Helvetica,sans-Serif" font-size="10.00" fill="grey">_scoreTrailService</text>
</g>
<!-- Node14 -->
<g id="Node000014" class="node">
<title>Node14</title>
<g id="a_Node000014"><a xlink:title=" ">
<polygon fill="white" stroke="#666666" points="577,-214.88 519,-214.88 519,-195.62 577,-195.62 577,-214.88"/>
<text xml:space="preserve" text-anchor="middle" x="548" y="-201.38" font-family="Helvetica,sans-Serif" font-size="10.00">IStartable</text>
</a>
</g>
</g>
<!-- Node14&#45;&gt;Node13 -->
<g id="edge15_Node000013_Node000014" class="edge">
<title>Node14&#45;&gt;Node13</title>
<g id="a_edge15_Node000013_Node000014"><a xlink:title=" ">
<path fill="none" stroke="#63b8ff" d="M588.4,-202.55C621.94,-201.71 670.74,-204.04 709.75,-220.25 719.37,-224.25 718.64,-230.2 727.75,-235.25 734.07,-238.75 740.95,-241.86 747.92,-244.6"/>
<polygon fill="#63b8ff" stroke="#63b8ff" points="588.59,-199.04 578.73,-202.9 588.85,-206.03 588.59,-199.04"/>
</a>
</g>
</g>
<!-- Node15 -->
<g id="Node000015" class="node">
<title>Node15</title>
<g id="a_Node000015"><a xlink:title=" ">
<polygon fill="white" stroke="#666666" points="581.88,-128.88 514.12,-128.88 514.12,-109.62 581.88,-109.62 581.88,-128.88"/>
<text xml:space="preserve" text-anchor="middle" x="548" y="-115.38" font-family="Helvetica,sans-Serif" font-size="10.00">IDisposable</text>
</a>
</g>
</g>
<!-- Node15&#45;&gt;Node13 -->
<g id="edge16_Node000013_Node000015" class="edge">
<title>Node15&#45;&gt;Node13</title>
<g id="a_edge16_Node000013_Node000015"><a xlink:title=" ">
<path fill="none" stroke="#63b8ff" d="M593.4,-116.74C629.56,-117.22 679.43,-124.06 709.75,-154.25 735.88,-180.27 703,-207.91 727.75,-235.25 731.01,-238.85 734.8,-241.94 738.92,-244.58"/>
<polygon fill="#63b8ff" stroke="#63b8ff" points="593.68,-113.24 583.69,-116.78 593.7,-120.24 593.68,-113.24"/>
</a>
</g>
</g>
<!-- Node16 -->
<g id="Node000016" class="node">
<title>Node16</title>
<g id="a_Node000016"><a xlink:href="class_balloon_party_1_1_shared_1_1_pool_1_1_trail_flight_registry-1-g.html" target="_top" xlink:title="Central registry for all in&#45;flight trails.">
<polygon fill="white" stroke="#666666" points="612.62,-263.5 483.38,-263.5 483.38,-233 612.62,-233 612.62,-263.5"/>
<text xml:space="preserve" text-anchor="start" x="491.38" y="-250" font-family="Helvetica,sans-Serif" font-size="10.00">BalloonParty.Shared.Pool.</text>
<text xml:space="preserve" text-anchor="middle" x="548" y="-238.75" font-family="Helvetica,sans-Serif" font-size="10.00">TrailFlightRegistry&lt; TId &gt;</text>
</a>
</g>
</g>
<!-- Node16&#45;&gt;Node13 -->
<g id="edge18_Node000013_Node000016" class="edge">
<title>Node16&#45;&gt;Node13</title>
<g id="a_edge18_Node000013_Node000016"><a xlink:title=" ">
<path fill="none" stroke="#9a32cd" stroke-dasharray="5,2" d="M616.3,-230.31C645.21,-225.04 679.28,-222.09 709.75,-228 718.22,-229.64 719.65,-232.29 727.75,-235.25 736.36,-238.4 745.58,-241.58 754.53,-244.58"/>
<polygon fill="#9a32cd" stroke="#9a32cd" points="615.71,-226.86 606.57,-232.22 617.06,-233.73 615.71,-226.86"/>
</a>
</g>
<text xml:space="preserve" text-anchor="start" x="660.62" y="-234" font-family="Helvetica,sans-Serif" font-size="10.00" fill="grey">_flights</text>
</g>
<!-- Node17 -->
<g id="Node000017" class="node">
<title>Node17</title>
<g id="a_Node000017"><a xlink:href="class_balloon_party_1_1_shared_1_1_pool_1_1_trail_endpoint_registry.html" target="_top" xlink:title="Maps a key to the ITrailEndpoint registered under it.">
<polygon fill="white" stroke="#666666" points="612.62,-91.5 483.38,-91.5 483.38,-61 612.62,-61 612.62,-91.5"/>
<text xml:space="preserve" text-anchor="start" x="491.38" y="-78" font-family="Helvetica,sans-Serif" font-size="10.00">BalloonParty.Shared.Pool.</text>
<text xml:space="preserve" text-anchor="middle" x="548" y="-66.75" font-family="Helvetica,sans-Serif" font-size="10.00">TrailEndpointRegistry</text>
</a>
</g>
</g>
<!-- Node17&#45;&gt;Node13 -->
<g id="edge20_Node000013_Node000017" class="edge">
<title>Node17&#45;&gt;Node13</title>
<g id="a_edge20_Node000013_Node000017"><a xlink:title=" ">
<path fill="none" stroke="#9a32cd" stroke-dasharray="5,2" d="M623.9,-69.53C654.47,-70.95 687.74,-78.56 709.75,-101 751.9,-143.98 689.28,-188.94 727.75,-235.25 730.95,-239.1 734.74,-242.36 738.91,-245.12"/>
<polygon fill="#9a32cd" stroke="#9a32cd" points="624.38,-66.04 614.3,-69.3 624.21,-73.03 624.38,-66.04"/>
</a>
</g>
<text xml:space="preserve" text-anchor="start" x="652.75" y="-107" font-family="Helvetica,sans-Serif" font-size="10.00" fill="grey">_endpoints</text>
</g>
<!-- Node18&#45;&gt;Node13 -->
<g id="edge21_Node000013_Node000018" class="edge">
<title>Node18&#45;&gt;Node13</title>
<g id="a_edge21_Node000013_Node000018"><a xlink:title=" ">
<path fill="none" stroke="#9a32cd" stroke-dasharray="5,2" d="M630.12,-156.75C657.98,-158.85 687.68,-166.02 709.75,-184 728.46,-199.25 710.51,-218.35 727.75,-235.25 731.42,-238.85 735.62,-241.93 740.11,-244.56"/>
<polygon fill="#9a32cd" stroke="#9a32cd" points="630.41,-153.26 620.24,-156.24 630.05,-160.25 630.41,-153.26"/>
</a>
</g>
<text xml:space="preserve" text-anchor="start" x="651.62" y="-190" font-family="Helvetica,sans-Serif" font-size="10.00" fill="grey">_trailPrefab</text>
</g>
<!-- Node19 -->
<g id="Node000019" class="node">
<title>Node19</title>
<g id="a_Node000019"><a xlink:href="struct_balloon_party_1_1_u_i_1_1_score_1_1_flying_trail_1_1_motion_style.html" target="_top" xlink:title=" ">
<polygon fill="white" stroke="#666666" points="338.62,-220.5 197.38,-220.5 197.38,-190 338.62,-190 338.62,-220.5"/>
<text xml:space="preserve" text-anchor="start" x="205.38" y="-207" font-family="Helvetica,sans-Serif" font-size="10.00">BalloonParty.UI.Score.Flying</text>
<text xml:space="preserve" text-anchor="middle" x="268" y="-195.75" font-family="Helvetica,sans-Serif" font-size="10.00">Trail.MotionStyle</text>
</a>
</g>
</g>
<!-- Node19&#45;&gt;Node18 -->
<g id="edge24_Node000018_Node000019" class="edge">
<title>Node19&#45;&gt;Node18</title>
<g id="a_edge24_Node000018_Node000019"><a xlink:title=" ">
<path fill="none" stroke="#9a32cd" stroke-dasharray="5,2" d="M349.94,-192.73C390.25,-186.5 438.51,-179.03 477.18,-173.05"/>
<polygon fill="#9a32cd" stroke="#9a32cd" points="349.64,-189.24 340.29,-194.22 350.71,-196.15 349.64,-189.24"/>
</a>
</g>
<text xml:space="preserve" text-anchor="start" x="388.12" y="-196.11" font-family="Helvetica,sans-Serif" font-size="10.00" fill="grey">_motions</text>
</g>
<!-- Node20&#45;&gt;Node1 -->
<g id="edge25_Node000001_Node000020" class="edge">
<title>Node20&#45;&gt;Node1</title>
<g id="a_edge25_Node000001_Node000020"><a xlink:title=" ">
<path fill="none" stroke="#9a32cd" stroke-dasharray="5,2" d="M893.58,-410.38C924.91,-405.39 959.23,-395.93 986.75,-378.25 1026.65,-352.62 1054.22,-301.47 1066.17,-275.76"/>
<polygon fill="#9a32cd" stroke="#9a32cd" points="893.09,-406.92 883.69,-411.81 894.09,-413.85 893.09,-406.92"/>
</a>
</g>
<text xml:space="preserve" text-anchor="start" x="924.88" y="-414.81" font-family="Helvetica,sans-Serif" font-size="10.00" fill="grey">_notices</text>
</g>
<!-- Node21 -->
<g id="Node000021" class="node">
<title>Node21</title>
<g id="a_Node000021"><a xlink:href="class_balloon_party_1_1_configuration_1_1_palette_entry.html" target="_top" xlink:title=" ">
<polygon fill="white" stroke="#666666" points="871.62,-30.5 737.88,-30.5 737.88,0 871.62,0 871.62,-30.5"/>
<text xml:space="preserve" text-anchor="start" x="745.88" y="-17" font-family="Helvetica,sans-Serif" font-size="10.00">BalloonParty.Configuration.</text>
<text xml:space="preserve" text-anchor="middle" x="804.75" y="-5.75" font-family="Helvetica,sans-Serif" font-size="10.00">PaletteEntry</text>
</a>
</g>
</g>
<!-- Node21&#45;&gt;Node1 -->
<g id="edge28_Node000001_Node000021" class="edge">
<title>Node21&#45;&gt;Node1</title>
<g id="a_edge28_Node000001_Node000021"><a xlink:title=" ">
<path fill="none" stroke="#9a32cd" stroke-dasharray="5,2" d="M883.21,-13.97C918.2,-17.16 958.04,-26.5 986.75,-50 1049.33,-101.21 1066.91,-205.23 1071.43,-244.64"/>
<polygon fill="#9a32cd" stroke="#9a32cd" points="883.78,-10.51 873.55,-13.26 883.26,-17.49 883.78,-10.51"/>
</a>
</g>
<text xml:space="preserve" text-anchor="start" x="915.88" y="-56" font-family="Helvetica,sans-Serif" font-size="10.00" fill="grey">_colorConfig</text>
</g>
</g>
</svg>
