<?xml version="1.0" encoding="UTF-8" standalone="no"?>
<!DOCTYPE svg PUBLIC "-//W3C//DTD SVG 1.1//EN"
 "http://www.w3.org/Graphics/SVG/1.1/DTD/svg11.dtd">
<!-- Generated by graphviz version 15.0.0 (20260523.1842)
 -->
<!-- Title: BalloonParty.Game.LaunchLifetimeScope Pages: 1 -->
<svg width="238pt" height="179pt"
 viewBox="0.00 0.00 238.00 179.00" xmlns="http://www.w3.org/2000/svg" xmlns:xlink="http://www.w3.org/1999/xlink">
<g id="graph0" class="graph" transform="scale(1 1) rotate(0) translate(4 174.5)">
<title>BalloonParty.Game.LaunchLifetimeScope</title>
<!-- Node1 -->
<g id="Node000001" class="node">
<title>Node1</title>
<g id="a_Node000001"><a xlink:title=" ">
<polygon fill="#999999" stroke="#666666" points="145,-30.5 11.25,-30.5 11.25,0 145,0 145,-30.5"/>
<text xml:space="preserve" text-anchor="start" x="19.25" y="-17" font-family="Helvetica,sans-Serif" font-size="10.00">BalloonParty.Game.Launch</text>
<text xml:space="preserve" text-anchor="middle" x="78.12" y="-5.75" font-family="Helvetica,sans-Serif" font-size="10.00">LifetimeScope</text>
</a>
</g>
</g>
<!-- Node2 -->
<g id="Node000002" class="node">
<title>Node2</title>
<g id="a_Node000002"><a xlink:title=" ">
<polygon fill="white" stroke="#666666" points="78.25,-108.62 0,-108.62 0,-89.38 78.25,-89.38 78.25,-108.62"/>
<text xml:space="preserve" text-anchor="middle" x="39.12" y="-95.12" font-family="Helvetica,sans-Serif" font-size="10.00">LifetimeScope</text>
</a>
</g>
</g>
<!-- Node2&#45;&gt;Node1 -->
<g id="edge1_Node000001_Node000002" class="edge">
<title>Node2&#45;&gt;Node1</title>
<g id="a_edge1_Node000001_Node000002"><a xlink:title=" ">
<path fill="none" stroke="#63b8ff" d="M48.21,-78.95C55.21,-64.27 64.75,-44.29 71.15,-30.86"/>
<polygon fill="#63b8ff" stroke="#63b8ff" points="45.25,-77.04 44.1,-87.57 51.56,-80.05 45.25,-77.04"/>
</a>
</g>
</g>
<!-- Node3 -->
<g id="Node000003" class="node">
<title>Node3</title>
<g id="a_Node000003"><a xlink:href="class_balloon_party_1_1_configuration_1_1_game_display_configuration.html" target="_top" xlink:title=" ">
<polygon fill="white" stroke="#666666" points="230,-114.25 96.25,-114.25 96.25,-83.75 230,-83.75 230,-114.25"/>
<text xml:space="preserve" text-anchor="start" x="104.25" y="-100.75" font-family="Helvetica,sans-Serif" font-size="10.00">BalloonParty.Configuration.</text>
<text xml:space="preserve" text-anchor="middle" x="163.12" y="-89.5" font-family="Helvetica,sans-Serif" font-size="10.00">GameDisplayConfiguration</text>
</a>
</g>
</g>
<!-- Node3&#45;&gt;Node1 -->
<g id="edge2_Node000001_Node000003" class="edge">
<title>Node3&#45;&gt;Node1</title>
<g id="a_edge2_Node000001_Node000003"><a xlink:title=" ">
<path fill="none" stroke="#9a32cd" stroke-dasharray="5,2" d="M139.71,-75.48C124.86,-61.2 106.08,-43.14 93.19,-30.74"/>
<polygon fill="#9a32cd" stroke="#9a32cd" points="137.2,-77.93 146.84,-82.34 142.06,-72.88 137.2,-77.93"/>
</a>
</g>
<text xml:space="preserve" text-anchor="start" x="131.24" y="-54.5" font-family="Helvetica,sans-Serif" font-size="10.00" fill="grey">_displayConfiguration</text>
</g>
<!-- Node4 -->
<g id="Node000004" class="node">
<title>Node4</title>
<g id="a_Node000004"><a xlink:title=" ">
<polygon fill="white" stroke="#666666" points="207.12,-170.5 119.12,-170.5 119.12,-151.25 207.12,-151.25 207.12,-170.5"/>
<text xml:space="preserve" text-anchor="middle" x="163.12" y="-157" font-family="Helvetica,sans-Serif" font-size="10.00">ScriptableObject</text>
</a>
</g>
</g>
<!-- Node4&#45;&gt;Node3 -->
<g id="edge3_Node000003_Node000004" class="edge">
<title>Node4&#45;&gt;Node3</title>
<g id="a_edge3_Node000003_Node000004"><a xlink:title=" ">
<path fill="none" stroke="#63b8ff" d="M163.12,-139.44C163.12,-131.18 163.12,-121.84 163.12,-114.32"/>
<polygon fill="#63b8ff" stroke="#63b8ff" points="159.63,-139.27 163.13,-149.27 166.63,-139.27 159.63,-139.27"/>
</a>
</g>
</g>
</g>
</svg>
