<?xml version="1.0" encoding="UTF-8" standalone="no"?>
<!DOCTYPE svg PUBLIC "-//W3C//DTD SVG 1.1//EN"
 "http://www.w3.org/Graphics/SVG/1.1/DTD/svg11.dtd">
<!-- Generated by graphviz version 15.0.0 (20260523.1842)
 -->
<!-- Title: BalloonParty.Item.ItemDisplayService Pages: 1 -->
<svg width="641pt" height="315pt"
 viewBox="0.00 0.00 641.00 315.00" xmlns="http://www.w3.org/2000/svg" xmlns:xlink="http://www.w3.org/1999/xlink">
<g id="graph0" class="graph" transform="scale(1 1) rotate(0) translate(4 311.4)">
<title>BalloonParty.Item.ItemDisplayService</title>
<!-- Node1 -->
<g id="Node000001" class="node">
<title>Node1</title>
<g id="a_Node000001"><a xlink:title=" ">
<polygon fill="#999999" stroke="#666666" points="633,-177.5 485,-177.5 485,-147 633,-147 633,-177.5"/>
<text xml:space="preserve" text-anchor="start" x="493" y="-164" font-family="Helvetica,sans-Serif" font-size="10.00">BalloonParty.Item.ItemDisplay</text>
<text xml:space="preserve" text-anchor="middle" x="559" y="-152.75" font-family="Helvetica,sans-Serif" font-size="10.00">Service</text>
</a>
</g>
</g>
<!-- Node2 -->
<g id="Node000002" class="node">
<title>Node2</title>
<g id="a_Node000002"><a xlink:title=" ">
<polygon fill="white" stroke="#666666" points="111.62,-301.88 28.12,-301.88 28.12,-282.62 111.62,-282.62 111.62,-301.88"/>
<text xml:space="preserve" text-anchor="middle" x="69.88" y="-288.38" font-family="Helvetica,sans-Serif" font-size="10.00">MonoBehaviour</text>
</a>
</g>
</g>
<!-- Node2&#45;&gt;Node1 -->
<g id="edge1_Node000001_Node000002" class="edge">
<title>Node2&#45;&gt;Node1</title>
<g id="a_edge1_Node000001_Node000002"><a xlink:title=" ">
<path fill="none" stroke="#63b8ff" d="M123.13,-300.27C202.5,-309.83 355.91,-317.91 467,-259.25 503.75,-239.84 533.81,-199.77 548.42,-177.69"/>
<polygon fill="#63b8ff" stroke="#63b8ff" points="123.84,-296.83 113.48,-299.04 122.96,-303.77 123.84,-296.83"/>
</a>
</g>
</g>
<!-- Node3 -->
<g id="Node000003" class="node">
<title>Node3</title>
<g id="a_Node000003"><a xlink:href="class_balloon_party_1_1_item_1_1_item_visual_view.html" target="_top" xlink:title=" ">
<polygon fill="white" stroke="#666666" points="377,-263.88 213.25,-263.88 213.25,-244.62 377,-244.62 377,-263.88"/>
<text xml:space="preserve" text-anchor="middle" x="295.12" y="-250.38" font-family="Helvetica,sans-Serif" font-size="10.00">BalloonParty.Item.ItemVisualView</text>
</a>
</g>
</g>
<!-- Node2&#45;&gt;Node3 -->
<g id="edge3_Node000003_Node000002" class="edge">
<title>Node2&#45;&gt;Node3</title>
<g id="a_edge3_Node000003_Node000002"><a xlink:title=" ">
<path fill="none" stroke="#63b8ff" d="M123,-283.38C156.42,-277.69 199.88,-270.29 234.64,-264.37"/>
<polygon fill="#63b8ff" stroke="#63b8ff" points="122.85,-279.85 113.57,-284.98 124.02,-286.75 122.85,-279.85"/>
</a>
</g>
</g>
<!-- Node3&#45;&gt;Node1 -->
<g id="edge2_Node000001_Node000003" class="edge">
<title>Node3&#45;&gt;Node1</title>
<g id="a_edge2_Node000001_Node000003"><a xlink:title=" ">
<path fill="none" stroke="#9a32cd" stroke-dasharray="5,2" d="M379.09,-242C407.56,-236.31 439.24,-228.29 467,-217.25 492.39,-207.16 518.84,-190.35 536.63,-177.97"/>
<polygon fill="#9a32cd" stroke="#9a32cd" points="378.58,-238.53 369.42,-243.86 379.9,-245.41 378.58,-238.53"/>
</a>
</g>
<text xml:space="preserve" text-anchor="start" x="404.38" y="-243.9" font-family="Helvetica,sans-Serif" font-size="10.00" fill="grey">_activeView</text>
</g>
<!-- Node4 -->
<g id="Node000004" class="node">
<title>Node4</title>
<g id="a_Node000004"><a xlink:href="interface_balloon_party_1_1_item_1_1_i_item_view.html" target="_top" xlink:title=" ">
<polygon fill="white" stroke="#666666" points="139.75,-257.88 0,-257.88 0,-238.62 139.75,-238.62 139.75,-257.88"/>
<text xml:space="preserve" text-anchor="middle" x="69.88" y="-244.38" font-family="Helvetica,sans-Serif" font-size="10.00">BalloonParty.Item.IItemView</text>
</a>
</g>
</g>
<!-- Node4&#45;&gt;Node3 -->
<g id="edge4_Node000003_Node000004" class="edge">
<title>Node4&#45;&gt;Node3</title>
<g id="a_edge4_Node000003_Node000004"><a xlink:title=" ">
<path fill="none" stroke="#63b8ff" d="M151.26,-250.41C171.28,-250.95 192.75,-251.53 212.82,-252.06"/>
<polygon fill="#63b8ff" stroke="#63b8ff" points="151.59,-246.92 141.5,-250.15 151.4,-253.92 151.59,-246.92"/>
</a>
</g>
</g>
<!-- Node5 -->
<g id="Node000005" class="node">
<title>Node5</title>
<g id="a_Node000005"><a xlink:href="interface_balloon_party_1_1_shared_1_1_pool_1_1_i_poolable.html" target="_top" xlink:title=" ">
<polygon fill="white" stroke="#666666" points="134.5,-220.5 5.25,-220.5 5.25,-190 134.5,-190 134.5,-220.5"/>
<text xml:space="preserve" text-anchor="start" x="13.25" y="-207" font-family="Helvetica,sans-Serif" font-size="10.00">BalloonParty.Shared.Pool.</text>
<text xml:space="preserve" text-anchor="middle" x="69.88" y="-195.75" font-family="Helvetica,sans-Serif" font-size="10.00">IPoolable</text>
</a>
</g>
</g>
<!-- Node5&#45;&gt;Node3 -->
<g id="edge5_Node000003_Node000005" class="edge">
<title>Node5&#45;&gt;Node3</title>
<g id="a_edge5_Node000003_Node000005"><a xlink:title=" ">
<path fill="none" stroke="#63b8ff" d="M145.67,-221.67C179.62,-229.12 218.69,-237.69 248.23,-244.18"/>
<polygon fill="#63b8ff" stroke="#63b8ff" points="146.85,-218.34 136.33,-219.62 145.34,-225.18 146.85,-218.34"/>
</a>
</g>
</g>
<!-- Node6 -->
<g id="Node000006" class="node">
<title>Node6</title>
<g id="a_Node000006"><a xlink:href="interface_balloon_party_1_1_item_1_1_i_transform_capture.html" target="_top" xlink:title="Implement on components whose transform state must be captured.">
<polygon fill="white" stroke="#666666" points="366.5,-226.5 223.75,-226.5 223.75,-196 366.5,-196 366.5,-226.5"/>
<text xml:space="preserve" text-anchor="start" x="231.75" y="-213" font-family="Helvetica,sans-Serif" font-size="10.00">BalloonParty.Item.ITransform</text>
<text xml:space="preserve" text-anchor="middle" x="295.12" y="-201.75" font-family="Helvetica,sans-Serif" font-size="10.00">Capture</text>
</a>
</g>
</g>
<!-- Node6&#45;&gt;Node1 -->
<g id="edge6_Node000001_Node000006" class="edge">
<title>Node6&#45;&gt;Node1</title>
<g id="a_edge6_Node000001_Node000006"><a xlink:title=" ">
<path fill="none" stroke="#9a32cd" stroke-dasharray="5,2" d="M378.03,-198.93C406.29,-194.38 438.1,-188.95 467,-183.25 475.27,-181.62 483.94,-179.79 492.5,-177.9"/>
<polygon fill="#9a32cd" stroke="#9a32cd" points="377.79,-195.42 368.47,-200.45 378.9,-202.33 377.79,-195.42"/>
</a>
</g>
<text xml:space="preserve" text-anchor="start" x="398" y="-201.86" font-family="Helvetica,sans-Serif" font-size="10.00" fill="grey">_activeCapture</text>
</g>
<!-- Node7 -->
<g id="Node000007" class="node">
<title>Node7</title>
<g id="a_Node000007"><a xlink:href="interface_balloon_party_1_1_shared_1_1_i_game_configuration.html" target="_top" xlink:title=" ">
<polygon fill="white" stroke="#666666" points="363.12,-177.5 227.12,-177.5 227.12,-147 363.12,-147 363.12,-177.5"/>
<text xml:space="preserve" text-anchor="start" x="235.12" y="-164" font-family="Helvetica,sans-Serif" font-size="10.00">BalloonParty.Shared.IGame</text>
<text xml:space="preserve" text-anchor="middle" x="295.12" y="-152.75" font-family="Helvetica,sans-Serif" font-size="10.00">Configuration</text>
</a>
</g>
</g>
<!-- Node7&#45;&gt;Node1 -->
<g id="edge7_Node000001_Node000007" class="edge">
<title>Node7&#45;&gt;Node1</title>
<g id="a_edge7_Node000001_Node000007"><a xlink:title=" ">
<path fill="none" stroke="#9a32cd" stroke-dasharray="5,2" d="M374.68,-162.25C409.62,-162.25 450.52,-162.25 484.81,-162.25"/>
<polygon fill="#9a32cd" stroke="#9a32cd" points="375.08,-158.75 365.08,-162.25 375.08,-165.75 375.08,-158.75"/>
</a>
</g>
<text xml:space="preserve" text-anchor="start" x="415.25" y="-168.25" font-family="Helvetica,sans-Serif" font-size="10.00" fill="grey">_config</text>
</g>
<!-- Node8 -->
<g id="Node000008" class="node">
<title>Node8</title>
<g id="a_Node000008"><a xlink:href="class_balloon_party_1_1_configuration_1_1_game_palette.html" target="_top" xlink:title=" ">
<polygon fill="white" stroke="#666666" points="362,-79.5 228.25,-79.5 228.25,-49 362,-49 362,-79.5"/>
<text xml:space="preserve" text-anchor="start" x="236.25" y="-66" font-family="Helvetica,sans-Serif" font-size="10.00">BalloonParty.Configuration.</text>
<text xml:space="preserve" text-anchor="middle" x="295.12" y="-54.75" font-family="Helvetica,sans-Serif" font-size="10.00">GamePalette</text>
</a>
</g>
</g>
<!-- Node8&#45;&gt;Node1 -->
<g id="edge8_Node000001_Node000008" class="edge">
<title>Node8&#45;&gt;Node1</title>
<g id="a_edge8_Node000001_Node000008"><a xlink:title=" ">
<path fill="none" stroke="#9a32cd" stroke-dasharray="5,2" d="M373.35,-78.4C403.25,-85.2 437.35,-94.62 467,-107 492.24,-117.54 518.71,-134.36 536.56,-146.67"/>
<polygon fill="#9a32cd" stroke="#9a32cd" points="374.11,-74.98 363.59,-76.25 372.6,-81.82 374.11,-74.98"/>
</a>
</g>
<text xml:space="preserve" text-anchor="start" x="413.75" y="-113" font-family="Helvetica,sans-Serif" font-size="10.00" fill="grey">_palette</text>
</g>
<!-- Node9 -->
<g id="Node000009" class="node">
<title>Node9</title>
<g id="a_Node000009"><a xlink:title=" ">
<polygon fill="white" stroke="#666666" points="113.88,-115.88 25.88,-115.88 25.88,-96.62 113.88,-96.62 113.88,-115.88"/>
<text xml:space="preserve" text-anchor="middle" x="69.88" y="-102.38" font-family="Helvetica,sans-Serif" font-size="10.00">ScriptableObject</text>
</a>
</g>
</g>
<!-- Node9&#45;&gt;Node8 -->
<g id="edge9_Node000008_Node000009" class="edge">
<title>Node9&#45;&gt;Node8</title>
<g id="a_edge9_Node000008_Node000009"><a xlink:title=" ">
<path fill="none" stroke="#63b8ff" d="M125.21,-96.03C156.21,-90.2 195.3,-82.84 228.07,-76.68"/>
<polygon fill="#63b8ff" stroke="#63b8ff" points="124.85,-92.53 115.67,-97.82 126.15,-99.41 124.85,-92.53"/>
</a>
</g>
</g>
<!-- Node11 -->
<g id="Node000011" class="node">
<title>Node11</title>
<g id="a_Node000011"><a xlink:href="class_balloon_party_1_1_configuration_1_1_item_configuration.html" target="_top" xlink:title=" ">
<polygon fill="white" stroke="#666666" points="362,-128.5 228.25,-128.5 228.25,-98 362,-98 362,-128.5"/>
<text xml:space="preserve" text-anchor="start" x="236.25" y="-115" font-family="Helvetica,sans-Serif" font-size="10.00">BalloonParty.Configuration.</text>
<text xml:space="preserve" text-anchor="middle" x="295.12" y="-103.75" font-family="Helvetica,sans-Serif" font-size="10.00">ItemConfiguration</text>
</a>
</g>
</g>
<!-- Node9&#45;&gt;Node11 -->
<g id="edge12_Node000011_Node000009" class="edge">
<title>Node9&#45;&gt;Node11</title>
<g id="a_edge12_Node000011_Node000009"><a xlink:title=" ">
<path fill="none" stroke="#63b8ff" d="M125.62,-107.97C156.56,-108.94 195.45,-110.16 228.07,-111.18"/>
<polygon fill="#63b8ff" stroke="#63b8ff" points="125.8,-104.47 115.7,-107.66 125.58,-111.47 125.8,-104.47"/>
</a>
</g>
</g>
<!-- Node10 -->
<g id="Node000010" class="node">
<title>Node10</title>
<g id="a_Node000010"><a xlink:href="class_balloon_party_1_1_configuration_1_1_palette_entry.html" target="_top" xlink:title=" ">
<polygon fill="white" stroke="#666666" points="136.75,-71.5 3,-71.5 3,-41 136.75,-41 136.75,-71.5"/>
<text xml:space="preserve" text-anchor="start" x="11" y="-58" font-family="Helvetica,sans-Serif" font-size="10.00">BalloonParty.Configuration.</text>
<text xml:space="preserve" text-anchor="middle" x="69.88" y="-46.75" font-family="Helvetica,sans-Serif" font-size="10.00">PaletteEntry</text>
</a>
</g>
</g>
<!-- Node10&#45;&gt;Node8 -->
<g id="edge10_Node000008_Node000010" class="edge">
<title>Node10&#45;&gt;Node8</title>
<g id="a_edge10_Node000008_Node000010"><a xlink:title=" ">
<path fill="none" stroke="#9a32cd" stroke-dasharray="5,2" d="M148.25,-55.91C163.81,-56.07 180.06,-56.4 195.25,-57 205.83,-57.42 217.03,-58.06 227.94,-58.78"/>
<polygon fill="#9a32cd" stroke="#9a32cd" points="148.6,-52.41 138.57,-55.84 148.54,-59.41 148.6,-52.41"/>
</a>
</g>
<text xml:space="preserve" text-anchor="start" x="160.75" y="-63" font-family="Helvetica,sans-Serif" font-size="10.00" fill="grey">_colors</text>
</g>
<!-- Node11&#45;&gt;Node1 -->
<g id="edge11_Node000001_Node000011" class="edge">
<title>Node11&#45;&gt;Node1</title>
<g id="a_edge11_Node000001_Node000011"><a xlink:title=" ">
<path fill="none" stroke="#9a32cd" stroke-dasharray="5,2" d="M373.47,-124.66C402.84,-129.3 436.54,-134.98 467,-141 475.44,-142.67 484.28,-144.56 493,-146.5"/>
<polygon fill="#9a32cd" stroke="#9a32cd" points="374.36,-121.26 363.94,-123.17 373.28,-128.18 374.36,-121.26"/>
</a>
</g>
<text xml:space="preserve" text-anchor="start" x="404.75" y="-147" font-family="Helvetica,sans-Serif" font-size="10.00" fill="grey">_itemConfig</text>
</g>
<!-- Node12 -->
<g id="Node000012" class="node">
<title>Node12</title>
<g id="a_Node000012"><a xlink:href="class_balloon_party_1_1_shared_1_1_pool_1_1_pool_manager.html" target="_top" xlink:title=" ">
<polygon fill="white" stroke="#666666" points="359.75,-30.5 230.5,-30.5 230.5,0 359.75,0 359.75,-30.5"/>
<text xml:space="preserve" text-anchor="start" x="238.5" y="-17" font-family="Helvetica,sans-Serif" font-size="10.00">BalloonParty.Shared.Pool.</text>
<text xml:space="preserve" text-anchor="middle" x="295.12" y="-5.75" font-family="Helvetica,sans-Serif" font-size="10.00">PoolManager</text>
</a>
</g>
</g>
<!-- Node12&#45;&gt;Node1 -->
<g id="edge13_Node000001_Node000012" class="edge">
<title>Node12&#45;&gt;Node1</title>
<g id="a_edge13_Node000001_Node000012"><a xlink:title=" ">
<path fill="none" stroke="#9a32cd" stroke-dasharray="5,2" d="M370.89,-26.74C402.21,-33.87 438,-45.2 467,-63 502.66,-84.89 532.94,-124.69 547.93,-146.66"/>
<polygon fill="#9a32cd" stroke="#9a32cd" points="372.01,-23.4 361.49,-24.71 370.53,-30.24 372.01,-23.4"/>
</a>
</g>
<text xml:space="preserve" text-anchor="start" x="400.62" y="-69" font-family="Helvetica,sans-Serif" font-size="10.00" fill="grey">_poolManager</text>
</g>
</g>
</svg>
