<?xml version="1.0" encoding="UTF-8" standalone="no"?>
<!DOCTYPE svg PUBLIC "-//W3C//DTD SVG 1.1//EN"
 "http://www.w3.org/Graphics/SVG/1.1/DTD/svg11.dtd">
<!-- Generated by graphviz version 15.0.0 (20260523.1842)
 -->
<!-- Title: BalloonParty.Editor.PaintSplashViewEditor Pages: 1 -->
<svg width="854pt" height="205pt"
 viewBox="0.00 0.00 854.00 205.00" xmlns="http://www.w3.org/2000/svg" xmlns:xlink="http://www.w3.org/1999/xlink">
<g id="graph0" class="graph" transform="scale(1 1) rotate(0) translate(4 200.5)">
<title>BalloonParty.Editor.PaintSplashViewEditor</title>
<!-- Node1 -->
<g id="Node000001" class="node">
<title>Node1</title>
<g id="a_Node000001"><a xlink:title=" ">
<polygon fill="#999999" stroke="#666666" points="846.25,-135.5 723,-135.5 723,-105 846.25,-105 846.25,-135.5"/>
<text xml:space="preserve" text-anchor="start" x="731" y="-122" font-family="Helvetica,sans-Serif" font-size="10.00">BalloonParty.Editor.Paint</text>
<text xml:space="preserve" text-anchor="middle" x="784.62" y="-110.75" font-family="Helvetica,sans-Serif" font-size="10.00">SplashViewEditor</text>
</a>
</g>
</g>
<!-- Node2 -->
<g id="Node000002" class="node">
<title>Node2</title>
<g id="a_Node000002"><a xlink:title=" ">
<polygon fill="white" stroke="#666666" points="614.25,-150.88 521,-150.88 521,-131.62 614.25,-131.62 614.25,-150.88"/>
<text xml:space="preserve" text-anchor="middle" x="567.62" y="-137.38" font-family="Helvetica,sans-Serif" font-size="10.00">NaughtyInspector</text>
</a>
</g>
</g>
<!-- Node2&#45;&gt;Node1 -->
<g id="edge1_Node000001_Node000002" class="edge">
<title>Node2&#45;&gt;Node1</title>
<g id="a_edge1_Node000001_Node000002"><a xlink:title=" ">
<path fill="none" stroke="#63b8ff" d="M625.86,-135.66C655.8,-132.74 692.44,-129.16 722.88,-126.18"/>
<polygon fill="#63b8ff" stroke="#63b8ff" points="625.87,-132.14 616.25,-136.6 626.55,-139.11 625.87,-132.14"/>
</a>
</g>
</g>
<!-- Node3 -->
<g id="Node000003" class="node">
<title>Node3</title>
<g id="a_Node000003"><a xlink:href="class_balloon_party_1_1_editor_1_1_effect_preview_1_1_effect_view_preview_player.html" target="_top" xlink:title="Reusable editor preview player for Shared.Pool.EffectView subclasses.">
<polygon fill="white" stroke="#666666" points="649.5,-113.5 485.75,-113.5 485.75,-83 649.5,-83 649.5,-113.5"/>
<text xml:space="preserve" text-anchor="start" x="493.75" y="-100" font-family="Helvetica,sans-Serif" font-size="10.00">BalloonParty.Editor.Effect</text>
<text xml:space="preserve" text-anchor="middle" x="567.62" y="-88.75" font-family="Helvetica,sans-Serif" font-size="10.00">Preview.EffectViewPreviewPlayer</text>
</a>
</g>
</g>
<!-- Node3&#45;&gt;Node1 -->
<g id="edge2_Node000001_Node000003" class="edge">
<title>Node3&#45;&gt;Node1</title>
<g id="a_edge2_Node000001_Node000003"><a xlink:title=" ">
<path fill="none" stroke="#9a32cd" stroke-dasharray="5,2" d="M661.05,-102.89C675.77,-104 690.82,-105.35 705,-107 710.78,-107.67 716.77,-108.48 722.76,-109.36"/>
<polygon fill="#9a32cd" stroke="#9a32cd" points="661.61,-99.42 651.38,-102.2 661.11,-106.4 661.61,-99.42"/>
</a>
</g>
<text xml:space="preserve" text-anchor="start" x="670.5" y="-113" font-family="Helvetica,sans-Serif" font-size="10.00" fill="grey">_player</text>
</g>
<!-- Node4 -->
<g id="Node000004" class="node">
<title>Node4</title>
<g id="a_Node000004"><a xlink:href="class_balloon_party_1_1_editor_1_1_editor_u_i_1_1_editor_animation_loop.html" target="_top" xlink:title="Manages a play/pause/stop animation loop driven by EditorApplication.update.">
<polygon fill="white" stroke="#666666" points="378.5,-196.5 252.25,-196.5 252.25,-166 378.5,-166 378.5,-196.5"/>
<text xml:space="preserve" text-anchor="start" x="260.25" y="-183" font-family="Helvetica,sans-Serif" font-size="10.00">BalloonParty.Editor.Editor</text>
<text xml:space="preserve" text-anchor="middle" x="315.38" y="-171.75" font-family="Helvetica,sans-Serif" font-size="10.00">UI.EditorAnimationLoop</text>
</a>
</g>
</g>
<!-- Node4&#45;&gt;Node3 -->
<g id="edge3_Node000003_Node000004" class="edge">
<title>Node4&#45;&gt;Node3</title>
<g id="a_edge3_Node000003_Node000004"><a xlink:title=" ">
<path fill="none" stroke="#9a32cd" stroke-dasharray="5,2" d="M374.49,-161.89C402.73,-152.33 437.11,-140.46 467.75,-129.25 475.81,-126.3 477.63,-125.03 485.75,-122.25 494.06,-119.41 502.92,-116.58 511.62,-113.91"/>
<polygon fill="#9a32cd" stroke="#9a32cd" points="373.38,-158.57 365.03,-165.09 375.62,-165.2 373.38,-158.57"/>
</a>
</g>
<text xml:space="preserve" text-anchor="start" x="414.12" y="-155.85" font-family="Helvetica,sans-Serif" font-size="10.00" fill="grey">_animLoop</text>
</g>
<!-- Node5 -->
<g id="Node000005" class="node">
<title>Node5</title>
<g id="a_Node000005"><a xlink:href="class_balloon_party_1_1_editor_1_1_editor_u_i_1_1_palette_color_picker.html" target="_top" xlink:title="Reusable palette color picker and swatch drawing for editor UI.">
<polygon fill="white" stroke="#666666" points="378.5,-79.5 252.25,-79.5 252.25,-49 378.5,-49 378.5,-79.5"/>
<text xml:space="preserve" text-anchor="start" x="260.25" y="-66" font-family="Helvetica,sans-Serif" font-size="10.00">BalloonParty.Editor.Editor</text>
<text xml:space="preserve" text-anchor="middle" x="315.38" y="-54.75" font-family="Helvetica,sans-Serif" font-size="10.00">UI.PaletteColorPicker</text>
</a>
</g>
</g>
<!-- Node5&#45;&gt;Node3 -->
<g id="edge4_Node000003_Node000005" class="edge">
<title>Node5&#45;&gt;Node3</title>
<g id="a_edge4_Node000003_Node000005"><a xlink:title=" ">
<path fill="none" stroke="#9a32cd" stroke-dasharray="5,2" d="M389.78,-73.63C414.56,-76.84 442.36,-80.51 467.75,-84 473.51,-84.79 479.45,-85.62 485.43,-86.46"/>
<polygon fill="#9a32cd" stroke="#9a32cd" points="390.5,-70.19 380.13,-72.38 389.6,-77.13 390.5,-70.19"/>
</a>
</g>
<text xml:space="preserve" text-anchor="start" x="410.75" y="-90" font-family="Helvetica,sans-Serif" font-size="10.00" fill="grey">_colorPicker</text>
</g>
<!-- Node6 -->
<g id="Node000006" class="node">
<title>Node6</title>
<g id="a_Node000006"><a xlink:href="class_balloon_party_1_1_editor_1_1_editor_u_i_1_1_config_asset_cache-1-g.html" target="_top" xlink:title="Lazily finds and caches a ScriptableObject asset by type via AssetDatabase.FindAssets.">
<polygon fill="white" stroke="#666666" points="136,-105.5 0,-105.5 0,-75 136,-75 136,-105.5"/>
<text xml:space="preserve" text-anchor="start" x="8" y="-92" font-family="Helvetica,sans-Serif" font-size="10.00">BalloonParty.Editor.Editor</text>
<text xml:space="preserve" text-anchor="middle" x="68" y="-80.75" font-family="Helvetica,sans-Serif" font-size="10.00">UI.ConfigAssetCache&lt; T &gt;</text>
</a>
</g>
</g>
<!-- Node6&#45;&gt;Node3 -->
<g id="edge6_Node000003_Node000006" class="edge">
<title>Node6&#45;&gt;Node3</title>
<g id="a_edge6_Node000003_Node000006"><a xlink:title=" ">
<path fill="none" stroke="#9a32cd" stroke-dasharray="5,2" d="M147.41,-100.77C149.63,-100.95 151.83,-101.11 154,-101.25 293.16,-110.22 328.32,-103.36 467.75,-101.25 473.5,-101.16 479.44,-101.05 485.42,-100.91"/>
<polygon fill="#9a32cd" stroke="#9a32cd" points="147.98,-97.31 137.71,-99.89 147.35,-104.28 147.98,-97.31"/>
</a>
</g>
<text xml:space="preserve" text-anchor="start" x="272.25" y="-127" font-family="Helvetica,sans-Serif" font-size="10.00" fill="grey">_gameConfigCache</text>
<text xml:space="preserve" text-anchor="start" x="272.25" y="-111.75" font-family="Helvetica,sans-Serif" font-size="10.00" fill="grey">_itemConfigCache</text>
</g>
<!-- Node6&#45;&gt;Node5 -->
<g id="edge5_Node000005_Node000006" class="edge">
<title>Node6&#45;&gt;Node5</title>
<g id="a_edge5_Node000005_Node000006"><a xlink:title=" ">
<path fill="none" stroke="#9a32cd" stroke-dasharray="5,2" d="M147.59,-81.92C181.28,-78.35 220.08,-74.24 251.78,-70.88"/>
<polygon fill="#9a32cd" stroke="#9a32cd" points="147.45,-78.42 137.88,-82.95 148.19,-85.38 147.45,-78.42"/>
</a>
</g>
<text xml:space="preserve" text-anchor="start" x="157" y="-87.1" font-family="Helvetica,sans-Serif" font-size="10.00" fill="grey">_paletteCache</text>
</g>
<!-- Node7 -->
<g id="Node000007" class="node">
<title>Node7</title>
<g id="a_Node000007"><a xlink:href="interface_balloon_party_1_1_editor_1_1_effect_preview_1_1_i_effect_preview_module.html" target="_top" xlink:title="Pluggable preview module for EffectViewPreviewPlayer.">
<polygon fill="white" stroke="#666666" points="389.75,-30.5 241,-30.5 241,0 389.75,0 389.75,-30.5"/>
<text xml:space="preserve" text-anchor="start" x="249" y="-17" font-family="Helvetica,sans-Serif" font-size="10.00">BalloonParty.Editor.Effect</text>
<text xml:space="preserve" text-anchor="middle" x="315.38" y="-5.75" font-family="Helvetica,sans-Serif" font-size="10.00">Preview.IEffectPreviewModule</text>
</a>
</g>
</g>
<!-- Node7&#45;&gt;Node3 -->
<g id="edge7_Node000003_Node000007" class="edge">
<title>Node7&#45;&gt;Node3</title>
<g id="a_edge7_Node000003_Node000007"><a xlink:title=" ">
<path fill="none" stroke="#9a32cd" stroke-dasharray="5,2" d="M396.15,-33.72C419.45,-39.78 444.82,-47.03 467.75,-55 490.4,-62.87 515.12,-73.69 534.18,-82.53"/>
<polygon fill="#9a32cd" stroke="#9a32cd" points="397.27,-30.39 386.72,-31.31 395.54,-37.17 397.27,-30.39"/>
</a>
</g>
<text xml:space="preserve" text-anchor="start" x="419.38" y="-61" font-family="Helvetica,sans-Serif" font-size="10.00" fill="grey">_module</text>
</g>
</g>
</svg>
