<?xml version="1.0" encoding="UTF-8" standalone="no"?>
<!DOCTYPE svg PUBLIC "-//W3C//DTD SVG 1.1//EN"
 "http://www.w3.org/Graphics/SVG/1.1/DTD/svg11.dtd">
<!-- Generated by graphviz version 15.0.0 (20260523.1842)
 -->
<!-- Title: BalloonParty.UI.Score.ColorProgressBar Pages: 1 -->
<!--zoomable 686 -->

<svg id="main" version="1.1" xmlns="http://www.w3.org/2000/svg" xmlns:xlink="http://www.w3.org/1999/xlink" xml:space="preserve" onload="init(evt)">

<style type="text/css"><![CDATA[
.node, .edge {opacity: 0.7;}
.node.selected, .edge.selected {opacity: 1;}
.edge:hover path { stroke: red; }
.edge:hover polygon { stroke: red; fill: red; }
]]></style>

<defs>
  <circle id="rim" cx="0" cy="0" r="7"/>
  <circle id="rim2" cx="0" cy="0" r="3.5"/>
  <g id="zoomPlus">
    <use xlink:href="#rim" fill="#404040"><set attributeName="fill" to="#808080" begin="zoomplus.mouseover" end="zoomplus.mouseout"/></use>
    <path d="M-4,0h8M0,-4v8" fill="none" stroke="white" stroke-width="1.5" pointer-events="none"/>
  </g>
  <g id="zoomMin">
    <use xlink:href="#rim" fill="#404040"><set attributeName="fill" to="#808080" begin="zoomminus.mouseover" end="zoomminus.mouseout"/></use>
    <path d="M-4,0h8" fill="none" stroke="white" stroke-width="1.5" pointer-events="none"/>
  </g>
  <g id="arrowUp" transform="translate(30 24)">
    <use xlink:href="#rim"/>
    <path pointer-events="none" fill="none" stroke="white" stroke-width="1.5" d="M0,-3.0v7 M-2.5,-0.5L0,-3.0L2.5,-0.5"/>
  </g>
  <g id="arrowRight" transform="rotate(90) translate(36 -43)">
    <use xlink:href="#rim"/>
    <path pointer-events="none" fill="none" stroke="white" stroke-width="1.5" d="M0,-3.0v7 M-2.5,-0.5L0,-3.0L2.5,-0.5"/>
  </g>
  <g id="arrowDown" transform="rotate(180) translate(-30 -48)">
    <use xlink:href="#rim"/>
    <path pointer-events="none" fill="none" stroke="white" stroke-width="1.5" d="M0,-3.0v7 M-2.5,-0.5L0,-3.0L2.5,-0.5"/>
  </g>
  <g id="arrowLeft" transform="rotate(270) translate(-36 17)">
    <use xlink:href="#rim"/>
    <path pointer-events="none" fill="none" stroke="white" stroke-width="1.5" d="M0,-3.0v7 M-2.5,-0.5L0,-3.0L2.5,-0.5"/>
  </g>
  <g id="resetDef">
    <use xlink:href="#rim2" fill="#404040"><set attributeName="fill" to="#808080" begin="reset.mouseover" end="reset.mouseout"/></use>
  </g>
</defs>
<script type="application/ecmascript">
var viewWidth = 939;
var viewHeight = 686;
var sectionId = 'dynsection-1';
</script>
<script type="application/ecmascript" xlink:href="svg.min.js"/>
<svg id="graph" class="graph">
<g id="viewport">
<title>BalloonParty.UI.Score.ColorProgressBar</title>
<!-- Node1 -->
<g id="Node000001" class="node">
<title>Node1</title>
<g id="a_Node000001"><a xlink:title=" ">
<polygon fill="#999999" stroke="#666666" points="931,-438.76 792.75,-438.76 792.75,-408.26 931,-408.26 931,-438.76"/>
<text xml:space="preserve" text-anchor="start" x="800.75" y="-425.26" font-family="Helvetica,sans-Serif" font-size="10.00">BalloonParty.UI.Score.Color</text>
<text xml:space="preserve" text-anchor="middle" x="861.88" y="-414.01" font-family="Helvetica,sans-Serif" font-size="10.00">ProgressBar</text>
</a>
</g>
</g>
<!-- Node2 -->
<g id="Node000002" class="node">
<title>Node2</title>
<g id="a_Node000002"><a xlink:title=" ">
<polygon fill="white" stroke="#666666" points="118.75,-634.13 35.25,-634.13 35.25,-614.88 118.75,-614.88 118.75,-634.13"/>
<text xml:space="preserve" text-anchor="middle" x="77" y="-620.63" font-family="Helvetica,sans-Serif" font-size="10.00">MonoBehaviour</text>
</a>
</g>
</g>
<!-- Node2&#45;&gt;Node1 -->
<g id="edge1_Node000001_Node000002" class="edge">
<title>Node2&#45;&gt;Node1</title>
<g id="a_edge1_Node000001_Node000002"><a xlink:title=" ">
<path fill="none" stroke="#63b8ff" d="M114.94,-638.2C132.04,-643.84 152.79,-649.7 172,-652.51 188.49,-654.91 192.84,-652.75 209.5,-652.51 462.01,-648.84 569.08,-741.06 774.75,-594.51 828.76,-556.02 850.89,-473.67 858.03,-439.19"/>
<polygon fill="#63b8ff" stroke="#63b8ff" points="116.31,-634.97 105.71,-635.05 114.04,-641.6 116.31,-634.97"/>
</a>
</g>
</g>
<!-- Node4 -->
<g id="Node000004" class="node">
<title>Node4</title>
<g id="a_Node000004"><a xlink:href="class_balloon_party_1_1_u_i_1_1_score_1_1_progress_notice.html" target="_top" xlink:title=" ">
<polygon fill="white" stroke="#666666" points="661.5,-550.76 507.5,-550.76 507.5,-520.26 661.5,-520.26 661.5,-550.76"/>
<text xml:space="preserve" text-anchor="start" x="515.5" y="-537.26" font-family="Helvetica,sans-Serif" font-size="10.00">BalloonParty.UI.Score.Progress</text>
<text xml:space="preserve" text-anchor="middle" x="584.5" y="-526.01" font-family="Helvetica,sans-Serif" font-size="10.00">Notice</text>
</a>
</g>
</g>
<!-- Node2&#45;&gt;Node4 -->
<g id="edge4_Node000004_Node000002" class="edge">
<title>Node2&#45;&gt;Node4</title>
<g id="a_edge4_Node000004_Node000002"><a xlink:title=" ">
<path fill="none" stroke="#63b8ff" d="M130.37,-633.05C213.19,-643.75 376.56,-653.16 489.5,-584.51 500.89,-577.58 496.67,-568.28 507.5,-560.51 512.47,-556.94 517.97,-553.86 523.68,-551.21"/>
<polygon fill="#63b8ff" stroke="#63b8ff" points="130.87,-629.58 120.49,-631.71 129.93,-636.52 130.87,-629.58"/>
</a>
</g>
</g>
<!-- Node6 -->
<g id="Node000006" class="node">
<title>Node6</title>
<g id="a_Node000006"><a xlink:href="class_balloon_party_1_1_shared_1_1_rendering_1_1_colorable_renderer.html" target="_top" xlink:title="Non&#45;generic MonoBehaviour base that implements IColorableRenderer.">
<polygon fill="white" stroke="#666666" points="381.5,-593.76 227.5,-593.76 227.5,-563.26 381.5,-563.26 381.5,-593.76"/>
<text xml:space="preserve" text-anchor="start" x="235.5" y="-580.26" font-family="Helvetica,sans-Serif" font-size="10.00">BalloonParty.Shared.Rendering.</text>
<text xml:space="preserve" text-anchor="middle" x="304.5" y="-569.01" font-family="Helvetica,sans-Serif" font-size="10.00">ColorableRenderer</text>
</a>
</g>
</g>
<!-- Node2&#45;&gt;Node6 -->
<g id="edge7_Node000006_Node000002" class="edge">
<title>Node2&#45;&gt;Node6</title>
<g id="a_edge7_Node000006_Node000002"><a xlink:title=" ">
<path fill="none" stroke="#63b8ff" d="M130.13,-613.87C158.91,-608 195.19,-600.6 227.11,-594.09"/>
<polygon fill="#63b8ff" stroke="#63b8ff" points="129.68,-610.39 120.58,-615.82 131.08,-617.25 129.68,-610.39"/>
</a>
</g>
</g>
<!-- Node19 -->
<g id="Node000019" class="node">
<title>Node19</title>
<g id="a_Node000019"><a xlink:href="class_balloon_party_1_1_u_i_1_1_score_1_1_flying_trail.html" target="_top" xlink:title=" ">
<polygon fill="white" stroke="#666666" points="375.12,-413.76 233.88,-413.76 233.88,-383.26 375.12,-383.26 375.12,-413.76"/>
<text xml:space="preserve" text-anchor="start" x="241.88" y="-400.26" font-family="Helvetica,sans-Serif" font-size="10.00">BalloonParty.UI.Score.Flying</text>
<text xml:space="preserve" text-anchor="middle" x="304.5" y="-389.01" font-family="Helvetica,sans-Serif" font-size="10.00">Trail</text>
</a>
</g>
</g>
<!-- Node2&#45;&gt;Node19 -->
<g id="edge29_Node000019_Node000002" class="edge">
<title>Node2&#45;&gt;Node19</title>
<g id="a_edge29_Node000019_Node000002"><a xlink:title=" ">
<path fill="none" stroke="#63b8ff" d="M129.76,-616.02C138.53,-612.84 147.04,-608.49 154,-602.51 198.57,-564.22 188.54,-537.4 209.5,-482.51 219.28,-456.89 208.33,-443.1 227.5,-423.51 231,-419.93 235.01,-416.87 239.33,-414.24"/>
<polygon fill="#63b8ff" stroke="#63b8ff" points="128.99,-612.59 120.46,-618.89 131.05,-619.28 128.99,-612.59"/>
</a>
</g>
</g>
<!-- Node3 -->
<g id="Node000003" class="node">
<title>Node3</title>
<g id="a_Node000003"><a xlink:href="interface_balloon_party_1_1_game_1_1_score_1_1_i_trail_target.html" target="_top" xlink:title=" ">
<polygon fill="white" stroke="#666666" points="649.88,-599.76 519.12,-599.76 519.12,-569.26 649.88,-569.26 649.88,-599.76"/>
<text xml:space="preserve" text-anchor="start" x="527.12" y="-586.26" font-family="Helvetica,sans-Serif" font-size="10.00">BalloonParty.Game.Score.</text>
<text xml:space="preserve" text-anchor="middle" x="584.5" y="-575.01" font-family="Helvetica,sans-Serif" font-size="10.00">ITrailTarget</text>
</a>
</g>
</g>
<!-- Node3&#45;&gt;Node1 -->
<g id="edge2_Node000001_Node000003" class="edge">
<title>Node3&#45;&gt;Node1</title>
<g id="a_edge2_Node000001_Node000003"><a xlink:title=" ">
<path fill="none" stroke="#63b8ff" d="M661.36,-593.56C698.14,-594.27 741.45,-589.36 774.75,-568.51 823.14,-538.2 847.78,-469.93 856.78,-439.12"/>
<polygon fill="#63b8ff" stroke="#63b8ff" points="661.8,-590.07 651.68,-593.22 661.56,-597.06 661.8,-590.07"/>
</a>
</g>
</g>
<!-- Node4&#45;&gt;Node1 -->
<g id="edge3_Node000001_Node000004" class="edge">
<title>Node4&#45;&gt;Node1</title>
<g id="a_edge3_Node000001_Node000004"><a xlink:title=" ">
<path fill="none" stroke="#9a32cd" stroke-dasharray="5,2" d="M673.02,-533.26C706.25,-529.59 743.57,-521.93 774.75,-506.51 806.95,-490.57 834.96,-458.27 849.74,-439"/>
<polygon fill="#9a32cd" stroke="#9a32cd" points="673.04,-529.74 663.43,-534.21 673.73,-536.71 673.04,-529.74"/>
</a>
</g>
<text xml:space="preserve" text-anchor="start" x="682.5" y="-553.67" font-family="Helvetica,sans-Serif" font-size="10.00" fill="grey">_pointNoticePrefab</text>
<text xml:space="preserve" text-anchor="start" x="682.5" y="-538.42" font-family="Helvetica,sans-Serif" font-size="10.00" fill="grey">_streakNoticePrefab</text>
</g>
<!-- Node5 -->
<g id="Node000005" class="node">
<title>Node5</title>
<g id="a_Node000005"><a xlink:href="interface_balloon_party_1_1_shared_1_1_pool_1_1_i_poolable.html" target="_top" xlink:title=" ">
<polygon fill="white" stroke="#666666" points="141.62,-530.76 12.38,-530.76 12.38,-500.26 141.62,-500.26 141.62,-530.76"/>
<text xml:space="preserve" text-anchor="start" x="20.38" y="-517.26" font-family="Helvetica,sans-Serif" font-size="10.00">BalloonParty.Shared.Pool.</text>
<text xml:space="preserve" text-anchor="middle" x="77" y="-506.01" font-family="Helvetica,sans-Serif" font-size="10.00">IPoolable</text>
</a>
</g>
</g>
<!-- Node5&#45;&gt;Node4 -->
<g id="edge5_Node000004_Node000005" class="edge">
<title>Node5&#45;&gt;Node4</title>
<g id="a_edge5_Node000004_Node000005"><a xlink:title=" ">
<path fill="none" stroke="#63b8ff" d="M153.29,-518.48C248.51,-522.25 411.55,-528.7 507.23,-532.49"/>
<polygon fill="#63b8ff" stroke="#63b8ff" points="153.66,-515 143.53,-518.1 153.39,-521.99 153.66,-515"/>
</a>
</g>
</g>
<!-- Node5&#45;&gt;Node19 -->
<g id="edge30_Node000019_Node000005" class="edge">
<title>Node5&#45;&gt;Node19</title>
<g id="a_edge30_Node000019_Node000005"><a xlink:title=" ">
<path fill="none" stroke="#63b8ff" d="M143.84,-495.69C166.57,-486.47 190.95,-473.67 209.5,-456.51 221.76,-445.16 214.66,-434.2 227.5,-423.51 231.88,-419.86 236.8,-416.74 241.98,-414.07"/>
<polygon fill="#63b8ff" stroke="#63b8ff" points="142.68,-492.38 134.61,-499.25 145.2,-498.91 142.68,-492.38"/>
</a>
</g>
</g>
<!-- Node6&#45;&gt;Node4 -->
<g id="edge6_Node000004_Node000006" class="edge">
<title>Node6&#45;&gt;Node4</title>
<g id="a_edge6_Node000004_Node000006"><a xlink:title=" ">
<path fill="none" stroke="#9a32cd" stroke-dasharray="5,2" d="M393.02,-564.97C429.71,-559.29 471.96,-552.76 507.34,-547.29"/>
<polygon fill="#9a32cd" stroke="#9a32cd" points="392.68,-561.48 383.33,-566.47 393.75,-568.4 392.68,-561.48"/>
</a>
</g>
<text xml:space="preserve" text-anchor="start" x="402.5" y="-569.37" font-family="Helvetica,sans-Serif" font-size="10.00" fill="grey">_colorableRenderer</text>
</g>
<!-- Node7 -->
<g id="Node000007" class="node">
<title>Node7</title>
<g id="a_Node000007"><a xlink:href="interface_balloon_party_1_1_shared_1_1_rendering_1_1_i_colorable_renderer.html" target="_top" xlink:title=" ">
<polygon fill="white" stroke="#666666" points="154,-593.76 0,-593.76 0,-563.26 154,-563.26 154,-593.76"/>
<text xml:space="preserve" text-anchor="start" x="8" y="-580.26" font-family="Helvetica,sans-Serif" font-size="10.00">BalloonParty.Shared.Rendering.</text>
<text xml:space="preserve" text-anchor="middle" x="77" y="-569.01" font-family="Helvetica,sans-Serif" font-size="10.00">IColorableRenderer</text>
</a>
</g>
</g>
<!-- Node7&#45;&gt;Node6 -->
<g id="edge8_Node000006_Node000007" class="edge">
<title>Node7&#45;&gt;Node6</title>
<g id="a_edge8_Node000006_Node000007"><a xlink:title=" ">
<path fill="none" stroke="#63b8ff" d="M165.8,-578.51C186.08,-578.51 207.49,-578.51 227.23,-578.51"/>
<polygon fill="#63b8ff" stroke="#63b8ff" points="165.86,-575.01 155.86,-578.51 165.86,-582.01 165.86,-575.01"/>
</a>
</g>
</g>
<!-- Node8 -->
<g id="Node000008" class="node">
<title>Node8</title>
<g id="a_Node000008"><a xlink:href="class_balloon_party_1_1_configuration_1_1_game_palette.html" target="_top" xlink:title=" ">
<polygon fill="white" stroke="#666666" points="371.38,-240.76 237.62,-240.76 237.62,-210.26 371.38,-210.26 371.38,-240.76"/>
<text xml:space="preserve" text-anchor="start" x="245.62" y="-227.26" font-family="Helvetica,sans-Serif" font-size="10.00">BalloonParty.Configuration.</text>
<text xml:space="preserve" text-anchor="middle" x="304.5" y="-216.01" font-family="Helvetica,sans-Serif" font-size="10.00">GamePalette</text>
</a>
</g>
</g>
<!-- Node8&#45;&gt;Node1 -->
<g id="edge9_Node000001_Node000008" class="edge">
<title>Node8&#45;&gt;Node1</title>
<g id="a_edge9_Node000001_Node000008"><a xlink:title=" ">
<path fill="none" stroke="#9a32cd" stroke-dasharray="5,2" d="M374.56,-244.08C382.96,-246.28 391.42,-248.46 399.5,-250.51 515.59,-279.84 549.67,-270.47 661.5,-313.26 714.94,-333.7 724.71,-346.74 774.75,-374.51 794.61,-385.52 816.88,-398.2 833.81,-407.91"/>
<polygon fill="#9a32cd" stroke="#9a32cd" points="375.63,-240.74 365.07,-241.59 373.85,-247.51 375.63,-240.74"/>
</a>
</g>
<text xml:space="preserve" text-anchor="start" x="567.25" y="-319.26" font-family="Helvetica,sans-Serif" font-size="10.00" fill="grey">_palette</text>
</g>
<!-- Node13 -->
<g id="Node000013" class="node">
<title>Node13</title>
<g id="a_Node000013"><a xlink:href="class_balloon_party_1_1_game_1_1_score_1_1_score_controller.html" target="_top" xlink:title=" ">
<polygon fill="white" stroke="#666666" points="649.88,-166.76 519.12,-166.76 519.12,-136.26 649.88,-136.26 649.88,-166.76"/>
<text xml:space="preserve" text-anchor="start" x="527.12" y="-153.26" font-family="Helvetica,sans-Serif" font-size="10.00">BalloonParty.Game.Score.</text>
<text xml:space="preserve" text-anchor="middle" x="584.5" y="-142.01" font-family="Helvetica,sans-Serif" font-size="10.00">ScoreController</text>
</a>
</g>
</g>
<!-- Node8&#45;&gt;Node13 -->
<g id="edge18_Node000013_Node000008" class="edge">
<title>Node8&#45;&gt;Node13</title>
<g id="a_edge18_Node000013_Node000008"><a xlink:title=" ">
<path fill="none" stroke="#9a32cd" stroke-dasharray="5,2" d="M334.28,-203.19C352.06,-190.67 375.92,-176.04 399.5,-168.26 437.88,-155.58 483.05,-151.33 519.03,-150.27"/>
<polygon fill="#9a32cd" stroke="#9a32cd" points="332.33,-200.28 326.29,-208.99 336.44,-205.95 332.33,-200.28"/>
</a>
</g>
<text xml:space="preserve" text-anchor="start" x="427.25" y="-174.26" font-family="Helvetica,sans-Serif" font-size="10.00" fill="grey">_palette</text>
</g>
<!-- Node9 -->
<g id="Node000009" class="node">
<title>Node9</title>
<g id="a_Node000009"><a xlink:title=" ">
<polygon fill="white" stroke="#666666" points="121,-389.13 33,-389.13 33,-369.88 121,-369.88 121,-389.13"/>
<text xml:space="preserve" text-anchor="middle" x="77" y="-375.63" font-family="Helvetica,sans-Serif" font-size="10.00">ScriptableObject</text>
</a>
</g>
</g>
<!-- Node9&#45;&gt;Node8 -->
<g id="edge10_Node000008_Node000009" class="edge">
<title>Node9&#45;&gt;Node8</title>
<g id="a_edge10_Node000008_Node000009"><a xlink:title=" ">
<path fill="none" stroke="#63b8ff" d="M94.4,-361.05C120.15,-333.13 172.78,-280.17 227.5,-249.51 233.05,-246.39 239.06,-243.63 245.19,-241.18"/>
<polygon fill="#63b8ff" stroke="#63b8ff" points="91.89,-358.61 87.76,-368.36 97.07,-363.31 91.89,-358.61"/>
</a>
</g>
</g>
<!-- Node10 -->
<g id="Node000010" class="node">
<title>Node10</title>
<g id="a_Node000010"><a xlink:href="class_balloon_party_1_1_configuration_1_1_palette_entry.html" target="_top" xlink:title=" ">
<polygon fill="white" stroke="#666666" points="143.88,-465.76 10.12,-465.76 10.12,-435.26 143.88,-435.26 143.88,-465.76"/>
<text xml:space="preserve" text-anchor="start" x="18.12" y="-452.26" font-family="Helvetica,sans-Serif" font-size="10.00">BalloonParty.Configuration.</text>
<text xml:space="preserve" text-anchor="middle" x="77" y="-441.01" font-family="Helvetica,sans-Serif" font-size="10.00">PaletteEntry</text>
</a>
</g>
</g>
<!-- Node10&#45;&gt;Node1 -->
<g id="edge31_Node000001_Node000010" class="edge">
<title>Node10&#45;&gt;Node1</title>
<g id="a_edge31_Node000001_Node000010"><a xlink:title=" ">
<path fill="none" stroke="#9a32cd" stroke-dasharray="5,2" d="M155.2,-463.44C178.37,-466.76 203.91,-469.86 227.5,-471.51 309.1,-477.21 651.88,-466.41 661.5,-465.51 712.31,-460.72 724.87,-457.32 774.75,-446.51 784.58,-444.37 794.97,-441.84 805,-439.25"/>
<polygon fill="#9a32cd" stroke="#9a32cd" points="155.93,-460.01 145.52,-462.02 154.91,-466.94 155.93,-460.01"/>
</a>
</g>
<text xml:space="preserve" text-anchor="start" x="417.12" y="-478.26" font-family="Helvetica,sans-Serif" font-size="10.00" fill="grey">_colorConfig</text>
</g>
<!-- Node10&#45;&gt;Node8 -->
<g id="edge11_Node000008_Node000010" class="edge">
<title>Node10&#45;&gt;Node8</title>
<g id="a_edge11_Node000008_Node000010"><a xlink:title=" ">
<path fill="none" stroke="#9a32cd" stroke-dasharray="5,2" d="M117.65,-428.83C130.37,-420.54 143.78,-410.22 154,-398.51 190.25,-356.94 185.36,-337.1 209.5,-287.51 217.68,-270.7 213.42,-261.79 227.5,-249.51 231.15,-246.32 235.22,-243.56 239.53,-241.17"/>
<polygon fill="#9a32cd" stroke="#9a32cd" points="116.05,-425.7 109.42,-433.96 119.75,-431.64 116.05,-425.7"/>
</a>
</g>
<text xml:space="preserve" text-anchor="start" x="175" y="-379.68" font-family="Helvetica,sans-Serif" font-size="10.00" fill="grey">_colors</text>
</g>
<!-- Node11 -->
<g id="Node000011" class="node">
<title>Node11</title>
<g id="a_Node000011"><a xlink:href="interface_balloon_party_1_1_shared_1_1_i_game_configuration.html" target="_top" xlink:title=" ">
<polygon fill="white" stroke="#666666" points="372.5,-106.76 236.5,-106.76 236.5,-76.26 372.5,-76.26 372.5,-106.76"/>
<text xml:space="preserve" text-anchor="start" x="244.5" y="-93.26" font-family="Helvetica,sans-Serif" font-size="10.00">BalloonParty.Shared.IGame</text>
<text xml:space="preserve" text-anchor="middle" x="304.5" y="-82.01" font-family="Helvetica,sans-Serif" font-size="10.00">Configuration</text>
</a>
</g>
</g>
<!-- Node11&#45;&gt;Node1 -->
<g id="edge12_Node000001_Node000011" class="edge">
<title>Node11&#45;&gt;Node1</title>
<g id="a_edge12_Node000001_Node000011"><a xlink:title=" ">
<path fill="none" stroke="#9a32cd" stroke-dasharray="5,2" d="M375.02,-70.64C377.25,-69.34 379.42,-67.96 381.5,-66.51 392.12,-59.04 387.83,-49.19 399.5,-43.51 435.46,-25.99 450.18,-36.14 489.5,-43.51 626.26,-69.11 685.18,-66.03 774.75,-172.51 836.29,-245.66 854.65,-365.13 859.4,-407.77"/>
<polygon fill="#9a32cd" stroke="#9a32cd" points="373.49,-67.49 366.2,-75.18 376.7,-73.72 373.49,-67.49"/>
</a>
</g>
<text xml:space="preserve" text-anchor="start" x="568.75" y="-88.13" font-family="Helvetica,sans-Serif" font-size="10.00" fill="grey">_config</text>
</g>
<!-- Node11&#45;&gt;Node13 -->
<g id="edge17_Node000013_Node000011" class="edge">
<title>Node11&#45;&gt;Node13</title>
<g id="a_edge17_Node000013_Node000011"><a xlink:title=" ">
<path fill="none" stroke="#9a32cd" stroke-dasharray="5,2" d="M384.04,-89.49C417.11,-90.44 455.69,-93.93 489.5,-103.26 514.97,-110.28 541.52,-124.66 559.89,-135.91"/>
<polygon fill="#9a32cd" stroke="#9a32cd" points="384.17,-85.99 374.1,-89.29 384.03,-92.99 384.17,-85.99"/>
</a>
</g>
<text xml:space="preserve" text-anchor="start" x="428.75" y="-109.26" font-family="Helvetica,sans-Serif" font-size="10.00" fill="grey">_config</text>
</g>
<!-- Node17 -->
<g id="Node000017" class="node">
<title>Node17</title>
<g id="a_Node000017"><a xlink:href="class_balloon_party_1_1_game_1_1_score_1_1_score_trail_service.html" target="_top" xlink:title=" ">
<polygon fill="white" stroke="#666666" points="649.88,-369.76 519.12,-369.76 519.12,-339.26 649.88,-339.26 649.88,-369.76"/>
<text xml:space="preserve" text-anchor="start" x="527.12" y="-356.26" font-family="Helvetica,sans-Serif" font-size="10.00">BalloonParty.Game.Score.</text>
<text xml:space="preserve" text-anchor="middle" x="584.5" y="-345.01" font-family="Helvetica,sans-Serif" font-size="10.00">ScoreTrailService</text>
</a>
</g>
</g>
<!-- Node11&#45;&gt;Node17 -->
<g id="edge25_Node000017_Node000011" class="edge">
<title>Node11&#45;&gt;Node17</title>
<g id="a_edge25_Node000017_Node000011"><a xlink:title=" ">
<path fill="none" stroke="#9a32cd" stroke-dasharray="5,2" d="M328.44,-115.39C347.19,-134.68 374.58,-162.34 399.5,-185.51 438.21,-221.5 452.73,-225.28 489.5,-263.26 498.35,-272.39 498.77,-276.26 507.5,-285.51 525.86,-304.94 548.79,-325.29 564.64,-338.81"/>
<polygon fill="#9a32cd" stroke="#9a32cd" points="330.99,-113 321.52,-108.25 325.96,-117.86 330.99,-113"/>
</a>
</g>
<text xml:space="preserve" text-anchor="start" x="428.75" y="-269.26" font-family="Helvetica,sans-Serif" font-size="10.00" fill="grey">_config</text>
</g>
<!-- Node12 -->
<g id="Node000012" class="node">
<title>Node12</title>
<g id="a_Node000012"><a xlink:href="class_balloon_party_1_1_shared_1_1_pool_1_1_pool_manager.html" target="_top" xlink:title=" ">
<polygon fill="white" stroke="#666666" points="369.12,-462.76 239.88,-462.76 239.88,-432.26 369.12,-432.26 369.12,-462.76"/>
<text xml:space="preserve" text-anchor="start" x="247.88" y="-449.26" font-family="Helvetica,sans-Serif" font-size="10.00">BalloonParty.Shared.Pool.</text>
<text xml:space="preserve" text-anchor="middle" x="304.5" y="-438.01" font-family="Helvetica,sans-Serif" font-size="10.00">PoolManager</text>
</a>
</g>
</g>
<!-- Node12&#45;&gt;Node1 -->
<g id="edge13_Node000001_Node000012" class="edge">
<title>Node12&#45;&gt;Node1</title>
<g id="a_edge13_Node000001_Node000012"><a xlink:title=" ">
<path fill="none" stroke="#9a32cd" stroke-dasharray="5,2" d="M380.88,-447.51C414.18,-447.3 453.8,-446.76 489.5,-445.51 595.36,-441.8 718,-433.81 792.47,-428.55"/>
<polygon fill="#9a32cd" stroke="#9a32cd" points="380.88,-444.01 370.9,-447.56 380.92,-451.01 380.88,-444.01"/>
</a>
</g>
<text xml:space="preserve" text-anchor="start" x="554.12" y="-450.67" font-family="Helvetica,sans-Serif" font-size="10.00" fill="grey">_poolManager</text>
</g>
<!-- Node12&#45;&gt;Node17 -->
<g id="edge27_Node000017_Node000012" class="edge">
<title>Node12&#45;&gt;Node17</title>
<g id="a_edge27_Node000017_Node000012"><a xlink:title=" ">
<path fill="none" stroke="#9a32cd" stroke-dasharray="5,2" d="M380.5,-432.03C422.15,-423.03 469.48,-412.02 489.5,-404.51 513.9,-395.34 539.94,-381.11 558.41,-370.16"/>
<polygon fill="#9a32cd" stroke="#9a32cd" points="380.02,-428.55 370.97,-434.07 381.49,-435.4 380.02,-428.55"/>
</a>
</g>
<text xml:space="preserve" text-anchor="start" x="414.12" y="-433.15" font-family="Helvetica,sans-Serif" font-size="10.00" fill="grey">_poolManager</text>
</g>
<!-- Node13&#45;&gt;Node1 -->
<g id="edge14_Node000001_Node000013" class="edge">
<title>Node13&#45;&gt;Node1</title>
<g id="a_edge14_Node000001_Node000013"><a xlink:title=" ">
<path fill="none" stroke="#9a32cd" stroke-dasharray="5,2" d="M660.72,-169.95C698.81,-182.49 743.48,-202.53 774.75,-233.26 826.73,-284.34 850.18,-372.49 857.85,-408.01"/>
<polygon fill="#9a32cd" stroke="#9a32cd" points="662.2,-166.74 651.61,-167.06 660.09,-173.42 662.2,-166.74"/>
</a>
</g>
<text xml:space="preserve" text-anchor="start" x="691.5" y="-239.26" font-family="Helvetica,sans-Serif" font-size="10.00" fill="grey">_scoreController</text>
</g>
<!-- Node14 -->
<g id="Node000014" class="node">
<title>Node14</title>
<g id="a_Node000014"><a xlink:title=" ">
<polygon fill="white" stroke="#666666" points="333.5,-278.13 275.5,-278.13 275.5,-258.88 333.5,-258.88 333.5,-278.13"/>
<text xml:space="preserve" text-anchor="middle" x="304.5" y="-264.63" font-family="Helvetica,sans-Serif" font-size="10.00">IStartable</text>
</a>
</g>
</g>
<!-- Node14&#45;&gt;Node13 -->
<g id="edge15_Node000013_Node000014" class="edge">
<title>Node14&#45;&gt;Node13</title>
<g id="a_edge15_Node000013_Node000014"><a xlink:title=" ">
<path fill="none" stroke="#63b8ff" d="M345.11,-264.31C383.54,-259.1 442.75,-247.99 489.5,-225.51 520.57,-210.56 550.87,-183.88 568.34,-166.97"/>
<polygon fill="#63b8ff" stroke="#63b8ff" points="344.86,-260.82 335.39,-265.56 345.75,-267.76 344.86,-260.82"/>
</a>
</g>
</g>
<!-- Node14&#45;&gt;Node17 -->
<g id="edge23_Node000017_Node000014" class="edge">
<title>Node14&#45;&gt;Node17</title>
<g id="a_edge23_Node000017_Node000014"><a xlink:title=" ">
<path fill="none" stroke="#63b8ff" d="M344.85,-274.24C382.63,-280.39 440.95,-291.63 489.5,-308.51 512.67,-316.56 537.54,-328.91 555.88,-338.79"/>
<polygon fill="#63b8ff" stroke="#63b8ff" points="345.74,-270.83 335.31,-272.72 344.64,-277.75 345.74,-270.83"/>
</a>
</g>
</g>
<!-- Node15 -->
<g id="Node000015" class="node">
<title>Node15</title>
<g id="a_Node000015"><a xlink:title=" ">
<polygon fill="white" stroke="#666666" points="110.88,-144.13 43.12,-144.13 43.12,-124.88 110.88,-124.88 110.88,-144.13"/>
<text xml:space="preserve" text-anchor="middle" x="77" y="-130.63" font-family="Helvetica,sans-Serif" font-size="10.00">IDisposable</text>
</a>
</g>
</g>
<!-- Node15&#45;&gt;Node13 -->
<g id="edge16_Node000013_Node000015" class="edge">
<title>Node15&#45;&gt;Node13</title>
<g id="a_edge16_Node000013_Node000015"><a xlink:title=" ">
<path fill="none" stroke="#63b8ff" d="M122.53,-136C212.12,-139.02 414.46,-145.82 518.71,-149.33"/>
<polygon fill="#63b8ff" stroke="#63b8ff" points="122.79,-132.51 112.68,-135.67 122.56,-139.51 122.79,-132.51"/>
</a>
</g>
</g>
<!-- Node16 -->
<g id="Node000016" class="node">
<title>Node16</title>
<g id="a_Node000016"><a xlink:href="class_balloon_party_1_1_game_1_1_score_1_1_color_streak_tracker.html" target="_top" xlink:title=" ">
<polygon fill="white" stroke="#666666" points="369.88,-57.76 239.12,-57.76 239.12,-27.26 369.88,-27.26 369.88,-57.76"/>
<text xml:space="preserve" text-anchor="start" x="247.12" y="-44.26" font-family="Helvetica,sans-Serif" font-size="10.00">BalloonParty.Game.Score.</text>
<text xml:space="preserve" text-anchor="middle" x="304.5" y="-33.01" font-family="Helvetica,sans-Serif" font-size="10.00">ColorStreakTracker</text>
</a>
</g>
</g>
<!-- Node15&#45;&gt;Node16 -->
<g id="edge20_Node000016_Node000015" class="edge">
<title>Node15&#45;&gt;Node16</title>
<g id="a_edge20_Node000016_Node000015"><a xlink:title=" ">
<path fill="none" stroke="#63b8ff" d="M108.73,-119.61C138.68,-105.36 185.69,-83.7 227.5,-67.51 235.79,-64.29 244.68,-61.13 253.36,-58.18"/>
<polygon fill="#63b8ff" stroke="#63b8ff" points="107.39,-116.37 99.88,-123.84 110.41,-122.68 107.39,-116.37"/>
</a>
</g>
</g>
<!-- Node15&#45;&gt;Node17 -->
<g id="edge24_Node000017_Node000015" class="edge">
<title>Node15&#45;&gt;Node17</title>
<g id="a_edge24_Node000017_Node000015"><a xlink:title=" ">
<path fill="none" stroke="#63b8ff" d="M86.01,-154.88C103.96,-197.38 151.83,-294.92 227.5,-335.51 276.18,-361.61 430.05,-360.55 518.76,-357.51"/>
<polygon fill="#63b8ff" stroke="#63b8ff" points="89.34,-153.77 82.32,-145.84 82.86,-156.42 89.34,-153.77"/>
</a>
</g>
</g>
<!-- Node16&#45;&gt;Node1 -->
<g id="edge21_Node000001_Node000016" class="edge">
<title>Node16&#45;&gt;Node1</title>
<g id="a_edge21_Node000001_Node000016"><a xlink:title=" ">
<path fill="none" stroke="#9a32cd" stroke-dasharray="5,2" d="M369.78,-24.04C474.79,1.71 680.83,32.77 774.75,-87.51 854.25,-189.31 860.99,-356.41 861.09,-407.9"/>
<polygon fill="#9a32cd" stroke="#9a32cd" points="369.03,-20.62 360.18,-26.45 370.73,-27.41 369.03,-20.62"/>
</a>
</g>
<text xml:space="preserve" text-anchor="start" x="551.88" y="-19.36" font-family="Helvetica,sans-Serif" font-size="10.00" fill="grey">_streakTracker</text>
</g>
<!-- Node16&#45;&gt;Node13 -->
<g id="edge19_Node000013_Node000016" class="edge">
<title>Node16&#45;&gt;Node13</title>
<g id="a_edge19_Node000013_Node000016"><a xlink:title=" ">
<path fill="none" stroke="#9a32cd" stroke-dasharray="5,2" d="M381.59,-43.85C415.86,-46.86 456.05,-53.85 489.5,-69.26 523.38,-84.86 554.17,-116.62 570.72,-135.79"/>
<polygon fill="#9a32cd" stroke="#9a32cd" points="381.96,-40.37 371.72,-43.09 381.42,-47.35 381.96,-40.37"/>
</a>
</g>
<text xml:space="preserve" text-anchor="start" x="411.88" y="-75.26" font-family="Helvetica,sans-Serif" font-size="10.00" fill="grey">_streakTracker</text>
</g>
<!-- Node17&#45;&gt;Node1 -->
<g id="edge22_Node000001_Node000017" class="edge">
<title>Node17&#45;&gt;Node1</title>
<g id="a_edge22_Node000001_Node000017"><a xlink:title=" ">
<path fill="none" stroke="#9a32cd" stroke-dasharray="5,2" d="M659.4,-373.02C702.8,-383.9 757.04,-397.49 798.31,-407.83"/>
<polygon fill="#9a32cd" stroke="#9a32cd" points="660.35,-369.65 649.8,-370.62 658.65,-376.44 660.35,-369.65"/>
</a>
</g>
<text xml:space="preserve" text-anchor="start" x="686.62" y="-407.19" font-family="Helvetica,sans-Serif" font-size="10.00" fill="grey">_scoreTrailService</text>
</g>
<!-- Node18 -->
<g id="Node000018" class="node">
<title>Node18</title>
<g id="a_Node000018"><a xlink:href="class_balloon_party_1_1_shared_1_1_pool_1_1_trail_flight_registry-1-g.html" target="_top" xlink:title="Central registry for all in&#45;flight trails.">
<polygon fill="white" stroke="#666666" points="369.12,-326.76 239.88,-326.76 239.88,-296.26 369.12,-296.26 369.12,-326.76"/>
<text xml:space="preserve" text-anchor="start" x="247.88" y="-313.26" font-family="Helvetica,sans-Serif" font-size="10.00">BalloonParty.Shared.Pool.</text>
<text xml:space="preserve" text-anchor="middle" x="304.5" y="-302.01" font-family="Helvetica,sans-Serif" font-size="10.00">TrailFlightRegistry&lt; TId &gt;</text>
</a>
</g>
</g>
<!-- Node18&#45;&gt;Node17 -->
<g id="edge26_Node000017_Node000018" class="edge">
<title>Node18&#45;&gt;Node17</title>
<g id="a_edge26_Node000017_Node000018"><a xlink:title=" ">
<path fill="none" stroke="#9a32cd" stroke-dasharray="5,2" d="M380.58,-311.94C414.16,-313.25 454.07,-316.36 489.5,-323.26 507.73,-326.81 527.31,-332.92 543.85,-338.81"/>
<polygon fill="#9a32cd" stroke="#9a32cd" points="381.08,-308.46 370.97,-311.62 380.84,-315.45 381.08,-308.46"/>
</a>
</g>
<text xml:space="preserve" text-anchor="start" x="428.75" y="-329.26" font-family="Helvetica,sans-Serif" font-size="10.00" fill="grey">_flights</text>
</g>
<!-- Node19&#45;&gt;Node17 -->
<g id="edge28_Node000017_Node000019" class="edge">
<title>Node19&#45;&gt;Node17</title>
<g id="a_edge28_Node000017_Node000019"><a xlink:title=" ">
<path fill="none" stroke="#9a32cd" stroke-dasharray="5,2" d="M386.64,-385.66C428.76,-379 479.51,-370.96 518.93,-364.73"/>
<polygon fill="#9a32cd" stroke="#9a32cd" points="386.12,-382.2 376.79,-387.22 387.21,-389.12 386.12,-382.2"/>
</a>
</g>
<text xml:space="preserve" text-anchor="start" x="419.75" y="-389.02" font-family="Helvetica,sans-Serif" font-size="10.00" fill="grey">_trailPrefab</text>
</g>
</g>
</svg>

<g id="navigator" transform="translate(0 0)" fill="#404254">
  <rect fill="#f2f5e9" fill-opacity="0.5" stroke="#606060" stroke-width=".5" x="0" y="0" width="60" height="60"/>
  <use id="zoomplus" xlink:href="#zoomPlus" x="17" y="9" onmousedown="handleZoom(evt,'in')"/>
  <use id="zoomminus" xlink:href="#zoomMin" x="42" y="9" onmousedown="handleZoom(evt,'out')"/>
  <use id="reset" xlink:href="#resetDef" x="30" y="36" onmousedown="handleReset()"/>
   <use id="arrowup" xlink:href="#arrowUp" x="0" y="0" onmousedown="handlePan(0,-1)"/>
  <use id="arrowright" xlink:href="#arrowRight" x="0" y="0" onmousedown="handlePan(1,0)"/>
  <use id="arrowdown" xlink:href="#arrowDown" x="0" y="0" onmousedown="handlePan(0,1)"/>
  <use id="arrowleft" xlink:href="#arrowLeft" x="0" y="0" onmousedown="handlePan(-1,0)"/>
</g>
<svg viewBox="0 0 15 15" width="100%" height="30px" preserveAspectRatio="xMaxYMin meet">
 <g id="arrow_out" transform="scale(0.3 0.3)">
  <a xlink:href="class_balloon_party_1_1_u_i_1_1_score_1_1_color_progress_bar__coll__graph_org.svg" target="_base">
   <rect id="button" ry="5" rx="5" y="6" x="6" height="38" width="38"
        fill="#f2f5e9" fill-opacity="0.5" stroke="#606060" stroke-width="1.0"/>
   <path id="arrow"
     d="M 11.500037,31.436501 C 11.940474,20.09759 22.043105,11.32322 32.158766,21.979434 L 37.068811,17.246167 C 37.068811,17.246167 37.088388,32 37.088388,32 L 22.160133,31.978069 C 22.160133,31.978069 26.997745,27.140456 26.997745,27.140456 C 18.528582,18.264221 13.291696,25.230495 11.500037,31.436501 z"
     style="fill:#404040;"/>
  </a>
 </g>
</svg>

<style type='text/css'>
<![CDATA[
[data-mouse-over-selected='false'] { opacity: 0.7; }
[data-mouse-over-selected='true']  { opacity: 1.0; }
]]>
</style>
<script type="application/ecmascript"><![CDATA[
document.addEventListener('DOMContentLoaded', (event) => {
  highlightEdges();
  highlightAdjacentNodes();
});
]]></script>
</svg>
