<?xml version="1.0" encoding="UTF-8" standalone="no"?>
<!DOCTYPE svg PUBLIC "-//W3C//DTD SVG 1.1//EN"
 "http://www.w3.org/Graphics/SVG/1.1/DTD/svg11.dtd">
<!-- Generated by graphviz version 15.0.0 (20260523.1842)
 -->
<!-- Title: BalloonParty.Projectile.View.ProjectileShieldView Pages: 1 -->
<svg width="800pt" height="292pt"
 viewBox="0.00 0.00 800.00 292.00" xmlns="http://www.w3.org/2000/svg" xmlns:xlink="http://www.w3.org/1999/xlink">
<g id="graph0" class="graph" transform="scale(1 1) rotate(0) translate(4 287.88)">
<title>BalloonParty.Projectile.View.ProjectileShieldView</title>
<!-- Node1 -->
<g id="Node000001" class="node">
<title>Node1</title>
<g id="a_Node000001"><a xlink:title=" ">
<polygon fill="#999999" stroke="#666666" points="791.75,-178.5 663.25,-178.5 663.25,-148 791.75,-148 791.75,-178.5"/>
<text xml:space="preserve" text-anchor="start" x="671.25" y="-165" font-family="Helvetica,sans-Serif" font-size="10.00">BalloonParty.Projectile.</text>
<text xml:space="preserve" text-anchor="middle" x="727.5" y="-153.75" font-family="Helvetica,sans-Serif" font-size="10.00">View.ProjectileShieldView</text>
</a>
</g>
</g>
<!-- Node2 -->
<g id="Node000002" class="node">
<title>Node2</title>
<g id="a_Node000002"><a xlink:title=" ">
<polygon fill="white" stroke="#666666" points="535.38,-283.88 451.88,-283.88 451.88,-264.62 535.38,-264.62 535.38,-283.88"/>
<text xml:space="preserve" text-anchor="middle" x="493.62" y="-270.38" font-family="Helvetica,sans-Serif" font-size="10.00">MonoBehaviour</text>
</a>
</g>
</g>
<!-- Node2&#45;&gt;Node1 -->
<g id="edge1_Node000001_Node000002" class="edge">
<title>Node2&#45;&gt;Node1</title>
<g id="a_edge1_Node000001_Node000002"><a xlink:title=" ">
<path fill="none" stroke="#63b8ff" d="M546.87,-265.98C576.88,-259.8 614.59,-249.55 645.25,-233.25 671.89,-219.1 697.35,-194.82 712.45,-178.91"/>
<polygon fill="#63b8ff" stroke="#63b8ff" points="546.4,-262.5 537.26,-267.86 547.75,-269.37 546.4,-262.5"/>
</a>
</g>
</g>
<!-- Node3 -->
<g id="Node000003" class="node">
<title>Node3</title>
<g id="a_Node000003"><a xlink:href="class_balloon_party_1_1_configuration_1_1_game_palette.html" target="_top" xlink:title=" ">
<polygon fill="white" stroke="#666666" points="560.5,-246.5 426.75,-246.5 426.75,-216 560.5,-216 560.5,-246.5"/>
<text xml:space="preserve" text-anchor="start" x="434.75" y="-233" font-family="Helvetica,sans-Serif" font-size="10.00">BalloonParty.Configuration.</text>
<text xml:space="preserve" text-anchor="middle" x="493.62" y="-221.75" font-family="Helvetica,sans-Serif" font-size="10.00">GamePalette</text>
</a>
</g>
</g>
<!-- Node3&#45;&gt;Node1 -->
<g id="edge2_Node000001_Node000003" class="edge">
<title>Node3&#45;&gt;Node1</title>
<g id="a_edge2_Node000001_Node000003"><a xlink:title=" ">
<path fill="none" stroke="#9a32cd" stroke-dasharray="5,2" d="M571.8,-214.23C595.53,-208.48 621.62,-201.63 645.25,-194.25 659.52,-189.79 674.9,-184.15 688.4,-178.9"/>
<polygon fill="#9a32cd" stroke="#9a32cd" points="571.11,-210.8 562.2,-216.53 572.74,-217.61 571.11,-210.8"/>
</a>
</g>
<text xml:space="preserve" text-anchor="start" x="594.62" y="-218.31" font-family="Helvetica,sans-Serif" font-size="10.00" fill="grey">_palette</text>
</g>
<!-- Node4 -->
<g id="Node000004" class="node">
<title>Node4</title>
<g id="a_Node000004"><a xlink:title=" ">
<polygon fill="white" stroke="#666666" points="273,-268.88 185,-268.88 185,-249.62 273,-249.62 273,-268.88"/>
<text xml:space="preserve" text-anchor="middle" x="229" y="-255.38" font-family="Helvetica,sans-Serif" font-size="10.00">ScriptableObject</text>
</a>
</g>
</g>
<!-- Node4&#45;&gt;Node3 -->
<g id="edge3_Node000003_Node000004" class="edge">
<title>Node4&#45;&gt;Node3</title>
<g id="a_edge3_Node000003_Node000004"><a xlink:title=" ">
<path fill="none" stroke="#63b8ff" d="M284.53,-256.22C320,-253.94 367.21,-250.33 408.75,-245.25 414.46,-244.55 420.39,-243.74 426.32,-242.87"/>
<polygon fill="#63b8ff" stroke="#63b8ff" points="284.72,-252.7 274.96,-256.82 285.16,-259.68 284.72,-252.7"/>
</a>
</g>
</g>
<!-- Node5 -->
<g id="Node000005" class="node">
<title>Node5</title>
<g id="a_Node000005"><a xlink:href="class_balloon_party_1_1_configuration_1_1_palette_entry.html" target="_top" xlink:title=" ">
<polygon fill="white" stroke="#666666" points="295.88,-231.5 162.12,-231.5 162.12,-201 295.88,-201 295.88,-231.5"/>
<text xml:space="preserve" text-anchor="start" x="170.12" y="-218" font-family="Helvetica,sans-Serif" font-size="10.00">BalloonParty.Configuration.</text>
<text xml:space="preserve" text-anchor="middle" x="229" y="-206.75" font-family="Helvetica,sans-Serif" font-size="10.00">PaletteEntry</text>
</a>
</g>
</g>
<!-- Node5&#45;&gt;Node3 -->
<g id="edge4_Node000003_Node000005" class="edge">
<title>Node5&#45;&gt;Node3</title>
<g id="a_edge4_Node000003_Node000005"><a xlink:title=" ">
<path fill="none" stroke="#9a32cd" stroke-dasharray="5,2" d="M307.73,-220.69C345.46,-222.84 390.3,-225.41 426.37,-227.47"/>
<polygon fill="#9a32cd" stroke="#9a32cd" points="307.97,-217.2 297.78,-220.12 307.57,-224.19 307.97,-217.2"/>
</a>
</g>
<text xml:space="preserve" text-anchor="start" x="346.12" y="-232.4" font-family="Helvetica,sans-Serif" font-size="10.00" fill="grey">_colors</text>
</g>
<!-- Node6 -->
<g id="Node000006" class="node">
<title>Node6</title>
<g id="a_Node000006"><a xlink:href="interface_balloon_party_1_1_shared_1_1_i_game_configuration.html" target="_top" xlink:title=" ">
<polygon fill="white" stroke="#666666" points="297,-180.5 161,-180.5 161,-150 297,-150 297,-180.5"/>
<text xml:space="preserve" text-anchor="start" x="169" y="-167" font-family="Helvetica,sans-Serif" font-size="10.00">BalloonParty.Shared.IGame</text>
<text xml:space="preserve" text-anchor="middle" x="229" y="-155.75" font-family="Helvetica,sans-Serif" font-size="10.00">Configuration</text>
</a>
</g>
</g>
<!-- Node6&#45;&gt;Node1 -->
<g id="edge5_Node000001_Node000006" class="edge">
<title>Node6&#45;&gt;Node1</title>
<g id="a_edge5_Node000001_Node000006"><a xlink:title=" ">
<path fill="none" stroke="#9a32cd" stroke-dasharray="5,2" d="M308.72,-166.21C310.83,-166.22 312.93,-166.24 315,-166.25 461.78,-167.11 498.5,-168.96 645.25,-166.25 651.04,-166.14 657.05,-165.99 663.08,-165.82"/>
<polygon fill="#9a32cd" stroke="#9a32cd" points="308.82,-162.71 298.79,-166.13 308.76,-169.71 308.82,-162.71"/>
</a>
</g>
<text xml:space="preserve" text-anchor="start" x="477.88" y="-173.67" font-family="Helvetica,sans-Serif" font-size="10.00" fill="grey">_config</text>
</g>
<!-- Node8 -->
<g id="Node000008" class="node">
<title>Node8</title>
<g id="a_Node000008"><a xlink:href="class_balloon_party_1_1_slots_1_1_grid_1_1_slot_grid.html" target="_top" xlink:title=" ">
<polygon fill="white" stroke="#666666" points="553.38,-144.5 433.88,-144.5 433.88,-114 553.38,-114 553.38,-144.5"/>
<text xml:space="preserve" text-anchor="start" x="441.88" y="-131" font-family="Helvetica,sans-Serif" font-size="10.00">BalloonParty.Slots.Grid.</text>
<text xml:space="preserve" text-anchor="middle" x="493.62" y="-119.75" font-family="Helvetica,sans-Serif" font-size="10.00">SlotGrid</text>
</a>
</g>
</g>
<!-- Node6&#45;&gt;Node8 -->
<g id="edge9_Node000008_Node000006" class="edge">
<title>Node6&#45;&gt;Node8</title>
<g id="a_edge9_Node000008_Node000006"><a xlink:title=" ">
<path fill="none" stroke="#9a32cd" stroke-dasharray="5,2" d="M308.4,-150.03C310.63,-149.67 312.83,-149.33 315,-149 354.42,-143.05 399.02,-138.1 433.67,-134.64"/>
<polygon fill="#9a32cd" stroke="#9a32cd" points="307.97,-146.55 298.69,-151.65 309.13,-153.46 307.97,-146.55"/>
</a>
</g>
<text xml:space="preserve" text-anchor="start" x="346.12" y="-155" font-family="Helvetica,sans-Serif" font-size="10.00" fill="grey">_config</text>
</g>
<!-- Node7 -->
<g id="Node000007" class="node">
<title>Node7</title>
<g id="a_Node000007"><a xlink:href="class_balloon_party_1_1_shared_1_1_pool_1_1_pool_manager.html" target="_top" xlink:title=" ">
<polygon fill="white" stroke="#666666" points="558.25,-95.5 429,-95.5 429,-65 558.25,-65 558.25,-95.5"/>
<text xml:space="preserve" text-anchor="start" x="437" y="-82" font-family="Helvetica,sans-Serif" font-size="10.00">BalloonParty.Shared.Pool.</text>
<text xml:space="preserve" text-anchor="middle" x="493.62" y="-70.75" font-family="Helvetica,sans-Serif" font-size="10.00">PoolManager</text>
</a>
</g>
</g>
<!-- Node7&#45;&gt;Node1 -->
<g id="edge6_Node000001_Node000007" class="edge">
<title>Node7&#45;&gt;Node1</title>
<g id="a_edge6_Node000001_Node000007"><a xlink:title=" ">
<path fill="none" stroke="#9a32cd" stroke-dasharray="5,2" d="M569.53,-94.93C594.09,-100.81 621.23,-108.49 645.25,-118 665.37,-125.96 686.69,-137.99 702.44,-147.64"/>
<polygon fill="#9a32cd" stroke="#9a32cd" points="570.45,-91.55 559.92,-92.69 568.86,-98.37 570.45,-91.55"/>
</a>
</g>
<text xml:space="preserve" text-anchor="start" x="581.5" y="-124" font-family="Helvetica,sans-Serif" font-size="10.00" fill="grey">_poolManager</text>
</g>
<!-- Node8&#45;&gt;Node1 -->
<g id="edge7_Node000001_Node000008" class="edge">
<title>Node8&#45;&gt;Node1</title>
<g id="a_edge7_Node000001_Node000008"><a xlink:title=" ">
<path fill="none" stroke="#9a32cd" stroke-dasharray="5,2" d="M565.09,-137.85C590.4,-141.11 619.14,-145 645.25,-149 651.05,-149.89 657.08,-150.86 663.12,-151.86"/>
<polygon fill="#9a32cd" stroke="#9a32cd" points="565.59,-134.38 555.23,-136.59 564.7,-141.33 565.59,-134.38"/>
</a>
</g>
<text xml:space="preserve" text-anchor="start" x="601.38" y="-155" font-family="Helvetica,sans-Serif" font-size="10.00" fill="grey">_grid</text>
</g>
<!-- Node9 -->
<g id="Node000009" class="node">
<title>Node9</title>
<g id="a_Node000009"><a xlink:href="class_balloon_party_1_1_slots_1_1_grid_1_1_balance_path_holder.html" target="_top" xlink:title="Tracks grid slots that are currently in&#45;transit due to balance animations.">
<polygon fill="white" stroke="#666666" points="288.75,-128.5 169.25,-128.5 169.25,-98 288.75,-98 288.75,-128.5"/>
<text xml:space="preserve" text-anchor="start" x="177.25" y="-115" font-family="Helvetica,sans-Serif" font-size="10.00">BalloonParty.Slots.Grid.</text>
<text xml:space="preserve" text-anchor="middle" x="229" y="-103.75" font-family="Helvetica,sans-Serif" font-size="10.00">BalancePathHolder</text>
</a>
</g>
</g>
<!-- Node9&#45;&gt;Node8 -->
<g id="edge8_Node000008_Node000009" class="edge">
<title>Node9&#45;&gt;Node8</title>
<g id="a_edge8_Node000008_Node000009"><a xlink:title=" ">
<path fill="none" stroke="#9a32cd" stroke-dasharray="5,2" d="M300.34,-106.98C333.36,-105.21 373.18,-104.77 408.75,-109 417.53,-110.04 426.71,-111.68 435.65,-113.59"/>
<polygon fill="#9a32cd" stroke="#9a32cd" points="300.26,-103.48 290.48,-107.57 300.67,-110.47 300.26,-103.48"/>
</a>
</g>
<text xml:space="preserve" text-anchor="start" x="318" y="-115" font-family="Helvetica,sans-Serif" font-size="10.00" fill="grey">_balancePathHolder</text>
</g>
<!-- Node10 -->
<g id="Node000010" class="node">
<title>Node10</title>
<g id="a_Node000010"><a xlink:href="interface_balloon_party_1_1_slots_1_1_actor_1_1_i_writeable_slot_actor.html" target="_top" xlink:title=" ">
<polygon fill="white" stroke="#666666" points="291,-79.5 167,-79.5 167,-49 291,-49 291,-79.5"/>
<text xml:space="preserve" text-anchor="start" x="175" y="-66" font-family="Helvetica,sans-Serif" font-size="10.00">BalloonParty.Slots.Actor.</text>
<text xml:space="preserve" text-anchor="middle" x="229" y="-54.75" font-family="Helvetica,sans-Serif" font-size="10.00">IWriteableSlotActor</text>
</a>
</g>
</g>
<!-- Node10&#45;&gt;Node8 -->
<g id="edge10_Node000008_Node000010" class="edge">
<title>Node10&#45;&gt;Node8</title>
<g id="a_edge10_Node000008_Node000010"><a xlink:title=" ">
<path fill="none" stroke="#9a32cd" stroke-dasharray="5,2" d="M302.74,-60.58C336.62,-61.72 376.48,-67.32 408.75,-84 419.45,-89.53 416.84,-97.42 426.75,-104.25 431.89,-107.79 437.59,-110.91 443.43,-113.64"/>
<polygon fill="#9a32cd" stroke="#9a32cd" points="303.08,-57.08 293.01,-60.38 302.93,-64.08 303.08,-57.08"/>
</a>
</g>
<text xml:space="preserve" text-anchor="start" x="348.75" y="-90" font-family="Helvetica,sans-Serif" font-size="10.00" fill="grey">_slots</text>
</g>
<!-- Node11 -->
<g id="Node000011" class="node">
<title>Node11</title>
<g id="a_Node000011"><a xlink:href="interface_balloon_party_1_1_slots_1_1_actor_1_1_i_slot_actor.html" target="_top" xlink:title=" ">
<polygon fill="white" stroke="#666666" points="124,-79.5 0,-79.5 0,-49 124,-49 124,-79.5"/>
<text xml:space="preserve" text-anchor="start" x="8" y="-66" font-family="Helvetica,sans-Serif" font-size="10.00">BalloonParty.Slots.Actor.</text>
<text xml:space="preserve" text-anchor="middle" x="62" y="-54.75" font-family="Helvetica,sans-Serif" font-size="10.00">ISlotActor</text>
</a>
</g>
</g>
<!-- Node11&#45;&gt;Node10 -->
<g id="edge11_Node000010_Node000011" class="edge">
<title>Node11&#45;&gt;Node10</title>
<g id="a_edge11_Node000010_Node000011"><a xlink:title=" ">
<path fill="none" stroke="#63b8ff" d="M135.87,-64.25C146.09,-64.25 156.52,-64.25 166.51,-64.25"/>
<polygon fill="#63b8ff" stroke="#63b8ff" points="135.95,-60.75 125.95,-64.25 135.95,-67.75 135.95,-60.75"/>
</a>
</g>
</g>
<!-- Node12 -->
<g id="Node000012" class="node">
<title>Node12</title>
<g id="a_Node000012"><a xlink:href="interface_balloon_party_1_1_slots_1_1_actor_1_1_i_slot_actor_view.html" target="_top" xlink:title=" ">
<polygon fill="white" stroke="#666666" points="291,-30.5 167,-30.5 167,0 291,0 291,-30.5"/>
<text xml:space="preserve" text-anchor="start" x="175" y="-17" font-family="Helvetica,sans-Serif" font-size="10.00">BalloonParty.Slots.Actor.</text>
<text xml:space="preserve" text-anchor="middle" x="229" y="-5.75" font-family="Helvetica,sans-Serif" font-size="10.00">ISlotActorView</text>
</a>
</g>
</g>
<!-- Node12&#45;&gt;Node8 -->
<g id="edge12_Node000008_Node000012" class="edge">
<title>Node12&#45;&gt;Node8</title>
<g id="a_edge12_Node000008_Node000012"><a xlink:title=" ">
<path fill="none" stroke="#9a32cd" stroke-dasharray="5,2" d="M302.55,-7.84C338.45,-8.14 380.1,-15 408.75,-40 431.09,-59.5 406.74,-82.36 426.75,-104.25 430.05,-107.86 433.93,-110.95 438.12,-113.6"/>
<polygon fill="#9a32cd" stroke="#9a32cd" points="302.6,-4.34 292.63,-7.94 302.67,-11.34 302.6,-4.34"/>
</a>
</g>
<text xml:space="preserve" text-anchor="start" x="346.5" y="-46" font-family="Helvetica,sans-Serif" font-size="10.00" fill="grey">_views</text>
</g>
<!-- Node13 -->
<g id="Node000013" class="node">
<title>Node13</title>
<g id="a_Node000013"><a xlink:href="interface_balloon_party_1_1_projectile_1_1_model_1_1_i_projectile_model.html" target="_top" xlink:title=" ">
<polygon fill="white" stroke="#666666" points="551.88,-46.5 435.38,-46.5 435.38,-16 551.88,-16 551.88,-46.5"/>
<text xml:space="preserve" text-anchor="start" x="443.38" y="-33" font-family="Helvetica,sans-Serif" font-size="10.00">BalloonParty.Projectile.</text>
<text xml:space="preserve" text-anchor="middle" x="493.62" y="-21.75" font-family="Helvetica,sans-Serif" font-size="10.00">Model.IProjectileModel</text>
</a>
</g>
</g>
<!-- Node13&#45;&gt;Node1 -->
<g id="edge13_Node000001_Node000013" class="edge">
<title>Node13&#45;&gt;Node1</title>
<g id="a_edge13_Node000001_Node000013"><a xlink:title=" ">
<path fill="none" stroke="#9a32cd" stroke-dasharray="5,2" d="M563.25,-43.49C590.18,-50.32 620.49,-60.65 645.25,-76 675.69,-94.87 702.09,-128.08 716.01,-147.63"/>
<polygon fill="#9a32cd" stroke="#9a32cd" points="564.35,-40.16 553.81,-41.22 562.71,-46.96 564.35,-40.16"/>
</a>
</g>
<text xml:space="preserve" text-anchor="start" x="596.12" y="-82" font-family="Helvetica,sans-Serif" font-size="10.00" fill="grey">_model</text>
</g>
</g>
</svg>
