<?xml version="1.0" encoding="UTF-8" standalone="no"?>
<!DOCTYPE svg PUBLIC "-//W3C//DTD SVG 1.1//EN"
 "http://www.w3.org/Graphics/SVG/1.1/DTD/svg11.dtd">
<!-- Generated by graphviz version 15.0.0 (20260523.1842)
 -->
<!-- Title: BalloonParty.Balloon.View.BalloonView Pages: 1 -->
<svg width="952pt" height="831pt"
 viewBox="0.00 0.00 952.00 831.00" xmlns="http://www.w3.org/2000/svg" xmlns:xlink="http://www.w3.org/1999/xlink">
<g id="graph0" class="graph" transform="scale(1 1) rotate(0) translate(4 827.47)">
<title>BalloonParty.Balloon.View.BalloonView</title>
<!-- Node1 -->
<g id="Node000001" class="node">
<title>Node1</title>
<g id="a_Node000001"><a xlink:title=" ">
<polygon fill="#999999" stroke="#666666" points="944.25,-427.5 812.75,-427.5 812.75,-397 944.25,-397 944.25,-427.5"/>
<text xml:space="preserve" text-anchor="start" x="820.75" y="-414" font-family="Helvetica,sans-Serif" font-size="10.00">BalloonParty.Balloon.View.</text>
<text xml:space="preserve" text-anchor="middle" x="878.5" y="-402.75" font-family="Helvetica,sans-Serif" font-size="10.00">BalloonView</text>
</a>
</g>
</g>
<!-- Node2 -->
<g id="Node000002" class="node">
<title>Node2</title>
<g id="a_Node000002"><a xlink:title=" ">
<polygon fill="white" stroke="#666666" points="118.75,-613.88 35.25,-613.88 35.25,-594.62 118.75,-594.62 118.75,-613.88"/>
<text xml:space="preserve" text-anchor="middle" x="77" y="-600.38" font-family="Helvetica,sans-Serif" font-size="10.00">MonoBehaviour</text>
</a>
</g>
</g>
<!-- Node2&#45;&gt;Node1 -->
<g id="edge1_Node000001_Node000002" class="edge">
<title>Node2&#45;&gt;Node1</title>
<g id="a_edge1_Node000001_Node000002"><a xlink:title=" ">
<path fill="none" stroke="#63b8ff" d="M114.35,-618.22C210.15,-653.22 477.36,-739 698,-698.25 743.27,-689.89 762.93,-694.52 794.75,-661.25 860.4,-592.61 874,-470.61 876.79,-427.7"/>
<polygon fill="#63b8ff" stroke="#63b8ff" points="115.8,-615.03 105.21,-614.84 113.37,-621.59 115.8,-615.03"/>
</a>
</g>
</g>
<!-- Node6 -->
<g id="Node000006" class="node">
<title>Node6</title>
<g id="a_Node000006"><a xlink:href="class_balloon_party_1_1_shared_1_1_rendering_1_1_colorable_renderer.html" target="_top" xlink:title="Non&#45;generic MonoBehaviour base that implements IColorableRenderer.">
<polygon fill="white" stroke="#666666" points="349.88,-778.5 195.88,-778.5 195.88,-748 349.88,-748 349.88,-778.5"/>
<text xml:space="preserve" text-anchor="start" x="203.88" y="-765" font-family="Helvetica,sans-Serif" font-size="10.00">BalloonParty.Shared.Rendering.</text>
<text xml:space="preserve" text-anchor="middle" x="272.88" y="-753.75" font-family="Helvetica,sans-Serif" font-size="10.00">ColorableRenderer</text>
</a>
</g>
</g>
<!-- Node2&#45;&gt;Node6 -->
<g id="edge6_Node000006_Node000002" class="edge">
<title>Node2&#45;&gt;Node6</title>
<g id="a_edge6_Node000006_Node000002"><a xlink:title=" ">
<path fill="none" stroke="#63b8ff" d="M88.15,-624.1C103.03,-651.3 133.24,-700.01 172,-728.25 183.06,-736.31 196.15,-742.64 209.14,-747.57"/>
<polygon fill="#63b8ff" stroke="#63b8ff" points="91.38,-622.72 83.6,-615.52 85.2,-626 91.38,-622.72"/>
</a>
</g>
</g>
<!-- Node8 -->
<g id="Node000008" class="node">
<title>Node8</title>
<g id="a_Node000008"><a xlink:href="class_balloon_party_1_1_shared_1_1_animation_1_1_tween_tracker.html" target="_top" xlink:title=" ">
<polygon fill="white" stroke="#666666" points="526,-619.5 372.75,-619.5 372.75,-589 526,-589 526,-619.5"/>
<text xml:space="preserve" text-anchor="start" x="380.75" y="-606" font-family="Helvetica,sans-Serif" font-size="10.00">BalloonParty.Shared.Animation.</text>
<text xml:space="preserve" text-anchor="middle" x="449.38" y="-594.75" font-family="Helvetica,sans-Serif" font-size="10.00">TweenTracker</text>
</a>
</g>
</g>
<!-- Node2&#45;&gt;Node8 -->
<g id="edge9_Node000008_Node000002" class="edge">
<title>Node2&#45;&gt;Node8</title>
<g id="a_edge9_Node000008_Node000002"><a xlink:title=" ">
<path fill="none" stroke="#63b8ff" d="M130.32,-604.25C193.5,-604.25 300.24,-604.25 372.46,-604.25"/>
<polygon fill="#63b8ff" stroke="#63b8ff" points="130.57,-600.75 120.57,-604.25 130.57,-607.75 130.57,-600.75"/>
</a>
</g>
</g>
<!-- Node9 -->
<g id="Node000009" class="node">
<title>Node9</title>
<g id="a_Node000009"><a xlink:href="class_balloon_party_1_1_item_1_1_item_display_service.html" target="_top" xlink:title=" ">
<polygon fill="white" stroke="#666666" points="695,-427.5 547,-427.5 547,-397 695,-397 695,-427.5"/>
<text xml:space="preserve" text-anchor="start" x="555" y="-414" font-family="Helvetica,sans-Serif" font-size="10.00">BalloonParty.Item.ItemDisplay</text>
<text xml:space="preserve" text-anchor="middle" x="621" y="-402.75" font-family="Helvetica,sans-Serif" font-size="10.00">Service</text>
</a>
</g>
</g>
<!-- Node2&#45;&gt;Node9 -->
<g id="edge11_Node000009_Node000002" class="edge">
<title>Node2&#45;&gt;Node9</title>
<g id="a_edge11_Node000009_Node000002"><a xlink:title=" ">
<path fill="none" stroke="#63b8ff" d="M88.29,-584.62C105.23,-554.5 142.06,-497.62 191,-471.25 323.06,-400.11 377.81,-453.48 526,-430.25 532.73,-429.19 539.72,-428.02 546.7,-426.78"/>
<polygon fill="#63b8ff" stroke="#63b8ff" points="85.39,-582.61 83.68,-593.07 91.54,-585.96 85.39,-582.61"/>
</a>
</g>
</g>
<!-- Node10 -->
<g id="Node000010" class="node">
<title>Node10</title>
<g id="a_Node000010"><a xlink:href="class_balloon_party_1_1_item_1_1_item_visual_view.html" target="_top" xlink:title=" ">
<polygon fill="white" stroke="#666666" points="354.75,-374.88 191,-374.88 191,-355.62 354.75,-355.62 354.75,-374.88"/>
<text xml:space="preserve" text-anchor="middle" x="272.88" y="-361.38" font-family="Helvetica,sans-Serif" font-size="10.00">BalloonParty.Item.ItemVisualView</text>
</a>
</g>
</g>
<!-- Node2&#45;&gt;Node10 -->
<g id="edge13_Node000010_Node000002" class="edge">
<title>Node2&#45;&gt;Node10</title>
<g id="a_edge13_Node000010_Node000002"><a xlink:title=" ">
<path fill="none" stroke="#63b8ff" d="M82.47,-583.5C93.08,-539.51 124.05,-436.59 191,-384.25 195.66,-380.61 200.9,-377.65 206.42,-375.24"/>
<polygon fill="#63b8ff" stroke="#63b8ff" points="79.11,-582.48 80.3,-593.01 85.94,-584.04 79.11,-582.48"/>
</a>
</g>
</g>
<!-- Node3 -->
<g id="Node000003" class="node">
<title>Node3</title>
<g id="a_Node000003"><a xlink:href="interface_balloon_party_1_1_shared_1_1_pool_1_1_i_poolable.html" target="_top" xlink:title=" ">
<polygon fill="white" stroke="#666666" points="141.62,-281.5 12.38,-281.5 12.38,-251 141.62,-251 141.62,-281.5"/>
<text xml:space="preserve" text-anchor="start" x="20.38" y="-268" font-family="Helvetica,sans-Serif" font-size="10.00">BalloonParty.Shared.Pool.</text>
<text xml:space="preserve" text-anchor="middle" x="77" y="-256.75" font-family="Helvetica,sans-Serif" font-size="10.00">IPoolable</text>
</a>
</g>
</g>
<!-- Node3&#45;&gt;Node1 -->
<g id="edge2_Node000001_Node000003" class="edge">
<title>Node3&#45;&gt;Node1</title>
<g id="a_edge2_Node000001_Node000003"><a xlink:title=" ">
<path fill="none" stroke="#63b8ff" d="M133.68,-247.19C151.74,-241.9 172.02,-236.89 191,-234.25 298.35,-219.34 675,-243.69 698,-250.25 745.36,-263.76 757.5,-272.04 794.75,-304.25 826.91,-332.06 854.76,-374.16 868.45,-396.7"/>
<polygon fill="#63b8ff" stroke="#63b8ff" points="132.76,-243.81 124.2,-250.06 134.79,-250.51 132.76,-243.81"/>
</a>
</g>
</g>
<!-- Node3&#45;&gt;Node10 -->
<g id="edge15_Node000010_Node000003" class="edge">
<title>Node3&#45;&gt;Node10</title>
<g id="a_edge15_Node000010_Node000003"><a xlink:title=" ">
<path fill="none" stroke="#63b8ff" d="M105.07,-289.01C126.99,-306.4 159.32,-329.76 191,-344.25 200.63,-348.66 211.34,-352.26 221.74,-355.15"/>
<polygon fill="#63b8ff" stroke="#63b8ff" points="107.51,-286.48 97.53,-282.92 103.11,-291.93 107.51,-286.48"/>
</a>
</g>
</g>
<!-- Node4 -->
<g id="Node000004" class="node">
<title>Node4</title>
<g id="a_Node000004"><a xlink:href="interface_balloon_party_1_1_slots_1_1_actor_1_1_i_slot_actor_view.html" target="_top" xlink:title=" ">
<polygon fill="white" stroke="#666666" points="683,-689.5 559,-689.5 559,-659 683,-659 683,-689.5"/>
<text xml:space="preserve" text-anchor="start" x="567" y="-676" font-family="Helvetica,sans-Serif" font-size="10.00">BalloonParty.Slots.Actor.</text>
<text xml:space="preserve" text-anchor="middle" x="621" y="-664.75" font-family="Helvetica,sans-Serif" font-size="10.00">ISlotActorView</text>
</a>
</g>
</g>
<!-- Node4&#45;&gt;Node1 -->
<g id="edge3_Node000001_Node000004" class="edge">
<title>Node4&#45;&gt;Node1</title>
<g id="a_edge3_Node000001_Node000004"><a xlink:title=" ">
<path fill="none" stroke="#63b8ff" d="M694.61,-670.41C728.59,-665.15 767.48,-653.69 794.75,-629.25 856.46,-573.95 872.42,-467.6 876.31,-427.8"/>
<polygon fill="#63b8ff" stroke="#63b8ff" points="694.23,-666.93 684.8,-671.76 695.18,-673.87 694.23,-666.93"/>
</a>
</g>
</g>
<!-- Node5 -->
<g id="Node000005" class="node">
<title>Node5</title>
<g id="a_Node000005"><a xlink:href="interface_balloon_party_1_1_nudge_1_1_i_nudgeable.html" target="_top" xlink:title="View&#45;side contract for actors that can play a nudge animation.">
<polygon fill="white" stroke="#666666" points="698,-640.88 544,-640.88 544,-621.62 698,-621.62 698,-640.88"/>
<text xml:space="preserve" text-anchor="middle" x="621" y="-627.38" font-family="Helvetica,sans-Serif" font-size="10.00">BalloonParty.Nudge.INudgeable</text>
</a>
</g>
</g>
<!-- Node5&#45;&gt;Node1 -->
<g id="edge4_Node000001_Node000005" class="edge">
<title>Node5&#45;&gt;Node1</title>
<g id="a_edge4_Node000001_Node000005"><a xlink:title=" ">
<path fill="none" stroke="#63b8ff" d="M709.42,-631.76C739.08,-627.98 770.76,-619.13 794.75,-600.25 851.35,-555.7 870.15,-464.4 875.56,-427.87"/>
<polygon fill="#63b8ff" stroke="#63b8ff" points="709.24,-628.26 699.67,-632.81 709.98,-635.22 709.24,-628.26"/>
</a>
</g>
</g>
<!-- Node6&#45;&gt;Node1 -->
<g id="edge5_Node000001_Node000006" class="edge">
<title>Node6&#45;&gt;Node1</title>
<g id="a_edge5_Node000001_Node000006"><a xlink:title=" ">
<path fill="none" stroke="#9a32cd" stroke-dasharray="5,2" d="M341.23,-781.65C449.97,-806.94 665.09,-838.09 794.75,-731.25 843.1,-691.41 869.29,-486.28 875.84,-427.82"/>
<polygon fill="#9a32cd" stroke="#9a32cd" points="342.1,-778.26 331.56,-779.34 340.48,-785.07 342.1,-778.26"/>
</a>
</g>
<text xml:space="preserve" text-anchor="start" x="576.38" y="-812.22" font-family="Helvetica,sans-Serif" font-size="10.00" fill="grey">_colorableRenderers</text>
</g>
<!-- Node7 -->
<g id="Node000007" class="node">
<title>Node7</title>
<g id="a_Node000007"><a xlink:href="interface_balloon_party_1_1_shared_1_1_rendering_1_1_i_colorable_renderer.html" target="_top" xlink:title=" ">
<polygon fill="white" stroke="#666666" points="154,-782.5 0,-782.5 0,-752 154,-752 154,-782.5"/>
<text xml:space="preserve" text-anchor="start" x="8" y="-769" font-family="Helvetica,sans-Serif" font-size="10.00">BalloonParty.Shared.Rendering.</text>
<text xml:space="preserve" text-anchor="middle" x="77" y="-757.75" font-family="Helvetica,sans-Serif" font-size="10.00">IColorableRenderer</text>
</a>
</g>
</g>
<!-- Node7&#45;&gt;Node6 -->
<g id="edge7_Node000006_Node000007" class="edge">
<title>Node7&#45;&gt;Node6</title>
<g id="a_edge7_Node000006_Node000007"><a xlink:title=" ">
<path fill="none" stroke="#63b8ff" d="M165.58,-765.44C175.59,-765.24 185.75,-765.03 195.6,-764.82"/>
<polygon fill="#63b8ff" stroke="#63b8ff" points="165.79,-761.94 155.86,-765.64 165.93,-768.94 165.79,-761.94"/>
</a>
</g>
</g>
<!-- Node8&#45;&gt;Node1 -->
<g id="edge8_Node000001_Node000008" class="edge">
<title>Node8&#45;&gt;Node1</title>
<g id="a_edge8_Node000001_Node000008"><a xlink:title=" ">
<path fill="none" stroke="#9a32cd" stroke-dasharray="5,2" d="M537.53,-593.64C632.46,-581.49 773.68,-561.44 794.75,-547.25 838.54,-517.78 863.19,-456.58 872.78,-427.82"/>
<polygon fill="#9a32cd" stroke="#9a32cd" points="537.17,-590.16 527.69,-594.89 538.06,-597.11 537.17,-590.16"/>
</a>
</g>
<text xml:space="preserve" text-anchor="start" x="588.75" y="-598.13" font-family="Helvetica,sans-Serif" font-size="10.00" fill="grey">_tweenTracker</text>
</g>
<!-- Node9&#45;&gt;Node1 -->
<g id="edge10_Node000001_Node000009" class="edge">
<title>Node9&#45;&gt;Node1</title>
<g id="a_edge10_Node000001_Node000009"><a xlink:title=" ">
<path fill="none" stroke="#9a32cd" stroke-dasharray="5,2" d="M706.71,-412.25C741.18,-412.25 780.39,-412.25 812.54,-412.25"/>
<polygon fill="#9a32cd" stroke="#9a32cd" points="706.73,-408.75 696.73,-412.25 706.73,-415.75 706.73,-408.75"/>
</a>
</g>
<text xml:space="preserve" text-anchor="start" x="726.88" y="-418.25" font-family="Helvetica,sans-Serif" font-size="10.00" fill="grey">_itemService</text>
</g>
<!-- Node10&#45;&gt;Node9 -->
<g id="edge12_Node000009_Node000010" class="edge">
<title>Node10&#45;&gt;Node9</title>
<g id="a_edge12_Node000009_Node000010"><a xlink:title=" ">
<path fill="none" stroke="#9a32cd" stroke-dasharray="5,2" d="M366.5,-369.99C414.36,-373.36 473.58,-378.94 526,-388 538.79,-390.21 552.39,-393.29 565.15,-396.51"/>
<polygon fill="#9a32cd" stroke="#9a32cd" points="366.94,-366.52 356.72,-369.33 366.46,-373.5 366.94,-366.52"/>
</a>
</g>
<text xml:space="preserve" text-anchor="start" x="422.75" y="-394" font-family="Helvetica,sans-Serif" font-size="10.00" fill="grey">_activeView</text>
</g>
<!-- Node11 -->
<g id="Node000011" class="node">
<title>Node11</title>
<g id="a_Node000011"><a xlink:href="interface_balloon_party_1_1_item_1_1_i_item_view.html" target="_top" xlink:title=" ">
<polygon fill="white" stroke="#666666" points="146.88,-374.88 7.12,-374.88 7.12,-355.62 146.88,-355.62 146.88,-374.88"/>
<text xml:space="preserve" text-anchor="middle" x="77" y="-361.38" font-family="Helvetica,sans-Serif" font-size="10.00">BalloonParty.Item.IItemView</text>
</a>
</g>
</g>
<!-- Node11&#45;&gt;Node10 -->
<g id="edge14_Node000010_Node000011" class="edge">
<title>Node11&#45;&gt;Node10</title>
<g id="a_edge14_Node000010_Node000011"><a xlink:title=" ">
<path fill="none" stroke="#63b8ff" d="M158.59,-365.25C169.24,-365.25 180.16,-365.25 190.82,-365.25"/>
<polygon fill="#63b8ff" stroke="#63b8ff" points="158.69,-361.75 148.69,-365.25 158.69,-368.75 158.69,-361.75"/>
</a>
</g>
</g>
<!-- Node12 -->
<g id="Node000012" class="node">
<title>Node12</title>
<g id="a_Node000012"><a xlink:href="interface_balloon_party_1_1_item_1_1_i_transform_capture.html" target="_top" xlink:title="Implement on components whose transform state must be captured.">
<polygon fill="white" stroke="#666666" points="344.25,-423.5 201.5,-423.5 201.5,-393 344.25,-393 344.25,-423.5"/>
<text xml:space="preserve" text-anchor="start" x="209.5" y="-410" font-family="Helvetica,sans-Serif" font-size="10.00">BalloonParty.Item.ITransform</text>
<text xml:space="preserve" text-anchor="middle" x="272.88" y="-398.75" font-family="Helvetica,sans-Serif" font-size="10.00">Capture</text>
</a>
</g>
</g>
<!-- Node12&#45;&gt;Node9 -->
<g id="edge16_Node000009_Node000012" class="edge">
<title>Node12&#45;&gt;Node9</title>
<g id="a_edge16_Node000009_Node000012"><a xlink:title=" ">
<path fill="none" stroke="#9a32cd" stroke-dasharray="5,2" d="M355.66,-409.2C413.61,-409.86 490.69,-410.76 546.65,-411.4"/>
<polygon fill="#9a32cd" stroke="#9a32cd" points="355.89,-405.7 345.85,-409.08 355.81,-412.7 355.89,-405.7"/>
</a>
</g>
<text xml:space="preserve" text-anchor="start" x="416.38" y="-417.07" font-family="Helvetica,sans-Serif" font-size="10.00" fill="grey">_activeCapture</text>
</g>
<!-- Node13 -->
<g id="Node000013" class="node">
<title>Node13</title>
<g id="a_Node000013"><a xlink:href="interface_balloon_party_1_1_shared_1_1_i_game_configuration.html" target="_top" xlink:title=" ">
<polygon fill="white" stroke="#666666" points="340.88,-560.5 204.88,-560.5 204.88,-530 340.88,-530 340.88,-560.5"/>
<text xml:space="preserve" text-anchor="start" x="212.88" y="-547" font-family="Helvetica,sans-Serif" font-size="10.00">BalloonParty.Shared.IGame</text>
<text xml:space="preserve" text-anchor="middle" x="272.88" y="-535.75" font-family="Helvetica,sans-Serif" font-size="10.00">Configuration</text>
</a>
</g>
</g>
<!-- Node13&#45;&gt;Node1 -->
<g id="edge23_Node000001_Node000013" class="edge">
<title>Node13&#45;&gt;Node1</title>
<g id="a_edge23_Node000001_Node000013"><a xlink:title=" ">
<path fill="none" stroke="#9a32cd" stroke-dasharray="5,2" d="M352.7,-555.68C359.47,-556.32 366.23,-556.86 372.75,-557.25 440.74,-561.36 459.13,-570.21 526,-557.25 534.47,-555.61 535.8,-552.67 544,-550 611.11,-528.15 632.33,-537.12 698,-511.25 756.77,-488.1 820.34,-449.46 853.8,-427.94"/>
<polygon fill="#9a32cd" stroke="#9a32cd" points="353.13,-552.21 342.83,-554.69 352.43,-559.17 353.13,-552.21"/>
</a>
</g>
<text xml:space="preserve" text-anchor="start" x="605.25" y="-556" font-family="Helvetica,sans-Serif" font-size="10.00" fill="grey">_config</text>
</g>
<!-- Node13&#45;&gt;Node9 -->
<g id="edge17_Node000009_Node000013" class="edge">
<title>Node13&#45;&gt;Node9</title>
<g id="a_edge17_Node000009_Node000013"><a xlink:title=" ">
<path fill="none" stroke="#9a32cd" stroke-dasharray="5,2" d="M352.51,-538.95C416.21,-532.41 499.57,-520.14 526,-499.25 541.61,-486.91 530.88,-473.21 544,-458.25 555.09,-445.61 570.51,-435.4 584.57,-427.83"/>
<polygon fill="#9a32cd" stroke="#9a32cd" points="352.37,-535.44 342.77,-539.91 353.06,-542.41 352.37,-535.44"/>
</a>
</g>
<text xml:space="preserve" text-anchor="start" x="433.62" y="-542.32" font-family="Helvetica,sans-Serif" font-size="10.00" fill="grey">_config</text>
</g>
<!-- Node14 -->
<g id="Node000014" class="node">
<title>Node14</title>
<g id="a_Node000014"><a xlink:href="interface_balloon_party_1_1_configuration_1_1_i_game_palette.html" target="_top" xlink:title=" ">
<polygon fill="white" stroke="#666666" points="339.75,-273.5 206,-273.5 206,-243 339.75,-243 339.75,-273.5"/>
<text xml:space="preserve" text-anchor="start" x="214" y="-260" font-family="Helvetica,sans-Serif" font-size="10.00">BalloonParty.Configuration.</text>
<text xml:space="preserve" text-anchor="middle" x="272.88" y="-248.75" font-family="Helvetica,sans-Serif" font-size="10.00">IGamePalette</text>
</a>
</g>
</g>
<!-- Node14&#45;&gt;Node1 -->
<g id="edge22_Node000001_Node000014" class="edge">
<title>Node14&#45;&gt;Node1</title>
<g id="a_edge22_Node000001_Node000014"><a xlink:title=" ">
<path fill="none" stroke="#9a32cd" stroke-dasharray="5,2" d="M351.39,-253.96C358.61,-253.67 365.82,-253.43 372.75,-253.25 518.68,-249.56 563.38,-242.54 698,-299 760.52,-325.22 825.9,-372.26 857.73,-396.64"/>
<polygon fill="#9a32cd" stroke="#9a32cd" points="351.43,-250.45 341.59,-254.37 351.73,-257.45 351.43,-250.45"/>
</a>
</g>
<text xml:space="preserve" text-anchor="start" x="603.75" y="-305" font-family="Helvetica,sans-Serif" font-size="10.00" fill="grey">_palette</text>
</g>
<!-- Node14&#45;&gt;Node9 -->
<g id="edge18_Node000009_Node000014" class="edge">
<title>Node14&#45;&gt;Node9</title>
<g id="a_edge18_Node000009_Node000014"><a xlink:title=" ">
<path fill="none" stroke="#9a32cd" stroke-dasharray="5,2" d="M351.42,-256C404.26,-257.91 473.83,-267.45 526,-300 537.69,-307.29 535.46,-314.44 544,-325.25 564.39,-351.06 589.85,-379.5 605.51,-396.62"/>
<polygon fill="#9a32cd" stroke="#9a32cd" points="351.67,-252.51 341.58,-255.74 351.49,-259.51 351.67,-252.51"/>
</a>
</g>
<text xml:space="preserve" text-anchor="start" x="432.12" y="-306" font-family="Helvetica,sans-Serif" font-size="10.00" fill="grey">_palette</text>
</g>
<!-- Node15 -->
<g id="Node000015" class="node">
<title>Node15</title>
<g id="a_Node000015"><a xlink:href="interface_balloon_party_1_1_configuration_1_1_i_item_configuration.html" target="_top" xlink:title=" ">
<polygon fill="white" stroke="#666666" points="339.75,-335.5 206,-335.5 206,-305 339.75,-305 339.75,-335.5"/>
<text xml:space="preserve" text-anchor="start" x="214" y="-322" font-family="Helvetica,sans-Serif" font-size="10.00">BalloonParty.Configuration.</text>
<text xml:space="preserve" text-anchor="middle" x="272.88" y="-310.75" font-family="Helvetica,sans-Serif" font-size="10.00">IItemConfiguration</text>
</a>
</g>
</g>
<!-- Node15&#45;&gt;Node1 -->
<g id="edge24_Node000001_Node000015" class="edge">
<title>Node15&#45;&gt;Node1</title>
<g id="a_edge24_Node000001_Node000015"><a xlink:title=" ">
<path fill="none" stroke="#9a32cd" stroke-dasharray="5,2" d="M351.4,-317.67C358.62,-317.5 365.82,-317.36 372.75,-317.25 440.85,-316.22 458.48,-308.29 526,-317.25 639.58,-332.33 768.53,-373.68 834.15,-396.54"/>
<polygon fill="#9a32cd" stroke="#9a32cd" points="351.5,-314.17 341.6,-317.92 351.68,-321.17 351.5,-314.17"/>
</a>
</g>
<text xml:space="preserve" text-anchor="start" x="594.75" y="-358.76" font-family="Helvetica,sans-Serif" font-size="10.00" fill="grey">_itemConfig</text>
</g>
<!-- Node15&#45;&gt;Node9 -->
<g id="edge19_Node000009_Node000015" class="edge">
<title>Node15&#45;&gt;Node9</title>
<g id="a_edge19_Node000009_Node000015"><a xlink:title=" ">
<path fill="none" stroke="#9a32cd" stroke-dasharray="5,2" d="M351.37,-319.64C402.4,-321.5 469.89,-328.33 526,-349 555.35,-359.81 584.5,-381.59 602.38,-396.54"/>
<polygon fill="#9a32cd" stroke="#9a32cd" points="351.7,-316.15 341.6,-319.34 351.49,-323.14 351.7,-316.15"/>
</a>
</g>
<text xml:space="preserve" text-anchor="start" x="423.12" y="-355" font-family="Helvetica,sans-Serif" font-size="10.00" fill="grey">_itemConfig</text>
</g>
<!-- Node16 -->
<g id="Node000016" class="node">
<title>Node16</title>
<g id="a_Node000016"><a xlink:href="class_balloon_party_1_1_shared_1_1_pool_1_1_pool_manager.html" target="_top" xlink:title=" ">
<polygon fill="white" stroke="#666666" points="337.5,-510.5 208.25,-510.5 208.25,-480 337.5,-480 337.5,-510.5"/>
<text xml:space="preserve" text-anchor="start" x="216.25" y="-497" font-family="Helvetica,sans-Serif" font-size="10.00">BalloonParty.Shared.Pool.</text>
<text xml:space="preserve" text-anchor="middle" x="272.88" y="-485.75" font-family="Helvetica,sans-Serif" font-size="10.00">PoolManager</text>
</a>
</g>
</g>
<!-- Node16&#45;&gt;Node1 -->
<g id="edge25_Node000001_Node000016" class="edge">
<title>Node16&#45;&gt;Node1</title>
<g id="a_edge25_Node000001_Node000016"><a xlink:title=" ">
<path fill="none" stroke="#9a32cd" stroke-dasharray="5,2" d="M349.24,-499.69C399.48,-501.56 466.89,-501.98 526,-495.25 647.79,-481.38 675.61,-462.11 794.75,-433.25 801.66,-431.58 808.9,-429.79 816.08,-428"/>
<polygon fill="#9a32cd" stroke="#9a32cd" points="349.47,-496.2 339.34,-499.29 349.19,-503.19 349.47,-496.2"/>
</a>
</g>
<text xml:space="preserve" text-anchor="start" x="590.62" y="-498.89" font-family="Helvetica,sans-Serif" font-size="10.00" fill="grey">_poolManager</text>
</g>
<!-- Node16&#45;&gt;Node9 -->
<g id="edge20_Node000009_Node000016" class="edge">
<title>Node16&#45;&gt;Node9</title>
<g id="a_edge20_Node000009_Node000016"><a xlink:title=" ">
<path fill="none" stroke="#9a32cd" stroke-dasharray="5,2" d="M349.14,-481.91C357.11,-480.56 365.09,-479.24 372.75,-478 440.73,-467.03 459.98,-474.82 526,-455.25 548.88,-448.47 573.36,-437.12 591.6,-427.79"/>
<polygon fill="#9a32cd" stroke="#9a32cd" points="348.69,-478.44 339.42,-483.58 349.86,-485.34 348.69,-478.44"/>
</a>
</g>
<text xml:space="preserve" text-anchor="start" x="419" y="-484" font-family="Helvetica,sans-Serif" font-size="10.00" fill="grey">_poolManager</text>
</g>
<!-- Node17 -->
<g id="Node000017" class="node">
<title>Node17</title>
<g id="a_Node000017"><a xlink:href="interface_balloon_party_1_1_configuration_1_1_i_balloons_configuration.html" target="_top" xlink:title=" ">
<polygon fill="white" stroke="#666666" points="687.88,-177.5 554.12,-177.5 554.12,-147 687.88,-147 687.88,-177.5"/>
<text xml:space="preserve" text-anchor="start" x="562.12" y="-164" font-family="Helvetica,sans-Serif" font-size="10.00">BalloonParty.Configuration.</text>
<text xml:space="preserve" text-anchor="middle" x="621" y="-152.75" font-family="Helvetica,sans-Serif" font-size="10.00">IBalloonsConfiguration</text>
</a>
</g>
</g>
<!-- Node17&#45;&gt;Node1 -->
<g id="edge21_Node000001_Node000017" class="edge">
<title>Node17&#45;&gt;Node1</title>
<g id="a_edge21_Node000001_Node000017"><a xlink:title=" ">
<path fill="none" stroke="#9a32cd" stroke-dasharray="5,2" d="M699.64,-149.81C731.99,-148.82 768.14,-153.68 794.75,-174 867.48,-229.54 876.61,-353.19 877.51,-396.72"/>
<polygon fill="#9a32cd" stroke="#9a32cd" points="699.69,-146.3 689.88,-150.31 700.05,-153.29 699.69,-146.3"/>
</a>
</g>
<text xml:space="preserve" text-anchor="start" x="720.5" y="-180" font-family="Helvetica,sans-Serif" font-size="10.00" fill="grey">_balloonsConfig</text>
</g>
<!-- Node18 -->
<g id="Node000018" class="node">
<title>Node18</title>
<g id="a_Node000018"><a xlink:href="interface_balloon_party_1_1_balloon_1_1_view_1_1_i_balloon_view_binding.html" target="_top" xlink:title="Implemented by MonoBehaviours on a balloon prefab that need to react to model binding.">
<polygon fill="white" stroke="#666666" points="686.75,-128.5 555.25,-128.5 555.25,-98 686.75,-98 686.75,-128.5"/>
<text xml:space="preserve" text-anchor="start" x="563.25" y="-115" font-family="Helvetica,sans-Serif" font-size="10.00">BalloonParty.Balloon.View.</text>
<text xml:space="preserve" text-anchor="middle" x="621" y="-103.75" font-family="Helvetica,sans-Serif" font-size="10.00">IBalloonViewBinding</text>
</a>
</g>
</g>
<!-- Node18&#45;&gt;Node1 -->
<g id="edge26_Node000001_Node000018" class="edge">
<title>Node18&#45;&gt;Node1</title>
<g id="a_edge26_Node000001_Node000018"><a xlink:title=" ">
<path fill="none" stroke="#9a32cd" stroke-dasharray="5,2" d="M698.37,-102.27C731.35,-101.71 768.34,-107.26 794.75,-129 837.57,-164.25 867.15,-342.46 875.26,-396.62"/>
<polygon fill="#9a32cd" stroke="#9a32cd" points="698.27,-98.77 688.41,-102.64 698.53,-105.76 698.27,-98.77"/>
</a>
</g>
<text xml:space="preserve" text-anchor="start" x="723.88" y="-135" font-family="Helvetica,sans-Serif" font-size="10.00" fill="grey">_viewBindings</text>
</g>
<!-- Node19 -->
<g id="Node000019" class="node">
<title>Node19</title>
<g id="a_Node000019"><a xlink:href="interface_balloon_party_1_1_balloon_1_1_type_1_1_i_balloon_variant.html" target="_top" xlink:title=" ">
<polygon fill="white" stroke="#666666" points="687.12,-79.5 554.88,-79.5 554.88,-49 687.12,-49 687.12,-79.5"/>
<text xml:space="preserve" text-anchor="start" x="562.88" y="-66" font-family="Helvetica,sans-Serif" font-size="10.00">BalloonParty.Balloon.Type.</text>
<text xml:space="preserve" text-anchor="middle" x="621" y="-54.75" font-family="Helvetica,sans-Serif" font-size="10.00">IBalloonVariant</text>
</a>
</g>
</g>
<!-- Node19&#45;&gt;Node1 -->
<g id="edge27_Node000001_Node000019" class="edge">
<title>Node19&#45;&gt;Node1</title>
<g id="a_edge27_Node000001_Node000019"><a xlink:title=" ">
<path fill="none" stroke="#9a32cd" stroke-dasharray="5,2" d="M698.38,-53.3C731.56,-52.79 768.71,-58.55 794.75,-81 844.03,-123.47 869.64,-336.64 875.94,-396.56"/>
<polygon fill="#9a32cd" stroke="#9a32cd" points="698.69,-49.78 688.82,-53.64 698.94,-56.78 698.69,-49.78"/>
</a>
</g>
<text xml:space="preserve" text-anchor="start" x="738.12" y="-87" font-family="Helvetica,sans-Serif" font-size="10.00" fill="grey">_variant</text>
</g>
<!-- Node20 -->
<g id="Node000020" class="node">
<title>Node20</title>
<g id="a_Node000020"><a xlink:href="class_balloon_party_1_1_configuration_1_1_hit_vfx_override.html" target="_top" xlink:title=" ">
<polygon fill="white" stroke="#666666" points="687.88,-30.5 554.12,-30.5 554.12,0 687.88,0 687.88,-30.5"/>
<text xml:space="preserve" text-anchor="start" x="562.12" y="-17" font-family="Helvetica,sans-Serif" font-size="10.00">BalloonParty.Configuration.</text>
<text xml:space="preserve" text-anchor="middle" x="621" y="-5.75" font-family="Helvetica,sans-Serif" font-size="10.00">HitVfxOverride</text>
</a>
</g>
</g>
<!-- Node20&#45;&gt;Node1 -->
<g id="edge28_Node000001_Node000020" class="edge">
<title>Node20&#45;&gt;Node1</title>
<g id="a_edge28_Node000001_Node000020"><a xlink:title=" ">
<path fill="none" stroke="#9a32cd" stroke-dasharray="5,2" d="M699.14,-4.44C732.29,-4.11 769.2,-10.17 794.75,-33 850.53,-82.84 871.8,-331.44 876.46,-396.6"/>
<polygon fill="#9a32cd" stroke="#9a32cd" points="699.46,-0.92 689.57,-4.73 699.67,-7.92 699.46,-0.92"/>
</a>
</g>
<text xml:space="preserve" text-anchor="start" x="719" y="-39" font-family="Helvetica,sans-Serif" font-size="10.00" fill="grey">_hitVfxOverrides</text>
</g>
</g>
</svg>
