<?xml version="1.0" encoding="UTF-8" standalone="no"?>
<!DOCTYPE svg PUBLIC "-//W3C//DTD SVG 1.1//EN"
 "http://www.w3.org/Graphics/SVG/1.1/DTD/svg11.dtd">
<!-- Generated by graphviz version 15.0.0 (20260523.1842)
 -->
<!-- Title: BalloonParty.Shared.Pool.PoolChannel&lt; TItem &gt; Pages: 1 -->
<svg width="686pt" height="186pt"
 viewBox="0.00 0.00 686.00 186.00" xmlns="http://www.w3.org/2000/svg" xmlns:xlink="http://www.w3.org/1999/xlink">
<g id="graph0" class="graph" transform="scale(1 1) rotate(0) translate(4 181.5)">
<title>BalloonParty.Shared.Pool.PoolChannel&lt; TItem &gt;</title>
<!-- Node1 -->
<g id="Node000001" class="node">
<title>Node1</title>
<g id="a_Node000001"><a xlink:title=" ">
<polygon fill="#999999" stroke="#666666" points="294.5,-79.5 165.25,-79.5 165.25,-49 294.5,-49 294.5,-79.5"/>
<text xml:space="preserve" text-anchor="start" x="173.25" y="-66" font-family="Helvetica,sans-Serif" font-size="10.00">BalloonParty.Shared.Pool.</text>
<text xml:space="preserve" text-anchor="middle" x="229.88" y="-54.75" font-family="Helvetica,sans-Serif" font-size="10.00">PoolChannel&lt; TItem &gt;</text>
</a>
</g>
</g>
<!-- Node3 -->
<g id="Node000003" class="node">
<title>Node3</title>
<g id="a_Node000003"><a xlink:href="class_balloon_party_1_1_shared_1_1_pool_1_1_injecting_pool_channel-1-g.html" target="_top" xlink:title="Pool channel that instantiates prefabs and injects [Inject] fields from a parent IObjectResolver — wi...">
<polygon fill="white" stroke="#666666" points="482.25,-128.5 330.5,-128.5 330.5,-98 482.25,-98 482.25,-128.5"/>
<text xml:space="preserve" text-anchor="start" x="338.5" y="-115" font-family="Helvetica,sans-Serif" font-size="10.00">BalloonParty.Shared.Pool.</text>
<text xml:space="preserve" text-anchor="middle" x="406.38" y="-103.75" font-family="Helvetica,sans-Serif" font-size="10.00">InjectingPoolChannel&lt; TItem &gt;</text>
</a>
</g>
</g>
<!-- Node1&#45;&gt;Node3 -->
<g id="edge2_Node000001_Node000003" class="edge">
<title>Node1&#45;&gt;Node3</title>
<g id="a_edge2_Node000001_Node000003"><a xlink:title=" ">
<path fill="none" stroke="#63b8ff" d="M297.59,-82.98C314.66,-87.78 332.84,-92.88 349.31,-97.51"/>
<polygon fill="#63b8ff" stroke="#63b8ff" points="298.6,-79.63 288.02,-80.3 296.71,-86.37 298.6,-79.63"/>
</a>
</g>
</g>
<!-- Node7 -->
<g id="Node000007" class="node">
<title>Node7</title>
<g id="a_Node000007"><a xlink:href="class_balloon_party_1_1_shared_1_1_pool_1_1_particle_pool_channel.html" target="_top" xlink:title="Pool channel for effects driven exclusively by a ParticleSystem.">
<polygon fill="white" stroke="#666666" points="471,-79.5 341.75,-79.5 341.75,-49 471,-49 471,-79.5"/>
<text xml:space="preserve" text-anchor="start" x="349.75" y="-66" font-family="Helvetica,sans-Serif" font-size="10.00">BalloonParty.Shared.Pool.</text>
<text xml:space="preserve" text-anchor="middle" x="406.38" y="-54.75" font-family="Helvetica,sans-Serif" font-size="10.00">ParticlePoolChannel</text>
</a>
</g>
</g>
<!-- Node1&#45;&gt;Node7 -->
<g id="edge6_Node000001_Node000007" class="edge">
<title>Node1&#45;&gt;Node7</title>
<g id="a_edge6_Node000001_Node000007"><a xlink:title=" ">
<path fill="none" stroke="#63b8ff" d="M306.04,-64.25C317.82,-64.25 329.9,-64.25 341.4,-64.25"/>
<polygon fill="#63b8ff" stroke="#63b8ff" points="306.38,-60.75 296.38,-64.25 306.38,-67.75 306.38,-60.75"/>
</a>
</g>
</g>
<!-- Node8 -->
<g id="Node000008" class="node">
<title>Node8</title>
<g id="a_Node000008"><a xlink:href="class_balloon_party_1_1_shared_1_1_pool_1_1_simple_pool_channel-1-g.html" target="_top" xlink:title="Pool channel for prefabs that need no VContainer injection: instantiates the prefab under PoolChannel...">
<polygon fill="white" stroke="#666666" points="478.88,-30.5 333.88,-30.5 333.88,0 478.88,0 478.88,-30.5"/>
<text xml:space="preserve" text-anchor="start" x="341.88" y="-17" font-family="Helvetica,sans-Serif" font-size="10.00">BalloonParty.Shared.Pool.</text>
<text xml:space="preserve" text-anchor="middle" x="406.38" y="-5.75" font-family="Helvetica,sans-Serif" font-size="10.00">SimplePoolChannel&lt; TItem &gt;</text>
</a>
</g>
</g>
<!-- Node1&#45;&gt;Node8 -->
<g id="edge7_Node000001_Node000008" class="edge">
<title>Node1&#45;&gt;Node8</title>
<g id="a_edge7_Node000001_Node000008"><a xlink:title=" ">
<path fill="none" stroke="#63b8ff" d="M297.59,-45.52C314.66,-40.72 332.84,-35.62 349.31,-30.99"/>
<polygon fill="#63b8ff" stroke="#63b8ff" points="296.71,-42.13 288.02,-48.2 298.6,-48.87 296.71,-42.13"/>
</a>
</g>
</g>
<!-- Node2 -->
<g id="Node000002" class="node">
<title>Node2</title>
<g id="a_Node000002"><a xlink:href="interface_balloon_party_1_1_shared_1_1_pool_1_1_i_pool_channel.html" target="_top" xlink:title="Non&#45;generic marker so we can store any PoolChannel in a typed dictionary.">
<polygon fill="white" stroke="#666666" points="129.25,-79.5 0,-79.5 0,-49 129.25,-49 129.25,-79.5"/>
<text xml:space="preserve" text-anchor="start" x="8" y="-66" font-family="Helvetica,sans-Serif" font-size="10.00">BalloonParty.Shared.Pool.</text>
<text xml:space="preserve" text-anchor="middle" x="64.62" y="-54.75" font-family="Helvetica,sans-Serif" font-size="10.00">IPoolChannel</text>
</a>
</g>
</g>
<!-- Node2&#45;&gt;Node1 -->
<g id="edge1_Node000001_Node000002" class="edge">
<title>Node2&#45;&gt;Node1</title>
<g id="a_edge1_Node000001_Node000002"><a xlink:title=" ">
<path fill="none" stroke="#63b8ff" d="M140.96,-64.25C149,-64.25 157.12,-64.25 165.01,-64.25"/>
<polygon fill="#63b8ff" stroke="#63b8ff" points="141.19,-60.75 131.19,-64.25 141.19,-67.75 141.19,-60.75"/>
</a>
</g>
</g>
<!-- Node4 -->
<g id="Node000004" class="node">
<title>Node4</title>
<g id="a_Node000004"><a xlink:href="class_balloon_party_1_1_balloon_1_1_spawner_1_1_balloon_pool_channel.html" target="_top" xlink:title=" ">
<polygon fill="white" stroke="#666666" points="672.62,-177.5 523.88,-177.5 523.88,-147 672.62,-147 672.62,-177.5"/>
<text xml:space="preserve" text-anchor="start" x="531.88" y="-164" font-family="Helvetica,sans-Serif" font-size="10.00">BalloonParty.Balloon.Spawner.</text>
<text xml:space="preserve" text-anchor="middle" x="598.25" y="-152.75" font-family="Helvetica,sans-Serif" font-size="10.00">BalloonPoolChannel</text>
</a>
</g>
</g>
<!-- Node3&#45;&gt;Node4 -->
<g id="edge3_Node000003_Node000004" class="edge">
<title>Node3&#45;&gt;Node4</title>
<g id="a_edge3_Node000003_Node000004"><a xlink:title=" ">
<path fill="none" stroke="#63b8ff" d="M479.17,-131.78C498.03,-136.64 518.18,-141.85 536.41,-146.55"/>
<polygon fill="#63b8ff" stroke="#63b8ff" points="480.26,-128.44 469.7,-129.33 478.51,-135.22 480.26,-128.44"/>
</a>
</g>
</g>
<!-- Node5 -->
<g id="Node000005" class="node">
<title>Node5</title>
<g id="a_Node000005"><a xlink:href="class_balloon_party_1_1_projectile_1_1_projectile_pool_channel.html" target="_top" xlink:title=" ">
<polygon fill="white" stroke="#666666" points="656.5,-128.5 540,-128.5 540,-98 656.5,-98 656.5,-128.5"/>
<text xml:space="preserve" text-anchor="start" x="548" y="-115" font-family="Helvetica,sans-Serif" font-size="10.00">BalloonParty.Projectile.</text>
<text xml:space="preserve" text-anchor="middle" x="598.25" y="-103.75" font-family="Helvetica,sans-Serif" font-size="10.00">ProjectilePoolChannel</text>
</a>
</g>
</g>
<!-- Node3&#45;&gt;Node5 -->
<g id="edge4_Node000003_Node000005" class="edge">
<title>Node3&#45;&gt;Node5</title>
<g id="a_edge4_Node000003_Node000005"><a xlink:title=" ">
<path fill="none" stroke="#63b8ff" d="M493.89,-113.25C509.39,-113.25 525.18,-113.25 539.61,-113.25"/>
<polygon fill="#63b8ff" stroke="#63b8ff" points="494.2,-109.75 484.2,-113.25 494.2,-116.75 494.2,-109.75"/>
</a>
</g>
</g>
<!-- Node6 -->
<g id="Node000006" class="node">
<title>Node6</title>
<g id="a_Node000006"><a xlink:href="class_balloon_party_1_1_slots_1_1_actor_1_1_archetype_1_1_grid_actor_pool_channel.html" target="_top" xlink:title=" ">
<polygon fill="white" stroke="#666666" points="678.25,-79.5 518.25,-79.5 518.25,-49 678.25,-49 678.25,-79.5"/>
<text xml:space="preserve" text-anchor="start" x="526.25" y="-66" font-family="Helvetica,sans-Serif" font-size="10.00">BalloonParty.Slots.Actor.</text>
<text xml:space="preserve" text-anchor="middle" x="598.25" y="-54.75" font-family="Helvetica,sans-Serif" font-size="10.00">Archetype.GridActorPoolChannel</text>
</a>
</g>
</g>
<!-- Node3&#45;&gt;Node6 -->
<g id="edge5_Node000003_Node000006" class="edge">
<title>Node3&#45;&gt;Node6</title>
<g id="a_edge5_Node000003_Node000006"><a xlink:title=" ">
<path fill="none" stroke="#63b8ff" d="M479.17,-94.72C498.03,-89.86 518.18,-84.65 536.41,-79.95"/>
<polygon fill="#63b8ff" stroke="#63b8ff" points="478.51,-91.28 469.7,-97.17 480.26,-98.06 478.51,-91.28"/>
</a>
</g>
</g>
</g>
</svg>
