<?xml version="1.0" encoding="UTF-8" standalone="no"?>
<!DOCTYPE svg PUBLIC "-//W3C//DTD SVG 1.1//EN"
 "http://www.w3.org/Graphics/SVG/1.1/DTD/svg11.dtd">
<!-- Generated by graphviz version 15.0.0 (20260523.1842)
 -->
<!-- Title: BalloonParty.Balloon.View.ParticleColorableRenderer Pages: 1 -->
<svg width="264pt" height="238pt"
 viewBox="0.00 0.00 264.00 238.00" xmlns="http://www.w3.org/2000/svg" xmlns:xlink="http://www.w3.org/1999/xlink">
<g id="graph0" class="graph" transform="scale(1 1) rotate(0) translate(4 234)">
<title>BalloonParty.Balloon.View.ParticleColorableRenderer</title>
<!-- Node1 -->
<g id="Node000001" class="node">
<title>Node1</title>
<g id="a_Node000001"><a xlink:title=" ">
<polygon fill="#999999" stroke="#666666" points="175.5,-30.5 44,-30.5 44,0 175.5,0 175.5,-30.5"/>
<text xml:space="preserve" text-anchor="start" x="52" y="-17" font-family="Helvetica,sans-Serif" font-size="10.00">BalloonParty.Balloon.View.</text>
<text xml:space="preserve" text-anchor="middle" x="109.75" y="-5.75" font-family="Helvetica,sans-Serif" font-size="10.00">ParticleColorableRenderer</text>
</a>
</g>
</g>
<!-- Node2 -->
<g id="Node000002" class="node">
<title>Node2</title>
<g id="a_Node000002"><a xlink:href="class_balloon_party_1_1_shared_1_1_rendering_1_1_colorable_renderer-1-g.html" target="_top" xlink:title="Generic layer that fetches the required T &#160;component on Awake.">
<polygon fill="white" stroke="#666666" points="186.75,-97 32.75,-97 32.75,-66.5 186.75,-66.5 186.75,-97"/>
<text xml:space="preserve" text-anchor="start" x="40.75" y="-83.5" font-family="Helvetica,sans-Serif" font-size="10.00">BalloonParty.Shared.Rendering.</text>
<text xml:space="preserve" text-anchor="middle" x="109.75" y="-72.25" font-family="Helvetica,sans-Serif" font-size="10.00">ColorableRenderer&lt; T &gt;</text>
</a>
</g>
</g>
<!-- Node2&#45;&gt;Node1 -->
<g id="edge1_Node000001_Node000002" class="edge">
<title>Node2&#45;&gt;Node1</title>
<g id="a_edge1_Node000001_Node000002"><a xlink:title=" ">
<path fill="none" stroke="#63b8ff" d="M109.75,-54.81C109.75,-46.64 109.75,-37.91 109.75,-30.83"/>
<polygon fill="#63b8ff" stroke="#63b8ff" points="106.25,-54.6 109.75,-64.6 113.25,-54.6 106.25,-54.6"/>
</a>
</g>
</g>
<!-- Node3 -->
<g id="Node000003" class="node">
<title>Node3</title>
<g id="a_Node000003"><a xlink:href="class_balloon_party_1_1_shared_1_1_rendering_1_1_colorable_renderer.html" target="_top" xlink:title="Non&#45;generic MonoBehaviour base that implements IColorableRenderer.">
<polygon fill="white" stroke="#666666" points="186.75,-163.5 32.75,-163.5 32.75,-133 186.75,-133 186.75,-163.5"/>
<text xml:space="preserve" text-anchor="start" x="40.75" y="-150" font-family="Helvetica,sans-Serif" font-size="10.00">BalloonParty.Shared.Rendering.</text>
<text xml:space="preserve" text-anchor="middle" x="109.75" y="-138.75" font-family="Helvetica,sans-Serif" font-size="10.00">ColorableRenderer</text>
</a>
</g>
</g>
<!-- Node3&#45;&gt;Node2 -->
<g id="edge2_Node000002_Node000003" class="edge">
<title>Node3&#45;&gt;Node2</title>
<g id="a_edge2_Node000002_Node000003"><a xlink:title=" ">
<path fill="none" stroke="#63b8ff" d="M109.75,-121.31C109.75,-113.14 109.75,-104.41 109.75,-97.33"/>
<polygon fill="#63b8ff" stroke="#63b8ff" points="106.25,-121.1 109.75,-131.1 113.25,-121.1 106.25,-121.1"/>
</a>
</g>
</g>
<!-- Node4 -->
<g id="Node000004" class="node">
<title>Node4</title>
<g id="a_Node000004"><a xlink:title=" ">
<polygon fill="white" stroke="#666666" points="83.5,-224.38 0,-224.38 0,-205.12 83.5,-205.12 83.5,-224.38"/>
<text xml:space="preserve" text-anchor="middle" x="41.75" y="-210.88" font-family="Helvetica,sans-Serif" font-size="10.00">MonoBehaviour</text>
</a>
</g>
</g>
<!-- Node4&#45;&gt;Node3 -->
<g id="edge3_Node000003_Node000004" class="edge">
<title>Node4&#45;&gt;Node3</title>
<g id="a_edge3_Node000003_Node000004"><a xlink:title=" ">
<path fill="none" stroke="#63b8ff" d="M59.48,-196.93C70.31,-186.66 84,-173.67 94.37,-163.84"/>
<polygon fill="#63b8ff" stroke="#63b8ff" points="57.15,-194.32 52.3,-203.74 61.97,-199.4 57.15,-194.32"/>
</a>
</g>
</g>
<!-- Node5 -->
<g id="Node000005" class="node">
<title>Node5</title>
<g id="a_Node000005"><a xlink:href="interface_balloon_party_1_1_shared_1_1_rendering_1_1_i_colorable_renderer.html" target="_top" xlink:title=" ">
<polygon fill="white" stroke="#666666" points="255.75,-230 101.75,-230 101.75,-199.5 255.75,-199.5 255.75,-230"/>
<text xml:space="preserve" text-anchor="start" x="109.75" y="-216.5" font-family="Helvetica,sans-Serif" font-size="10.00">BalloonParty.Shared.Rendering.</text>
<text xml:space="preserve" text-anchor="middle" x="178.75" y="-205.25" font-family="Helvetica,sans-Serif" font-size="10.00">IColorableRenderer</text>
</a>
</g>
</g>
<!-- Node5&#45;&gt;Node3 -->
<g id="edge4_Node000003_Node000005" class="edge">
<title>Node5&#45;&gt;Node3</title>
<g id="a_edge4_Node000003_Node000005"><a xlink:title=" ">
<path fill="none" stroke="#63b8ff" d="M154.91,-191.46C145.12,-182.32 134.07,-171.98 125.35,-163.83"/>
<polygon fill="#63b8ff" stroke="#63b8ff" points="152.29,-193.81 161.99,-198.08 157.07,-188.69 152.29,-193.81"/>
</a>
</g>
</g>
</g>
</svg>
