<?xml version="1.0" encoding="UTF-8" standalone="no"?>
<!DOCTYPE svg PUBLIC "-//W3C//DTD SVG 1.1//EN"
 "http://www.w3.org/Graphics/SVG/1.1/DTD/svg11.dtd">
<!-- Generated by graphviz version 15.0.0 (20260523.1842)
 -->
<!-- Title: BalloonParty.Configuration.GridActorConfiguration Pages: 1 -->
<svg width="933pt" height="153pt"
 viewBox="0.00 0.00 933.00 153.00" xmlns="http://www.w3.org/2000/svg" xmlns:xlink="http://www.w3.org/1999/xlink">
<g id="graph0" class="graph" transform="scale(1 1) rotate(0) translate(4 149.28)">
<title>BalloonParty.Configuration.GridActorConfiguration</title>
<!-- Node1 -->
<g id="Node000001" class="node">
<title>Node1</title>
<g id="a_Node000001"><a xlink:title=" ">
<polygon fill="#999999" stroke="#666666" points="924.75,-125.5 791,-125.5 791,-95 924.75,-95 924.75,-125.5"/>
<text xml:space="preserve" text-anchor="start" x="799" y="-112" font-family="Helvetica,sans-Serif" font-size="10.00">BalloonParty.Configuration.</text>
<text xml:space="preserve" text-anchor="middle" x="857.88" y="-100.75" font-family="Helvetica,sans-Serif" font-size="10.00">GridActorConfiguration</text>
</a>
</g>
</g>
<!-- Node2 -->
<g id="Node000002" class="node">
<title>Node2</title>
<g id="a_Node000002"><a xlink:title=" ">
<polygon fill="white" stroke="#666666" points="691.62,-140.88 603.62,-140.88 603.62,-121.62 691.62,-121.62 691.62,-140.88"/>
<text xml:space="preserve" text-anchor="middle" x="647.62" y="-127.38" font-family="Helvetica,sans-Serif" font-size="10.00">ScriptableObject</text>
</a>
</g>
</g>
<!-- Node2&#45;&gt;Node1 -->
<g id="edge1_Node000001_Node000002" class="edge">
<title>Node2&#45;&gt;Node1</title>
<g id="a_edge1_Node000001_Node000002"><a xlink:title=" ">
<path fill="none" stroke="#63b8ff" d="M703.48,-125.72C730.17,-123.03 762.48,-119.77 790.55,-116.94"/>
<polygon fill="#63b8ff" stroke="#63b8ff" points="703.13,-122.24 693.53,-126.72 703.83,-129.2 703.13,-122.24"/>
</a>
</g>
</g>
<!-- Node3 -->
<g id="Node000003" class="node">
<title>Node3</title>
<g id="a_Node000003"><a xlink:href="class_balloon_party_1_1_configuration_1_1_grid_actor_prefab_entry.html" target="_top" xlink:title=" ">
<polygon fill="white" stroke="#666666" points="714.5,-103.5 580.75,-103.5 580.75,-73 714.5,-73 714.5,-103.5"/>
<text xml:space="preserve" text-anchor="start" x="588.75" y="-90" font-family="Helvetica,sans-Serif" font-size="10.00">BalloonParty.Configuration.</text>
<text xml:space="preserve" text-anchor="middle" x="647.62" y="-78.75" font-family="Helvetica,sans-Serif" font-size="10.00">GridActorPrefabEntry</text>
</a>
</g>
</g>
<!-- Node3&#45;&gt;Node1 -->
<g id="edge2_Node000001_Node000003" class="edge">
<title>Node3&#45;&gt;Node1</title>
<g id="a_edge2_Node000001_Node000003"><a xlink:title=" ">
<path fill="none" stroke="#9a32cd" stroke-dasharray="5,2" d="M726.05,-93.51C741.62,-94.8 757.84,-96.3 773,-98 778.7,-98.64 784.62,-99.37 790.54,-100.14"/>
<polygon fill="#9a32cd" stroke="#9a32cd" points="726.62,-90.05 716.37,-92.74 726.06,-97.03 726.62,-90.05"/>
</a>
</g>
<text xml:space="preserve" text-anchor="start" x="735.5" y="-104" font-family="Helvetica,sans-Serif" font-size="10.00" fill="grey">_entries</text>
</g>
<!-- Node4 -->
<g id="Node000004" class="node">
<title>Node4</title>
<g id="a_Node000004"><a xlink:href="class_balloon_party_1_1_slots_1_1_actor_1_1_archetype_1_1_grid_actor_view.html" target="_top" xlink:title=" ">
<polygon fill="white" stroke="#666666" points="506.5,-103.5 380.25,-103.5 380.25,-73 506.5,-73 506.5,-103.5"/>
<text xml:space="preserve" text-anchor="start" x="388.25" y="-90" font-family="Helvetica,sans-Serif" font-size="10.00">BalloonParty.Slots.Actor.</text>
<text xml:space="preserve" text-anchor="middle" x="443.38" y="-78.75" font-family="Helvetica,sans-Serif" font-size="10.00">Archetype.GridActorView</text>
</a>
</g>
</g>
<!-- Node4&#45;&gt;Node3 -->
<g id="edge3_Node000003_Node000004" class="edge">
<title>Node4&#45;&gt;Node3</title>
<g id="a_edge3_Node000003_Node000004"><a xlink:title=" ">
<path fill="none" stroke="#9a32cd" stroke-dasharray="5,2" d="M518.41,-88.25C538.73,-88.25 560.62,-88.25 580.46,-88.25"/>
<polygon fill="#9a32cd" stroke="#9a32cd" points="518.5,-84.75 508.5,-88.25 518.5,-91.75 518.5,-84.75"/>
</a>
</g>
<text xml:space="preserve" text-anchor="start" x="527.5" y="-94.25" font-family="Helvetica,sans-Serif" font-size="10.00" fill="grey">_prefab</text>
</g>
<!-- Node5 -->
<g id="Node000005" class="node">
<title>Node5</title>
<g id="a_Node000005"><a xlink:title=" ">
<polygon fill="white" stroke="#666666" points="83.5,-143.88 0,-143.88 0,-124.62 83.5,-124.62 83.5,-143.88"/>
<text xml:space="preserve" text-anchor="middle" x="41.75" y="-130.38" font-family="Helvetica,sans-Serif" font-size="10.00">MonoBehaviour</text>
</a>
</g>
</g>
<!-- Node5&#45;&gt;Node4 -->
<g id="edge4_Node000004_Node000005" class="edge">
<title>Node5&#45;&gt;Node4</title>
<g id="a_edge4_Node000004_Node000005"><a xlink:title=" ">
<path fill="none" stroke="#63b8ff" d="M95.32,-140.51C159.69,-146.39 271.35,-150.79 362.25,-124.25 379.52,-119.21 397.9,-111.16 412.69,-103.96"/>
<polygon fill="#63b8ff" stroke="#63b8ff" points="95.66,-137.03 85.37,-139.55 94.99,-143.99 95.66,-137.03"/>
</a>
</g>
</g>
<!-- Node8 -->
<g id="Node000008" class="node">
<title>Node8</title>
<g id="a_Node000008"><a xlink:href="class_balloon_party_1_1_shared_1_1_animation_1_1_tween_tracker.html" target="_top" xlink:title=" ">
<polygon fill="white" stroke="#666666" points="273.75,-128.5 120.5,-128.5 120.5,-98 273.75,-98 273.75,-128.5"/>
<text xml:space="preserve" text-anchor="start" x="128.5" y="-115" font-family="Helvetica,sans-Serif" font-size="10.00">BalloonParty.Shared.Animation.</text>
<text xml:space="preserve" text-anchor="middle" x="197.12" y="-103.75" font-family="Helvetica,sans-Serif" font-size="10.00">TweenTracker</text>
</a>
</g>
</g>
<!-- Node5&#45;&gt;Node8 -->
<g id="edge8_Node000008_Node000005" class="edge">
<title>Node5&#45;&gt;Node8</title>
<g id="a_edge8_Node000008_Node000005"><a xlink:title=" ">
<path fill="none" stroke="#63b8ff" d="M95.04,-127.09C103.18,-125.98 111.73,-124.81 120.26,-123.64"/>
<polygon fill="#63b8ff" stroke="#63b8ff" points="94.78,-123.59 85.35,-128.42 95.73,-130.53 94.78,-123.59"/>
</a>
</g>
</g>
<!-- Node6 -->
<g id="Node000006" class="node">
<title>Node6</title>
<g id="a_Node000006"><a xlink:href="interface_balloon_party_1_1_shared_1_1_pool_1_1_i_poolable.html" target="_top" xlink:title=" ">
<polygon fill="white" stroke="#666666" points="261.75,-79.5 132.5,-79.5 132.5,-49 261.75,-49 261.75,-79.5"/>
<text xml:space="preserve" text-anchor="start" x="140.5" y="-66" font-family="Helvetica,sans-Serif" font-size="10.00">BalloonParty.Shared.Pool.</text>
<text xml:space="preserve" text-anchor="middle" x="197.12" y="-54.75" font-family="Helvetica,sans-Serif" font-size="10.00">IPoolable</text>
</a>
</g>
</g>
<!-- Node6&#45;&gt;Node4 -->
<g id="edge5_Node000004_Node000006" class="edge">
<title>Node6&#45;&gt;Node4</title>
<g id="a_edge5_Node000004_Node000006"><a xlink:title=" ">
<path fill="none" stroke="#63b8ff" d="M273.35,-71.64C307.6,-75.01 347.64,-78.94 380.16,-82.14"/>
<polygon fill="#63b8ff" stroke="#63b8ff" points="273.78,-68.17 263.49,-70.67 273.1,-75.13 273.78,-68.17"/>
</a>
</g>
</g>
<!-- Node7 -->
<g id="Node000007" class="node">
<title>Node7</title>
<g id="a_Node000007"><a xlink:href="interface_balloon_party_1_1_slots_1_1_actor_1_1_i_slot_actor_view.html" target="_top" xlink:title=" ">
<polygon fill="white" stroke="#666666" points="259.12,-30.5 135.12,-30.5 135.12,0 259.12,0 259.12,-30.5"/>
<text xml:space="preserve" text-anchor="start" x="143.12" y="-17" font-family="Helvetica,sans-Serif" font-size="10.00">BalloonParty.Slots.Actor.</text>
<text xml:space="preserve" text-anchor="middle" x="197.12" y="-5.75" font-family="Helvetica,sans-Serif" font-size="10.00">ISlotActorView</text>
</a>
</g>
</g>
<!-- Node7&#45;&gt;Node4 -->
<g id="edge6_Node000004_Node000007" class="edge">
<title>Node7&#45;&gt;Node4</title>
<g id="a_edge6_Node000004_Node000007"><a xlink:title=" ">
<path fill="none" stroke="#63b8ff" d="M261.48,-34.19C301.44,-46.13 352.41,-61.36 390.06,-72.62"/>
<polygon fill="#63b8ff" stroke="#63b8ff" points="262.56,-30.85 251.97,-31.34 260.55,-37.56 262.56,-30.85"/>
</a>
</g>
</g>
<!-- Node8&#45;&gt;Node4 -->
<g id="edge7_Node000004_Node000008" class="edge">
<title>Node8&#45;&gt;Node4</title>
<g id="a_edge7_Node000004_Node000008"><a xlink:title=" ">
<path fill="none" stroke="#9a32cd" stroke-dasharray="5,2" d="M285.42,-104.32C316.68,-101.12 351.27,-97.58 380,-94.63"/>
<polygon fill="#9a32cd" stroke="#9a32cd" points="285.17,-100.82 275.57,-105.32 285.88,-107.79 285.17,-100.82"/>
</a>
</g>
<text xml:space="preserve" text-anchor="start" x="294.75" y="-108.99" font-family="Helvetica,sans-Serif" font-size="10.00" fill="grey">_tweenTracker</text>
</g>
</g>
</svg>
