<?xml version="1.0" encoding="UTF-8" standalone="no"?>
<!DOCTYPE svg PUBLIC "-//W3C//DTD SVG 1.1//EN"
 "http://www.w3.org/Graphics/SVG/1.1/DTD/svg11.dtd">
<!-- Generated by graphviz version 15.0.0 (20260523.1842)
 -->
<!-- Title: BalloonParty.Configuration.BalloonsConfiguration Pages: 1 -->
<svg width="1414pt" height="882pt"
 viewBox="0.00 0.00 1414.00 882.00" xmlns="http://www.w3.org/2000/svg" xmlns:xlink="http://www.w3.org/1999/xlink">
<g id="graph0" class="graph" transform="scale(1 1) rotate(0) translate(4 877.88)">
<title>BalloonParty.Configuration.BalloonsConfiguration</title>
<!-- Node1 -->
<g id="Node000001" class="node">
<title>Node1</title>
<g id="a_Node000001"><a xlink:title=" ">
<polygon fill="#999999" stroke="#666666" points="1406,-841.5 1272.25,-841.5 1272.25,-811 1406,-811 1406,-841.5"/>
<text xml:space="preserve" text-anchor="start" x="1280.25" y="-828" font-family="Helvetica,sans-Serif" font-size="10.00">BalloonParty.Configuration.</text>
<text xml:space="preserve" text-anchor="middle" x="1339.12" y="-816.75" font-family="Helvetica,sans-Serif" font-size="10.00">BalloonsConfiguration</text>
</a>
</g>
</g>
<!-- Node2 -->
<g id="Node000002" class="node">
<title>Node2</title>
<g id="a_Node000002"><a xlink:title=" ">
<polygon fill="white" stroke="#666666" points="1172.88,-873.88 1084.88,-873.88 1084.88,-854.62 1172.88,-854.62 1172.88,-873.88"/>
<text xml:space="preserve" text-anchor="middle" x="1128.88" y="-860.38" font-family="Helvetica,sans-Serif" font-size="10.00">ScriptableObject</text>
</a>
</g>
</g>
<!-- Node2&#45;&gt;Node1 -->
<g id="edge1_Node000001_Node000002" class="edge">
<title>Node2&#45;&gt;Node1</title>
<g id="a_edge1_Node000001_Node000002"><a xlink:title=" ">
<path fill="none" stroke="#63b8ff" d="M1184.37,-854.31C1211.13,-849.42 1243.61,-843.5 1271.8,-838.35"/>
<polygon fill="#63b8ff" stroke="#63b8ff" points="1183.98,-850.82 1174.77,-856.06 1185.23,-857.71 1183.98,-850.82"/>
</a>
</g>
</g>
<!-- Node3 -->
<g id="Node000003" class="node">
<title>Node3</title>
<g id="a_Node000003"><a xlink:href="interface_balloon_party_1_1_configuration_1_1_i_balloons_configuration.html" target="_top" xlink:title=" ">
<polygon fill="white" stroke="#666666" points="687.88,-833.5 554.12,-833.5 554.12,-803 687.88,-803 687.88,-833.5"/>
<text xml:space="preserve" text-anchor="start" x="562.12" y="-820" font-family="Helvetica,sans-Serif" font-size="10.00">BalloonParty.Configuration.</text>
<text xml:space="preserve" text-anchor="middle" x="621" y="-808.75" font-family="Helvetica,sans-Serif" font-size="10.00">IBalloonsConfiguration</text>
</a>
</g>
</g>
<!-- Node3&#45;&gt;Node1 -->
<g id="edge2_Node000001_Node000003" class="edge">
<title>Node3&#45;&gt;Node1</title>
<g id="a_edge2_Node000001_Node000003"><a xlink:title=" ">
<path fill="none" stroke="#63b8ff" d="M699.23,-819.11C840.71,-820.69 1139.11,-824.03 1271.94,-825.51"/>
<polygon fill="#63b8ff" stroke="#63b8ff" points="699.64,-815.62 689.6,-819.01 699.56,-822.62 699.64,-815.62"/>
</a>
</g>
</g>
<!-- Node6 -->
<g id="Node000006" class="node">
<title>Node6</title>
<g id="a_Node000006"><a xlink:href="class_balloon_party_1_1_balloon_1_1_view_1_1_balloon_view.html" target="_top" xlink:title=" ">
<polygon fill="white" stroke="#666666" points="945.38,-517.5 813.88,-517.5 813.88,-487 945.38,-487 945.38,-517.5"/>
<text xml:space="preserve" text-anchor="start" x="821.88" y="-504" font-family="Helvetica,sans-Serif" font-size="10.00">BalloonParty.Balloon.View.</text>
<text xml:space="preserve" text-anchor="middle" x="879.62" y="-492.75" font-family="Helvetica,sans-Serif" font-size="10.00">BalloonView</text>
</a>
</g>
</g>
<!-- Node3&#45;&gt;Node6 -->
<g id="edge26_Node000006_Node000003" class="edge">
<title>Node3&#45;&gt;Node6</title>
<g id="a_edge26_Node000006_Node000003"><a xlink:title=" ">
<path fill="none" stroke="#9a32cd" stroke-dasharray="5,2" d="M690.67,-799.28C732.69,-786.28 780.96,-768.35 794.75,-751.25 826.95,-711.32 797.33,-686.17 812.75,-637.25 827.09,-591.73 854.59,-542.31 869.11,-517.82"/>
<polygon fill="#9a32cd" stroke="#9a32cd" points="689.87,-795.87 681.32,-802.12 691.9,-802.57 689.87,-795.87"/>
</a>
</g>
<text xml:space="preserve" text-anchor="start" x="720.5" y="-796.36" font-family="Helvetica,sans-Serif" font-size="10.00" fill="grey">_balloonsConfig</text>
</g>
<!-- Node4 -->
<g id="Node000004" class="node">
<title>Node4</title>
<g id="a_Node000004"><a xlink:href="class_balloon_party_1_1_configuration_1_1_balloon_prefab_entry.html" target="_top" xlink:title=" ">
<polygon fill="white" stroke="#666666" points="1195.75,-725.5 1062,-725.5 1062,-695 1195.75,-695 1195.75,-725.5"/>
<text xml:space="preserve" text-anchor="start" x="1070" y="-712" font-family="Helvetica,sans-Serif" font-size="10.00">BalloonParty.Configuration.</text>
<text xml:space="preserve" text-anchor="middle" x="1128.88" y="-700.75" font-family="Helvetica,sans-Serif" font-size="10.00">BalloonPrefabEntry</text>
</a>
</g>
</g>
<!-- Node4&#45;&gt;Node1 -->
<g id="edge3_Node000001_Node000004" class="edge">
<title>Node4&#45;&gt;Node1</title>
<g id="a_edge3_Node000001_Node000004"><a xlink:title=" ">
<path fill="none" stroke="#9a32cd" stroke-dasharray="5,2" d="M1167.87,-731.41C1208.95,-754.3 1273.47,-790.23 1310.15,-810.67"/>
<polygon fill="#9a32cd" stroke="#9a32cd" points="1169.72,-728.44 1159.28,-726.63 1166.32,-734.55 1169.72,-728.44"/>
</a>
</g>
<text xml:space="preserve" text-anchor="start" x="1216.75" y="-784.64" font-family="Helvetica,sans-Serif" font-size="10.00" fill="grey">_entries</text>
</g>
<!-- Node5 -->
<g id="Node000005" class="node">
<title>Node5</title>
<g id="a_Node000005"><a xlink:href="interface_balloon_party_1_1_configuration_1_1_i_weighted_entry.html" target="_top" xlink:title="Common contract for weighted prefab entries that support max&#45;count limits.">
<polygon fill="white" stroke="#666666" points="946.5,-676.5 812.75,-676.5 812.75,-646 946.5,-646 946.5,-676.5"/>
<text xml:space="preserve" text-anchor="start" x="820.75" y="-663" font-family="Helvetica,sans-Serif" font-size="10.00">BalloonParty.Configuration.</text>
<text xml:space="preserve" text-anchor="middle" x="879.62" y="-651.75" font-family="Helvetica,sans-Serif" font-size="10.00">IWeightedEntry</text>
</a>
</g>
</g>
<!-- Node5&#45;&gt;Node4 -->
<g id="edge4_Node000004_Node000005" class="edge">
<title>Node5&#45;&gt;Node4</title>
<g id="a_edge4_Node000004_Node000005"><a xlink:title=" ">
<path fill="none" stroke="#63b8ff" d="M957.97,-676.58C991.31,-683.19 1029.9,-690.83 1061.86,-697.17"/>
<polygon fill="#63b8ff" stroke="#63b8ff" points="958.86,-673.19 948.37,-674.68 957.5,-680.05 958.86,-673.19"/>
</a>
</g>
</g>
<!-- Node6&#45;&gt;Node4 -->
<g id="edge5_Node000004_Node000006" class="edge">
<title>Node6&#45;&gt;Node4</title>
<g id="a_edge5_Node000004_Node000006"><a xlink:title=" ">
<path fill="none" stroke="#9a32cd" stroke-dasharray="5,2" d="M908,-525.28C958.78,-567.99 1066.29,-658.44 1109.41,-694.72"/>
<polygon fill="#9a32cd" stroke="#9a32cd" points="910.27,-522.62 900.37,-518.86 905.77,-527.97 910.27,-522.62"/>
</a>
</g>
<text xml:space="preserve" text-anchor="start" x="988.12" y="-643.03" font-family="Helvetica,sans-Serif" font-size="10.00" fill="grey">_prefab</text>
</g>
<!-- Node7 -->
<g id="Node000007" class="node">
<title>Node7</title>
<g id="a_Node000007"><a xlink:title=" ">
<polygon fill="white" stroke="#666666" points="118.75,-488.88 35.25,-488.88 35.25,-469.62 118.75,-469.62 118.75,-488.88"/>
<text xml:space="preserve" text-anchor="middle" x="77" y="-475.38" font-family="Helvetica,sans-Serif" font-size="10.00">MonoBehaviour</text>
</a>
</g>
</g>
<!-- Node7&#45;&gt;Node6 -->
<g id="edge6_Node000006_Node000007" class="edge">
<title>Node7&#45;&gt;Node6</title>
<g id="a_edge6_Node000006_Node000007"><a xlink:title=" ">
<path fill="none" stroke="#63b8ff" d="M110.36,-493.79C202.49,-533.31 473.97,-636.76 698,-591.25 759.49,-578.76 823.56,-540.03 856.35,-518"/>
<polygon fill="#63b8ff" stroke="#63b8ff" points="111.99,-490.68 101.42,-489.9 109.2,-497.1 111.99,-490.68"/>
</a>
</g>
</g>
<!-- Node11 -->
<g id="Node000011" class="node">
<title>Node11</title>
<g id="a_Node000011"><a xlink:href="class_balloon_party_1_1_shared_1_1_rendering_1_1_colorable_renderer.html" target="_top" xlink:title="Non&#45;generic MonoBehaviour base that implements IColorableRenderer.">
<polygon fill="white" stroke="#666666" points="349.88,-671.5 195.88,-671.5 195.88,-641 349.88,-641 349.88,-671.5"/>
<text xml:space="preserve" text-anchor="start" x="203.88" y="-658" font-family="Helvetica,sans-Serif" font-size="10.00">BalloonParty.Shared.Rendering.</text>
<text xml:space="preserve" text-anchor="middle" x="272.88" y="-646.75" font-family="Helvetica,sans-Serif" font-size="10.00">ColorableRenderer</text>
</a>
</g>
</g>
<!-- Node7&#45;&gt;Node11 -->
<g id="edge11_Node000011_Node000007" class="edge">
<title>Node7&#45;&gt;Node11</title>
<g id="a_edge11_Node000011_Node000007"><a xlink:title=" ">
<path fill="none" stroke="#63b8ff" d="M86.23,-499.36C99.73,-529.95 129.39,-588.07 172,-621.25 182.44,-629.38 194.9,-635.7 207.43,-640.59"/>
<polygon fill="#63b8ff" stroke="#63b8ff" points="89.59,-498.32 82.45,-490.5 83.15,-501.07 89.59,-498.32"/>
</a>
</g>
</g>
<!-- Node13 -->
<g id="Node000013" class="node">
<title>Node13</title>
<g id="a_Node000013"><a xlink:href="class_balloon_party_1_1_shared_1_1_animation_1_1_tween_tracker.html" target="_top" xlink:title=" ">
<polygon fill="white" stroke="#666666" points="526,-494.5 372.75,-494.5 372.75,-464 526,-464 526,-494.5"/>
<text xml:space="preserve" text-anchor="start" x="380.75" y="-481" font-family="Helvetica,sans-Serif" font-size="10.00">BalloonParty.Shared.Animation.</text>
<text xml:space="preserve" text-anchor="middle" x="449.38" y="-469.75" font-family="Helvetica,sans-Serif" font-size="10.00">TweenTracker</text>
</a>
</g>
</g>
<!-- Node7&#45;&gt;Node13 -->
<g id="edge14_Node000013_Node000007" class="edge">
<title>Node7&#45;&gt;Node13</title>
<g id="a_edge14_Node000013_Node000007"><a xlink:title=" ">
<path fill="none" stroke="#63b8ff" d="M130.32,-479.25C193.5,-479.25 300.24,-479.25 372.46,-479.25"/>
<polygon fill="#63b8ff" stroke="#63b8ff" points="130.57,-475.75 120.57,-479.25 130.57,-482.75 130.57,-475.75"/>
</a>
</g>
</g>
<!-- Node14 -->
<g id="Node000014" class="node">
<title>Node14</title>
<g id="a_Node000014"><a xlink:href="class_balloon_party_1_1_item_1_1_item_display_service.html" target="_top" xlink:title=" ">
<polygon fill="white" stroke="#666666" points="695,-307.5 547,-307.5 547,-277 695,-277 695,-307.5"/>
<text xml:space="preserve" text-anchor="start" x="555" y="-294" font-family="Helvetica,sans-Serif" font-size="10.00">BalloonParty.Item.ItemDisplay</text>
<text xml:space="preserve" text-anchor="middle" x="621" y="-282.75" font-family="Helvetica,sans-Serif" font-size="10.00">Service</text>
</a>
</g>
</g>
<!-- Node7&#45;&gt;Node14 -->
<g id="edge16_Node000014_Node000007" class="edge">
<title>Node7&#45;&gt;Node14</title>
<g id="a_edge16_Node000014_Node000007"><a xlink:title=" ">
<path fill="none" stroke="#63b8ff" d="M87.09,-459.26C103,-426.88 139.19,-363.74 191,-335.25 221.38,-318.55 432.43,-303.5 546.77,-296.46"/>
<polygon fill="#63b8ff" stroke="#63b8ff" points="84.09,-457.42 82.97,-467.95 90.42,-460.42 84.09,-457.42"/>
</a>
</g>
</g>
<!-- Node15 -->
<g id="Node000015" class="node">
<title>Node15</title>
<g id="a_Node000015"><a xlink:href="class_balloon_party_1_1_item_1_1_item_visual_view.html" target="_top" xlink:title=" ">
<polygon fill="white" stroke="#666666" points="354.75,-238.88 191,-238.88 191,-219.62 354.75,-219.62 354.75,-238.88"/>
<text xml:space="preserve" text-anchor="middle" x="272.88" y="-225.38" font-family="Helvetica,sans-Serif" font-size="10.00">BalloonParty.Item.ItemVisualView</text>
</a>
</g>
</g>
<!-- Node7&#45;&gt;Node15 -->
<g id="edge18_Node000015_Node000007" class="edge">
<title>Node7&#45;&gt;Node15</title>
<g id="a_edge18_Node000015_Node000007"><a xlink:title=" ">
<path fill="none" stroke="#63b8ff" d="M81.94,-458.42C91.71,-412.8 121.45,-303.72 191,-248.25 195.51,-244.65 200.59,-241.72 205.94,-239.32"/>
<polygon fill="#63b8ff" stroke="#63b8ff" points="78.55,-457.52 80,-468.02 85.41,-458.91 78.55,-457.52"/>
</a>
</g>
</g>
<!-- Node8 -->
<g id="Node000008" class="node">
<title>Node8</title>
<g id="a_Node000008"><a xlink:href="interface_balloon_party_1_1_shared_1_1_pool_1_1_i_poolable.html" target="_top" xlink:title=" ">
<polygon fill="white" stroke="#666666" points="141.62,-138.5 12.38,-138.5 12.38,-108 141.62,-108 141.62,-138.5"/>
<text xml:space="preserve" text-anchor="start" x="20.38" y="-125" font-family="Helvetica,sans-Serif" font-size="10.00">BalloonParty.Shared.Pool.</text>
<text xml:space="preserve" text-anchor="middle" x="77" y="-113.75" font-family="Helvetica,sans-Serif" font-size="10.00">IPoolable</text>
</a>
</g>
</g>
<!-- Node8&#45;&gt;Node6 -->
<g id="edge7_Node000006_Node000008" class="edge">
<title>Node8&#45;&gt;Node6</title>
<g id="a_edge7_Node000006_Node000008"><a xlink:title=" ">
<path fill="none" stroke="#63b8ff" d="M135.17,-104.38C152.86,-99.4 172.56,-94.73 191,-92.25 297.09,-77.96 672.47,-100.45 698,-107.25 744.77,-119.71 764.84,-119.2 794.75,-157.25 876.65,-261.44 880.14,-433.97 879.16,-486.55"/>
<polygon fill="#63b8ff" stroke="#63b8ff" points="134.23,-101 125.6,-107.16 136.18,-107.72 134.23,-101"/>
</a>
</g>
</g>
<!-- Node8&#45;&gt;Node15 -->
<g id="edge20_Node000015_Node000008" class="edge">
<title>Node8&#45;&gt;Node15</title>
<g id="a_edge20_Node000015_Node000008"><a xlink:title=" ">
<path fill="none" stroke="#63b8ff" d="M102.51,-146.22C124.22,-165.4 157.58,-192.13 191,-208.25 200.28,-212.73 210.63,-216.33 220.75,-219.21"/>
<polygon fill="#63b8ff" stroke="#63b8ff" points="105.13,-143.87 95.36,-139.79 100.45,-149.08 105.13,-143.87"/>
</a>
</g>
</g>
<!-- Node9 -->
<g id="Node000009" class="node">
<title>Node9</title>
<g id="a_Node000009"><a xlink:href="interface_balloon_party_1_1_slots_1_1_actor_1_1_i_slot_actor_view.html" target="_top" xlink:title=" ">
<polygon fill="white" stroke="#666666" points="683,-582.5 559,-582.5 559,-552 683,-552 683,-582.5"/>
<text xml:space="preserve" text-anchor="start" x="567" y="-569" font-family="Helvetica,sans-Serif" font-size="10.00">BalloonParty.Slots.Actor.</text>
<text xml:space="preserve" text-anchor="middle" x="621" y="-557.75" font-family="Helvetica,sans-Serif" font-size="10.00">ISlotActorView</text>
</a>
</g>
</g>
<!-- Node9&#45;&gt;Node6 -->
<g id="edge8_Node000006_Node000009" class="edge">
<title>Node9&#45;&gt;Node6</title>
<g id="a_edge8_Node000006_Node000009"><a xlink:title=" ">
<path fill="none" stroke="#63b8ff" d="M694.54,-551.51C725.52,-544.51 762.02,-535.91 794.75,-527.25 805.47,-524.41 816.9,-521.16 827.76,-517.96"/>
<polygon fill="#63b8ff" stroke="#63b8ff" points="693.86,-548.07 684.87,-553.68 695.39,-554.9 693.86,-548.07"/>
</a>
</g>
</g>
<!-- Node10 -->
<g id="Node000010" class="node">
<title>Node10</title>
<g id="a_Node000010"><a xlink:href="interface_balloon_party_1_1_nudge_1_1_i_nudgeable.html" target="_top" xlink:title="View&#45;side contract for actors that can play a nudge animation.">
<polygon fill="white" stroke="#666666" points="698,-533.88 544,-533.88 544,-514.62 698,-514.62 698,-533.88"/>
<text xml:space="preserve" text-anchor="middle" x="621" y="-520.38" font-family="Helvetica,sans-Serif" font-size="10.00">BalloonParty.Nudge.INudgeable</text>
</a>
</g>
</g>
<!-- Node10&#45;&gt;Node6 -->
<g id="edge9_Node000006_Node000010" class="edge">
<title>Node10&#45;&gt;Node6</title>
<g id="a_edge9_Node000006_Node000010"><a xlink:title=" ">
<path fill="none" stroke="#63b8ff" d="M709.66,-516.74C743.68,-513.82 781.96,-510.54 813.46,-507.84"/>
<polygon fill="#63b8ff" stroke="#63b8ff" points="709.47,-513.24 699.81,-517.58 710.07,-520.21 709.47,-513.24"/>
</a>
</g>
</g>
<!-- Node11&#45;&gt;Node6 -->
<g id="edge10_Node000006_Node000011" class="edge">
<title>Node11&#45;&gt;Node6</title>
<g id="a_edge10_Node000006_Node000011"><a xlink:title=" ">
<path fill="none" stroke="#9a32cd" stroke-dasharray="5,2" d="M361.54,-659.96C490.29,-663.9 723.04,-664.83 794.75,-624.25 837.25,-600.2 862.87,-544.65 873.25,-517.6"/>
<polygon fill="#9a32cd" stroke="#9a32cd" points="361.79,-656.47 351.68,-659.64 361.57,-663.46 361.79,-656.47"/>
</a>
</g>
<text xml:space="preserve" text-anchor="start" x="576.38" y="-666.7" font-family="Helvetica,sans-Serif" font-size="10.00" fill="grey">_colorableRenderers</text>
</g>
<!-- Node12 -->
<g id="Node000012" class="node">
<title>Node12</title>
<g id="a_Node000012"><a xlink:href="interface_balloon_party_1_1_shared_1_1_rendering_1_1_i_colorable_renderer.html" target="_top" xlink:title=" ">
<polygon fill="white" stroke="#666666" points="154,-675.5 0,-675.5 0,-645 154,-645 154,-675.5"/>
<text xml:space="preserve" text-anchor="start" x="8" y="-662" font-family="Helvetica,sans-Serif" font-size="10.00">BalloonParty.Shared.Rendering.</text>
<text xml:space="preserve" text-anchor="middle" x="77" y="-650.75" font-family="Helvetica,sans-Serif" font-size="10.00">IColorableRenderer</text>
</a>
</g>
</g>
<!-- Node12&#45;&gt;Node11 -->
<g id="edge12_Node000011_Node000012" class="edge">
<title>Node12&#45;&gt;Node11</title>
<g id="a_edge12_Node000011_Node000012"><a xlink:title=" ">
<path fill="none" stroke="#63b8ff" d="M165.58,-658.44C175.59,-658.24 185.75,-658.03 195.6,-657.82"/>
<polygon fill="#63b8ff" stroke="#63b8ff" points="165.79,-654.94 155.86,-658.64 165.93,-661.94 165.79,-654.94"/>
</a>
</g>
</g>
<!-- Node13&#45;&gt;Node6 -->
<g id="edge13_Node000006_Node000013" class="edge">
<title>Node13&#45;&gt;Node6</title>
<g id="a_edge13_Node000006_Node000013"><a xlink:title=" ">
<path fill="none" stroke="#9a32cd" stroke-dasharray="5,2" d="M537.75,-481.41C585.18,-482.82 644.83,-484.96 698,-488 736.31,-490.19 779.13,-493.53 813.46,-496.42"/>
<polygon fill="#9a32cd" stroke="#9a32cd" points="537.89,-477.91 527.79,-481.12 537.68,-484.91 537.89,-477.91"/>
</a>
</g>
<text xml:space="preserve" text-anchor="start" x="588.75" y="-494" font-family="Helvetica,sans-Serif" font-size="10.00" fill="grey">_tweenTracker</text>
</g>
<!-- Node14&#45;&gt;Node6 -->
<g id="edge15_Node000006_Node000014" class="edge">
<title>Node14&#45;&gt;Node6</title>
<g id="a_edge15_Node000006_Node000014"><a xlink:title=" ">
<path fill="none" stroke="#9a32cd" stroke-dasharray="5,2" d="M706.39,-302.47C736.82,-309.58 769.77,-321.61 794.75,-342 842.68,-381.11 866.51,-454.93 874.95,-486.87"/>
<polygon fill="#9a32cd" stroke="#9a32cd" points="707.31,-299.09 696.8,-300.39 705.83,-305.93 707.31,-299.09"/>
</a>
</g>
<text xml:space="preserve" text-anchor="start" x="726.88" y="-348" font-family="Helvetica,sans-Serif" font-size="10.00" fill="grey">_itemService</text>
</g>
<!-- Node15&#45;&gt;Node14 -->
<g id="edge17_Node000014_Node000015" class="edge">
<title>Node15&#45;&gt;Node14</title>
<g id="a_edge17_Node000014_Node000015"><a xlink:title=" ">
<path fill="none" stroke="#9a32cd" stroke-dasharray="5,2" d="M366.45,-229.37C414.68,-231.31 474.22,-236.65 526,-250 549.22,-255.98 573.88,-267.28 592.12,-276.69"/>
<polygon fill="#9a32cd" stroke="#9a32cd" points="366.72,-225.88 356.6,-229.02 366.47,-232.88 366.72,-225.88"/>
</a>
</g>
<text xml:space="preserve" text-anchor="start" x="422.75" y="-256" font-family="Helvetica,sans-Serif" font-size="10.00" fill="grey">_activeView</text>
</g>
<!-- Node16 -->
<g id="Node000016" class="node">
<title>Node16</title>
<g id="a_Node000016"><a xlink:href="interface_balloon_party_1_1_item_1_1_i_item_view.html" target="_top" xlink:title=" ">
<polygon fill="white" stroke="#666666" points="146.88,-238.88 7.12,-238.88 7.12,-219.62 146.88,-219.62 146.88,-238.88"/>
<text xml:space="preserve" text-anchor="middle" x="77" y="-225.38" font-family="Helvetica,sans-Serif" font-size="10.00">BalloonParty.Item.IItemView</text>
</a>
</g>
</g>
<!-- Node16&#45;&gt;Node15 -->
<g id="edge19_Node000015_Node000016" class="edge">
<title>Node16&#45;&gt;Node15</title>
<g id="a_edge19_Node000015_Node000016"><a xlink:title=" ">
<path fill="none" stroke="#63b8ff" d="M158.59,-229.25C169.24,-229.25 180.16,-229.25 190.82,-229.25"/>
<polygon fill="#63b8ff" stroke="#63b8ff" points="158.69,-225.75 148.69,-229.25 158.69,-232.75 158.69,-225.75"/>
</a>
</g>
</g>
<!-- Node17 -->
<g id="Node000017" class="node">
<title>Node17</title>
<g id="a_Node000017"><a xlink:href="interface_balloon_party_1_1_item_1_1_i_transform_capture.html" target="_top" xlink:title="Implement on components whose transform state must be captured.">
<polygon fill="white" stroke="#666666" points="344.25,-287.5 201.5,-287.5 201.5,-257 344.25,-257 344.25,-287.5"/>
<text xml:space="preserve" text-anchor="start" x="209.5" y="-274" font-family="Helvetica,sans-Serif" font-size="10.00">BalloonParty.Item.ITransform</text>
<text xml:space="preserve" text-anchor="middle" x="272.88" y="-262.75" font-family="Helvetica,sans-Serif" font-size="10.00">Capture</text>
</a>
</g>
</g>
<!-- Node17&#45;&gt;Node14 -->
<g id="edge21_Node000014_Node000017" class="edge">
<title>Node17&#45;&gt;Node14</title>
<g id="a_edge21_Node000014_Node000017"><a xlink:title=" ">
<path fill="none" stroke="#9a32cd" stroke-dasharray="5,2" d="M355.92,-270.86C405.3,-270.75 469.37,-271.9 526,-277 532.75,-277.61 539.75,-278.41 546.75,-279.33"/>
<polygon fill="#9a32cd" stroke="#9a32cd" points="356.16,-267.36 346.17,-270.9 356.19,-274.36 356.16,-267.36"/>
</a>
</g>
<text xml:space="preserve" text-anchor="start" x="416.38" y="-283" font-family="Helvetica,sans-Serif" font-size="10.00" fill="grey">_activeCapture</text>
</g>
<!-- Node18 -->
<g id="Node000018" class="node">
<title>Node18</title>
<g id="a_Node000018"><a xlink:href="interface_balloon_party_1_1_shared_1_1_i_game_configuration.html" target="_top" xlink:title=" ">
<polygon fill="white" stroke="#666666" points="340.88,-424.5 204.88,-424.5 204.88,-394 340.88,-394 340.88,-424.5"/>
<text xml:space="preserve" text-anchor="start" x="212.88" y="-411" font-family="Helvetica,sans-Serif" font-size="10.00">BalloonParty.Shared.IGame</text>
<text xml:space="preserve" text-anchor="middle" x="272.88" y="-399.75" font-family="Helvetica,sans-Serif" font-size="10.00">Configuration</text>
</a>
</g>
</g>
<!-- Node18&#45;&gt;Node6 -->
<g id="edge28_Node000006_Node000018" class="edge">
<title>Node18&#45;&gt;Node6</title>
<g id="a_edge28_Node000006_Node000018"><a xlink:title=" ">
<path fill="none" stroke="#9a32cd" stroke-dasharray="5,2" d="M352.08,-420.53C359.07,-421.48 366.03,-422.4 372.75,-423.25 517.06,-441.62 554.65,-435.22 698,-460 738.94,-467.08 784.48,-477.75 819.6,-486.6"/>
<polygon fill="#9a32cd" stroke="#9a32cd" points="353,-417.12 342.62,-419.24 352.05,-424.06 353,-417.12"/>
</a>
</g>
<text xml:space="preserve" text-anchor="start" x="605.25" y="-466" font-family="Helvetica,sans-Serif" font-size="10.00" fill="grey">_config</text>
</g>
<!-- Node18&#45;&gt;Node14 -->
<g id="edge22_Node000014_Node000018" class="edge">
<title>Node18&#45;&gt;Node14</title>
<g id="a_edge22_Node000014_Node000018"><a xlink:title=" ">
<path fill="none" stroke="#9a32cd" stroke-dasharray="5,2" d="M352.44,-404.35C403.63,-398.91 470.89,-387.44 526,-363.25 534.19,-359.65 575.11,-327.8 600.18,-308"/>
<polygon fill="#9a32cd" stroke="#9a32cd" points="352.22,-400.85 342.62,-405.33 352.92,-407.82 352.22,-400.85"/>
</a>
</g>
<text xml:space="preserve" text-anchor="start" x="433.62" y="-407.92" font-family="Helvetica,sans-Serif" font-size="10.00" fill="grey">_config</text>
</g>
<!-- Node19 -->
<g id="Node000019" class="node">
<title>Node19</title>
<g id="a_Node000019"><a xlink:href="interface_balloon_party_1_1_configuration_1_1_i_game_palette.html" target="_top" xlink:title=" ">
<polygon fill="white" stroke="#666666" points="339.75,-199.5 206,-199.5 206,-169 339.75,-169 339.75,-199.5"/>
<text xml:space="preserve" text-anchor="start" x="214" y="-186" font-family="Helvetica,sans-Serif" font-size="10.00">BalloonParty.Configuration.</text>
<text xml:space="preserve" text-anchor="middle" x="272.88" y="-174.75" font-family="Helvetica,sans-Serif" font-size="10.00">IGamePalette</text>
</a>
</g>
</g>
<!-- Node19&#45;&gt;Node6 -->
<g id="edge27_Node000006_Node000019" class="edge">
<title>Node19&#45;&gt;Node6</title>
<g id="a_edge27_Node000006_Node000019"><a xlink:title=" ">
<path fill="none" stroke="#9a32cd" stroke-dasharray="5,2" d="M351.38,-178.24C358.6,-177.84 365.81,-177.5 372.75,-177.25 568.11,-170.34 662.43,-157.36 794.75,-301.25 846.45,-357.47 868.78,-450.12 875.9,-486.7"/>
<polygon fill="#9a32cd" stroke="#9a32cd" points="351.34,-174.74 341.57,-178.83 351.76,-181.72 351.34,-174.74"/>
</a>
</g>
<text xml:space="preserve" text-anchor="start" x="603.75" y="-222.51" font-family="Helvetica,sans-Serif" font-size="10.00" fill="grey">_palette</text>
</g>
<!-- Node19&#45;&gt;Node14 -->
<g id="edge23_Node000014_Node000019" class="edge">
<title>Node19&#45;&gt;Node14</title>
<g id="a_edge23_Node000014_Node000019"><a xlink:title=" ">
<path fill="none" stroke="#9a32cd" stroke-dasharray="5,2" d="M351.5,-179.7C403.01,-179.56 471,-185.01 526,-209 560.77,-224.17 591.7,-257.18 607.95,-276.77"/>
<polygon fill="#9a32cd" stroke="#9a32cd" points="351.59,-176.2 341.63,-179.81 351.66,-183.2 351.59,-176.2"/>
</a>
</g>
<text xml:space="preserve" text-anchor="start" x="432.12" y="-215" font-family="Helvetica,sans-Serif" font-size="10.00" fill="grey">_palette</text>
</g>
<!-- Node20 -->
<g id="Node000020" class="node">
<title>Node20</title>
<g id="a_Node000020"><a xlink:href="interface_balloon_party_1_1_configuration_1_1_i_item_configuration.html" target="_top" xlink:title=" ">
<polygon fill="white" stroke="#666666" points="339.75,-131.5 206,-131.5 206,-101 339.75,-101 339.75,-131.5"/>
<text xml:space="preserve" text-anchor="start" x="214" y="-118" font-family="Helvetica,sans-Serif" font-size="10.00">BalloonParty.Configuration.</text>
<text xml:space="preserve" text-anchor="middle" x="272.88" y="-106.75" font-family="Helvetica,sans-Serif" font-size="10.00">IItemConfiguration</text>
</a>
</g>
</g>
<!-- Node20&#45;&gt;Node6 -->
<g id="edge29_Node000006_Node000020" class="edge">
<title>Node20&#45;&gt;Node6</title>
<g id="a_edge29_Node000006_Node000020"><a xlink:title=" ">
<path fill="none" stroke="#9a32cd" stroke-dasharray="5,2" d="M351.38,-107.17C439.82,-100.28 586.58,-99.61 698,-153 747.13,-176.54 763.84,-183.39 794.75,-228.25 853.75,-313.86 872.32,-442.31 877.15,-486.59"/>
<polygon fill="#9a32cd" stroke="#9a32cd" points="351.28,-103.67 341.61,-107.98 351.86,-110.64 351.28,-103.67"/>
</a>
</g>
<text xml:space="preserve" text-anchor="start" x="594.75" y="-159" font-family="Helvetica,sans-Serif" font-size="10.00" fill="grey">_itemConfig</text>
</g>
<!-- Node20&#45;&gt;Node14 -->
<g id="edge24_Node000014_Node000020" class="edge">
<title>Node20&#45;&gt;Node14</title>
<g id="a_edge24_Node000014_Node000020"><a xlink:title=" ">
<path fill="none" stroke="#9a32cd" stroke-dasharray="5,2" d="M351.49,-114.28C404.36,-116.39 473.94,-126.2 526,-159 526.38,-159.24 584.4,-241.66 609.08,-276.74"/>
<polygon fill="#9a32cd" stroke="#9a32cd" points="351.75,-110.79 341.64,-113.98 351.53,-117.79 351.75,-110.79"/>
</a>
</g>
<text xml:space="preserve" text-anchor="start" x="423.12" y="-165" font-family="Helvetica,sans-Serif" font-size="10.00" fill="grey">_itemConfig</text>
</g>
<!-- Node21 -->
<g id="Node000021" class="node">
<title>Node21</title>
<g id="a_Node000021"><a xlink:href="class_balloon_party_1_1_shared_1_1_pool_1_1_pool_manager.html" target="_top" xlink:title=" ">
<polygon fill="white" stroke="#666666" points="337.5,-374.5 208.25,-374.5 208.25,-344 337.5,-344 337.5,-374.5"/>
<text xml:space="preserve" text-anchor="start" x="216.25" y="-361" font-family="Helvetica,sans-Serif" font-size="10.00">BalloonParty.Shared.Pool.</text>
<text xml:space="preserve" text-anchor="middle" x="272.88" y="-349.75" font-family="Helvetica,sans-Serif" font-size="10.00">PoolManager</text>
</a>
</g>
</g>
<!-- Node21&#45;&gt;Node6 -->
<g id="edge30_Node000006_Node000021" class="edge">
<title>Node21&#45;&gt;Node6</title>
<g id="a_edge30_Node000006_Node000021"><a xlink:title=" ">
<path fill="none" stroke="#9a32cd" stroke-dasharray="5,2" d="M349.11,-363.11C435.02,-369.05 579.07,-383.72 698,-419 754.77,-435.84 816.54,-467.48 851.13,-486.53"/>
<polygon fill="#9a32cd" stroke="#9a32cd" points="349.36,-359.61 339.15,-362.44 348.89,-366.6 349.36,-359.61"/>
</a>
</g>
<text xml:space="preserve" text-anchor="start" x="590.62" y="-425" font-family="Helvetica,sans-Serif" font-size="10.00" fill="grey">_poolManager</text>
</g>
<!-- Node21&#45;&gt;Node14 -->
<g id="edge25_Node000014_Node000021" class="edge">
<title>Node21&#45;&gt;Node14</title>
<g id="a_edge25_Node000014_Node000021"><a xlink:title=" ">
<path fill="none" stroke="#9a32cd" stroke-dasharray="5,2" d="M349.14,-345.91C357.11,-344.56 365.09,-343.24 372.75,-342 440.73,-331.03 458.71,-333.84 526,-319.25 540.44,-316.12 555.92,-312 570.06,-307.92"/>
<polygon fill="#9a32cd" stroke="#9a32cd" points="348.69,-342.44 339.42,-347.58 349.86,-349.34 348.69,-342.44"/>
</a>
</g>
<text xml:space="preserve" text-anchor="start" x="419" y="-348" font-family="Helvetica,sans-Serif" font-size="10.00" fill="grey">_poolManager</text>
</g>
<!-- Node22 -->
<g id="Node000022" class="node">
<title>Node22</title>
<g id="a_Node000022"><a xlink:href="interface_balloon_party_1_1_balloon_1_1_view_1_1_i_balloon_view_binding.html" target="_top" xlink:title="Implemented by MonoBehaviours on a balloon prefab that need to react to model binding.">
<polygon fill="white" stroke="#666666" points="686.75,-30.5 555.25,-30.5 555.25,0 686.75,0 686.75,-30.5"/>
<text xml:space="preserve" text-anchor="start" x="563.25" y="-17" font-family="Helvetica,sans-Serif" font-size="10.00">BalloonParty.Balloon.View.</text>
<text xml:space="preserve" text-anchor="middle" x="621" y="-5.75" font-family="Helvetica,sans-Serif" font-size="10.00">IBalloonViewBinding</text>
</a>
</g>
</g>
<!-- Node22&#45;&gt;Node6 -->
<g id="edge31_Node000006_Node000022" class="edge">
<title>Node22&#45;&gt;Node6</title>
<g id="a_edge31_Node000006_Node000022"><a xlink:title=" ">
<path fill="none" stroke="#9a32cd" stroke-dasharray="5,2" d="M698.09,-0.99C731.56,0.82 769.04,-3.89 794.75,-27 865.09,-90.21 876.6,-411.51 878.34,-486.56"/>
<polygon fill="#9a32cd" stroke="#9a32cd" points="698.13,2.52 688.42,-1.72 698.65,-4.46 698.13,2.52"/>
</a>
</g>
<text xml:space="preserve" text-anchor="start" x="723.88" y="-33" font-family="Helvetica,sans-Serif" font-size="10.00" fill="grey">_viewBindings</text>
</g>
<!-- Node23 -->
<g id="Node000023" class="node">
<title>Node23</title>
<g id="a_Node000023"><a xlink:href="interface_balloon_party_1_1_balloon_1_1_type_1_1_i_balloon_variant.html" target="_top" xlink:title=" ">
<polygon fill="white" stroke="#666666" points="687.12,-722.5 554.88,-722.5 554.88,-692 687.12,-692 687.12,-722.5"/>
<text xml:space="preserve" text-anchor="start" x="562.88" y="-709" font-family="Helvetica,sans-Serif" font-size="10.00">BalloonParty.Balloon.Type.</text>
<text xml:space="preserve" text-anchor="middle" x="621" y="-697.75" font-family="Helvetica,sans-Serif" font-size="10.00">IBalloonVariant</text>
</a>
</g>
</g>
<!-- Node23&#45;&gt;Node6 -->
<g id="edge32_Node000006_Node000023" class="edge">
<title>Node23&#45;&gt;Node6</title>
<g id="a_edge32_Node000006_Node000023"><a xlink:title=" ">
<path fill="none" stroke="#9a32cd" stroke-dasharray="5,2" d="M698.52,-692.63C740.94,-683.98 786.74,-673.52 794.75,-667.25 801.28,-662.14 851.85,-557.91 871.16,-517.8"/>
<polygon fill="#9a32cd" stroke="#9a32cd" points="697.85,-689.2 688.74,-694.6 699.23,-696.06 697.85,-689.2"/>
</a>
</g>
<text xml:space="preserve" text-anchor="start" x="738.12" y="-694.69" font-family="Helvetica,sans-Serif" font-size="10.00" fill="grey">_variant</text>
</g>
<!-- Node24 -->
<g id="Node000024" class="node">
<title>Node24</title>
<g id="a_Node000024"><a xlink:href="class_balloon_party_1_1_configuration_1_1_hit_vfx_override.html" target="_top" xlink:title=" ">
<polygon fill="white" stroke="#666666" points="687.88,-774.5 554.12,-774.5 554.12,-744 687.88,-744 687.88,-774.5"/>
<text xml:space="preserve" text-anchor="start" x="562.12" y="-761" font-family="Helvetica,sans-Serif" font-size="10.00">BalloonParty.Configuration.</text>
<text xml:space="preserve" text-anchor="middle" x="621" y="-749.75" font-family="Helvetica,sans-Serif" font-size="10.00">HitVfxOverride</text>
</a>
</g>
</g>
<!-- Node24&#45;&gt;Node4 -->
<g id="edge35_Node000004_Node000024" class="edge">
<title>Node24&#45;&gt;Node4</title>
<g id="a_edge35_Node000004_Node000024"><a xlink:title=" ">
<path fill="none" stroke="#9a32cd" stroke-dasharray="5,2" d="M699.56,-758.26C784.56,-756.2 924.72,-749.98 1044,-731.25 1052.75,-729.88 1061.92,-728.02 1070.86,-725.98"/>
<polygon fill="#9a32cd" stroke="#9a32cd" points="699.62,-754.75 689.7,-758.48 699.78,-761.75 699.62,-754.75"/>
</a>
</g>
<text xml:space="preserve" text-anchor="start" x="843.25" y="-759.71" font-family="Helvetica,sans-Serif" font-size="10.00" fill="grey">_hitVfxOverrides</text>
</g>
<!-- Node24&#45;&gt;Node6 -->
<g id="edge33_Node000006_Node000024" class="edge">
<title>Node24&#45;&gt;Node6</title>
<g id="a_edge33_Node000006_Node000024"><a xlink:title=" ">
<path fill="none" stroke="#9a32cd" stroke-dasharray="5,2" d="M682.62,-740.19C693.71,-736.76 705.2,-733.24 716,-730 750.89,-719.53 769.37,-733.39 794.75,-707.25 817.13,-684.2 801.65,-667.39 812.75,-637.25 829.24,-592.47 855.82,-542.72 869.63,-518"/>
<polygon fill="#9a32cd" stroke="#9a32cd" points="681.66,-736.82 673.15,-743.13 683.74,-743.51 681.66,-736.82"/>
</a>
</g>
<text xml:space="preserve" text-anchor="start" x="719" y="-736" font-family="Helvetica,sans-Serif" font-size="10.00" fill="grey">_hitVfxOverrides</text>
</g>
<!-- Node25 -->
<g id="Node000025" class="node">
<title>Node25</title>
<g id="a_Node000025"><a xlink:href="class_balloon_party_1_1_nudge_1_1_nudge_override.html" target="_top" xlink:title=" ">
<polygon fill="white" stroke="#666666" points="946.12,-725.5 813.12,-725.5 813.12,-695 946.12,-695 946.12,-725.5"/>
<text xml:space="preserve" text-anchor="start" x="821.12" y="-712" font-family="Helvetica,sans-Serif" font-size="10.00">BalloonParty.Nudge.Nudge</text>
<text xml:space="preserve" text-anchor="middle" x="879.62" y="-700.75" font-family="Helvetica,sans-Serif" font-size="10.00">Override</text>
</a>
</g>
</g>
<!-- Node25&#45;&gt;Node4 -->
<g id="edge34_Node000004_Node000025" class="edge">
<title>Node25&#45;&gt;Node4</title>
<g id="a_edge34_Node000004_Node000025"><a xlink:title=" ">
<path fill="none" stroke="#9a32cd" stroke-dasharray="5,2" d="M957.65,-710.25C991,-710.25 1029.66,-710.25 1061.7,-710.25"/>
<polygon fill="#9a32cd" stroke="#9a32cd" points="958.07,-706.75 948.07,-710.25 958.07,-713.75 958.07,-706.75"/>
</a>
</g>
<text xml:space="preserve" text-anchor="start" x="967.5" y="-716.25" font-family="Helvetica,sans-Serif" font-size="10.00" fill="grey">_nudgeOverrides</text>
</g>
</g>
</svg>
