<?xml version="1.0" encoding="UTF-8" standalone="no"?>
<!DOCTYPE svg PUBLIC "-//W3C//DTD SVG 1.1//EN"
 "http://www.w3.org/Graphics/SVG/1.1/DTD/svg11.dtd">
<!-- Generated by graphviz version 15.0.0 (20260523.1842)
 -->
<!-- Title: BalloonParty.UI.Score.FlyingTrail Pages: 1 -->
<svg width="372pt" height="125pt"
 viewBox="0.00 0.00 372.00 125.00" xmlns="http://www.w3.org/2000/svg" xmlns:xlink="http://www.w3.org/1999/xlink">
<g id="graph0" class="graph" transform="scale(1 1) rotate(0) translate(4 120.88)">
<title>BalloonParty.UI.Score.FlyingTrail</title>
<!-- Node1 -->
<g id="Node000001" class="node">
<title>Node1</title>
<g id="a_Node000001"><a xlink:title=" ">
<polygon fill="#999999" stroke="#666666" points="364.25,-79.5 223,-79.5 223,-49 364.25,-49 364.25,-79.5"/>
<text xml:space="preserve" text-anchor="start" x="231" y="-66" font-family="Helvetica,sans-Serif" font-size="10.00">BalloonParty.UI.Score.Flying</text>
<text xml:space="preserve" text-anchor="middle" x="293.62" y="-54.75" font-family="Helvetica,sans-Serif" font-size="10.00">Trail</text>
</a>
</g>
</g>
<!-- Node2 -->
<g id="Node000002" class="node">
<title>Node2</title>
<g id="a_Node000002"><a xlink:title=" ">
<polygon fill="white" stroke="#666666" points="112.38,-116.88 28.88,-116.88 28.88,-97.62 112.38,-97.62 112.38,-116.88"/>
<text xml:space="preserve" text-anchor="middle" x="70.62" y="-103.38" font-family="Helvetica,sans-Serif" font-size="10.00">MonoBehaviour</text>
</a>
</g>
</g>
<!-- Node2&#45;&gt;Node1 -->
<g id="edge1_Node000001_Node000002" class="edge">
<title>Node2&#45;&gt;Node1</title>
<g id="a_edge1_Node000001_Node000002"><a xlink:title=" ">
<path fill="none" stroke="#63b8ff" d="M123.59,-97.14C153.16,-91.39 190.57,-84.11 222.69,-77.86"/>
<polygon fill="#63b8ff" stroke="#63b8ff" points="123.31,-93.63 114.16,-98.97 124.65,-100.5 123.31,-93.63"/>
</a>
</g>
</g>
<!-- Node3 -->
<g id="Node000003" class="node">
<title>Node3</title>
<g id="a_Node000003"><a xlink:href="interface_balloon_party_1_1_shared_1_1_pool_1_1_i_poolable.html" target="_top" xlink:title=" ">
<polygon fill="white" stroke="#666666" points="135.25,-79.5 6,-79.5 6,-49 135.25,-49 135.25,-79.5"/>
<text xml:space="preserve" text-anchor="start" x="14" y="-66" font-family="Helvetica,sans-Serif" font-size="10.00">BalloonParty.Shared.Pool.</text>
<text xml:space="preserve" text-anchor="middle" x="70.62" y="-54.75" font-family="Helvetica,sans-Serif" font-size="10.00">IPoolable</text>
</a>
</g>
</g>
<!-- Node3&#45;&gt;Node1 -->
<g id="edge2_Node000001_Node000003" class="edge">
<title>Node3&#45;&gt;Node1</title>
<g id="a_edge2_Node000001_Node000003"><a xlink:title=" ">
<path fill="none" stroke="#63b8ff" d="M146.97,-64.25C171.48,-64.25 198.56,-64.25 222.66,-64.25"/>
<polygon fill="#63b8ff" stroke="#63b8ff" points="147.06,-60.75 137.06,-64.25 147.06,-67.75 147.06,-60.75"/>
</a>
</g>
</g>
<!-- Node4 -->
<g id="Node000004" class="node">
<title>Node4</title>
<g id="a_Node000004"><a xlink:href="struct_balloon_party_1_1_u_i_1_1_score_1_1_flying_trail_1_1_motion_style.html" target="_top" xlink:title=" ">
<polygon fill="white" stroke="#666666" points="141.25,-30.5 0,-30.5 0,0 141.25,0 141.25,-30.5"/>
<text xml:space="preserve" text-anchor="start" x="8" y="-17" font-family="Helvetica,sans-Serif" font-size="10.00">BalloonParty.UI.Score.Flying</text>
<text xml:space="preserve" text-anchor="middle" x="70.62" y="-5.75" font-family="Helvetica,sans-Serif" font-size="10.00">Trail.MotionStyle</text>
</a>
</g>
</g>
<!-- Node4&#45;&gt;Node1 -->
<g id="edge3_Node000001_Node000004" class="edge">
<title>Node4&#45;&gt;Node1</title>
<g id="a_edge3_Node000001_Node000004"><a xlink:title=" ">
<path fill="none" stroke="#9a32cd" stroke-dasharray="5,2" d="M152.82,-31.7C170.07,-35.32 188.15,-39.21 205,-43 212.79,-44.75 220.95,-46.65 229.03,-48.57"/>
<polygon fill="#9a32cd" stroke="#9a32cd" points="153.62,-28.29 143.11,-29.67 152.19,-35.14 153.62,-28.29"/>
</a>
</g>
<text xml:space="preserve" text-anchor="start" x="162.25" y="-49" font-family="Helvetica,sans-Serif" font-size="10.00" fill="grey">_motions</text>
</g>
</g>
</svg>
