<?xml version="1.0" encoding="UTF-8" standalone="no"?>
<!DOCTYPE svg PUBLIC "-//W3C//DTD SVG 1.1//EN"
 "http://www.w3.org/Graphics/SVG/1.1/DTD/svg11.dtd">
<!-- Generated by graphviz version 15.0.0 (20260523.1842)
 -->
<!-- Title: BalloonParty.Item.LaserItemRotation Pages: 1 -->
<svg width="252pt" height="105pt"
 viewBox="0.00 0.00 252.00 105.00" xmlns="http://www.w3.org/2000/svg" xmlns:xlink="http://www.w3.org/1999/xlink">
<g id="graph0" class="graph" transform="scale(1 1) rotate(0) translate(4 101)">
<title>BalloonParty.Item.LaserItemRotation</title>
<!-- Node1 -->
<g id="Node000001" class="node">
<title>Node1</title>
<g id="a_Node000001"><a xlink:title=" ">
<polygon fill="#999999" stroke="#666666" points="176.25,-30.5 37.25,-30.5 37.25,0 176.25,0 176.25,-30.5"/>
<text xml:space="preserve" text-anchor="start" x="45.25" y="-17" font-family="Helvetica,sans-Serif" font-size="10.00">BalloonParty.Item.LaserItem</text>
<text xml:space="preserve" text-anchor="middle" x="106.75" y="-5.75" font-family="Helvetica,sans-Serif" font-size="10.00">Rotation</text>
</a>
</g>
</g>
<!-- Node2 -->
<g id="Node000002" class="node">
<title>Node2</title>
<g id="a_Node000002"><a xlink:title=" ">
<polygon fill="white" stroke="#666666" points="83.5,-91.38 0,-91.38 0,-72.12 83.5,-72.12 83.5,-91.38"/>
<text xml:space="preserve" text-anchor="middle" x="41.75" y="-77.88" font-family="Helvetica,sans-Serif" font-size="10.00">MonoBehaviour</text>
</a>
</g>
</g>
<!-- Node2&#45;&gt;Node1 -->
<g id="edge1_Node000001_Node000002" class="edge">
<title>Node2&#45;&gt;Node1</title>
<g id="a_edge1_Node000001_Node000002"><a xlink:title=" ">
<path fill="none" stroke="#63b8ff" d="M58.76,-63.87C69.18,-53.53 82.38,-40.43 92.29,-30.59"/>
<polygon fill="#63b8ff" stroke="#63b8ff" points="56.5,-61.19 51.86,-70.72 61.43,-66.16 56.5,-61.19"/>
</a>
</g>
</g>
<!-- Node3 -->
<g id="Node000003" class="node">
<title>Node3</title>
<g id="a_Node000003"><a xlink:title=" ">
<polygon fill="white" stroke="#666666" points="244.12,-97 101.38,-97 101.38,-66.5 244.12,-66.5 244.12,-97"/>
<text xml:space="preserve" text-anchor="start" x="109.38" y="-83.5" font-family="Helvetica,sans-Serif" font-size="10.00">BalloonParty.Item.ITransform</text>
<text xml:space="preserve" text-anchor="middle" x="172.75" y="-72.25" font-family="Helvetica,sans-Serif" font-size="10.00">Capture</text>
</a>
</g>
</g>
<!-- Node3&#45;&gt;Node1 -->
<g id="edge2_Node000001_Node000003" class="edge">
<title>Node3&#45;&gt;Node1</title>
<g id="a_edge2_Node000001_Node000003"><a xlink:title=" ">
<path fill="none" stroke="#63b8ff" d="M149.66,-58.19C140.37,-49.11 129.93,-38.9 121.67,-30.83"/>
<polygon fill="#63b8ff" stroke="#63b8ff" points="147.09,-60.57 156.69,-65.06 151.99,-55.56 147.09,-60.57"/>
</a>
</g>
</g>
</g>
</svg>
