<?xml version="1.0" encoding="UTF-8" standalone="no"?>
<!DOCTYPE svg PUBLIC "-//W3C//DTD SVG 1.1//EN"
 "http://www.w3.org/Graphics/SVG/1.1/DTD/svg11.dtd">
<!-- Generated by graphviz version 15.0.0 (20260523.1842)
 -->
<!-- Title: BalloonParty.Item.Paint.PaintSplashView Pages: 1 -->
<svg width="393pt" height="172pt"
 viewBox="0.00 0.00 393.00 172.00" xmlns="http://www.w3.org/2000/svg" xmlns:xlink="http://www.w3.org/1999/xlink">
<g id="graph0" class="graph" transform="scale(1 1) rotate(0) translate(4 167.5)">
<title>BalloonParty.Item.Paint.PaintSplashView</title>
<!-- Node1 -->
<g id="Node000001" class="node">
<title>Node1</title>
<g id="a_Node000001"><a xlink:title="Poolable paint&#45;splash effect.">
<polygon fill="#999999" stroke="#666666" points="297.25,-30.5 176.25,-30.5 176.25,0 297.25,0 297.25,-30.5"/>
<text xml:space="preserve" text-anchor="start" x="184.25" y="-17" font-family="Helvetica,sans-Serif" font-size="10.00">BalloonParty.Item.Paint.</text>
<text xml:space="preserve" text-anchor="middle" x="236.75" y="-5.75" font-family="Helvetica,sans-Serif" font-size="10.00">PaintSplashView</text>
</a>
</g>
</g>
<!-- Node2 -->
<g id="Node000002" class="node">
<title>Node2</title>
<g id="a_Node000002"><a xlink:href="class_balloon_party_1_1_shared_1_1_pool_1_1_effect_view.html" target="_top" xlink:title="Abstract base for poolable effect MonoBehaviours.">
<polygon fill="white" stroke="#666666" points="230.38,-97 101.12,-97 101.12,-66.5 230.38,-66.5 230.38,-97"/>
<text xml:space="preserve" text-anchor="start" x="109.12" y="-83.5" font-family="Helvetica,sans-Serif" font-size="10.00">BalloonParty.Shared.Pool.</text>
<text xml:space="preserve" text-anchor="middle" x="165.75" y="-72.25" font-family="Helvetica,sans-Serif" font-size="10.00">EffectView</text>
</a>
</g>
</g>
<!-- Node2&#45;&gt;Node1 -->
<g id="edge1_Node000001_Node000002" class="edge">
<title>Node2&#45;&gt;Node1</title>
<g id="a_edge1_Node000001_Node000002"><a xlink:title=" ">
<path fill="none" stroke="#63b8ff" d="M190.28,-58.46C200.35,-49.32 211.73,-38.98 220.7,-30.83"/>
<polygon fill="#63b8ff" stroke="#63b8ff" points="188.03,-55.78 182.98,-65.1 192.74,-60.96 188.03,-55.78"/>
</a>
</g>
</g>
<!-- Node3 -->
<g id="Node000003" class="node">
<title>Node3</title>
<g id="a_Node000003"><a xlink:title=" ">
<polygon fill="white" stroke="#666666" points="83.5,-157.88 0,-157.88 0,-138.62 83.5,-138.62 83.5,-157.88"/>
<text xml:space="preserve" text-anchor="middle" x="41.75" y="-144.38" font-family="Helvetica,sans-Serif" font-size="10.00">MonoBehaviour</text>
</a>
</g>
</g>
<!-- Node3&#45;&gt;Node2 -->
<g id="edge2_Node000002_Node000003" class="edge">
<title>Node3&#45;&gt;Node2</title>
<g id="a_edge2_Node000002_Node000003"><a xlink:title=" ">
<path fill="none" stroke="#63b8ff" d="M69.45,-132.84C89.82,-122.24 117.4,-107.9 137.82,-97.28"/>
<polygon fill="#63b8ff" stroke="#63b8ff" points="67.85,-129.73 60.6,-137.45 71.08,-135.94 67.85,-129.73"/>
</a>
</g>
</g>
<!-- Node4 -->
<g id="Node000004" class="node">
<title>Node4</title>
<g id="a_Node000004"><a xlink:href="interface_balloon_party_1_1_shared_1_1_pool_1_1_i_poolable.html" target="_top" xlink:title=" ">
<polygon fill="white" stroke="#666666" points="230.38,-163.5 101.12,-163.5 101.12,-133 230.38,-133 230.38,-163.5"/>
<text xml:space="preserve" text-anchor="start" x="109.12" y="-150" font-family="Helvetica,sans-Serif" font-size="10.00">BalloonParty.Shared.Pool.</text>
<text xml:space="preserve" text-anchor="middle" x="165.75" y="-138.75" font-family="Helvetica,sans-Serif" font-size="10.00">IPoolable</text>
</a>
</g>
</g>
<!-- Node4&#45;&gt;Node2 -->
<g id="edge3_Node000002_Node000004" class="edge">
<title>Node4&#45;&gt;Node2</title>
<g id="a_edge3_Node000002_Node000004"><a xlink:title=" ">
<path fill="none" stroke="#63b8ff" d="M165.75,-121.31C165.75,-113.14 165.75,-104.41 165.75,-97.33"/>
<polygon fill="#63b8ff" stroke="#63b8ff" points="162.25,-121.1 165.75,-131.1 169.25,-121.1 162.25,-121.1"/>
</a>
</g>
</g>
<!-- Node5 -->
<g id="Node000005" class="node">
<title>Node5</title>
<g id="a_Node000005"><a xlink:href="interface_balloon_party_1_1_shared_1_1_i_effect.html" target="_top" xlink:title="Abstracts any visual effect that can be triggered at a world position and optionally tinted.">
<polygon fill="white" stroke="#666666" points="384.75,-157.88 248.75,-157.88 248.75,-138.62 384.75,-138.62 384.75,-157.88"/>
<text xml:space="preserve" text-anchor="middle" x="316.75" y="-144.38" font-family="Helvetica,sans-Serif" font-size="10.00">BalloonParty.Shared.IEffect</text>
</a>
</g>
</g>
<!-- Node5&#45;&gt;Node2 -->
<g id="edge4_Node000002_Node000005" class="edge">
<title>Node5&#45;&gt;Node2</title>
<g id="a_edge4_Node000002_Node000005"><a xlink:title=" ">
<path fill="none" stroke="#63b8ff" d="M285.09,-133.72C260.2,-123.09 225.59,-108.31 200.04,-97.4"/>
<polygon fill="#63b8ff" stroke="#63b8ff" points="283.47,-136.84 294.04,-137.55 286.22,-130.4 283.47,-136.84"/>
</a>
</g>
</g>
<!-- Node6 -->
<g id="Node000006" class="node">
<title>Node6</title>
<g id="a_Node000006"><a xlink:href="interface_balloon_party_1_1_item_1_1_paint_1_1_i_splash_effect.html" target="_top" xlink:title="A pooled effect that can be prepared with paint&#45;blob flights before playing.">
<polygon fill="white" stroke="#666666" points="369.25,-97 248.25,-97 248.25,-66.5 369.25,-66.5 369.25,-97"/>
<text xml:space="preserve" text-anchor="start" x="256.25" y="-83.5" font-family="Helvetica,sans-Serif" font-size="10.00">BalloonParty.Item.Paint.</text>
<text xml:space="preserve" text-anchor="middle" x="308.75" y="-72.25" font-family="Helvetica,sans-Serif" font-size="10.00">ISplashEffect</text>
</a>
</g>
</g>
<!-- Node6&#45;&gt;Node1 -->
<g id="edge5_Node000001_Node000006" class="edge">
<title>Node6&#45;&gt;Node1</title>
<g id="a_edge5_Node000001_Node000006"><a xlink:title=" ">
<path fill="none" stroke="#63b8ff" d="M283.87,-58.46C273.66,-49.32 262.13,-38.98 253.02,-30.83"/>
<polygon fill="#63b8ff" stroke="#63b8ff" points="281.5,-61.04 291.28,-65.1 286.17,-55.82 281.5,-61.04"/>
</a>
</g>
</g>
</g>
</svg>
