<?xml version="1.0" encoding="UTF-8" standalone="no"?>
<!DOCTYPE svg PUBLIC "-//W3C//DTD SVG 1.1//EN"
 "http://www.w3.org/Graphics/SVG/1.1/DTD/svg11.dtd">
<!-- Generated by graphviz version 15.0.0 (20260523.1842)
 -->
<!-- Title: BalloonParty.Shared.Rendering.ColorableRenderer Pages: 1 -->
<!--zoomable 137 -->

<svg id="main" version="1.1" xmlns="http://www.w3.org/2000/svg" xmlns:xlink="http://www.w3.org/1999/xlink" xml:space="preserve" onload="init(evt)">

<style type="text/css"><![CDATA[
.node, .edge {opacity: 0.7;}
.node.selected, .edge.selected {opacity: 1;}
.edge:hover path { stroke: red; }
.edge:hover polygon { stroke: red; fill: red; }
]]></style>

<defs>
  <circle id="rim" cx="0" cy="0" r="7"/>
  <circle id="rim2" cx="0" cy="0" r="3.5"/>
  <g id="zoomPlus">
    <use xlink:href="#rim" fill="#404040"><set attributeName="fill" to="#808080" begin="zoomplus.mouseover" end="zoomplus.mouseout"/></use>
    <path d="M-4,0h8M0,-4v8" fill="none" stroke="white" stroke-width="1.5" pointer-events="none"/>
  </g>
  <g id="zoomMin">
    <use xlink:href="#rim" fill="#404040"><set attributeName="fill" to="#808080" begin="zoomminus.mouseover" end="zoomminus.mouseout"/></use>
    <path d="M-4,0h8" fill="none" stroke="white" stroke-width="1.5" pointer-events="none"/>
  </g>
  <g id="arrowUp" transform="translate(30 24)">
    <use xlink:href="#rim"/>
    <path pointer-events="none" fill="none" stroke="white" stroke-width="1.5" d="M0,-3.0v7 M-2.5,-0.5L0,-3.0L2.5,-0.5"/>
  </g>
  <g id="arrowRight" transform="rotate(90) translate(36 -43)">
    <use xlink:href="#rim"/>
    <path pointer-events="none" fill="none" stroke="white" stroke-width="1.5" d="M0,-3.0v7 M-2.5,-0.5L0,-3.0L2.5,-0.5"/>
  </g>
  <g id="arrowDown" transform="rotate(180) translate(-30 -48)">
    <use xlink:href="#rim"/>
    <path pointer-events="none" fill="none" stroke="white" stroke-width="1.5" d="M0,-3.0v7 M-2.5,-0.5L0,-3.0L2.5,-0.5"/>
  </g>
  <g id="arrowLeft" transform="rotate(270) translate(-36 17)">
    <use xlink:href="#rim"/>
    <path pointer-events="none" fill="none" stroke="white" stroke-width="1.5" d="M0,-3.0v7 M-2.5,-0.5L0,-3.0L2.5,-0.5"/>
  </g>
  <g id="resetDef">
    <use xlink:href="#rim2" fill="#404040"><set attributeName="fill" to="#808080" begin="reset.mouseover" end="reset.mouseout"/></use>
  </g>
</defs>
<script type="application/ecmascript">
var viewWidth = 727;
var viewHeight = 137;
var sectionId = 'dynsection-0';
</script>
<script type="application/ecmascript" xlink:href="svg.min.js"/>
<svg id="graph" class="graph">
<g id="viewport">
<title>BalloonParty.Shared.Rendering.ColorableRenderer</title>
<!-- Node1 -->
<g id="Node000001" class="node">
<title>Node1</title>
<g id="a_Node000001"><a xlink:title="Non&#45;generic MonoBehaviour base that implements IColorableRenderer.">
<polygon fill="#999999" stroke="#666666" points="344,-54.5 190,-54.5 190,-24 344,-24 344,-54.5"/>
<text xml:space="preserve" text-anchor="start" x="198" y="-41" font-family="Helvetica,sans-Serif" font-size="10.00">BalloonParty.Shared.Rendering.</text>
<text xml:space="preserve" text-anchor="middle" x="267" y="-29.75" font-family="Helvetica,sans-Serif" font-size="10.00">ColorableRenderer</text>
</a>
</g>
</g>
<!-- Node4 -->
<g id="Node000004" class="node">
<title>Node4</title>
<g id="a_Node000004"><a xlink:href="class_balloon_party_1_1_shared_1_1_rendering_1_1_colorable_renderer-1-g.html" target="_top" xlink:title="Generic layer that fetches the required T &#160;component on Awake.">
<polygon fill="white" stroke="#666666" points="534,-79.5 380,-79.5 380,-49 534,-49 534,-79.5"/>
<text xml:space="preserve" text-anchor="start" x="388" y="-66" font-family="Helvetica,sans-Serif" font-size="10.00">BalloonParty.Shared.Rendering.</text>
<text xml:space="preserve" text-anchor="middle" x="457" y="-54.75" font-family="Helvetica,sans-Serif" font-size="10.00">ColorableRenderer&lt; T &gt;</text>
</a>
</g>
</g>
<!-- Node1&#45;&gt;Node4 -->
<g id="edge3_Node000001_Node000004" class="edge">
<title>Node1&#45;&gt;Node4</title>
<g id="a_edge3_Node000001_Node000004"><a xlink:title=" ">
<path fill="none" stroke="#63b8ff" d="M355.69,-50.91C363.68,-51.97 371.73,-53.04 379.6,-54.09"/>
<polygon fill="#63b8ff" stroke="#63b8ff" points="356.34,-47.47 345.97,-49.62 355.42,-54.41 356.34,-47.47"/>
</a>
</g>
</g>
<!-- Node8 -->
<g id="Node000008" class="node">
<title>Node8</title>
<g id="a_Node000008"><a xlink:href="class_balloon_party_1_1_shared_1_1_rendering_1_1_composite_colorable_renderer.html" target="_top" xlink:title=" ">
<polygon fill="white" stroke="#666666" points="534,-30.5 380,-30.5 380,0 534,0 534,-30.5"/>
<text xml:space="preserve" text-anchor="start" x="388" y="-17" font-family="Helvetica,sans-Serif" font-size="10.00">BalloonParty.Shared.Rendering.</text>
<text xml:space="preserve" text-anchor="middle" x="457" y="-5.75" font-family="Helvetica,sans-Serif" font-size="10.00">CompositeColorableRenderer</text>
</a>
</g>
</g>
<!-- Node1&#45;&gt;Node8 -->
<g id="edge7_Node000001_Node000008" class="edge">
<title>Node1&#45;&gt;Node8</title>
<g id="a_edge7_Node000001_Node000008"><a xlink:title=" ">
<path fill="none" stroke="#63b8ff" d="M355.69,-28.06C363.68,-27.04 371.73,-26.01 379.6,-25"/>
<polygon fill="#63b8ff" stroke="#63b8ff" points="355.44,-24.56 345.97,-29.3 356.33,-31.5 355.44,-24.56"/>
</a>
</g>
</g>
<!-- Node2 -->
<g id="Node000002" class="node">
<title>Node2</title>
<g id="a_Node000002"><a xlink:title=" ">
<polygon fill="white" stroke="#666666" points="118.75,-70.88 35.25,-70.88 35.25,-51.62 118.75,-51.62 118.75,-70.88"/>
<text xml:space="preserve" text-anchor="middle" x="77" y="-57.38" font-family="Helvetica,sans-Serif" font-size="10.00">MonoBehaviour</text>
</a>
</g>
</g>
<!-- Node2&#45;&gt;Node1 -->
<g id="edge1_Node000001_Node000002" class="edge">
<title>Node2&#45;&gt;Node1</title>
<g id="a_edge1_Node000001_Node000002"><a xlink:title=" ">
<path fill="none" stroke="#63b8ff" d="M130.17,-55.15C148.58,-52.99 169.68,-50.52 189.67,-48.18"/>
<polygon fill="#63b8ff" stroke="#63b8ff" points="129.82,-51.66 120.3,-56.3 130.64,-58.61 129.82,-51.66"/>
</a>
</g>
</g>
<!-- Node3 -->
<g id="Node000003" class="node">
<title>Node3</title>
<g id="a_Node000003"><a xlink:href="interface_balloon_party_1_1_shared_1_1_rendering_1_1_i_colorable_renderer.html" target="_top" xlink:title=" ">
<polygon fill="white" stroke="#666666" points="154,-33.5 0,-33.5 0,-3 154,-3 154,-33.5"/>
<text xml:space="preserve" text-anchor="start" x="8" y="-20" font-family="Helvetica,sans-Serif" font-size="10.00">BalloonParty.Shared.Rendering.</text>
<text xml:space="preserve" text-anchor="middle" x="77" y="-8.75" font-family="Helvetica,sans-Serif" font-size="10.00">IColorableRenderer</text>
</a>
</g>
</g>
<!-- Node3&#45;&gt;Node1 -->
<g id="edge2_Node000001_Node000003" class="edge">
<title>Node3&#45;&gt;Node1</title>
<g id="a_edge2_Node000001_Node000003"><a xlink:title=" ">
<path fill="none" stroke="#63b8ff" d="M165.69,-28.05C173.68,-28.94 181.73,-29.84 189.6,-30.72"/>
<polygon fill="#63b8ff" stroke="#63b8ff" points="166.3,-24.59 155.97,-26.96 165.52,-31.55 166.3,-24.59"/>
</a>
</g>
</g>
<!-- Node5 -->
<g id="Node000005" class="node">
<title>Node5</title>
<g id="a_Node000005"><a xlink:href="class_balloon_party_1_1_balloon_1_1_view_1_1_particle_colorable_renderer.html" target="_top" xlink:title=" ">
<polygon fill="white" stroke="#666666" points="710.12,-128.5 578.62,-128.5 578.62,-98 710.12,-98 710.12,-128.5"/>
<text xml:space="preserve" text-anchor="start" x="586.62" y="-115" font-family="Helvetica,sans-Serif" font-size="10.00">BalloonParty.Balloon.View.</text>
<text xml:space="preserve" text-anchor="middle" x="644.38" y="-103.75" font-family="Helvetica,sans-Serif" font-size="10.00">ParticleColorableRenderer</text>
</a>
</g>
</g>
<!-- Node4&#45;&gt;Node5 -->
<g id="edge4_Node000004_Node000005" class="edge">
<title>Node4&#45;&gt;Node5</title>
<g id="a_edge4_Node000004_Node000005"><a xlink:title=" ">
<path fill="none" stroke="#63b8ff" d="M528.35,-82.84C546.69,-87.69 566.27,-92.87 583.97,-97.55"/>
<polygon fill="#63b8ff" stroke="#63b8ff" points="529.44,-79.51 518.88,-80.34 527.66,-86.28 529.44,-79.51"/>
</a>
</g>
</g>
<!-- Node6 -->
<g id="Node000006" class="node">
<title>Node6</title>
<g id="a_Node000006"><a xlink:href="class_balloon_party_1_1_balloon_1_1_view_1_1_sprite_colorable_renderer.html" target="_top" xlink:title=" ">
<polygon fill="white" stroke="#666666" points="710.12,-79.5 578.62,-79.5 578.62,-49 710.12,-49 710.12,-79.5"/>
<text xml:space="preserve" text-anchor="start" x="586.62" y="-66" font-family="Helvetica,sans-Serif" font-size="10.00">BalloonParty.Balloon.View.</text>
<text xml:space="preserve" text-anchor="middle" x="644.38" y="-54.75" font-family="Helvetica,sans-Serif" font-size="10.00">SpriteColorableRenderer</text>
</a>
</g>
</g>
<!-- Node4&#45;&gt;Node6 -->
<g id="edge5_Node000004_Node000006" class="edge">
<title>Node4&#45;&gt;Node6</title>
<g id="a_edge5_Node000004_Node000006"><a xlink:title=" ">
<path fill="none" stroke="#63b8ff" d="M545.82,-64.25C556.76,-64.25 567.79,-64.25 578.31,-64.25"/>
<polygon fill="#63b8ff" stroke="#63b8ff" points="545.98,-60.75 535.98,-64.25 545.98,-67.75 545.98,-60.75"/>
</a>
</g>
</g>
<!-- Node7 -->
<g id="Node000007" class="node">
<title>Node7</title>
<g id="a_Node000007"><a xlink:href="class_balloon_party_1_1_u_i_1_1_score_1_1_graphic_colorable_renderer.html" target="_top" xlink:title=" ">
<polygon fill="white" stroke="#666666" points="718.75,-30.5 570,-30.5 570,0 718.75,0 718.75,-30.5"/>
<text xml:space="preserve" text-anchor="start" x="578" y="-17" font-family="Helvetica,sans-Serif" font-size="10.00">BalloonParty.UI.Score.Graphic</text>
<text xml:space="preserve" text-anchor="middle" x="644.38" y="-5.75" font-family="Helvetica,sans-Serif" font-size="10.00">ColorableRenderer</text>
</a>
</g>
</g>
<!-- Node4&#45;&gt;Node7 -->
<g id="edge6_Node000004_Node000007" class="edge">
<title>Node4&#45;&gt;Node7</title>
<g id="a_edge6_Node000004_Node000007"><a xlink:title=" ">
<path fill="none" stroke="#63b8ff" d="M528.35,-45.66C546.69,-40.81 566.27,-35.63 583.97,-30.95"/>
<polygon fill="#63b8ff" stroke="#63b8ff" points="527.66,-42.22 518.88,-48.16 529.44,-48.99 527.66,-42.22"/>
</a>
</g>
</g>
</g>
</svg>

<g id="navigator" transform="translate(0 0)" fill="#404254">
  <rect fill="#f2f5e9" fill-opacity="0.5" stroke="#606060" stroke-width=".5" x="0" y="0" width="60" height="60"/>
  <use id="zoomplus" xlink:href="#zoomPlus" x="17" y="9" onmousedown="handleZoom(evt,'in')"/>
  <use id="zoomminus" xlink:href="#zoomMin" x="42" y="9" onmousedown="handleZoom(evt,'out')"/>
  <use id="reset" xlink:href="#resetDef" x="30" y="36" onmousedown="handleReset()"/>
   <use id="arrowup" xlink:href="#arrowUp" x="0" y="0" onmousedown="handlePan(0,-1)"/>
  <use id="arrowright" xlink:href="#arrowRight" x="0" y="0" onmousedown="handlePan(1,0)"/>
  <use id="arrowdown" xlink:href="#arrowDown" x="0" y="0" onmousedown="handlePan(0,1)"/>
  <use id="arrowleft" xlink:href="#arrowLeft" x="0" y="0" onmousedown="handlePan(-1,0)"/>
</g>
<svg viewBox="0 0 15 15" width="100%" height="30px" preserveAspectRatio="xMaxYMin meet">
 <g id="arrow_out" transform="scale(0.3 0.3)">
  <a xlink:href="class_balloon_party_1_1_shared_1_1_rendering_1_1_colorable_renderer__inherit__graph_org.svg" target="_base">
   <rect id="button" ry="5" rx="5" y="6" x="6" height="38" width="38"
        fill="#f2f5e9" fill-opacity="0.5" stroke="#606060" stroke-width="1.0"/>
   <path id="arrow"
     d="M 11.500037,31.436501 C 11.940474,20.09759 22.043105,11.32322 32.158766,21.979434 L 37.068811,17.246167 C 37.068811,17.246167 37.088388,32 37.088388,32 L 22.160133,31.978069 C 22.160133,31.978069 26.997745,27.140456 26.997745,27.140456 C 18.528582,18.264221 13.291696,25.230495 11.500037,31.436501 z"
     style="fill:#404040;"/>
  </a>
 </g>
</svg>

<style type='text/css'>
<![CDATA[
[data-mouse-over-selected='false'] { opacity: 0.7; }
[data-mouse-over-selected='true']  { opacity: 1.0; }
]]>
</style>
<script type="application/ecmascript"><![CDATA[
document.addEventListener('DOMContentLoaded', (event) => {
  highlightEdges();
  highlightAdjacentNodes();
});
]]></script>
</svg>
