<?xml version="1.0" encoding="UTF-8" standalone="no"?>
<!DOCTYPE svg PUBLIC "-//W3C//DTD SVG 1.1//EN"
 "http://www.w3.org/Graphics/SVG/1.1/DTD/svg11.dtd">
<!-- Generated by graphviz version 15.0.0 (20260523.1842)
 -->
<!-- Title: BalloonParty.Editor.PaintSplashViewEditor Pages: 1 -->
<!--zoomable 137 -->

<svg id="main" version="1.1" xmlns="http://www.w3.org/2000/svg" xmlns:xlink="http://www.w3.org/1999/xlink" xml:space="preserve" onload="init(evt)">

<style type="text/css"><![CDATA[
.node, .edge {opacity: 0.7;}
.node.selected, .edge.selected {opacity: 1;}
.edge:hover path { stroke: red; }
.edge:hover polygon { stroke: red; fill: red; }
]]></style>

<defs>
  <circle id="rim" cx="0" cy="0" r="7"/>
  <circle id="rim2" cx="0" cy="0" r="3.5"/>
  <g id="zoomPlus">
    <use xlink:href="#rim" fill="#404040"><set attributeName="fill" to="#808080" begin="zoomplus.mouseover" end="zoomplus.mouseout"/></use>
    <path d="M-4,0h8M0,-4v8" fill="none" stroke="white" stroke-width="1.5" pointer-events="none"/>
  </g>
  <g id="zoomMin">
    <use xlink:href="#rim" fill="#404040"><set attributeName="fill" to="#808080" begin="zoomminus.mouseover" end="zoomminus.mouseout"/></use>
    <path d="M-4,0h8" fill="none" stroke="white" stroke-width="1.5" pointer-events="none"/>
  </g>
  <g id="arrowUp" transform="translate(30 24)">
    <use xlink:href="#rim"/>
    <path pointer-events="none" fill="none" stroke="white" stroke-width="1.5" d="M0,-3.0v7 M-2.5,-0.5L0,-3.0L2.5,-0.5"/>
  </g>
  <g id="arrowRight" transform="rotate(90) translate(36 -43)">
    <use xlink:href="#rim"/>
    <path pointer-events="none" fill="none" stroke="white" stroke-width="1.5" d="M0,-3.0v7 M-2.5,-0.5L0,-3.0L2.5,-0.5"/>
  </g>
  <g id="arrowDown" transform="rotate(180) translate(-30 -48)">
    <use xlink:href="#rim"/>
    <path pointer-events="none" fill="none" stroke="white" stroke-width="1.5" d="M0,-3.0v7 M-2.5,-0.5L0,-3.0L2.5,-0.5"/>
  </g>
  <g id="arrowLeft" transform="rotate(270) translate(-36 17)">
    <use xlink:href="#rim"/>
    <path pointer-events="none" fill="none" stroke="white" stroke-width="1.5" d="M0,-3.0v7 M-2.5,-0.5L0,-3.0L2.5,-0.5"/>
  </g>
  <g id="resetDef">
    <use xlink:href="#rim2" fill="#404040"><set attributeName="fill" to="#808080" begin="reset.mouseover" end="reset.mouseout"/></use>
  </g>
</defs>
<script type="application/ecmascript">
var viewWidth = 613;
var viewHeight = 137;
var sectionId = 'dynsection-1';
</script>
<script type="application/ecmascript" xlink:href="svg.min.js"/>
<svg id="graph" class="graph">
<g id="viewport">
<title>BalloonParty.Editor.PaintSplashViewEditor</title>
<!-- Node1 -->
<g id="Node000001" class="node">
<title>Node1</title>
<g id="a_Node000001"><a xlink:title=" ">
<polygon fill="#999999" stroke="#666666" points="605.25,-101.5 482,-101.5 482,-71 605.25,-71 605.25,-101.5"/>
<text xml:space="preserve" text-anchor="start" x="490" y="-88" font-family="Helvetica,sans-Serif" font-size="10.00">BalloonParty.Editor.Paint</text>
<text xml:space="preserve" text-anchor="middle" x="543.62" y="-76.75" font-family="Helvetica,sans-Serif" font-size="10.00">SplashViewEditor</text>
</a>
</g>
</g>
<!-- Node2 -->
<g id="Node000002" class="node">
<title>Node2</title>
<g id="a_Node000002"><a xlink:title=" ">
<polygon fill="white" stroke="#666666" points="373.25,-116.88 280,-116.88 280,-97.62 373.25,-97.62 373.25,-116.88"/>
<text xml:space="preserve" text-anchor="middle" x="326.62" y="-103.38" font-family="Helvetica,sans-Serif" font-size="10.00">NaughtyInspector</text>
</a>
</g>
</g>
<!-- Node2&#45;&gt;Node1 -->
<g id="edge1_Node000001_Node000002" class="edge">
<title>Node2&#45;&gt;Node1</title>
<g id="a_edge1_Node000001_Node000002"><a xlink:title=" ">
<path fill="none" stroke="#63b8ff" d="M384.86,-101.66C414.8,-98.74 451.44,-95.16 481.88,-92.18"/>
<polygon fill="#63b8ff" stroke="#63b8ff" points="384.87,-98.14 375.25,-102.6 385.55,-105.11 384.87,-98.14"/>
</a>
</g>
</g>
<!-- Node3 -->
<g id="Node000003" class="node">
<title>Node3</title>
<g id="a_Node000003"><a xlink:href="class_balloon_party_1_1_editor_1_1_effect_preview_1_1_effect_view_preview_player.html" target="_top" xlink:title="Reusable editor preview player for Shared.Pool.EffectView subclasses.">
<polygon fill="white" stroke="#666666" points="408.5,-79.5 244.75,-79.5 244.75,-49 408.5,-49 408.5,-79.5"/>
<text xml:space="preserve" text-anchor="start" x="252.75" y="-66" font-family="Helvetica,sans-Serif" font-size="10.00">BalloonParty.Editor.Effect</text>
<text xml:space="preserve" text-anchor="middle" x="326.62" y="-54.75" font-family="Helvetica,sans-Serif" font-size="10.00">Preview.EffectViewPreviewPlayer</text>
</a>
</g>
</g>
<!-- Node3&#45;&gt;Node1 -->
<g id="edge2_Node000001_Node000003" class="edge">
<title>Node3&#45;&gt;Node1</title>
<g id="a_edge2_Node000001_Node000003"><a xlink:title=" ">
<path fill="none" stroke="#9a32cd" stroke-dasharray="5,2" d="M420.05,-68.89C434.77,-70 449.82,-71.35 464,-73 469.78,-73.67 475.77,-74.48 481.76,-75.36"/>
<polygon fill="#9a32cd" stroke="#9a32cd" points="420.61,-65.42 410.38,-68.2 420.11,-72.4 420.61,-65.42"/>
</a>
</g>
<text xml:space="preserve" text-anchor="start" x="429.5" y="-79" font-family="Helvetica,sans-Serif" font-size="10.00" fill="grey">_player</text>
</g>
<!-- Node4 -->
<g id="Node000004" class="node">
<title>Node4</title>
<g id="a_Node000004"><a xlink:href="class_balloon_party_1_1_editor_1_1_editor_u_i_1_1_editor_animation_loop.html" target="_top" xlink:title="Manages a play/pause/stop animation loop driven by EditorApplication.update.">
<polygon fill="white" stroke="#666666" points="137.5,-128.5 11.25,-128.5 11.25,-98 137.5,-98 137.5,-128.5"/>
<text xml:space="preserve" text-anchor="start" x="19.25" y="-115" font-family="Helvetica,sans-Serif" font-size="10.00">BalloonParty.Editor.Editor</text>
<text xml:space="preserve" text-anchor="middle" x="74.38" y="-103.75" font-family="Helvetica,sans-Serif" font-size="10.00">UI.EditorAnimationLoop</text>
</a>
</g>
</g>
<!-- Node4&#45;&gt;Node3 -->
<g id="edge3_Node000003_Node000004" class="edge">
<title>Node4&#45;&gt;Node3</title>
<g id="a_edge3_Node000003_Node000004"><a xlink:title=" ">
<path fill="none" stroke="#9a32cd" stroke-dasharray="5,2" d="M148.83,-100.07C173.61,-95.51 201.4,-90.28 226.75,-85.25 235.18,-83.57 244.01,-81.77 252.77,-79.95"/>
<polygon fill="#9a32cd" stroke="#9a32cd" points="148.37,-96.59 139.17,-101.83 149.63,-103.48 148.37,-96.59"/>
</a>
</g>
<text xml:space="preserve" text-anchor="start" x="173.12" y="-102.41" font-family="Helvetica,sans-Serif" font-size="10.00" fill="grey">_animLoop</text>
</g>
<!-- Node5 -->
<g id="Node000005" class="node">
<title>Node5</title>
<g id="a_Node000005"><a xlink:href="class_balloon_party_1_1_editor_1_1_editor_u_i_1_1_palette_color_picker.html" target="_top" xlink:title="Reusable palette color picker and swatch drawing for editor UI.">
<polygon fill="white" stroke="#666666" points="137.5,-79.5 11.25,-79.5 11.25,-49 137.5,-49 137.5,-79.5"/>
<text xml:space="preserve" text-anchor="start" x="19.25" y="-66" font-family="Helvetica,sans-Serif" font-size="10.00">BalloonParty.Editor.Editor</text>
<text xml:space="preserve" text-anchor="middle" x="74.38" y="-54.75" font-family="Helvetica,sans-Serif" font-size="10.00">UI.PaletteColorPicker</text>
</a>
</g>
</g>
<!-- Node5&#45;&gt;Node3 -->
<g id="edge4_Node000003_Node000005" class="edge">
<title>Node5&#45;&gt;Node3</title>
<g id="a_edge4_Node000003_Node000005"><a xlink:title=" ">
<path fill="none" stroke="#9a32cd" stroke-dasharray="5,2" d="M149.12,-64.25C179.11,-64.25 213.86,-64.25 244.56,-64.25"/>
<polygon fill="#9a32cd" stroke="#9a32cd" points="149.39,-60.75 139.39,-64.25 149.39,-67.75 149.39,-60.75"/>
</a>
</g>
<text xml:space="preserve" text-anchor="start" x="169.75" y="-70.25" font-family="Helvetica,sans-Serif" font-size="10.00" fill="grey">_colorPicker</text>
</g>
<!-- Node6 -->
<g id="Node000006" class="node">
<title>Node6</title>
<g id="a_Node000006"><a xlink:href="interface_balloon_party_1_1_editor_1_1_effect_preview_1_1_i_effect_preview_module.html" target="_top" xlink:title="Pluggable preview module for EffectViewPreviewPlayer.">
<polygon fill="white" stroke="#666666" points="148.75,-30.5 0,-30.5 0,0 148.75,0 148.75,-30.5"/>
<text xml:space="preserve" text-anchor="start" x="8" y="-17" font-family="Helvetica,sans-Serif" font-size="10.00">BalloonParty.Editor.Effect</text>
<text xml:space="preserve" text-anchor="middle" x="74.38" y="-5.75" font-family="Helvetica,sans-Serif" font-size="10.00">Preview.IEffectPreviewModule</text>
</a>
</g>
</g>
<!-- Node6&#45;&gt;Node3 -->
<g id="edge5_Node000003_Node000006" class="edge">
<title>Node6&#45;&gt;Node3</title>
<g id="a_edge5_Node000003_Node000006"><a xlink:title=" ">
<path fill="none" stroke="#9a32cd" stroke-dasharray="5,2" d="M160.19,-30.33C181.91,-34.32 205.22,-38.71 226.75,-43 235.45,-44.73 244.56,-46.61 253.59,-48.5"/>
<polygon fill="#9a32cd" stroke="#9a32cd" points="160.94,-26.91 150.48,-28.55 159.69,-33.8 160.94,-26.91"/>
</a>
</g>
<text xml:space="preserve" text-anchor="start" x="178.38" y="-49" font-family="Helvetica,sans-Serif" font-size="10.00" fill="grey">_module</text>
</g>
</g>
</svg>

<g id="navigator" transform="translate(0 0)" fill="#404254">
  <rect fill="#f2f5e9" fill-opacity="0.5" stroke="#606060" stroke-width=".5" x="0" y="0" width="60" height="60"/>
  <use id="zoomplus" xlink:href="#zoomPlus" x="17" y="9" onmousedown="handleZoom(evt,'in')"/>
  <use id="zoomminus" xlink:href="#zoomMin" x="42" y="9" onmousedown="handleZoom(evt,'out')"/>
  <use id="reset" xlink:href="#resetDef" x="30" y="36" onmousedown="handleReset()"/>
   <use id="arrowup" xlink:href="#arrowUp" x="0" y="0" onmousedown="handlePan(0,-1)"/>
  <use id="arrowright" xlink:href="#arrowRight" x="0" y="0" onmousedown="handlePan(1,0)"/>
  <use id="arrowdown" xlink:href="#arrowDown" x="0" y="0" onmousedown="handlePan(0,1)"/>
  <use id="arrowleft" xlink:href="#arrowLeft" x="0" y="0" onmousedown="handlePan(-1,0)"/>
</g>
<svg viewBox="0 0 15 15" width="100%" height="30px" preserveAspectRatio="xMaxYMin meet">
 <g id="arrow_out" transform="scale(0.3 0.3)">
  <a xlink:href="class_balloon_party_1_1_editor_1_1_paint_splash_view_editor__coll__graph_org.svg" target="_base">
   <rect id="button" ry="5" rx="5" y="6" x="6" height="38" width="38"
        fill="#f2f5e9" fill-opacity="0.5" stroke="#606060" stroke-width="1.0"/>
   <path id="arrow"
     d="M 11.500037,31.436501 C 11.940474,20.09759 22.043105,11.32322 32.158766,21.979434 L 37.068811,17.246167 C 37.068811,17.246167 37.088388,32 37.088388,32 L 22.160133,31.978069 C 22.160133,31.978069 26.997745,27.140456 26.997745,27.140456 C 18.528582,18.264221 13.291696,25.230495 11.500037,31.436501 z"
     style="fill:#404040;"/>
  </a>
 </g>
</svg>

<style type='text/css'>
<![CDATA[
[data-mouse-over-selected='false'] { opacity: 0.7; }
[data-mouse-over-selected='true']  { opacity: 1.0; }
]]>
</style>
<script type="application/ecmascript"><![CDATA[
document.addEventListener('DOMContentLoaded', (event) => {
  highlightEdges();
  highlightAdjacentNodes();
});
]]></script>
</svg>
