<?xml version="1.0" encoding="UTF-8" standalone="no"?>
<!DOCTYPE svg PUBLIC "-//W3C//DTD SVG 1.1//EN"
 "http://www.w3.org/Graphics/SVG/1.1/DTD/svg11.dtd">
<!-- Generated by graphviz version 15.0.0 (20260523.1842)
 -->
<!-- Title: BalloonParty.Configuration.GamePalette Pages: 1 -->
<svg width="248pt" height="122pt"
 viewBox="0.00 0.00 248.00 122.00" xmlns="http://www.w3.org/2000/svg" xmlns:xlink="http://www.w3.org/1999/xlink">
<g id="graph0" class="graph" transform="scale(1 1) rotate(0) translate(4 118.25)">
<title>BalloonParty.Configuration.GamePalette</title>
<!-- Node1 -->
<g id="Node000001" class="node">
<title>Node1</title>
<g id="a_Node000001"><a xlink:title=" ">
<polygon fill="#999999" stroke="#666666" points="174.88,-30.5 41.12,-30.5 41.12,0 174.88,0 174.88,-30.5"/>
<text xml:space="preserve" text-anchor="start" x="49.12" y="-17" font-family="Helvetica,sans-Serif" font-size="10.00">BalloonParty.Configuration.</text>
<text xml:space="preserve" text-anchor="middle" x="108" y="-5.75" font-family="Helvetica,sans-Serif" font-size="10.00">GamePalette</text>
</a>
</g>
</g>
<!-- Node2 -->
<g id="Node000002" class="node">
<title>Node2</title>
<g id="a_Node000002"><a xlink:title=" ">
<polygon fill="white" stroke="#666666" points="88,-108.62 0,-108.62 0,-89.38 88,-89.38 88,-108.62"/>
<text xml:space="preserve" text-anchor="middle" x="44" y="-95.12" font-family="Helvetica,sans-Serif" font-size="10.00">ScriptableObject</text>
</a>
</g>
</g>
<!-- Node2&#45;&gt;Node1 -->
<g id="edge1_Node000001_Node000002" class="edge">
<title>Node2&#45;&gt;Node1</title>
<g id="a_edge1_Node000001_Node000002"><a xlink:title=" ">
<path fill="none" stroke="#63b8ff" d="M57.91,-80.23C69.48,-65.45 85.74,-44.68 96.56,-30.86"/>
<polygon fill="#63b8ff" stroke="#63b8ff" points="55.44,-77.72 52.03,-87.75 60.95,-82.03 55.44,-77.72"/>
</a>
</g>
</g>
<!-- Node3 -->
<g id="Node000003" class="node">
<title>Node3</title>
<g id="a_Node000003"><a xlink:href="class_balloon_party_1_1_configuration_1_1_palette_entry.html" target="_top" xlink:title=" ">
<polygon fill="white" stroke="#666666" points="239.88,-114.25 106.12,-114.25 106.12,-83.75 239.88,-83.75 239.88,-114.25"/>
<text xml:space="preserve" text-anchor="start" x="114.12" y="-100.75" font-family="Helvetica,sans-Serif" font-size="10.00">BalloonParty.Configuration.</text>
<text xml:space="preserve" text-anchor="middle" x="173" y="-89.5" font-family="Helvetica,sans-Serif" font-size="10.00">PaletteEntry</text>
</a>
</g>
</g>
<!-- Node3&#45;&gt;Node1 -->
<g id="edge2_Node000001_Node000003" class="edge">
<title>Node3&#45;&gt;Node1</title>
<g id="a_edge2_Node000001_Node000003"><a xlink:title=" ">
<path fill="none" stroke="#9a32cd" stroke-dasharray="5,2" d="M154.46,-74.68C143.2,-60.53 129.2,-42.91 119.52,-30.74"/>
<polygon fill="#9a32cd" stroke="#9a32cd" points="151.47,-76.55 160.44,-82.2 156.95,-72.19 151.47,-76.55"/>
</a>
</g>
<text xml:space="preserve" text-anchor="start" x="149.32" y="-54.5" font-family="Helvetica,sans-Serif" font-size="10.00" fill="grey">_colors</text>
</g>
</g>
</svg>
