<?xml version="1.0" encoding="UTF-8" standalone="no"?>
<!DOCTYPE svg PUBLIC "-//W3C//DTD SVG 1.1//EN"
 "http://www.w3.org/Graphics/SVG/1.1/DTD/svg11.dtd">
<!-- Generated by graphviz version 15.0.0 (20260523.1842)
 -->
<!-- Title: BalloonParty.Item.Paint.PaintSplashView Pages: 1 -->
<svg width="855pt" height="204pt"
 viewBox="0.00 0.00 855.00 204.00" xmlns="http://www.w3.org/2000/svg" xmlns:xlink="http://www.w3.org/1999/xlink">
<g id="graph0" class="graph" transform="scale(1 1) rotate(0) translate(4 199.5)">
<title>BalloonParty.Item.Paint.PaintSplashView</title>
<!-- Node1 -->
<g id="Node000001" class="node">
<title>Node1</title>
<g id="a_Node000001"><a xlink:title="Poolable paint&#45;splash effect.">
<polygon fill="#999999" stroke="#666666" points="846.5,-94.5 725.5,-94.5 725.5,-64 846.5,-64 846.5,-94.5"/>
<text xml:space="preserve" text-anchor="start" x="733.5" y="-81" font-family="Helvetica,sans-Serif" font-size="10.00">BalloonParty.Item.Paint.</text>
<text xml:space="preserve" text-anchor="middle" x="786" y="-69.75" font-family="Helvetica,sans-Serif" font-size="10.00">PaintSplashView</text>
</a>
</g>
</g>
<!-- Node2 -->
<g id="Node000002" class="node">
<title>Node2</title>
<g id="a_Node000002"><a xlink:href="class_balloon_party_1_1_shared_1_1_pool_1_1_effect_view.html" target="_top" xlink:title="Abstract base for poolable effect MonoBehaviours.">
<polygon fill="white" stroke="#666666" points="332.62,-97.5 203.38,-97.5 203.38,-67 332.62,-67 332.62,-97.5"/>
<text xml:space="preserve" text-anchor="start" x="211.38" y="-84" font-family="Helvetica,sans-Serif" font-size="10.00">BalloonParty.Shared.Pool.</text>
<text xml:space="preserve" text-anchor="middle" x="268" y="-72.75" font-family="Helvetica,sans-Serif" font-size="10.00">EffectView</text>
</a>
</g>
</g>
<!-- Node2&#45;&gt;Node1 -->
<g id="edge1_Node000001_Node000002" class="edge">
<title>Node2&#45;&gt;Node1</title>
<g id="a_edge1_Node000001_Node000002"><a xlink:title=" ">
<path fill="none" stroke="#63b8ff" d="M344.39,-80.11C386.86,-79.02 440.88,-77.8 489,-77.25 548.44,-76.57 563.31,-76.88 622.75,-77.25 656.69,-77.46 694.63,-77.91 725.28,-78.34"/>
<polygon fill="#63b8ff" stroke="#63b8ff" points="344.43,-76.61 334.52,-80.37 344.61,-83.61 344.43,-76.61"/>
</a>
</g>
</g>
<!-- Node9 -->
<g id="Node000009" class="node">
<title>Node9</title>
<g id="a_Node000009"><a xlink:href="class_balloon_party_1_1_configuration_1_1_item_settings.html" target="_top" xlink:title=" ">
<polygon fill="white" stroke="#666666" points="622.75,-116.5 489,-116.5 489,-86 622.75,-86 622.75,-116.5"/>
<text xml:space="preserve" text-anchor="start" x="497" y="-103" font-family="Helvetica,sans-Serif" font-size="10.00">BalloonParty.Configuration.</text>
<text xml:space="preserve" text-anchor="middle" x="555.88" y="-91.75" font-family="Helvetica,sans-Serif" font-size="10.00">ItemSettings</text>
</a>
</g>
</g>
<!-- Node2&#45;&gt;Node9 -->
<g id="edge10_Node000009_Node000002" class="edge">
<title>Node2&#45;&gt;Node9</title>
<g id="a_edge10_Node000009_Node000002"><a xlink:title=" ">
<path fill="none" stroke="#9a32cd" stroke-dasharray="5,2" d="M344.25,-84.78C382.28,-86.34 429.13,-88.68 471,-92 476.7,-92.45 482.6,-92.98 488.52,-93.55"/>
<polygon fill="#9a32cd" stroke="#9a32cd" points="344.39,-81.28 334.26,-84.38 344.11,-88.28 344.39,-81.28"/>
</a>
</g>
<text xml:space="preserve" text-anchor="start" x="366" y="-98" font-family="Helvetica,sans-Serif" font-size="10.00" fill="grey">_activationEffectPrefab</text>
</g>
<!-- Node3 -->
<g id="Node000003" class="node">
<title>Node3</title>
<g id="a_Node000003"><a xlink:title=" ">
<polygon fill="white" stroke="#666666" points="118.75,-143.88 35.25,-143.88 35.25,-124.62 118.75,-124.62 118.75,-143.88"/>
<text xml:space="preserve" text-anchor="middle" x="77" y="-130.38" font-family="Helvetica,sans-Serif" font-size="10.00">MonoBehaviour</text>
</a>
</g>
</g>
<!-- Node3&#45;&gt;Node2 -->
<g id="edge2_Node000002_Node000003" class="edge">
<title>Node3&#45;&gt;Node2</title>
<g id="a_edge2_Node000002_Node000003"><a xlink:title=" ">
<path fill="none" stroke="#63b8ff" d="M125.37,-121.22C151,-114.16 182.85,-105.4 209.85,-97.98"/>
<polygon fill="#63b8ff" stroke="#63b8ff" points="124.61,-117.79 115.9,-123.82 126.47,-124.54 124.61,-117.79"/>
</a>
</g>
</g>
<!-- Node6 -->
<g id="Node000006" class="node">
<title>Node6</title>
<g id="a_Node000006"><a xlink:href="class_balloon_party_1_1_shared_1_1_rendering_1_1_colorable_renderer.html" target="_top" xlink:title="Non&#45;generic MonoBehaviour base that implements IColorableRenderer.">
<polygon fill="white" stroke="#666666" points="345,-195.5 191,-195.5 191,-165 345,-165 345,-195.5"/>
<text xml:space="preserve" text-anchor="start" x="199" y="-182" font-family="Helvetica,sans-Serif" font-size="10.00">BalloonParty.Shared.Rendering.</text>
<text xml:space="preserve" text-anchor="middle" x="268" y="-170.75" font-family="Helvetica,sans-Serif" font-size="10.00">ColorableRenderer</text>
</a>
</g>
</g>
<!-- Node3&#45;&gt;Node6 -->
<g id="edge6_Node000006_Node000003" class="edge">
<title>Node3&#45;&gt;Node6</title>
<g id="a_edge6_Node000006_Node000003"><a xlink:title=" ">
<path fill="none" stroke="#63b8ff" d="M130.01,-146.91C152.47,-152.38 178.98,-158.83 202.66,-164.59"/>
<polygon fill="#63b8ff" stroke="#63b8ff" points="131.02,-143.55 120.48,-144.59 129.37,-150.35 131.02,-143.55"/>
</a>
</g>
</g>
<!-- Node4 -->
<g id="Node000004" class="node">
<title>Node4</title>
<g id="a_Node000004"><a xlink:href="interface_balloon_party_1_1_shared_1_1_pool_1_1_i_poolable.html" target="_top" xlink:title=" ">
<polygon fill="white" stroke="#666666" points="141.62,-100.5 12.38,-100.5 12.38,-70 141.62,-70 141.62,-100.5"/>
<text xml:space="preserve" text-anchor="start" x="20.38" y="-87" font-family="Helvetica,sans-Serif" font-size="10.00">BalloonParty.Shared.Pool.</text>
<text xml:space="preserve" text-anchor="middle" x="77" y="-75.75" font-family="Helvetica,sans-Serif" font-size="10.00">IPoolable</text>
</a>
</g>
</g>
<!-- Node4&#45;&gt;Node2 -->
<g id="edge3_Node000002_Node000004" class="edge">
<title>Node4&#45;&gt;Node2</title>
<g id="a_edge3_Node000002_Node000004"><a xlink:title=" ">
<path fill="none" stroke="#63b8ff" d="M153.25,-84.06C169.75,-83.79 187.07,-83.52 203.08,-83.26"/>
<polygon fill="#63b8ff" stroke="#63b8ff" points="153.44,-80.55 143.5,-84.21 153.55,-87.55 153.44,-80.55"/>
</a>
</g>
</g>
<!-- Node5 -->
<g id="Node000005" class="node">
<title>Node5</title>
<g id="a_Node000005"><a xlink:href="interface_balloon_party_1_1_shared_1_1_i_effect.html" target="_top" xlink:title="Abstracts any visual effect that can be triggered at a world position and optionally tinted.">
<polygon fill="white" stroke="#666666" points="145,-51.88 9,-51.88 9,-32.62 145,-32.62 145,-51.88"/>
<text xml:space="preserve" text-anchor="middle" x="77" y="-38.38" font-family="Helvetica,sans-Serif" font-size="10.00">BalloonParty.Shared.IEffect</text>
</a>
</g>
</g>
<!-- Node5&#45;&gt;Node2 -->
<g id="edge4_Node000002_Node000005" class="edge">
<title>Node5&#45;&gt;Node2</title>
<g id="a_edge4_Node000002_Node000005"><a xlink:title=" ">
<path fill="none" stroke="#63b8ff" d="M136.72,-54.68C157.71,-59.12 181.47,-64.15 202.9,-68.68"/>
<polygon fill="#63b8ff" stroke="#63b8ff" points="137.68,-51.3 127.17,-52.66 136.23,-58.15 137.68,-51.3"/>
</a>
</g>
</g>
<!-- Node6&#45;&gt;Node1 -->
<g id="edge5_Node000001_Node000006" class="edge">
<title>Node6&#45;&gt;Node1</title>
<g id="a_edge5_Node000001_Node000006"><a xlink:title=" ">
<path fill="none" stroke="#9a32cd" stroke-dasharray="5,2" d="M356.44,-174.2C446.06,-166.35 588.71,-149.28 707.5,-114.25 723.93,-109.41 741.38,-101.77 755.55,-94.86"/>
<polygon fill="#9a32cd" stroke="#9a32cd" points="356.42,-170.68 346.75,-175.02 357.01,-177.66 356.42,-170.68"/>
</a>
</g>
<text xml:space="preserve" text-anchor="start" x="521.75" y="-164.96" font-family="Helvetica,sans-Serif" font-size="10.00" fill="grey">_blobRenderers</text>
</g>
<!-- Node7 -->
<g id="Node000007" class="node">
<title>Node7</title>
<g id="a_Node000007"><a xlink:href="interface_balloon_party_1_1_shared_1_1_rendering_1_1_i_colorable_renderer.html" target="_top" xlink:title=" ">
<polygon fill="white" stroke="#666666" points="154,-195.5 0,-195.5 0,-165 154,-165 154,-195.5"/>
<text xml:space="preserve" text-anchor="start" x="8" y="-182" font-family="Helvetica,sans-Serif" font-size="10.00">BalloonParty.Shared.Rendering.</text>
<text xml:space="preserve" text-anchor="middle" x="77" y="-170.75" font-family="Helvetica,sans-Serif" font-size="10.00">IColorableRenderer</text>
</a>
</g>
</g>
<!-- Node7&#45;&gt;Node6 -->
<g id="edge7_Node000006_Node000007" class="edge">
<title>Node7&#45;&gt;Node6</title>
<g id="a_edge7_Node000006_Node000007"><a xlink:title=" ">
<path fill="none" stroke="#63b8ff" d="M165.66,-180.25C174.02,-180.25 182.45,-180.25 190.69,-180.25"/>
<polygon fill="#63b8ff" stroke="#63b8ff" points="165.84,-176.75 155.84,-180.25 165.84,-183.75 165.84,-176.75"/>
</a>
</g>
</g>
<!-- Node8 -->
<g id="Node000008" class="node">
<title>Node8</title>
<g id="a_Node000008"><a xlink:href="class_balloon_party_1_1_shared_1_1_pool_1_1_pool_manager.html" target="_top" xlink:title=" ">
<polygon fill="white" stroke="#666666" points="620.5,-30.5 491.25,-30.5 491.25,0 620.5,0 620.5,-30.5"/>
<text xml:space="preserve" text-anchor="start" x="499.25" y="-17" font-family="Helvetica,sans-Serif" font-size="10.00">BalloonParty.Shared.Pool.</text>
<text xml:space="preserve" text-anchor="middle" x="555.88" y="-5.75" font-family="Helvetica,sans-Serif" font-size="10.00">PoolManager</text>
</a>
</g>
</g>
<!-- Node8&#45;&gt;Node1 -->
<g id="edge8_Node000001_Node000008" class="edge">
<title>Node8&#45;&gt;Node1</title>
<g id="a_edge8_Node000001_Node000008"><a xlink:title=" ">
<path fill="none" stroke="#9a32cd" stroke-dasharray="5,2" d="M632.11,-13.57C656.7,-15 683.77,-18.72 707.5,-27 730.33,-34.96 752.84,-51.36 767.67,-63.67"/>
<polygon fill="#9a32cd" stroke="#9a32cd" points="632.3,-10.08 622.16,-13.13 631.99,-17.07 632.3,-10.08"/>
</a>
</g>
<text xml:space="preserve" text-anchor="start" x="643.75" y="-33" font-family="Helvetica,sans-Serif" font-size="10.00" fill="grey">_poolManager</text>
</g>
<!-- Node9&#45;&gt;Node1 -->
<g id="edge9_Node000001_Node000009" class="edge">
<title>Node9&#45;&gt;Node1</title>
<g id="a_edge9_Node000001_Node000009"><a xlink:title=" ">
<path fill="none" stroke="#9a32cd" stroke-dasharray="5,2" d="M634.34,-93.78C664.01,-90.92 697.39,-87.7 725.16,-85.02"/>
<polygon fill="#9a32cd" stroke="#9a32cd" points="634.29,-90.27 624.67,-94.71 634.96,-97.24 634.29,-90.27"/>
</a>
</g>
<text xml:space="preserve" text-anchor="start" x="654.25" y="-98.87" font-family="Helvetica,sans-Serif" font-size="10.00" fill="grey">_settings</text>
</g>
<!-- Node10 -->
<g id="Node000010" class="node">
<title>Node10</title>
<g id="a_Node000010"><a xlink:href="class_balloon_party_1_1_nudge_1_1_nudge_override.html" target="_top" xlink:title=" ">
<polygon fill="white" stroke="#666666" points="334.5,-146.5 201.5,-146.5 201.5,-116 334.5,-116 334.5,-146.5"/>
<text xml:space="preserve" text-anchor="start" x="209.5" y="-133" font-family="Helvetica,sans-Serif" font-size="10.00">BalloonParty.Nudge.Nudge</text>
<text xml:space="preserve" text-anchor="middle" x="268" y="-121.75" font-family="Helvetica,sans-Serif" font-size="10.00">Override</text>
</a>
</g>
</g>
<!-- Node10&#45;&gt;Node9 -->
<g id="edge11_Node000009_Node000010" class="edge">
<title>Node10&#45;&gt;Node9</title>
<g id="a_edge11_Node000009_Node000010"><a xlink:title=" ">
<path fill="none" stroke="#9a32cd" stroke-dasharray="5,2" d="M346.31,-123.14C390.86,-118.46 446.26,-112.65 488.77,-108.19"/>
<polygon fill="#9a32cd" stroke="#9a32cd" points="346.03,-119.65 336.45,-124.17 346.76,-126.61 346.03,-119.65"/>
</a>
</g>
<text xml:space="preserve" text-anchor="start" x="380.25" y="-126.69" font-family="Helvetica,sans-Serif" font-size="10.00" fill="grey">_nudgeOverrides</text>
</g>
</g>
</svg>
