<?xml version="1.0" encoding="UTF-8" standalone="no"?>
<!DOCTYPE svg PUBLIC "-//W3C//DTD SVG 1.1//EN"
 "http://www.w3.org/Graphics/SVG/1.1/DTD/svg11.dtd">
<!-- Generated by graphviz version 15.0.0 (20260523.1842)
 -->
<!-- Title: BalloonParty.Balloon.Type.ColorableBalloonVariant Pages: 1 -->
<svg width="558pt" height="146pt"
 viewBox="0.00 0.00 558.00 146.00" xmlns="http://www.w3.org/2000/svg" xmlns:xlink="http://www.w3.org/1999/xlink">
<g id="graph0" class="graph" transform="scale(1 1) rotate(0) translate(4 141.88)">
<title>BalloonParty.Balloon.Type.ColorableBalloonVariant</title>
<!-- Node1 -->
<g id="Node000001" class="node">
<title>Node1</title>
<g id="a_Node000001"><a xlink:title=" ">
<polygon fill="#999999" stroke="#666666" points="549.75,-100.5 417.5,-100.5 417.5,-70 549.75,-70 549.75,-100.5"/>
<text xml:space="preserve" text-anchor="start" x="425.5" y="-87" font-family="Helvetica,sans-Serif" font-size="10.00">BalloonParty.Balloon.Type.</text>
<text xml:space="preserve" text-anchor="middle" x="483.62" y="-75.75" font-family="Helvetica,sans-Serif" font-size="10.00">ColorableBalloonVariant</text>
</a>
</g>
</g>
<!-- Node2 -->
<g id="Node000002" class="node">
<title>Node2</title>
<g id="a_Node000002"><a xlink:title=" ">
<polygon fill="white" stroke="#666666" points="315.88,-137.88 232.38,-137.88 232.38,-118.62 315.88,-118.62 315.88,-137.88"/>
<text xml:space="preserve" text-anchor="middle" x="274.12" y="-124.38" font-family="Helvetica,sans-Serif" font-size="10.00">MonoBehaviour</text>
</a>
</g>
</g>
<!-- Node2&#45;&gt;Node1 -->
<g id="edge1_Node000001_Node000002" class="edge">
<title>Node2&#45;&gt;Node1</title>
<g id="a_edge1_Node000001_Node000002"><a xlink:title=" ">
<path fill="none" stroke="#63b8ff" d="M327.38,-117.42C354.64,-111.77 388.24,-104.81 417.21,-98.81"/>
<polygon fill="#63b8ff" stroke="#63b8ff" points="326.68,-113.99 317.6,-119.45 328.1,-120.85 326.68,-113.99"/>
</a>
</g>
</g>
<!-- Node3 -->
<g id="Node000003" class="node">
<title>Node3</title>
<g id="a_Node000003"><a xlink:href="interface_balloon_party_1_1_balloon_1_1_type_1_1_i_balloon_variant.html" target="_top" xlink:title=" ">
<polygon fill="white" stroke="#666666" points="340.25,-100.5 208,-100.5 208,-70 340.25,-70 340.25,-100.5"/>
<text xml:space="preserve" text-anchor="start" x="216" y="-87" font-family="Helvetica,sans-Serif" font-size="10.00">BalloonParty.Balloon.Type.</text>
<text xml:space="preserve" text-anchor="middle" x="274.12" y="-75.75" font-family="Helvetica,sans-Serif" font-size="10.00">IBalloonVariant</text>
</a>
</g>
</g>
<!-- Node3&#45;&gt;Node1 -->
<g id="edge2_Node000001_Node000003" class="edge">
<title>Node3&#45;&gt;Node1</title>
<g id="a_edge2_Node000001_Node000003"><a xlink:title=" ">
<path fill="none" stroke="#63b8ff" d="M351.89,-85.25C373.36,-85.25 396.48,-85.25 417.23,-85.25"/>
<polygon fill="#63b8ff" stroke="#63b8ff" points="352.01,-81.75 342.01,-85.25 352.01,-88.75 352.01,-81.75"/>
</a>
</g>
</g>
<!-- Node4 -->
<g id="Node000004" class="node">
<title>Node4</title>
<g id="a_Node000004"><a xlink:href="class_balloon_party_1_1_configuration_1_1_game_palette.html" target="_top" xlink:title=" ">
<polygon fill="white" stroke="#666666" points="341,-51.5 207.25,-51.5 207.25,-21 341,-21 341,-51.5"/>
<text xml:space="preserve" text-anchor="start" x="215.25" y="-38" font-family="Helvetica,sans-Serif" font-size="10.00">BalloonParty.Configuration.</text>
<text xml:space="preserve" text-anchor="middle" x="274.12" y="-26.75" font-family="Helvetica,sans-Serif" font-size="10.00">GamePalette</text>
</a>
</g>
</g>
<!-- Node4&#45;&gt;Node1 -->
<g id="edge3_Node000001_Node000004" class="edge">
<title>Node4&#45;&gt;Node1</title>
<g id="a_edge3_Node000001_Node000004"><a xlink:title=" ">
<path fill="none" stroke="#9a32cd" stroke-dasharray="5,2" d="M352.56,-53.14C368.13,-56.64 384.35,-60.37 399.5,-64 406.89,-65.77 414.63,-67.68 422.3,-69.6"/>
<polygon fill="#9a32cd" stroke="#9a32cd" points="353.37,-49.74 342.85,-50.97 351.84,-56.57 353.37,-49.74"/>
</a>
</g>
<text xml:space="preserve" text-anchor="start" x="362" y="-70" font-family="Helvetica,sans-Serif" font-size="10.00" fill="grey">_palette</text>
</g>
<!-- Node5 -->
<g id="Node000005" class="node">
<title>Node5</title>
<g id="a_Node000005"><a xlink:title=" ">
<polygon fill="white" stroke="#666666" points="110.88,-67.88 22.88,-67.88 22.88,-48.62 110.88,-48.62 110.88,-67.88"/>
<text xml:space="preserve" text-anchor="middle" x="66.88" y="-54.38" font-family="Helvetica,sans-Serif" font-size="10.00">ScriptableObject</text>
</a>
</g>
</g>
<!-- Node5&#45;&gt;Node4 -->
<g id="edge4_Node000004_Node000005" class="edge">
<title>Node5&#45;&gt;Node4</title>
<g id="a_edge4_Node000004_Node000005"><a xlink:title=" ">
<path fill="none" stroke="#63b8ff" d="M122.09,-52.44C148.17,-49.64 179.65,-46.27 207.11,-43.33"/>
<polygon fill="#63b8ff" stroke="#63b8ff" points="121.98,-48.93 112.41,-53.48 122.72,-55.89 121.98,-48.93"/>
</a>
</g>
</g>
<!-- Node6 -->
<g id="Node000006" class="node">
<title>Node6</title>
<g id="a_Node000006"><a xlink:href="class_balloon_party_1_1_configuration_1_1_palette_entry.html" target="_top" xlink:title=" ">
<polygon fill="white" stroke="#666666" points="133.75,-30.5 0,-30.5 0,0 133.75,0 133.75,-30.5"/>
<text xml:space="preserve" text-anchor="start" x="8" y="-17" font-family="Helvetica,sans-Serif" font-size="10.00">BalloonParty.Configuration.</text>
<text xml:space="preserve" text-anchor="middle" x="66.88" y="-5.75" font-family="Helvetica,sans-Serif" font-size="10.00">PaletteEntry</text>
</a>
</g>
</g>
<!-- Node6&#45;&gt;Node4 -->
<g id="edge5_Node000004_Node000006" class="edge">
<title>Node6&#45;&gt;Node4</title>
<g id="a_edge5_Node000004_Node000006"><a xlink:title=" ">
<path fill="none" stroke="#9a32cd" stroke-dasharray="5,2" d="M145.11,-22.57C159.77,-24.01 174.99,-25.52 189.25,-27 195.08,-27.6 201.13,-28.24 207.2,-28.9"/>
<polygon fill="#9a32cd" stroke="#9a32cd" points="145.83,-19.12 135.54,-21.64 145.15,-26.09 145.83,-19.12"/>
</a>
</g>
<text xml:space="preserve" text-anchor="start" x="154.75" y="-33" font-family="Helvetica,sans-Serif" font-size="10.00" fill="grey">_colors</text>
</g>
</g>
</svg>
