<?xml version="1.0" encoding="UTF-8" standalone="no"?>
<!DOCTYPE svg PUBLIC "-//W3C//DTD SVG 1.1//EN"
 "http://www.w3.org/Graphics/SVG/1.1/DTD/svg11.dtd">
<!-- Generated by graphviz version 15.0.0 (20260523.1842)
 -->
<!-- Title: BalloonParty.Editor.ChainLightningViewEditor Pages: 1 -->
<svg width="616pt" height="137pt"
 viewBox="0.00 0.00 616.00 137.00" xmlns="http://www.w3.org/2000/svg" xmlns:xlink="http://www.w3.org/1999/xlink">
<g id="graph0" class="graph" transform="scale(1 1) rotate(0) translate(4 132.5)">
<title>BalloonParty.Editor.ChainLightningViewEditor</title>
<!-- Node1 -->
<g id="Node000001" class="node">
<title>Node1</title>
<g id="a_Node000001"><a xlink:title=" ">
<polygon fill="#999999" stroke="#666666" points="608.25,-101.5 482,-101.5 482,-71 608.25,-71 608.25,-101.5"/>
<text xml:space="preserve" text-anchor="start" x="490" y="-88" font-family="Helvetica,sans-Serif" font-size="10.00">BalloonParty.Editor.Chain</text>
<text xml:space="preserve" text-anchor="middle" x="545.12" y="-76.75" font-family="Helvetica,sans-Serif" font-size="10.00">LightningViewEditor</text>
</a>
</g>
</g>
<!-- Node2 -->
<g id="Node000002" class="node">
<title>Node2</title>
<g id="a_Node000002"><a xlink:title=" ">
<polygon fill="white" stroke="#666666" points="373.25,-116.88 280,-116.88 280,-97.62 373.25,-97.62 373.25,-116.88"/>
<text xml:space="preserve" text-anchor="middle" x="326.62" y="-103.38" font-family="Helvetica,sans-Serif" font-size="10.00">NaughtyInspector</text>
</a>
</g>
</g>
<!-- Node2&#45;&gt;Node1 -->
<g id="edge1_Node000001_Node000002" class="edge">
<title>Node2&#45;&gt;Node1</title>
<g id="a_edge1_Node000001_Node000002"><a xlink:title=" ">
<path fill="none" stroke="#63b8ff" d="M384.64,-101.72C414.54,-98.82 451.21,-95.26 481.85,-92.29"/>
<polygon fill="#63b8ff" stroke="#63b8ff" points="384.66,-98.2 375.05,-102.65 385.34,-105.17 384.66,-98.2"/>
</a>
</g>
</g>
<!-- Node3 -->
<g id="Node000003" class="node">
<title>Node3</title>
<g id="a_Node000003"><a xlink:href="class_balloon_party_1_1_editor_1_1_effect_preview_1_1_effect_view_preview_player.html" target="_top" xlink:title="Reusable editor preview player for Shared.Pool.EffectView subclasses.">
<polygon fill="white" stroke="#666666" points="408.5,-79.5 244.75,-79.5 244.75,-49 408.5,-49 408.5,-79.5"/>
<text xml:space="preserve" text-anchor="start" x="252.75" y="-66" font-family="Helvetica,sans-Serif" font-size="10.00">BalloonParty.Editor.Effect</text>
<text xml:space="preserve" text-anchor="middle" x="326.62" y="-54.75" font-family="Helvetica,sans-Serif" font-size="10.00">Preview.EffectViewPreviewPlayer</text>
</a>
</g>
</g>
<!-- Node3&#45;&gt;Node1 -->
<g id="edge2_Node000001_Node000003" class="edge">
<title>Node3&#45;&gt;Node1</title>
<g id="a_edge2_Node000001_Node000003"><a xlink:title=" ">
<path fill="none" stroke="#9a32cd" stroke-dasharray="5,2" d="M420.05,-68.93C434.77,-70.03 449.82,-71.38 464,-73 469.74,-73.66 475.7,-74.44 481.66,-75.3"/>
<polygon fill="#9a32cd" stroke="#9a32cd" points="420.6,-65.46 410.38,-68.24 420.1,-72.44 420.6,-65.46"/>
</a>
</g>
<text xml:space="preserve" text-anchor="start" x="429.5" y="-79" font-family="Helvetica,sans-Serif" font-size="10.00" fill="grey">_player</text>
</g>
<!-- Node4 -->
<g id="Node000004" class="node">
<title>Node4</title>
<g id="a_Node000004"><a xlink:href="class_balloon_party_1_1_editor_1_1_editor_u_i_1_1_editor_animation_loop.html" target="_top" xlink:title="Manages a play/pause/stop animation loop driven by EditorApplication.update.">
<polygon fill="white" stroke="#666666" points="137.5,-128.5 11.25,-128.5 11.25,-98 137.5,-98 137.5,-128.5"/>
<text xml:space="preserve" text-anchor="start" x="19.25" y="-115" font-family="Helvetica,sans-Serif" font-size="10.00">BalloonParty.Editor.Editor</text>
<text xml:space="preserve" text-anchor="middle" x="74.38" y="-103.75" font-family="Helvetica,sans-Serif" font-size="10.00">UI.EditorAnimationLoop</text>
</a>
</g>
</g>
<!-- Node4&#45;&gt;Node3 -->
<g id="edge3_Node000003_Node000004" class="edge">
<title>Node4&#45;&gt;Node3</title>
<g id="a_edge3_Node000003_Node000004"><a xlink:title=" ">
<path fill="none" stroke="#9a32cd" stroke-dasharray="5,2" d="M148.83,-100.07C173.61,-95.51 201.4,-90.28 226.75,-85.25 235.18,-83.57 244.01,-81.77 252.77,-79.95"/>
<polygon fill="#9a32cd" stroke="#9a32cd" points="148.37,-96.59 139.17,-101.83 149.63,-103.48 148.37,-96.59"/>
</a>
</g>
<text xml:space="preserve" text-anchor="start" x="173.12" y="-102.41" font-family="Helvetica,sans-Serif" font-size="10.00" fill="grey">_animLoop</text>
</g>
<!-- Node5 -->
<g id="Node000005" class="node">
<title>Node5</title>
<g id="a_Node000005"><a xlink:href="class_balloon_party_1_1_editor_1_1_editor_u_i_1_1_palette_color_picker.html" target="_top" xlink:title="Reusable palette color picker and swatch drawing for editor UI.">
<polygon fill="white" stroke="#666666" points="137.5,-79.5 11.25,-79.5 11.25,-49 137.5,-49 137.5,-79.5"/>
<text xml:space="preserve" text-anchor="start" x="19.25" y="-66" font-family="Helvetica,sans-Serif" font-size="10.00">BalloonParty.Editor.Editor</text>
<text xml:space="preserve" text-anchor="middle" x="74.38" y="-54.75" font-family="Helvetica,sans-Serif" font-size="10.00">UI.PaletteColorPicker</text>
</a>
</g>
</g>
<!-- Node5&#45;&gt;Node3 -->
<g id="edge4_Node000003_Node000005" class="edge">
<title>Node5&#45;&gt;Node3</title>
<g id="a_edge4_Node000003_Node000005"><a xlink:title=" ">
<path fill="none" stroke="#9a32cd" stroke-dasharray="5,2" d="M149.12,-64.25C179.11,-64.25 213.86,-64.25 244.56,-64.25"/>
<polygon fill="#9a32cd" stroke="#9a32cd" points="149.39,-60.75 139.39,-64.25 149.39,-67.75 149.39,-60.75"/>
</a>
</g>
<text xml:space="preserve" text-anchor="start" x="169.75" y="-70.25" font-family="Helvetica,sans-Serif" font-size="10.00" fill="grey">_colorPicker</text>
</g>
<!-- Node6 -->
<g id="Node000006" class="node">
<title>Node6</title>
<g id="a_Node000006"><a xlink:href="interface_balloon_party_1_1_editor_1_1_effect_preview_1_1_i_effect_preview_module.html" target="_top" xlink:title="Pluggable preview module for EffectViewPreviewPlayer.">
<polygon fill="white" stroke="#666666" points="148.75,-30.5 0,-30.5 0,0 148.75,0 148.75,-30.5"/>
<text xml:space="preserve" text-anchor="start" x="8" y="-17" font-family="Helvetica,sans-Serif" font-size="10.00">BalloonParty.Editor.Effect</text>
<text xml:space="preserve" text-anchor="middle" x="74.38" y="-5.75" font-family="Helvetica,sans-Serif" font-size="10.00">Preview.IEffectPreviewModule</text>
</a>
</g>
</g>
<!-- Node6&#45;&gt;Node3 -->
<g id="edge5_Node000003_Node000006" class="edge">
<title>Node6&#45;&gt;Node3</title>
<g id="a_edge5_Node000003_Node000006"><a xlink:title=" ">
<path fill="none" stroke="#9a32cd" stroke-dasharray="5,2" d="M160.19,-30.33C181.91,-34.32 205.22,-38.71 226.75,-43 235.45,-44.73 244.56,-46.61 253.59,-48.5"/>
<polygon fill="#9a32cd" stroke="#9a32cd" points="160.94,-26.91 150.48,-28.55 159.69,-33.8 160.94,-26.91"/>
</a>
</g>
<text xml:space="preserve" text-anchor="start" x="178.38" y="-49" font-family="Helvetica,sans-Serif" font-size="10.00" fill="grey">_module</text>
</g>
</g>
</svg>
