<?xml version="1.0" encoding="UTF-8" standalone="no"?>
<!DOCTYPE svg PUBLIC "-//W3C//DTD SVG 1.1//EN"
 "http://www.w3.org/Graphics/SVG/1.1/DTD/svg11.dtd">
<!-- Generated by graphviz version 15.0.0 (20260523.1842)
 -->
<!-- Title: BalloonParty.Shared.GameState.SceneTransition Pages: 1 -->
<svg width="268pt" height="122pt"
 viewBox="0.00 0.00 268.00 122.00" xmlns="http://www.w3.org/2000/svg" xmlns:xlink="http://www.w3.org/1999/xlink">
<g id="graph0" class="graph" transform="scale(1 1) rotate(0) translate(4 118.25)">
<title>BalloonParty.Shared.GameState.SceneTransition</title>
<!-- Node1 -->
<g id="Node000001" class="node">
<title>Node1</title>
<g id="a_Node000001"><a xlink:title="General&#45;purpose scene transition component.">
<polygon fill="#999999" stroke="#666666" points="177.25,-30.5 44.25,-30.5 44.25,0 177.25,0 177.25,-30.5"/>
<text xml:space="preserve" text-anchor="start" x="52.25" y="-17" font-family="Helvetica,sans-Serif" font-size="10.00">BalloonParty.Shared.Game</text>
<text xml:space="preserve" text-anchor="middle" x="110.75" y="-5.75" font-family="Helvetica,sans-Serif" font-size="10.00">State.SceneTransition</text>
</a>
</g>
</g>
<!-- Node2 -->
<g id="Node000002" class="node">
<title>Node2</title>
<g id="a_Node000002"><a xlink:title=" ">
<polygon fill="white" stroke="#666666" points="83.5,-108.62 0,-108.62 0,-89.38 83.5,-89.38 83.5,-108.62"/>
<text xml:space="preserve" text-anchor="middle" x="41.75" y="-95.12" font-family="Helvetica,sans-Serif" font-size="10.00">MonoBehaviour</text>
</a>
</g>
</g>
<!-- Node2&#45;&gt;Node1 -->
<g id="edge1_Node000001_Node000002" class="edge">
<title>Node2&#45;&gt;Node1</title>
<g id="a_edge1_Node000001_Node000002"><a xlink:title=" ">
<path fill="none" stroke="#63b8ff" d="M56.75,-80.23C69.22,-65.45 86.75,-44.68 98.42,-30.86"/>
<polygon fill="#63b8ff" stroke="#63b8ff" points="54.15,-77.88 50.37,-87.78 59.5,-82.4 54.15,-77.88"/>
</a>
</g>
</g>
<!-- Node3 -->
<g id="Node000003" class="node">
<title>Node3</title>
<g id="a_Node000003"><a xlink:href="class_balloon_party_1_1_shared_1_1_extensions_1_1_scene_rendering_handle.html" target="_top" xlink:title=" ">
<polygon fill="white" stroke="#666666" points="260,-114.25 101.5,-114.25 101.5,-83.75 260,-83.75 260,-114.25"/>
<text xml:space="preserve" text-anchor="start" x="109.5" y="-100.75" font-family="Helvetica,sans-Serif" font-size="10.00">BalloonParty.Shared.Extensions.</text>
<text xml:space="preserve" text-anchor="middle" x="180.75" y="-89.5" font-family="Helvetica,sans-Serif" font-size="10.00">SceneRenderingHandle</text>
</a>
</g>
</g>
<!-- Node3&#45;&gt;Node1 -->
<g id="edge2_Node000001_Node000003" class="edge">
<title>Node3&#45;&gt;Node1</title>
<g id="a_edge2_Node000001_Node000003"><a xlink:title=" ">
<path fill="none" stroke="#9a32cd" stroke-dasharray="5,2" d="M160.78,-74.68C148.66,-60.53 133.58,-42.91 123.16,-30.74"/>
<polygon fill="#9a32cd" stroke="#9a32cd" points="158.09,-76.92 167.25,-82.24 163.41,-72.36 158.09,-76.92"/>
</a>
</g>
<text xml:space="preserve" text-anchor="start" x="155.02" y="-54.5" font-family="Helvetica,sans-Serif" font-size="10.00" fill="grey">_renderingHandle</text>
</g>
</g>
</svg>
