<?xml version="1.0" encoding="UTF-8" standalone="no"?>
<!DOCTYPE svg PUBLIC "-//W3C//DTD SVG 1.1//EN"
 "http://www.w3.org/Graphics/SVG/1.1/DTD/svg11.dtd">
<!-- Generated by graphviz version 15.0.0 (20260523.1842)
 -->
<!-- Title: BalloonParty.Configuration.GamePalette Pages: 1 -->
<svg width="349pt" height="125pt"
 viewBox="0.00 0.00 349.00 125.00" xmlns="http://www.w3.org/2000/svg" xmlns:xlink="http://www.w3.org/1999/xlink">
<g id="graph0" class="graph" transform="scale(1 1) rotate(0) translate(4 120.88)">
<title>BalloonParty.Configuration.GamePalette</title>
<!-- Node1 -->
<g id="Node000001" class="node">
<title>Node1</title>
<g id="a_Node000001"><a xlink:title=" ">
<polygon fill="#999999" stroke="#666666" points="341,-79.5 207.25,-79.5 207.25,-49 341,-49 341,-79.5"/>
<text xml:space="preserve" text-anchor="start" x="215.25" y="-66" font-family="Helvetica,sans-Serif" font-size="10.00">BalloonParty.Configuration.</text>
<text xml:space="preserve" text-anchor="middle" x="274.12" y="-54.75" font-family="Helvetica,sans-Serif" font-size="10.00">GamePalette</text>
</a>
</g>
</g>
<!-- Node2 -->
<g id="Node000002" class="node">
<title>Node2</title>
<g id="a_Node000002"><a xlink:title=" ">
<polygon fill="white" stroke="#666666" points="110.88,-116.88 22.88,-116.88 22.88,-97.62 110.88,-97.62 110.88,-116.88"/>
<text xml:space="preserve" text-anchor="middle" x="66.88" y="-103.38" font-family="Helvetica,sans-Serif" font-size="10.00">ScriptableObject</text>
</a>
</g>
</g>
<!-- Node2&#45;&gt;Node1 -->
<g id="edge1_Node000001_Node000002" class="edge">
<title>Node2&#45;&gt;Node1</title>
<g id="a_edge1_Node000001_Node000002"><a xlink:title=" ">
<path fill="none" stroke="#63b8ff" d="M122.09,-95.89C148.17,-90.43 179.65,-83.83 207.11,-78.08"/>
<polygon fill="#63b8ff" stroke="#63b8ff" points="121.45,-92.45 112.38,-97.93 122.89,-99.3 121.45,-92.45"/>
</a>
</g>
</g>
<!-- Node3 -->
<g id="Node000003" class="node">
<title>Node3</title>
<g id="a_Node000003"><a xlink:href="interface_balloon_party_1_1_configuration_1_1_i_game_palette.html" target="_top" xlink:title=" ">
<polygon fill="white" stroke="#666666" points="133.75,-79.5 0,-79.5 0,-49 133.75,-49 133.75,-79.5"/>
<text xml:space="preserve" text-anchor="start" x="8" y="-66" font-family="Helvetica,sans-Serif" font-size="10.00">BalloonParty.Configuration.</text>
<text xml:space="preserve" text-anchor="middle" x="66.88" y="-54.75" font-family="Helvetica,sans-Serif" font-size="10.00">IGamePalette</text>
</a>
</g>
</g>
<!-- Node3&#45;&gt;Node1 -->
<g id="edge2_Node000001_Node000003" class="edge">
<title>Node3&#45;&gt;Node1</title>
<g id="a_edge2_Node000001_Node000003"><a xlink:title=" ">
<path fill="none" stroke="#63b8ff" d="M145.63,-64.25C165.85,-64.25 187.44,-64.25 207,-64.25"/>
<polygon fill="#63b8ff" stroke="#63b8ff" points="145.74,-60.75 135.74,-64.25 145.74,-67.75 145.74,-60.75"/>
</a>
</g>
</g>
<!-- Node4 -->
<g id="Node000004" class="node">
<title>Node4</title>
<g id="a_Node000004"><a xlink:href="class_balloon_party_1_1_configuration_1_1_palette_entry.html" target="_top" xlink:title=" ">
<polygon fill="white" stroke="#666666" points="133.75,-30.5 0,-30.5 0,0 133.75,0 133.75,-30.5"/>
<text xml:space="preserve" text-anchor="start" x="8" y="-17" font-family="Helvetica,sans-Serif" font-size="10.00">BalloonParty.Configuration.</text>
<text xml:space="preserve" text-anchor="middle" x="66.88" y="-5.75" font-family="Helvetica,sans-Serif" font-size="10.00">PaletteEntry</text>
</a>
</g>
</g>
<!-- Node4&#45;&gt;Node1 -->
<g id="edge3_Node000001_Node000004" class="edge">
<title>Node4&#45;&gt;Node1</title>
<g id="a_edge3_Node000001_Node000004"><a xlink:title=" ">
<path fill="none" stroke="#9a32cd" stroke-dasharray="5,2" d="M145.16,-32.64C159.82,-36.01 175.02,-39.57 189.25,-43 196.55,-44.76 204.2,-46.64 211.78,-48.53"/>
<polygon fill="#9a32cd" stroke="#9a32cd" points="146.09,-29.26 135.56,-30.43 144.52,-36.08 146.09,-29.26"/>
</a>
</g>
<text xml:space="preserve" text-anchor="start" x="154.75" y="-49" font-family="Helvetica,sans-Serif" font-size="10.00" fill="grey">_colors</text>
</g>
</g>
</svg>
