<?xml version="1.0" encoding="UTF-8" standalone="no"?>
<!DOCTYPE svg PUBLIC "-//W3C//DTD SVG 1.1//EN"
 "http://www.w3.org/Graphics/SVG/1.1/DTD/svg11.dtd">
<!-- Generated by graphviz version 15.0.0 (20260523.1842)
 -->
<!-- Title: BalloonParty.UI.LevelUp.LevelUpPopUp Pages: 1 -->
<svg width="826pt" height="432pt"
 viewBox="0.00 0.00 826.00 432.00" xmlns="http://www.w3.org/2000/svg" xmlns:xlink="http://www.w3.org/1999/xlink">
<g id="graph0" class="graph" transform="scale(1 1) rotate(0) translate(4 427.75)">
<title>BalloonParty.UI.LevelUp.LevelUpPopUp</title>
<!-- Node1 -->
<g id="Node000001" class="node">
<title>Node1</title>
<g id="a_Node000001"><a xlink:title=" ">
<polygon fill="#999999" stroke="#666666" points="818,-337.5 692.5,-337.5 692.5,-307 818,-307 818,-337.5"/>
<text xml:space="preserve" text-anchor="start" x="700.5" y="-324" font-family="Helvetica,sans-Serif" font-size="10.00">BalloonParty.UI.LevelUp.</text>
<text xml:space="preserve" text-anchor="middle" x="755.25" y="-312.75" font-family="Helvetica,sans-Serif" font-size="10.00">LevelUpPopUp</text>
</a>
</g>
</g>
<!-- Node2 -->
<g id="Node000002" class="node">
<title>Node2</title>
<g id="a_Node000002"><a xlink:title=" ">
<polygon fill="white" stroke="#666666" points="106.38,-247.88 22.88,-247.88 22.88,-228.62 106.38,-228.62 106.38,-247.88"/>
<text xml:space="preserve" text-anchor="middle" x="64.62" y="-234.38" font-family="Helvetica,sans-Serif" font-size="10.00">MonoBehaviour</text>
</a>
</g>
</g>
<!-- Node2&#45;&gt;Node1 -->
<g id="edge1_Node000001_Node000002" class="edge">
<title>Node2&#45;&gt;Node1</title>
<g id="a_edge1_Node000001_Node000002"><a xlink:title=" ">
<path fill="none" stroke="#63b8ff" d="M76.93,-257.9C93.16,-284.22 125.64,-330.39 166.25,-354.25 261.77,-410.37 300.05,-393.86 410.25,-405.25 527.14,-417.34 567.05,-443.82 674.5,-396.25 703.52,-383.41 728.79,-355.55 742.74,-337.92"/>
<polygon fill="#63b8ff" stroke="#63b8ff" points="80.08,-256.34 71.94,-249.55 74.07,-259.93 80.08,-256.34"/>
</a>
</g>
</g>
<!-- Node14 -->
<g id="Node000014" class="node">
<title>Node14</title>
<g id="a_Node000014"><a xlink:href="class_balloon_party_1_1_u_i_1_1_score_1_1_flying_trail.html" target="_top" xlink:title=" ">
<polygon fill="white" stroke="#666666" points="307.5,-30.5 166.25,-30.5 166.25,0 307.5,0 307.5,-30.5"/>
<text xml:space="preserve" text-anchor="start" x="174.25" y="-17" font-family="Helvetica,sans-Serif" font-size="10.00">BalloonParty.UI.Score.Flying</text>
<text xml:space="preserve" text-anchor="middle" x="236.88" y="-5.75" font-family="Helvetica,sans-Serif" font-size="10.00">Trail</text>
</a>
</g>
</g>
<!-- Node2&#45;&gt;Node14 -->
<g id="edge15_Node000014_Node000002" class="edge">
<title>Node2&#45;&gt;Node14</title>
<g id="a_edge15_Node000014_Node000002"><a xlink:title=" ">
<path fill="none" stroke="#63b8ff" d="M70.68,-217.44C81.43,-177.49 110.28,-89.6 166.25,-40.25 170.3,-36.68 174.89,-33.61 179.74,-30.97"/>
<polygon fill="#63b8ff" stroke="#63b8ff" points="67.34,-216.4 68.24,-226.95 74.12,-218.13 67.34,-216.4"/>
</a>
</g>
</g>
<!-- Node3 -->
<g id="Node000003" class="node">
<title>Node3</title>
<g id="a_Node000003"><a xlink:href="interface_balloon_party_1_1_shared_1_1_i_ready_gate.html" target="_top" xlink:title="Blocks a caller until some external condition allows it to proceed.">
<polygon fill="white" stroke="#666666" points="569.5,-395.88 410.25,-395.88 410.25,-376.62 569.5,-376.62 569.5,-395.88"/>
<text xml:space="preserve" text-anchor="middle" x="489.88" y="-382.38" font-family="Helvetica,sans-Serif" font-size="10.00">BalloonParty.Shared.IReadyGate</text>
</a>
</g>
</g>
<!-- Node3&#45;&gt;Node1 -->
<g id="edge2_Node000001_Node000003" class="edge">
<title>Node3&#45;&gt;Node1</title>
<g id="a_edge2_Node000001_Node000003"><a xlink:title=" ">
<path fill="none" stroke="#9a32cd" stroke-dasharray="5,2" d="M581.3,-375.9C611.31,-371.3 644.65,-364.91 674.5,-356.25 690.69,-351.55 707.98,-344.46 722.3,-337.96"/>
<polygon fill="#9a32cd" stroke="#9a32cd" points="580.86,-372.43 571.48,-377.36 581.89,-379.35 580.86,-372.43"/>
</a>
</g>
<text xml:space="preserve" text-anchor="start" x="619" y="-380.54" font-family="Helvetica,sans-Serif" font-size="10.00" fill="grey">_gate</text>
</g>
<!-- Node4 -->
<g id="Node000004" class="node">
<title>Node4</title>
<g id="a_Node000004"><a xlink:href="class_balloon_party_1_1_shared_1_1_pause_1_1_pause_service.html" target="_top" xlink:title="Central coordinator for gameplay pause states.">
<polygon fill="white" stroke="#666666" points="558.62,-358.5 421.12,-358.5 421.12,-328 558.62,-328 558.62,-358.5"/>
<text xml:space="preserve" text-anchor="start" x="429.12" y="-345" font-family="Helvetica,sans-Serif" font-size="10.00">BalloonParty.Shared.Pause.</text>
<text xml:space="preserve" text-anchor="middle" x="489.88" y="-333.75" font-family="Helvetica,sans-Serif" font-size="10.00">PauseService</text>
</a>
</g>
</g>
<!-- Node4&#45;&gt;Node1 -->
<g id="edge3_Node000001_Node000004" class="edge">
<title>Node4&#45;&gt;Node1</title>
<g id="a_edge3_Node000001_Node000004"><a xlink:title=" ">
<path fill="none" stroke="#9a32cd" stroke-dasharray="5,2" d="M570.38,-336.91C609.45,-333.8 655.82,-330.1 692.23,-327.2"/>
<polygon fill="#9a32cd" stroke="#9a32cd" points="570.24,-333.41 560.55,-337.69 570.8,-340.39 570.24,-333.41"/>
</a>
</g>
<text xml:space="preserve" text-anchor="start" x="598.75" y="-341.25" font-family="Helvetica,sans-Serif" font-size="10.00" fill="grey">_pauseService</text>
</g>
<!-- Node5 -->
<g id="Node000005" class="node">
<title>Node5</title>
<g id="a_Node000005"><a xlink:href="class_balloon_party_1_1_configuration_1_1_game_palette.html" target="_top" xlink:title=" ">
<polygon fill="white" stroke="#666666" points="556.75,-309.5 423,-309.5 423,-279 556.75,-279 556.75,-309.5"/>
<text xml:space="preserve" text-anchor="start" x="431" y="-296" font-family="Helvetica,sans-Serif" font-size="10.00">BalloonParty.Configuration.</text>
<text xml:space="preserve" text-anchor="middle" x="489.88" y="-284.75" font-family="Helvetica,sans-Serif" font-size="10.00">GamePalette</text>
</a>
</g>
</g>
<!-- Node5&#45;&gt;Node1 -->
<g id="edge4_Node000001_Node000005" class="edge">
<title>Node5&#45;&gt;Node1</title>
<g id="a_edge4_Node000001_Node000005"><a xlink:title=" ">
<path fill="none" stroke="#9a32cd" stroke-dasharray="5,2" d="M568.26,-298.29C601.1,-300.45 639.75,-303.61 674.5,-308 680.22,-308.72 686.16,-309.58 692.09,-310.51"/>
<polygon fill="#9a32cd" stroke="#9a32cd" points="568.62,-294.8 558.41,-297.66 568.17,-301.79 568.62,-294.8"/>
</a>
</g>
<text xml:space="preserve" text-anchor="start" x="613.75" y="-314" font-family="Helvetica,sans-Serif" font-size="10.00" fill="grey">_palette</text>
</g>
<!-- Node6 -->
<g id="Node000006" class="node">
<title>Node6</title>
<g id="a_Node000006"><a xlink:title=" ">
<polygon fill="white" stroke="#666666" points="280.88,-344.88 192.88,-344.88 192.88,-325.62 280.88,-325.62 280.88,-344.88"/>
<text xml:space="preserve" text-anchor="middle" x="236.88" y="-331.38" font-family="Helvetica,sans-Serif" font-size="10.00">ScriptableObject</text>
</a>
</g>
</g>
<!-- Node6&#45;&gt;Node5 -->
<g id="edge5_Node000005_Node000006" class="edge">
<title>Node6&#45;&gt;Node5</title>
<g id="a_edge5_Node000005_Node000006"><a xlink:title=" ">
<path fill="none" stroke="#63b8ff" d="M292.6,-328.74C322.18,-324.98 359.3,-319.89 392.25,-314.25 402.13,-312.56 412.54,-310.59 422.72,-308.57"/>
<polygon fill="#63b8ff" stroke="#63b8ff" points="292.24,-325.26 282.75,-329.97 293.11,-332.2 292.24,-325.26"/>
</a>
</g>
</g>
<!-- Node7 -->
<g id="Node000007" class="node">
<title>Node7</title>
<g id="a_Node000007"><a xlink:href="class_balloon_party_1_1_configuration_1_1_palette_entry.html" target="_top" xlink:title=" ">
<polygon fill="white" stroke="#666666" points="303.75,-307.5 170,-307.5 170,-277 303.75,-277 303.75,-307.5"/>
<text xml:space="preserve" text-anchor="start" x="178" y="-294" font-family="Helvetica,sans-Serif" font-size="10.00">BalloonParty.Configuration.</text>
<text xml:space="preserve" text-anchor="middle" x="236.88" y="-282.75" font-family="Helvetica,sans-Serif" font-size="10.00">PaletteEntry</text>
</a>
</g>
</g>
<!-- Node7&#45;&gt;Node5 -->
<g id="edge6_Node000005_Node000007" class="edge">
<title>Node7&#45;&gt;Node5</title>
<g id="a_edge6_Node000005_Node000007"><a xlink:title=" ">
<path fill="none" stroke="#9a32cd" stroke-dasharray="5,2" d="M315.55,-292.87C349.87,-293.14 389.79,-293.46 422.66,-293.72"/>
<polygon fill="#9a32cd" stroke="#9a32cd" points="315.69,-289.37 305.66,-292.79 315.64,-296.37 315.69,-289.37"/>
</a>
</g>
<text xml:space="preserve" text-anchor="start" x="343.12" y="-299.43" font-family="Helvetica,sans-Serif" font-size="10.00" fill="grey">_colors</text>
</g>
<!-- Node8 -->
<g id="Node000008" class="node">
<title>Node8</title>
<g id="a_Node000008"><a xlink:href="class_balloon_party_1_1_shared_1_1_pool_1_1_pool_manager.html" target="_top" xlink:title=" ">
<polygon fill="white" stroke="#666666" points="301.5,-256.5 172.25,-256.5 172.25,-226 301.5,-226 301.5,-256.5"/>
<text xml:space="preserve" text-anchor="start" x="180.25" y="-243" font-family="Helvetica,sans-Serif" font-size="10.00">BalloonParty.Shared.Pool.</text>
<text xml:space="preserve" text-anchor="middle" x="236.88" y="-231.75" font-family="Helvetica,sans-Serif" font-size="10.00">PoolManager</text>
</a>
</g>
</g>
<!-- Node8&#45;&gt;Node1 -->
<g id="edge7_Node000001_Node000008" class="edge">
<title>Node8&#45;&gt;Node1</title>
<g id="a_edge7_Node000001_Node000008"><a xlink:title=" ">
<path fill="none" stroke="#9a32cd" stroke-dasharray="5,2" d="M313.25,-237.06C380.99,-234.92 482.85,-235.7 569.5,-253 625.09,-264.1 686.02,-289.79 722.15,-306.57"/>
<polygon fill="#9a32cd" stroke="#9a32cd" points="313.23,-233.56 303.36,-237.41 313.47,-240.56 313.23,-233.56"/>
</a>
</g>
<text xml:space="preserve" text-anchor="start" x="459.5" y="-259" font-family="Helvetica,sans-Serif" font-size="10.00" fill="grey">_poolManager</text>
</g>
<!-- Node9 -->
<g id="Node000009" class="node">
<title>Node9</title>
<g id="a_Node000009"><a xlink:href="class_balloon_party_1_1_game_1_1_score_1_1_score_trail_service.html" target="_top" xlink:title=" ">
<polygon fill="white" stroke="#666666" points="555.25,-168.5 424.5,-168.5 424.5,-138 555.25,-138 555.25,-168.5"/>
<text xml:space="preserve" text-anchor="start" x="432.5" y="-155" font-family="Helvetica,sans-Serif" font-size="10.00">BalloonParty.Game.Score.</text>
<text xml:space="preserve" text-anchor="middle" x="489.88" y="-143.75" font-family="Helvetica,sans-Serif" font-size="10.00">ScoreTrailService</text>
</a>
</g>
</g>
<!-- Node8&#45;&gt;Node9 -->
<g id="edge13_Node000009_Node000008" class="edge">
<title>Node8&#45;&gt;Node9</title>
<g id="a_edge13_Node000009_Node000008"><a xlink:title=" ">
<path fill="none" stroke="#9a32cd" stroke-dasharray="5,2" d="M295.03,-221.88C324.17,-211.95 360.14,-199.58 392.25,-188.25 409.92,-182.02 429.35,-175.01 446.12,-168.91"/>
<polygon fill="#9a32cd" stroke="#9a32cd" points="293.99,-218.54 285.65,-225.08 296.25,-225.17 293.99,-218.54"/>
</a>
</g>
<text xml:space="preserve" text-anchor="start" x="328.5" y="-216.34" font-family="Helvetica,sans-Serif" font-size="10.00" fill="grey">_poolManager</text>
</g>
<!-- Node9&#45;&gt;Node1 -->
<g id="edge8_Node000001_Node000009" class="edge">
<title>Node9&#45;&gt;Node1</title>
<g id="a_edge8_Node000001_Node000009"><a xlink:title=" ">
<path fill="none" stroke="#9a32cd" stroke-dasharray="5,2" d="M566.12,-166C601.46,-174.69 642.69,-188.95 674.5,-212 709.51,-237.37 735.22,-282.81 747.03,-306.66"/>
<polygon fill="#9a32cd" stroke="#9a32cd" points="567.37,-162.7 556.84,-163.82 565.78,-169.51 567.37,-162.7"/>
</a>
</g>
<text xml:space="preserve" text-anchor="start" x="590.5" y="-218" font-family="Helvetica,sans-Serif" font-size="10.00" fill="grey">_scoreTrailService</text>
</g>
<!-- Node10 -->
<g id="Node000010" class="node">
<title>Node10</title>
<g id="a_Node000010"><a xlink:title=" ">
<polygon fill="white" stroke="#666666" points="265.88,-202.88 207.88,-202.88 207.88,-183.62 265.88,-183.62 265.88,-202.88"/>
<text xml:space="preserve" text-anchor="middle" x="236.88" y="-189.38" font-family="Helvetica,sans-Serif" font-size="10.00">IStartable</text>
</a>
</g>
</g>
<!-- Node10&#45;&gt;Node9 -->
<g id="edge9_Node000009_Node000010" class="edge">
<title>Node10&#45;&gt;Node9</title>
<g id="a_edge9_Node000009_Node000010"><a xlink:title=" ">
<path fill="none" stroke="#63b8ff" d="M277.41,-186.95C316.75,-180.68 377.78,-170.95 424.19,-163.56"/>
<polygon fill="#63b8ff" stroke="#63b8ff" points="277,-183.47 267.67,-188.5 278.1,-190.38 277,-183.47"/>
</a>
</g>
</g>
<!-- Node11 -->
<g id="Node000011" class="node">
<title>Node11</title>
<g id="a_Node000011"><a xlink:title=" ">
<polygon fill="white" stroke="#666666" points="270.75,-165.88 203,-165.88 203,-146.62 270.75,-146.62 270.75,-165.88"/>
<text xml:space="preserve" text-anchor="middle" x="236.88" y="-152.38" font-family="Helvetica,sans-Serif" font-size="10.00">IDisposable</text>
</a>
</g>
</g>
<!-- Node11&#45;&gt;Node9 -->
<g id="edge10_Node000009_Node000011" class="edge">
<title>Node11&#45;&gt;Node9</title>
<g id="a_edge10_Node000009_Node000011"><a xlink:title=" ">
<path fill="none" stroke="#63b8ff" d="M282.54,-155.72C321.91,-155.25 379.73,-154.55 424.16,-154.02"/>
<polygon fill="#63b8ff" stroke="#63b8ff" points="282.68,-152.21 272.72,-155.83 282.76,-159.21 282.68,-152.21"/>
</a>
</g>
</g>
<!-- Node12 -->
<g id="Node000012" class="node">
<title>Node12</title>
<g id="a_Node000012"><a xlink:href="interface_balloon_party_1_1_shared_1_1_i_game_configuration.html" target="_top" xlink:title=" ">
<polygon fill="white" stroke="#666666" points="304.88,-128.5 168.88,-128.5 168.88,-98 304.88,-98 304.88,-128.5"/>
<text xml:space="preserve" text-anchor="start" x="176.88" y="-115" font-family="Helvetica,sans-Serif" font-size="10.00">BalloonParty.Shared.IGame</text>
<text xml:space="preserve" text-anchor="middle" x="236.88" y="-103.75" font-family="Helvetica,sans-Serif" font-size="10.00">Configuration</text>
</a>
</g>
</g>
<!-- Node12&#45;&gt;Node9 -->
<g id="edge11_Node000009_Node000012" class="edge">
<title>Node12&#45;&gt;Node9</title>
<g id="a_edge11_Node000009_Node000012"><a xlink:title=" ">
<path fill="none" stroke="#9a32cd" stroke-dasharray="5,2" d="M316.64,-122.1C340.94,-125.16 367.75,-128.87 392.25,-133 402.56,-134.74 413.44,-136.8 424.04,-138.92"/>
<polygon fill="#9a32cd" stroke="#9a32cd" points="317.15,-118.64 306.8,-120.88 316.29,-125.59 317.15,-118.64"/>
</a>
</g>
<text xml:space="preserve" text-anchor="start" x="343.12" y="-139" font-family="Helvetica,sans-Serif" font-size="10.00" fill="grey">_config</text>
</g>
<!-- Node13 -->
<g id="Node000013" class="node">
<title>Node13</title>
<g id="a_Node000013"><a xlink:href="class_balloon_party_1_1_shared_1_1_pool_1_1_trail_flight_registry-1-g.html" target="_top" xlink:title="Central registry for all in&#45;flight trails.">
<polygon fill="white" stroke="#666666" points="301.5,-79.5 172.25,-79.5 172.25,-49 301.5,-49 301.5,-79.5"/>
<text xml:space="preserve" text-anchor="start" x="180.25" y="-66" font-family="Helvetica,sans-Serif" font-size="10.00">BalloonParty.Shared.Pool.</text>
<text xml:space="preserve" text-anchor="middle" x="236.88" y="-54.75" font-family="Helvetica,sans-Serif" font-size="10.00">TrailFlightRegistry&lt; TId &gt;</text>
</a>
</g>
</g>
<!-- Node13&#45;&gt;Node9 -->
<g id="edge12_Node000009_Node000013" class="edge">
<title>Node13&#45;&gt;Node9</title>
<g id="a_edge12_Node000009_Node000013"><a xlink:title=" ">
<path fill="none" stroke="#9a32cd" stroke-dasharray="5,2" d="M312.83,-78.65C338.44,-84.59 366.98,-92.38 392.25,-102 417.45,-111.59 444.42,-126.31 463.45,-137.52"/>
<polygon fill="#9a32cd" stroke="#9a32cd" points="313.67,-75.25 303.15,-76.46 312.13,-82.08 313.67,-75.25"/>
</a>
</g>
<text xml:space="preserve" text-anchor="start" x="343.12" y="-108" font-family="Helvetica,sans-Serif" font-size="10.00" fill="grey">_flights</text>
</g>
<!-- Node14&#45;&gt;Node9 -->
<g id="edge14_Node000009_Node000014" class="edge">
<title>Node14&#45;&gt;Node9</title>
<g id="a_edge14_Node000009_Node000014"><a xlink:title=" ">
<path fill="none" stroke="#9a32cd" stroke-dasharray="5,2" d="M318.45,-30.71C343.16,-37.49 369.74,-46.97 392.25,-60 427.76,-80.56 460.11,-116.93 476.87,-137.65"/>
<polygon fill="#9a32cd" stroke="#9a32cd" points="319.65,-27.41 309.09,-28.26 317.88,-34.18 319.65,-27.41"/>
</a>
</g>
<text xml:space="preserve" text-anchor="start" x="334.12" y="-66" font-family="Helvetica,sans-Serif" font-size="10.00" fill="grey">_trailPrefab</text>
</g>
<!-- Node15 -->
<g id="Node000015" class="node">
<title>Node15</title>
<g id="a_Node000015"><a xlink:href="interface_balloon_party_1_1_shared_1_1_pool_1_1_i_poolable.html" target="_top" xlink:title=" ">
<polygon fill="white" stroke="#666666" points="129.25,-30.5 0,-30.5 0,0 129.25,0 129.25,-30.5"/>
<text xml:space="preserve" text-anchor="start" x="8" y="-17" font-family="Helvetica,sans-Serif" font-size="10.00">BalloonParty.Shared.Pool.</text>
<text xml:space="preserve" text-anchor="middle" x="64.62" y="-5.75" font-family="Helvetica,sans-Serif" font-size="10.00">IPoolable</text>
</a>
</g>
</g>
<!-- Node15&#45;&gt;Node14 -->
<g id="edge16_Node000014_Node000015" class="edge">
<title>Node15&#45;&gt;Node14</title>
<g id="a_edge16_Node000014_Node000015"><a xlink:title=" ">
<path fill="none" stroke="#63b8ff" d="M140.79,-15.25C149.15,-15.25 157.64,-15.25 165.93,-15.25"/>
<polygon fill="#63b8ff" stroke="#63b8ff" points="141.02,-11.75 131.02,-15.25 141.02,-18.75 141.02,-11.75"/>
</a>
</g>
</g>
</g>
</svg>
