<?xml version="1.0" encoding="UTF-8" standalone="no"?>
<!DOCTYPE svg PUBLIC "-//W3C//DTD SVG 1.1//EN"
 "http://www.w3.org/Graphics/SVG/1.1/DTD/svg11.dtd">
<!-- Generated by graphviz version 15.0.0 (20260523.1842)
 -->
<!-- Title: BalloonParty.Projectile.View.ProjectileShieldView Pages: 1 -->
<svg width="820pt" height="288pt"
 viewBox="0.00 0.00 820.00 288.00" xmlns="http://www.w3.org/2000/svg" xmlns:xlink="http://www.w3.org/1999/xlink">
<g id="graph0" class="graph" transform="scale(1 1) rotate(0) translate(4 283.88)">
<title>BalloonParty.Projectile.View.ProjectileShieldView</title>
<!-- Node1 -->
<g id="Node000001" class="node">
<title>Node1</title>
<g id="a_Node000001"><a xlink:title=" ">
<polygon fill="#999999" stroke="#666666" points="812,-174.5 683.5,-174.5 683.5,-144 812,-144 812,-174.5"/>
<text xml:space="preserve" text-anchor="start" x="691.5" y="-161" font-family="Helvetica,sans-Serif" font-size="10.00">BalloonParty.Projectile.</text>
<text xml:space="preserve" text-anchor="middle" x="747.75" y="-149.75" font-family="Helvetica,sans-Serif" font-size="10.00">View.ProjectileShieldView</text>
</a>
</g>
</g>
<!-- Node2 -->
<g id="Node000002" class="node">
<title>Node2</title>
<g id="a_Node000002"><a xlink:title=" ">
<polygon fill="white" stroke="#666666" points="555.62,-279.88 472.12,-279.88 472.12,-260.62 555.62,-260.62 555.62,-279.88"/>
<text xml:space="preserve" text-anchor="middle" x="513.88" y="-266.38" font-family="Helvetica,sans-Serif" font-size="10.00">MonoBehaviour</text>
</a>
</g>
</g>
<!-- Node2&#45;&gt;Node1 -->
<g id="edge1_Node000001_Node000002" class="edge">
<title>Node2&#45;&gt;Node1</title>
<g id="a_edge1_Node000001_Node000002"><a xlink:title=" ">
<path fill="none" stroke="#63b8ff" d="M567.12,-261.98C597.13,-255.8 634.84,-245.55 665.5,-229.25 692.14,-215.1 717.6,-190.82 732.7,-174.91"/>
<polygon fill="#63b8ff" stroke="#63b8ff" points="566.65,-258.5 557.51,-263.86 568,-265.37 566.65,-258.5"/>
</a>
</g>
</g>
<!-- Node3 -->
<g id="Node000003" class="node">
<title>Node3</title>
<g id="a_Node000003"><a xlink:href="interface_balloon_party_1_1_configuration_1_1_i_game_palette.html" target="_top" xlink:title=" ">
<polygon fill="white" stroke="#666666" points="580.75,-242.5 447,-242.5 447,-212 580.75,-212 580.75,-242.5"/>
<text xml:space="preserve" text-anchor="start" x="455" y="-229" font-family="Helvetica,sans-Serif" font-size="10.00">BalloonParty.Configuration.</text>
<text xml:space="preserve" text-anchor="middle" x="513.88" y="-217.75" font-family="Helvetica,sans-Serif" font-size="10.00">IGamePalette</text>
</a>
</g>
</g>
<!-- Node3&#45;&gt;Node1 -->
<g id="edge2_Node000001_Node000003" class="edge">
<title>Node3&#45;&gt;Node1</title>
<g id="a_edge2_Node000001_Node000003"><a xlink:title=" ">
<path fill="none" stroke="#9a32cd" stroke-dasharray="5,2" d="M592.05,-210.23C615.78,-204.48 641.87,-197.63 665.5,-190.25 679.77,-185.79 695.15,-180.15 708.65,-174.9"/>
<polygon fill="#9a32cd" stroke="#9a32cd" points="591.36,-206.8 582.45,-212.53 592.99,-213.61 591.36,-206.8"/>
</a>
</g>
<text xml:space="preserve" text-anchor="start" x="614.88" y="-214.31" font-family="Helvetica,sans-Serif" font-size="10.00" fill="grey">_palette</text>
</g>
<!-- Node4 -->
<g id="Node000004" class="node">
<title>Node4</title>
<g id="a_Node000004"><a xlink:href="interface_balloon_party_1_1_shared_1_1_i_game_configuration.html" target="_top" xlink:title=" ">
<polygon fill="white" stroke="#666666" points="317.25,-184.5 181.25,-184.5 181.25,-154 317.25,-154 317.25,-184.5"/>
<text xml:space="preserve" text-anchor="start" x="189.25" y="-171" font-family="Helvetica,sans-Serif" font-size="10.00">BalloonParty.Shared.IGame</text>
<text xml:space="preserve" text-anchor="middle" x="249.25" y="-159.75" font-family="Helvetica,sans-Serif" font-size="10.00">Configuration</text>
</a>
</g>
</g>
<!-- Node4&#45;&gt;Node1 -->
<g id="edge3_Node000001_Node000004" class="edge">
<title>Node4&#45;&gt;Node1</title>
<g id="a_edge3_Node000001_Node000004"><a xlink:title=" ">
<path fill="none" stroke="#9a32cd" stroke-dasharray="5,2" d="M328.94,-168.39C412.46,-167.37 548.3,-165.4 665.5,-162.25 671.29,-162.09 677.3,-161.91 683.33,-161.71"/>
<polygon fill="#9a32cd" stroke="#9a32cd" points="328.98,-164.89 319.02,-168.51 329.06,-171.89 328.98,-164.89"/>
</a>
</g>
<text xml:space="preserve" text-anchor="start" x="498.12" y="-172.67" font-family="Helvetica,sans-Serif" font-size="10.00" fill="grey">_config</text>
</g>
<!-- Node6 -->
<g id="Node000006" class="node">
<title>Node6</title>
<g id="a_Node000006"><a xlink:href="class_balloon_party_1_1_slots_1_1_grid_1_1_slot_grid.html" target="_top" xlink:title=" ">
<polygon fill="white" stroke="#666666" points="573.62,-140.5 454.12,-140.5 454.12,-110 573.62,-110 573.62,-140.5"/>
<text xml:space="preserve" text-anchor="start" x="462.12" y="-127" font-family="Helvetica,sans-Serif" font-size="10.00">BalloonParty.Slots.Grid.</text>
<text xml:space="preserve" text-anchor="middle" x="513.88" y="-115.75" font-family="Helvetica,sans-Serif" font-size="10.00">SlotGrid</text>
</a>
</g>
</g>
<!-- Node4&#45;&gt;Node6 -->
<g id="edge8_Node000006_Node000004" class="edge">
<title>Node4&#45;&gt;Node6</title>
<g id="a_edge8_Node000006_Node000004"><a xlink:title=" ">
<path fill="none" stroke="#9a32cd" stroke-dasharray="5,2" d="M310.8,-150.64C318.97,-148.53 327.28,-146.57 335.25,-145 374.37,-137.3 418.97,-132.35 453.69,-129.34"/>
<polygon fill="#9a32cd" stroke="#9a32cd" points="310.01,-147.23 301.26,-153.21 311.83,-153.99 310.01,-147.23"/>
</a>
</g>
<text xml:space="preserve" text-anchor="start" x="366.38" y="-151" font-family="Helvetica,sans-Serif" font-size="10.00" fill="grey">_config</text>
</g>
<!-- Node5 -->
<g id="Node000005" class="node">
<title>Node5</title>
<g id="a_Node000005"><a xlink:href="class_balloon_party_1_1_shared_1_1_pool_1_1_pool_manager.html" target="_top" xlink:title=" ">
<polygon fill="white" stroke="#666666" points="578.5,-91.5 449.25,-91.5 449.25,-61 578.5,-61 578.5,-91.5"/>
<text xml:space="preserve" text-anchor="start" x="457.25" y="-78" font-family="Helvetica,sans-Serif" font-size="10.00">BalloonParty.Shared.Pool.</text>
<text xml:space="preserve" text-anchor="middle" x="513.88" y="-66.75" font-family="Helvetica,sans-Serif" font-size="10.00">PoolManager</text>
</a>
</g>
</g>
<!-- Node5&#45;&gt;Node1 -->
<g id="edge4_Node000001_Node000005" class="edge">
<title>Node5&#45;&gt;Node1</title>
<g id="a_edge4_Node000001_Node000005"><a xlink:title=" ">
<path fill="none" stroke="#9a32cd" stroke-dasharray="5,2" d="M589.78,-90.93C614.34,-96.81 641.48,-104.49 665.5,-114 685.62,-121.96 706.94,-133.99 722.69,-143.64"/>
<polygon fill="#9a32cd" stroke="#9a32cd" points="590.7,-87.55 580.17,-88.69 589.11,-94.37 590.7,-87.55"/>
</a>
</g>
<text xml:space="preserve" text-anchor="start" x="601.75" y="-120" font-family="Helvetica,sans-Serif" font-size="10.00" fill="grey">_poolManager</text>
</g>
<!-- Node6&#45;&gt;Node1 -->
<g id="edge5_Node000001_Node000006" class="edge">
<title>Node6&#45;&gt;Node1</title>
<g id="a_edge5_Node000001_Node000006"><a xlink:title=" ">
<path fill="none" stroke="#9a32cd" stroke-dasharray="5,2" d="M585.34,-133.85C610.65,-137.11 639.39,-141 665.5,-145 671.3,-145.89 677.33,-146.86 683.37,-147.86"/>
<polygon fill="#9a32cd" stroke="#9a32cd" points="585.84,-130.38 575.48,-132.59 584.95,-137.33 585.84,-130.38"/>
</a>
</g>
<text xml:space="preserve" text-anchor="start" x="621.62" y="-151" font-family="Helvetica,sans-Serif" font-size="10.00" fill="grey">_grid</text>
</g>
<!-- Node7 -->
<g id="Node000007" class="node">
<title>Node7</title>
<g id="a_Node000007"><a xlink:href="class_balloon_party_1_1_slots_1_1_grid_1_1_balance_path_holder.html" target="_top" xlink:title="Tracks grid slots that are currently in&#45;transit due to balance animations.">
<polygon fill="white" stroke="#666666" points="309,-128.5 189.5,-128.5 189.5,-98 309,-98 309,-128.5"/>
<text xml:space="preserve" text-anchor="start" x="197.5" y="-115" font-family="Helvetica,sans-Serif" font-size="10.00">BalloonParty.Slots.Grid.</text>
<text xml:space="preserve" text-anchor="middle" x="249.25" y="-103.75" font-family="Helvetica,sans-Serif" font-size="10.00">BalancePathHolder</text>
</a>
</g>
</g>
<!-- Node7&#45;&gt;Node6 -->
<g id="edge6_Node000006_Node000007" class="edge">
<title>Node7&#45;&gt;Node6</title>
<g id="a_edge6_Node000006_Node000007"><a xlink:title=" ">
<path fill="none" stroke="#9a32cd" stroke-dasharray="5,2" d="M320.57,-104.68C353.58,-102.02 393.4,-100.76 429,-105 437.78,-106.04 446.96,-107.68 455.9,-109.59"/>
<polygon fill="#9a32cd" stroke="#9a32cd" points="320.36,-101.19 310.7,-105.55 320.97,-108.16 320.36,-101.19"/>
</a>
</g>
<text xml:space="preserve" text-anchor="start" x="338.25" y="-111" font-family="Helvetica,sans-Serif" font-size="10.00" fill="grey">_balancePathHolder</text>
</g>
<!-- Node8 -->
<g id="Node000008" class="node">
<title>Node8</title>
<g id="a_Node000008"><a xlink:href="interface_balloon_party_1_1_game_1_1_run_1_1_i_run_resettable.html" target="_top" xlink:title="Implemented by services holding per&#45;run state that must be cleared when a run restarts.">
<polygon fill="white" stroke="#666666" points="144.25,-128.5 0,-128.5 0,-98 144.25,-98 144.25,-128.5"/>
<text xml:space="preserve" text-anchor="start" x="8" y="-115" font-family="Helvetica,sans-Serif" font-size="10.00">BalloonParty.Game.Run.IRun</text>
<text xml:space="preserve" text-anchor="middle" x="72.12" y="-103.75" font-family="Helvetica,sans-Serif" font-size="10.00">Resettable</text>
</a>
</g>
</g>
<!-- Node8&#45;&gt;Node7 -->
<g id="edge7_Node000007_Node000008" class="edge">
<title>Node8&#45;&gt;Node7</title>
<g id="a_edge7_Node000007_Node000008"><a xlink:title=" ">
<path fill="none" stroke="#63b8ff" d="M156.11,-113.25C167.22,-113.25 178.42,-113.25 189.01,-113.25"/>
<polygon fill="#63b8ff" stroke="#63b8ff" points="156.12,-109.75 146.12,-113.25 156.12,-116.75 156.12,-109.75"/>
</a>
</g>
</g>
<!-- Node9 -->
<g id="Node000009" class="node">
<title>Node9</title>
<g id="a_Node000009"><a xlink:href="interface_balloon_party_1_1_slots_1_1_actor_1_1_i_writeable_slot_actor.html" target="_top" xlink:title=" ">
<polygon fill="white" stroke="#666666" points="311.25,-79.5 187.25,-79.5 187.25,-49 311.25,-49 311.25,-79.5"/>
<text xml:space="preserve" text-anchor="start" x="195.25" y="-66" font-family="Helvetica,sans-Serif" font-size="10.00">BalloonParty.Slots.Actor.</text>
<text xml:space="preserve" text-anchor="middle" x="249.25" y="-54.75" font-family="Helvetica,sans-Serif" font-size="10.00">IWriteableSlotActor</text>
</a>
</g>
</g>
<!-- Node9&#45;&gt;Node6 -->
<g id="edge9_Node000006_Node000009" class="edge">
<title>Node9&#45;&gt;Node6</title>
<g id="a_edge9_Node000006_Node000009"><a xlink:title=" ">
<path fill="none" stroke="#9a32cd" stroke-dasharray="5,2" d="M322.73,-59.5C356.56,-60.11 396.44,-65.02 429,-81 439.52,-86.16 437.27,-93.73 447,-100.25 452.18,-103.73 457.91,-106.81 463.77,-109.52"/>
<polygon fill="#9a32cd" stroke="#9a32cd" points="323.04,-56 313.02,-59.46 323.01,-63 323.04,-56"/>
</a>
</g>
<text xml:space="preserve" text-anchor="start" x="369" y="-87" font-family="Helvetica,sans-Serif" font-size="10.00" fill="grey">_slots</text>
</g>
<!-- Node10 -->
<g id="Node000010" class="node">
<title>Node10</title>
<g id="a_Node000010"><a xlink:href="interface_balloon_party_1_1_slots_1_1_actor_1_1_i_slot_actor.html" target="_top" xlink:title=" ">
<polygon fill="white" stroke="#666666" points="134.12,-79.5 10.12,-79.5 10.12,-49 134.12,-49 134.12,-79.5"/>
<text xml:space="preserve" text-anchor="start" x="18.12" y="-66" font-family="Helvetica,sans-Serif" font-size="10.00">BalloonParty.Slots.Actor.</text>
<text xml:space="preserve" text-anchor="middle" x="72.12" y="-54.75" font-family="Helvetica,sans-Serif" font-size="10.00">ISlotActor</text>
</a>
</g>
</g>
<!-- Node10&#45;&gt;Node9 -->
<g id="edge10_Node000009_Node000010" class="edge">
<title>Node10&#45;&gt;Node9</title>
<g id="a_edge10_Node000009_Node000010"><a xlink:title=" ">
<path fill="none" stroke="#63b8ff" d="M145.75,-64.25C159.48,-64.25 173.7,-64.25 187.03,-64.25"/>
<polygon fill="#63b8ff" stroke="#63b8ff" points="145.89,-60.75 135.89,-64.25 145.89,-67.75 145.89,-60.75"/>
</a>
</g>
</g>
<!-- Node11 -->
<g id="Node000011" class="node">
<title>Node11</title>
<g id="a_Node000011"><a xlink:href="interface_balloon_party_1_1_slots_1_1_actor_1_1_i_slot_actor_view.html" target="_top" xlink:title=" ">
<polygon fill="white" stroke="#666666" points="311.25,-30.5 187.25,-30.5 187.25,0 311.25,0 311.25,-30.5"/>
<text xml:space="preserve" text-anchor="start" x="195.25" y="-17" font-family="Helvetica,sans-Serif" font-size="10.00">BalloonParty.Slots.Actor.</text>
<text xml:space="preserve" text-anchor="middle" x="249.25" y="-5.75" font-family="Helvetica,sans-Serif" font-size="10.00">ISlotActorView</text>
</a>
</g>
</g>
<!-- Node11&#45;&gt;Node6 -->
<g id="edge11_Node000006_Node000011" class="edge">
<title>Node11&#45;&gt;Node6</title>
<g id="a_edge11_Node000006_Node000011"><a xlink:title=" ">
<path fill="none" stroke="#9a32cd" stroke-dasharray="5,2" d="M323.03,-7.53C358.79,-7.71 400.26,-14.37 429,-39 450.54,-57.46 427.72,-79.43 447,-100.25 450.32,-103.84 454.22,-106.92 458.42,-109.56"/>
<polygon fill="#9a32cd" stroke="#9a32cd" points="323.11,-4.03 313.16,-7.67 323.2,-11.03 323.11,-4.03"/>
</a>
</g>
<text xml:space="preserve" text-anchor="start" x="366.75" y="-45" font-family="Helvetica,sans-Serif" font-size="10.00" fill="grey">_views</text>
</g>
<!-- Node12 -->
<g id="Node000012" class="node">
<title>Node12</title>
<g id="a_Node000012"><a xlink:href="interface_balloon_party_1_1_projectile_1_1_model_1_1_i_projectile_model.html" target="_top" xlink:title=" ">
<polygon fill="white" stroke="#666666" points="572.12,-42.5 455.62,-42.5 455.62,-12 572.12,-12 572.12,-42.5"/>
<text xml:space="preserve" text-anchor="start" x="463.62" y="-29" font-family="Helvetica,sans-Serif" font-size="10.00">BalloonParty.Projectile.</text>
<text xml:space="preserve" text-anchor="middle" x="513.88" y="-17.75" font-family="Helvetica,sans-Serif" font-size="10.00">Model.IProjectileModel</text>
</a>
</g>
</g>
<!-- Node12&#45;&gt;Node1 -->
<g id="edge12_Node000001_Node000012" class="edge">
<title>Node12&#45;&gt;Node1</title>
<g id="a_edge12_Node000001_Node000012"><a xlink:title=" ">
<path fill="none" stroke="#9a32cd" stroke-dasharray="5,2" d="M583.5,-39.49C610.43,-46.32 640.74,-56.65 665.5,-72 695.94,-90.87 722.34,-124.08 736.26,-143.63"/>
<polygon fill="#9a32cd" stroke="#9a32cd" points="584.6,-36.16 574.06,-37.22 582.96,-42.96 584.6,-36.16"/>
</a>
</g>
<text xml:space="preserve" text-anchor="start" x="616.38" y="-78" font-family="Helvetica,sans-Serif" font-size="10.00" fill="grey">_model</text>
</g>
</g>
</svg>
