<?xml version="1.0" encoding="UTF-8" standalone="no"?>
<!DOCTYPE svg PUBLIC "-//W3C//DTD SVG 1.1//EN"
 "http://www.w3.org/Graphics/SVG/1.1/DTD/svg11.dtd">
<!-- Generated by graphviz version 15.0.0 (20260523.1842)
 -->
<!-- Title: BalloonParty.Balloon.Type.ToughBalloonVariant Pages: 1 -->
<svg width="309pt" height="125pt"
 viewBox="0.00 0.00 309.00 125.00" xmlns="http://www.w3.org/2000/svg" xmlns:xlink="http://www.w3.org/1999/xlink">
<g id="graph0" class="graph" transform="scale(1 1) rotate(0) translate(4 120.88)">
<title>BalloonParty.Balloon.Type.ToughBalloonVariant</title>
<!-- Node1 -->
<g id="Node000001" class="node">
<title>Node1</title>
<g id="a_Node000001"><a xlink:title=" ">
<polygon fill="#999999" stroke="#666666" points="300.5,-79.5 168.25,-79.5 168.25,-49 300.5,-49 300.5,-79.5"/>
<text xml:space="preserve" text-anchor="start" x="176.25" y="-66" font-family="Helvetica,sans-Serif" font-size="10.00">BalloonParty.Balloon.Type.</text>
<text xml:space="preserve" text-anchor="middle" x="234.38" y="-54.75" font-family="Helvetica,sans-Serif" font-size="10.00">ToughBalloonVariant</text>
</a>
</g>
</g>
<!-- Node2 -->
<g id="Node000002" class="node">
<title>Node2</title>
<g id="a_Node000002"><a xlink:title=" ">
<polygon fill="white" stroke="#666666" points="107.88,-116.88 24.38,-116.88 24.38,-97.62 107.88,-97.62 107.88,-116.88"/>
<text xml:space="preserve" text-anchor="middle" x="66.12" y="-103.38" font-family="Helvetica,sans-Serif" font-size="10.00">MonoBehaviour</text>
</a>
</g>
</g>
<!-- Node2&#45;&gt;Node1 -->
<g id="edge1_Node000001_Node000002" class="edge">
<title>Node2&#45;&gt;Node1</title>
<g id="a_edge1_Node000001_Node000002"><a xlink:title=" ">
<path fill="none" stroke="#63b8ff" d="M117.17,-94.3C134.59,-89.8 154.32,-84.7 172.52,-79.99"/>
<polygon fill="#63b8ff" stroke="#63b8ff" points="116.37,-90.9 107.57,-96.79 118.13,-97.67 116.37,-90.9"/>
</a>
</g>
</g>
<!-- Node3 -->
<g id="Node000003" class="node">
<title>Node3</title>
<g id="a_Node000003"><a xlink:href="interface_balloon_party_1_1_balloon_1_1_type_1_1_i_balloon_variant.html" target="_top" xlink:title=" ">
<polygon fill="white" stroke="#666666" points="132.25,-79.5 0,-79.5 0,-49 132.25,-49 132.25,-79.5"/>
<text xml:space="preserve" text-anchor="start" x="8" y="-66" font-family="Helvetica,sans-Serif" font-size="10.00">BalloonParty.Balloon.Type.</text>
<text xml:space="preserve" text-anchor="middle" x="66.12" y="-54.75" font-family="Helvetica,sans-Serif" font-size="10.00">IBalloonVariant</text>
</a>
</g>
</g>
<!-- Node3&#45;&gt;Node1 -->
<g id="edge2_Node000001_Node000003" class="edge">
<title>Node3&#45;&gt;Node1</title>
<g id="a_edge2_Node000001_Node000003"><a xlink:title=" ">
<path fill="none" stroke="#63b8ff" d="M143.66,-64.25C151.72,-64.25 159.87,-64.25 167.79,-64.25"/>
<polygon fill="#63b8ff" stroke="#63b8ff" points="143.87,-60.75 133.87,-64.25 143.87,-67.75 143.87,-60.75"/>
</a>
</g>
</g>
<!-- Node4 -->
<g id="Node000004" class="node">
<title>Node4</title>
<g id="a_Node000004"><a xlink:href="interface_balloon_party_1_1_balloon_1_1_view_1_1_i_balloon_view_binding.html" target="_top" xlink:title="Implemented by MonoBehaviours on a balloon prefab that need to react to model binding.">
<polygon fill="white" stroke="#666666" points="131.88,-30.5 0.38,-30.5 0.38,0 131.88,0 131.88,-30.5"/>
<text xml:space="preserve" text-anchor="start" x="8.38" y="-17" font-family="Helvetica,sans-Serif" font-size="10.00">BalloonParty.Balloon.View.</text>
<text xml:space="preserve" text-anchor="middle" x="66.12" y="-5.75" font-family="Helvetica,sans-Serif" font-size="10.00">IBalloonViewBinding</text>
</a>
</g>
</g>
<!-- Node4&#45;&gt;Node1 -->
<g id="edge3_Node000001_Node000004" class="edge">
<title>Node4&#45;&gt;Node1</title>
<g id="a_edge3_Node000001_Node000004"><a xlink:title=" ">
<path fill="none" stroke="#63b8ff" d="M131.15,-34.12C147.28,-38.87 164.42,-43.93 179.96,-48.51"/>
<polygon fill="#63b8ff" stroke="#63b8ff" points="132.22,-30.79 121.64,-31.32 130.24,-37.5 132.22,-30.79"/>
</a>
</g>
</g>
</g>
</svg>
