<?xml version="1.0" encoding="UTF-8" standalone="no"?>
<!DOCTYPE svg PUBLIC "-//W3C//DTD SVG 1.1//EN"
 "http://www.w3.org/Graphics/SVG/1.1/DTD/svg11.dtd">
<!-- Generated by graphviz version 15.0.0 (20260523.1842)
 -->
<!-- Title: Graphical Class Hierarchy Pages: 1 -->
<svg width="479pt" height="210pt"
 viewBox="0.00 0.00 479.00 210.00" xmlns="http://www.w3.org/2000/svg" xmlns:xlink="http://www.w3.org/1999/xlink">
<g id="graph0" class="graph" transform="scale(1 1) rotate(0) translate(4 205.5)">
<title>Graphical Class Hierarchy</title>
<!-- Node0 -->
<g id="Node000000" class="node">
<title>Node0</title>
<g id="a_Node000000"><a xlink:title=" ">
<polygon fill="#e0e0e0" stroke="#999999" points="84.25,-146.88 0,-146.88 0,-127.62 84.25,-127.62 84.25,-146.88"/>
<text xml:space="preserve" text-anchor="middle" x="42.12" y="-133.38" font-family="Helvetica,sans-Serif" font-size="10.00">PropertyDrawer</text>
</a>
</g>
</g>
<!-- Node1 -->
<g id="Node000001" class="node">
<title>Node1</title>
<g id="a_Node000001"><a xlink:href="class_balloon_party_1_1_configuration_1_1_editor_1_1_palette_color_mask_drawer.html" target="_top" xlink:title=" ">
<polygon fill="white" stroke="#666666" points="274.62,-201.5 121.38,-201.5 121.38,-171 274.62,-171 274.62,-201.5"/>
<text xml:space="preserve" text-anchor="start" x="129.38" y="-188" font-family="Helvetica,sans-Serif" font-size="10.00">BalloonParty.Configuration.</text>
<text xml:space="preserve" text-anchor="middle" x="198" y="-176.75" font-family="Helvetica,sans-Serif" font-size="10.00">Editor.PaletteColorMaskDrawer</text>
</a>
</g>
</g>
<!-- Node0&#45;&gt;Node1 -->
<g id="edge93_Node000000_Node000001" class="edge">
<title>Node0&#45;&gt;Node1</title>
<g id="a_edge93_Node000000_Node000001"><a xlink:title=" ">
<path fill="none" stroke="#63b8ff" d="M85.5,-150.74C104.75,-156.87 127.64,-164.16 147.66,-170.54"/>
<polygon fill="#63b8ff" stroke="#63b8ff" points="86.67,-147.44 76.08,-147.74 84.54,-154.11 86.67,-147.44"/>
</a>
</g>
</g>
<!-- Node2 -->
<g id="Node000002" class="node">
<title>Node2</title>
<g id="a_Node000002"><a xlink:href="class_balloon_party_1_1_configuration_1_1_editor_1_1_palette_color_name_drawer.html" target="_top" xlink:title=" ">
<polygon fill="white" stroke="#666666" points="275.75,-152.5 120.25,-152.5 120.25,-122 275.75,-122 275.75,-152.5"/>
<text xml:space="preserve" text-anchor="start" x="128.25" y="-139" font-family="Helvetica,sans-Serif" font-size="10.00">BalloonParty.Configuration.</text>
<text xml:space="preserve" text-anchor="middle" x="198" y="-127.75" font-family="Helvetica,sans-Serif" font-size="10.00">Editor.PaletteColorNameDrawer</text>
</a>
</g>
</g>
<!-- Node0&#45;&gt;Node2 -->
<g id="edge94_Node000000_Node000002" class="edge">
<title>Node0&#45;&gt;Node2</title>
<g id="a_edge94_Node000000_Node000002"><a xlink:title=" ">
<path fill="none" stroke="#63b8ff" d="M95.86,-137.25C103.66,-137.25 111.83,-137.25 120,-137.25"/>
<polygon fill="#63b8ff" stroke="#63b8ff" points="95.87,-133.75 85.87,-137.25 95.87,-140.75 95.87,-133.75"/>
</a>
</g>
</g>
<!-- Node3 -->
<g id="Node000003" class="node">
<title>Node3</title>
<g id="a_Node000003"><a xlink:href="class_balloon_party_1_1_editor_1_1_auto_field_property_drawer.html" target="_top" xlink:title="Base class for property drawers that want common fields drawn automatically via serialized&#45;property r...">
<polygon fill="white" stroke="#666666" points="258.5,-103.5 137.5,-103.5 137.5,-73 258.5,-73 258.5,-103.5"/>
<text xml:space="preserve" text-anchor="start" x="145.5" y="-90" font-family="Helvetica,sans-Serif" font-size="10.00">BalloonParty.Editor.Auto</text>
<text xml:space="preserve" text-anchor="middle" x="198" y="-78.75" font-family="Helvetica,sans-Serif" font-size="10.00">FieldPropertyDrawer</text>
</a>
</g>
</g>
<!-- Node0&#45;&gt;Node3 -->
<g id="edge95_Node000000_Node000003" class="edge">
<title>Node0&#45;&gt;Node3</title>
<g id="a_edge95_Node000000_Node000003"><a xlink:title=" ">
<path fill="none" stroke="#63b8ff" d="M85.5,-123.76C104.75,-117.63 127.64,-110.34 147.66,-103.96"/>
<polygon fill="#63b8ff" stroke="#63b8ff" points="84.54,-120.39 76.08,-126.76 86.67,-127.06 84.54,-120.39"/>
</a>
</g>
</g>
<!-- Node4 -->
<g id="Node000004" class="node">
<title>Node4</title>
<g id="a_Node000004"><a xlink:href="class_balloon_party_1_1_configuration_1_1_editor_1_1_balloon_prefab_entry_drawer.html" target="_top" xlink:title=" ">
<polygon fill="white" stroke="#666666" points="471,-177.5 311.75,-177.5 311.75,-147 471,-147 471,-177.5"/>
<text xml:space="preserve" text-anchor="start" x="319.75" y="-164" font-family="Helvetica,sans-Serif" font-size="10.00">BalloonParty.Configuration.</text>
<text xml:space="preserve" text-anchor="middle" x="391.38" y="-152.75" font-family="Helvetica,sans-Serif" font-size="10.00">Editor.BalloonPrefabEntryDrawer</text>
</a>
</g>
</g>
<!-- Node3&#45;&gt;Node4 -->
<g id="edge96_Node000003_Node000004" class="edge">
<title>Node3&#45;&gt;Node4</title>
<g id="a_edge96_Node000003_Node000004"><a xlink:title=" ">
<path fill="none" stroke="#63b8ff" d="M264.09,-108.05C268.08,-109.7 272,-111.43 275.75,-113.25 293.05,-121.64 294.42,-128.92 311.75,-137.25 318.85,-140.66 326.53,-143.76 334.21,-146.53"/>
<polygon fill="#63b8ff" stroke="#63b8ff" points="265.41,-104.81 254.82,-104.46 262.88,-111.34 265.41,-104.81"/>
</a>
</g>
</g>
<!-- Node5 -->
<g id="Node000005" class="node">
<title>Node5</title>
<g id="a_Node000005"><a xlink:href="class_balloon_party_1_1_configuration_1_1_editor_1_1_hit_vfx_override_drawer.html" target="_top" xlink:title=" ">
<polygon fill="white" stroke="#666666" points="461.25,-128.5 321.5,-128.5 321.5,-98 461.25,-98 461.25,-128.5"/>
<text xml:space="preserve" text-anchor="start" x="329.5" y="-115" font-family="Helvetica,sans-Serif" font-size="10.00">BalloonParty.Configuration.</text>
<text xml:space="preserve" text-anchor="middle" x="391.38" y="-103.75" font-family="Helvetica,sans-Serif" font-size="10.00">Editor.HitVfxOverrideDrawer</text>
</a>
</g>
</g>
<!-- Node3&#45;&gt;Node5 -->
<g id="edge97_Node000003_Node000005" class="edge">
<title>Node3&#45;&gt;Node5</title>
<g id="a_edge97_Node000003_Node000005"><a xlink:title=" ">
<path fill="none" stroke="#63b8ff" d="M270.09,-97.54C286.74,-99.71 304.46,-102.03 321.03,-104.19"/>
<polygon fill="#63b8ff" stroke="#63b8ff" points="270.63,-94.08 260.27,-96.25 269.73,-101.02 270.63,-94.08"/>
</a>
</g>
</g>
<!-- Node6 -->
<g id="Node000006" class="node">
<title>Node6</title>
<g id="a_Node000006"><a xlink:href="class_balloon_party_1_1_configuration_1_1_editor_1_1_item_settings_drawer.html" target="_top" xlink:title=" ">
<polygon fill="white" stroke="#666666" points="458.25,-79.5 324.5,-79.5 324.5,-49 458.25,-49 458.25,-79.5"/>
<text xml:space="preserve" text-anchor="start" x="332.5" y="-66" font-family="Helvetica,sans-Serif" font-size="10.00">BalloonParty.Configuration.</text>
<text xml:space="preserve" text-anchor="middle" x="391.38" y="-54.75" font-family="Helvetica,sans-Serif" font-size="10.00">Editor.ItemSettingsDrawer</text>
</a>
</g>
</g>
<!-- Node3&#45;&gt;Node6 -->
<g id="edge98_Node000003_Node000006" class="edge">
<title>Node3&#45;&gt;Node6</title>
<g id="a_edge98_Node000003_Node000006"><a xlink:title=" ">
<path fill="none" stroke="#63b8ff" d="M270.17,-79.33C287.82,-77.11 306.67,-74.75 324.07,-72.56"/>
<polygon fill="#63b8ff" stroke="#63b8ff" points="269.75,-75.85 260.27,-80.57 270.62,-82.8 269.75,-75.85"/>
</a>
</g>
</g>
<!-- Node7 -->
<g id="Node000007" class="node">
<title>Node7</title>
<g id="a_Node000007"><a xlink:href="class_balloon_party_1_1_nudge_1_1_editor_1_1_nudge_override_drawer.html" target="_top" xlink:title=" ">
<polygon fill="white" stroke="#666666" points="457.5,-30.5 325.25,-30.5 325.25,0 457.5,0 457.5,-30.5"/>
<text xml:space="preserve" text-anchor="start" x="333.25" y="-17" font-family="Helvetica,sans-Serif" font-size="10.00">BalloonParty.Nudge.Editor.</text>
<text xml:space="preserve" text-anchor="middle" x="391.38" y="-5.75" font-family="Helvetica,sans-Serif" font-size="10.00">NudgeOverrideDrawer</text>
</a>
</g>
</g>
<!-- Node3&#45;&gt;Node7 -->
<g id="edge99_Node000003_Node000007" class="edge">
<title>Node3&#45;&gt;Node7</title>
<g id="a_edge99_Node000003_Node000007"><a xlink:title=" ">
<path fill="none" stroke="#63b8ff" d="M243.54,-68.14C264.12,-59.15 288.99,-48.69 311.75,-40.25 320.34,-37.06 329.56,-33.91 338.54,-30.96"/>
<polygon fill="#63b8ff" stroke="#63b8ff" points="242.33,-64.85 234.59,-72.08 245.15,-71.25 242.33,-64.85"/>
</a>
</g>
</g>
</g>
</svg>
