<?xml version="1.0" encoding="UTF-8" standalone="no"?>
<!DOCTYPE svg PUBLIC "-//W3C//DTD SVG 1.1//EN"
 "http://www.w3.org/Graphics/SVG/1.1/DTD/svg11.dtd">
<!-- Generated by graphviz version 15.0.0 (20260523.1842)
 -->
<!-- Title: Graphical Class Hierarchy Pages: 1 -->
<svg width="285pt" height="333pt"
 viewBox="0.00 0.00 285.00 333.00" xmlns="http://www.w3.org/2000/svg" xmlns:xlink="http://www.w3.org/1999/xlink">
<g id="graph0" class="graph" transform="scale(1 1) rotate(0) translate(4 328.5)">
<title>Graphical Class Hierarchy</title>
<!-- Node0 -->
<g id="Node000000" class="node">
<title>Node0</title>
<g id="a_Node000000"><a xlink:title=" ">
<polygon fill="#e0e0e0" stroke="#999999" points="78.25,-171.88 0,-171.88 0,-152.62 78.25,-152.62 78.25,-171.88"/>
<text xml:space="preserve" text-anchor="middle" x="39.12" y="-158.38" font-family="Helvetica,sans-Serif" font-size="10.00">LifetimeScope</text>
</a>
</g>
</g>
<!-- Node1 -->
<g id="Node000001" class="node">
<title>Node1</title>
<g id="a_Node000001"><a xlink:href="class_balloon_party_1_1_game_1_1_game_lifetime_scope.html" target="_top" xlink:title=" ">
<polygon fill="white" stroke="#666666" points="277.25,-324.5 114.25,-324.5 114.25,-294 277.25,-294 277.25,-324.5"/>
<text xml:space="preserve" text-anchor="start" x="122.25" y="-311" font-family="Helvetica,sans-Serif" font-size="10.00">BalloonParty.Game.GameLifetime</text>
<text xml:space="preserve" text-anchor="middle" x="195.75" y="-299.75" font-family="Helvetica,sans-Serif" font-size="10.00">Scope</text>
</a>
</g>
</g>
<!-- Node0&#45;&gt;Node1 -->
<g id="edge81_Node000000_Node000001" class="edge">
<title>Node0&#45;&gt;Node1</title>
<g id="a_edge81_Node000000_Node000001"><a xlink:title=" ">
<path fill="none" stroke="#63b8ff" d="M47.25,-182.7C57.74,-209.83 79.88,-257.41 114.25,-284.25 118.86,-287.85 124,-290.94 129.39,-293.58"/>
<polygon fill="#63b8ff" stroke="#63b8ff" points="50.62,-181.73 43.88,-173.55 44.06,-184.15 50.62,-181.73"/>
</a>
</g>
</g>
<!-- Node2 -->
<g id="Node000002" class="node">
<title>Node2</title>
<g id="a_Node000002"><a xlink:href="class_balloon_party_1_1_game_1_1_launch_lifetime_scope.html" target="_top" xlink:title=" ">
<polygon fill="white" stroke="#666666" points="262.62,-275.5 128.88,-275.5 128.88,-245 262.62,-245 262.62,-275.5"/>
<text xml:space="preserve" text-anchor="start" x="136.88" y="-262" font-family="Helvetica,sans-Serif" font-size="10.00">BalloonParty.Game.Launch</text>
<text xml:space="preserve" text-anchor="middle" x="195.75" y="-250.75" font-family="Helvetica,sans-Serif" font-size="10.00">LifetimeScope</text>
</a>
</g>
</g>
<!-- Node0&#45;&gt;Node2 -->
<g id="edge82_Node000000_Node000002" class="edge">
<title>Node0&#45;&gt;Node2</title>
<g id="a_edge82_Node000000_Node000002"><a xlink:title=" ">
<path fill="none" stroke="#63b8ff" d="M54.73,-181.04C68.46,-197.51 90.41,-220.98 114.25,-235.25 120.15,-238.78 126.6,-241.86 133.19,-244.53"/>
<polygon fill="#63b8ff" stroke="#63b8ff" points="57.61,-179.03 48.6,-173.45 52.17,-183.43 57.61,-179.03"/>
</a>
</g>
</g>
<!-- Node3 -->
<g id="Node000003" class="node">
<title>Node3</title>
<g id="a_Node000003"><a xlink:href="class_balloon_party_1_1_projectile_1_1_projectile_lifetime_scope.html" target="_top" xlink:title=" ">
<polygon fill="white" stroke="#666666" points="255.12,-226.5 136.38,-226.5 136.38,-196 255.12,-196 255.12,-226.5"/>
<text xml:space="preserve" text-anchor="start" x="144.38" y="-213" font-family="Helvetica,sans-Serif" font-size="10.00">BalloonParty.Projectile.</text>
<text xml:space="preserve" text-anchor="middle" x="195.75" y="-201.75" font-family="Helvetica,sans-Serif" font-size="10.00">ProjectileLifetimeScope</text>
</a>
</g>
</g>
<!-- Node0&#45;&gt;Node3 -->
<g id="edge83_Node000000_Node000003" class="edge">
<title>Node0&#45;&gt;Node3</title>
<g id="a_edge83_Node000000_Node000003"><a xlink:title=" ">
<path fill="none" stroke="#63b8ff" d="M81.5,-175.74C92.17,-179.2 103.63,-182.88 114.25,-186.25 123.88,-189.3 134.16,-192.53 144.05,-195.61"/>
<polygon fill="#63b8ff" stroke="#63b8ff" points="82.78,-172.48 72.19,-172.72 80.63,-179.14 82.78,-172.48"/>
</a>
</g>
</g>
<!-- Node4 -->
<g id="Node000004" class="node">
<title>Node4</title>
<g id="a_Node000004"><a xlink:href="class_balloon_party_1_1_thrower_1_1_thrower_lifetime_scope.html" target="_top" xlink:title=" ">
<polygon fill="white" stroke="#666666" points="268.62,-177.5 122.88,-177.5 122.88,-147 268.62,-147 268.62,-177.5"/>
<text xml:space="preserve" text-anchor="start" x="130.88" y="-164" font-family="Helvetica,sans-Serif" font-size="10.00">BalloonParty.Thrower.Thrower</text>
<text xml:space="preserve" text-anchor="middle" x="195.75" y="-152.75" font-family="Helvetica,sans-Serif" font-size="10.00">LifetimeScope</text>
</a>
</g>
</g>
<!-- Node0&#45;&gt;Node4 -->
<g id="edge84_Node000000_Node000004" class="edge">
<title>Node0&#45;&gt;Node4</title>
<g id="a_edge84_Node000000_Node000004"><a xlink:title=" ">
<path fill="none" stroke="#63b8ff" d="M90.09,-162.25C100.47,-162.25 111.61,-162.25 122.6,-162.25"/>
<polygon fill="#63b8ff" stroke="#63b8ff" points="90.26,-158.75 80.26,-162.25 90.26,-165.75 90.26,-158.75"/>
</a>
</g>
</g>
<!-- Node5 -->
<g id="Node000005" class="node">
<title>Node5</title>
<g id="a_Node000005"><a xlink:href="class_balloon_party_1_1_u_i_1_1_level_up_1_1_level_up_lifetime_scope.html" target="_top" xlink:title=" ">
<polygon fill="white" stroke="#666666" points="258.5,-128.5 133,-128.5 133,-98 258.5,-98 258.5,-128.5"/>
<text xml:space="preserve" text-anchor="start" x="141" y="-115" font-family="Helvetica,sans-Serif" font-size="10.00">BalloonParty.UI.LevelUp.</text>
<text xml:space="preserve" text-anchor="middle" x="195.75" y="-103.75" font-family="Helvetica,sans-Serif" font-size="10.00">LevelUpLifetimeScope</text>
</a>
</g>
</g>
<!-- Node0&#45;&gt;Node5 -->
<g id="edge85_Node000000_Node000005" class="edge">
<title>Node0&#45;&gt;Node5</title>
<g id="a_edge85_Node000000_Node000005"><a xlink:title=" ">
<path fill="none" stroke="#63b8ff" d="M81.5,-148.76C92.17,-145.3 103.63,-141.62 114.25,-138.25 123.88,-135.2 134.16,-131.97 144.05,-128.89"/>
<polygon fill="#63b8ff" stroke="#63b8ff" points="80.63,-145.36 72.19,-151.78 82.78,-152.02 80.63,-145.36"/>
</a>
</g>
</g>
<!-- Node6 -->
<g id="Node000006" class="node">
<title>Node6</title>
<g id="a_Node000006"><a xlink:href="class_balloon_party_1_1_u_i_1_1_score_1_1_score_u_i_lifetime_scope.html" target="_top" xlink:title=" ">
<polygon fill="white" stroke="#666666" points="266,-79.5 125.5,-79.5 125.5,-49 266,-49 266,-79.5"/>
<text xml:space="preserve" text-anchor="start" x="133.5" y="-66" font-family="Helvetica,sans-Serif" font-size="10.00">BalloonParty.UI.Score.Score</text>
<text xml:space="preserve" text-anchor="middle" x="195.75" y="-54.75" font-family="Helvetica,sans-Serif" font-size="10.00">UILifetimeScope</text>
</a>
</g>
</g>
<!-- Node0&#45;&gt;Node6 -->
<g id="edge86_Node000000_Node000006" class="edge">
<title>Node0&#45;&gt;Node6</title>
<g id="a_edge86_Node000000_Node000006"><a xlink:title=" ">
<path fill="none" stroke="#63b8ff" d="M54.73,-143.46C68.46,-126.99 90.41,-103.52 114.25,-89.25 120.15,-85.72 126.6,-82.64 133.19,-79.97"/>
<polygon fill="#63b8ff" stroke="#63b8ff" points="52.17,-141.07 48.6,-151.05 57.61,-145.47 52.17,-141.07"/>
</a>
</g>
</g>
<!-- Node7 -->
<g id="Node000007" class="node">
<title>Node7</title>
<g id="a_Node000007"><a xlink:href="class_balloon_party_1_1_u_i_1_1_shields_1_1_shield_u_i_lifetime_scope.html" target="_top" xlink:title=" ">
<polygon fill="white" stroke="#666666" points="256.62,-30.5 134.88,-30.5 134.88,0 256.62,0 256.62,-30.5"/>
<text xml:space="preserve" text-anchor="start" x="142.88" y="-17" font-family="Helvetica,sans-Serif" font-size="10.00">BalloonParty.UI.Shields.</text>
<text xml:space="preserve" text-anchor="middle" x="195.75" y="-5.75" font-family="Helvetica,sans-Serif" font-size="10.00">ShieldUILifetimeScope</text>
</a>
</g>
</g>
<!-- Node0&#45;&gt;Node7 -->
<g id="edge87_Node000000_Node000007" class="edge">
<title>Node0&#45;&gt;Node7</title>
<g id="a_edge87_Node000000_Node000007"><a xlink:title=" ">
<path fill="none" stroke="#63b8ff" d="M47.25,-141.8C57.74,-114.67 79.88,-67.09 114.25,-40.25 120.36,-35.48 127.4,-31.61 134.7,-28.47"/>
<polygon fill="#63b8ff" stroke="#63b8ff" points="44.06,-140.35 43.88,-150.95 50.62,-142.77 44.06,-140.35"/>
</a>
</g>
</g>
</g>
</svg>
