<?xml version="1.0" encoding="UTF-8" standalone="no"?>
<!DOCTYPE svg PUBLIC "-//W3C//DTD SVG 1.1//EN"
 "http://www.w3.org/Graphics/SVG/1.1/DTD/svg11.dtd">
<!-- Generated by graphviz version 15.0.0 (20260523.1842)
 -->
<!-- Title: Graphical Class Hierarchy Pages: 1 -->
<svg width="683pt" height="186pt"
 viewBox="0.00 0.00 683.00 186.00" xmlns="http://www.w3.org/2000/svg" xmlns:xlink="http://www.w3.org/1999/xlink">
<g id="graph0" class="graph" transform="scale(1 1) rotate(0) translate(4 181.5)">
<title>Graphical Class Hierarchy</title>
<!-- Node0 -->
<g id="Node000000" class="node">
<title>Node0</title>
<g id="a_Node000000"><a xlink:href="interface_balloon_party_1_1_slots_1_1_capabilities_1_1_i_has_nudge.html" target="_top" xlink:title=" ">
<polygon fill="white" stroke="#666666" points="312.5,-79.5 160,-79.5 160,-49 312.5,-49 312.5,-79.5"/>
<text xml:space="preserve" text-anchor="start" x="168" y="-66" font-family="Helvetica,sans-Serif" font-size="10.00">BalloonParty.Slots.Capabilities.</text>
<text xml:space="preserve" text-anchor="middle" x="236.25" y="-54.75" font-family="Helvetica,sans-Serif" font-size="10.00">IHasNudge</text>
</a>
</g>
</g>
<!-- Node1 -->
<g id="Node000001" class="node">
<title>Node1</title>
<g id="a_Node000001"><a xlink:href="interface_balloon_party_1_1_balloon_1_1_model_1_1_i_balloon_model.html" target="_top" xlink:title=" ">
<polygon fill="white" stroke="#666666" points="493.5,-79.5 356,-79.5 356,-49 493.5,-49 493.5,-79.5"/>
<text xml:space="preserve" text-anchor="start" x="364" y="-66" font-family="Helvetica,sans-Serif" font-size="10.00">BalloonParty.Balloon.Model.</text>
<text xml:space="preserve" text-anchor="middle" x="424.75" y="-54.75" font-family="Helvetica,sans-Serif" font-size="10.00">IBalloonModel</text>
</a>
</g>
</g>
<!-- Node0&#45;&gt;Node1 -->
<g id="edge71_Node000000_Node000001" class="edge">
<title>Node0&#45;&gt;Node1</title>
<g id="a_edge71_Node000000_Node000001"><a xlink:title=" ">
<path fill="none" stroke="#63b8ff" d="M324.2,-64.25C334.73,-64.25 345.36,-64.25 355.57,-64.25"/>
<polygon fill="#63b8ff" stroke="#63b8ff" points="324.35,-60.75 314.35,-64.25 324.35,-67.75 324.35,-60.75"/>
</a>
</g>
</g>
<!-- Node2 -->
<g id="Node000002" class="node">
<title>Node2</title>
<g id="a_Node000002"><a xlink:href="interface_balloon_party_1_1_balloon_1_1_model_1_1_i_writeable_balloon_model.html" target="_top" xlink:title=" ">
<polygon fill="white" stroke="#666666" points="674.5,-103.5 537,-103.5 537,-73 674.5,-73 674.5,-103.5"/>
<text xml:space="preserve" text-anchor="start" x="545" y="-90" font-family="Helvetica,sans-Serif" font-size="10.00">BalloonParty.Balloon.Model.</text>
<text xml:space="preserve" text-anchor="middle" x="605.75" y="-78.75" font-family="Helvetica,sans-Serif" font-size="10.00">IWriteableBalloonModel</text>
</a>
</g>
</g>
<!-- Node1&#45;&gt;Node2 -->
<g id="edge72_Node000001_Node000002" class="edge">
<title>Node1&#45;&gt;Node2</title>
<g id="a_edge72_Node000001_Node000002"><a xlink:title=" ">
<path fill="none" stroke="#63b8ff" d="M505.24,-74.91C515.76,-76.32 526.46,-77.75 536.76,-79.13"/>
<polygon fill="#63b8ff" stroke="#63b8ff" points="505.81,-71.45 495.43,-73.59 504.88,-78.39 505.81,-71.45"/>
</a>
</g>
</g>
<!-- Node7 -->
<g id="Node000007" class="node">
<title>Node7</title>
<g id="a_Node000007"><a xlink:href="interface_balloon_party_1_1_slots_1_1_capabilities_1_1_i_hitable.html" target="_top" xlink:title=" ">
<polygon fill="white" stroke="#666666" points="312.5,-30.5 160,-30.5 160,0 312.5,0 312.5,-30.5"/>
<text xml:space="preserve" text-anchor="start" x="168" y="-17" font-family="Helvetica,sans-Serif" font-size="10.00">BalloonParty.Slots.Capabilities.</text>
<text xml:space="preserve" text-anchor="middle" x="236.25" y="-5.75" font-family="Helvetica,sans-Serif" font-size="10.00">IHitable</text>
</a>
</g>
</g>
<!-- Node7&#45;&gt;Node1 -->
<g id="edge73_Node000007_Node000001" class="edge">
<title>Node7&#45;&gt;Node1</title>
<g id="a_edge73_Node000007_Node000001"><a xlink:title=" ">
<path fill="none" stroke="#63b8ff" d="M308.02,-33.84C326.47,-38.69 346.17,-43.87 363.99,-48.55"/>
<polygon fill="#63b8ff" stroke="#63b8ff" points="309.05,-30.5 298.49,-31.34 307.28,-37.27 309.05,-30.5"/>
</a>
</g>
</g>
<!-- Node8 -->
<g id="Node000008" class="node">
<title>Node8</title>
<g id="a_Node000008"><a xlink:href="interface_balloon_party_1_1_slots_1_1_capabilities_1_1_i_has_durability.html" target="_top" xlink:title=" ">
<polygon fill="white" stroke="#666666" points="501,-30.5 348.5,-30.5 348.5,0 501,0 501,-30.5"/>
<text xml:space="preserve" text-anchor="start" x="356.5" y="-17" font-family="Helvetica,sans-Serif" font-size="10.00">BalloonParty.Slots.Capabilities.</text>
<text xml:space="preserve" text-anchor="middle" x="424.75" y="-5.75" font-family="Helvetica,sans-Serif" font-size="10.00">IHasDurability</text>
</a>
</g>
</g>
<!-- Node7&#45;&gt;Node8 -->
<g id="edge74_Node000007_Node000008" class="edge">
<title>Node7&#45;&gt;Node8</title>
<g id="a_edge74_Node000007_Node000008"><a xlink:title=" ">
<path fill="none" stroke="#63b8ff" d="M324.09,-15.25C332.09,-15.25 340.16,-15.25 348.05,-15.25"/>
<polygon fill="#63b8ff" stroke="#63b8ff" points="324.35,-11.75 314.35,-15.25 324.35,-18.75 324.35,-11.75"/>
</a>
</g>
</g>
<!-- Node5 -->
<g id="Node000005" class="node">
<title>Node5</title>
<g id="a_Node000005"><a xlink:href="interface_balloon_party_1_1_slots_1_1_actor_1_1_i_slot_actor.html" target="_top" xlink:title=" ">
<polygon fill="white" stroke="#666666" points="124,-152.5 0,-152.5 0,-122 124,-122 124,-152.5"/>
<text xml:space="preserve" text-anchor="start" x="8" y="-139" font-family="Helvetica,sans-Serif" font-size="10.00">BalloonParty.Slots.Actor.</text>
<text xml:space="preserve" text-anchor="middle" x="62" y="-127.75" font-family="Helvetica,sans-Serif" font-size="10.00">ISlotActor</text>
</a>
</g>
</g>
<!-- Node4 -->
<g id="Node000004" class="node">
<title>Node4</title>
<g id="a_Node000004"><a xlink:href="interface_balloon_party_1_1_slots_1_1_actor_1_1_i_dynamic_slot_actor.html" target="_top" xlink:title=" ">
<polygon fill="white" stroke="#666666" points="298.25,-128.5 174.25,-128.5 174.25,-98 298.25,-98 298.25,-128.5"/>
<text xml:space="preserve" text-anchor="start" x="182.25" y="-115" font-family="Helvetica,sans-Serif" font-size="10.00">BalloonParty.Slots.Actor.</text>
<text xml:space="preserve" text-anchor="middle" x="236.25" y="-103.75" font-family="Helvetica,sans-Serif" font-size="10.00">IDynamicSlotActor</text>
</a>
</g>
</g>
<!-- Node5&#45;&gt;Node4 -->
<g id="edge75_Node000005_Node000004" class="edge">
<title>Node5&#45;&gt;Node4</title>
<g id="a_edge75_Node000005_Node000004"><a xlink:title=" ">
<path fill="none" stroke="#63b8ff" d="M135.36,-127.17C148.19,-125.38 161.45,-123.53 173.94,-121.79"/>
<polygon fill="#63b8ff" stroke="#63b8ff" points="135.13,-123.67 125.71,-128.51 136.1,-130.6 135.13,-123.67"/>
</a>
</g>
</g>
<!-- Node6 -->
<g id="Node000006" class="node">
<title>Node6</title>
<g id="a_Node000006"><a xlink:href="interface_balloon_party_1_1_slots_1_1_actor_1_1_i_writeable_slot_actor.html" target="_top" xlink:title=" ">
<polygon fill="white" stroke="#666666" points="298.25,-177.5 174.25,-177.5 174.25,-147 298.25,-147 298.25,-177.5"/>
<text xml:space="preserve" text-anchor="start" x="182.25" y="-164" font-family="Helvetica,sans-Serif" font-size="10.00">BalloonParty.Slots.Actor.</text>
<text xml:space="preserve" text-anchor="middle" x="236.25" y="-152.75" font-family="Helvetica,sans-Serif" font-size="10.00">IWriteableSlotActor</text>
</a>
</g>
</g>
<!-- Node5&#45;&gt;Node6 -->
<g id="edge79_Node000005_Node000006" class="edge">
<title>Node5&#45;&gt;Node6</title>
<g id="a_edge79_Node000005_Node000006"><a xlink:title=" ">
<path fill="none" stroke="#63b8ff" d="M135.36,-147.75C148.19,-149.61 161.45,-151.54 173.94,-153.35"/>
<polygon fill="#63b8ff" stroke="#63b8ff" points="136.11,-144.32 125.71,-146.35 135.11,-151.25 136.11,-144.32"/>
</a>
</g>
</g>
<!-- Node4&#45;&gt;Node1 -->
<g id="edge76_Node000004_Node000001" class="edge">
<title>Node4&#45;&gt;Node1</title>
<g id="a_edge76_Node000004_Node000001"><a xlink:title=" ">
<path fill="none" stroke="#63b8ff" d="M308.02,-94.66C326.47,-89.81 346.17,-84.63 363.99,-79.95"/>
<polygon fill="#63b8ff" stroke="#63b8ff" points="307.28,-91.23 298.49,-97.16 309.05,-98 307.28,-91.23"/>
</a>
</g>
</g>
<!-- Node3 -->
<g id="Node000003" class="node">
<title>Node3</title>
<g id="a_Node000003"><a xlink:href="interface_balloon_party_1_1_slots_1_1_actor_1_1_i_writeable_dynamic_slot_actor.html" target="_top" xlink:title=" ">
<polygon fill="white" stroke="#666666" points="494.25,-128.5 355.25,-128.5 355.25,-98 494.25,-98 494.25,-128.5"/>
<text xml:space="preserve" text-anchor="start" x="363.25" y="-115" font-family="Helvetica,sans-Serif" font-size="10.00">BalloonParty.Slots.Actor.</text>
<text xml:space="preserve" text-anchor="middle" x="424.75" y="-103.75" font-family="Helvetica,sans-Serif" font-size="10.00">IWriteableDynamicSlotActor</text>
</a>
</g>
</g>
<!-- Node4&#45;&gt;Node3 -->
<g id="edge77_Node000004_Node000003" class="edge">
<title>Node4&#45;&gt;Node3</title>
<g id="a_edge77_Node000004_Node000003"><a xlink:title=" ">
<path fill="none" stroke="#63b8ff" d="M309.77,-113.25C324.64,-113.25 340.24,-113.25 354.97,-113.25"/>
<polygon fill="#63b8ff" stroke="#63b8ff" points="310.09,-109.75 300.09,-113.25 310.09,-116.75 310.09,-109.75"/>
</a>
</g>
</g>
<!-- Node3&#45;&gt;Node2 -->
<g id="edge78_Node000003_Node000002" class="edge">
<title>Node3&#45;&gt;Node2</title>
<g id="a_edge78_Node000003_Node000002"><a xlink:title=" ">
<path fill="none" stroke="#63b8ff" d="M505.81,-102.07C516.13,-100.63 526.62,-99.16 536.72,-97.75"/>
<polygon fill="#63b8ff" stroke="#63b8ff" points="505.62,-98.56 496.2,-103.41 506.59,-105.49 505.62,-98.56"/>
</a>
</g>
</g>
<!-- Node6&#45;&gt;Node3 -->
<g id="edge80_Node000006_Node000003" class="edge">
<title>Node6&#45;&gt;Node3</title>
<g id="a_edge80_Node000006_Node000003"><a xlink:title=" ">
<path fill="none" stroke="#63b8ff" d="M308.02,-143.66C326.47,-138.81 346.17,-133.63 363.99,-128.95"/>
<polygon fill="#63b8ff" stroke="#63b8ff" points="307.28,-140.23 298.49,-146.16 309.05,-147 307.28,-140.23"/>
</a>
</g>
</g>
</g>
</svg>
