<?xml version="1.0" encoding="UTF-8" standalone="no"?>
<!DOCTYPE svg PUBLIC "-//W3C//DTD SVG 1.1//EN"
 "http://www.w3.org/Graphics/SVG/1.1/DTD/svg11.dtd">
<!-- Generated by graphviz version 15.0.0 (20260523.1842)
 -->
<!-- Title: Graphical Class Hierarchy Pages: 1 -->
<svg width="469pt" height="39pt"
 viewBox="0.00 0.00 469.00 39.00" xmlns="http://www.w3.org/2000/svg" xmlns:xlink="http://www.w3.org/1999/xlink">
<g id="graph0" class="graph" transform="scale(1 1) rotate(0) translate(4 34.5)">
<title>Graphical Class Hierarchy</title>
<!-- Node0 -->
<g id="Node000000" class="node">
<title>Node0</title>
<g id="a_Node000000"><a xlink:href="interface_balloon_party_1_1_projectile_1_1_model_1_1_i_projectile_model.html" target="_top" xlink:title=" ">
<polygon fill="white" stroke="#666666" points="116.5,-30.5 0,-30.5 0,0 116.5,0 116.5,-30.5"/>
<text xml:space="preserve" text-anchor="start" x="8" y="-17" font-family="Helvetica,sans-Serif" font-size="10.00">BalloonParty.Projectile.</text>
<text xml:space="preserve" text-anchor="middle" x="58.25" y="-5.75" font-family="Helvetica,sans-Serif" font-size="10.00">Model.IProjectileModel</text>
</a>
</g>
</g>
<!-- Node1 -->
<g id="Node000001" class="node">
<title>Node1</title>
<g id="a_Node000001"><a xlink:href="interface_balloon_party_1_1_projectile_1_1_model_1_1_i_writeable_projectile_model.html" target="_top" xlink:title=" ">
<polygon fill="white" stroke="#666666" points="308,-30.5 152.5,-30.5 152.5,0 308,0 308,-30.5"/>
<text xml:space="preserve" text-anchor="start" x="160.5" y="-17" font-family="Helvetica,sans-Serif" font-size="10.00">BalloonParty.Projectile.</text>
<text xml:space="preserve" text-anchor="middle" x="230.25" y="-5.75" font-family="Helvetica,sans-Serif" font-size="10.00">Model.IWriteableProjectileModel</text>
</a>
</g>
</g>
<!-- Node0&#45;&gt;Node1 -->
<g id="edge76_Node000000_Node000001" class="edge">
<title>Node0&#45;&gt;Node1</title>
<g id="a_edge76_Node000000_Node000001"><a xlink:title=" ">
<path fill="none" stroke="#63b8ff" d="M128.2,-15.25C136.09,-15.25 144.17,-15.25 152.16,-15.25"/>
<polygon fill="#63b8ff" stroke="#63b8ff" points="128.32,-11.75 118.32,-15.25 128.32,-18.75 128.32,-11.75"/>
</a>
</g>
</g>
<!-- Node2 -->
<g id="Node000002" class="node">
<title>Node2</title>
<g id="a_Node000002"><a xlink:href="class_balloon_party_1_1_projectile_1_1_model_1_1_projectile_model.html" target="_top" xlink:title=" ">
<polygon fill="white" stroke="#666666" points="460.5,-30.5 344,-30.5 344,0 460.5,0 460.5,-30.5"/>
<text xml:space="preserve" text-anchor="start" x="352" y="-17" font-family="Helvetica,sans-Serif" font-size="10.00">BalloonParty.Projectile.</text>
<text xml:space="preserve" text-anchor="middle" x="402.25" y="-5.75" font-family="Helvetica,sans-Serif" font-size="10.00">Model.ProjectileModel</text>
</a>
</g>
</g>
<!-- Node1&#45;&gt;Node2 -->
<g id="edge77_Node000001_Node000002" class="edge">
<title>Node1&#45;&gt;Node2</title>
<g id="a_edge77_Node000001_Node000002"><a xlink:title=" ">
<path fill="none" stroke="#63b8ff" d="M319.72,-15.25C327.81,-15.25 335.85,-15.25 343.56,-15.25"/>
<polygon fill="#63b8ff" stroke="#63b8ff" points="319.81,-11.75 309.81,-15.25 319.81,-18.75 319.81,-11.75"/>
</a>
</g>
</g>
</g>
</svg>
