<?xml version="1.0" encoding="UTF-8" standalone="no"?>
<!DOCTYPE svg PUBLIC "-//W3C//DTD SVG 1.1//EN"
 "http://www.w3.org/Graphics/SVG/1.1/DTD/svg11.dtd">
<!-- Generated by graphviz version 15.0.0 (20260523.1842)
 -->
<!-- Title: Graphical Class Hierarchy Pages: 1 -->
<svg width="492pt" height="578pt"
 viewBox="0.00 0.00 492.00 578.00" xmlns="http://www.w3.org/2000/svg" xmlns:xlink="http://www.w3.org/1999/xlink">
<g id="graph0" class="graph" transform="scale(1 1) rotate(0) translate(4 573.5)">
<title>Graphical Class Hierarchy</title>
<!-- Node0 -->
<g id="Node000000" class="node">
<title>Node0</title>
<g id="a_Node000000"><a xlink:href="interface_balloon_party_1_1_configuration_1_1_i_balloons_configuration.html" target="_top" xlink:title=" ">
<polygon fill="white" stroke="#666666" points="312.88,-569.5 179.12,-569.5 179.12,-539 312.88,-539 312.88,-569.5"/>
<text xml:space="preserve" text-anchor="start" x="187.12" y="-556" font-family="Helvetica,sans-Serif" font-size="10.00">BalloonParty.Configuration.</text>
<text xml:space="preserve" text-anchor="middle" x="246" y="-544.75" font-family="Helvetica,sans-Serif" font-size="10.00">IBalloonsConfiguration</text>
</a>
</g>
</g>
<!-- Node1 -->
<g id="Node000001" class="node">
<title>Node1</title>
<g id="a_Node000001"><a xlink:href="class_balloon_party_1_1_configuration_1_1_balloons_configuration.html" target="_top" xlink:title=" ">
<polygon fill="white" stroke="#666666" points="483.75,-569.5 350,-569.5 350,-539 483.75,-539 483.75,-569.5"/>
<text xml:space="preserve" text-anchor="start" x="358" y="-556" font-family="Helvetica,sans-Serif" font-size="10.00">BalloonParty.Configuration.</text>
<text xml:space="preserve" text-anchor="middle" x="416.88" y="-544.75" font-family="Helvetica,sans-Serif" font-size="10.00">BalloonsConfiguration</text>
</a>
</g>
</g>
<!-- Node0&#45;&gt;Node1 -->
<g id="edge83_Node000000_Node000001" class="edge">
<title>Node0&#45;&gt;Node1</title>
<g id="a_edge83_Node000000_Node000001"><a xlink:title=" ">
<path fill="none" stroke="#63b8ff" d="M324.55,-554.25C332.9,-554.25 341.33,-554.25 349.53,-554.25"/>
<polygon fill="#63b8ff" stroke="#63b8ff" points="324.77,-550.75 314.77,-554.25 324.77,-557.75 324.77,-550.75"/>
</a>
</g>
</g>
<!-- Node10 -->
<g id="Node000010" class="node">
<title>Node10</title>
<g id="a_Node000010"><a xlink:href="interface_balloon_party_1_1_configuration_1_1_i_cinematics_settings.html" target="_top" xlink:title="The single setup point for cinematics: one composed entry per CinematicState (traits + camera&#45;rig seg...">
<polygon fill="white" stroke="#666666" points="312.88,-520.5 179.12,-520.5 179.12,-490 312.88,-490 312.88,-520.5"/>
<text xml:space="preserve" text-anchor="start" x="187.12" y="-507" font-family="Helvetica,sans-Serif" font-size="10.00">BalloonParty.Configuration.</text>
<text xml:space="preserve" text-anchor="middle" x="246" y="-495.75" font-family="Helvetica,sans-Serif" font-size="10.00">ICinematicsSettings</text>
</a>
</g>
</g>
<!-- Node9 -->
<g id="Node000009" class="node">
<title>Node9</title>
<g id="a_Node000009"><a xlink:href="class_balloon_party_1_1_configuration_1_1_cinematics_settings.html" target="_top" xlink:title="Every cinematic state is declared and tuned here, in one entry per CinematicState (indexed by the enu...">
<polygon fill="white" stroke="#666666" points="483.75,-520.5 350,-520.5 350,-490 483.75,-490 483.75,-520.5"/>
<text xml:space="preserve" text-anchor="start" x="358" y="-507" font-family="Helvetica,sans-Serif" font-size="10.00">BalloonParty.Configuration.</text>
<text xml:space="preserve" text-anchor="middle" x="416.88" y="-495.75" font-family="Helvetica,sans-Serif" font-size="10.00">CinematicsSettings</text>
</a>
</g>
</g>
<!-- Node10&#45;&gt;Node9 -->
<g id="edge84_Node000010_Node000009" class="edge">
<title>Node10&#45;&gt;Node9</title>
<g id="a_edge84_Node000010_Node000009"><a xlink:title=" ">
<path fill="none" stroke="#63b8ff" d="M324.55,-505.25C332.9,-505.25 341.33,-505.25 349.53,-505.25"/>
<polygon fill="#63b8ff" stroke="#63b8ff" points="324.77,-501.75 314.77,-505.25 324.77,-508.75 324.77,-501.75"/>
</a>
</g>
</g>
<!-- Node5 -->
<g id="Node000005" class="node">
<title>Node5</title>
<g id="a_Node000005"><a xlink:href="interface_balloon_party_1_1_slots_1_1_actor_1_1_cluster_1_1_i_cluster_view_settings.html" target="_top" xlink:title="Shared visual configuration for cluster&#45;based renderers (clouds, bushes, etc.).">
<polygon fill="white" stroke="#666666" points="142,-446.5 0,-446.5 0,-416 142,-416 142,-446.5"/>
<text xml:space="preserve" text-anchor="start" x="8" y="-433" font-family="Helvetica,sans-Serif" font-size="10.00">BalloonParty.Slots.Actor.</text>
<text xml:space="preserve" text-anchor="middle" x="71" y="-421.75" font-family="Helvetica,sans-Serif" font-size="10.00">Cluster.IClusterViewSettings</text>
</a>
</g>
</g>
<!-- Node4 -->
<g id="Node000004" class="node">
<title>Node4</title>
<g id="a_Node000004"><a xlink:href="interface_balloon_party_1_1_configuration_1_1_i_bush_settings.html" target="_top" xlink:title=" ">
<polygon fill="white" stroke="#666666" points="312.88,-471.5 179.12,-471.5 179.12,-441 312.88,-441 312.88,-471.5"/>
<text xml:space="preserve" text-anchor="start" x="187.12" y="-458" font-family="Helvetica,sans-Serif" font-size="10.00">BalloonParty.Configuration.</text>
<text xml:space="preserve" text-anchor="middle" x="246" y="-446.75" font-family="Helvetica,sans-Serif" font-size="10.00">IBushSettings</text>
</a>
</g>
</g>
<!-- Node5&#45;&gt;Node4 -->
<g id="edge85_Node000005_Node000004" class="edge">
<title>Node5&#45;&gt;Node4</title>
<g id="a_edge85_Node000005_Node000004"><a xlink:title=" ">
<path fill="none" stroke="#63b8ff" d="M153.49,-443.03C162,-444.26 170.58,-445.5 178.89,-446.7"/>
<polygon fill="#63b8ff" stroke="#63b8ff" points="154.26,-439.6 143.86,-441.63 153.26,-446.53 154.26,-439.6"/>
</a>
</g>
</g>
<!-- Node6 -->
<g id="Node000006" class="node">
<title>Node6</title>
<g id="a_Node000006"><a xlink:href="interface_balloon_party_1_1_configuration_1_1_i_puff_cloud_settings.html" target="_top" xlink:title=" ">
<polygon fill="white" stroke="#666666" points="312.88,-422.5 179.12,-422.5 179.12,-392 312.88,-392 312.88,-422.5"/>
<text xml:space="preserve" text-anchor="start" x="187.12" y="-409" font-family="Helvetica,sans-Serif" font-size="10.00">BalloonParty.Configuration.</text>
<text xml:space="preserve" text-anchor="middle" x="246" y="-397.75" font-family="Helvetica,sans-Serif" font-size="10.00">IPuffCloudSettings</text>
</a>
</g>
</g>
<!-- Node5&#45;&gt;Node6 -->
<g id="edge87_Node000005_Node000006" class="edge">
<title>Node5&#45;&gt;Node6</title>
<g id="a_edge87_Node000005_Node000006"><a xlink:title=" ">
<path fill="none" stroke="#63b8ff" d="M153.49,-419.95C162,-418.76 170.58,-417.57 178.89,-416.42"/>
<polygon fill="#63b8ff" stroke="#63b8ff" points="153.29,-416.44 143.86,-421.28 154.25,-423.37 153.29,-416.44"/>
</a>
</g>
</g>
<!-- Node3 -->
<g id="Node000003" class="node">
<title>Node3</title>
<g id="a_Node000003"><a xlink:href="class_balloon_party_1_1_configuration_1_1_bush_settings.html" target="_top" xlink:title=" ">
<polygon fill="white" stroke="#666666" points="483.75,-471.5 350,-471.5 350,-441 483.75,-441 483.75,-471.5"/>
<text xml:space="preserve" text-anchor="start" x="358" y="-458" font-family="Helvetica,sans-Serif" font-size="10.00">BalloonParty.Configuration.</text>
<text xml:space="preserve" text-anchor="middle" x="416.88" y="-446.75" font-family="Helvetica,sans-Serif" font-size="10.00">BushSettings</text>
</a>
</g>
</g>
<!-- Node4&#45;&gt;Node3 -->
<g id="edge86_Node000004_Node000003" class="edge">
<title>Node4&#45;&gt;Node3</title>
<g id="a_edge86_Node000004_Node000003"><a xlink:title=" ">
<path fill="none" stroke="#63b8ff" d="M324.55,-456.25C332.9,-456.25 341.33,-456.25 349.53,-456.25"/>
<polygon fill="#63b8ff" stroke="#63b8ff" points="324.77,-452.75 314.77,-456.25 324.77,-459.75 324.77,-452.75"/>
</a>
</g>
</g>
<!-- Node7 -->
<g id="Node000007" class="node">
<title>Node7</title>
<g id="a_Node000007"><a xlink:href="class_balloon_party_1_1_configuration_1_1_puff_cloud_settings.html" target="_top" xlink:title=" ">
<polygon fill="white" stroke="#666666" points="483.75,-422.5 350,-422.5 350,-392 483.75,-392 483.75,-422.5"/>
<text xml:space="preserve" text-anchor="start" x="358" y="-409" font-family="Helvetica,sans-Serif" font-size="10.00">BalloonParty.Configuration.</text>
<text xml:space="preserve" text-anchor="middle" x="416.88" y="-397.75" font-family="Helvetica,sans-Serif" font-size="10.00">PuffCloudSettings</text>
</a>
</g>
</g>
<!-- Node6&#45;&gt;Node7 -->
<g id="edge88_Node000006_Node000007" class="edge">
<title>Node6&#45;&gt;Node7</title>
<g id="a_edge88_Node000006_Node000007"><a xlink:title=" ">
<path fill="none" stroke="#63b8ff" d="M324.55,-407.25C332.9,-407.25 341.33,-407.25 349.53,-407.25"/>
<polygon fill="#63b8ff" stroke="#63b8ff" points="324.77,-403.75 314.77,-407.25 324.77,-410.75 324.77,-403.75"/>
</a>
</g>
</g>
<!-- Node12 -->
<g id="Node000012" class="node">
<title>Node12</title>
<g id="a_Node000012"><a xlink:href="interface_balloon_party_1_1_configuration_1_1_i_disturbance_field_settings.html" target="_top" xlink:title=" ">
<polygon fill="white" stroke="#666666" points="312.88,-373.5 179.12,-373.5 179.12,-343 312.88,-343 312.88,-373.5"/>
<text xml:space="preserve" text-anchor="start" x="187.12" y="-360" font-family="Helvetica,sans-Serif" font-size="10.00">BalloonParty.Configuration.</text>
<text xml:space="preserve" text-anchor="middle" x="246" y="-348.75" font-family="Helvetica,sans-Serif" font-size="10.00">IDisturbanceFieldSettings</text>
</a>
</g>
</g>
<!-- Node11 -->
<g id="Node000011" class="node">
<title>Node11</title>
<g id="a_Node000011"><a xlink:href="class_balloon_party_1_1_configuration_1_1_disturbance_field_settings.html" target="_top" xlink:title=" ">
<polygon fill="white" stroke="#666666" points="483.75,-373.5 350,-373.5 350,-343 483.75,-343 483.75,-373.5"/>
<text xml:space="preserve" text-anchor="start" x="358" y="-360" font-family="Helvetica,sans-Serif" font-size="10.00">BalloonParty.Configuration.</text>
<text xml:space="preserve" text-anchor="middle" x="416.88" y="-348.75" font-family="Helvetica,sans-Serif" font-size="10.00">DisturbanceFieldSettings</text>
</a>
</g>
</g>
<!-- Node12&#45;&gt;Node11 -->
<g id="edge89_Node000012_Node000011" class="edge">
<title>Node12&#45;&gt;Node11</title>
<g id="a_edge89_Node000012_Node000011"><a xlink:title=" ">
<path fill="none" stroke="#63b8ff" d="M324.55,-358.25C332.9,-358.25 341.33,-358.25 349.53,-358.25"/>
<polygon fill="#63b8ff" stroke="#63b8ff" points="324.77,-354.75 314.77,-358.25 324.77,-361.75 324.77,-354.75"/>
</a>
</g>
</g>
<!-- Node14 -->
<g id="Node000014" class="node">
<title>Node14</title>
<g id="a_Node000014"><a xlink:href="interface_balloon_party_1_1_shared_1_1_i_game_configuration.html" target="_top" xlink:title=" ">
<polygon fill="white" stroke="#666666" points="314,-275.5 178,-275.5 178,-245 314,-245 314,-275.5"/>
<text xml:space="preserve" text-anchor="start" x="186" y="-262" font-family="Helvetica,sans-Serif" font-size="10.00">BalloonParty.Shared.IGame</text>
<text xml:space="preserve" text-anchor="middle" x="246" y="-250.75" font-family="Helvetica,sans-Serif" font-size="10.00">Configuration</text>
</a>
</g>
</g>
<!-- Node13 -->
<g id="Node000013" class="node">
<title>Node13</title>
<g id="a_Node000013"><a xlink:href="class_balloon_party_1_1_configuration_1_1_game_configuration.html" target="_top" xlink:title=" ">
<polygon fill="white" stroke="#666666" points="483.75,-275.5 350,-275.5 350,-245 483.75,-245 483.75,-275.5"/>
<text xml:space="preserve" text-anchor="start" x="358" y="-262" font-family="Helvetica,sans-Serif" font-size="10.00">BalloonParty.Configuration.</text>
<text xml:space="preserve" text-anchor="middle" x="416.88" y="-250.75" font-family="Helvetica,sans-Serif" font-size="10.00">GameConfiguration</text>
</a>
</g>
</g>
<!-- Node14&#45;&gt;Node13 -->
<g id="edge90_Node000014_Node000013" class="edge">
<title>Node14&#45;&gt;Node13</title>
<g id="a_edge90_Node000014_Node000013"><a xlink:title=" ">
<path fill="none" stroke="#63b8ff" d="M325.56,-260.25C333.64,-260.25 341.78,-260.25 349.7,-260.25"/>
<polygon fill="#63b8ff" stroke="#63b8ff" points="325.74,-256.75 315.74,-260.25 325.74,-263.75 325.74,-256.75"/>
</a>
</g>
</g>
<!-- Node16 -->
<g id="Node000016" class="node">
<title>Node16</title>
<g id="a_Node000016"><a xlink:href="interface_balloon_party_1_1_configuration_1_1_i_game_display_configuration.html" target="_top" xlink:title=" ">
<polygon fill="white" stroke="#666666" points="314,-226.5 178,-226.5 178,-196 314,-196 314,-226.5"/>
<text xml:space="preserve" text-anchor="start" x="186" y="-213" font-family="Helvetica,sans-Serif" font-size="10.00">BalloonParty.Configuration.</text>
<text xml:space="preserve" text-anchor="middle" x="246" y="-201.75" font-family="Helvetica,sans-Serif" font-size="10.00">IGameDisplayConfiguration</text>
</a>
</g>
</g>
<!-- Node15 -->
<g id="Node000015" class="node">
<title>Node15</title>
<g id="a_Node000015"><a xlink:href="class_balloon_party_1_1_configuration_1_1_game_display_configuration.html" target="_top" xlink:title=" ">
<polygon fill="white" stroke="#666666" points="483.75,-226.5 350,-226.5 350,-196 483.75,-196 483.75,-226.5"/>
<text xml:space="preserve" text-anchor="start" x="358" y="-213" font-family="Helvetica,sans-Serif" font-size="10.00">BalloonParty.Configuration.</text>
<text xml:space="preserve" text-anchor="middle" x="416.88" y="-201.75" font-family="Helvetica,sans-Serif" font-size="10.00">GameDisplayConfiguration</text>
</a>
</g>
</g>
<!-- Node16&#45;&gt;Node15 -->
<g id="edge91_Node000016_Node000015" class="edge">
<title>Node16&#45;&gt;Node15</title>
<g id="a_edge91_Node000016_Node000015"><a xlink:title=" ">
<path fill="none" stroke="#63b8ff" d="M325.56,-211.25C333.64,-211.25 341.78,-211.25 349.7,-211.25"/>
<polygon fill="#63b8ff" stroke="#63b8ff" points="325.74,-207.75 315.74,-211.25 325.74,-214.75 325.74,-207.75"/>
</a>
</g>
</g>
<!-- Node18 -->
<g id="Node000018" class="node">
<title>Node18</title>
<g id="a_Node000018"><a xlink:href="interface_balloon_party_1_1_configuration_1_1_i_game_palette.html" target="_top" xlink:title=" ">
<polygon fill="white" stroke="#666666" points="312.88,-177.5 179.12,-177.5 179.12,-147 312.88,-147 312.88,-177.5"/>
<text xml:space="preserve" text-anchor="start" x="187.12" y="-164" font-family="Helvetica,sans-Serif" font-size="10.00">BalloonParty.Configuration.</text>
<text xml:space="preserve" text-anchor="middle" x="246" y="-152.75" font-family="Helvetica,sans-Serif" font-size="10.00">IGamePalette</text>
</a>
</g>
</g>
<!-- Node17 -->
<g id="Node000017" class="node">
<title>Node17</title>
<g id="a_Node000017"><a xlink:href="class_balloon_party_1_1_configuration_1_1_game_palette.html" target="_top" xlink:title=" ">
<polygon fill="white" stroke="#666666" points="483.75,-177.5 350,-177.5 350,-147 483.75,-147 483.75,-177.5"/>
<text xml:space="preserve" text-anchor="start" x="358" y="-164" font-family="Helvetica,sans-Serif" font-size="10.00">BalloonParty.Configuration.</text>
<text xml:space="preserve" text-anchor="middle" x="416.88" y="-152.75" font-family="Helvetica,sans-Serif" font-size="10.00">GamePalette</text>
</a>
</g>
</g>
<!-- Node18&#45;&gt;Node17 -->
<g id="edge92_Node000018_Node000017" class="edge">
<title>Node18&#45;&gt;Node17</title>
<g id="a_edge92_Node000018_Node000017"><a xlink:title=" ">
<path fill="none" stroke="#63b8ff" d="M324.55,-162.25C332.9,-162.25 341.33,-162.25 349.53,-162.25"/>
<polygon fill="#63b8ff" stroke="#63b8ff" points="324.77,-158.75 314.77,-162.25 324.77,-165.75 324.77,-158.75"/>
</a>
</g>
</g>
<!-- Node20 -->
<g id="Node000020" class="node">
<title>Node20</title>
<g id="a_Node000020"><a xlink:href="interface_balloon_party_1_1_configuration_1_1_i_grid_actor_configuration.html" target="_top" xlink:title=" ">
<polygon fill="white" stroke="#666666" points="312.88,-128.5 179.12,-128.5 179.12,-98 312.88,-98 312.88,-128.5"/>
<text xml:space="preserve" text-anchor="start" x="187.12" y="-115" font-family="Helvetica,sans-Serif" font-size="10.00">BalloonParty.Configuration.</text>
<text xml:space="preserve" text-anchor="middle" x="246" y="-103.75" font-family="Helvetica,sans-Serif" font-size="10.00">IGridActorConfiguration</text>
</a>
</g>
</g>
<!-- Node19 -->
<g id="Node000019" class="node">
<title>Node19</title>
<g id="a_Node000019"><a xlink:href="class_balloon_party_1_1_configuration_1_1_grid_actor_configuration.html" target="_top" xlink:title=" ">
<polygon fill="white" stroke="#666666" points="483.75,-128.5 350,-128.5 350,-98 483.75,-98 483.75,-128.5"/>
<text xml:space="preserve" text-anchor="start" x="358" y="-115" font-family="Helvetica,sans-Serif" font-size="10.00">BalloonParty.Configuration.</text>
<text xml:space="preserve" text-anchor="middle" x="416.88" y="-103.75" font-family="Helvetica,sans-Serif" font-size="10.00">GridActorConfiguration</text>
</a>
</g>
</g>
<!-- Node20&#45;&gt;Node19 -->
<g id="edge93_Node000020_Node000019" class="edge">
<title>Node20&#45;&gt;Node19</title>
<g id="a_edge93_Node000020_Node000019"><a xlink:title=" ">
<path fill="none" stroke="#63b8ff" d="M324.55,-113.25C332.9,-113.25 341.33,-113.25 349.53,-113.25"/>
<polygon fill="#63b8ff" stroke="#63b8ff" points="324.77,-109.75 314.77,-113.25 324.77,-116.75 324.77,-109.75"/>
</a>
</g>
</g>
<!-- Node22 -->
<g id="Node000022" class="node">
<title>Node22</title>
<g id="a_Node000022"><a xlink:href="interface_balloon_party_1_1_configuration_1_1_i_item_configuration.html" target="_top" xlink:title=" ">
<polygon fill="white" stroke="#666666" points="312.88,-79.5 179.12,-79.5 179.12,-49 312.88,-49 312.88,-79.5"/>
<text xml:space="preserve" text-anchor="start" x="187.12" y="-66" font-family="Helvetica,sans-Serif" font-size="10.00">BalloonParty.Configuration.</text>
<text xml:space="preserve" text-anchor="middle" x="246" y="-54.75" font-family="Helvetica,sans-Serif" font-size="10.00">IItemConfiguration</text>
</a>
</g>
</g>
<!-- Node21 -->
<g id="Node000021" class="node">
<title>Node21</title>
<g id="a_Node000021"><a xlink:href="class_balloon_party_1_1_configuration_1_1_item_configuration.html" target="_top" xlink:title=" ">
<polygon fill="white" stroke="#666666" points="483.75,-79.5 350,-79.5 350,-49 483.75,-49 483.75,-79.5"/>
<text xml:space="preserve" text-anchor="start" x="358" y="-66" font-family="Helvetica,sans-Serif" font-size="10.00">BalloonParty.Configuration.</text>
<text xml:space="preserve" text-anchor="middle" x="416.88" y="-54.75" font-family="Helvetica,sans-Serif" font-size="10.00">ItemConfiguration</text>
</a>
</g>
</g>
<!-- Node22&#45;&gt;Node21 -->
<g id="edge94_Node000022_Node000021" class="edge">
<title>Node22&#45;&gt;Node21</title>
<g id="a_edge94_Node000022_Node000021"><a xlink:title=" ">
<path fill="none" stroke="#63b8ff" d="M324.55,-64.25C332.9,-64.25 341.33,-64.25 349.53,-64.25"/>
<polygon fill="#63b8ff" stroke="#63b8ff" points="324.77,-60.75 314.77,-64.25 324.77,-67.75 324.77,-60.75"/>
</a>
</g>
</g>
<!-- Node24 -->
<g id="Node000024" class="node">
<title>Node24</title>
<g id="a_Node000024"><a xlink:href="interface_balloon_party_1_1_configuration_1_1_i_overflow_settings.html" target="_top" xlink:title="Tuning for the overflow pile below the grid (rejected balloons) — see Balloon/Spawner/RejectedBalloon...">
<polygon fill="white" stroke="#666666" points="312.88,-30.5 179.12,-30.5 179.12,0 312.88,0 312.88,-30.5"/>
<text xml:space="preserve" text-anchor="start" x="187.12" y="-17" font-family="Helvetica,sans-Serif" font-size="10.00">BalloonParty.Configuration.</text>
<text xml:space="preserve" text-anchor="middle" x="246" y="-5.75" font-family="Helvetica,sans-Serif" font-size="10.00">IOverflowSettings</text>
</a>
</g>
</g>
<!-- Node23 -->
<g id="Node000023" class="node">
<title>Node23</title>
<g id="a_Node000023"><a xlink:href="class_balloon_party_1_1_configuration_1_1_overflow_settings.html" target="_top" xlink:title=" ">
<polygon fill="white" stroke="#666666" points="483.75,-30.5 350,-30.5 350,0 483.75,0 483.75,-30.5"/>
<text xml:space="preserve" text-anchor="start" x="358" y="-17" font-family="Helvetica,sans-Serif" font-size="10.00">BalloonParty.Configuration.</text>
<text xml:space="preserve" text-anchor="middle" x="416.88" y="-5.75" font-family="Helvetica,sans-Serif" font-size="10.00">OverflowSettings</text>
</a>
</g>
</g>
<!-- Node24&#45;&gt;Node23 -->
<g id="edge95_Node000024_Node000023" class="edge">
<title>Node24&#45;&gt;Node23</title>
<g id="a_edge95_Node000024_Node000023"><a xlink:title=" ">
<path fill="none" stroke="#63b8ff" d="M324.55,-15.25C332.9,-15.25 341.33,-15.25 349.53,-15.25"/>
<polygon fill="#63b8ff" stroke="#63b8ff" points="324.77,-11.75 314.77,-15.25 324.77,-18.75 324.77,-11.75"/>
</a>
</g>
</g>
<!-- Node2 -->
<g id="Node000002" class="node">
<title>Node2</title>
<g id="a_Node000002"><a xlink:title=" ">
<polygon fill="#e0e0e0" stroke="#999999" points="290,-315.88 202,-315.88 202,-296.62 290,-296.62 290,-315.88"/>
<text xml:space="preserve" text-anchor="middle" x="246" y="-302.38" font-family="Helvetica,sans-Serif" font-size="10.00">ScriptableObject</text>
</a>
</g>
</g>
<!-- Node2&#45;&gt;Node1 -->
<g id="edge96_Node000002_Node000001" class="edge">
<title>Node2&#45;&gt;Node1</title>
<g id="a_edge96_Node000002_Node000001"><a xlink:title=" ">
<path fill="none" stroke="#63b8ff" d="M298.81,-321.43C304.57,-324.88 309.84,-329.1 314,-334.25 369.33,-402.85 293.54,-461.58 350,-529.25 352.98,-532.82 356.52,-535.88 360.4,-538.5"/>
<polygon fill="#63b8ff" stroke="#63b8ff" points="300.63,-318.43 290.13,-317.01 297.46,-324.66 300.63,-318.43"/>
</a>
</g>
</g>
<!-- Node2&#45;&gt;Node9 -->
<g id="edge99_Node000002_Node000009" class="edge">
<title>Node2&#45;&gt;Node9</title>
<g id="a_edge99_Node000002_Node000009"><a xlink:title=" ">
<path fill="none" stroke="#63b8ff" d="M297.67,-321.17C303.8,-324.67 309.48,-328.97 314,-334.25 357.48,-385 305.69,-430.22 350,-480.25 353.16,-483.82 356.89,-486.88 360.94,-489.51"/>
<polygon fill="#63b8ff" stroke="#63b8ff" points="299.64,-318.24 289.12,-316.96 296.55,-324.52 299.64,-318.24"/>
</a>
</g>
</g>
<!-- Node2&#45;&gt;Node3 -->
<g id="edge97_Node000002_Node000003" class="edge">
<title>Node2&#45;&gt;Node3</title>
<g id="a_edge97_Node000002_Node000003"><a xlink:title=" ">
<path fill="none" stroke="#63b8ff" d="M295.77,-320.92C302.49,-324.49 308.84,-328.87 314,-334.25 345.85,-367.42 317.6,-398.62 350,-431.25 353.53,-434.81 357.62,-437.87 362,-440.5"/>
<polygon fill="#63b8ff" stroke="#63b8ff" points="297.68,-317.95 287.14,-316.9 294.72,-324.29 297.68,-317.95"/>
</a>
</g>
</g>
<!-- Node2&#45;&gt;Node7 -->
<g id="edge107_Node000002_Node000007" class="edge">
<title>Node2&#45;&gt;Node7</title>
<g id="a_edge107_Node000002_Node000007"><a xlink:title=" ">
<path fill="none" stroke="#63b8ff" d="M291.09,-320.72C299.14,-324.43 307.15,-328.92 314,-334.25 335.04,-350.63 328.69,-366.22 350,-382.25 354.69,-385.78 359.94,-388.87 365.37,-391.55"/>
<polygon fill="#63b8ff" stroke="#63b8ff" points="292.55,-317.53 281.97,-316.86 289.82,-323.98 292.55,-317.53"/>
</a>
</g>
</g>
<!-- Node2&#45;&gt;Node11 -->
<g id="edge100_Node000002_Node000011" class="edge">
<title>Node2&#45;&gt;Node11</title>
<g id="a_edge100_Node000002_Node000011"><a xlink:title=" ">
<path fill="none" stroke="#63b8ff" d="M290.26,-319.57C312.99,-326.57 341.01,-335.2 364.81,-342.52"/>
<polygon fill="#63b8ff" stroke="#63b8ff" points="291.59,-316.32 281.01,-316.72 289.53,-323.01 291.59,-316.32"/>
</a>
</g>
</g>
<!-- Node2&#45;&gt;Node13 -->
<g id="edge101_Node000002_Node000013" class="edge">
<title>Node2&#45;&gt;Node13</title>
<g id="a_edge101_Node000002_Node000013"><a xlink:title=" ">
<path fill="none" stroke="#63b8ff" d="M294.95,-293.19C314.67,-287.82 337.69,-281.55 358.32,-275.93"/>
<polygon fill="#63b8ff" stroke="#63b8ff" points="294.25,-289.75 285.52,-295.76 296.09,-296.51 294.25,-289.75"/>
</a>
</g>
</g>
<!-- Node2&#45;&gt;Node15 -->
<g id="edge102_Node000002_Node000015" class="edge">
<title>Node2&#45;&gt;Node15</title>
<g id="a_edge102_Node000002_Node000015"><a xlink:title=" ">
<path fill="none" stroke="#63b8ff" d="M300.75,-291.96C305.42,-289.73 309.92,-287.18 314,-284.25 335.67,-268.71 328.69,-252.28 350,-236.25 354.69,-232.72 359.94,-229.63 365.37,-226.95"/>
<polygon fill="#63b8ff" stroke="#63b8ff" points="299.6,-288.65 291.73,-295.74 302.3,-295.1 299.6,-288.65"/>
</a>
</g>
</g>
<!-- Node2&#45;&gt;Node17 -->
<g id="edge103_Node000002_Node000017" class="edge">
<title>Node2&#45;&gt;Node17</title>
<g id="a_edge103_Node000002_Node000017"><a xlink:title=" ">
<path fill="none" stroke="#63b8ff" d="M300.58,-293.76C305.48,-291.16 310.07,-288.03 314,-284.25 347.13,-252.36 317.6,-219.88 350,-187.25 353.53,-183.69 357.62,-180.63 362,-178"/>
<polygon fill="#63b8ff" stroke="#63b8ff" points="299.3,-290.49 291.58,-297.75 302.14,-296.89 299.3,-290.49"/>
</a>
</g>
</g>
<!-- Node2&#45;&gt;Node19 -->
<g id="edge104_Node000002_Node000019" class="edge">
<title>Node2&#45;&gt;Node19</title>
<g id="a_edge104_Node000002_Node000019"><a xlink:title=" ">
<path fill="none" stroke="#63b8ff" d="M300.84,-294.31C305.73,-291.61 310.24,-288.3 314,-284.25 359.44,-235.24 305.69,-188.28 350,-138.25 353.16,-134.68 356.89,-131.62 360.94,-128.99"/>
<polygon fill="#63b8ff" stroke="#63b8ff" points="299.45,-291.09 291.79,-298.41 302.34,-297.47 299.45,-291.09"/>
</a>
</g>
</g>
<!-- Node2&#45;&gt;Node21 -->
<g id="edge105_Node000002_Node000021" class="edge">
<title>Node2&#45;&gt;Node21</title>
<g id="a_edge105_Node000002_Node000021"><a xlink:title=" ">
<path fill="none" stroke="#63b8ff" d="M300.51,-294.85C305.58,-292.06 310.22,-288.58 314,-284.25 371.98,-217.88 293.54,-156.92 350,-89.25 352.98,-85.68 356.52,-82.62 360.4,-80"/>
<polygon fill="#63b8ff" stroke="#63b8ff" points="299.42,-291.51 291.74,-298.81 302.3,-297.89 299.42,-291.51"/>
</a>
</g>
</g>
<!-- Node2&#45;&gt;Node23 -->
<g id="edge106_Node000002_Node000023" class="edge">
<title>Node2&#45;&gt;Node23</title>
<g id="a_edge106_Node000002_Node000023"><a xlink:title=" ">
<path fill="none" stroke="#63b8ff" d="M300.47,-295.1C305.58,-292.26 310.25,-288.7 314,-284.25 384.62,-200.41 281.3,-125.67 350,-40.25 352.91,-36.63 356.41,-33.53 360.26,-30.88"/>
<polygon fill="#63b8ff" stroke="#63b8ff" points="299.26,-291.8 291.59,-299.1 302.14,-298.18 299.26,-291.8"/>
</a>
</g>
</g>
<!-- Node8 -->
<g id="Node000008" class="node">
<title>Node8</title>
<g id="a_Node000008"><a xlink:href="class_balloon_party_1_1_configuration_1_1_bush_variant_data.html" target="_top" xlink:title="Pre&#45;baked bush variant: branch map texture + leaf attachment points.">
<polygon fill="white" stroke="#666666" points="483.75,-324.5 350,-324.5 350,-294 483.75,-294 483.75,-324.5"/>
<text xml:space="preserve" text-anchor="start" x="358" y="-311" font-family="Helvetica,sans-Serif" font-size="10.00">BalloonParty.Configuration.</text>
<text xml:space="preserve" text-anchor="middle" x="416.88" y="-299.75" font-family="Helvetica,sans-Serif" font-size="10.00">BushVariantData</text>
</a>
</g>
</g>
<!-- Node2&#45;&gt;Node8 -->
<g id="edge98_Node000002_Node000008" class="edge">
<title>Node2&#45;&gt;Node8</title>
<g id="a_edge98_Node000002_Node000008"><a xlink:title=" ">
<path fill="none" stroke="#63b8ff" d="M301.81,-307.22C317.05,-307.49 333.75,-307.79 349.57,-308.07"/>
<polygon fill="#63b8ff" stroke="#63b8ff" points="302.06,-303.73 292,-307.05 301.94,-310.73 302.06,-303.73"/>
</a>
</g>
</g>
</g>
</svg>
