<?xml version="1.0" encoding="UTF-8" standalone="no"?>
<!DOCTYPE svg PUBLIC "-//W3C//DTD SVG 1.1//EN"
 "http://www.w3.org/Graphics/SVG/1.1/DTD/svg11.dtd">
<!-- Generated by graphviz version 15.0.0 (20260523.1842)
 -->
<!-- Title: Graphical Class Hierarchy Pages: 1 -->
<svg width="523pt" height="88pt"
 viewBox="0.00 0.00 523.00 88.00" xmlns="http://www.w3.org/2000/svg" xmlns:xlink="http://www.w3.org/1999/xlink">
<g id="graph0" class="graph" transform="scale(1 1) rotate(0) translate(4 83.5)">
<title>Graphical Class Hierarchy</title>
<!-- Node0 -->
<g id="Node000000" class="node">
<title>Node0</title>
<g id="a_Node000000"><a xlink:href="interface_balloon_party_1_1_slots_1_1_capabilities_1_1_i_has_color.html" target="_top" xlink:title=" ">
<polygon fill="white" stroke="#666666" points="152.5,-54.5 0,-54.5 0,-24 152.5,-24 152.5,-54.5"/>
<text xml:space="preserve" text-anchor="start" x="8" y="-41" font-family="Helvetica,sans-Serif" font-size="10.00">BalloonParty.Slots.Capabilities.</text>
<text xml:space="preserve" text-anchor="middle" x="76.25" y="-29.75" font-family="Helvetica,sans-Serif" font-size="10.00">IHasColor</text>
</a>
</g>
</g>
<!-- Node1 -->
<g id="Node000001" class="node">
<title>Node1</title>
<g id="a_Node000001"><a xlink:href="interface_balloon_party_1_1_slots_1_1_capabilities_1_1_i_has_item_slot.html" target="_top" xlink:title="Declares that an actor can host an item.">
<polygon fill="white" stroke="#666666" points="341,-79.5 188.5,-79.5 188.5,-49 341,-49 341,-79.5"/>
<text xml:space="preserve" text-anchor="start" x="196.5" y="-66" font-family="Helvetica,sans-Serif" font-size="10.00">BalloonParty.Slots.Capabilities.</text>
<text xml:space="preserve" text-anchor="middle" x="264.75" y="-54.75" font-family="Helvetica,sans-Serif" font-size="10.00">IHasItemSlot</text>
</a>
</g>
</g>
<!-- Node0&#45;&gt;Node1 -->
<g id="edge68_Node000000_Node000001" class="edge">
<title>Node0&#45;&gt;Node1</title>
<g id="a_edge68_Node000000_Node000001"><a xlink:title=" ">
<path fill="none" stroke="#63b8ff" d="M164.09,-50.89C172.09,-51.96 180.16,-53.04 188.05,-54.1"/>
<polygon fill="#63b8ff" stroke="#63b8ff" points="164.71,-47.44 154.34,-49.58 163.78,-54.38 164.71,-47.44"/>
</a>
</g>
</g>
<!-- Node3 -->
<g id="Node000003" class="node">
<title>Node3</title>
<g id="a_Node000003"><a xlink:href="interface_balloon_party_1_1_slots_1_1_capabilities_1_1_i_paintable.html" target="_top" xlink:title="Declares that an actor&#39;s color identity can be overwritten.">
<polygon fill="white" stroke="#666666" points="341,-30.5 188.5,-30.5 188.5,0 341,0 341,-30.5"/>
<text xml:space="preserve" text-anchor="start" x="196.5" y="-17" font-family="Helvetica,sans-Serif" font-size="10.00">BalloonParty.Slots.Capabilities.</text>
<text xml:space="preserve" text-anchor="middle" x="264.75" y="-5.75" font-family="Helvetica,sans-Serif" font-size="10.00">IPaintable</text>
</a>
</g>
</g>
<!-- Node0&#45;&gt;Node3 -->
<g id="edge70_Node000000_Node000003" class="edge">
<title>Node0&#45;&gt;Node3</title>
<g id="a_edge70_Node000000_Node000003"><a xlink:title=" ">
<path fill="none" stroke="#63b8ff" d="M164.09,-28.08C172.09,-27.05 180.16,-26.01 188.05,-24.99"/>
<polygon fill="#63b8ff" stroke="#63b8ff" points="163.81,-24.58 154.34,-29.33 164.7,-31.52 163.81,-24.58"/>
</a>
</g>
</g>
<!-- Node2 -->
<g id="Node000002" class="node">
<title>Node2</title>
<g id="a_Node000002"><a xlink:href="interface_balloon_party_1_1_balloon_1_1_model_1_1_i_has_writeable_item_slot.html" target="_top" xlink:title=" ">
<polygon fill="white" stroke="#666666" points="514.5,-79.5 377,-79.5 377,-49 514.5,-49 514.5,-79.5"/>
<text xml:space="preserve" text-anchor="start" x="385" y="-66" font-family="Helvetica,sans-Serif" font-size="10.00">BalloonParty.Balloon.Model.</text>
<text xml:space="preserve" text-anchor="middle" x="445.75" y="-54.75" font-family="Helvetica,sans-Serif" font-size="10.00">IHasWriteableItemSlot</text>
</a>
</g>
</g>
<!-- Node1&#45;&gt;Node2 -->
<g id="edge69_Node000001_Node000002" class="edge">
<title>Node1&#45;&gt;Node2</title>
<g id="a_edge69_Node000001_Node000002"><a xlink:title=" ">
<path fill="none" stroke="#63b8ff" d="M352.75,-64.25C360.81,-64.25 368.9,-64.25 376.75,-64.25"/>
<polygon fill="#63b8ff" stroke="#63b8ff" points="352.92,-60.75 342.92,-64.25 352.92,-67.75 352.92,-60.75"/>
</a>
</g>
</g>
</g>
</svg>
