<?xml version="1.0" encoding="UTF-8" standalone="no"?>
<!DOCTYPE svg PUBLIC "-//W3C//DTD SVG 1.1//EN"
 "http://www.w3.org/Graphics/SVG/1.1/DTD/svg11.dtd">
<!-- Generated by graphviz version 15.0.0 (20260523.1842)
 -->
<!-- Title: Graphical Class Hierarchy Pages: 1 -->
<svg width="312pt" height="137pt"
 viewBox="0.00 0.00 312.00 137.00" xmlns="http://www.w3.org/2000/svg" xmlns:xlink="http://www.w3.org/1999/xlink">
<g id="graph0" class="graph" transform="scale(1 1) rotate(0) translate(4 132.5)">
<title>Graphical Class Hierarchy</title>
<!-- Node0 -->
<g id="Node000000" class="node">
<title>Node0</title>
<g id="a_Node000000"><a xlink:href="interface_balloon_party_1_1_configuration_1_1_i_weighted_entry.html" target="_top" xlink:title="Common contract for weighted prefab entries that support max&#45;count limits.">
<polygon fill="white" stroke="#666666" points="133.75,-79.5 0,-79.5 0,-49 133.75,-49 133.75,-79.5"/>
<text xml:space="preserve" text-anchor="start" x="8" y="-66" font-family="Helvetica,sans-Serif" font-size="10.00">BalloonParty.Configuration.</text>
<text xml:space="preserve" text-anchor="middle" x="66.88" y="-54.75" font-family="Helvetica,sans-Serif" font-size="10.00">IWeightedEntry</text>
</a>
</g>
</g>
<!-- Node1 -->
<g id="Node000001" class="node">
<title>Node1</title>
<g id="a_Node000001"><a xlink:href="class_balloon_party_1_1_configuration_1_1_balloon_prefab_entry.html" target="_top" xlink:title=" ">
<polygon fill="white" stroke="#666666" points="303.5,-128.5 169.75,-128.5 169.75,-98 303.5,-98 303.5,-128.5"/>
<text xml:space="preserve" text-anchor="start" x="177.75" y="-115" font-family="Helvetica,sans-Serif" font-size="10.00">BalloonParty.Configuration.</text>
<text xml:space="preserve" text-anchor="middle" x="236.62" y="-103.75" font-family="Helvetica,sans-Serif" font-size="10.00">BalloonPrefabEntry</text>
</a>
</g>
</g>
<!-- Node0&#45;&gt;Node1 -->
<g id="edge108_Node000000_Node000001" class="edge">
<title>Node0&#45;&gt;Node1</title>
<g id="a_edge108_Node000000_Node000001"><a xlink:title=" ">
<path fill="none" stroke="#63b8ff" d="M132.01,-82.98C148.42,-87.78 165.9,-92.88 181.73,-97.51"/>
<polygon fill="#63b8ff" stroke="#63b8ff" points="133.45,-79.76 122.87,-80.31 131.48,-86.48 133.45,-79.76"/>
</a>
</g>
</g>
<!-- Node2 -->
<g id="Node000002" class="node">
<title>Node2</title>
<g id="a_Node000002"><a xlink:href="class_balloon_party_1_1_configuration_1_1_grid_actor_prefab_entry.html" target="_top" xlink:title=" ">
<polygon fill="white" stroke="#666666" points="303.5,-79.5 169.75,-79.5 169.75,-49 303.5,-49 303.5,-79.5"/>
<text xml:space="preserve" text-anchor="start" x="177.75" y="-66" font-family="Helvetica,sans-Serif" font-size="10.00">BalloonParty.Configuration.</text>
<text xml:space="preserve" text-anchor="middle" x="236.62" y="-54.75" font-family="Helvetica,sans-Serif" font-size="10.00">GridActorPrefabEntry</text>
</a>
</g>
</g>
<!-- Node0&#45;&gt;Node2 -->
<g id="edge109_Node000000_Node000002" class="edge">
<title>Node0&#45;&gt;Node2</title>
<g id="a_edge109_Node000000_Node000002"><a xlink:title=" ">
<path fill="none" stroke="#63b8ff" d="M145.65,-64.25C153.54,-64.25 161.5,-64.25 169.26,-64.25"/>
<polygon fill="#63b8ff" stroke="#63b8ff" points="145.69,-60.75 135.69,-64.25 145.69,-67.75 145.69,-60.75"/>
</a>
</g>
</g>
<!-- Node3 -->
<g id="Node000003" class="node">
<title>Node3</title>
<g id="a_Node000003"><a xlink:href="class_balloon_party_1_1_configuration_1_1_item_settings.html" target="_top" xlink:title=" ">
<polygon fill="white" stroke="#666666" points="303.5,-30.5 169.75,-30.5 169.75,0 303.5,0 303.5,-30.5"/>
<text xml:space="preserve" text-anchor="start" x="177.75" y="-17" font-family="Helvetica,sans-Serif" font-size="10.00">BalloonParty.Configuration.</text>
<text xml:space="preserve" text-anchor="middle" x="236.62" y="-5.75" font-family="Helvetica,sans-Serif" font-size="10.00">ItemSettings</text>
</a>
</g>
</g>
<!-- Node0&#45;&gt;Node3 -->
<g id="edge110_Node000000_Node000003" class="edge">
<title>Node0&#45;&gt;Node3</title>
<g id="a_edge110_Node000000_Node000003"><a xlink:title=" ">
<path fill="none" stroke="#63b8ff" d="M132.01,-45.52C148.42,-40.72 165.9,-35.62 181.73,-30.99"/>
<polygon fill="#63b8ff" stroke="#63b8ff" points="131.48,-42.02 122.87,-48.19 133.45,-48.74 131.48,-42.02"/>
</a>
</g>
</g>
</g>
</svg>
