<?xml version="1.0" encoding="UTF-8" standalone="no"?>
<!DOCTYPE svg PUBLIC "-//W3C//DTD SVG 1.1//EN"
 "http://www.w3.org/Graphics/SVG/1.1/DTD/svg11.dtd">
<!-- Generated by graphviz version 15.0.0 (20260523.1842)
 -->
<!-- Title: Graphical Class Hierarchy Pages: 1 -->
<svg width="314pt" height="284pt"
 viewBox="0.00 0.00 314.00 284.00" xmlns="http://www.w3.org/2000/svg" xmlns:xlink="http://www.w3.org/1999/xlink">
<g id="graph0" class="graph" transform="scale(1 1) rotate(0) translate(4 279.5)">
<title>Graphical Class Hierarchy</title>
<!-- Node0 -->
<g id="Node000000" class="node">
<title>Node0</title>
<g id="a_Node000000"><a xlink:href="interface_balloon_party_1_1_shared_1_1_i_game_configuration.html" target="_top" xlink:title=" ">
<polygon fill="white" stroke="#666666" points="136,-275.5 0,-275.5 0,-245 136,-245 136,-275.5"/>
<text xml:space="preserve" text-anchor="start" x="8" y="-262" font-family="Helvetica,sans-Serif" font-size="10.00">BalloonParty.Shared.IGame</text>
<text xml:space="preserve" text-anchor="middle" x="68" y="-250.75" font-family="Helvetica,sans-Serif" font-size="10.00">Configuration</text>
</a>
</g>
</g>
<!-- Node1 -->
<g id="Node000001" class="node">
<title>Node1</title>
<g id="a_Node000001"><a xlink:href="class_balloon_party_1_1_configuration_1_1_game_configuration.html" target="_top" xlink:title=" ">
<polygon fill="white" stroke="#666666" points="305.75,-275.5 172,-275.5 172,-245 305.75,-245 305.75,-275.5"/>
<text xml:space="preserve" text-anchor="start" x="180" y="-262" font-family="Helvetica,sans-Serif" font-size="10.00">BalloonParty.Configuration.</text>
<text xml:space="preserve" text-anchor="middle" x="238.88" y="-250.75" font-family="Helvetica,sans-Serif" font-size="10.00">GameConfiguration</text>
</a>
</g>
</g>
<!-- Node0&#45;&gt;Node1 -->
<g id="edge78_Node000000_Node000001" class="edge">
<title>Node0&#45;&gt;Node1</title>
<g id="a_edge78_Node000000_Node000001"><a xlink:title=" ">
<path fill="none" stroke="#63b8ff" d="M147.56,-260.25C155.64,-260.25 163.78,-260.25 171.7,-260.25"/>
<polygon fill="#63b8ff" stroke="#63b8ff" points="147.74,-256.75 137.74,-260.25 147.74,-263.75 147.74,-256.75"/>
</a>
</g>
</g>
<!-- Node2 -->
<g id="Node000002" class="node">
<title>Node2</title>
<g id="a_Node000002"><a xlink:title=" ">
<polygon fill="#e0e0e0" stroke="#999999" points="112,-147.88 24,-147.88 24,-128.62 112,-128.62 112,-147.88"/>
<text xml:space="preserve" text-anchor="middle" x="68" y="-134.38" font-family="Helvetica,sans-Serif" font-size="10.00">ScriptableObject</text>
</a>
</g>
</g>
<!-- Node2&#45;&gt;Node1 -->
<g id="edge80_Node000002_Node000001" class="edge">
<title>Node2&#45;&gt;Node1</title>
<g id="a_edge80_Node000002_Node000001"><a xlink:title=" ">
<path fill="none" stroke="#63b8ff" d="M84.41,-156.62C103.2,-178.01 136.81,-213.23 172,-235.25 177.5,-238.69 183.54,-241.78 189.67,-244.51"/>
<polygon fill="#63b8ff" stroke="#63b8ff" points="87.25,-154.56 78.08,-149.26 81.95,-159.12 87.25,-154.56"/>
</a>
</g>
</g>
<!-- Node3 -->
<g id="Node000003" class="node">
<title>Node3</title>
<g id="a_Node000003"><a xlink:href="class_balloon_party_1_1_configuration_1_1_balloons_configuration.html" target="_top" xlink:title=" ">
<polygon fill="white" stroke="#666666" points="305.75,-226.5 172,-226.5 172,-196 305.75,-196 305.75,-226.5"/>
<text xml:space="preserve" text-anchor="start" x="180" y="-213" font-family="Helvetica,sans-Serif" font-size="10.00">BalloonParty.Configuration.</text>
<text xml:space="preserve" text-anchor="middle" x="238.88" y="-201.75" font-family="Helvetica,sans-Serif" font-size="10.00">BalloonsConfiguration</text>
</a>
</g>
</g>
<!-- Node2&#45;&gt;Node3 -->
<g id="edge79_Node000002_Node000003" class="edge">
<title>Node2&#45;&gt;Node3</title>
<g id="a_edge79_Node000002_Node000003"><a xlink:title=" ">
<path fill="none" stroke="#63b8ff" d="M99.55,-153.21C119.91,-162.99 147.35,-175.85 172,-186.25 179.44,-189.39 187.42,-192.57 195.17,-195.57"/>
<polygon fill="#63b8ff" stroke="#63b8ff" points="101.21,-150.12 90.68,-148.92 98.16,-156.42 101.21,-150.12"/>
</a>
</g>
</g>
<!-- Node4 -->
<g id="Node000004" class="node">
<title>Node4</title>
<g id="a_Node000004"><a xlink:href="class_balloon_party_1_1_configuration_1_1_game_display_configuration.html" target="_top" xlink:title=" ">
<polygon fill="white" stroke="#666666" points="305.75,-177.5 172,-177.5 172,-147 305.75,-147 305.75,-177.5"/>
<text xml:space="preserve" text-anchor="start" x="180" y="-164" font-family="Helvetica,sans-Serif" font-size="10.00">BalloonParty.Configuration.</text>
<text xml:space="preserve" text-anchor="middle" x="238.88" y="-152.75" font-family="Helvetica,sans-Serif" font-size="10.00">GameDisplayConfiguration</text>
</a>
</g>
</g>
<!-- Node2&#45;&gt;Node4 -->
<g id="edge81_Node000002_Node000004" class="edge">
<title>Node2&#45;&gt;Node4</title>
<g id="a_edge81_Node000002_Node000004"><a xlink:title=" ">
<path fill="none" stroke="#63b8ff" d="M123.81,-146.04C139.05,-148.2 155.75,-150.58 171.57,-152.83"/>
<polygon fill="#63b8ff" stroke="#63b8ff" points="124.38,-142.59 113.99,-144.64 123.4,-149.52 124.38,-142.59"/>
</a>
</g>
</g>
<!-- Node5 -->
<g id="Node000005" class="node">
<title>Node5</title>
<g id="a_Node000005"><a xlink:href="class_balloon_party_1_1_configuration_1_1_game_palette.html" target="_top" xlink:title=" ">
<polygon fill="white" stroke="#666666" points="305.75,-128.5 172,-128.5 172,-98 305.75,-98 305.75,-128.5"/>
<text xml:space="preserve" text-anchor="start" x="180" y="-115" font-family="Helvetica,sans-Serif" font-size="10.00">BalloonParty.Configuration.</text>
<text xml:space="preserve" text-anchor="middle" x="238.88" y="-103.75" font-family="Helvetica,sans-Serif" font-size="10.00">GamePalette</text>
</a>
</g>
</g>
<!-- Node2&#45;&gt;Node5 -->
<g id="edge82_Node000002_Node000005" class="edge">
<title>Node2&#45;&gt;Node5</title>
<g id="a_edge82_Node000002_Node000005"><a xlink:title=" ">
<path fill="none" stroke="#63b8ff" d="M123.81,-130.14C139.05,-127.88 155.75,-125.41 171.57,-123.07"/>
<polygon fill="#63b8ff" stroke="#63b8ff" points="123.37,-126.66 113.99,-131.59 124.39,-133.59 123.37,-126.66"/>
</a>
</g>
</g>
<!-- Node6 -->
<g id="Node000006" class="node">
<title>Node6</title>
<g id="a_Node000006"><a xlink:href="class_balloon_party_1_1_configuration_1_1_grid_actor_configuration.html" target="_top" xlink:title=" ">
<polygon fill="white" stroke="#666666" points="305.75,-79.5 172,-79.5 172,-49 305.75,-49 305.75,-79.5"/>
<text xml:space="preserve" text-anchor="start" x="180" y="-66" font-family="Helvetica,sans-Serif" font-size="10.00">BalloonParty.Configuration.</text>
<text xml:space="preserve" text-anchor="middle" x="238.88" y="-54.75" font-family="Helvetica,sans-Serif" font-size="10.00">GridActorConfiguration</text>
</a>
</g>
</g>
<!-- Node2&#45;&gt;Node6 -->
<g id="edge83_Node000002_Node000006" class="edge">
<title>Node2&#45;&gt;Node6</title>
<g id="a_edge83_Node000002_Node000006"><a xlink:title=" ">
<path fill="none" stroke="#63b8ff" d="M99.14,-123.12C119.52,-113.08 147.14,-99.86 172,-89.25 179.43,-86.08 187.4,-82.88 195.15,-79.88"/>
<polygon fill="#63b8ff" stroke="#63b8ff" points="97.67,-119.94 90.27,-127.51 100.78,-126.21 97.67,-119.94"/>
</a>
</g>
</g>
<!-- Node7 -->
<g id="Node000007" class="node">
<title>Node7</title>
<g id="a_Node000007"><a xlink:href="class_balloon_party_1_1_configuration_1_1_item_configuration.html" target="_top" xlink:title=" ">
<polygon fill="white" stroke="#666666" points="305.75,-30.5 172,-30.5 172,0 305.75,0 305.75,-30.5"/>
<text xml:space="preserve" text-anchor="start" x="180" y="-17" font-family="Helvetica,sans-Serif" font-size="10.00">BalloonParty.Configuration.</text>
<text xml:space="preserve" text-anchor="middle" x="238.88" y="-5.75" font-family="Helvetica,sans-Serif" font-size="10.00">ItemConfiguration</text>
</a>
</g>
</g>
<!-- Node2&#45;&gt;Node7 -->
<g id="edge84_Node000002_Node000007" class="edge">
<title>Node2&#45;&gt;Node7</title>
<g id="a_edge84_Node000002_Node000007"><a xlink:title=" ">
<path fill="none" stroke="#63b8ff" d="M84.37,-119.68C103.12,-98.06 136.7,-62.46 172,-40.25 177.49,-36.8 183.53,-33.7 189.65,-30.97"/>
<polygon fill="#63b8ff" stroke="#63b8ff" points="81.86,-117.24 78.05,-127.12 87.19,-121.77 81.86,-117.24"/>
</a>
</g>
</g>
</g>
</svg>
