<?xml version="1.0" encoding="UTF-8" standalone="no"?>
<!DOCTYPE svg PUBLIC "-//W3C//DTD SVG 1.1//EN"
 "http://www.w3.org/Graphics/SVG/1.1/DTD/svg11.dtd">
<!-- Generated by graphviz version 15.0.0 (20260523.1842)
 -->
<!-- Title: Graphical Class Hierarchy Pages: 1 -->
<svg width="264pt" height="88pt"
 viewBox="0.00 0.00 264.00 88.00" xmlns="http://www.w3.org/2000/svg" xmlns:xlink="http://www.w3.org/1999/xlink">
<g id="graph0" class="graph" transform="scale(1 1) rotate(0) translate(4 83.5)">
<title>Graphical Class Hierarchy</title>
<!-- Node0 -->
<g id="Node000000" class="node">
<title>Node0</title>
<g id="a_Node000000"><a xlink:title=" ">
<polygon fill="#e0e0e0" stroke="#999999" points="93.25,-48.88 0,-48.88 0,-29.62 93.25,-29.62 93.25,-48.88"/>
<text xml:space="preserve" text-anchor="middle" x="46.62" y="-35.38" font-family="Helvetica,sans-Serif" font-size="10.00">NaughtyInspector</text>
</a>
</g>
</g>
<!-- Node1 -->
<g id="Node000001" class="node">
<title>Node1</title>
<g id="a_Node000001"><a xlink:href="class_balloon_party_1_1_editor_1_1_chain_lightning_view_editor.html" target="_top" xlink:title=" ">
<polygon fill="white" stroke="#666666" points="255.5,-79.5 129.25,-79.5 129.25,-49 255.5,-49 255.5,-79.5"/>
<text xml:space="preserve" text-anchor="start" x="137.25" y="-66" font-family="Helvetica,sans-Serif" font-size="10.00">BalloonParty.Editor.Chain</text>
<text xml:space="preserve" text-anchor="middle" x="192.38" y="-54.75" font-family="Helvetica,sans-Serif" font-size="10.00">LightningViewEditor</text>
</a>
</g>
</g>
<!-- Node0&#45;&gt;Node1 -->
<g id="edge89_Node000000_Node000001" class="edge">
<title>Node0&#45;&gt;Node1</title>
<g id="a_edge89_Node000000_Node000001"><a xlink:title=" ">
<path fill="none" stroke="#63b8ff" d="M104.58,-49.16C112.57,-50.54 120.81,-51.98 128.89,-53.38"/>
<polygon fill="#63b8ff" stroke="#63b8ff" points="105.45,-45.75 94.99,-47.49 104.25,-52.65 105.45,-45.75"/>
</a>
</g>
</g>
<!-- Node2 -->
<g id="Node000002" class="node">
<title>Node2</title>
<g id="a_Node000002"><a xlink:href="class_balloon_party_1_1_editor_1_1_paint_splash_view_editor.html" target="_top" xlink:title=" ">
<polygon fill="white" stroke="#666666" points="254,-30.5 130.75,-30.5 130.75,0 254,0 254,-30.5"/>
<text xml:space="preserve" text-anchor="start" x="138.75" y="-17" font-family="Helvetica,sans-Serif" font-size="10.00">BalloonParty.Editor.Paint</text>
<text xml:space="preserve" text-anchor="middle" x="192.38" y="-5.75" font-family="Helvetica,sans-Serif" font-size="10.00">SplashViewEditor</text>
</a>
</g>
</g>
<!-- Node0&#45;&gt;Node2 -->
<g id="edge90_Node000000_Node000002" class="edge">
<title>Node0&#45;&gt;Node2</title>
<g id="a_edge90_Node000000_Node000002"><a xlink:title=" ">
<path fill="none" stroke="#63b8ff" d="M104.79,-29.71C113.22,-28.3 121.94,-26.84 130.45,-25.42"/>
<polygon fill="#63b8ff" stroke="#63b8ff" points="104.28,-26.24 95,-31.34 105.44,-33.15 104.28,-26.24"/>
</a>
</g>
</g>
</g>
</svg>
