<?xml version="1.0" encoding="UTF-8" standalone="no"?>
<!DOCTYPE svg PUBLIC "-//W3C//DTD SVG 1.1//EN"
 "http://www.w3.org/Graphics/SVG/1.1/DTD/svg11.dtd">
<!-- Generated by graphviz version 15.0.0 (20260523.1842)
 -->
<!-- Title: Graphical Class Hierarchy Pages: 1 -->
<svg width="267pt" height="88pt"
 viewBox="0.00 0.00 267.00 88.00" xmlns="http://www.w3.org/2000/svg" xmlns:xlink="http://www.w3.org/1999/xlink">
<g id="graph0" class="graph" transform="scale(1 1) rotate(0) translate(4 83.5)">
<title>Graphical Class Hierarchy</title>
<!-- Node0 -->
<g id="Node000000" class="node">
<title>Node0</title>
<g id="a_Node000000"><a xlink:title=" ">
<polygon fill="#e0e0e0" stroke="#999999" points="89.5,-48.88 0,-48.88 0,-29.62 89.5,-29.62 89.5,-48.88"/>
<text xml:space="preserve" text-anchor="middle" x="44.75" y="-35.38" font-family="Helvetica,sans-Serif" font-size="10.00">PropertyAttribute</text>
</a>
</g>
</g>
<!-- Node1 -->
<g id="Node000001" class="node">
<title>Node1</title>
<g id="a_Node000001"><a xlink:href="class_balloon_party_1_1_configuration_1_1_palette_color_mask_attribute.html" target="_top" xlink:title=" ">
<polygon fill="white" stroke="#666666" points="259.25,-79.5 125.5,-79.5 125.5,-49 259.25,-49 259.25,-79.5"/>
<text xml:space="preserve" text-anchor="start" x="133.5" y="-66" font-family="Helvetica,sans-Serif" font-size="10.00">BalloonParty.Configuration.</text>
<text xml:space="preserve" text-anchor="middle" x="192.38" y="-54.75" font-family="Helvetica,sans-Serif" font-size="10.00">PaletteColorMaskAttribute</text>
</a>
</g>
</g>
<!-- Node0&#45;&gt;Node1 -->
<g id="edge91_Node000000_Node000001" class="edge">
<title>Node0&#45;&gt;Node1</title>
<g id="a_edge91_Node000000_Node000001"><a xlink:title=" ">
<path fill="none" stroke="#63b8ff" d="M101.1,-48.75C108.95,-50.1 117.1,-51.5 125.13,-52.88"/>
<polygon fill="#63b8ff" stroke="#63b8ff" points="101.78,-45.32 91.33,-47.07 100.59,-52.22 101.78,-45.32"/>
</a>
</g>
</g>
<!-- Node2 -->
<g id="Node000002" class="node">
<title>Node2</title>
<g id="a_Node000002"><a xlink:href="class_balloon_party_1_1_configuration_1_1_palette_color_name_attribute.html" target="_top" xlink:title=" ">
<polygon fill="white" stroke="#666666" points="259.25,-30.5 125.5,-30.5 125.5,0 259.25,0 259.25,-30.5"/>
<text xml:space="preserve" text-anchor="start" x="133.5" y="-17" font-family="Helvetica,sans-Serif" font-size="10.00">BalloonParty.Configuration.</text>
<text xml:space="preserve" text-anchor="middle" x="192.38" y="-5.75" font-family="Helvetica,sans-Serif" font-size="10.00">PaletteColorNameAttribute</text>
</a>
</g>
</g>
<!-- Node0&#45;&gt;Node2 -->
<g id="edge92_Node000000_Node000002" class="edge">
<title>Node0&#45;&gt;Node2</title>
<g id="a_edge92_Node000000_Node000002"><a xlink:title=" ">
<path fill="none" stroke="#63b8ff" d="M101.1,-30.13C108.95,-28.83 117.1,-27.49 125.13,-26.17"/>
<polygon fill="#63b8ff" stroke="#63b8ff" points="100.63,-26.66 91.33,-31.74 101.77,-33.57 100.63,-26.66"/>
</a>
</g>
</g>
</g>
</svg>
