<?xml version="1.0" encoding="UTF-8" standalone="no"?>
<!DOCTYPE svg PUBLIC "-//W3C//DTD SVG 1.1//EN"
 "http://www.w3.org/Graphics/SVG/1.1/DTD/svg11.dtd">
<!-- Generated by graphviz version 15.0.0 (20260523.1842)
 -->
<!-- Title: BalloonParty.Slots.Capabilities.IHasDurability Pages: 1 -->
<svg width="548pt" height="186pt"
 viewBox="0.00 0.00 548.00 186.00" xmlns="http://www.w3.org/2000/svg" xmlns:xlink="http://www.w3.org/1999/xlink">
<g id="graph0" class="graph" transform="scale(1 1) rotate(0) translate(4 181.5)">
<title>BalloonParty.Slots.Capabilities.IHasDurability</title>
<!-- Node1 -->
<g id="Node000001" class="node">
<title>Node1</title>
<g id="a_Node000001"><a xlink:title=" ">
<polygon fill="#999999" stroke="#666666" points="341,-103.5 188.5,-103.5 188.5,-73 341,-73 341,-103.5"/>
<text xml:space="preserve" text-anchor="start" x="196.5" y="-90" font-family="Helvetica,sans-Serif" font-size="10.00">BalloonParty.Slots.Capabilities.</text>
<text xml:space="preserve" text-anchor="middle" x="264.75" y="-78.75" font-family="Helvetica,sans-Serif" font-size="10.00">IHasDurability</text>
</a>
</g>
</g>
<!-- Node3 -->
<g id="Node000003" class="node">
<title>Node3</title>
<g id="a_Node000003"><a xlink:title=" ">
<polygon fill="white" stroke="#666666" points="527.25,-177.5 389.75,-177.5 389.75,-147 527.25,-147 527.25,-177.5"/>
<text xml:space="preserve" text-anchor="start" x="397.75" y="-164" font-family="Helvetica,sans-Serif" font-size="10.00">BalloonParty.Balloon.Model.</text>
<text xml:space="preserve" text-anchor="middle" x="458.5" y="-152.75" font-family="Helvetica,sans-Serif" font-size="10.00">BalloonModel</text>
</a>
</g>
</g>
<!-- Node1&#45;&gt;Node3 -->
<g id="edge2_Node000001_Node000003" class="edge">
<title>Node1&#45;&gt;Node3</title>
<g id="a_edge2_Node000001_Node000003"><a xlink:title=" ">
<path fill="none" stroke="#63b8ff" d="M308.7,-108.53C329.16,-117.84 354.11,-128.69 377,-137.25 385.63,-140.48 394.9,-143.64 403.95,-146.56"/>
<polygon fill="#63b8ff" stroke="#63b8ff" points="310.37,-105.45 299.82,-104.46 307.45,-111.81 310.37,-105.45"/>
</a>
</g>
</g>
<!-- Node4 -->
<g id="Node000004" class="node">
<title>Node4</title>
<g id="a_Node000004"><a xlink:title=" ">
<polygon fill="white" stroke="#666666" points="527.25,-128.5 389.75,-128.5 389.75,-98 527.25,-98 527.25,-128.5"/>
<text xml:space="preserve" text-anchor="start" x="397.75" y="-115" font-family="Helvetica,sans-Serif" font-size="10.00">BalloonParty.Balloon.Model.</text>
<text xml:space="preserve" text-anchor="middle" x="458.5" y="-103.75" font-family="Helvetica,sans-Serif" font-size="10.00">BubbleClusterModel</text>
</a>
</g>
</g>
<!-- Node1&#45;&gt;Node4 -->
<g id="edge3_Node000001_Node000004" class="edge">
<title>Node1&#45;&gt;Node4</title>
<g id="a_edge3_Node000001_Node000004"><a xlink:title=" ">
<path fill="none" stroke="#63b8ff" d="M352.57,-99.57C364.97,-101.19 377.57,-102.83 389.54,-104.39"/>
<polygon fill="#63b8ff" stroke="#63b8ff" points="353.13,-96.11 342.76,-98.29 352.22,-103.05 353.13,-96.11"/>
</a>
</g>
</g>
<!-- Node5 -->
<g id="Node000005" class="node">
<title>Node5</title>
<g id="a_Node000005"><a xlink:title=" ">
<polygon fill="white" stroke="#666666" points="527.25,-79.5 389.75,-79.5 389.75,-49 527.25,-49 527.25,-79.5"/>
<text xml:space="preserve" text-anchor="start" x="397.75" y="-66" font-family="Helvetica,sans-Serif" font-size="10.00">BalloonParty.Balloon.Model.</text>
<text xml:space="preserve" text-anchor="middle" x="458.5" y="-54.75" font-family="Helvetica,sans-Serif" font-size="10.00">ToughBalloonModel</text>
</a>
</g>
</g>
<!-- Node1&#45;&gt;Node5 -->
<g id="edge4_Node000001_Node000005" class="edge">
<title>Node1&#45;&gt;Node5</title>
<g id="a_edge4_Node000001_Node000005"><a xlink:title=" ">
<path fill="none" stroke="#63b8ff" d="M352.57,-77.38C364.97,-75.83 377.57,-74.25 389.54,-72.76"/>
<polygon fill="#63b8ff" stroke="#63b8ff" points="352.25,-73.9 342.76,-78.61 353.12,-80.84 352.25,-73.9"/>
</a>
</g>
</g>
<!-- Node6 -->
<g id="Node000006" class="node">
<title>Node6</title>
<g id="a_Node000006"><a xlink:title=" ">
<polygon fill="white" stroke="#666666" points="540,-30.5 377,-30.5 377,0 540,0 540,-30.5"/>
<text xml:space="preserve" text-anchor="start" x="385" y="-17" font-family="Helvetica,sans-Serif" font-size="10.00">BalloonParty.Slots.Actor.</text>
<text xml:space="preserve" text-anchor="middle" x="458.5" y="-5.75" font-family="Helvetica,sans-Serif" font-size="10.00">Archetype.GatekeeperActorModel</text>
</a>
</g>
</g>
<!-- Node1&#45;&gt;Node6 -->
<g id="edge5_Node000001_Node000006" class="edge">
<title>Node1&#45;&gt;Node6</title>
<g id="a_edge5_Node000001_Node000006"><a xlink:title=" ">
<path fill="none" stroke="#63b8ff" d="M309.93,-67.91C330.17,-58.92 354.59,-48.54 377,-40.25 385.78,-37 395.21,-33.81 404.4,-30.86"/>
<polygon fill="#63b8ff" stroke="#63b8ff" points="308.53,-64.7 300.84,-71.98 311.39,-71.09 308.53,-64.7"/>
</a>
</g>
</g>
<!-- Node2 -->
<g id="Node000002" class="node">
<title>Node2</title>
<g id="a_Node000002"><a xlink:href="interface_balloon_party_1_1_slots_1_1_capabilities_1_1_i_hitable.html" target="_top" xlink:title=" ">
<polygon fill="white" stroke="#666666" points="152.5,-103.5 0,-103.5 0,-73 152.5,-73 152.5,-103.5"/>
<text xml:space="preserve" text-anchor="start" x="8" y="-90" font-family="Helvetica,sans-Serif" font-size="10.00">BalloonParty.Slots.Capabilities.</text>
<text xml:space="preserve" text-anchor="middle" x="76.25" y="-78.75" font-family="Helvetica,sans-Serif" font-size="10.00">IHitable</text>
</a>
</g>
</g>
<!-- Node2&#45;&gt;Node1 -->
<g id="edge1_Node000001_Node000002" class="edge">
<title>Node2&#45;&gt;Node1</title>
<g id="a_edge1_Node000001_Node000002"><a xlink:title=" ">
<path fill="none" stroke="#63b8ff" d="M164.09,-88.25C172.09,-88.25 180.16,-88.25 188.05,-88.25"/>
<polygon fill="#63b8ff" stroke="#63b8ff" points="164.35,-84.75 154.35,-88.25 164.35,-91.75 164.35,-84.75"/>
</a>
</g>
</g>
</g>
</svg>
