<?xml version="1.0" encoding="UTF-8" standalone="no"?>
<!DOCTYPE svg PUBLIC "-//W3C//DTD SVG 1.1//EN"
 "http://www.w3.org/Graphics/SVG/1.1/DTD/svg11.dtd">
<!-- Generated by graphviz version 15.0.0 (20260523.1842)
 -->
<!-- Title: BalloonParty.Slots.Actor.ISlotActor Pages: 1 -->
<!--zoomable 431 -->

<svg id="main" version="1.1" xmlns="http://www.w3.org/2000/svg" xmlns:xlink="http://www.w3.org/1999/xlink" xml:space="preserve" onload="init(evt)">

<style type="text/css"><![CDATA[
.node, .edge {opacity: 0.7;}
.node.selected, .edge.selected {opacity: 1;}
.edge:hover path { stroke: red; }
.edge:hover polygon { stroke: red; fill: red; }
]]></style>

<defs>
  <circle id="rim" cx="0" cy="0" r="7"/>
  <circle id="rim2" cx="0" cy="0" r="3.5"/>
  <g id="zoomPlus">
    <use xlink:href="#rim" fill="#404040"><set attributeName="fill" to="#808080" begin="zoomplus.mouseover" end="zoomplus.mouseout"/></use>
    <path d="M-4,0h8M0,-4v8" fill="none" stroke="white" stroke-width="1.5" pointer-events="none"/>
  </g>
  <g id="zoomMin">
    <use xlink:href="#rim" fill="#404040"><set attributeName="fill" to="#808080" begin="zoomminus.mouseover" end="zoomminus.mouseout"/></use>
    <path d="M-4,0h8" fill="none" stroke="white" stroke-width="1.5" pointer-events="none"/>
  </g>
  <g id="arrowUp" transform="translate(30 24)">
    <use xlink:href="#rim"/>
    <path pointer-events="none" fill="none" stroke="white" stroke-width="1.5" d="M0,-3.0v7 M-2.5,-0.5L0,-3.0L2.5,-0.5"/>
  </g>
  <g id="arrowRight" transform="rotate(90) translate(36 -43)">
    <use xlink:href="#rim"/>
    <path pointer-events="none" fill="none" stroke="white" stroke-width="1.5" d="M0,-3.0v7 M-2.5,-0.5L0,-3.0L2.5,-0.5"/>
  </g>
  <g id="arrowDown" transform="rotate(180) translate(-30 -48)">
    <use xlink:href="#rim"/>
    <path pointer-events="none" fill="none" stroke="white" stroke-width="1.5" d="M0,-3.0v7 M-2.5,-0.5L0,-3.0L2.5,-0.5"/>
  </g>
  <g id="arrowLeft" transform="rotate(270) translate(-36 17)">
    <use xlink:href="#rim"/>
    <path pointer-events="none" fill="none" stroke="white" stroke-width="1.5" d="M0,-3.0v7 M-2.5,-0.5L0,-3.0L2.5,-0.5"/>
  </g>
  <g id="resetDef">
    <use xlink:href="#rim2" fill="#404040"><set attributeName="fill" to="#808080" begin="reset.mouseover" end="reset.mouseout"/></use>
  </g>
</defs>
<script type="application/ecmascript">
var viewWidth = 1025;
var viewHeight = 431;
var sectionId = 'dynsection-0';
</script>
<script type="application/ecmascript" xlink:href="svg.min.js"/>
<svg id="graph" class="graph">
<g id="viewport">
<title>BalloonParty.Slots.Actor.ISlotActor</title>
<!-- Node1 -->
<g id="Node000001" class="node">
<title>Node1</title>
<g id="a_Node000001"><a xlink:title=" ">
<polygon fill="#999999" stroke="#666666" points="124,-251.5 0,-251.5 0,-221 124,-221 124,-251.5"/>
<text xml:space="preserve" text-anchor="start" x="8" y="-238" font-family="Helvetica,sans-Serif" font-size="10.00">BalloonParty.Slots.Actor.</text>
<text xml:space="preserve" text-anchor="middle" x="62" y="-226.75" font-family="Helvetica,sans-Serif" font-size="10.00">ISlotActor</text>
</a>
</g>
</g>
<!-- Node2 -->
<g id="Node000002" class="node">
<title>Node2</title>
<g id="a_Node000002"><a xlink:href="interface_balloon_party_1_1_slots_1_1_actor_1_1_i_dynamic_slot_actor.html" target="_top" xlink:title=" ">
<polygon fill="white" stroke="#666666" points="284,-324.5 160,-324.5 160,-294 284,-294 284,-324.5"/>
<text xml:space="preserve" text-anchor="start" x="168" y="-311" font-family="Helvetica,sans-Serif" font-size="10.00">BalloonParty.Slots.Actor.</text>
<text xml:space="preserve" text-anchor="middle" x="222" y="-299.75" font-family="Helvetica,sans-Serif" font-size="10.00">IDynamicSlotActor</text>
</a>
</g>
</g>
<!-- Node1&#45;&gt;Node2 -->
<g id="edge1_Node000001_Node000002" class="edge">
<title>Node1&#45;&gt;Node2</title>
<g id="a_edge1_Node000001_Node000002"><a xlink:title=" ">
<path fill="none" stroke="#63b8ff" d="M107.33,-256.73C132.63,-268.42 163.85,-282.84 187.16,-293.62"/>
<polygon fill="#63b8ff" stroke="#63b8ff" points="108.81,-253.56 98.27,-252.55 105.88,-259.92 108.81,-253.56"/>
</a>
</g>
</g>
<!-- Node11 -->
<g id="Node000011" class="node">
<title>Node11</title>
<g id="a_Node000011"><a xlink:href="interface_balloon_party_1_1_slots_1_1_actor_1_1_i_writeable_slot_actor.html" target="_top" xlink:title=" ">
<polygon fill="white" stroke="#666666" points="284,-202.5 160,-202.5 160,-172 284,-172 284,-202.5"/>
<text xml:space="preserve" text-anchor="start" x="168" y="-189" font-family="Helvetica,sans-Serif" font-size="10.00">BalloonParty.Slots.Actor.</text>
<text xml:space="preserve" text-anchor="middle" x="222" y="-177.75" font-family="Helvetica,sans-Serif" font-size="10.00">IWriteableSlotActor</text>
</a>
</g>
</g>
<!-- Node1&#45;&gt;Node11 -->
<g id="edge11_Node000001_Node000011" class="edge">
<title>Node1&#45;&gt;Node11</title>
<g id="a_edge11_Node000001_Node000011"><a xlink:title=" ">
<path fill="none" stroke="#63b8ff" d="M124.29,-217.24C139.49,-212.53 155.61,-207.53 170.24,-202.99"/>
<polygon fill="#63b8ff" stroke="#63b8ff" points="123.39,-213.86 114.87,-220.16 125.46,-220.54 123.39,-213.86"/>
</a>
</g>
</g>
<!-- Node3 -->
<g id="Node000003" class="node">
<title>Node3</title>
<g id="a_Node000003"><a xlink:href="interface_balloon_party_1_1_balloon_1_1_model_1_1_i_balloon_model.html" target="_top" xlink:title=" ">
<polygon fill="white" stroke="#666666" points="470.25,-373.5 332.75,-373.5 332.75,-343 470.25,-343 470.25,-373.5"/>
<text xml:space="preserve" text-anchor="start" x="340.75" y="-360" font-family="Helvetica,sans-Serif" font-size="10.00">BalloonParty.Balloon.Model.</text>
<text xml:space="preserve" text-anchor="middle" x="401.5" y="-348.75" font-family="Helvetica,sans-Serif" font-size="10.00">IBalloonModel</text>
</a>
</g>
</g>
<!-- Node2&#45;&gt;Node3 -->
<g id="edge2_Node000002_Node000003" class="edge">
<title>Node2&#45;&gt;Node3</title>
<g id="a_edge2_Node000002_Node000003"><a xlink:title=" ">
<path fill="none" stroke="#63b8ff" d="M290.37,-327.85C307.88,-332.68 326.56,-337.84 343.47,-342.51"/>
<polygon fill="#63b8ff" stroke="#63b8ff" points="291.68,-324.58 281.11,-325.29 289.82,-331.33 291.68,-324.58"/>
</a>
</g>
</g>
<!-- Node10 -->
<g id="Node000010" class="node">
<title>Node10</title>
<g id="a_Node000010"><a xlink:href="interface_balloon_party_1_1_slots_1_1_actor_1_1_i_writeable_dynamic_slot_actor.html" target="_top" xlink:title=" ">
<polygon fill="white" stroke="#666666" points="471,-324.5 332,-324.5 332,-294 471,-294 471,-324.5"/>
<text xml:space="preserve" text-anchor="start" x="340" y="-311" font-family="Helvetica,sans-Serif" font-size="10.00">BalloonParty.Slots.Actor.</text>
<text xml:space="preserve" text-anchor="middle" x="401.5" y="-299.75" font-family="Helvetica,sans-Serif" font-size="10.00">IWriteableDynamicSlotActor</text>
</a>
</g>
</g>
<!-- Node2&#45;&gt;Node10 -->
<g id="edge9_Node000002_Node000010" class="edge">
<title>Node2&#45;&gt;Node10</title>
<g id="a_edge9_Node000002_Node000010"><a xlink:title=" ">
<path fill="none" stroke="#63b8ff" d="M295.42,-309.25C307.4,-309.25 319.8,-309.25 331.69,-309.25"/>
<polygon fill="#63b8ff" stroke="#63b8ff" points="295.6,-305.75 285.6,-309.25 295.6,-312.75 295.6,-305.75"/>
</a>
</g>
</g>
<!-- Node4 -->
<g id="Node000004" class="node">
<title>Node4</title>
<g id="a_Node000004"><a xlink:href="interface_balloon_party_1_1_balloon_1_1_model_1_1_i_writeable_balloon_model.html" target="_top" xlink:title=" ">
<polygon fill="white" stroke="#666666" points="663.25,-348.5 525.75,-348.5 525.75,-318 663.25,-318 663.25,-348.5"/>
<text xml:space="preserve" text-anchor="start" x="533.75" y="-335" font-family="Helvetica,sans-Serif" font-size="10.00">BalloonParty.Balloon.Model.</text>
<text xml:space="preserve" text-anchor="middle" x="594.5" y="-323.75" font-family="Helvetica,sans-Serif" font-size="10.00">IWriteableBalloonModel</text>
</a>
</g>
</g>
<!-- Node3&#45;&gt;Node4 -->
<g id="edge3_Node000003_Node000004" class="edge">
<title>Node3&#45;&gt;Node4</title>
<g id="a_edge3_Node000003_Node000004"><a xlink:title=" ">
<path fill="none" stroke="#63b8ff" d="M482.06,-347.84C496.45,-345.95 511.35,-344 525.38,-342.17"/>
<polygon fill="#63b8ff" stroke="#63b8ff" points="481.61,-344.37 472.15,-349.13 482.52,-351.31 481.61,-344.37"/>
</a>
</g>
</g>
<!-- Node5 -->
<g id="Node000005" class="node">
<title>Node5</title>
<g id="a_Node000005"><a xlink:href="class_balloon_party_1_1_balloon_1_1_model_1_1_balloon_model_base.html" target="_top" xlink:title=" ">
<polygon fill="white" stroke="#666666" points="843.5,-348.5 706,-348.5 706,-318 843.5,-318 843.5,-348.5"/>
<text xml:space="preserve" text-anchor="start" x="714" y="-335" font-family="Helvetica,sans-Serif" font-size="10.00">BalloonParty.Balloon.Model.</text>
<text xml:space="preserve" text-anchor="middle" x="774.75" y="-323.75" font-family="Helvetica,sans-Serif" font-size="10.00">BalloonModelBase</text>
</a>
</g>
</g>
<!-- Node4&#45;&gt;Node5 -->
<g id="edge4_Node000004_Node000005" class="edge">
<title>Node4&#45;&gt;Node5</title>
<g id="a_edge4_Node000004_Node000005"><a xlink:title=" ">
<path fill="none" stroke="#63b8ff" d="M675.07,-333.25C685.27,-333.25 695.64,-333.25 705.64,-333.25"/>
<polygon fill="#63b8ff" stroke="#63b8ff" points="675.17,-329.75 665.17,-333.25 675.17,-336.75 675.17,-329.75"/>
</a>
</g>
</g>
<!-- Node6 -->
<g id="Node000006" class="node">
<title>Node6</title>
<g id="a_Node000006"><a xlink:href="class_balloon_party_1_1_balloon_1_1_model_1_1_balloon_model.html" target="_top" xlink:title=" ">
<polygon fill="white" stroke="#666666" points="1017,-422.5 879.5,-422.5 879.5,-392 1017,-392 1017,-422.5"/>
<text xml:space="preserve" text-anchor="start" x="887.5" y="-409" font-family="Helvetica,sans-Serif" font-size="10.00">BalloonParty.Balloon.Model.</text>
<text xml:space="preserve" text-anchor="middle" x="948.25" y="-397.75" font-family="Helvetica,sans-Serif" font-size="10.00">BalloonModel</text>
</a>
</g>
</g>
<!-- Node5&#45;&gt;Node6 -->
<g id="edge5_Node000005_Node000006" class="edge">
<title>Node5&#45;&gt;Node6</title>
<g id="a_edge5_Node000005_Node000006"><a xlink:title=" ">
<path fill="none" stroke="#63b8ff" d="M817.5,-353.99C836.28,-363.06 858.83,-373.57 879.5,-382.25 887.01,-385.4 895.08,-388.57 902.93,-391.53"/>
<polygon fill="#63b8ff" stroke="#63b8ff" points="819.1,-350.88 808.57,-349.65 816.04,-357.17 819.1,-350.88"/>
</a>
</g>
</g>
<!-- Node7 -->
<g id="Node000007" class="node">
<title>Node7</title>
<g id="a_Node000007"><a xlink:href="class_balloon_party_1_1_balloon_1_1_model_1_1_bubble_cluster_model.html" target="_top" xlink:title="Model for BalloonType.BubbleCluster.">
<polygon fill="white" stroke="#666666" points="1017,-373.5 879.5,-373.5 879.5,-343 1017,-343 1017,-373.5"/>
<text xml:space="preserve" text-anchor="start" x="887.5" y="-360" font-family="Helvetica,sans-Serif" font-size="10.00">BalloonParty.Balloon.Model.</text>
<text xml:space="preserve" text-anchor="middle" x="948.25" y="-348.75" font-family="Helvetica,sans-Serif" font-size="10.00">BubbleClusterModel</text>
</a>
</g>
</g>
<!-- Node5&#45;&gt;Node7 -->
<g id="edge6_Node000005_Node000007" class="edge">
<title>Node5&#45;&gt;Node7</title>
<g id="a_edge6_Node000005_Node000007"><a xlink:title=" ">
<path fill="none" stroke="#63b8ff" d="M854.89,-344.79C862.98,-345.97 871.16,-347.16 879.12,-348.32"/>
<polygon fill="#63b8ff" stroke="#63b8ff" points="855.43,-341.33 845.03,-343.35 854.42,-348.25 855.43,-341.33"/>
</a>
</g>
</g>
<!-- Node8 -->
<g id="Node000008" class="node">
<title>Node8</title>
<g id="a_Node000008"><a xlink:href="class_balloon_party_1_1_balloon_1_1_model_1_1_tough_balloon_model.html" target="_top" xlink:title=" ">
<polygon fill="white" stroke="#666666" points="1017,-324.5 879.5,-324.5 879.5,-294 1017,-294 1017,-324.5"/>
<text xml:space="preserve" text-anchor="start" x="887.5" y="-311" font-family="Helvetica,sans-Serif" font-size="10.00">BalloonParty.Balloon.Model.</text>
<text xml:space="preserve" text-anchor="middle" x="948.25" y="-299.75" font-family="Helvetica,sans-Serif" font-size="10.00">ToughBalloonModel</text>
</a>
</g>
</g>
<!-- Node5&#45;&gt;Node8 -->
<g id="edge7_Node000005_Node000008" class="edge">
<title>Node5&#45;&gt;Node8</title>
<g id="a_edge7_Node000005_Node000008"><a xlink:title=" ">
<path fill="none" stroke="#63b8ff" d="M854.89,-322.17C862.98,-321.04 871.16,-319.9 879.12,-318.78"/>
<polygon fill="#63b8ff" stroke="#63b8ff" points="854.45,-318.7 845.03,-323.55 855.42,-325.64 854.45,-318.7"/>
</a>
</g>
</g>
<!-- Node9 -->
<g id="Node000009" class="node">
<title>Node9</title>
<g id="a_Node000009"><a xlink:href="class_balloon_party_1_1_balloon_1_1_model_1_1_unbreakable_balloon_model.html" target="_top" xlink:title=" ">
<polygon fill="white" stroke="#666666" points="1017,-275.5 879.5,-275.5 879.5,-245 1017,-245 1017,-275.5"/>
<text xml:space="preserve" text-anchor="start" x="887.5" y="-262" font-family="Helvetica,sans-Serif" font-size="10.00">BalloonParty.Balloon.Model.</text>
<text xml:space="preserve" text-anchor="middle" x="948.25" y="-250.75" font-family="Helvetica,sans-Serif" font-size="10.00">UnbreakableBalloonModel</text>
</a>
</g>
</g>
<!-- Node5&#45;&gt;Node9 -->
<g id="edge8_Node000005_Node000009" class="edge">
<title>Node5&#45;&gt;Node9</title>
<g id="a_edge8_Node000005_Node000009"><a xlink:title=" ">
<path fill="none" stroke="#63b8ff" d="M817.96,-312.79C836.67,-303.97 859.03,-293.75 879.5,-285.25 887.14,-282.08 895.35,-278.88 903.32,-275.88"/>
<polygon fill="#63b8ff" stroke="#63b8ff" points="816.6,-309.56 809.07,-317.01 819.6,-315.89 816.6,-309.56"/>
</a>
</g>
</g>
<!-- Node10&#45;&gt;Node4 -->
<g id="edge10_Node000010_Node000004" class="edge">
<title>Node10&#45;&gt;Node4</title>
<g id="a_edge10_Node000010_Node000004"><a xlink:title=" ">
<path fill="none" stroke="#63b8ff" d="M482.69,-319.33C496.86,-321.11 511.49,-322.94 525.29,-324.68"/>
<polygon fill="#63b8ff" stroke="#63b8ff" points="483.32,-315.88 472.96,-318.1 482.44,-322.82 483.32,-315.88"/>
</a>
</g>
</g>
<!-- Node11&#45;&gt;Node10 -->
<g id="edge21_Node000011_Node000010" class="edge">
<title>Node11&#45;&gt;Node10</title>
<g id="a_edge21_Node000011_Node000010"><a xlink:title=" ">
<path fill="none" stroke="#63b8ff" d="M241.37,-211.4C259.23,-233.33 288.25,-265.08 320,-284.25 325.89,-287.81 332.33,-290.9 338.92,-293.58"/>
<polygon fill="#63b8ff" stroke="#63b8ff" points="244.33,-209.5 235.36,-203.86 238.85,-213.86 244.33,-209.5"/>
</a>
</g>
</g>
<!-- Node12 -->
<g id="Node000012" class="node">
<title>Node12</title>
<g id="a_Node000012"><a xlink:href="class_balloon_party_1_1_slots_1_1_actor_1_1_archetype_1_1_absorber_actor_model.html" target="_top" xlink:title=" ">
<polygon fill="white" stroke="#666666" points="477.38,-275.5 325.62,-275.5 325.62,-245 477.38,-245 477.38,-275.5"/>
<text xml:space="preserve" text-anchor="start" x="333.62" y="-262" font-family="Helvetica,sans-Serif" font-size="10.00">BalloonParty.Slots.Actor.</text>
<text xml:space="preserve" text-anchor="middle" x="401.5" y="-250.75" font-family="Helvetica,sans-Serif" font-size="10.00">Archetype.AbsorberActorModel</text>
</a>
</g>
</g>
<!-- Node11&#45;&gt;Node12 -->
<g id="edge12_Node000011_Node000012" class="edge">
<title>Node11&#45;&gt;Node12</title>
<g id="a_edge12_Node000011_Node000012"><a xlink:title=" ">
<path fill="none" stroke="#63b8ff" d="M261.6,-208.11C279.13,-217.12 300.31,-227.38 320,-235.25 328.29,-238.56 337.2,-241.72 345.96,-244.6"/>
<polygon fill="#63b8ff" stroke="#63b8ff" points="263.57,-205.19 253.08,-203.67 260.34,-211.39 263.57,-205.19"/>
</a>
</g>
</g>
<!-- Node13 -->
<g id="Node000013" class="node">
<title>Node13</title>
<g id="a_Node000013"><a xlink:href="class_balloon_party_1_1_slots_1_1_actor_1_1_archetype_1_1_deflector_actor_model.html" target="_top" xlink:title=" ">
<polygon fill="white" stroke="#666666" points="477.75,-226.5 325.25,-226.5 325.25,-196 477.75,-196 477.75,-226.5"/>
<text xml:space="preserve" text-anchor="start" x="333.25" y="-213" font-family="Helvetica,sans-Serif" font-size="10.00">BalloonParty.Slots.Actor.</text>
<text xml:space="preserve" text-anchor="middle" x="401.5" y="-201.75" font-family="Helvetica,sans-Serif" font-size="10.00">Archetype.DeflectorActorModel</text>
</a>
</g>
</g>
<!-- Node11&#45;&gt;Node13 -->
<g id="edge13_Node000011_Node000013" class="edge">
<title>Node11&#45;&gt;Node13</title>
<g id="a_edge13_Node000011_Node000013"><a xlink:title=" ">
<path fill="none" stroke="#63b8ff" d="M295.35,-197.03C305.08,-198.35 315.09,-199.7 324.87,-201.02"/>
<polygon fill="#63b8ff" stroke="#63b8ff" points="295.96,-193.58 285.59,-195.71 295.03,-200.52 295.96,-193.58"/>
</a>
</g>
</g>
<!-- Node14 -->
<g id="Node000014" class="node">
<title>Node14</title>
<g id="a_Node000014"><a xlink:href="class_balloon_party_1_1_slots_1_1_actor_1_1_archetype_1_1_gatekeeper_actor_model.html" target="_top" xlink:title=" ">
<polygon fill="white" stroke="#666666" points="483,-177.5 320,-177.5 320,-147 483,-147 483,-177.5"/>
<text xml:space="preserve" text-anchor="start" x="328" y="-164" font-family="Helvetica,sans-Serif" font-size="10.00">BalloonParty.Slots.Actor.</text>
<text xml:space="preserve" text-anchor="middle" x="401.5" y="-152.75" font-family="Helvetica,sans-Serif" font-size="10.00">Archetype.GatekeeperActorModel</text>
</a>
</g>
</g>
<!-- Node11&#45;&gt;Node14 -->
<g id="edge14_Node000011_Node000014" class="edge">
<title>Node11&#45;&gt;Node14</title>
<g id="a_edge14_Node000011_Node000014"><a xlink:title=" ">
<path fill="none" stroke="#63b8ff" d="M295.25,-177.07C303.26,-175.95 311.45,-174.79 319.55,-173.65"/>
<polygon fill="#63b8ff" stroke="#63b8ff" points="295,-173.57 285.58,-178.44 295.97,-180.51 295,-173.57"/>
</a>
</g>
</g>
<!-- Node15 -->
<g id="Node000015" class="node">
<title>Node15</title>
<g id="a_Node000015"><a xlink:href="interface_balloon_party_1_1_slots_1_1_actor_1_1_archetype_1_1_i_grid_actor_model.html" target="_top" xlink:title="A static grid actor that knows its own GridActorType, so the spawner can match and return it without ...">
<polygon fill="white" stroke="#666666" points="468.38,-128.5 334.62,-128.5 334.62,-98 468.38,-98 468.38,-128.5"/>
<text xml:space="preserve" text-anchor="start" x="342.62" y="-115" font-family="Helvetica,sans-Serif" font-size="10.00">BalloonParty.Slots.Actor.</text>
<text xml:space="preserve" text-anchor="middle" x="401.5" y="-103.75" font-family="Helvetica,sans-Serif" font-size="10.00">Archetype.IGridActorModel</text>
</a>
</g>
</g>
<!-- Node11&#45;&gt;Node15 -->
<g id="edge15_Node000011_Node000015" class="edge">
<title>Node11&#45;&gt;Node15</title>
<g id="a_edge15_Node000011_Node000015"><a xlink:title=" ">
<path fill="none" stroke="#63b8ff" d="M260.78,-166.32C278.45,-157.01 299.97,-146.35 320,-138.25 328.14,-134.96 336.89,-131.83 345.51,-128.98"/>
<polygon fill="#63b8ff" stroke="#63b8ff" points="259.37,-163.1 252.2,-170.9 262.67,-169.28 259.37,-163.1"/>
</a>
</g>
</g>
<!-- Node18 -->
<g id="Node000018" class="node">
<title>Node18</title>
<g id="a_Node000018"><a xlink:href="interface_balloon_party_1_1_slots_1_1_actor_1_1_cluster_1_1_i_clusterable_slot_actor.html" target="_top" xlink:title="A slot actor that can participate in adjacency&#45;based cluster grouping.">
<polygon fill="white" stroke="#666666" points="472.88,-79.5 330.12,-79.5 330.12,-49 472.88,-49 472.88,-79.5"/>
<text xml:space="preserve" text-anchor="start" x="338.12" y="-66" font-family="Helvetica,sans-Serif" font-size="10.00">BalloonParty.Slots.Actor.</text>
<text xml:space="preserve" text-anchor="middle" x="401.5" y="-54.75" font-family="Helvetica,sans-Serif" font-size="10.00">Cluster.IClusterableSlotActor</text>
</a>
</g>
</g>
<!-- Node11&#45;&gt;Node18 -->
<g id="edge18_Node000011_Node000018" class="edge">
<title>Node11&#45;&gt;Node18</title>
<g id="a_edge18_Node000011_Node000018"><a xlink:title=" ">
<path fill="none" stroke="#63b8ff" d="M241.31,-162.84C259.14,-140.68 288.13,-108.61 320,-89.25 325.88,-85.68 332.31,-82.58 338.9,-79.89"/>
<polygon fill="#63b8ff" stroke="#63b8ff" points="238.74,-160.45 235.32,-170.47 244.25,-164.77 238.74,-160.45"/>
</a>
</g>
</g>
<!-- Node19 -->
<g id="Node000019" class="node">
<title>Node19</title>
<g id="a_Node000019"><a xlink:href="class_balloon_party_1_1_slots_1_1_actor_1_1_static_actor_model.html" target="_top" xlink:title=" ">
<polygon fill="white" stroke="#666666" points="463.5,-30.5 339.5,-30.5 339.5,0 463.5,0 463.5,-30.5"/>
<text xml:space="preserve" text-anchor="start" x="347.5" y="-17" font-family="Helvetica,sans-Serif" font-size="10.00">BalloonParty.Slots.Actor.</text>
<text xml:space="preserve" text-anchor="middle" x="401.5" y="-5.75" font-family="Helvetica,sans-Serif" font-size="10.00">StaticActorModel</text>
</a>
</g>
</g>
<!-- Node11&#45;&gt;Node19 -->
<g id="edge22_Node000011_Node000019" class="edge">
<title>Node11&#45;&gt;Node19</title>
<g id="a_edge22_Node000011_Node000019"><a xlink:title=" ">
<path fill="none" stroke="#63b8ff" d="M233.31,-161.67C247.84,-128.82 277.39,-72.26 320,-40.25 325.85,-35.85 332.49,-32.22 339.38,-29.22"/>
<polygon fill="#63b8ff" stroke="#63b8ff" points="230.28,-159.87 229.56,-170.44 236.71,-162.62 230.28,-159.87"/>
</a>
</g>
</g>
<!-- Node16 -->
<g id="Node000016" class="node">
<title>Node16</title>
<g id="a_Node000016"><a xlink:href="class_balloon_party_1_1_slots_1_1_actor_1_1_archetype_1_1_bush_obstacle_model.html" target="_top" xlink:title=" ">
<polygon fill="white" stroke="#666666" points="670,-79.5 519,-79.5 519,-49 670,-49 670,-79.5"/>
<text xml:space="preserve" text-anchor="start" x="527" y="-66" font-family="Helvetica,sans-Serif" font-size="10.00">BalloonParty.Slots.Actor.</text>
<text xml:space="preserve" text-anchor="middle" x="594.5" y="-54.75" font-family="Helvetica,sans-Serif" font-size="10.00">Archetype.BushObstacleModel</text>
</a>
</g>
</g>
<!-- Node15&#45;&gt;Node16 -->
<g id="edge16_Node000015_Node000016" class="edge">
<title>Node15&#45;&gt;Node16</title>
<g id="a_edge16_Node000015_Node000016"><a xlink:title=" ">
<path fill="none" stroke="#63b8ff" d="M474.72,-94.72C493.69,-89.86 513.96,-84.65 532.3,-79.95"/>
<polygon fill="#63b8ff" stroke="#63b8ff" points="474,-91.29 465.19,-97.17 475.74,-98.07 474,-91.29"/>
</a>
</g>
</g>
<!-- Node17 -->
<g id="Node000017" class="node">
<title>Node17</title>
<g id="a_Node000017"><a xlink:href="class_balloon_party_1_1_slots_1_1_actor_1_1_archetype_1_1_puff_obstacle_model.html" target="_top" xlink:title=" ">
<polygon fill="white" stroke="#666666" points="667.75,-128.5 521.25,-128.5 521.25,-98 667.75,-98 667.75,-128.5"/>
<text xml:space="preserve" text-anchor="start" x="529.25" y="-115" font-family="Helvetica,sans-Serif" font-size="10.00">BalloonParty.Slots.Actor.</text>
<text xml:space="preserve" text-anchor="middle" x="594.5" y="-103.75" font-family="Helvetica,sans-Serif" font-size="10.00">Archetype.PuffObstacleModel</text>
</a>
</g>
</g>
<!-- Node15&#45;&gt;Node17 -->
<g id="edge17_Node000015_Node000017" class="edge">
<title>Node15&#45;&gt;Node17</title>
<g id="a_edge17_Node000015_Node000017"><a xlink:title=" ">
<path fill="none" stroke="#63b8ff" d="M479.96,-113.25C493.46,-113.25 507.46,-113.25 520.83,-113.25"/>
<polygon fill="#63b8ff" stroke="#63b8ff" points="480.28,-109.75 470.28,-113.25 480.28,-116.75 480.28,-109.75"/>
</a>
</g>
</g>
<!-- Node18&#45;&gt;Node16 -->
<g id="edge19_Node000018_Node000016" class="edge">
<title>Node18&#45;&gt;Node16</title>
<g id="a_edge19_Node000018_Node000016"><a xlink:title=" ">
<path fill="none" stroke="#63b8ff" d="M484.55,-64.25C495.86,-64.25 507.43,-64.25 518.6,-64.25"/>
<polygon fill="#63b8ff" stroke="#63b8ff" points="484.86,-60.75 474.86,-64.25 484.86,-67.75 484.86,-60.75"/>
</a>
</g>
</g>
<!-- Node18&#45;&gt;Node17 -->
<g id="edge20_Node000018_Node000017" class="edge">
<title>Node18&#45;&gt;Node17</title>
<g id="a_edge20_Node000018_Node000017"><a xlink:title=" ">
<path fill="none" stroke="#63b8ff" d="M474.72,-82.78C493.69,-87.64 513.96,-92.85 532.3,-97.55"/>
<polygon fill="#63b8ff" stroke="#63b8ff" points="475.74,-79.43 465.19,-80.33 474,-86.21 475.74,-79.43"/>
</a>
</g>
</g>
</g>
</svg>

<g id="navigator" transform="translate(0 0)" fill="#404254">
  <rect fill="#f2f5e9" fill-opacity="0.5" stroke="#606060" stroke-width=".5" x="0" y="0" width="60" height="60"/>
  <use id="zoomplus" xlink:href="#zoomPlus" x="17" y="9" onmousedown="handleZoom(evt,'in')"/>
  <use id="zoomminus" xlink:href="#zoomMin" x="42" y="9" onmousedown="handleZoom(evt,'out')"/>
  <use id="reset" xlink:href="#resetDef" x="30" y="36" onmousedown="handleReset()"/>
   <use id="arrowup" xlink:href="#arrowUp" x="0" y="0" onmousedown="handlePan(0,-1)"/>
  <use id="arrowright" xlink:href="#arrowRight" x="0" y="0" onmousedown="handlePan(1,0)"/>
  <use id="arrowdown" xlink:href="#arrowDown" x="0" y="0" onmousedown="handlePan(0,1)"/>
  <use id="arrowleft" xlink:href="#arrowLeft" x="0" y="0" onmousedown="handlePan(-1,0)"/>
</g>
<svg viewBox="0 0 15 15" width="100%" height="30px" preserveAspectRatio="xMaxYMin meet">
 <g id="arrow_out" transform="scale(0.3 0.3)">
  <a xlink:href="interface_balloon_party_1_1_slots_1_1_actor_1_1_i_slot_actor__inherit__graph_org.svg" target="_base">
   <rect id="button" ry="5" rx="5" y="6" x="6" height="38" width="38"
        fill="#f2f5e9" fill-opacity="0.5" stroke="#606060" stroke-width="1.0"/>
   <path id="arrow"
     d="M 11.500037,31.436501 C 11.940474,20.09759 22.043105,11.32322 32.158766,21.979434 L 37.068811,17.246167 C 37.068811,17.246167 37.088388,32 37.088388,32 L 22.160133,31.978069 C 22.160133,31.978069 26.997745,27.140456 26.997745,27.140456 C 18.528582,18.264221 13.291696,25.230495 11.500037,31.436501 z"
     style="fill:#404040;"/>
  </a>
 </g>
</svg>

<style type='text/css'>
<![CDATA[
[data-mouse-over-selected='false'] { opacity: 0.7; }
[data-mouse-over-selected='true']  { opacity: 1.0; }
]]>
</style>
<script type="application/ecmascript"><![CDATA[
document.addEventListener('DOMContentLoaded', (event) => {
  highlightEdges();
  highlightAdjacentNodes();
});
]]></script>
</svg>
