<?xml version="1.0" encoding="UTF-8" standalone="no"?>
<!DOCTYPE svg PUBLIC "-//W3C//DTD SVG 1.1//EN"
 "http://www.w3.org/Graphics/SVG/1.1/DTD/svg11.dtd">
<!-- Generated by graphviz version 15.0.0 (20260523.1842)
 -->
<!-- Title: BalloonParty.Slots.Capabilities.IHasNudge Pages: 1 -->
<svg width="855pt" height="186pt"
 viewBox="0.00 0.00 855.00 186.00" xmlns="http://www.w3.org/2000/svg" xmlns:xlink="http://www.w3.org/1999/xlink">
<g id="graph0" class="graph" transform="scale(1 1) rotate(0) translate(4 181.5)">
<title>BalloonParty.Slots.Capabilities.IHasNudge</title>
<!-- Node1 -->
<g id="Node000001" class="node">
<title>Node1</title>
<g id="a_Node000001"><a xlink:title=" ">
<polygon fill="#999999" stroke="#666666" points="152.5,-103.5 0,-103.5 0,-73 152.5,-73 152.5,-103.5"/>
<text xml:space="preserve" text-anchor="start" x="8" y="-90" font-family="Helvetica,sans-Serif" font-size="10.00">BalloonParty.Slots.Capabilities.</text>
<text xml:space="preserve" text-anchor="middle" x="76.25" y="-78.75" font-family="Helvetica,sans-Serif" font-size="10.00">IHasNudge</text>
</a>
</g>
</g>
<!-- Node2 -->
<g id="Node000002" class="node">
<title>Node2</title>
<g id="a_Node000002"><a xlink:href="interface_balloon_party_1_1_balloon_1_1_model_1_1_i_balloon_model.html" target="_top" xlink:title=" ">
<polygon fill="white" stroke="#666666" points="326,-103.5 188.5,-103.5 188.5,-73 326,-73 326,-103.5"/>
<text xml:space="preserve" text-anchor="start" x="196.5" y="-90" font-family="Helvetica,sans-Serif" font-size="10.00">BalloonParty.Balloon.Model.</text>
<text xml:space="preserve" text-anchor="middle" x="257.25" y="-78.75" font-family="Helvetica,sans-Serif" font-size="10.00">IBalloonModel</text>
</a>
</g>
</g>
<!-- Node1&#45;&gt;Node2 -->
<g id="edge1_Node000001_Node000002" class="edge">
<title>Node1&#45;&gt;Node2</title>
<g id="a_edge1_Node000001_Node000002"><a xlink:title=" ">
<path fill="none" stroke="#63b8ff" d="M164.25,-88.25C172.31,-88.25 180.4,-88.25 188.25,-88.25"/>
<polygon fill="#63b8ff" stroke="#63b8ff" points="164.42,-84.75 154.42,-88.25 164.42,-91.75 164.42,-84.75"/>
</a>
</g>
</g>
<!-- Node3 -->
<g id="Node000003" class="node">
<title>Node3</title>
<g id="a_Node000003"><a xlink:href="interface_balloon_party_1_1_balloon_1_1_model_1_1_i_writeable_balloon_model.html" target="_top" xlink:title=" ">
<polygon fill="white" stroke="#666666" points="499.5,-103.5 362,-103.5 362,-73 499.5,-73 499.5,-103.5"/>
<text xml:space="preserve" text-anchor="start" x="370" y="-90" font-family="Helvetica,sans-Serif" font-size="10.00">BalloonParty.Balloon.Model.</text>
<text xml:space="preserve" text-anchor="middle" x="430.75" y="-78.75" font-family="Helvetica,sans-Serif" font-size="10.00">IWriteableBalloonModel</text>
</a>
</g>
</g>
<!-- Node2&#45;&gt;Node3 -->
<g id="edge2_Node000002_Node000003" class="edge">
<title>Node2&#45;&gt;Node3</title>
<g id="a_edge2_Node000002_Node000003"><a xlink:title=" ">
<path fill="none" stroke="#63b8ff" d="M337.39,-88.25C345.48,-88.25 353.66,-88.25 361.62,-88.25"/>
<polygon fill="#63b8ff" stroke="#63b8ff" points="337.54,-84.75 327.54,-88.25 337.54,-91.75 337.54,-84.75"/>
</a>
</g>
</g>
<!-- Node4 -->
<g id="Node000004" class="node">
<title>Node4</title>
<g id="a_Node000004"><a xlink:title=" ">
<polygon fill="white" stroke="#666666" points="673,-103.5 535.5,-103.5 535.5,-73 673,-73 673,-103.5"/>
<text xml:space="preserve" text-anchor="start" x="543.5" y="-90" font-family="Helvetica,sans-Serif" font-size="10.00">BalloonParty.Balloon.Model.</text>
<text xml:space="preserve" text-anchor="middle" x="604.25" y="-78.75" font-family="Helvetica,sans-Serif" font-size="10.00">BalloonModelBase</text>
</a>
</g>
</g>
<!-- Node3&#45;&gt;Node4 -->
<g id="edge3_Node000003_Node000004" class="edge">
<title>Node3&#45;&gt;Node4</title>
<g id="a_edge3_Node000003_Node000004"><a xlink:title=" ">
<path fill="none" stroke="#63b8ff" d="M510.89,-88.25C518.98,-88.25 527.16,-88.25 535.12,-88.25"/>
<polygon fill="#63b8ff" stroke="#63b8ff" points="511.04,-84.75 501.04,-88.25 511.04,-91.75 511.04,-84.75"/>
</a>
</g>
</g>
<!-- Node5 -->
<g id="Node000005" class="node">
<title>Node5</title>
<g id="a_Node000005"><a xlink:title=" ">
<polygon fill="white" stroke="#666666" points="846.5,-177.5 709,-177.5 709,-147 846.5,-147 846.5,-177.5"/>
<text xml:space="preserve" text-anchor="start" x="717" y="-164" font-family="Helvetica,sans-Serif" font-size="10.00">BalloonParty.Balloon.Model.</text>
<text xml:space="preserve" text-anchor="middle" x="777.75" y="-152.75" font-family="Helvetica,sans-Serif" font-size="10.00">BalloonModel</text>
</a>
</g>
</g>
<!-- Node4&#45;&gt;Node5 -->
<g id="edge4_Node000004_Node000005" class="edge">
<title>Node4&#45;&gt;Node5</title>
<g id="a_edge4_Node000004_Node000005"><a xlink:title=" ">
<path fill="none" stroke="#63b8ff" d="M647,-108.99C665.78,-118.06 688.33,-128.57 709,-137.25 716.51,-140.4 724.58,-143.57 732.43,-146.53"/>
<polygon fill="#63b8ff" stroke="#63b8ff" points="648.6,-105.88 638.07,-104.65 645.54,-112.17 648.6,-105.88"/>
</a>
</g>
</g>
<!-- Node6 -->
<g id="Node000006" class="node">
<title>Node6</title>
<g id="a_Node000006"><a xlink:title=" ">
<polygon fill="white" stroke="#666666" points="846.5,-128.5 709,-128.5 709,-98 846.5,-98 846.5,-128.5"/>
<text xml:space="preserve" text-anchor="start" x="717" y="-115" font-family="Helvetica,sans-Serif" font-size="10.00">BalloonParty.Balloon.Model.</text>
<text xml:space="preserve" text-anchor="middle" x="777.75" y="-103.75" font-family="Helvetica,sans-Serif" font-size="10.00">BubbleClusterModel</text>
</a>
</g>
</g>
<!-- Node4&#45;&gt;Node6 -->
<g id="edge5_Node000004_Node000006" class="edge">
<title>Node4&#45;&gt;Node6</title>
<g id="a_edge5_Node000004_Node000006"><a xlink:title=" ">
<path fill="none" stroke="#63b8ff" d="M684.39,-99.79C692.48,-100.97 700.66,-102.16 708.62,-103.32"/>
<polygon fill="#63b8ff" stroke="#63b8ff" points="684.93,-96.33 674.53,-98.35 683.92,-103.25 684.93,-96.33"/>
</a>
</g>
</g>
<!-- Node7 -->
<g id="Node000007" class="node">
<title>Node7</title>
<g id="a_Node000007"><a xlink:title=" ">
<polygon fill="white" stroke="#666666" points="846.5,-79.5 709,-79.5 709,-49 846.5,-49 846.5,-79.5"/>
<text xml:space="preserve" text-anchor="start" x="717" y="-66" font-family="Helvetica,sans-Serif" font-size="10.00">BalloonParty.Balloon.Model.</text>
<text xml:space="preserve" text-anchor="middle" x="777.75" y="-54.75" font-family="Helvetica,sans-Serif" font-size="10.00">ToughBalloonModel</text>
</a>
</g>
</g>
<!-- Node4&#45;&gt;Node7 -->
<g id="edge6_Node000004_Node000007" class="edge">
<title>Node4&#45;&gt;Node7</title>
<g id="a_edge6_Node000004_Node000007"><a xlink:title=" ">
<path fill="none" stroke="#63b8ff" d="M684.39,-77.17C692.48,-76.04 700.66,-74.9 708.62,-73.78"/>
<polygon fill="#63b8ff" stroke="#63b8ff" points="683.95,-73.7 674.53,-78.55 684.92,-80.64 683.95,-73.7"/>
</a>
</g>
</g>
<!-- Node8 -->
<g id="Node000008" class="node">
<title>Node8</title>
<g id="a_Node000008"><a xlink:title=" ">
<polygon fill="white" stroke="#666666" points="846.5,-30.5 709,-30.5 709,0 846.5,0 846.5,-30.5"/>
<text xml:space="preserve" text-anchor="start" x="717" y="-17" font-family="Helvetica,sans-Serif" font-size="10.00">BalloonParty.Balloon.Model.</text>
<text xml:space="preserve" text-anchor="middle" x="777.75" y="-5.75" font-family="Helvetica,sans-Serif" font-size="10.00">UnbreakableBalloonModel</text>
</a>
</g>
</g>
<!-- Node4&#45;&gt;Node8 -->
<g id="edge7_Node000004_Node000008" class="edge">
<title>Node4&#45;&gt;Node8</title>
<g id="a_edge7_Node000004_Node000008"><a xlink:title=" ">
<path fill="none" stroke="#63b8ff" d="M647.46,-67.79C666.17,-58.97 688.53,-48.75 709,-40.25 716.64,-37.08 724.85,-33.88 732.82,-30.88"/>
<polygon fill="#63b8ff" stroke="#63b8ff" points="646.1,-64.56 638.57,-72.01 649.1,-70.89 646.1,-64.56"/>
</a>
</g>
</g>
</g>
</svg>
