<?xml version="1.0" encoding="UTF-8" standalone="no"?>
<!DOCTYPE svg PUBLIC "-//W3C//DTD SVG 1.1//EN"
 "http://www.w3.org/Graphics/SVG/1.1/DTD/svg11.dtd">
<!-- Generated by graphviz version 15.0.0 (20260523.1842)
 -->
<!-- Title: BalloonParty.Slots.Actor.IWriteableSlotActor Pages: 1 -->
<svg width="1012pt" height="357pt"
 viewBox="0.00 0.00 1012.00 357.00" xmlns="http://www.w3.org/2000/svg" xmlns:xlink="http://www.w3.org/1999/xlink">
<g id="graph0" class="graph" transform="scale(1 1) rotate(0) translate(4 352.5)">
<title>BalloonParty.Slots.Actor.IWriteableSlotActor</title>
<!-- Node1 -->
<g id="Node000001" class="node">
<title>Node1</title>
<g id="a_Node000001"><a xlink:title=" ">
<polygon fill="#999999" stroke="#666666" points="284,-201.5 160,-201.5 160,-171 284,-171 284,-201.5"/>
<text xml:space="preserve" text-anchor="start" x="168" y="-188" font-family="Helvetica,sans-Serif" font-size="10.00">BalloonParty.Slots.Actor.</text>
<text xml:space="preserve" text-anchor="middle" x="222" y="-176.75" font-family="Helvetica,sans-Serif" font-size="10.00">IWriteableSlotActor</text>
</a>
</g>
</g>
<!-- Node3 -->
<g id="Node000003" class="node">
<title>Node3</title>
<g id="a_Node000003"><a xlink:href="class_balloon_party_1_1_slots_1_1_actor_1_1_archetype_1_1_absorber_actor_model.html" target="_top" xlink:title=" ">
<polygon fill="white" stroke="#666666" points="477.38,-348.5 325.62,-348.5 325.62,-318 477.38,-318 477.38,-348.5"/>
<text xml:space="preserve" text-anchor="start" x="333.62" y="-335" font-family="Helvetica,sans-Serif" font-size="10.00">BalloonParty.Slots.Actor.</text>
<text xml:space="preserve" text-anchor="middle" x="401.5" y="-323.75" font-family="Helvetica,sans-Serif" font-size="10.00">Archetype.AbsorberActorModel</text>
</a>
</g>
</g>
<!-- Node1&#45;&gt;Node3 -->
<g id="edge2_Node000001_Node000003" class="edge">
<title>Node1&#45;&gt;Node3</title>
<g id="a_edge2_Node000001_Node000003"><a xlink:title=" ">
<path fill="none" stroke="#63b8ff" d="M236.85,-211.57C253.21,-239.21 282.97,-282.91 320,-308.25 325.19,-311.8 330.91,-314.87 336.84,-317.51"/>
<polygon fill="#63b8ff" stroke="#63b8ff" points="240.02,-210.07 232,-203.15 233.95,-213.56 240.02,-210.07"/>
</a>
</g>
</g>
<!-- Node4 -->
<g id="Node000004" class="node">
<title>Node4</title>
<g id="a_Node000004"><a xlink:href="class_balloon_party_1_1_slots_1_1_actor_1_1_archetype_1_1_bush_obstacle_model.html" target="_top" xlink:title=" ">
<polygon fill="white" stroke="#666666" points="477,-299.5 326,-299.5 326,-269 477,-269 477,-299.5"/>
<text xml:space="preserve" text-anchor="start" x="334" y="-286" font-family="Helvetica,sans-Serif" font-size="10.00">BalloonParty.Slots.Actor.</text>
<text xml:space="preserve" text-anchor="middle" x="401.5" y="-274.75" font-family="Helvetica,sans-Serif" font-size="10.00">Archetype.BushObstacleModel</text>
</a>
</g>
</g>
<!-- Node1&#45;&gt;Node4 -->
<g id="edge3_Node000001_Node000004" class="edge">
<title>Node1&#45;&gt;Node4</title>
<g id="a_edge3_Node000001_Node000004"><a xlink:title=" ">
<path fill="none" stroke="#63b8ff" d="M248.49,-209.32C267.16,-225.21 293.72,-245.8 320,-259.25 326.77,-262.72 334.12,-265.81 341.52,-268.53"/>
<polygon fill="#63b8ff" stroke="#63b8ff" points="250.99,-206.86 241.14,-202.95 246.4,-212.14 250.99,-206.86"/>
</a>
</g>
</g>
<!-- Node5 -->
<g id="Node000005" class="node">
<title>Node5</title>
<g id="a_Node000005"><a xlink:href="class_balloon_party_1_1_slots_1_1_actor_1_1_archetype_1_1_deflector_actor_model.html" target="_top" xlink:title=" ">
<polygon fill="white" stroke="#666666" points="477.75,-250.5 325.25,-250.5 325.25,-220 477.75,-220 477.75,-250.5"/>
<text xml:space="preserve" text-anchor="start" x="333.25" y="-237" font-family="Helvetica,sans-Serif" font-size="10.00">BalloonParty.Slots.Actor.</text>
<text xml:space="preserve" text-anchor="middle" x="401.5" y="-225.75" font-family="Helvetica,sans-Serif" font-size="10.00">Archetype.DeflectorActorModel</text>
</a>
</g>
</g>
<!-- Node1&#45;&gt;Node5 -->
<g id="edge4_Node000001_Node000005" class="edge">
<title>Node1&#45;&gt;Node5</title>
<g id="a_edge4_Node000001_Node000005"><a xlink:title=" ">
<path fill="none" stroke="#63b8ff" d="M290.37,-204.85C307.88,-209.68 326.56,-214.84 343.47,-219.51"/>
<polygon fill="#63b8ff" stroke="#63b8ff" points="291.68,-201.58 281.11,-202.29 289.82,-208.33 291.68,-201.58"/>
</a>
</g>
</g>
<!-- Node6 -->
<g id="Node000006" class="node">
<title>Node6</title>
<g id="a_Node000006"><a xlink:href="class_balloon_party_1_1_slots_1_1_actor_1_1_archetype_1_1_gatekeeper_actor_model.html" target="_top" xlink:title=" ">
<polygon fill="white" stroke="#666666" points="483,-201.5 320,-201.5 320,-171 483,-171 483,-201.5"/>
<text xml:space="preserve" text-anchor="start" x="328" y="-188" font-family="Helvetica,sans-Serif" font-size="10.00">BalloonParty.Slots.Actor.</text>
<text xml:space="preserve" text-anchor="middle" x="401.5" y="-176.75" font-family="Helvetica,sans-Serif" font-size="10.00">Archetype.GatekeeperActorModel</text>
</a>
</g>
</g>
<!-- Node1&#45;&gt;Node6 -->
<g id="edge5_Node000001_Node000006" class="edge">
<title>Node1&#45;&gt;Node6</title>
<g id="a_edge5_Node000001_Node000006"><a xlink:title=" ">
<path fill="none" stroke="#63b8ff" d="M295.53,-186.25C303.45,-186.25 311.54,-186.25 319.55,-186.25"/>
<polygon fill="#63b8ff" stroke="#63b8ff" points="295.6,-182.75 285.6,-186.25 295.6,-189.75 295.6,-182.75"/>
</a>
</g>
</g>
<!-- Node7 -->
<g id="Node000007" class="node">
<title>Node7</title>
<g id="a_Node000007"><a xlink:href="class_balloon_party_1_1_slots_1_1_actor_1_1_archetype_1_1_puff_obstacle_model.html" target="_top" xlink:title=" ">
<polygon fill="white" stroke="#666666" points="474.75,-152.5 328.25,-152.5 328.25,-122 474.75,-122 474.75,-152.5"/>
<text xml:space="preserve" text-anchor="start" x="336.25" y="-139" font-family="Helvetica,sans-Serif" font-size="10.00">BalloonParty.Slots.Actor.</text>
<text xml:space="preserve" text-anchor="middle" x="401.5" y="-127.75" font-family="Helvetica,sans-Serif" font-size="10.00">Archetype.PuffObstacleModel</text>
</a>
</g>
</g>
<!-- Node1&#45;&gt;Node7 -->
<g id="edge6_Node000001_Node000007" class="edge">
<title>Node1&#45;&gt;Node7</title>
<g id="a_edge6_Node000001_Node000007"><a xlink:title=" ">
<path fill="none" stroke="#63b8ff" d="M290.37,-167.65C307.88,-162.82 326.56,-157.66 343.47,-152.99"/>
<polygon fill="#63b8ff" stroke="#63b8ff" points="289.82,-164.17 281.11,-170.21 291.68,-170.92 289.82,-164.17"/>
</a>
</g>
</g>
<!-- Node8 -->
<g id="Node000008" class="node">
<title>Node8</title>
<g id="a_Node000008"><a xlink:href="interface_balloon_party_1_1_slots_1_1_actor_1_1_i_writeable_dynamic_slot_actor.html" target="_top" xlink:title=" ">
<polygon fill="white" stroke="#666666" points="471,-103.5 332,-103.5 332,-73 471,-73 471,-103.5"/>
<text xml:space="preserve" text-anchor="start" x="340" y="-90" font-family="Helvetica,sans-Serif" font-size="10.00">BalloonParty.Slots.Actor.</text>
<text xml:space="preserve" text-anchor="middle" x="401.5" y="-78.75" font-family="Helvetica,sans-Serif" font-size="10.00">IWriteableDynamicSlotActor</text>
</a>
</g>
</g>
<!-- Node1&#45;&gt;Node8 -->
<g id="edge7_Node000001_Node000008" class="edge">
<title>Node1&#45;&gt;Node8</title>
<g id="a_edge7_Node000001_Node000008"><a xlink:title=" ">
<path fill="none" stroke="#63b8ff" d="M248.49,-163.18C267.16,-147.29 293.72,-126.7 320,-113.25 326.77,-109.78 334.12,-106.69 341.52,-103.97"/>
<polygon fill="#63b8ff" stroke="#63b8ff" points="246.4,-160.36 241.14,-169.55 250.99,-165.64 246.4,-160.36"/>
</a>
</g>
</g>
<!-- Node15 -->
<g id="Node000015" class="node">
<title>Node15</title>
<g id="a_Node000015"><a xlink:href="class_balloon_party_1_1_slots_1_1_actor_1_1_static_actor_model.html" target="_top" xlink:title=" ">
<polygon fill="white" stroke="#666666" points="463.5,-54.5 339.5,-54.5 339.5,-24 463.5,-24 463.5,-54.5"/>
<text xml:space="preserve" text-anchor="start" x="347.5" y="-41" font-family="Helvetica,sans-Serif" font-size="10.00">BalloonParty.Slots.Actor.</text>
<text xml:space="preserve" text-anchor="middle" x="401.5" y="-29.75" font-family="Helvetica,sans-Serif" font-size="10.00">StaticActorModel</text>
</a>
</g>
</g>
<!-- Node1&#45;&gt;Node15 -->
<g id="edge14_Node000001_Node000015" class="edge">
<title>Node1&#45;&gt;Node15</title>
<g id="a_edge14_Node000001_Node000015"><a xlink:title=" ">
<path fill="none" stroke="#63b8ff" d="M236.85,-160.93C253.21,-133.29 282.97,-89.59 320,-64.25 325.92,-60.2 332.52,-56.79 339.33,-53.91"/>
<polygon fill="#63b8ff" stroke="#63b8ff" points="233.95,-158.94 232,-169.35 240.02,-162.43 233.95,-158.94"/>
</a>
</g>
</g>
<!-- Node2 -->
<g id="Node000002" class="node">
<title>Node2</title>
<g id="a_Node000002"><a xlink:href="interface_balloon_party_1_1_slots_1_1_actor_1_1_i_slot_actor.html" target="_top" xlink:title=" ">
<polygon fill="white" stroke="#666666" points="124,-201.5 0,-201.5 0,-171 124,-171 124,-201.5"/>
<text xml:space="preserve" text-anchor="start" x="8" y="-188" font-family="Helvetica,sans-Serif" font-size="10.00">BalloonParty.Slots.Actor.</text>
<text xml:space="preserve" text-anchor="middle" x="62" y="-176.75" font-family="Helvetica,sans-Serif" font-size="10.00">ISlotActor</text>
</a>
</g>
</g>
<!-- Node2&#45;&gt;Node1 -->
<g id="edge1_Node000001_Node000002" class="edge">
<title>Node2&#45;&gt;Node1</title>
<g id="a_edge1_Node000001_Node000002"><a xlink:title=" ">
<path fill="none" stroke="#63b8ff" d="M135.4,-186.25C143.47,-186.25 151.64,-186.25 159.55,-186.25"/>
<polygon fill="#63b8ff" stroke="#63b8ff" points="135.6,-182.75 125.6,-186.25 135.6,-189.75 135.6,-182.75"/>
</a>
</g>
</g>
<!-- Node9 -->
<g id="Node000009" class="node">
<title>Node9</title>
<g id="a_Node000009"><a xlink:href="interface_balloon_party_1_1_balloon_1_1_model_1_1_i_writeable_balloon_model.html" target="_top" xlink:title=" ">
<polygon fill="white" stroke="#666666" points="656.5,-103.5 519,-103.5 519,-73 656.5,-73 656.5,-103.5"/>
<text xml:space="preserve" text-anchor="start" x="527" y="-90" font-family="Helvetica,sans-Serif" font-size="10.00">BalloonParty.Balloon.Model.</text>
<text xml:space="preserve" text-anchor="middle" x="587.75" y="-78.75" font-family="Helvetica,sans-Serif" font-size="10.00">IWriteableBalloonModel</text>
</a>
</g>
</g>
<!-- Node8&#45;&gt;Node9 -->
<g id="edge8_Node000008_Node000009" class="edge">
<title>Node8&#45;&gt;Node9</title>
<g id="a_edge8_Node000008_Node000009"><a xlink:title=" ">
<path fill="none" stroke="#63b8ff" d="M482.72,-88.25C494.68,-88.25 506.9,-88.25 518.58,-88.25"/>
<polygon fill="#63b8ff" stroke="#63b8ff" points="482.88,-84.75 472.88,-88.25 482.88,-91.75 482.88,-84.75"/>
</a>
</g>
</g>
<!-- Node10 -->
<g id="Node000010" class="node">
<title>Node10</title>
<g id="a_Node000010"><a xlink:href="class_balloon_party_1_1_balloon_1_1_model_1_1_balloon_model_base.html" target="_top" xlink:title=" ">
<polygon fill="white" stroke="#666666" points="830,-103.5 692.5,-103.5 692.5,-73 830,-73 830,-103.5"/>
<text xml:space="preserve" text-anchor="start" x="700.5" y="-90" font-family="Helvetica,sans-Serif" font-size="10.00">BalloonParty.Balloon.Model.</text>
<text xml:space="preserve" text-anchor="middle" x="761.25" y="-78.75" font-family="Helvetica,sans-Serif" font-size="10.00">BalloonModelBase</text>
</a>
</g>
</g>
<!-- Node9&#45;&gt;Node10 -->
<g id="edge9_Node000009_Node000010" class="edge">
<title>Node9&#45;&gt;Node10</title>
<g id="a_edge9_Node000009_Node000010"><a xlink:title=" ">
<path fill="none" stroke="#63b8ff" d="M667.89,-88.25C675.98,-88.25 684.16,-88.25 692.12,-88.25"/>
<polygon fill="#63b8ff" stroke="#63b8ff" points="668.04,-84.75 658.04,-88.25 668.04,-91.75 668.04,-84.75"/>
</a>
</g>
</g>
<!-- Node11 -->
<g id="Node000011" class="node">
<title>Node11</title>
<g id="a_Node000011"><a xlink:href="class_balloon_party_1_1_balloon_1_1_model_1_1_balloon_model.html" target="_top" xlink:title=" ">
<polygon fill="white" stroke="#666666" points="1003.5,-177.5 866,-177.5 866,-147 1003.5,-147 1003.5,-177.5"/>
<text xml:space="preserve" text-anchor="start" x="874" y="-164" font-family="Helvetica,sans-Serif" font-size="10.00">BalloonParty.Balloon.Model.</text>
<text xml:space="preserve" text-anchor="middle" x="934.75" y="-152.75" font-family="Helvetica,sans-Serif" font-size="10.00">BalloonModel</text>
</a>
</g>
</g>
<!-- Node10&#45;&gt;Node11 -->
<g id="edge10_Node000010_Node000011" class="edge">
<title>Node10&#45;&gt;Node11</title>
<g id="a_edge10_Node000010_Node000011"><a xlink:title=" ">
<path fill="none" stroke="#63b8ff" d="M804,-108.99C822.78,-118.06 845.33,-128.57 866,-137.25 873.51,-140.4 881.58,-143.57 889.43,-146.53"/>
<polygon fill="#63b8ff" stroke="#63b8ff" points="805.6,-105.88 795.07,-104.65 802.54,-112.17 805.6,-105.88"/>
</a>
</g>
</g>
<!-- Node12 -->
<g id="Node000012" class="node">
<title>Node12</title>
<g id="a_Node000012"><a xlink:href="class_balloon_party_1_1_balloon_1_1_model_1_1_bubble_cluster_model.html" target="_top" xlink:title="Model for BalloonType.BubbleCluster.">
<polygon fill="white" stroke="#666666" points="1003.5,-128.5 866,-128.5 866,-98 1003.5,-98 1003.5,-128.5"/>
<text xml:space="preserve" text-anchor="start" x="874" y="-115" font-family="Helvetica,sans-Serif" font-size="10.00">BalloonParty.Balloon.Model.</text>
<text xml:space="preserve" text-anchor="middle" x="934.75" y="-103.75" font-family="Helvetica,sans-Serif" font-size="10.00">BubbleClusterModel</text>
</a>
</g>
</g>
<!-- Node10&#45;&gt;Node12 -->
<g id="edge11_Node000010_Node000012" class="edge">
<title>Node10&#45;&gt;Node12</title>
<g id="a_edge11_Node000010_Node000012"><a xlink:title=" ">
<path fill="none" stroke="#63b8ff" d="M841.39,-99.79C849.48,-100.97 857.66,-102.16 865.62,-103.32"/>
<polygon fill="#63b8ff" stroke="#63b8ff" points="841.93,-96.33 831.53,-98.35 840.92,-103.25 841.93,-96.33"/>
</a>
</g>
</g>
<!-- Node13 -->
<g id="Node000013" class="node">
<title>Node13</title>
<g id="a_Node000013"><a xlink:href="class_balloon_party_1_1_balloon_1_1_model_1_1_tough_balloon_model.html" target="_top" xlink:title=" ">
<polygon fill="white" stroke="#666666" points="1003.5,-79.5 866,-79.5 866,-49 1003.5,-49 1003.5,-79.5"/>
<text xml:space="preserve" text-anchor="start" x="874" y="-66" font-family="Helvetica,sans-Serif" font-size="10.00">BalloonParty.Balloon.Model.</text>
<text xml:space="preserve" text-anchor="middle" x="934.75" y="-54.75" font-family="Helvetica,sans-Serif" font-size="10.00">ToughBalloonModel</text>
</a>
</g>
</g>
<!-- Node10&#45;&gt;Node13 -->
<g id="edge12_Node000010_Node000013" class="edge">
<title>Node10&#45;&gt;Node13</title>
<g id="a_edge12_Node000010_Node000013"><a xlink:title=" ">
<path fill="none" stroke="#63b8ff" d="M841.39,-77.17C849.48,-76.04 857.66,-74.9 865.62,-73.78"/>
<polygon fill="#63b8ff" stroke="#63b8ff" points="840.95,-73.7 831.53,-78.55 841.92,-80.64 840.95,-73.7"/>
</a>
</g>
</g>
<!-- Node14 -->
<g id="Node000014" class="node">
<title>Node14</title>
<g id="a_Node000014"><a xlink:href="class_balloon_party_1_1_balloon_1_1_model_1_1_unbreakable_balloon_model.html" target="_top" xlink:title=" ">
<polygon fill="white" stroke="#666666" points="1003.5,-30.5 866,-30.5 866,0 1003.5,0 1003.5,-30.5"/>
<text xml:space="preserve" text-anchor="start" x="874" y="-17" font-family="Helvetica,sans-Serif" font-size="10.00">BalloonParty.Balloon.Model.</text>
<text xml:space="preserve" text-anchor="middle" x="934.75" y="-5.75" font-family="Helvetica,sans-Serif" font-size="10.00">UnbreakableBalloonModel</text>
</a>
</g>
</g>
<!-- Node10&#45;&gt;Node14 -->
<g id="edge13_Node000010_Node000014" class="edge">
<title>Node10&#45;&gt;Node14</title>
<g id="a_edge13_Node000010_Node000014"><a xlink:title=" ">
<path fill="none" stroke="#63b8ff" d="M804.46,-67.79C823.17,-58.97 845.53,-48.75 866,-40.25 873.64,-37.08 881.85,-33.88 889.82,-30.88"/>
<polygon fill="#63b8ff" stroke="#63b8ff" points="803.1,-64.56 795.57,-72.01 806.1,-70.89 803.1,-64.56"/>
</a>
</g>
</g>
</g>
</svg>
