<?xml version="1.0" encoding="UTF-8" standalone="no"?>
<!DOCTYPE svg PUBLIC "-//W3C//DTD SVG 1.1//EN"
 "http://www.w3.org/Graphics/SVG/1.1/DTD/svg11.dtd">
<!-- Generated by graphviz version 15.0.0 (20260523.1842)
 -->
<!-- Title: BalloonParty.Shared.IEffect Pages: 1 -->
<svg width="483pt" height="186pt"
 viewBox="0.00 0.00 483.00 186.00" xmlns="http://www.w3.org/2000/svg" xmlns:xlink="http://www.w3.org/1999/xlink">
<g id="graph0" class="graph" transform="scale(1 1) rotate(0) translate(4 181.5)">
<title>BalloonParty.Shared.IEffect</title>
<!-- Node1 -->
<g id="Node000001" class="node">
<title>Node1</title>
<g id="a_Node000001"><a xlink:title="Abstracts any visual effect that can be triggered at a world position and optionally tinted.">
<polygon fill="#999999" stroke="#666666" points="136,-72.88 0,-72.88 0,-53.62 136,-53.62 136,-72.88"/>
<text xml:space="preserve" text-anchor="middle" x="68" y="-59.38" font-family="Helvetica,sans-Serif" font-size="10.00">BalloonParty.Shared.IEffect</text>
</a>
</g>
</g>
<!-- Node2 -->
<g id="Node000002" class="node">
<title>Node2</title>
<g id="a_Node000002"><a xlink:href="class_balloon_party_1_1_shared_1_1_pool_1_1_effect_view.html" target="_top" xlink:title="Abstract base for poolable effect MonoBehaviours.">
<polygon fill="white" stroke="#666666" points="301.25,-103.5 172,-103.5 172,-73 301.25,-73 301.25,-103.5"/>
<text xml:space="preserve" text-anchor="start" x="180" y="-90" font-family="Helvetica,sans-Serif" font-size="10.00">BalloonParty.Shared.Pool.</text>
<text xml:space="preserve" text-anchor="middle" x="236.62" y="-78.75" font-family="Helvetica,sans-Serif" font-size="10.00">EffectView</text>
</a>
</g>
</g>
<!-- Node1&#45;&gt;Node2 -->
<g id="edge1_Node000001_Node000002" class="edge">
<title>Node1&#45;&gt;Node2</title>
<g id="a_edge1_Node000001_Node000002"><a xlink:title=" ">
<path fill="none" stroke="#63b8ff" d="M147.59,-75.04C155.63,-76.25 163.73,-77.46 171.59,-78.64"/>
<polygon fill="#63b8ff" stroke="#63b8ff" points="148.2,-71.59 137.79,-73.57 147.16,-78.52 148.2,-71.59"/>
</a>
</g>
</g>
<!-- Node7 -->
<g id="Node000007" class="node">
<title>Node7</title>
<g id="a_Node000007"><a xlink:href="class_balloon_party_1_1_shared_1_1_pool_1_1_poolable_particle.html" target="_top" xlink:title=" ">
<polygon fill="white" stroke="#666666" points="301.25,-54.5 172,-54.5 172,-24 301.25,-24 301.25,-54.5"/>
<text xml:space="preserve" text-anchor="start" x="180" y="-41" font-family="Helvetica,sans-Serif" font-size="10.00">BalloonParty.Shared.Pool.</text>
<text xml:space="preserve" text-anchor="middle" x="236.62" y="-29.75" font-family="Helvetica,sans-Serif" font-size="10.00">PoolableParticle</text>
</a>
</g>
</g>
<!-- Node1&#45;&gt;Node7 -->
<g id="edge6_Node000001_Node000007" class="edge">
<title>Node1&#45;&gt;Node7</title>
<g id="a_edge6_Node000001_Node000007"><a xlink:title=" ">
<path fill="none" stroke="#63b8ff" d="M147.59,-51.93C155.63,-50.77 163.73,-49.61 171.59,-48.47"/>
<polygon fill="#63b8ff" stroke="#63b8ff" points="147.19,-48.45 137.79,-53.34 148.19,-55.38 147.19,-48.45"/>
</a>
</g>
</g>
<!-- Node3 -->
<g id="Node000003" class="node">
<title>Node3</title>
<g id="a_Node000003"><a xlink:href="class_balloon_party_1_1_item_1_1_lightning_1_1_chain_lightning_view.html" target="_top" xlink:title="Poolable chain&#45;lightning effect.">
<polygon fill="white" stroke="#666666" points="474.75,-177.5 337.25,-177.5 337.25,-147 474.75,-147 474.75,-177.5"/>
<text xml:space="preserve" text-anchor="start" x="345.25" y="-164" font-family="Helvetica,sans-Serif" font-size="10.00">BalloonParty.Item.Lightning.</text>
<text xml:space="preserve" text-anchor="middle" x="406" y="-152.75" font-family="Helvetica,sans-Serif" font-size="10.00">ChainLightningView</text>
</a>
</g>
</g>
<!-- Node2&#45;&gt;Node3 -->
<g id="edge2_Node000002_Node000003" class="edge">
<title>Node2&#45;&gt;Node3</title>
<g id="a_edge2_Node000002_Node000003"><a xlink:title=" ">
<path fill="none" stroke="#63b8ff" d="M277.49,-109.03C295.53,-118.14 317.26,-128.67 337.25,-137.25 344.74,-140.46 352.79,-143.66 360.64,-146.63"/>
<polygon fill="#63b8ff" stroke="#63b8ff" points="279.18,-105.97 268.68,-104.55 276,-112.21 279.18,-105.97"/>
</a>
</g>
</g>
<!-- Node4 -->
<g id="Node000004" class="node">
<title>Node4</title>
<g id="a_Node000004"><a xlink:href="class_balloon_party_1_1_item_1_1_paint_1_1_paint_splash_view.html" target="_top" xlink:title="Poolable paint&#45;splash effect.">
<polygon fill="white" stroke="#666666" points="466.5,-128.5 345.5,-128.5 345.5,-98 466.5,-98 466.5,-128.5"/>
<text xml:space="preserve" text-anchor="start" x="353.5" y="-115" font-family="Helvetica,sans-Serif" font-size="10.00">BalloonParty.Item.Paint.</text>
<text xml:space="preserve" text-anchor="middle" x="406" y="-103.75" font-family="Helvetica,sans-Serif" font-size="10.00">PaintSplashView</text>
</a>
</g>
</g>
<!-- Node2&#45;&gt;Node4 -->
<g id="edge3_Node000002_Node000004" class="edge">
<title>Node2&#45;&gt;Node4</title>
<g id="a_edge3_Node000002_Node000004"><a xlink:title=" ">
<path fill="none" stroke="#63b8ff" d="M312.59,-99.45C323.44,-101.07 334.5,-102.72 345.01,-104.29"/>
<polygon fill="#63b8ff" stroke="#63b8ff" points="313.28,-96.01 302.88,-98 312.25,-102.94 313.28,-96.01"/>
</a>
</g>
</g>
<!-- Node5 -->
<g id="Node000005" class="node">
<title>Node5</title>
<g id="a_Node000005"><a xlink:href="class_balloon_party_1_1_shared_1_1_pool_1_1_animator_effect_view.html" target="_top" xlink:title="Poolable effect driven by an Animator.">
<polygon fill="white" stroke="#666666" points="470.62,-79.5 341.38,-79.5 341.38,-49 470.62,-49 470.62,-79.5"/>
<text xml:space="preserve" text-anchor="start" x="349.38" y="-66" font-family="Helvetica,sans-Serif" font-size="10.00">BalloonParty.Shared.Pool.</text>
<text xml:space="preserve" text-anchor="middle" x="406" y="-54.75" font-family="Helvetica,sans-Serif" font-size="10.00">AnimatorEffectView</text>
</a>
</g>
</g>
<!-- Node2&#45;&gt;Node5 -->
<g id="edge4_Node000002_Node000005" class="edge">
<title>Node2&#45;&gt;Node5</title>
<g id="a_edge4_Node000002_Node000005"><a xlink:title=" ">
<path fill="none" stroke="#63b8ff" d="M312.5,-77.51C322.06,-76.14 331.78,-74.75 341.15,-73.41"/>
<polygon fill="#63b8ff" stroke="#63b8ff" points="312.28,-74.01 302.88,-78.89 313.27,-80.94 312.28,-74.01"/>
</a>
</g>
</g>
<!-- Node6 -->
<g id="Node000006" class="node">
<title>Node6</title>
<g id="a_Node000006"><a xlink:href="class_balloon_party_1_1_shared_1_1_pool_1_1_particle_effect_view.html" target="_top" xlink:title="Poolable effect driven by a ParticleSystem.">
<polygon fill="white" stroke="#666666" points="470.62,-30.5 341.38,-30.5 341.38,0 470.62,0 470.62,-30.5"/>
<text xml:space="preserve" text-anchor="start" x="349.38" y="-17" font-family="Helvetica,sans-Serif" font-size="10.00">BalloonParty.Shared.Pool.</text>
<text xml:space="preserve" text-anchor="middle" x="406" y="-5.75" font-family="Helvetica,sans-Serif" font-size="10.00">ParticleEffectView</text>
</a>
</g>
</g>
<!-- Node2&#45;&gt;Node6 -->
<g id="edge5_Node000002_Node000006" class="edge">
<title>Node2&#45;&gt;Node6</title>
<g id="a_edge5_Node000002_Node000006"><a xlink:title=" ">
<path fill="none" stroke="#63b8ff" d="M291.25,-68.06C294.67,-66.5 298.03,-64.89 301.25,-63.25 318.17,-54.63 320.25,-48.7 337.25,-40.25 343.99,-36.9 351.29,-33.75 358.52,-30.89"/>
<polygon fill="#63b8ff" stroke="#63b8ff" points="290.07,-64.75 282.3,-71.95 292.86,-71.17 290.07,-64.75"/>
</a>
</g>
</g>
</g>
</svg>
