<?xml version="1.0" encoding="UTF-8" standalone="no"?>
<!DOCTYPE svg PUBLIC "-//W3C//DTD SVG 1.1//EN"
 "http://www.w3.org/Graphics/SVG/1.1/DTD/svg11.dtd">
<!-- Generated by graphviz version 15.0.0 (20260523.1842)
 -->
<!-- Title: BalloonParty.Shared.Pool.IPoolable Pages: 1 -->
<svg width="511pt" height="419pt"
 viewBox="0.00 0.00 511.00 419.00" xmlns="http://www.w3.org/2000/svg" xmlns:xlink="http://www.w3.org/1999/xlink">
<g id="graph0" class="graph" transform="scale(1 1) rotate(0) translate(4 414.5)">
<title>BalloonParty.Shared.Pool.IPoolable</title>
<!-- Node1 -->
<g id="Node000001" class="node">
<title>Node1</title>
<g id="a_Node000001"><a xlink:title=" ">
<polygon fill="#999999" stroke="#666666" points="129.25,-226.5 0,-226.5 0,-196 129.25,-196 129.25,-226.5"/>
<text xml:space="preserve" text-anchor="start" x="8" y="-213" font-family="Helvetica,sans-Serif" font-size="10.00">BalloonParty.Shared.Pool.</text>
<text xml:space="preserve" text-anchor="middle" x="64.62" y="-201.75" font-family="Helvetica,sans-Serif" font-size="10.00">IPoolable</text>
</a>
</g>
</g>
<!-- Node2 -->
<g id="Node000002" class="node">
<title>Node2</title>
<g id="a_Node000002"><a xlink:href="class_balloon_party_1_1_balloon_1_1_view_1_1_balloon_view.html" target="_top" xlink:title=" ">
<polygon fill="white" stroke="#666666" points="312.88,-410.5 181.38,-410.5 181.38,-380 312.88,-380 312.88,-410.5"/>
<text xml:space="preserve" text-anchor="start" x="189.38" y="-397" font-family="Helvetica,sans-Serif" font-size="10.00">BalloonParty.Balloon.View.</text>
<text xml:space="preserve" text-anchor="middle" x="247.12" y="-385.75" font-family="Helvetica,sans-Serif" font-size="10.00">BalloonView</text>
</a>
</g>
</g>
<!-- Node1&#45;&gt;Node2 -->
<g id="edge1_Node000001_Node000002" class="edge">
<title>Node1&#45;&gt;Node2</title>
<g id="a_edge1_Node000001_Node000002"><a xlink:title=" ">
<path fill="none" stroke="#63b8ff" d="M74.89,-237.07C88.94,-272.55 118.99,-335.99 165.25,-371.25 170.03,-374.89 175.35,-377.98 180.92,-380.6"/>
<polygon fill="#63b8ff" stroke="#63b8ff" points="78.27,-236.11 71.43,-228.02 71.73,-238.61 78.27,-236.11"/>
</a>
</g>
</g>
<!-- Node3 -->
<g id="Node000003" class="node">
<title>Node3</title>
<g id="a_Node000003"><a xlink:href="class_balloon_party_1_1_item_1_1_item_visual_view.html" target="_top" xlink:title=" ">
<polygon fill="white" stroke="#666666" points="329,-361.88 165.25,-361.88 165.25,-342.62 329,-342.62 329,-361.88"/>
<text xml:space="preserve" text-anchor="middle" x="247.12" y="-348.38" font-family="Helvetica,sans-Serif" font-size="10.00">BalloonParty.Item.ItemVisualView</text>
</a>
</g>
</g>
<!-- Node1&#45;&gt;Node3 -->
<g id="edge2_Node000001_Node000003" class="edge">
<title>Node1&#45;&gt;Node3</title>
<g id="a_edge2_Node000001_Node000003"><a xlink:title=" ">
<path fill="none" stroke="#63b8ff" d="M79.42,-236.61C96.03,-264.67 126.59,-309.1 165.25,-333.25 171.12,-336.92 177.63,-339.88 184.34,-342.27"/>
<polygon fill="#63b8ff" stroke="#63b8ff" points="82.52,-234.98 74.5,-228.05 76.45,-238.46 82.52,-234.98"/>
</a>
</g>
</g>
<!-- Node4 -->
<g id="Node000004" class="node">
<title>Node4</title>
<g id="a_Node000004"><a xlink:href="class_balloon_party_1_1_projectile_1_1_view_1_1_projectile_view.html" target="_top" xlink:title=" ">
<polygon fill="white" stroke="#666666" points="305.38,-324.5 188.88,-324.5 188.88,-294 305.38,-294 305.38,-324.5"/>
<text xml:space="preserve" text-anchor="start" x="196.88" y="-311" font-family="Helvetica,sans-Serif" font-size="10.00">BalloonParty.Projectile.</text>
<text xml:space="preserve" text-anchor="middle" x="247.12" y="-299.75" font-family="Helvetica,sans-Serif" font-size="10.00">View.ProjectileView</text>
</a>
</g>
</g>
<!-- Node1&#45;&gt;Node4 -->
<g id="edge3_Node000001_Node000004" class="edge">
<title>Node1&#45;&gt;Node4</title>
<g id="a_edge3_Node000001_Node000004"><a xlink:title=" ">
<path fill="none" stroke="#63b8ff" d="M91.9,-234.3C111.12,-250.17 138.42,-270.75 165.25,-284.25 172.6,-287.95 180.61,-291.23 188.63,-294.09"/>
<polygon fill="#63b8ff" stroke="#63b8ff" points="94.22,-231.67 84.31,-227.91 89.71,-237.03 94.22,-231.67"/>
</a>
</g>
</g>
<!-- Node5 -->
<g id="Node000005" class="node">
<title>Node5</title>
<g id="a_Node000005"><a xlink:href="class_balloon_party_1_1_shared_1_1_pool_1_1_effect_view.html" target="_top" xlink:title="Abstract base for poolable effect MonoBehaviours.">
<polygon fill="white" stroke="#666666" points="311.75,-275.5 182.5,-275.5 182.5,-245 311.75,-245 311.75,-275.5"/>
<text xml:space="preserve" text-anchor="start" x="190.5" y="-262" font-family="Helvetica,sans-Serif" font-size="10.00">BalloonParty.Shared.Pool.</text>
<text xml:space="preserve" text-anchor="middle" x="247.12" y="-250.75" font-family="Helvetica,sans-Serif" font-size="10.00">EffectView</text>
</a>
</g>
</g>
<!-- Node1&#45;&gt;Node5 -->
<g id="edge4_Node000001_Node000005" class="edge">
<title>Node1&#45;&gt;Node5</title>
<g id="a_edge4_Node000001_Node000005"><a xlink:title=" ">
<path fill="none" stroke="#63b8ff" d="M134.13,-229.85C151.93,-234.68 170.94,-239.84 188.14,-244.51"/>
<polygon fill="#63b8ff" stroke="#63b8ff" points="135.26,-226.53 124.69,-227.29 133.43,-233.28 135.26,-226.53"/>
</a>
</g>
</g>
<!-- Node10 -->
<g id="Node000010" class="node">
<title>Node10</title>
<g id="a_Node000010"><a xlink:href="class_balloon_party_1_1_shared_1_1_pool_1_1_poolable_particle.html" target="_top" xlink:title=" ">
<polygon fill="white" stroke="#666666" points="311.75,-226.5 182.5,-226.5 182.5,-196 311.75,-196 311.75,-226.5"/>
<text xml:space="preserve" text-anchor="start" x="190.5" y="-213" font-family="Helvetica,sans-Serif" font-size="10.00">BalloonParty.Shared.Pool.</text>
<text xml:space="preserve" text-anchor="middle" x="247.12" y="-201.75" font-family="Helvetica,sans-Serif" font-size="10.00">PoolableParticle</text>
</a>
</g>
</g>
<!-- Node1&#45;&gt;Node10 -->
<g id="edge9_Node000001_Node000010" class="edge">
<title>Node1&#45;&gt;Node10</title>
<g id="a_edge9_Node000001_Node000010"><a xlink:title=" ">
<path fill="none" stroke="#63b8ff" d="M140.87,-211.25C154.54,-211.25 168.7,-211.25 182.01,-211.25"/>
<polygon fill="#63b8ff" stroke="#63b8ff" points="141.03,-207.75 131.03,-211.25 141.03,-214.75 141.03,-207.75"/>
</a>
</g>
</g>
<!-- Node11 -->
<g id="Node000011" class="node">
<title>Node11</title>
<g id="a_Node000011"><a xlink:href="class_balloon_party_1_1_slots_1_1_actor_1_1_archetype_1_1_grid_actor_view.html" target="_top" xlink:title=" ">
<polygon fill="white" stroke="#666666" points="310.25,-177.5 184,-177.5 184,-147 310.25,-147 310.25,-177.5"/>
<text xml:space="preserve" text-anchor="start" x="192" y="-164" font-family="Helvetica,sans-Serif" font-size="10.00">BalloonParty.Slots.Actor.</text>
<text xml:space="preserve" text-anchor="middle" x="247.12" y="-152.75" font-family="Helvetica,sans-Serif" font-size="10.00">Archetype.GridActorView</text>
</a>
</g>
</g>
<!-- Node1&#45;&gt;Node11 -->
<g id="edge10_Node000001_Node000011" class="edge">
<title>Node1&#45;&gt;Node11</title>
<g id="a_edge10_Node000001_Node000011"><a xlink:title=" ">
<path fill="none" stroke="#63b8ff" d="M134.13,-192.65C151.93,-187.82 170.94,-182.66 188.14,-177.99"/>
<polygon fill="#63b8ff" stroke="#63b8ff" points="133.43,-189.22 124.69,-195.21 135.26,-195.97 133.43,-189.22"/>
</a>
</g>
</g>
<!-- Node12 -->
<g id="Node000012" class="node">
<title>Node12</title>
<g id="a_Node000012"><a xlink:title=" ">
<polygon fill="white" stroke="#666666" points="309.12,-128.5 185.12,-128.5 185.12,-98 309.12,-98 309.12,-128.5"/>
<text xml:space="preserve" text-anchor="start" x="193.12" y="-115" font-family="Helvetica,sans-Serif" font-size="10.00">BalloonParty.Slots.Actor.</text>
<text xml:space="preserve" text-anchor="middle" x="247.12" y="-103.75" font-family="Helvetica,sans-Serif" font-size="10.00">StaticActorView</text>
</a>
</g>
</g>
<!-- Node1&#45;&gt;Node12 -->
<g id="edge11_Node000001_Node000012" class="edge">
<title>Node1&#45;&gt;Node12</title>
<g id="a_edge11_Node000001_Node000012"><a xlink:title=" ">
<path fill="none" stroke="#63b8ff" d="M91.9,-188.2C111.12,-172.33 138.42,-151.75 165.25,-138.25 172.21,-134.75 179.75,-131.63 187.34,-128.88"/>
<polygon fill="#63b8ff" stroke="#63b8ff" points="89.71,-185.47 84.31,-194.59 94.22,-190.83 89.71,-185.47"/>
</a>
</g>
</g>
<!-- Node13 -->
<g id="Node000013" class="node">
<title>Node13</title>
<g id="a_Node000013"><a xlink:href="class_balloon_party_1_1_u_i_1_1_score_1_1_flying_trail.html" target="_top" xlink:title=" ">
<polygon fill="white" stroke="#666666" points="317.75,-79.5 176.5,-79.5 176.5,-49 317.75,-49 317.75,-79.5"/>
<text xml:space="preserve" text-anchor="start" x="184.5" y="-66" font-family="Helvetica,sans-Serif" font-size="10.00">BalloonParty.UI.Score.Flying</text>
<text xml:space="preserve" text-anchor="middle" x="247.12" y="-54.75" font-family="Helvetica,sans-Serif" font-size="10.00">Trail</text>
</a>
</g>
</g>
<!-- Node1&#45;&gt;Node13 -->
<g id="edge12_Node000001_Node000013" class="edge">
<title>Node1&#45;&gt;Node13</title>
<g id="a_edge12_Node000001_Node000013"><a xlink:title=" ">
<path fill="none" stroke="#63b8ff" d="M80,-185.93C96.96,-158.29 127.65,-114.59 165.25,-89.25 170.61,-85.64 176.52,-82.53 182.63,-79.85"/>
<polygon fill="#63b8ff" stroke="#63b8ff" points="77.09,-183.99 74.97,-194.37 83.1,-187.57 77.09,-183.99"/>
</a>
</g>
</g>
<!-- Node14 -->
<g id="Node000014" class="node">
<title>Node14</title>
<g id="a_Node000014"><a xlink:href="class_balloon_party_1_1_u_i_1_1_score_1_1_progress_notice.html" target="_top" xlink:title=" ">
<polygon fill="white" stroke="#666666" points="324.12,-30.5 170.12,-30.5 170.12,0 324.12,0 324.12,-30.5"/>
<text xml:space="preserve" text-anchor="start" x="178.12" y="-17" font-family="Helvetica,sans-Serif" font-size="10.00">BalloonParty.UI.Score.Progress</text>
<text xml:space="preserve" text-anchor="middle" x="247.12" y="-5.75" font-family="Helvetica,sans-Serif" font-size="10.00">Notice</text>
</a>
</g>
</g>
<!-- Node1&#45;&gt;Node14 -->
<g id="edge13_Node000001_Node000014" class="edge">
<title>Node1&#45;&gt;Node14</title>
<g id="a_edge13_Node000001_Node000014"><a xlink:title=" ">
<path fill="none" stroke="#63b8ff" d="M73.98,-185.09C87.29,-147.55 116.86,-78.71 165.25,-40.25 169.74,-36.68 174.73,-33.62 179.98,-31"/>
<polygon fill="#63b8ff" stroke="#63b8ff" points="70.77,-183.64 70.85,-194.23 77.4,-185.9 70.77,-183.64"/>
</a>
</g>
</g>
<!-- Node6 -->
<g id="Node000006" class="node">
<title>Node6</title>
<g id="a_Node000006"><a xlink:href="class_balloon_party_1_1_item_1_1_lightning_1_1_chain_lightning_view.html" target="_top" xlink:title="Poolable chain&#45;lightning effect.">
<polygon fill="white" stroke="#666666" points="502.5,-348.5 365,-348.5 365,-318 502.5,-318 502.5,-348.5"/>
<text xml:space="preserve" text-anchor="start" x="373" y="-335" font-family="Helvetica,sans-Serif" font-size="10.00">BalloonParty.Item.Lightning.</text>
<text xml:space="preserve" text-anchor="middle" x="433.75" y="-323.75" font-family="Helvetica,sans-Serif" font-size="10.00">ChainLightningView</text>
</a>
</g>
</g>
<!-- Node5&#45;&gt;Node6 -->
<g id="edge5_Node000005_Node000006" class="edge">
<title>Node5&#45;&gt;Node6</title>
<g id="a_edge5_Node000005_Node000006"><a xlink:title=" ">
<path fill="none" stroke="#63b8ff" d="M316.54,-279.95C320.81,-281.62 324.99,-283.39 329,-285.25 346.23,-293.24 348,-299.8 365,-308.25 371.74,-311.6 379.04,-314.75 386.27,-317.61"/>
<polygon fill="#63b8ff" stroke="#63b8ff" points="317.86,-276.71 307.26,-276.52 315.43,-283.27 317.86,-276.71"/>
</a>
</g>
</g>
<!-- Node7 -->
<g id="Node000007" class="node">
<title>Node7</title>
<g id="a_Node000007"><a xlink:href="class_balloon_party_1_1_item_1_1_paint_1_1_paint_splash_view.html" target="_top" xlink:title="Poolable paint&#45;splash effect.">
<polygon fill="white" stroke="#666666" points="494.25,-299.5 373.25,-299.5 373.25,-269 494.25,-269 494.25,-299.5"/>
<text xml:space="preserve" text-anchor="start" x="381.25" y="-286" font-family="Helvetica,sans-Serif" font-size="10.00">BalloonParty.Item.Paint.</text>
<text xml:space="preserve" text-anchor="middle" x="433.75" y="-274.75" font-family="Helvetica,sans-Serif" font-size="10.00">PaintSplashView</text>
</a>
</g>
</g>
<!-- Node5&#45;&gt;Node7 -->
<g id="edge6_Node000005_Node000007" class="edge">
<title>Node5&#45;&gt;Node7</title>
<g id="a_edge6_Node000005_Node000007"><a xlink:title=" ">
<path fill="none" stroke="#63b8ff" d="M323.43,-270.04C339.88,-272.18 357.08,-274.41 372.84,-276.46"/>
<polygon fill="#63b8ff" stroke="#63b8ff" points="324.05,-266.59 313.68,-268.77 323.15,-273.53 324.05,-266.59"/>
</a>
</g>
</g>
<!-- Node8 -->
<g id="Node000008" class="node">
<title>Node8</title>
<g id="a_Node000008"><a xlink:href="class_balloon_party_1_1_shared_1_1_pool_1_1_animator_effect_view.html" target="_top" xlink:title="Poolable effect driven by an Animator.">
<polygon fill="white" stroke="#666666" points="498.38,-250.5 369.12,-250.5 369.12,-220 498.38,-220 498.38,-250.5"/>
<text xml:space="preserve" text-anchor="start" x="377.12" y="-237" font-family="Helvetica,sans-Serif" font-size="10.00">BalloonParty.Shared.Pool.</text>
<text xml:space="preserve" text-anchor="middle" x="433.75" y="-225.75" font-family="Helvetica,sans-Serif" font-size="10.00">AnimatorEffectView</text>
</a>
</g>
</g>
<!-- Node5&#45;&gt;Node8 -->
<g id="edge7_Node000005_Node000008" class="edge">
<title>Node5&#45;&gt;Node8</title>
<g id="a_edge7_Node000005_Node000008"><a xlink:title=" ">
<path fill="none" stroke="#63b8ff" d="M323.53,-250.04C338.56,-248 354.21,-245.89 368.81,-243.91"/>
<polygon fill="#63b8ff" stroke="#63b8ff" points="323.12,-246.56 313.68,-251.37 324.06,-253.5 323.12,-246.56"/>
</a>
</g>
</g>
<!-- Node9 -->
<g id="Node000009" class="node">
<title>Node9</title>
<g id="a_Node000009"><a xlink:href="class_balloon_party_1_1_shared_1_1_pool_1_1_particle_effect_view.html" target="_top" xlink:title="Poolable effect driven by a ParticleSystem.">
<polygon fill="white" stroke="#666666" points="498.38,-201.5 369.12,-201.5 369.12,-171 498.38,-171 498.38,-201.5"/>
<text xml:space="preserve" text-anchor="start" x="377.12" y="-188" font-family="Helvetica,sans-Serif" font-size="10.00">BalloonParty.Shared.Pool.</text>
<text xml:space="preserve" text-anchor="middle" x="433.75" y="-176.75" font-family="Helvetica,sans-Serif" font-size="10.00">ParticleEffectView</text>
</a>
</g>
</g>
<!-- Node5&#45;&gt;Node9 -->
<g id="edge8_Node000005_Node000009" class="edge">
<title>Node5&#45;&gt;Node9</title>
<g id="a_edge8_Node000005_Node000009"><a xlink:title=" ">
<path fill="none" stroke="#63b8ff" d="M316.59,-240.64C320.84,-238.95 325.01,-237.15 329,-235.25 346.37,-226.99 347.86,-219.97 365,-211.25 371.59,-207.9 378.74,-204.76 385.85,-201.92"/>
<polygon fill="#63b8ff" stroke="#63b8ff" points="315.46,-237.32 307.32,-244.11 317.92,-243.88 315.46,-237.32"/>
</a>
</g>
</g>
</g>
</svg>
