<?xml version="1.0" encoding="UTF-8" standalone="no"?>
<!DOCTYPE svg PUBLIC "-//W3C//DTD SVG 1.1//EN"
 "http://www.w3.org/Graphics/SVG/1.1/DTD/svg11.dtd">
<!-- Generated by graphviz version 15.0.0 (20260523.1842)
 -->
<!-- Title: BalloonParty.Slots.Actor.ISlotActorView Pages: 1 -->
<svg width="300pt" height="137pt"
 viewBox="0.00 0.00 300.00 137.00" xmlns="http://www.w3.org/2000/svg" xmlns:xlink="http://www.w3.org/1999/xlink">
<g id="graph0" class="graph" transform="scale(1 1) rotate(0) translate(4 132.5)">
<title>BalloonParty.Slots.Actor.ISlotActorView</title>
<!-- Node1 -->
<g id="Node000001" class="node">
<title>Node1</title>
<g id="a_Node000001"><a xlink:title=" ">
<polygon fill="#999999" stroke="#666666" points="124,-79.5 0,-79.5 0,-49 124,-49 124,-79.5"/>
<text xml:space="preserve" text-anchor="start" x="8" y="-66" font-family="Helvetica,sans-Serif" font-size="10.00">BalloonParty.Slots.Actor.</text>
<text xml:space="preserve" text-anchor="middle" x="62" y="-54.75" font-family="Helvetica,sans-Serif" font-size="10.00">ISlotActorView</text>
</a>
</g>
</g>
<!-- Node2 -->
<g id="Node000002" class="node">
<title>Node2</title>
<g id="a_Node000002"><a xlink:href="class_balloon_party_1_1_balloon_1_1_view_1_1_balloon_view.html" target="_top" xlink:title=" ">
<polygon fill="white" stroke="#666666" points="291.5,-128.5 160,-128.5 160,-98 291.5,-98 291.5,-128.5"/>
<text xml:space="preserve" text-anchor="start" x="168" y="-115" font-family="Helvetica,sans-Serif" font-size="10.00">BalloonParty.Balloon.View.</text>
<text xml:space="preserve" text-anchor="middle" x="225.75" y="-103.75" font-family="Helvetica,sans-Serif" font-size="10.00">BalloonView</text>
</a>
</g>
</g>
<!-- Node1&#45;&gt;Node2 -->
<g id="edge1_Node000001_Node000002" class="edge">
<title>Node1&#45;&gt;Node2</title>
<g id="a_edge1_Node000001_Node000002"><a xlink:title=" ">
<path fill="none" stroke="#63b8ff" d="M125.3,-83.12C140.99,-87.87 157.66,-92.93 172.78,-97.51"/>
<polygon fill="#63b8ff" stroke="#63b8ff" points="126.66,-79.88 116.07,-80.33 124.63,-86.58 126.66,-79.88"/>
</a>
</g>
</g>
<!-- Node3 -->
<g id="Node000003" class="node">
<title>Node3</title>
<g id="a_Node000003"><a xlink:href="class_balloon_party_1_1_slots_1_1_actor_1_1_archetype_1_1_grid_actor_view.html" target="_top" xlink:title=" ">
<polygon fill="white" stroke="#666666" points="288.88,-79.5 162.62,-79.5 162.62,-49 288.88,-49 288.88,-79.5"/>
<text xml:space="preserve" text-anchor="start" x="170.62" y="-66" font-family="Helvetica,sans-Serif" font-size="10.00">BalloonParty.Slots.Actor.</text>
<text xml:space="preserve" text-anchor="middle" x="225.75" y="-54.75" font-family="Helvetica,sans-Serif" font-size="10.00">Archetype.GridActorView</text>
</a>
</g>
</g>
<!-- Node1&#45;&gt;Node3 -->
<g id="edge2_Node000001_Node000003" class="edge">
<title>Node1&#45;&gt;Node3</title>
<g id="a_edge2_Node000001_Node000003"><a xlink:title=" ">
<path fill="none" stroke="#63b8ff" d="M135.37,-64.25C144.31,-64.25 153.39,-64.25 162.17,-64.25"/>
<polygon fill="#63b8ff" stroke="#63b8ff" points="135.66,-60.75 125.66,-64.25 135.66,-67.75 135.66,-60.75"/>
</a>
</g>
</g>
<!-- Node4 -->
<g id="Node000004" class="node">
<title>Node4</title>
<g id="a_Node000004"><a xlink:title=" ">
<polygon fill="white" stroke="#666666" points="287.75,-30.5 163.75,-30.5 163.75,0 287.75,0 287.75,-30.5"/>
<text xml:space="preserve" text-anchor="start" x="171.75" y="-17" font-family="Helvetica,sans-Serif" font-size="10.00">BalloonParty.Slots.Actor.</text>
<text xml:space="preserve" text-anchor="middle" x="225.75" y="-5.75" font-family="Helvetica,sans-Serif" font-size="10.00">StaticActorView</text>
</a>
</g>
</g>
<!-- Node1&#45;&gt;Node4 -->
<g id="edge3_Node000001_Node000004" class="edge">
<title>Node1&#45;&gt;Node4</title>
<g id="a_edge3_Node000001_Node000004"><a xlink:title=" ">
<path fill="none" stroke="#63b8ff" d="M125.3,-45.38C140.99,-40.63 157.66,-35.57 172.78,-30.99"/>
<polygon fill="#63b8ff" stroke="#63b8ff" points="124.63,-41.92 116.07,-48.17 126.66,-48.62 124.63,-41.92"/>
</a>
</g>
</g>
</g>
</svg>
