<?xml version="1.0" encoding="UTF-8" standalone="no"?>
<!DOCTYPE svg PUBLIC "-//W3C//DTD SVG 1.1//EN"
 "http://www.w3.org/Graphics/SVG/1.1/DTD/svg11.dtd">
<!-- Generated by graphviz version 15.0.0 (20260523.1842)
 -->
<!-- Title: BalloonParty.Slots.Capabilities.IHasColor Pages: 1 -->
<svg width="711pt" height="88pt"
 viewBox="0.00 0.00 711.00 88.00" xmlns="http://www.w3.org/2000/svg" xmlns:xlink="http://www.w3.org/1999/xlink">
<g id="graph0" class="graph" transform="scale(1 1) rotate(0) translate(4 83.5)">
<title>BalloonParty.Slots.Capabilities.IHasColor</title>
<!-- Node1 -->
<g id="Node000001" class="node">
<title>Node1</title>
<g id="a_Node000001"><a xlink:title=" ">
<polygon fill="#999999" stroke="#666666" points="152.5,-54.5 0,-54.5 0,-24 152.5,-24 152.5,-54.5"/>
<text xml:space="preserve" text-anchor="start" x="8" y="-41" font-family="Helvetica,sans-Serif" font-size="10.00">BalloonParty.Slots.Capabilities.</text>
<text xml:space="preserve" text-anchor="middle" x="76.25" y="-29.75" font-family="Helvetica,sans-Serif" font-size="10.00">IHasColor</text>
</a>
</g>
</g>
<!-- Node2 -->
<g id="Node000002" class="node">
<title>Node2</title>
<g id="a_Node000002"><a xlink:href="interface_balloon_party_1_1_slots_1_1_capabilities_1_1_i_has_item_slot.html" target="_top" xlink:title="Declares that an actor can host an item.">
<polygon fill="white" stroke="#666666" points="341,-77.5 188.5,-77.5 188.5,-47 341,-47 341,-77.5"/>
<text xml:space="preserve" text-anchor="start" x="196.5" y="-64" font-family="Helvetica,sans-Serif" font-size="10.00">BalloonParty.Slots.Capabilities.</text>
<text xml:space="preserve" text-anchor="middle" x="264.75" y="-52.75" font-family="Helvetica,sans-Serif" font-size="10.00">IHasItemSlot</text>
</a>
</g>
</g>
<!-- Node1&#45;&gt;Node2 -->
<g id="edge1_Node000001_Node000002" class="edge">
<title>Node1&#45;&gt;Node2</title>
<g id="a_edge1_Node000001_Node000002"><a xlink:title=" ">
<path fill="none" stroke="#63b8ff" d="M164.09,-49.96C172.09,-50.95 180.16,-51.94 188.05,-52.91"/>
<polygon fill="#63b8ff" stroke="#63b8ff" points="164.69,-46.51 154.34,-48.76 163.84,-53.45 164.69,-46.51"/>
</a>
</g>
</g>
<!-- Node5 -->
<g id="Node000005" class="node">
<title>Node5</title>
<g id="a_Node000005"><a xlink:href="interface_balloon_party_1_1_slots_1_1_capabilities_1_1_i_paintable.html" target="_top" xlink:title="Declares that an actor&#39;s color identity can be overwritten.">
<polygon fill="white" stroke="#666666" points="529.5,-30.5 377,-30.5 377,0 529.5,0 529.5,-30.5"/>
<text xml:space="preserve" text-anchor="start" x="385" y="-17" font-family="Helvetica,sans-Serif" font-size="10.00">BalloonParty.Slots.Capabilities.</text>
<text xml:space="preserve" text-anchor="middle" x="453.25" y="-5.75" font-family="Helvetica,sans-Serif" font-size="10.00">IPaintable</text>
</a>
</g>
</g>
<!-- Node1&#45;&gt;Node5 -->
<g id="edge4_Node000001_Node000005" class="edge">
<title>Node1&#45;&gt;Node5</title>
<g id="a_edge4_Node000001_Node000005"><a xlink:title=" ">
<path fill="none" stroke="#63b8ff" d="M164.02,-33.7C228.33,-29.58 315.12,-24.03 376.61,-20.09"/>
<polygon fill="#63b8ff" stroke="#63b8ff" points="163.95,-30.19 154.2,-34.33 164.4,-37.18 163.95,-30.19"/>
</a>
</g>
</g>
<!-- Node3 -->
<g id="Node000003" class="node">
<title>Node3</title>
<g id="a_Node000003"><a xlink:href="interface_balloon_party_1_1_balloon_1_1_model_1_1_i_has_writeable_item_slot.html" target="_top" xlink:title=" ">
<polygon fill="white" stroke="#666666" points="522,-79.5 384.5,-79.5 384.5,-49 522,-49 522,-79.5"/>
<text xml:space="preserve" text-anchor="start" x="392.5" y="-66" font-family="Helvetica,sans-Serif" font-size="10.00">BalloonParty.Balloon.Model.</text>
<text xml:space="preserve" text-anchor="middle" x="453.25" y="-54.75" font-family="Helvetica,sans-Serif" font-size="10.00">IHasWriteableItemSlot</text>
</a>
</g>
</g>
<!-- Node2&#45;&gt;Node3 -->
<g id="edge2_Node000002_Node000003" class="edge">
<title>Node2&#45;&gt;Node3</title>
<g id="a_edge2_Node000002_Node000003"><a xlink:title=" ">
<path fill="none" stroke="#63b8ff" d="M352.7,-63.18C363.23,-63.3 373.86,-63.41 384.07,-63.52"/>
<polygon fill="#63b8ff" stroke="#63b8ff" points="352.89,-59.68 342.85,-63.08 352.81,-66.68 352.89,-59.68"/>
</a>
</g>
</g>
<!-- Node4 -->
<g id="Node000004" class="node">
<title>Node4</title>
<g id="a_Node000004"><a xlink:title=" ">
<polygon fill="white" stroke="#666666" points="703,-54.5 565.5,-54.5 565.5,-24 703,-24 703,-54.5"/>
<text xml:space="preserve" text-anchor="start" x="573.5" y="-41" font-family="Helvetica,sans-Serif" font-size="10.00">BalloonParty.Balloon.Model.</text>
<text xml:space="preserve" text-anchor="middle" x="634.25" y="-29.75" font-family="Helvetica,sans-Serif" font-size="10.00">BalloonModel</text>
</a>
</g>
</g>
<!-- Node3&#45;&gt;Node4 -->
<g id="edge3_Node000003_Node000004" class="edge">
<title>Node3&#45;&gt;Node4</title>
<g id="a_edge3_Node000003_Node000004"><a xlink:title=" ">
<path fill="none" stroke="#63b8ff" d="M533.74,-53.15C544.26,-51.68 554.96,-50.18 565.26,-48.75"/>
<polygon fill="#63b8ff" stroke="#63b8ff" points="533.35,-49.67 523.93,-54.52 534.32,-56.6 533.35,-49.67"/>
</a>
</g>
</g>
<!-- Node5&#45;&gt;Node4 -->
<g id="edge5_Node000005_Node000004" class="edge">
<title>Node5&#45;&gt;Node4</title>
<g id="a_edge5_Node000005_Node000004"><a xlink:title=" ">
<path fill="none" stroke="#63b8ff" d="M541.25,-26.92C549.31,-28 557.4,-29.08 565.25,-30.13"/>
<polygon fill="#63b8ff" stroke="#63b8ff" points="541.78,-23.45 531.4,-25.59 540.85,-30.39 541.78,-23.45"/>
</a>
</g>
</g>
</g>
</svg>
