<?xml version="1.0" encoding="UTF-8" standalone="no"?>
<!DOCTYPE svg PUBLIC "-//W3C//DTD SVG 1.1//EN"
 "http://www.w3.org/Graphics/SVG/1.1/DTD/svg11.dtd">
<!-- Generated by graphviz version 15.0.0 (20260523.1842)
 -->
<!-- Title: BalloonParty.Slots.Capabilities.IHitable Pages: 1 -->
<svg width="910pt" height="251pt"
 viewBox="0.00 0.00 910.00 251.00" xmlns="http://www.w3.org/2000/svg" xmlns:xlink="http://www.w3.org/1999/xlink">
<g id="graph0" class="graph" transform="scale(1 1) rotate(0) translate(4 246.5)">
<title>BalloonParty.Slots.Capabilities.IHitable</title>
<!-- Node1 -->
<g id="Node000001" class="node">
<title>Node1</title>
<g id="a_Node000001"><a xlink:title=" ">
<polygon fill="#999999" stroke="#666666" points="152.5,-100.5 0,-100.5 0,-70 152.5,-70 152.5,-100.5"/>
<text xml:space="preserve" text-anchor="start" x="8" y="-87" font-family="Helvetica,sans-Serif" font-size="10.00">BalloonParty.Slots.Capabilities.</text>
<text xml:space="preserve" text-anchor="middle" x="76.25" y="-75.75" font-family="Helvetica,sans-Serif" font-size="10.00">IHitable</text>
</a>
</g>
</g>
<!-- Node2 -->
<g id="Node000002" class="node">
<title>Node2</title>
<g id="a_Node000002"><a xlink:href="interface_balloon_party_1_1_balloon_1_1_model_1_1_i_balloon_model.html" target="_top" xlink:title=" ">
<polygon fill="white" stroke="#666666" points="333.5,-166.5 196,-166.5 196,-136 333.5,-136 333.5,-166.5"/>
<text xml:space="preserve" text-anchor="start" x="204" y="-153" font-family="Helvetica,sans-Serif" font-size="10.00">BalloonParty.Balloon.Model.</text>
<text xml:space="preserve" text-anchor="middle" x="264.75" y="-141.75" font-family="Helvetica,sans-Serif" font-size="10.00">IBalloonModel</text>
</a>
</g>
</g>
<!-- Node1&#45;&gt;Node2 -->
<g id="edge1_Node000001_Node000002" class="edge">
<title>Node1&#45;&gt;Node2</title>
<g id="a_edge1_Node000001_Node000002"><a xlink:title=" ">
<path fill="none" stroke="#63b8ff" d="M132.21,-104.7C160.05,-114.55 193.39,-126.35 219.55,-135.61"/>
<polygon fill="#63b8ff" stroke="#63b8ff" points="133.47,-101.43 122.87,-101.4 131.13,-108.03 133.47,-101.43"/>
</a>
</g>
</g>
<!-- Node9 -->
<g id="Node000009" class="node">
<title>Node9</title>
<g id="a_Node000009"><a xlink:title=" ">
<polygon fill="white" stroke="#666666" points="340.62,-79.5 188.88,-79.5 188.88,-49 340.62,-49 340.62,-79.5"/>
<text xml:space="preserve" text-anchor="start" x="196.88" y="-66" font-family="Helvetica,sans-Serif" font-size="10.00">BalloonParty.Slots.Actor.</text>
<text xml:space="preserve" text-anchor="middle" x="264.75" y="-54.75" font-family="Helvetica,sans-Serif" font-size="10.00">Archetype.AbsorberActorModel</text>
</a>
</g>
</g>
<!-- Node1&#45;&gt;Node9 -->
<g id="edge8_Node000001_Node000009" class="edge">
<title>Node1&#45;&gt;Node9</title>
<g id="a_edge8_Node000001_Node000009"><a xlink:title=" ">
<path fill="none" stroke="#63b8ff" d="M164,-75.48C172.24,-74.55 180.55,-73.62 188.66,-72.71"/>
<polygon fill="#63b8ff" stroke="#63b8ff" points="163.89,-71.97 154.34,-76.57 164.67,-78.93 163.89,-71.97"/>
</a>
</g>
</g>
<!-- Node10 -->
<g id="Node000010" class="node">
<title>Node10</title>
<g id="a_Node000010"><a xlink:title=" ">
<polygon fill="white" stroke="#666666" points="341,-30.5 188.5,-30.5 188.5,0 341,0 341,-30.5"/>
<text xml:space="preserve" text-anchor="start" x="196.5" y="-17" font-family="Helvetica,sans-Serif" font-size="10.00">BalloonParty.Slots.Actor.</text>
<text xml:space="preserve" text-anchor="middle" x="264.75" y="-5.75" font-family="Helvetica,sans-Serif" font-size="10.00">Archetype.DeflectorActorModel</text>
</a>
</g>
</g>
<!-- Node1&#45;&gt;Node10 -->
<g id="edge9_Node000001_Node000010" class="edge">
<title>Node1&#45;&gt;Node10</title>
<g id="a_edge9_Node000001_Node000010"><a xlink:title=" ">
<path fill="none" stroke="#63b8ff" d="M124.86,-65.22C144.46,-57.17 167.47,-47.99 188.5,-40.25 197.03,-37.11 206.16,-33.93 215.02,-30.94"/>
<polygon fill="#63b8ff" stroke="#63b8ff" points="123.66,-61.92 115.76,-68.97 126.34,-68.39 123.66,-61.92"/>
</a>
</g>
</g>
<!-- Node11 -->
<g id="Node000011" class="node">
<title>Node11</title>
<g id="a_Node000011"><a xlink:href="interface_balloon_party_1_1_slots_1_1_capabilities_1_1_i_has_durability.html" target="_top" xlink:title=" ">
<polygon fill="white" stroke="#666666" points="703,-119.5 550.5,-119.5 550.5,-89 703,-89 703,-119.5"/>
<text xml:space="preserve" text-anchor="start" x="558.5" y="-106" font-family="Helvetica,sans-Serif" font-size="10.00">BalloonParty.Slots.Capabilities.</text>
<text xml:space="preserve" text-anchor="middle" x="626.75" y="-94.75" font-family="Helvetica,sans-Serif" font-size="10.00">IHasDurability</text>
</a>
</g>
</g>
<!-- Node1&#45;&gt;Node11 -->
<g id="edge10_Node000001_Node000011" class="edge">
<title>Node1&#45;&gt;Node11</title>
<g id="a_edge10_Node000001_Node000011"><a xlink:title=" ">
<path fill="none" stroke="#63b8ff" d="M164.29,-88.27C270.83,-91.96 449.48,-98.14 550.4,-101.64"/>
<polygon fill="#63b8ff" stroke="#63b8ff" points="164.57,-84.77 154.45,-87.92 164.33,-91.77 164.57,-84.77"/>
</a>
</g>
</g>
<!-- Node3 -->
<g id="Node000003" class="node">
<title>Node3</title>
<g id="a_Node000003"><a xlink:href="interface_balloon_party_1_1_balloon_1_1_model_1_1_i_writeable_balloon_model.html" target="_top" xlink:title=" ">
<polygon fill="white" stroke="#666666" points="514.5,-166.5 377,-166.5 377,-136 514.5,-136 514.5,-166.5"/>
<text xml:space="preserve" text-anchor="start" x="385" y="-153" font-family="Helvetica,sans-Serif" font-size="10.00">BalloonParty.Balloon.Model.</text>
<text xml:space="preserve" text-anchor="middle" x="445.75" y="-141.75" font-family="Helvetica,sans-Serif" font-size="10.00">IWriteableBalloonModel</text>
</a>
</g>
</g>
<!-- Node2&#45;&gt;Node3 -->
<g id="edge2_Node000002_Node000003" class="edge">
<title>Node2&#45;&gt;Node3</title>
<g id="a_edge2_Node000002_Node000003"><a xlink:title=" ">
<path fill="none" stroke="#63b8ff" d="M345.24,-151.25C355.76,-151.25 366.46,-151.25 376.76,-151.25"/>
<polygon fill="#63b8ff" stroke="#63b8ff" points="345.45,-147.75 335.45,-151.25 345.45,-154.75 345.45,-147.75"/>
</a>
</g>
</g>
<!-- Node4 -->
<g id="Node000004" class="node">
<title>Node4</title>
<g id="a_Node000004"><a xlink:title=" ">
<polygon fill="white" stroke="#666666" points="695.5,-168.5 558,-168.5 558,-138 695.5,-138 695.5,-168.5"/>
<text xml:space="preserve" text-anchor="start" x="566" y="-155" font-family="Helvetica,sans-Serif" font-size="10.00">BalloonParty.Balloon.Model.</text>
<text xml:space="preserve" text-anchor="middle" x="626.75" y="-143.75" font-family="Helvetica,sans-Serif" font-size="10.00">BalloonModelBase</text>
</a>
</g>
</g>
<!-- Node3&#45;&gt;Node4 -->
<g id="edge3_Node000003_Node000004" class="edge">
<title>Node3&#45;&gt;Node4</title>
<g id="a_edge3_Node000003_Node000004"><a xlink:title=" ">
<path fill="none" stroke="#63b8ff" d="M526.24,-152.14C536.76,-152.26 547.46,-152.38 557.76,-152.49"/>
<polygon fill="#63b8ff" stroke="#63b8ff" points="526.48,-148.64 516.45,-152.03 526.41,-155.64 526.48,-148.64"/>
</a>
</g>
</g>
<!-- Node5 -->
<g id="Node000005" class="node">
<title>Node5</title>
<g id="a_Node000005"><a xlink:title=" ">
<polygon fill="white" stroke="#666666" points="889.25,-193.5 751.75,-193.5 751.75,-163 889.25,-163 889.25,-193.5"/>
<text xml:space="preserve" text-anchor="start" x="759.75" y="-180" font-family="Helvetica,sans-Serif" font-size="10.00">BalloonParty.Balloon.Model.</text>
<text xml:space="preserve" text-anchor="middle" x="820.5" y="-168.75" font-family="Helvetica,sans-Serif" font-size="10.00">BalloonModel</text>
</a>
</g>
</g>
<!-- Node4&#45;&gt;Node5 -->
<g id="edge4_Node000004_Node000005" class="edge">
<title>Node4&#45;&gt;Node5</title>
<g id="a_edge4_Node000004_Node000005"><a xlink:title=" ">
<path fill="none" stroke="#63b8ff" d="M707,-163.58C721.69,-165.5 736.92,-167.48 751.25,-169.35"/>
<polygon fill="#63b8ff" stroke="#63b8ff" points="707.76,-160.15 697.39,-162.33 706.86,-167.09 707.76,-160.15"/>
</a>
</g>
</g>
<!-- Node6 -->
<g id="Node000006" class="node">
<title>Node6</title>
<g id="a_Node000006"><a xlink:title=" ">
<polygon fill="white" stroke="#666666" points="889.25,-144.5 751.75,-144.5 751.75,-114 889.25,-114 889.25,-144.5"/>
<text xml:space="preserve" text-anchor="start" x="759.75" y="-131" font-family="Helvetica,sans-Serif" font-size="10.00">BalloonParty.Balloon.Model.</text>
<text xml:space="preserve" text-anchor="middle" x="820.5" y="-119.75" font-family="Helvetica,sans-Serif" font-size="10.00">BubbleClusterModel</text>
</a>
</g>
</g>
<!-- Node4&#45;&gt;Node6 -->
<g id="edge5_Node000004_Node000006" class="edge">
<title>Node4&#45;&gt;Node6</title>
<g id="a_edge5_Node000004_Node000006"><a xlink:title=" ">
<path fill="none" stroke="#63b8ff" d="M707,-143.33C721.69,-141.49 736.92,-139.59 751.25,-137.79"/>
<polygon fill="#63b8ff" stroke="#63b8ff" points="706.88,-139.82 697.4,-144.53 707.75,-146.76 706.88,-139.82"/>
</a>
</g>
</g>
<!-- Node7 -->
<g id="Node000007" class="node">
<title>Node7</title>
<g id="a_Node000007"><a xlink:title=" ">
<polygon fill="white" stroke="#666666" points="889.25,-95.5 751.75,-95.5 751.75,-65 889.25,-65 889.25,-95.5"/>
<text xml:space="preserve" text-anchor="start" x="759.75" y="-82" font-family="Helvetica,sans-Serif" font-size="10.00">BalloonParty.Balloon.Model.</text>
<text xml:space="preserve" text-anchor="middle" x="820.5" y="-70.75" font-family="Helvetica,sans-Serif" font-size="10.00">ToughBalloonModel</text>
</a>
</g>
</g>
<!-- Node4&#45;&gt;Node7 -->
<g id="edge6_Node000004_Node000007" class="edge">
<title>Node4&#45;&gt;Node7</title>
<g id="a_edge6_Node000004_Node000007"><a xlink:title=" ">
<path fill="none" stroke="#63b8ff" d="M691.31,-133.4C695.31,-131.76 699.24,-130.04 703,-128.25 720.14,-120.08 721.78,-113.25 739,-105.25 746.43,-101.8 754.47,-98.66 762.48,-95.86"/>
<polygon fill="#63b8ff" stroke="#63b8ff" points="690.1,-130.11 682.04,-136.99 692.63,-136.64 690.1,-130.11"/>
</a>
</g>
</g>
<!-- Node8 -->
<g id="Node000008" class="node">
<title>Node8</title>
<g id="a_Node000008"><a xlink:title=" ">
<polygon fill="white" stroke="#666666" points="889.25,-242.5 751.75,-242.5 751.75,-212 889.25,-212 889.25,-242.5"/>
<text xml:space="preserve" text-anchor="start" x="759.75" y="-229" font-family="Helvetica,sans-Serif" font-size="10.00">BalloonParty.Balloon.Model.</text>
<text xml:space="preserve" text-anchor="middle" x="820.5" y="-217.75" font-family="Helvetica,sans-Serif" font-size="10.00">UnbreakableBalloonModel</text>
</a>
</g>
</g>
<!-- Node4&#45;&gt;Node8 -->
<g id="edge7_Node000004_Node000008" class="edge">
<title>Node4&#45;&gt;Node8</title>
<g id="a_edge7_Node000004_Node000008"><a xlink:title=" ">
<path fill="none" stroke="#63b8ff" d="M670.7,-173.53C691.16,-182.84 716.11,-193.69 739,-202.25 747.63,-205.48 756.9,-208.64 765.95,-211.56"/>
<polygon fill="#63b8ff" stroke="#63b8ff" points="672.37,-170.45 661.82,-169.46 669.45,-176.81 672.37,-170.45"/>
</a>
</g>
</g>
<!-- Node11&#45;&gt;Node5 -->
<g id="edge11_Node000011_Node000005" class="edge">
<title>Node11&#45;&gt;Node5</title>
<g id="a_edge11_Node000011_Node000005"><a xlink:title=" ">
<path fill="none" stroke="#63b8ff" d="M691.56,-124.1C695.48,-125.74 699.32,-127.45 703,-129.25 720.28,-137.69 721.64,-144.98 739,-153.25 746.27,-156.71 754.13,-159.84 761.99,-162.62"/>
<polygon fill="#63b8ff" stroke="#63b8ff" points="693.09,-120.94 682.5,-120.54 690.53,-127.46 693.09,-120.94"/>
</a>
</g>
</g>
<!-- Node11&#45;&gt;Node6 -->
<g id="edge12_Node000011_Node000006" class="edge">
<title>Node11&#45;&gt;Node6</title>
<g id="a_edge12_Node000011_Node000006"><a xlink:title=" ">
<path fill="none" stroke="#63b8ff" d="M714.57,-115.57C726.97,-117.19 739.57,-118.83 751.54,-120.39"/>
<polygon fill="#63b8ff" stroke="#63b8ff" points="715.13,-112.11 704.76,-114.29 714.22,-119.05 715.13,-112.11"/>
</a>
</g>
</g>
<!-- Node11&#45;&gt;Node7 -->
<g id="edge13_Node000011_Node000007" class="edge">
<title>Node11&#45;&gt;Node7</title>
<g id="a_edge13_Node000011_Node000007"><a xlink:title=" ">
<path fill="none" stroke="#63b8ff" d="M714.57,-93.38C726.97,-91.83 739.57,-90.25 751.54,-88.76"/>
<polygon fill="#63b8ff" stroke="#63b8ff" points="714.25,-89.9 704.76,-94.61 715.12,-96.84 714.25,-89.9"/>
</a>
</g>
</g>
<!-- Node12 -->
<g id="Node000012" class="node">
<title>Node12</title>
<g id="a_Node000012"><a xlink:title=" ">
<polygon fill="white" stroke="#666666" points="902,-46.5 739,-46.5 739,-16 902,-16 902,-46.5"/>
<text xml:space="preserve" text-anchor="start" x="747" y="-33" font-family="Helvetica,sans-Serif" font-size="10.00">BalloonParty.Slots.Actor.</text>
<text xml:space="preserve" text-anchor="middle" x="820.5" y="-21.75" font-family="Helvetica,sans-Serif" font-size="10.00">Archetype.GatekeeperActorModel</text>
</a>
</g>
</g>
<!-- Node11&#45;&gt;Node12 -->
<g id="edge14_Node000011_Node000012" class="edge">
<title>Node11&#45;&gt;Node12</title>
<g id="a_edge14_Node000011_Node000012"><a xlink:title=" ">
<path fill="none" stroke="#63b8ff" d="M671.93,-83.91C692.17,-74.92 716.59,-64.54 739,-56.25 747.78,-53 757.21,-49.81 766.4,-46.86"/>
<polygon fill="#63b8ff" stroke="#63b8ff" points="670.53,-80.7 662.84,-87.98 673.39,-87.09 670.53,-80.7"/>
</a>
</g>
</g>
</g>
</svg>
