<?xml version="1.0" encoding="UTF-8" standalone="no"?>
<!DOCTYPE svg PUBLIC "-//W3C//DTD SVG 1.1//EN"
 "http://www.w3.org/Graphics/SVG/1.1/DTD/svg11.dtd">
<!-- Generated by graphviz version 15.0.0 (20260523.1842)
 -->
<!-- Title: BalloonParty.Slots.Actor.ISlotActor Pages: 1 -->
<svg width="1012pt" height="431pt"
 viewBox="0.00 0.00 1012.00 431.00" xmlns="http://www.w3.org/2000/svg" xmlns:xlink="http://www.w3.org/1999/xlink">
<g id="graph0" class="graph" transform="scale(1 1) rotate(0) translate(4 426.5)">
<title>BalloonParty.Slots.Actor.ISlotActor</title>
<!-- Node1 -->
<g id="Node000001" class="node">
<title>Node1</title>
<g id="a_Node000001"><a xlink:title=" ">
<polygon fill="#999999" stroke="#666666" points="124,-251.5 0,-251.5 0,-221 124,-221 124,-251.5"/>
<text xml:space="preserve" text-anchor="start" x="8" y="-238" font-family="Helvetica,sans-Serif" font-size="10.00">BalloonParty.Slots.Actor.</text>
<text xml:space="preserve" text-anchor="middle" x="62" y="-226.75" font-family="Helvetica,sans-Serif" font-size="10.00">ISlotActor</text>
</a>
</g>
</g>
<!-- Node2 -->
<g id="Node000002" class="node">
<title>Node2</title>
<g id="a_Node000002"><a xlink:href="interface_balloon_party_1_1_slots_1_1_actor_1_1_i_dynamic_slot_actor.html" target="_top" xlink:title=" ">
<polygon fill="white" stroke="#666666" points="284,-324.5 160,-324.5 160,-294 284,-294 284,-324.5"/>
<text xml:space="preserve" text-anchor="start" x="168" y="-311" font-family="Helvetica,sans-Serif" font-size="10.00">BalloonParty.Slots.Actor.</text>
<text xml:space="preserve" text-anchor="middle" x="222" y="-299.75" font-family="Helvetica,sans-Serif" font-size="10.00">IDynamicSlotActor</text>
</a>
</g>
</g>
<!-- Node1&#45;&gt;Node2 -->
<g id="edge1_Node000001_Node000002" class="edge">
<title>Node1&#45;&gt;Node2</title>
<g id="a_edge1_Node000001_Node000002"><a xlink:title=" ">
<path fill="none" stroke="#63b8ff" d="M107.33,-256.73C132.63,-268.42 163.85,-282.84 187.16,-293.62"/>
<polygon fill="#63b8ff" stroke="#63b8ff" points="108.81,-253.56 98.27,-252.55 105.88,-259.92 108.81,-253.56"/>
</a>
</g>
</g>
<!-- Node11 -->
<g id="Node000011" class="node">
<title>Node11</title>
<g id="a_Node000011"><a xlink:href="interface_balloon_party_1_1_slots_1_1_actor_1_1_i_writeable_slot_actor.html" target="_top" xlink:title=" ">
<polygon fill="white" stroke="#666666" points="284,-202.5 160,-202.5 160,-172 284,-172 284,-202.5"/>
<text xml:space="preserve" text-anchor="start" x="168" y="-189" font-family="Helvetica,sans-Serif" font-size="10.00">BalloonParty.Slots.Actor.</text>
<text xml:space="preserve" text-anchor="middle" x="222" y="-177.75" font-family="Helvetica,sans-Serif" font-size="10.00">IWriteableSlotActor</text>
</a>
</g>
</g>
<!-- Node1&#45;&gt;Node11 -->
<g id="edge11_Node000001_Node000011" class="edge">
<title>Node1&#45;&gt;Node11</title>
<g id="a_edge11_Node000001_Node000011"><a xlink:title=" ">
<path fill="none" stroke="#63b8ff" d="M124.29,-217.24C139.49,-212.53 155.61,-207.53 170.24,-202.99"/>
<polygon fill="#63b8ff" stroke="#63b8ff" points="123.39,-213.86 114.87,-220.16 125.46,-220.54 123.39,-213.86"/>
</a>
</g>
</g>
<!-- Node3 -->
<g id="Node000003" class="node">
<title>Node3</title>
<g id="a_Node000003"><a xlink:href="interface_balloon_party_1_1_balloon_1_1_model_1_1_i_balloon_model.html" target="_top" xlink:title=" ">
<polygon fill="white" stroke="#666666" points="470.25,-373.5 332.75,-373.5 332.75,-343 470.25,-343 470.25,-373.5"/>
<text xml:space="preserve" text-anchor="start" x="340.75" y="-360" font-family="Helvetica,sans-Serif" font-size="10.00">BalloonParty.Balloon.Model.</text>
<text xml:space="preserve" text-anchor="middle" x="401.5" y="-348.75" font-family="Helvetica,sans-Serif" font-size="10.00">IBalloonModel</text>
</a>
</g>
</g>
<!-- Node2&#45;&gt;Node3 -->
<g id="edge2_Node000002_Node000003" class="edge">
<title>Node2&#45;&gt;Node3</title>
<g id="a_edge2_Node000002_Node000003"><a xlink:title=" ">
<path fill="none" stroke="#63b8ff" d="M290.37,-327.85C307.88,-332.68 326.56,-337.84 343.47,-342.51"/>
<polygon fill="#63b8ff" stroke="#63b8ff" points="291.68,-324.58 281.11,-325.29 289.82,-331.33 291.68,-324.58"/>
</a>
</g>
</g>
<!-- Node10 -->
<g id="Node000010" class="node">
<title>Node10</title>
<g id="a_Node000010"><a xlink:href="interface_balloon_party_1_1_slots_1_1_actor_1_1_i_writeable_dynamic_slot_actor.html" target="_top" xlink:title=" ">
<polygon fill="white" stroke="#666666" points="471,-324.5 332,-324.5 332,-294 471,-294 471,-324.5"/>
<text xml:space="preserve" text-anchor="start" x="340" y="-311" font-family="Helvetica,sans-Serif" font-size="10.00">BalloonParty.Slots.Actor.</text>
<text xml:space="preserve" text-anchor="middle" x="401.5" y="-299.75" font-family="Helvetica,sans-Serif" font-size="10.00">IWriteableDynamicSlotActor</text>
</a>
</g>
</g>
<!-- Node2&#45;&gt;Node10 -->
<g id="edge9_Node000002_Node000010" class="edge">
<title>Node2&#45;&gt;Node10</title>
<g id="a_edge9_Node000002_Node000010"><a xlink:title=" ">
<path fill="none" stroke="#63b8ff" d="M295.42,-309.25C307.4,-309.25 319.8,-309.25 331.69,-309.25"/>
<polygon fill="#63b8ff" stroke="#63b8ff" points="295.6,-305.75 285.6,-309.25 295.6,-312.75 295.6,-305.75"/>
</a>
</g>
</g>
<!-- Node4 -->
<g id="Node000004" class="node">
<title>Node4</title>
<g id="a_Node000004"><a xlink:href="interface_balloon_party_1_1_balloon_1_1_model_1_1_i_writeable_balloon_model.html" target="_top" xlink:title=" ">
<polygon fill="white" stroke="#666666" points="656.5,-348.5 519,-348.5 519,-318 656.5,-318 656.5,-348.5"/>
<text xml:space="preserve" text-anchor="start" x="527" y="-335" font-family="Helvetica,sans-Serif" font-size="10.00">BalloonParty.Balloon.Model.</text>
<text xml:space="preserve" text-anchor="middle" x="587.75" y="-323.75" font-family="Helvetica,sans-Serif" font-size="10.00">IWriteableBalloonModel</text>
</a>
</g>
</g>
<!-- Node3&#45;&gt;Node4 -->
<g id="edge3_Node000003_Node000004" class="edge">
<title>Node3&#45;&gt;Node4</title>
<g id="a_edge3_Node000003_Node000004"><a xlink:title=" ">
<path fill="none" stroke="#63b8ff" d="M481.75,-347.5C494.03,-345.83 506.63,-344.12 518.64,-342.49"/>
<polygon fill="#63b8ff" stroke="#63b8ff" points="481.52,-344 472.08,-348.81 482.46,-350.93 481.52,-344"/>
</a>
</g>
</g>
<!-- Node5 -->
<g id="Node000005" class="node">
<title>Node5</title>
<g id="a_Node000005"><a xlink:href="class_balloon_party_1_1_balloon_1_1_model_1_1_balloon_model_base.html" target="_top" xlink:title=" ">
<polygon fill="white" stroke="#666666" points="830,-348.5 692.5,-348.5 692.5,-318 830,-318 830,-348.5"/>
<text xml:space="preserve" text-anchor="start" x="700.5" y="-335" font-family="Helvetica,sans-Serif" font-size="10.00">BalloonParty.Balloon.Model.</text>
<text xml:space="preserve" text-anchor="middle" x="761.25" y="-323.75" font-family="Helvetica,sans-Serif" font-size="10.00">BalloonModelBase</text>
</a>
</g>
</g>
<!-- Node4&#45;&gt;Node5 -->
<g id="edge4_Node000004_Node000005" class="edge">
<title>Node4&#45;&gt;Node5</title>
<g id="a_edge4_Node000004_Node000005"><a xlink:title=" ">
<path fill="none" stroke="#63b8ff" d="M667.89,-333.25C675.98,-333.25 684.16,-333.25 692.12,-333.25"/>
<polygon fill="#63b8ff" stroke="#63b8ff" points="668.04,-329.75 658.04,-333.25 668.04,-336.75 668.04,-329.75"/>
</a>
</g>
</g>
<!-- Node6 -->
<g id="Node000006" class="node">
<title>Node6</title>
<g id="a_Node000006"><a xlink:href="class_balloon_party_1_1_balloon_1_1_model_1_1_balloon_model.html" target="_top" xlink:title=" ">
<polygon fill="white" stroke="#666666" points="1003.5,-422.5 866,-422.5 866,-392 1003.5,-392 1003.5,-422.5"/>
<text xml:space="preserve" text-anchor="start" x="874" y="-409" font-family="Helvetica,sans-Serif" font-size="10.00">BalloonParty.Balloon.Model.</text>
<text xml:space="preserve" text-anchor="middle" x="934.75" y="-397.75" font-family="Helvetica,sans-Serif" font-size="10.00">BalloonModel</text>
</a>
</g>
</g>
<!-- Node5&#45;&gt;Node6 -->
<g id="edge5_Node000005_Node000006" class="edge">
<title>Node5&#45;&gt;Node6</title>
<g id="a_edge5_Node000005_Node000006"><a xlink:title=" ">
<path fill="none" stroke="#63b8ff" d="M804,-353.99C822.78,-363.06 845.33,-373.57 866,-382.25 873.51,-385.4 881.58,-388.57 889.43,-391.53"/>
<polygon fill="#63b8ff" stroke="#63b8ff" points="805.6,-350.88 795.07,-349.65 802.54,-357.17 805.6,-350.88"/>
</a>
</g>
</g>
<!-- Node7 -->
<g id="Node000007" class="node">
<title>Node7</title>
<g id="a_Node000007"><a xlink:href="class_balloon_party_1_1_balloon_1_1_model_1_1_bubble_cluster_model.html" target="_top" xlink:title="Model for BalloonType.BubbleCluster.">
<polygon fill="white" stroke="#666666" points="1003.5,-373.5 866,-373.5 866,-343 1003.5,-343 1003.5,-373.5"/>
<text xml:space="preserve" text-anchor="start" x="874" y="-360" font-family="Helvetica,sans-Serif" font-size="10.00">BalloonParty.Balloon.Model.</text>
<text xml:space="preserve" text-anchor="middle" x="934.75" y="-348.75" font-family="Helvetica,sans-Serif" font-size="10.00">BubbleClusterModel</text>
</a>
</g>
</g>
<!-- Node5&#45;&gt;Node7 -->
<g id="edge6_Node000005_Node000007" class="edge">
<title>Node5&#45;&gt;Node7</title>
<g id="a_edge6_Node000005_Node000007"><a xlink:title=" ">
<path fill="none" stroke="#63b8ff" d="M841.39,-344.79C849.48,-345.97 857.66,-347.16 865.62,-348.32"/>
<polygon fill="#63b8ff" stroke="#63b8ff" points="841.93,-341.33 831.53,-343.35 840.92,-348.25 841.93,-341.33"/>
</a>
</g>
</g>
<!-- Node8 -->
<g id="Node000008" class="node">
<title>Node8</title>
<g id="a_Node000008"><a xlink:href="class_balloon_party_1_1_balloon_1_1_model_1_1_tough_balloon_model.html" target="_top" xlink:title=" ">
<polygon fill="white" stroke="#666666" points="1003.5,-324.5 866,-324.5 866,-294 1003.5,-294 1003.5,-324.5"/>
<text xml:space="preserve" text-anchor="start" x="874" y="-311" font-family="Helvetica,sans-Serif" font-size="10.00">BalloonParty.Balloon.Model.</text>
<text xml:space="preserve" text-anchor="middle" x="934.75" y="-299.75" font-family="Helvetica,sans-Serif" font-size="10.00">ToughBalloonModel</text>
</a>
</g>
</g>
<!-- Node5&#45;&gt;Node8 -->
<g id="edge7_Node000005_Node000008" class="edge">
<title>Node5&#45;&gt;Node8</title>
<g id="a_edge7_Node000005_Node000008"><a xlink:title=" ">
<path fill="none" stroke="#63b8ff" d="M841.39,-322.17C849.48,-321.04 857.66,-319.9 865.62,-318.78"/>
<polygon fill="#63b8ff" stroke="#63b8ff" points="840.95,-318.7 831.53,-323.55 841.92,-325.64 840.95,-318.7"/>
</a>
</g>
</g>
<!-- Node9 -->
<g id="Node000009" class="node">
<title>Node9</title>
<g id="a_Node000009"><a xlink:href="class_balloon_party_1_1_balloon_1_1_model_1_1_unbreakable_balloon_model.html" target="_top" xlink:title=" ">
<polygon fill="white" stroke="#666666" points="1003.5,-275.5 866,-275.5 866,-245 1003.5,-245 1003.5,-275.5"/>
<text xml:space="preserve" text-anchor="start" x="874" y="-262" font-family="Helvetica,sans-Serif" font-size="10.00">BalloonParty.Balloon.Model.</text>
<text xml:space="preserve" text-anchor="middle" x="934.75" y="-250.75" font-family="Helvetica,sans-Serif" font-size="10.00">UnbreakableBalloonModel</text>
</a>
</g>
</g>
<!-- Node5&#45;&gt;Node9 -->
<g id="edge8_Node000005_Node000009" class="edge">
<title>Node5&#45;&gt;Node9</title>
<g id="a_edge8_Node000005_Node000009"><a xlink:title=" ">
<path fill="none" stroke="#63b8ff" d="M804.46,-312.79C823.17,-303.97 845.53,-293.75 866,-285.25 873.64,-282.08 881.85,-278.88 889.82,-275.88"/>
<polygon fill="#63b8ff" stroke="#63b8ff" points="803.1,-309.56 795.57,-317.01 806.1,-315.89 803.1,-309.56"/>
</a>
</g>
</g>
<!-- Node10&#45;&gt;Node4 -->
<g id="edge10_Node000010_Node000004" class="edge">
<title>Node10&#45;&gt;Node4</title>
<g id="a_edge10_Node000010_Node000004"><a xlink:title=" ">
<path fill="none" stroke="#63b8ff" d="M482.72,-319.7C494.68,-321.26 506.9,-322.85 518.58,-324.37"/>
<polygon fill="#63b8ff" stroke="#63b8ff" points="483.24,-316.24 472.87,-318.42 482.33,-323.18 483.24,-316.24"/>
</a>
</g>
</g>
<!-- Node11&#45;&gt;Node10 -->
<g id="edge17_Node000011_Node000010" class="edge">
<title>Node11&#45;&gt;Node10</title>
<g id="a_edge17_Node000011_Node000010"><a xlink:title=" ">
<path fill="none" stroke="#63b8ff" d="M241.37,-211.4C259.23,-233.33 288.25,-265.08 320,-284.25 325.89,-287.81 332.33,-290.9 338.92,-293.58"/>
<polygon fill="#63b8ff" stroke="#63b8ff" points="244.33,-209.5 235.36,-203.86 238.85,-213.86 244.33,-209.5"/>
</a>
</g>
</g>
<!-- Node12 -->
<g id="Node000012" class="node">
<title>Node12</title>
<g id="a_Node000012"><a xlink:href="class_balloon_party_1_1_slots_1_1_actor_1_1_archetype_1_1_absorber_actor_model.html" target="_top" xlink:title=" ">
<polygon fill="white" stroke="#666666" points="477.38,-275.5 325.62,-275.5 325.62,-245 477.38,-245 477.38,-275.5"/>
<text xml:space="preserve" text-anchor="start" x="333.62" y="-262" font-family="Helvetica,sans-Serif" font-size="10.00">BalloonParty.Slots.Actor.</text>
<text xml:space="preserve" text-anchor="middle" x="401.5" y="-250.75" font-family="Helvetica,sans-Serif" font-size="10.00">Archetype.AbsorberActorModel</text>
</a>
</g>
</g>
<!-- Node11&#45;&gt;Node12 -->
<g id="edge12_Node000011_Node000012" class="edge">
<title>Node11&#45;&gt;Node12</title>
<g id="a_edge12_Node000011_Node000012"><a xlink:title=" ">
<path fill="none" stroke="#63b8ff" d="M261.6,-208.11C279.13,-217.12 300.31,-227.38 320,-235.25 328.29,-238.56 337.2,-241.72 345.96,-244.6"/>
<polygon fill="#63b8ff" stroke="#63b8ff" points="263.57,-205.19 253.08,-203.67 260.34,-211.39 263.57,-205.19"/>
</a>
</g>
</g>
<!-- Node13 -->
<g id="Node000013" class="node">
<title>Node13</title>
<g id="a_Node000013"><a xlink:href="class_balloon_party_1_1_slots_1_1_actor_1_1_archetype_1_1_bush_obstacle_model.html" target="_top" xlink:title=" ">
<polygon fill="white" stroke="#666666" points="477,-226.5 326,-226.5 326,-196 477,-196 477,-226.5"/>
<text xml:space="preserve" text-anchor="start" x="334" y="-213" font-family="Helvetica,sans-Serif" font-size="10.00">BalloonParty.Slots.Actor.</text>
<text xml:space="preserve" text-anchor="middle" x="401.5" y="-201.75" font-family="Helvetica,sans-Serif" font-size="10.00">Archetype.BushObstacleModel</text>
</a>
</g>
</g>
<!-- Node11&#45;&gt;Node13 -->
<g id="edge13_Node000011_Node000013" class="edge">
<title>Node11&#45;&gt;Node13</title>
<g id="a_edge13_Node000011_Node000013"><a xlink:title=" ">
<path fill="none" stroke="#63b8ff" d="M295.29,-197.02C305.35,-198.38 315.7,-199.78 325.81,-201.15"/>
<polygon fill="#63b8ff" stroke="#63b8ff" points="295.96,-193.58 285.59,-195.71 295.03,-200.52 295.96,-193.58"/>
</a>
</g>
</g>
<!-- Node14 -->
<g id="Node000014" class="node">
<title>Node14</title>
<g id="a_Node000014"><a xlink:href="class_balloon_party_1_1_slots_1_1_actor_1_1_archetype_1_1_deflector_actor_model.html" target="_top" xlink:title=" ">
<polygon fill="white" stroke="#666666" points="477.75,-177.5 325.25,-177.5 325.25,-147 477.75,-147 477.75,-177.5"/>
<text xml:space="preserve" text-anchor="start" x="333.25" y="-164" font-family="Helvetica,sans-Serif" font-size="10.00">BalloonParty.Slots.Actor.</text>
<text xml:space="preserve" text-anchor="middle" x="401.5" y="-152.75" font-family="Helvetica,sans-Serif" font-size="10.00">Archetype.DeflectorActorModel</text>
</a>
</g>
</g>
<!-- Node11&#45;&gt;Node14 -->
<g id="edge14_Node000011_Node000014" class="edge">
<title>Node11&#45;&gt;Node14</title>
<g id="a_edge14_Node000011_Node000014"><a xlink:title=" ">
<path fill="none" stroke="#63b8ff" d="M295.35,-177.06C305.08,-175.69 315.09,-174.28 324.87,-172.9"/>
<polygon fill="#63b8ff" stroke="#63b8ff" points="295,-173.57 285.58,-178.44 295.97,-180.51 295,-173.57"/>
</a>
</g>
</g>
<!-- Node15 -->
<g id="Node000015" class="node">
<title>Node15</title>
<g id="a_Node000015"><a xlink:href="class_balloon_party_1_1_slots_1_1_actor_1_1_archetype_1_1_gatekeeper_actor_model.html" target="_top" xlink:title=" ">
<polygon fill="white" stroke="#666666" points="483,-128.5 320,-128.5 320,-98 483,-98 483,-128.5"/>
<text xml:space="preserve" text-anchor="start" x="328" y="-115" font-family="Helvetica,sans-Serif" font-size="10.00">BalloonParty.Slots.Actor.</text>
<text xml:space="preserve" text-anchor="middle" x="401.5" y="-103.75" font-family="Helvetica,sans-Serif" font-size="10.00">Archetype.GatekeeperActorModel</text>
</a>
</g>
</g>
<!-- Node11&#45;&gt;Node15 -->
<g id="edge15_Node000011_Node000015" class="edge">
<title>Node11&#45;&gt;Node15</title>
<g id="a_edge15_Node000011_Node000015"><a xlink:title=" ">
<path fill="none" stroke="#63b8ff" d="M260.78,-166.32C278.45,-157.01 299.97,-146.35 320,-138.25 328.14,-134.96 336.89,-131.83 345.51,-128.98"/>
<polygon fill="#63b8ff" stroke="#63b8ff" points="259.37,-163.1 252.2,-170.9 262.67,-169.28 259.37,-163.1"/>
</a>
</g>
</g>
<!-- Node16 -->
<g id="Node000016" class="node">
<title>Node16</title>
<g id="a_Node000016"><a xlink:href="class_balloon_party_1_1_slots_1_1_actor_1_1_archetype_1_1_puff_obstacle_model.html" target="_top" xlink:title=" ">
<polygon fill="white" stroke="#666666" points="474.75,-79.5 328.25,-79.5 328.25,-49 474.75,-49 474.75,-79.5"/>
<text xml:space="preserve" text-anchor="start" x="336.25" y="-66" font-family="Helvetica,sans-Serif" font-size="10.00">BalloonParty.Slots.Actor.</text>
<text xml:space="preserve" text-anchor="middle" x="401.5" y="-54.75" font-family="Helvetica,sans-Serif" font-size="10.00">Archetype.PuffObstacleModel</text>
</a>
</g>
</g>
<!-- Node11&#45;&gt;Node16 -->
<g id="edge16_Node000011_Node000016" class="edge">
<title>Node11&#45;&gt;Node16</title>
<g id="a_edge16_Node000011_Node000016"><a xlink:title=" ">
<path fill="none" stroke="#63b8ff" d="M241.31,-162.84C259.14,-140.68 288.13,-108.61 320,-89.25 325.88,-85.68 332.31,-82.58 338.9,-79.89"/>
<polygon fill="#63b8ff" stroke="#63b8ff" points="238.74,-160.45 235.32,-170.47 244.25,-164.77 238.74,-160.45"/>
</a>
</g>
</g>
<!-- Node17 -->
<g id="Node000017" class="node">
<title>Node17</title>
<g id="a_Node000017"><a xlink:href="class_balloon_party_1_1_slots_1_1_actor_1_1_static_actor_model.html" target="_top" xlink:title=" ">
<polygon fill="white" stroke="#666666" points="463.5,-30.5 339.5,-30.5 339.5,0 463.5,0 463.5,-30.5"/>
<text xml:space="preserve" text-anchor="start" x="347.5" y="-17" font-family="Helvetica,sans-Serif" font-size="10.00">BalloonParty.Slots.Actor.</text>
<text xml:space="preserve" text-anchor="middle" x="401.5" y="-5.75" font-family="Helvetica,sans-Serif" font-size="10.00">StaticActorModel</text>
</a>
</g>
</g>
<!-- Node11&#45;&gt;Node17 -->
<g id="edge18_Node000011_Node000017" class="edge">
<title>Node11&#45;&gt;Node17</title>
<g id="a_edge18_Node000011_Node000017"><a xlink:title=" ">
<path fill="none" stroke="#63b8ff" d="M233.31,-161.67C247.84,-128.82 277.39,-72.26 320,-40.25 325.85,-35.85 332.49,-32.22 339.38,-29.22"/>
<polygon fill="#63b8ff" stroke="#63b8ff" points="230.28,-159.87 229.56,-170.44 236.71,-162.62 230.28,-159.87"/>
</a>
</g>
</g>
</g>
</svg>
