<?xml version="1.0" encoding="UTF-8" standalone="no"?>
<!DOCTYPE svg PUBLIC "-//W3C//DTD SVG 1.1//EN"
 "http://www.w3.org/Graphics/SVG/1.1/DTD/svg11.dtd">
<!-- Generated by graphviz version 15.0.0 (20260523.1842)
 -->
<!-- Title: BalloonParty.Slots.Actor.IDynamicSlotActor Pages: 1 -->
<!--zoomable 186 -->

<svg id="main" version="1.1" xmlns="http://www.w3.org/2000/svg" xmlns:xlink="http://www.w3.org/1999/xlink" xml:space="preserve" onload="init(evt)">

<style type="text/css"><![CDATA[
.node, .edge {opacity: 0.7;}
.node.selected, .edge.selected {opacity: 1;}
.edge:hover path { stroke: red; }
.edge:hover polygon { stroke: red; fill: red; }
]]></style>

<defs>
  <circle id="rim" cx="0" cy="0" r="7"/>
  <circle id="rim2" cx="0" cy="0" r="3.5"/>
  <g id="zoomPlus">
    <use xlink:href="#rim" fill="#404040"><set attributeName="fill" to="#808080" begin="zoomplus.mouseover" end="zoomplus.mouseout"/></use>
    <path d="M-4,0h8M0,-4v8" fill="none" stroke="white" stroke-width="1.5" pointer-events="none"/>
  </g>
  <g id="zoomMin">
    <use xlink:href="#rim" fill="#404040"><set attributeName="fill" to="#808080" begin="zoomminus.mouseover" end="zoomminus.mouseout"/></use>
    <path d="M-4,0h8" fill="none" stroke="white" stroke-width="1.5" pointer-events="none"/>
  </g>
  <g id="arrowUp" transform="translate(30 24)">
    <use xlink:href="#rim"/>
    <path pointer-events="none" fill="none" stroke="white" stroke-width="1.5" d="M0,-3.0v7 M-2.5,-0.5L0,-3.0L2.5,-0.5"/>
  </g>
  <g id="arrowRight" transform="rotate(90) translate(36 -43)">
    <use xlink:href="#rim"/>
    <path pointer-events="none" fill="none" stroke="white" stroke-width="1.5" d="M0,-3.0v7 M-2.5,-0.5L0,-3.0L2.5,-0.5"/>
  </g>
  <g id="arrowDown" transform="rotate(180) translate(-30 -48)">
    <use xlink:href="#rim"/>
    <path pointer-events="none" fill="none" stroke="white" stroke-width="1.5" d="M0,-3.0v7 M-2.5,-0.5L0,-3.0L2.5,-0.5"/>
  </g>
  <g id="arrowLeft" transform="rotate(270) translate(-36 17)">
    <use xlink:href="#rim"/>
    <path pointer-events="none" fill="none" stroke="white" stroke-width="1.5" d="M0,-3.0v7 M-2.5,-0.5L0,-3.0L2.5,-0.5"/>
  </g>
  <g id="resetDef">
    <use xlink:href="#rim2" fill="#404040"><set attributeName="fill" to="#808080" begin="reset.mouseover" end="reset.mouseout"/></use>
  </g>
</defs>
<script type="application/ecmascript">
var viewWidth = 988;
var viewHeight = 186;
var sectionId = 'dynsection-0';
</script>
<script type="application/ecmascript" xlink:href="svg.min.js"/>
<svg id="graph" class="graph">
<g id="viewport">
<title>BalloonParty.Slots.Actor.IDynamicSlotActor</title>
<!-- Node1 -->
<g id="Node000001" class="node">
<title>Node1</title>
<g id="a_Node000001"><a xlink:title=" ">
<polygon fill="#999999" stroke="#666666" points="284,-103.5 160,-103.5 160,-73 284,-73 284,-103.5"/>
<text xml:space="preserve" text-anchor="start" x="168" y="-90" font-family="Helvetica,sans-Serif" font-size="10.00">BalloonParty.Slots.Actor.</text>
<text xml:space="preserve" text-anchor="middle" x="222" y="-78.75" font-family="Helvetica,sans-Serif" font-size="10.00">IDynamicSlotActor</text>
</a>
</g>
</g>
<!-- Node3 -->
<g id="Node000003" class="node">
<title>Node3</title>
<g id="a_Node000003"><a xlink:href="interface_balloon_party_1_1_balloon_1_1_model_1_1_i_balloon_model.html" target="_top" xlink:title=" ">
<polygon fill="white" stroke="#666666" points="458.25,-128.5 320.75,-128.5 320.75,-98 458.25,-98 458.25,-128.5"/>
<text xml:space="preserve" text-anchor="start" x="328.75" y="-115" font-family="Helvetica,sans-Serif" font-size="10.00">BalloonParty.Balloon.Model.</text>
<text xml:space="preserve" text-anchor="middle" x="389.5" y="-103.75" font-family="Helvetica,sans-Serif" font-size="10.00">IBalloonModel</text>
</a>
</g>
</g>
<!-- Node1&#45;&gt;Node3 -->
<g id="edge2_Node000001_Node000003" class="edge">
<title>Node1&#45;&gt;Node3</title>
<g id="a_edge2_Node000001_Node000003"><a xlink:title=" ">
<path fill="none" stroke="#63b8ff" d="M295.36,-99.18C303.66,-100.43 312.1,-101.71 320.35,-102.96"/>
<polygon fill="#63b8ff" stroke="#63b8ff" points="296.06,-95.75 285.65,-97.71 295.02,-102.67 296.06,-95.75"/>
</a>
</g>
</g>
<!-- Node10 -->
<g id="Node000010" class="node">
<title>Node10</title>
<g id="a_Node000010"><a xlink:href="interface_balloon_party_1_1_slots_1_1_actor_1_1_i_writeable_dynamic_slot_actor.html" target="_top" xlink:title=" ">
<polygon fill="white" stroke="#666666" points="459,-79.5 320,-79.5 320,-49 459,-49 459,-79.5"/>
<text xml:space="preserve" text-anchor="start" x="328" y="-66" font-family="Helvetica,sans-Serif" font-size="10.00">BalloonParty.Slots.Actor.</text>
<text xml:space="preserve" text-anchor="middle" x="389.5" y="-54.75" font-family="Helvetica,sans-Serif" font-size="10.00">IWriteableDynamicSlotActor</text>
</a>
</g>
</g>
<!-- Node1&#45;&gt;Node10 -->
<g id="edge9_Node000001_Node000010" class="edge">
<title>Node1&#45;&gt;Node10</title>
<g id="a_edge9_Node000001_Node000010"><a xlink:title=" ">
<path fill="none" stroke="#63b8ff" d="M295.37,-77.76C303.38,-76.59 311.53,-75.41 319.5,-74.26"/>
<polygon fill="#63b8ff" stroke="#63b8ff" points="295.05,-74.27 285.65,-79.16 296.05,-81.19 295.05,-74.27"/>
</a>
</g>
</g>
<!-- Node2 -->
<g id="Node000002" class="node">
<title>Node2</title>
<g id="a_Node000002"><a xlink:href="interface_balloon_party_1_1_slots_1_1_actor_1_1_i_slot_actor.html" target="_top" xlink:title=" ">
<polygon fill="white" stroke="#666666" points="124,-103.5 0,-103.5 0,-73 124,-73 124,-103.5"/>
<text xml:space="preserve" text-anchor="start" x="8" y="-90" font-family="Helvetica,sans-Serif" font-size="10.00">BalloonParty.Slots.Actor.</text>
<text xml:space="preserve" text-anchor="middle" x="62" y="-78.75" font-family="Helvetica,sans-Serif" font-size="10.00">ISlotActor</text>
</a>
</g>
</g>
<!-- Node2&#45;&gt;Node1 -->
<g id="edge1_Node000001_Node000002" class="edge">
<title>Node2&#45;&gt;Node1</title>
<g id="a_edge1_Node000001_Node000002"><a xlink:title=" ">
<path fill="none" stroke="#63b8ff" d="M135.4,-88.25C143.47,-88.25 151.64,-88.25 159.55,-88.25"/>
<polygon fill="#63b8ff" stroke="#63b8ff" points="135.6,-84.75 125.6,-88.25 135.6,-91.75 135.6,-84.75"/>
</a>
</g>
</g>
<!-- Node4 -->
<g id="Node000004" class="node">
<title>Node4</title>
<g id="a_Node000004"><a xlink:href="interface_balloon_party_1_1_balloon_1_1_model_1_1_i_writeable_balloon_model.html" target="_top" xlink:title=" ">
<polygon fill="white" stroke="#666666" points="632.5,-103.5 495,-103.5 495,-73 632.5,-73 632.5,-103.5"/>
<text xml:space="preserve" text-anchor="start" x="503" y="-90" font-family="Helvetica,sans-Serif" font-size="10.00">BalloonParty.Balloon.Model.</text>
<text xml:space="preserve" text-anchor="middle" x="563.75" y="-78.75" font-family="Helvetica,sans-Serif" font-size="10.00">IWriteableBalloonModel</text>
</a>
</g>
</g>
<!-- Node3&#45;&gt;Node4 -->
<g id="edge3_Node000003_Node000004" class="edge">
<title>Node3&#45;&gt;Node4</title>
<g id="a_edge3_Node000003_Node000004"><a xlink:title=" ">
<path fill="none" stroke="#63b8ff" d="M469.8,-101.74C478.08,-100.54 486.46,-99.32 494.6,-98.14"/>
<polygon fill="#63b8ff" stroke="#63b8ff" points="469.47,-98.25 460.08,-103.15 470.47,-105.18 469.47,-98.25"/>
</a>
</g>
</g>
<!-- Node5 -->
<g id="Node000005" class="node">
<title>Node5</title>
<g id="a_Node000005"><a xlink:href="class_balloon_party_1_1_balloon_1_1_model_1_1_balloon_model_base.html" target="_top" xlink:title=" ">
<polygon fill="white" stroke="#666666" points="806,-103.5 668.5,-103.5 668.5,-73 806,-73 806,-103.5"/>
<text xml:space="preserve" text-anchor="start" x="676.5" y="-90" font-family="Helvetica,sans-Serif" font-size="10.00">BalloonParty.Balloon.Model.</text>
<text xml:space="preserve" text-anchor="middle" x="737.25" y="-78.75" font-family="Helvetica,sans-Serif" font-size="10.00">BalloonModelBase</text>
</a>
</g>
</g>
<!-- Node4&#45;&gt;Node5 -->
<g id="edge4_Node000004_Node000005" class="edge">
<title>Node4&#45;&gt;Node5</title>
<g id="a_edge4_Node000004_Node000005"><a xlink:title=" ">
<path fill="none" stroke="#63b8ff" d="M643.89,-88.25C651.98,-88.25 660.16,-88.25 668.12,-88.25"/>
<polygon fill="#63b8ff" stroke="#63b8ff" points="644.04,-84.75 634.04,-88.25 644.04,-91.75 644.04,-84.75"/>
</a>
</g>
</g>
<!-- Node6 -->
<g id="Node000006" class="node">
<title>Node6</title>
<g id="a_Node000006"><a xlink:href="class_balloon_party_1_1_balloon_1_1_model_1_1_balloon_model.html" target="_top" xlink:title=" ">
<polygon fill="white" stroke="#666666" points="979.5,-177.5 842,-177.5 842,-147 979.5,-147 979.5,-177.5"/>
<text xml:space="preserve" text-anchor="start" x="850" y="-164" font-family="Helvetica,sans-Serif" font-size="10.00">BalloonParty.Balloon.Model.</text>
<text xml:space="preserve" text-anchor="middle" x="910.75" y="-152.75" font-family="Helvetica,sans-Serif" font-size="10.00">BalloonModel</text>
</a>
</g>
</g>
<!-- Node5&#45;&gt;Node6 -->
<g id="edge5_Node000005_Node000006" class="edge">
<title>Node5&#45;&gt;Node6</title>
<g id="a_edge5_Node000005_Node000006"><a xlink:title=" ">
<path fill="none" stroke="#63b8ff" d="M780,-108.99C798.78,-118.06 821.33,-128.57 842,-137.25 849.51,-140.4 857.58,-143.57 865.43,-146.53"/>
<polygon fill="#63b8ff" stroke="#63b8ff" points="781.6,-105.88 771.07,-104.65 778.54,-112.17 781.6,-105.88"/>
</a>
</g>
</g>
<!-- Node7 -->
<g id="Node000007" class="node">
<title>Node7</title>
<g id="a_Node000007"><a xlink:href="class_balloon_party_1_1_balloon_1_1_model_1_1_bubble_cluster_model.html" target="_top" xlink:title="Model for BalloonType.BubbleCluster.">
<polygon fill="white" stroke="#666666" points="979.5,-128.5 842,-128.5 842,-98 979.5,-98 979.5,-128.5"/>
<text xml:space="preserve" text-anchor="start" x="850" y="-115" font-family="Helvetica,sans-Serif" font-size="10.00">BalloonParty.Balloon.Model.</text>
<text xml:space="preserve" text-anchor="middle" x="910.75" y="-103.75" font-family="Helvetica,sans-Serif" font-size="10.00">BubbleClusterModel</text>
</a>
</g>
</g>
<!-- Node5&#45;&gt;Node7 -->
<g id="edge6_Node000005_Node000007" class="edge">
<title>Node5&#45;&gt;Node7</title>
<g id="a_edge6_Node000005_Node000007"><a xlink:title=" ">
<path fill="none" stroke="#63b8ff" d="M817.39,-99.79C825.48,-100.97 833.66,-102.16 841.62,-103.32"/>
<polygon fill="#63b8ff" stroke="#63b8ff" points="817.93,-96.33 807.53,-98.35 816.92,-103.25 817.93,-96.33"/>
</a>
</g>
</g>
<!-- Node8 -->
<g id="Node000008" class="node">
<title>Node8</title>
<g id="a_Node000008"><a xlink:href="class_balloon_party_1_1_balloon_1_1_model_1_1_tough_balloon_model.html" target="_top" xlink:title=" ">
<polygon fill="white" stroke="#666666" points="979.5,-79.5 842,-79.5 842,-49 979.5,-49 979.5,-79.5"/>
<text xml:space="preserve" text-anchor="start" x="850" y="-66" font-family="Helvetica,sans-Serif" font-size="10.00">BalloonParty.Balloon.Model.</text>
<text xml:space="preserve" text-anchor="middle" x="910.75" y="-54.75" font-family="Helvetica,sans-Serif" font-size="10.00">ToughBalloonModel</text>
</a>
</g>
</g>
<!-- Node5&#45;&gt;Node8 -->
<g id="edge7_Node000005_Node000008" class="edge">
<title>Node5&#45;&gt;Node8</title>
<g id="a_edge7_Node000005_Node000008"><a xlink:title=" ">
<path fill="none" stroke="#63b8ff" d="M817.39,-77.17C825.48,-76.04 833.66,-74.9 841.62,-73.78"/>
<polygon fill="#63b8ff" stroke="#63b8ff" points="816.95,-73.7 807.53,-78.55 817.92,-80.64 816.95,-73.7"/>
</a>
</g>
</g>
<!-- Node9 -->
<g id="Node000009" class="node">
<title>Node9</title>
<g id="a_Node000009"><a xlink:href="class_balloon_party_1_1_balloon_1_1_model_1_1_unbreakable_balloon_model.html" target="_top" xlink:title=" ">
<polygon fill="white" stroke="#666666" points="979.5,-30.5 842,-30.5 842,0 979.5,0 979.5,-30.5"/>
<text xml:space="preserve" text-anchor="start" x="850" y="-17" font-family="Helvetica,sans-Serif" font-size="10.00">BalloonParty.Balloon.Model.</text>
<text xml:space="preserve" text-anchor="middle" x="910.75" y="-5.75" font-family="Helvetica,sans-Serif" font-size="10.00">UnbreakableBalloonModel</text>
</a>
</g>
</g>
<!-- Node5&#45;&gt;Node9 -->
<g id="edge8_Node000005_Node000009" class="edge">
<title>Node5&#45;&gt;Node9</title>
<g id="a_edge8_Node000005_Node000009"><a xlink:title=" ">
<path fill="none" stroke="#63b8ff" d="M780.46,-67.79C799.17,-58.97 821.53,-48.75 842,-40.25 849.64,-37.08 857.85,-33.88 865.82,-30.88"/>
<polygon fill="#63b8ff" stroke="#63b8ff" points="779.1,-64.56 771.57,-72.01 782.1,-70.89 779.1,-64.56"/>
</a>
</g>
</g>
<!-- Node10&#45;&gt;Node4 -->
<g id="edge10_Node000010_Node000004" class="edge">
<title>Node10&#45;&gt;Node4</title>
<g id="a_edge10_Node000010_Node000004"><a xlink:title=" ">
<path fill="none" stroke="#63b8ff" d="M470.45,-75.39C478.56,-76.52 486.73,-77.66 494.69,-78.77"/>
<polygon fill="#63b8ff" stroke="#63b8ff" points="470.96,-71.93 460.57,-74.01 469.99,-78.86 470.96,-71.93"/>
</a>
</g>
</g>
</g>
</svg>

<g id="navigator" transform="translate(0 0)" fill="#404254">
  <rect fill="#f2f5e9" fill-opacity="0.5" stroke="#606060" stroke-width=".5" x="0" y="0" width="60" height="60"/>
  <use id="zoomplus" xlink:href="#zoomPlus" x="17" y="9" onmousedown="handleZoom(evt,'in')"/>
  <use id="zoomminus" xlink:href="#zoomMin" x="42" y="9" onmousedown="handleZoom(evt,'out')"/>
  <use id="reset" xlink:href="#resetDef" x="30" y="36" onmousedown="handleReset()"/>
   <use id="arrowup" xlink:href="#arrowUp" x="0" y="0" onmousedown="handlePan(0,-1)"/>
  <use id="arrowright" xlink:href="#arrowRight" x="0" y="0" onmousedown="handlePan(1,0)"/>
  <use id="arrowdown" xlink:href="#arrowDown" x="0" y="0" onmousedown="handlePan(0,1)"/>
  <use id="arrowleft" xlink:href="#arrowLeft" x="0" y="0" onmousedown="handlePan(-1,0)"/>
</g>
<svg viewBox="0 0 15 15" width="100%" height="30px" preserveAspectRatio="xMaxYMin meet">
 <g id="arrow_out" transform="scale(0.3 0.3)">
  <a xlink:href="interface_balloon_party_1_1_slots_1_1_actor_1_1_i_dynamic_slot_actor__inherit__graph_org.svg" target="_base">
   <rect id="button" ry="5" rx="5" y="6" x="6" height="38" width="38"
        fill="#f2f5e9" fill-opacity="0.5" stroke="#606060" stroke-width="1.0"/>
   <path id="arrow"
     d="M 11.500037,31.436501 C 11.940474,20.09759 22.043105,11.32322 32.158766,21.979434 L 37.068811,17.246167 C 37.068811,17.246167 37.088388,32 37.088388,32 L 22.160133,31.978069 C 22.160133,31.978069 26.997745,27.140456 26.997745,27.140456 C 18.528582,18.264221 13.291696,25.230495 11.500037,31.436501 z"
     style="fill:#404040;"/>
  </a>
 </g>
</svg>

<style type='text/css'>
<![CDATA[
[data-mouse-over-selected='false'] { opacity: 0.7; }
[data-mouse-over-selected='true']  { opacity: 1.0; }
]]>
</style>
<script type="application/ecmascript"><![CDATA[
document.addEventListener('DOMContentLoaded', (event) => {
  highlightEdges();
  highlightAdjacentNodes();
});
]]></script>
</svg>
