<?xml version="1.0" encoding="UTF-8" standalone="no"?>
<!DOCTYPE svg PUBLIC "-//W3C//DTD SVG 1.1//EN"
 "http://www.w3.org/Graphics/SVG/1.1/DTD/svg11.dtd">
<!-- Generated by graphviz version 15.0.0 (20260523.1842)
 -->
<!-- Title: BalloonParty.Balloon.Model.IWriteableBalloonModel Pages: 1 -->
<svg width="669pt" height="186pt"
 viewBox="0.00 0.00 669.00 186.00" xmlns="http://www.w3.org/2000/svg" xmlns:xlink="http://www.w3.org/1999/xlink">
<g id="graph0" class="graph" transform="scale(1 1) rotate(0) translate(4 181.5)">
<title>BalloonParty.Balloon.Model.IWriteableBalloonModel</title>
<!-- Node1 -->
<g id="Node000001" class="node">
<title>Node1</title>
<g id="a_Node000001"><a xlink:title=" ">
<polygon fill="#999999" stroke="#666666" points="661,-103.5 523.5,-103.5 523.5,-73 661,-73 661,-103.5"/>
<text xml:space="preserve" text-anchor="start" x="531.5" y="-90" font-family="Helvetica,sans-Serif" font-size="10.00">BalloonParty.Balloon.Model.</text>
<text xml:space="preserve" text-anchor="middle" x="592.25" y="-78.75" font-family="Helvetica,sans-Serif" font-size="10.00">IWriteableBalloonModel</text>
</a>
</g>
</g>
<!-- Node2 -->
<g id="Node000002" class="node">
<title>Node2</title>
<g id="a_Node000002"><a xlink:href="interface_balloon_party_1_1_slots_1_1_actor_1_1_i_writeable_dynamic_slot_actor.html" target="_top" xlink:title=" ">
<polygon fill="white" stroke="#666666" points="487.5,-79.5 348.5,-79.5 348.5,-49 487.5,-49 487.5,-79.5"/>
<text xml:space="preserve" text-anchor="start" x="356.5" y="-66" font-family="Helvetica,sans-Serif" font-size="10.00">BalloonParty.Slots.Actor.</text>
<text xml:space="preserve" text-anchor="middle" x="418" y="-54.75" font-family="Helvetica,sans-Serif" font-size="10.00">IWriteableDynamicSlotActor</text>
</a>
</g>
</g>
<!-- Node2&#45;&gt;Node1 -->
<g id="edge1_Node000001_Node000002" class="edge">
<title>Node2&#45;&gt;Node1</title>
<g id="a_edge1_Node000001_Node000002"><a xlink:title=" ">
<path fill="none" stroke="#63b8ff" d="M498.95,-75.39C507.06,-76.52 515.23,-77.66 523.19,-78.77"/>
<polygon fill="#63b8ff" stroke="#63b8ff" points="499.46,-71.93 489.07,-74.01 498.49,-78.86 499.46,-71.93"/>
</a>
</g>
</g>
<!-- Node3 -->
<g id="Node000003" class="node">
<title>Node3</title>
<g id="a_Node000003"><a xlink:href="interface_balloon_party_1_1_slots_1_1_actor_1_1_i_dynamic_slot_actor.html" target="_top" xlink:title=" ">
<polygon fill="white" stroke="#666666" points="298.25,-79.5 174.25,-79.5 174.25,-49 298.25,-49 298.25,-79.5"/>
<text xml:space="preserve" text-anchor="start" x="182.25" y="-66" font-family="Helvetica,sans-Serif" font-size="10.00">BalloonParty.Slots.Actor.</text>
<text xml:space="preserve" text-anchor="middle" x="236.25" y="-54.75" font-family="Helvetica,sans-Serif" font-size="10.00">IDynamicSlotActor</text>
</a>
</g>
</g>
<!-- Node3&#45;&gt;Node2 -->
<g id="edge2_Node000002_Node000003" class="edge">
<title>Node3&#45;&gt;Node2</title>
<g id="a_edge2_Node000002_Node000003"><a xlink:title=" ">
<path fill="none" stroke="#63b8ff" d="M310.03,-64.25C322.63,-64.25 335.71,-64.25 348.21,-64.25"/>
<polygon fill="#63b8ff" stroke="#63b8ff" points="310.12,-60.75 300.12,-64.25 310.12,-67.75 310.12,-60.75"/>
</a>
</g>
</g>
<!-- Node6 -->
<g id="Node000006" class="node">
<title>Node6</title>
<g id="a_Node000006"><a xlink:href="interface_balloon_party_1_1_balloon_1_1_model_1_1_i_balloon_model.html" target="_top" xlink:title=" ">
<polygon fill="white" stroke="#666666" points="486.75,-128.5 349.25,-128.5 349.25,-98 486.75,-98 486.75,-128.5"/>
<text xml:space="preserve" text-anchor="start" x="357.25" y="-115" font-family="Helvetica,sans-Serif" font-size="10.00">BalloonParty.Balloon.Model.</text>
<text xml:space="preserve" text-anchor="middle" x="418" y="-103.75" font-family="Helvetica,sans-Serif" font-size="10.00">IBalloonModel</text>
</a>
</g>
</g>
<!-- Node3&#45;&gt;Node6 -->
<g id="edge7_Node000006_Node000003" class="edge">
<title>Node3&#45;&gt;Node6</title>
<g id="a_edge7_Node000006_Node000003"><a xlink:title=" ">
<path fill="none" stroke="#63b8ff" d="M305.73,-82.92C323.38,-87.73 342.2,-92.86 359.25,-97.51"/>
<polygon fill="#63b8ff" stroke="#63b8ff" points="306.65,-79.54 296.08,-80.29 304.81,-86.29 306.65,-79.54"/>
</a>
</g>
</g>
<!-- Node4 -->
<g id="Node000004" class="node">
<title>Node4</title>
<g id="a_Node000004"><a xlink:href="interface_balloon_party_1_1_slots_1_1_actor_1_1_i_slot_actor.html" target="_top" xlink:title=" ">
<polygon fill="white" stroke="#666666" points="124,-54.5 0,-54.5 0,-24 124,-24 124,-54.5"/>
<text xml:space="preserve" text-anchor="start" x="8" y="-41" font-family="Helvetica,sans-Serif" font-size="10.00">BalloonParty.Slots.Actor.</text>
<text xml:space="preserve" text-anchor="middle" x="62" y="-29.75" font-family="Helvetica,sans-Serif" font-size="10.00">ISlotActor</text>
</a>
</g>
</g>
<!-- Node4&#45;&gt;Node3 -->
<g id="edge3_Node000003_Node000004" class="edge">
<title>Node4&#45;&gt;Node3</title>
<g id="a_edge3_Node000003_Node000004"><a xlink:title=" ">
<path fill="none" stroke="#63b8ff" d="M135.36,-49.75C148.19,-51.61 161.45,-53.54 173.94,-55.35"/>
<polygon fill="#63b8ff" stroke="#63b8ff" points="136.11,-46.32 125.71,-48.35 135.11,-53.25 136.11,-46.32"/>
</a>
</g>
</g>
<!-- Node5 -->
<g id="Node000005" class="node">
<title>Node5</title>
<g id="a_Node000005"><a xlink:href="interface_balloon_party_1_1_slots_1_1_actor_1_1_i_writeable_slot_actor.html" target="_top" xlink:title=" ">
<polygon fill="white" stroke="#666666" points="298.25,-30.5 174.25,-30.5 174.25,0 298.25,0 298.25,-30.5"/>
<text xml:space="preserve" text-anchor="start" x="182.25" y="-17" font-family="Helvetica,sans-Serif" font-size="10.00">BalloonParty.Slots.Actor.</text>
<text xml:space="preserve" text-anchor="middle" x="236.25" y="-5.75" font-family="Helvetica,sans-Serif" font-size="10.00">IWriteableSlotActor</text>
</a>
</g>
</g>
<!-- Node4&#45;&gt;Node5 -->
<g id="edge5_Node000005_Node000004" class="edge">
<title>Node4&#45;&gt;Node5</title>
<g id="a_edge5_Node000005_Node000004"><a xlink:title=" ">
<path fill="none" stroke="#63b8ff" d="M135.36,-29.17C148.19,-27.38 161.45,-25.53 173.94,-23.79"/>
<polygon fill="#63b8ff" stroke="#63b8ff" points="135.13,-25.67 125.71,-30.51 136.1,-32.6 135.13,-25.67"/>
</a>
</g>
</g>
<!-- Node5&#45;&gt;Node2 -->
<g id="edge4_Node000002_Node000005" class="edge">
<title>Node5&#45;&gt;Node2</title>
<g id="a_edge4_Node000002_Node000005"><a xlink:title=" ">
<path fill="none" stroke="#63b8ff" d="M305.73,-33.92C323.38,-38.73 342.2,-43.86 359.25,-48.51"/>
<polygon fill="#63b8ff" stroke="#63b8ff" points="306.65,-30.54 296.08,-31.29 304.81,-37.29 306.65,-30.54"/>
</a>
</g>
</g>
<!-- Node6&#45;&gt;Node1 -->
<g id="edge6_Node000001_Node000006" class="edge">
<title>Node6&#45;&gt;Node1</title>
<g id="a_edge6_Node000001_Node000006"><a xlink:title=" ">
<path fill="none" stroke="#63b8ff" d="M498.3,-101.74C506.58,-100.54 514.96,-99.32 523.1,-98.14"/>
<polygon fill="#63b8ff" stroke="#63b8ff" points="497.97,-98.25 488.58,-103.15 498.97,-105.18 497.97,-98.25"/>
</a>
</g>
</g>
<!-- Node7 -->
<g id="Node000007" class="node">
<title>Node7</title>
<g id="a_Node000007"><a xlink:href="interface_balloon_party_1_1_slots_1_1_capabilities_1_1_i_hitable.html" target="_top" xlink:title=" ">
<polygon fill="white" stroke="#666666" points="312.5,-177.5 160,-177.5 160,-147 312.5,-147 312.5,-177.5"/>
<text xml:space="preserve" text-anchor="start" x="168" y="-164" font-family="Helvetica,sans-Serif" font-size="10.00">BalloonParty.Slots.Capabilities.</text>
<text xml:space="preserve" text-anchor="middle" x="236.25" y="-152.75" font-family="Helvetica,sans-Serif" font-size="10.00">IHitable</text>
</a>
</g>
</g>
<!-- Node7&#45;&gt;Node6 -->
<g id="edge8_Node000006_Node000007" class="edge">
<title>Node7&#45;&gt;Node6</title>
<g id="a_edge8_Node000006_Node000007"><a xlink:title=" ">
<path fill="none" stroke="#63b8ff" d="M305.73,-143.58C323.38,-138.77 342.2,-133.64 359.25,-128.99"/>
<polygon fill="#63b8ff" stroke="#63b8ff" points="304.81,-140.21 296.08,-146.21 306.65,-146.96 304.81,-140.21"/>
</a>
</g>
</g>
<!-- Node8 -->
<g id="Node000008" class="node">
<title>Node8</title>
<g id="a_Node000008"><a xlink:href="interface_balloon_party_1_1_slots_1_1_capabilities_1_1_i_has_nudge.html" target="_top" xlink:title=" ">
<polygon fill="white" stroke="#666666" points="312.5,-128.5 160,-128.5 160,-98 312.5,-98 312.5,-128.5"/>
<text xml:space="preserve" text-anchor="start" x="168" y="-115" font-family="Helvetica,sans-Serif" font-size="10.00">BalloonParty.Slots.Capabilities.</text>
<text xml:space="preserve" text-anchor="middle" x="236.25" y="-103.75" font-family="Helvetica,sans-Serif" font-size="10.00">IHasNudge</text>
</a>
</g>
</g>
<!-- Node8&#45;&gt;Node6 -->
<g id="edge9_Node000006_Node000008" class="edge">
<title>Node8&#45;&gt;Node6</title>
<g id="a_edge9_Node000006_Node000008"><a xlink:title=" ">
<path fill="none" stroke="#63b8ff" d="M324.47,-113.25C332.64,-113.25 340.85,-113.25 348.81,-113.25"/>
<polygon fill="#63b8ff" stroke="#63b8ff" points="324.47,-109.75 314.47,-113.25 324.47,-116.75 324.47,-109.75"/>
</a>
</g>
</g>
</g>
</svg>
