<?xml version="1.0" encoding="UTF-8" standalone="no"?>
<!DOCTYPE svg PUBLIC "-//W3C//DTD SVG 1.1//EN"
 "http://www.w3.org/Graphics/SVG/1.1/DTD/svg11.dtd">
<!-- Generated by graphviz version 15.0.0 (20260523.1842)
 -->
<!-- Title: BalloonParty.Projectile.Model.IProjectileModel Pages: 1 -->
<svg width="164pt" height="172pt"
 viewBox="0.00 0.00 164.00 172.00" xmlns="http://www.w3.org/2000/svg" xmlns:xlink="http://www.w3.org/1999/xlink">
<g id="graph0" class="graph" transform="scale(1 1) rotate(0) translate(4 167.5)">
<title>BalloonParty.Projectile.Model.IProjectileModel</title>
<!-- Node1 -->
<g id="Node000001" class="node">
<title>Node1</title>
<g id="a_Node000001"><a xlink:title=" ">
<polygon fill="#999999" stroke="#666666" points="136,-163.5 19.5,-163.5 19.5,-133 136,-133 136,-163.5"/>
<text xml:space="preserve" text-anchor="start" x="27.5" y="-150" font-family="Helvetica,sans-Serif" font-size="10.00">BalloonParty.Projectile.</text>
<text xml:space="preserve" text-anchor="middle" x="77.75" y="-138.75" font-family="Helvetica,sans-Serif" font-size="10.00">Model.IProjectileModel</text>
</a>
</g>
</g>
<!-- Node2 -->
<g id="Node000002" class="node">
<title>Node2</title>
<g id="a_Node000002"><a xlink:href="interface_balloon_party_1_1_projectile_1_1_model_1_1_i_writeable_projectile_model.html" target="_top" xlink:title=" ">
<polygon fill="white" stroke="#666666" points="155.5,-97 0,-97 0,-66.5 155.5,-66.5 155.5,-97"/>
<text xml:space="preserve" text-anchor="start" x="8" y="-83.5" font-family="Helvetica,sans-Serif" font-size="10.00">BalloonParty.Projectile.</text>
<text xml:space="preserve" text-anchor="middle" x="77.75" y="-72.25" font-family="Helvetica,sans-Serif" font-size="10.00">Model.IWriteableProjectileModel</text>
</a>
</g>
</g>
<!-- Node1&#45;&gt;Node2 -->
<g id="edge1_Node000001_Node000002" class="edge">
<title>Node1&#45;&gt;Node2</title>
<g id="a_edge1_Node000001_Node000002"><a xlink:title=" ">
<path fill="none" stroke="#63b8ff" d="M77.75,-121.31C77.75,-113.14 77.75,-104.41 77.75,-97.33"/>
<polygon fill="#63b8ff" stroke="#63b8ff" points="74.25,-121.1 77.75,-131.1 81.25,-121.1 74.25,-121.1"/>
</a>
</g>
</g>
<!-- Node3 -->
<g id="Node000003" class="node">
<title>Node3</title>
<g id="a_Node000003"><a xlink:href="class_balloon_party_1_1_projectile_1_1_model_1_1_projectile_model.html" target="_top" xlink:title=" ">
<polygon fill="white" stroke="#666666" points="136,-30.5 19.5,-30.5 19.5,0 136,0 136,-30.5"/>
<text xml:space="preserve" text-anchor="start" x="27.5" y="-17" font-family="Helvetica,sans-Serif" font-size="10.00">BalloonParty.Projectile.</text>
<text xml:space="preserve" text-anchor="middle" x="77.75" y="-5.75" font-family="Helvetica,sans-Serif" font-size="10.00">Model.ProjectileModel</text>
</a>
</g>
</g>
<!-- Node2&#45;&gt;Node3 -->
<g id="edge2_Node000002_Node000003" class="edge">
<title>Node2&#45;&gt;Node3</title>
<g id="a_edge2_Node000002_Node000003"><a xlink:title=" ">
<path fill="none" stroke="#63b8ff" d="M77.75,-54.81C77.75,-46.64 77.75,-37.91 77.75,-30.83"/>
<polygon fill="#63b8ff" stroke="#63b8ff" points="74.25,-54.6 77.75,-64.6 81.25,-54.6 74.25,-54.6"/>
</a>
</g>
</g>
</g>
</svg>
