<?xml version="1.0" encoding="UTF-8" standalone="no"?>
<!DOCTYPE svg PUBLIC "-//W3C//DTD SVG 1.1//EN"
 "http://www.w3.org/Graphics/SVG/1.1/DTD/svg11.dtd">
<!-- Generated by graphviz version 15.0.0 (20260523.1842)
 -->
<!-- Title: BalloonParty.Item.IBalloonItem Pages: 1 -->
<svg width="498pt" height="235pt"
 viewBox="0.00 0.00 498.00 235.00" xmlns="http://www.w3.org/2000/svg" xmlns:xlink="http://www.w3.org/1999/xlink">
<g id="graph0" class="graph" transform="scale(1 1) rotate(0) translate(4 230.5)">
<title>BalloonParty.Item.IBalloonItem</title>
<!-- Node1 -->
<g id="Node000001" class="node">
<title>Node1</title>
<g id="a_Node000001"><a xlink:title=" ">
<polygon fill="#999999" stroke="#666666" points="304.25,-122.88 154,-122.88 154,-103.62 304.25,-103.62 304.25,-122.88"/>
<text xml:space="preserve" text-anchor="middle" x="229.12" y="-109.38" font-family="Helvetica,sans-Serif" font-size="10.00">BalloonParty.Item.IBalloonItem</text>
</a>
</g>
</g>
<!-- Node3 -->
<g id="Node000003" class="node">
<title>Node3</title>
<g id="a_Node000003"><a xlink:title=" ">
<polygon fill="white" stroke="#666666" points="489.75,-226.5 340.25,-226.5 340.25,-196 489.75,-196 489.75,-226.5"/>
<text xml:space="preserve" text-anchor="start" x="348.25" y="-213" font-family="Helvetica,sans-Serif" font-size="10.00">BalloonParty.Item.Bomb.Bomb</text>
<text xml:space="preserve" text-anchor="middle" x="415" y="-201.75" font-family="Helvetica,sans-Serif" font-size="10.00">ItemHandler</text>
</a>
</g>
</g>
<!-- Node1&#45;&gt;Node3 -->
<g id="edge2_Node000001_Node000003" class="edge">
<title>Node1&#45;&gt;Node3</title>
<g id="a_edge2_Node000001_Node000003"><a xlink:title=" ">
<path fill="none" stroke="#63b8ff" d="M251.6,-129.92C273.09,-146.01 307.57,-170.22 340.25,-186.25 347.17,-189.64 354.66,-192.77 362.13,-195.57"/>
<polygon fill="#63b8ff" stroke="#63b8ff" points="253.98,-127.34 243.89,-124.08 249.74,-132.91 253.98,-127.34"/>
</a>
</g>
</g>
<!-- Node4 -->
<g id="Node000004" class="node">
<title>Node4</title>
<g id="a_Node000004"><a xlink:title=" ">
<polygon fill="white" stroke="#666666" points="475.88,-177.5 354.12,-177.5 354.12,-147 475.88,-147 475.88,-177.5"/>
<text xml:space="preserve" text-anchor="start" x="362.12" y="-164" font-family="Helvetica,sans-Serif" font-size="10.00">BalloonParty.Item.Laser.</text>
<text xml:space="preserve" text-anchor="middle" x="415" y="-152.75" font-family="Helvetica,sans-Serif" font-size="10.00">LaserItemHandler</text>
</a>
</g>
</g>
<!-- Node1&#45;&gt;Node4 -->
<g id="edge3_Node000001_Node000004" class="edge">
<title>Node1&#45;&gt;Node4</title>
<g id="a_edge3_Node000001_Node000004"><a xlink:title=" ">
<path fill="none" stroke="#63b8ff" d="M278.83,-126.23C302.22,-132.46 330.44,-139.98 355.04,-146.54"/>
<polygon fill="#63b8ff" stroke="#63b8ff" points="279.81,-122.87 269.24,-123.67 278,-129.63 279.81,-122.87"/>
</a>
</g>
</g>
<!-- Node5 -->
<g id="Node000005" class="node">
<title>Node5</title>
<g id="a_Node000005"><a xlink:title=" ">
<polygon fill="white" stroke="#666666" points="483.75,-128.5 346.25,-128.5 346.25,-98 483.75,-98 483.75,-128.5"/>
<text xml:space="preserve" text-anchor="start" x="354.25" y="-115" font-family="Helvetica,sans-Serif" font-size="10.00">BalloonParty.Item.Lightning.</text>
<text xml:space="preserve" text-anchor="middle" x="415" y="-103.75" font-family="Helvetica,sans-Serif" font-size="10.00">LightningItemHandler</text>
</a>
</g>
</g>
<!-- Node1&#45;&gt;Node5 -->
<g id="edge4_Node000001_Node000005" class="edge">
<title>Node1&#45;&gt;Node5</title>
<g id="a_edge4_Node000001_Node000005"><a xlink:title=" ">
<path fill="none" stroke="#63b8ff" d="M315.93,-113.25C325.98,-113.25 336.13,-113.25 345.9,-113.25"/>
<polygon fill="#63b8ff" stroke="#63b8ff" points="316.16,-109.75 306.16,-113.25 316.16,-116.75 316.16,-109.75"/>
</a>
</g>
</g>
<!-- Node6 -->
<g id="Node000006" class="node">
<title>Node6</title>
<g id="a_Node000006"><a xlink:title=" ">
<polygon fill="white" stroke="#666666" points="475.5,-79.5 354.5,-79.5 354.5,-49 475.5,-49 475.5,-79.5"/>
<text xml:space="preserve" text-anchor="start" x="362.5" y="-66" font-family="Helvetica,sans-Serif" font-size="10.00">BalloonParty.Item.Paint.</text>
<text xml:space="preserve" text-anchor="middle" x="415" y="-54.75" font-family="Helvetica,sans-Serif" font-size="10.00">PaintItemHandler</text>
</a>
</g>
</g>
<!-- Node1&#45;&gt;Node6 -->
<g id="edge5_Node000001_Node000006" class="edge">
<title>Node1&#45;&gt;Node6</title>
<g id="a_edge5_Node000001_Node000006"><a xlink:title=" ">
<path fill="none" stroke="#63b8ff" d="M278.83,-100.27C302.22,-94.04 330.44,-86.52 355.04,-79.96"/>
<polygon fill="#63b8ff" stroke="#63b8ff" points="278,-96.87 269.24,-102.83 279.81,-103.63 278,-96.87"/>
</a>
</g>
</g>
<!-- Node7 -->
<g id="Node000007" class="node">
<title>Node7</title>
<g id="a_Node000007"><a xlink:title=" ">
<polygon fill="white" stroke="#666666" points="477.75,-30.5 352.25,-30.5 352.25,0 477.75,0 477.75,-30.5"/>
<text xml:space="preserve" text-anchor="start" x="360.25" y="-17" font-family="Helvetica,sans-Serif" font-size="10.00">BalloonParty.Item.Shield.</text>
<text xml:space="preserve" text-anchor="middle" x="415" y="-5.75" font-family="Helvetica,sans-Serif" font-size="10.00">ShieldItemHandler</text>
</a>
</g>
</g>
<!-- Node1&#45;&gt;Node7 -->
<g id="edge6_Node000001_Node000007" class="edge">
<title>Node1&#45;&gt;Node7</title>
<g id="a_edge6_Node000001_Node000007"><a xlink:title=" ">
<path fill="none" stroke="#63b8ff" d="M251.6,-96.58C273.09,-80.49 307.57,-56.28 340.25,-40.25 347.17,-36.86 354.66,-33.73 362.13,-30.93"/>
<polygon fill="#63b8ff" stroke="#63b8ff" points="249.74,-93.59 243.89,-102.42 253.98,-99.16 249.74,-93.59"/>
</a>
</g>
</g>
<!-- Node2 -->
<g id="Node000002" class="node">
<title>Node2</title>
<g id="a_Node000002"><a xlink:href="interface_balloon_party_1_1_item_1_1_i_item.html" target="_top" xlink:title=" ">
<polygon fill="white" stroke="#666666" points="118,-122.88 0,-122.88 0,-103.62 118,-103.62 118,-122.88"/>
<text xml:space="preserve" text-anchor="middle" x="59" y="-109.38" font-family="Helvetica,sans-Serif" font-size="10.00">BalloonParty.Item.IItem</text>
</a>
</g>
</g>
<!-- Node2&#45;&gt;Node1 -->
<g id="edge1_Node000001_Node000002" class="edge">
<title>Node2&#45;&gt;Node1</title>
<g id="a_edge1_Node000001_Node000002"><a xlink:title=" ">
<path fill="none" stroke="#63b8ff" d="M129.72,-113.25C137.61,-113.25 145.67,-113.25 153.61,-113.25"/>
<polygon fill="#63b8ff" stroke="#63b8ff" points="129.84,-109.75 119.84,-113.25 129.84,-116.75 129.84,-109.75"/>
</a>
</g>
</g>
</g>
</svg>
