<?xml version="1.0" encoding="UTF-8" standalone="no"?>
<!DOCTYPE svg PUBLIC "-//W3C//DTD SVG 1.1//EN"
 "http://www.w3.org/Graphics/SVG/1.1/DTD/svg11.dtd">
<!-- Generated by graphviz version 15.0.0 (20260523.1842)
 -->
<!-- Title: BalloonParty.Shared.Pool.IPoolable Pages: 1 -->
<svg width="511pt" height="370pt"
 viewBox="0.00 0.00 511.00 370.00" xmlns="http://www.w3.org/2000/svg" xmlns:xlink="http://www.w3.org/1999/xlink">
<g id="graph0" class="graph" transform="scale(1 1) rotate(0) translate(4 365.5)">
<title>BalloonParty.Shared.Pool.IPoolable</title>
<!-- Node1 -->
<g id="Node000001" class="node">
<title>Node1</title>
<g id="a_Node000001"><a xlink:title=" ">
<polygon fill="#999999" stroke="#666666" points="129.25,-201.5 0,-201.5 0,-171 129.25,-171 129.25,-201.5"/>
<text xml:space="preserve" text-anchor="start" x="8" y="-188" font-family="Helvetica,sans-Serif" font-size="10.00">BalloonParty.Shared.Pool.</text>
<text xml:space="preserve" text-anchor="middle" x="64.62" y="-176.75" font-family="Helvetica,sans-Serif" font-size="10.00">IPoolable</text>
</a>
</g>
</g>
<!-- Node2 -->
<g id="Node000002" class="node">
<title>Node2</title>
<g id="a_Node000002"><a xlink:href="class_balloon_party_1_1_balloon_1_1_view_1_1_balloon_view.html" target="_top" xlink:title=" ">
<polygon fill="white" stroke="#666666" points="312.88,-361.5 181.38,-361.5 181.38,-331 312.88,-331 312.88,-361.5"/>
<text xml:space="preserve" text-anchor="start" x="189.38" y="-348" font-family="Helvetica,sans-Serif" font-size="10.00">BalloonParty.Balloon.View.</text>
<text xml:space="preserve" text-anchor="middle" x="247.12" y="-336.75" font-family="Helvetica,sans-Serif" font-size="10.00">BalloonView</text>
</a>
</g>
</g>
<!-- Node1&#45;&gt;Node2 -->
<g id="edge1_Node000001_Node000002" class="edge">
<title>Node1&#45;&gt;Node2</title>
<g id="a_edge1_Node000001_Node000002"><a xlink:title=" ">
<path fill="none" stroke="#63b8ff" d="M77.79,-211.82C93.68,-242.52 124.36,-293.46 165.25,-322.25 170.16,-325.71 175.57,-328.67 181.2,-331.22"/>
<polygon fill="#63b8ff" stroke="#63b8ff" points="81.09,-210.59 73.47,-203.23 74.83,-213.74 81.09,-210.59"/>
</a>
</g>
</g>
<!-- Node3 -->
<g id="Node000003" class="node">
<title>Node3</title>
<g id="a_Node000003"><a xlink:href="class_balloon_party_1_1_item_1_1_item_visual_view.html" target="_top" xlink:title=" ">
<polygon fill="white" stroke="#666666" points="329,-312.88 165.25,-312.88 165.25,-293.62 329,-293.62 329,-312.88"/>
<text xml:space="preserve" text-anchor="middle" x="247.12" y="-299.38" font-family="Helvetica,sans-Serif" font-size="10.00">BalloonParty.Item.ItemVisualView</text>
</a>
</g>
</g>
<!-- Node1&#45;&gt;Node3 -->
<g id="edge2_Node000001_Node000003" class="edge">
<title>Node1&#45;&gt;Node3</title>
<g id="a_edge2_Node000001_Node000003"><a xlink:title=" ">
<path fill="none" stroke="#63b8ff" d="M83.96,-210.79C102.12,-233.32 131.97,-265.9 165.25,-284.25 171.82,-287.87 179.05,-290.81 186.42,-293.18"/>
<polygon fill="#63b8ff" stroke="#63b8ff" points="86.78,-208.72 77.86,-203.01 81.28,-213.04 86.78,-208.72"/>
</a>
</g>
</g>
<!-- Node4 -->
<g id="Node000004" class="node">
<title>Node4</title>
<g id="a_Node000004"><a xlink:href="class_balloon_party_1_1_projectile_1_1_view_1_1_projectile_view.html" target="_top" xlink:title=" ">
<polygon fill="white" stroke="#666666" points="305.38,-275.5 188.88,-275.5 188.88,-245 305.38,-245 305.38,-275.5"/>
<text xml:space="preserve" text-anchor="start" x="196.88" y="-262" font-family="Helvetica,sans-Serif" font-size="10.00">BalloonParty.Projectile.</text>
<text xml:space="preserve" text-anchor="middle" x="247.12" y="-250.75" font-family="Helvetica,sans-Serif" font-size="10.00">View.ProjectileView</text>
</a>
</g>
</g>
<!-- Node1&#45;&gt;Node4 -->
<g id="edge3_Node000001_Node000004" class="edge">
<title>Node1&#45;&gt;Node4</title>
<g id="a_edge3_Node000001_Node000004"><a xlink:title=" ">
<path fill="none" stroke="#63b8ff" d="M104.48,-207.13C122.64,-216.43 144.74,-227.09 165.25,-235.25 173.58,-238.56 182.53,-241.72 191.34,-244.6"/>
<polygon fill="#63b8ff" stroke="#63b8ff" points="106.12,-204.04 95.63,-202.54 102.9,-210.25 106.12,-204.04"/>
</a>
</g>
</g>
<!-- Node5 -->
<g id="Node000005" class="node">
<title>Node5</title>
<g id="a_Node000005"><a xlink:href="class_balloon_party_1_1_shared_1_1_pool_1_1_effect_view.html" target="_top" xlink:title="Abstract base for poolable effect MonoBehaviours.">
<polygon fill="white" stroke="#666666" points="311.75,-226.5 182.5,-226.5 182.5,-196 311.75,-196 311.75,-226.5"/>
<text xml:space="preserve" text-anchor="start" x="190.5" y="-213" font-family="Helvetica,sans-Serif" font-size="10.00">BalloonParty.Shared.Pool.</text>
<text xml:space="preserve" text-anchor="middle" x="247.12" y="-201.75" font-family="Helvetica,sans-Serif" font-size="10.00">EffectView</text>
</a>
</g>
</g>
<!-- Node1&#45;&gt;Node5 -->
<g id="edge4_Node000001_Node000005" class="edge">
<title>Node1&#45;&gt;Node5</title>
<g id="a_edge4_Node000001_Node000005"><a xlink:title=" ">
<path fill="none" stroke="#63b8ff" d="M140.87,-196.67C154.54,-198.57 168.7,-200.53 182.01,-202.37"/>
<polygon fill="#63b8ff" stroke="#63b8ff" points="141.4,-193.21 131.02,-195.31 140.44,-200.15 141.4,-193.21"/>
</a>
</g>
</g>
<!-- Node10 -->
<g id="Node000010" class="node">
<title>Node10</title>
<g id="a_Node000010"><a xlink:href="class_balloon_party_1_1_shared_1_1_pool_1_1_poolable_particle.html" target="_top" xlink:title=" ">
<polygon fill="white" stroke="#666666" points="311.75,-177.5 182.5,-177.5 182.5,-147 311.75,-147 311.75,-177.5"/>
<text xml:space="preserve" text-anchor="start" x="190.5" y="-164" font-family="Helvetica,sans-Serif" font-size="10.00">BalloonParty.Shared.Pool.</text>
<text xml:space="preserve" text-anchor="middle" x="247.12" y="-152.75" font-family="Helvetica,sans-Serif" font-size="10.00">PoolableParticle</text>
</a>
</g>
</g>
<!-- Node1&#45;&gt;Node10 -->
<g id="edge9_Node000001_Node000010" class="edge">
<title>Node1&#45;&gt;Node10</title>
<g id="a_edge9_Node000001_Node000010"><a xlink:title=" ">
<path fill="none" stroke="#63b8ff" d="M140.87,-176.25C154.54,-174.43 168.7,-172.55 182.01,-170.77"/>
<polygon fill="#63b8ff" stroke="#63b8ff" points="140.47,-172.77 131.02,-177.56 141.39,-179.71 140.47,-172.77"/>
</a>
</g>
</g>
<!-- Node11 -->
<g id="Node000011" class="node">
<title>Node11</title>
<g id="a_Node000011"><a xlink:href="class_balloon_party_1_1_slots_1_1_actor_1_1_archetype_1_1_grid_actor_view.html" target="_top" xlink:title=" ">
<polygon fill="white" stroke="#666666" points="310.25,-128.5 184,-128.5 184,-98 310.25,-98 310.25,-128.5"/>
<text xml:space="preserve" text-anchor="start" x="192" y="-115" font-family="Helvetica,sans-Serif" font-size="10.00">BalloonParty.Slots.Actor.</text>
<text xml:space="preserve" text-anchor="middle" x="247.12" y="-103.75" font-family="Helvetica,sans-Serif" font-size="10.00">Archetype.GridActorView</text>
</a>
</g>
</g>
<!-- Node1&#45;&gt;Node11 -->
<g id="edge10_Node000001_Node000011" class="edge">
<title>Node1&#45;&gt;Node11</title>
<g id="a_edge10_Node000001_Node000011"><a xlink:title=" ">
<path fill="none" stroke="#63b8ff" d="M105.32,-165.44C123.34,-156.44 145.08,-146.17 165.25,-138.25 173.59,-134.97 182.55,-131.84 191.36,-128.96"/>
<polygon fill="#63b8ff" stroke="#63b8ff" points="103.88,-162.25 96.54,-169.89 107.04,-168.5 103.88,-162.25"/>
</a>
</g>
</g>
<!-- Node12 -->
<g id="Node000012" class="node">
<title>Node12</title>
<g id="a_Node000012"><a xlink:href="class_balloon_party_1_1_u_i_1_1_score_1_1_flying_trail.html" target="_top" xlink:title=" ">
<polygon fill="white" stroke="#666666" points="317.75,-79.5 176.5,-79.5 176.5,-49 317.75,-49 317.75,-79.5"/>
<text xml:space="preserve" text-anchor="start" x="184.5" y="-66" font-family="Helvetica,sans-Serif" font-size="10.00">BalloonParty.UI.Score.Flying</text>
<text xml:space="preserve" text-anchor="middle" x="247.12" y="-54.75" font-family="Helvetica,sans-Serif" font-size="10.00">Trail</text>
</a>
</g>
</g>
<!-- Node1&#45;&gt;Node12 -->
<g id="edge11_Node000001_Node000012" class="edge">
<title>Node1&#45;&gt;Node12</title>
<g id="a_edge11_Node000001_Node000012"><a xlink:title=" ">
<path fill="none" stroke="#63b8ff" d="M84.62,-162.11C103.06,-140.19 132.92,-108.45 165.25,-89.25 171.19,-85.72 177.67,-82.65 184.3,-79.98"/>
<polygon fill="#63b8ff" stroke="#63b8ff" points="82.05,-159.72 78.41,-169.66 87.46,-164.16 82.05,-159.72"/>
</a>
</g>
</g>
<!-- Node13 -->
<g id="Node000013" class="node">
<title>Node13</title>
<g id="a_Node000013"><a xlink:href="class_balloon_party_1_1_u_i_1_1_score_1_1_progress_notice.html" target="_top" xlink:title=" ">
<polygon fill="white" stroke="#666666" points="324.12,-30.5 170.12,-30.5 170.12,0 324.12,0 324.12,-30.5"/>
<text xml:space="preserve" text-anchor="start" x="178.12" y="-17" font-family="Helvetica,sans-Serif" font-size="10.00">BalloonParty.UI.Score.Progress</text>
<text xml:space="preserve" text-anchor="middle" x="247.12" y="-5.75" font-family="Helvetica,sans-Serif" font-size="10.00">Notice</text>
</a>
</g>
</g>
<!-- Node1&#45;&gt;Node13 -->
<g id="edge12_Node000001_Node000013" class="edge">
<title>Node1&#45;&gt;Node13</title>
<g id="a_edge12_Node000001_Node000013"><a xlink:title=" ">
<path fill="none" stroke="#63b8ff" d="M76.44,-160.84C91.6,-128.2 122.22,-72.01 165.25,-40.25 170.1,-36.67 175.47,-33.6 181.07,-30.96"/>
<polygon fill="#63b8ff" stroke="#63b8ff" points="73.43,-158.99 72.52,-169.55 79.82,-161.87 73.43,-158.99"/>
</a>
</g>
</g>
<!-- Node6 -->
<g id="Node000006" class="node">
<title>Node6</title>
<g id="a_Node000006"><a xlink:href="class_balloon_party_1_1_item_1_1_lightning_1_1_chain_lightning_view.html" target="_top" xlink:title="Poolable chain&#45;lightning effect.">
<polygon fill="white" stroke="#666666" points="502.5,-299.5 365,-299.5 365,-269 502.5,-269 502.5,-299.5"/>
<text xml:space="preserve" text-anchor="start" x="373" y="-286" font-family="Helvetica,sans-Serif" font-size="10.00">BalloonParty.Item.Lightning.</text>
<text xml:space="preserve" text-anchor="middle" x="433.75" y="-274.75" font-family="Helvetica,sans-Serif" font-size="10.00">ChainLightningView</text>
</a>
</g>
</g>
<!-- Node5&#45;&gt;Node6 -->
<g id="edge5_Node000005_Node000006" class="edge">
<title>Node5&#45;&gt;Node6</title>
<g id="a_edge5_Node000005_Node000006"><a xlink:title=" ">
<path fill="none" stroke="#63b8ff" d="M316.54,-230.95C320.81,-232.62 324.99,-234.39 329,-236.25 346.23,-244.24 348,-250.8 365,-259.25 371.74,-262.6 379.04,-265.75 386.27,-268.61"/>
<polygon fill="#63b8ff" stroke="#63b8ff" points="317.86,-227.71 307.26,-227.52 315.43,-234.27 317.86,-227.71"/>
</a>
</g>
</g>
<!-- Node7 -->
<g id="Node000007" class="node">
<title>Node7</title>
<g id="a_Node000007"><a xlink:href="class_balloon_party_1_1_item_1_1_paint_1_1_paint_splash_view.html" target="_top" xlink:title="Poolable paint&#45;splash effect.">
<polygon fill="white" stroke="#666666" points="494.25,-250.5 373.25,-250.5 373.25,-220 494.25,-220 494.25,-250.5"/>
<text xml:space="preserve" text-anchor="start" x="381.25" y="-237" font-family="Helvetica,sans-Serif" font-size="10.00">BalloonParty.Item.Paint.</text>
<text xml:space="preserve" text-anchor="middle" x="433.75" y="-225.75" font-family="Helvetica,sans-Serif" font-size="10.00">PaintSplashView</text>
</a>
</g>
</g>
<!-- Node5&#45;&gt;Node7 -->
<g id="edge6_Node000005_Node000007" class="edge">
<title>Node5&#45;&gt;Node7</title>
<g id="a_edge6_Node000005_Node000007"><a xlink:title=" ">
<path fill="none" stroke="#63b8ff" d="M323.43,-221.04C339.88,-223.18 357.08,-225.41 372.84,-227.46"/>
<polygon fill="#63b8ff" stroke="#63b8ff" points="324.05,-217.59 313.68,-219.77 323.15,-224.53 324.05,-217.59"/>
</a>
</g>
</g>
<!-- Node8 -->
<g id="Node000008" class="node">
<title>Node8</title>
<g id="a_Node000008"><a xlink:href="class_balloon_party_1_1_shared_1_1_pool_1_1_animator_effect_view.html" target="_top" xlink:title="Poolable effect driven by an Animator.">
<polygon fill="white" stroke="#666666" points="498.38,-201.5 369.12,-201.5 369.12,-171 498.38,-171 498.38,-201.5"/>
<text xml:space="preserve" text-anchor="start" x="377.12" y="-188" font-family="Helvetica,sans-Serif" font-size="10.00">BalloonParty.Shared.Pool.</text>
<text xml:space="preserve" text-anchor="middle" x="433.75" y="-176.75" font-family="Helvetica,sans-Serif" font-size="10.00">AnimatorEffectView</text>
</a>
</g>
</g>
<!-- Node5&#45;&gt;Node8 -->
<g id="edge7_Node000005_Node000008" class="edge">
<title>Node5&#45;&gt;Node8</title>
<g id="a_edge7_Node000005_Node000008"><a xlink:title=" ">
<path fill="none" stroke="#63b8ff" d="M323.53,-201.04C338.56,-199 354.21,-196.89 368.81,-194.91"/>
<polygon fill="#63b8ff" stroke="#63b8ff" points="323.12,-197.56 313.68,-202.37 324.06,-204.5 323.12,-197.56"/>
</a>
</g>
</g>
<!-- Node9 -->
<g id="Node000009" class="node">
<title>Node9</title>
<g id="a_Node000009"><a xlink:href="class_balloon_party_1_1_shared_1_1_pool_1_1_particle_effect_view.html" target="_top" xlink:title="Poolable effect driven by a ParticleSystem.">
<polygon fill="white" stroke="#666666" points="498.38,-152.5 369.12,-152.5 369.12,-122 498.38,-122 498.38,-152.5"/>
<text xml:space="preserve" text-anchor="start" x="377.12" y="-139" font-family="Helvetica,sans-Serif" font-size="10.00">BalloonParty.Shared.Pool.</text>
<text xml:space="preserve" text-anchor="middle" x="433.75" y="-127.75" font-family="Helvetica,sans-Serif" font-size="10.00">ParticleEffectView</text>
</a>
</g>
</g>
<!-- Node5&#45;&gt;Node9 -->
<g id="edge8_Node000005_Node000009" class="edge">
<title>Node5&#45;&gt;Node9</title>
<g id="a_edge8_Node000005_Node000009"><a xlink:title=" ">
<path fill="none" stroke="#63b8ff" d="M316.59,-191.64C320.84,-189.95 325.01,-188.15 329,-186.25 346.37,-177.99 347.86,-170.97 365,-162.25 371.59,-158.9 378.74,-155.76 385.85,-152.92"/>
<polygon fill="#63b8ff" stroke="#63b8ff" points="315.46,-188.32 307.32,-195.11 317.92,-194.88 315.46,-188.32"/>
</a>
</g>
</g>
</g>
</svg>
