<?xml version="1.0" encoding="UTF-8" standalone="no"?>
<!DOCTYPE svg PUBLIC "-//W3C//DTD SVG 1.1//EN"
 "http://www.w3.org/Graphics/SVG/1.1/DTD/svg11.dtd">
<!-- Generated by graphviz version 15.0.0 (20260523.1842)
 -->
<!-- Title: BalloonParty.Slots.Capabilities.IHasScoreColor Pages: 1 -->
<svg width="334pt" height="186pt"
 viewBox="0.00 0.00 334.00 186.00" xmlns="http://www.w3.org/2000/svg" xmlns:xlink="http://www.w3.org/1999/xlink">

<svg id="main" version="1.1" xmlns="http://www.w3.org/2000/svg" xmlns:xlink="http://www.w3.org/1999/xlink" xml:space="preserve">

<style type="text/css"><![CDATA[
.node, .edge {opacity: 0.7;}
.node.selected, .edge.selected {opacity: 1;}
.edge:hover path { stroke: red; }
.edge:hover polygon { stroke: red; fill: red; }
]]></style>
<script type="application/ecmascript" xlink:href="svg.min.js"/>
<svg id="graph" class="graph">
<g id="graph0" class="graph" transform="scale(1 1) rotate(0) translate(4 181.5)">
<title>BalloonParty.Slots.Capabilities.IHasScoreColor</title>
<!-- Node1 -->
<g id="Node000001" class="node">
<title>Node1</title>
<g id="a_Node000001"><a xlink:title=" ">
<polygon fill="#999999" stroke="#666666" points="152.5,-103.5 0,-103.5 0,-73 152.5,-73 152.5,-103.5"/>
<text xml:space="preserve" text-anchor="start" x="8" y="-90" font-family="Helvetica,sans-Serif" font-size="10.00">BalloonParty.Slots.Capabilities.</text>
<text xml:space="preserve" text-anchor="middle" x="76.25" y="-78.75" font-family="Helvetica,sans-Serif" font-size="10.00">IHasScoreColor</text>
</a>
</g>
</g>
<!-- Node2 -->
<g id="Node000002" class="node">
<title>Node2</title>
<g id="a_Node000002"><a xlink:title=" ">
<polygon fill="white" stroke="#666666" points="326,-177.5 188.5,-177.5 188.5,-147 326,-147 326,-177.5"/>
<text xml:space="preserve" text-anchor="start" x="196.5" y="-164" font-family="Helvetica,sans-Serif" font-size="10.00">BalloonParty.Balloon.Model.</text>
<text xml:space="preserve" text-anchor="middle" x="257.25" y="-152.75" font-family="Helvetica,sans-Serif" font-size="10.00">BalloonModel</text>
</a>
</g>
</g>
<!-- Node1&#45;&gt;Node2 -->
<g id="edge1_Node000001_Node000002" class="edge">
<title>Node1&#45;&gt;Node2</title>
<g id="a_edge1_Node000001_Node000002"><a xlink:title=" ">
<path fill="none" stroke="#63b8ff" d="M121.6,-108.53C141.87,-117.61 166.28,-128.27 188.5,-137.25 196.17,-140.35 204.39,-143.52 212.36,-146.5"/>
<polygon fill="#63b8ff" stroke="#63b8ff" points="123.04,-105.34 112.48,-104.43 120.17,-111.72 123.04,-105.34"/>
</a>
</g>
</g>
<!-- Node3 -->
<g id="Node000003" class="node">
<title>Node3</title>
<g id="a_Node000003"><a xlink:title=" ">
<polygon fill="white" stroke="#666666" points="326,-128.5 188.5,-128.5 188.5,-98 326,-98 326,-128.5"/>
<text xml:space="preserve" text-anchor="start" x="196.5" y="-115" font-family="Helvetica,sans-Serif" font-size="10.00">BalloonParty.Balloon.Model.</text>
<text xml:space="preserve" text-anchor="middle" x="257.25" y="-103.75" font-family="Helvetica,sans-Serif" font-size="10.00">BubbleClusterModel</text>
</a>
</g>
</g>
<!-- Node1&#45;&gt;Node3 -->
<g id="edge2_Node000001_Node000003" class="edge">
<title>Node1&#45;&gt;Node3</title>
<g id="a_edge2_Node000001_Node000003"><a xlink:title=" ">
<path fill="none" stroke="#63b8ff" d="M164.25,-100.4C172.31,-101.53 180.4,-102.66 188.25,-103.75"/>
<polygon fill="#63b8ff" stroke="#63b8ff" points="164.79,-96.94 154.4,-99.03 163.82,-103.88 164.79,-96.94"/>
</a>
</g>
</g>
<!-- Node4 -->
<g id="Node000004" class="node">
<title>Node4</title>
<g id="a_Node000004"><a xlink:title=" ">
<polygon fill="white" stroke="#666666" points="326,-79.5 188.5,-79.5 188.5,-49 326,-49 326,-79.5"/>
<text xml:space="preserve" text-anchor="start" x="196.5" y="-66" font-family="Helvetica,sans-Serif" font-size="10.00">BalloonParty.Balloon.Model.</text>
<text xml:space="preserve" text-anchor="middle" x="257.25" y="-54.75" font-family="Helvetica,sans-Serif" font-size="10.00">ToughBalloonModel</text>
</a>
</g>
</g>
<!-- Node1&#45;&gt;Node4 -->
<g id="edge3_Node000001_Node000004" class="edge">
<title>Node1&#45;&gt;Node4</title>
<g id="a_edge3_Node000001_Node000004"><a xlink:title=" ">
<path fill="none" stroke="#63b8ff" d="M164.25,-76.58C172.31,-75.5 180.4,-74.42 188.25,-73.37"/>
<polygon fill="#63b8ff" stroke="#63b8ff" points="163.85,-73.11 154.4,-77.91 164.78,-80.05 163.85,-73.11"/>
</a>
</g>
</g>
<!-- Node5 -->
<g id="Node000005" class="node">
<title>Node5</title>
<g id="a_Node000005"><a xlink:title=" ">
<polygon fill="white" stroke="#666666" points="326,-30.5 188.5,-30.5 188.5,0 326,0 326,-30.5"/>
<text xml:space="preserve" text-anchor="start" x="196.5" y="-17" font-family="Helvetica,sans-Serif" font-size="10.00">BalloonParty.Balloon.Model.</text>
<text xml:space="preserve" text-anchor="middle" x="257.25" y="-5.75" font-family="Helvetica,sans-Serif" font-size="10.00">UnbreakableBalloonModel</text>
</a>
</g>
</g>
<!-- Node1&#45;&gt;Node5 -->
<g id="edge4_Node000001_Node000005" class="edge">
<title>Node1&#45;&gt;Node5</title>
<g id="a_edge4_Node000001_Node000005"><a xlink:title=" ">
<path fill="none" stroke="#63b8ff" d="M122.54,-68.05C142.64,-59.26 166.65,-48.99 188.5,-40.25 196.3,-37.13 204.66,-33.93 212.75,-30.91"/>
<polygon fill="#63b8ff" stroke="#63b8ff" points="121.25,-64.8 113.51,-72.02 124.07,-71.2 121.25,-64.8"/>
</a>
</g>
</g>
</g>
</svg>
</svg>

<style type='text/css'>
<![CDATA[
[data-mouse-over-selected='false'] { opacity: 0.7; }
[data-mouse-over-selected='true']  { opacity: 1.0; }
]]>
</style>
<script type="application/ecmascript"><![CDATA[
document.addEventListener('DOMContentLoaded', (event) => {
  highlightEdges();
  highlightAdjacentNodes();
});
]]></script>
</svg>
