<?xml version="1.0" encoding="UTF-8" standalone="no"?>
<!DOCTYPE svg PUBLIC "-//W3C//DTD SVG 1.1//EN"
 "http://www.w3.org/Graphics/SVG/1.1/DTD/svg11.dtd">
<!-- Generated by graphviz version 15.0.0 (20260523.1842)
 -->
<!-- Title: BalloonParty.Balloon.Type.IBalloonVariant Pages: 1 -->
<svg width="478pt" height="186pt"
 viewBox="0.00 0.00 478.00 186.00" xmlns="http://www.w3.org/2000/svg" xmlns:xlink="http://www.w3.org/1999/xlink">
<g id="graph0" class="graph" transform="scale(1 1) rotate(0) translate(4 181.5)">
<title>BalloonParty.Balloon.Type.IBalloonVariant</title>
<!-- Node1 -->
<g id="Node000001" class="node">
<title>Node1</title>
<g id="a_Node000001"><a xlink:title=" ">
<polygon fill="#999999" stroke="#666666" points="132.25,-103.5 0,-103.5 0,-73 132.25,-73 132.25,-103.5"/>
<text xml:space="preserve" text-anchor="start" x="8" y="-90" font-family="Helvetica,sans-Serif" font-size="10.00">BalloonParty.Balloon.Type.</text>
<text xml:space="preserve" text-anchor="middle" x="66.12" y="-78.75" font-family="Helvetica,sans-Serif" font-size="10.00">IBalloonVariant</text>
</a>
</g>
</g>
<!-- Node2 -->
<g id="Node000002" class="node">
<title>Node2</title>
<g id="a_Node000002"><a xlink:href="class_balloon_party_1_1_balloon_1_1_type_1_1_colorable_balloon_variant.html" target="_top" xlink:title=" ">
<polygon fill="white" stroke="#666666" points="300.88,-177.5 168.62,-177.5 168.62,-147 300.88,-147 300.88,-177.5"/>
<text xml:space="preserve" text-anchor="start" x="176.62" y="-164" font-family="Helvetica,sans-Serif" font-size="10.00">BalloonParty.Balloon.Type.</text>
<text xml:space="preserve" text-anchor="middle" x="234.75" y="-152.75" font-family="Helvetica,sans-Serif" font-size="10.00">ColorableBalloonVariant</text>
</a>
</g>
</g>
<!-- Node1&#45;&gt;Node2 -->
<g id="edge1_Node000001_Node000002" class="edge">
<title>Node1&#45;&gt;Node2</title>
<g id="a_edge1_Node000001_Node000002"><a xlink:title=" ">
<path fill="none" stroke="#63b8ff" d="M108.07,-109.09C126.32,-118.12 148.19,-128.58 168.25,-137.25 175.51,-140.39 183.31,-143.54 190.9,-146.51"/>
<polygon fill="#63b8ff" stroke="#63b8ff" points="109.65,-105.96 99.14,-104.64 106.53,-112.23 109.65,-105.96"/>
</a>
</g>
</g>
<!-- Node4 -->
<g id="Node000004" class="node">
<title>Node4</title>
<g id="a_Node000004"><a xlink:href="class_balloon_party_1_1_balloon_1_1_type_1_1_soap_bubble_cluster_variant.html" target="_top" xlink:title="Balloon variant for BalloonType.BubbleCluster.">
<polygon fill="white" stroke="#666666" points="300.88,-128.5 168.62,-128.5 168.62,-98 300.88,-98 300.88,-128.5"/>
<text xml:space="preserve" text-anchor="start" x="176.62" y="-115" font-family="Helvetica,sans-Serif" font-size="10.00">BalloonParty.Balloon.Type.</text>
<text xml:space="preserve" text-anchor="middle" x="234.75" y="-103.75" font-family="Helvetica,sans-Serif" font-size="10.00">SoapBubbleClusterVariant</text>
</a>
</g>
</g>
<!-- Node1&#45;&gt;Node4 -->
<g id="edge3_Node000001_Node000004" class="edge">
<title>Node1&#45;&gt;Node4</title>
<g id="a_edge3_Node000001_Node000004"><a xlink:title=" ">
<path fill="none" stroke="#63b8ff" d="M143.64,-99.73C151.88,-100.97 160.2,-102.21 168.29,-103.43"/>
<polygon fill="#63b8ff" stroke="#63b8ff" points="144.41,-96.31 134,-98.28 143.37,-103.23 144.41,-96.31"/>
</a>
</g>
</g>
<!-- Node5 -->
<g id="Node000005" class="node">
<title>Node5</title>
<g id="a_Node000005"><a xlink:href="class_balloon_party_1_1_balloon_1_1_type_1_1_tough_balloon_variant.html" target="_top" xlink:title=" ">
<polygon fill="white" stroke="#666666" points="300.88,-79.5 168.62,-79.5 168.62,-49 300.88,-49 300.88,-79.5"/>
<text xml:space="preserve" text-anchor="start" x="176.62" y="-66" font-family="Helvetica,sans-Serif" font-size="10.00">BalloonParty.Balloon.Type.</text>
<text xml:space="preserve" text-anchor="middle" x="234.75" y="-54.75" font-family="Helvetica,sans-Serif" font-size="10.00">ToughBalloonVariant</text>
</a>
</g>
</g>
<!-- Node1&#45;&gt;Node5 -->
<g id="edge4_Node000001_Node000005" class="edge">
<title>Node1&#45;&gt;Node5</title>
<g id="a_edge4_Node000001_Node000005"><a xlink:title=" ">
<path fill="none" stroke="#63b8ff" d="M143.64,-77.23C151.88,-76.04 160.2,-74.84 168.29,-73.68"/>
<polygon fill="#63b8ff" stroke="#63b8ff" points="143.4,-73.73 134,-78.62 144.4,-80.66 143.4,-73.73"/>
</a>
</g>
</g>
<!-- Node6 -->
<g id="Node000006" class="node">
<title>Node6</title>
<g id="a_Node000006"><a xlink:href="class_balloon_party_1_1_balloon_1_1_type_1_1_unbreakable_balloon_variant.html" target="_top" xlink:title="Balloon variant for BalloonType.Unbreakable.">
<polygon fill="white" stroke="#666666" points="301.25,-30.5 168.25,-30.5 168.25,0 301.25,0 301.25,-30.5"/>
<text xml:space="preserve" text-anchor="start" x="176.25" y="-17" font-family="Helvetica,sans-Serif" font-size="10.00">BalloonParty.Balloon.Type.</text>
<text xml:space="preserve" text-anchor="middle" x="234.75" y="-5.75" font-family="Helvetica,sans-Serif" font-size="10.00">UnbreakableBalloonVariant</text>
</a>
</g>
</g>
<!-- Node1&#45;&gt;Node6 -->
<g id="edge5_Node000001_Node000006" class="edge">
<title>Node1&#45;&gt;Node6</title>
<g id="a_edge5_Node000001_Node000006"><a xlink:title=" ">
<path fill="none" stroke="#63b8ff" d="M108.52,-67.7C126.7,-58.91 148.38,-48.74 168.25,-40.25 175.64,-37.09 183.57,-33.9 191.27,-30.9"/>
<polygon fill="#63b8ff" stroke="#63b8ff" points="107.09,-64.5 99.63,-72.03 110.15,-70.8 107.09,-64.5"/>
</a>
</g>
</g>
<!-- Node3 -->
<g id="Node000003" class="node">
<title>Node3</title>
<g id="a_Node000003"><a xlink:href="class_balloon_party_1_1_balloon_1_1_type_1_1_simple_balloon_variant.html" target="_top" xlink:title=" ">
<polygon fill="white" stroke="#666666" points="469.5,-177.5 337.25,-177.5 337.25,-147 469.5,-147 469.5,-177.5"/>
<text xml:space="preserve" text-anchor="start" x="345.25" y="-164" font-family="Helvetica,sans-Serif" font-size="10.00">BalloonParty.Balloon.Type.</text>
<text xml:space="preserve" text-anchor="middle" x="403.38" y="-152.75" font-family="Helvetica,sans-Serif" font-size="10.00">SimpleBalloonVariant</text>
</a>
</g>
</g>
<!-- Node2&#45;&gt;Node3 -->
<g id="edge2_Node000002_Node000003" class="edge">
<title>Node2&#45;&gt;Node3</title>
<g id="a_edge2_Node000002_Node000003"><a xlink:title=" ">
<path fill="none" stroke="#63b8ff" d="M312.55,-162.25C320.69,-162.25 328.92,-162.25 336.91,-162.25"/>
<polygon fill="#63b8ff" stroke="#63b8ff" points="312.64,-158.75 302.64,-162.25 312.64,-165.75 312.64,-158.75"/>
</a>
</g>
</g>
</g>
</svg>
