<?xml version="1.0" encoding="UTF-8" standalone="no"?>
<!DOCTYPE svg PUBLIC "-//W3C//DTD SVG 1.1//EN"
 "http://www.w3.org/Graphics/SVG/1.1/DTD/svg11.dtd">
<!-- Generated by graphviz version 15.0.0 (20260523.1842)
 -->
<!-- Title: BalloonParty.Slots.Capabilities.IHasScore Pages: 1 -->
<svg width="334pt" height="137pt"
 viewBox="0.00 0.00 334.00 137.00" xmlns="http://www.w3.org/2000/svg" xmlns:xlink="http://www.w3.org/1999/xlink">
<g id="graph0" class="graph" transform="scale(1 1) rotate(0) translate(4 132.5)">
<title>BalloonParty.Slots.Capabilities.IHasScore</title>
<!-- Node1 -->
<g id="Node000001" class="node">
<title>Node1</title>
<g id="a_Node000001"><a xlink:title=" ">
<polygon fill="#999999" stroke="#666666" points="152.5,-79.5 0,-79.5 0,-49 152.5,-49 152.5,-79.5"/>
<text xml:space="preserve" text-anchor="start" x="8" y="-66" font-family="Helvetica,sans-Serif" font-size="10.00">BalloonParty.Slots.Capabilities.</text>
<text xml:space="preserve" text-anchor="middle" x="76.25" y="-54.75" font-family="Helvetica,sans-Serif" font-size="10.00">IHasScore</text>
</a>
</g>
</g>
<!-- Node2 -->
<g id="Node000002" class="node">
<title>Node2</title>
<g id="a_Node000002"><a xlink:title=" ">
<polygon fill="white" stroke="#666666" points="326,-128.5 188.5,-128.5 188.5,-98 326,-98 326,-128.5"/>
<text xml:space="preserve" text-anchor="start" x="196.5" y="-115" font-family="Helvetica,sans-Serif" font-size="10.00">BalloonParty.Balloon.Model.</text>
<text xml:space="preserve" text-anchor="middle" x="257.25" y="-103.75" font-family="Helvetica,sans-Serif" font-size="10.00">BalloonModel</text>
</a>
</g>
</g>
<!-- Node1&#45;&gt;Node2 -->
<g id="edge1_Node000001_Node000002" class="edge">
<title>Node1&#45;&gt;Node2</title>
<g id="a_edge1_Node000001_Node000002"><a xlink:title=" ">
<path fill="none" stroke="#63b8ff" d="M145.19,-82.85C162.84,-87.68 181.69,-92.84 198.74,-97.51"/>
<polygon fill="#63b8ff" stroke="#63b8ff" points="146.41,-79.55 135.84,-80.29 144.56,-86.3 146.41,-79.55"/>
</a>
</g>
</g>
<!-- Node3 -->
<g id="Node000003" class="node">
<title>Node3</title>
<g id="a_Node000003"><a xlink:title=" ">
<polygon fill="white" stroke="#666666" points="326,-79.5 188.5,-79.5 188.5,-49 326,-49 326,-79.5"/>
<text xml:space="preserve" text-anchor="start" x="196.5" y="-66" font-family="Helvetica,sans-Serif" font-size="10.00">BalloonParty.Balloon.Model.</text>
<text xml:space="preserve" text-anchor="middle" x="257.25" y="-54.75" font-family="Helvetica,sans-Serif" font-size="10.00">ToughBalloonModel</text>
</a>
</g>
</g>
<!-- Node1&#45;&gt;Node3 -->
<g id="edge2_Node000001_Node000003" class="edge">
<title>Node1&#45;&gt;Node3</title>
<g id="a_edge2_Node000001_Node000003"><a xlink:title=" ">
<path fill="none" stroke="#63b8ff" d="M164.25,-64.25C172.31,-64.25 180.4,-64.25 188.25,-64.25"/>
<polygon fill="#63b8ff" stroke="#63b8ff" points="164.42,-60.75 154.42,-64.25 164.42,-67.75 164.42,-60.75"/>
</a>
</g>
</g>
<!-- Node4 -->
<g id="Node000004" class="node">
<title>Node4</title>
<g id="a_Node000004"><a xlink:title=" ">
<polygon fill="white" stroke="#666666" points="326,-30.5 188.5,-30.5 188.5,0 326,0 326,-30.5"/>
<text xml:space="preserve" text-anchor="start" x="196.5" y="-17" font-family="Helvetica,sans-Serif" font-size="10.00">BalloonParty.Balloon.Model.</text>
<text xml:space="preserve" text-anchor="middle" x="257.25" y="-5.75" font-family="Helvetica,sans-Serif" font-size="10.00">UnbreakableBalloonModel</text>
</a>
</g>
</g>
<!-- Node1&#45;&gt;Node4 -->
<g id="edge3_Node000001_Node000004" class="edge">
<title>Node1&#45;&gt;Node4</title>
<g id="a_edge3_Node000001_Node000004"><a xlink:title=" ">
<path fill="none" stroke="#63b8ff" d="M145.19,-45.65C162.84,-40.82 181.69,-35.66 198.74,-30.99"/>
<polygon fill="#63b8ff" stroke="#63b8ff" points="144.56,-42.2 135.84,-48.21 146.41,-48.95 144.56,-42.2"/>
</a>
</g>
</g>
</g>
</svg>
