<?xml version="1.0" encoding="UTF-8" standalone="no"?>
<!DOCTYPE svg PUBLIC "-//W3C//DTD SVG 1.1//EN"
 "http://www.w3.org/Graphics/SVG/1.1/DTD/svg11.dtd">
<!-- Generated by graphviz version 15.0.0 (20260523.1842)
 -->
<!-- Title: ItemActivation Pages: 1 -->
<svg width="744pt" height="506pt"
 viewBox="0.00 0.00 744.00 506.00" xmlns="http://www.w3.org/2000/svg" xmlns:xlink="http://www.w3.org/1999/xlink">
<g id="graph0" class="graph" transform="scale(1 1) rotate(0) translate(4 501.62)">
<title>ItemActivation</title>
<g id="clust1" class="cluster">
<title>cluster_handlers</title>
<polygon fill="none" stroke="#30363d" stroke-dasharray="5,2" points="8,-105.18 8,-188.93 567,-188.93 567,-105.18 8,-105.18"/>
<text xml:space="preserve" text-anchor="middle" x="287.5" y="-171.63" font-family="Helvetica,sans-Serif" font-size="14.00" fill="#8b949e">Item Handlers</text>
</g>
<!-- Collision -->
<g id="node1" class="node">
<title>Collision</title>
<ellipse fill="#3d2a1a" stroke="black" cx="204" cy="-476.05" rx="67" ry="21.57"/>
<text xml:space="preserve" text-anchor="middle" x="204" y="-477.8" font-family="Helvetica,sans-Serif" font-size="10.00" fill="#f78166">ProjectileView</text>
<text xml:space="preserve" text-anchor="middle" x="204" y="-466.55" font-family="Helvetica,sans-Serif" font-size="10.00" fill="#f78166">OnTriggerEnter2D</text>
</g>
<!-- HitMsg -->
<g id="node2" class="node">
<title>HitMsg</title>
<path fill="#2a2a2a" stroke="black" d="M268.92,-399.22C268.92,-399.22 251.45,-410.84 251.45,-410.84 246.45,-414.16 235.46,-417.48 229.46,-417.48 229.46,-417.48 178.54,-417.48 178.54,-417.48 172.54,-417.48 161.55,-414.16 156.55,-410.84 156.55,-410.84 139.08,-399.22 139.08,-399.22 134.08,-395.9 134.08,-389.26 139.08,-385.94 139.08,-385.94 156.55,-374.32 156.55,-374.32 161.55,-371 172.54,-367.68 178.54,-367.68 178.54,-367.68 229.46,-367.68 229.46,-367.68 235.46,-367.68 246.45,-371 251.45,-374.32 251.45,-374.32 268.92,-385.94 268.92,-385.94 273.92,-389.26 273.92,-395.9 268.92,-399.22"/>
<text xml:space="preserve" text-anchor="middle" x="204" y="-394.33" font-family="Helvetica,sans-Serif" font-size="10.00" fill="#c9d1d9">ActorHitMessage</text>
<text xml:space="preserve" text-anchor="middle" x="204" y="-383.08" font-family="Helvetica,sans-Serif" font-size="10.00" fill="#c9d1d9">(Damage=1)</text>
</g>
<!-- Collision&#45;&gt;HitMsg -->
<g id="edge1" class="edge">
<title>Collision&#45;&gt;HitMsg</title>
<path fill="none" stroke="#f78166" d="M204,-454.07C204,-446.49 204,-437.7 204,-429.21"/>
<polygon fill="#f78166" stroke="#f78166" points="207.5,-429.47 204,-419.47 200.5,-429.47 207.5,-429.47"/>
</g>
<!-- BalloonHide -->
<g id="node3" class="node">
<title>BalloonHide</title>
<path fill="#1f3a5f" stroke="black" d="M238.25,-330.68C238.25,-330.68 145.75,-330.68 145.75,-330.68 139.75,-330.68 133.75,-324.68 133.75,-318.68 133.75,-318.68 133.75,-300.93 133.75,-300.93 133.75,-294.93 139.75,-288.93 145.75,-288.93 145.75,-288.93 238.25,-288.93 238.25,-288.93 244.25,-288.93 250.25,-294.93 250.25,-300.93 250.25,-300.93 250.25,-318.68 250.25,-318.68 250.25,-324.68 244.25,-330.68 238.25,-330.68"/>
<text xml:space="preserve" text-anchor="middle" x="192" y="-317.18" font-family="Helvetica,sans-Serif" font-size="10.00" fill="#58a6ff">BalloonController</text>
<text xml:space="preserve" text-anchor="middle" x="192" y="-305.93" font-family="Helvetica,sans-Serif" font-size="10.00" fill="#58a6ff">Hide() balloon</text>
<text xml:space="preserve" text-anchor="middle" x="192" y="-294.68" font-family="Helvetica,sans-Serif" font-size="10.00" fill="#58a6ff">wait ItemActivatedMsg</text>
</g>
<!-- HitMsg&#45;&gt;BalloonHide -->
<g id="edge2" class="edge">
<title>HitMsg&#45;&gt;BalloonHide</title>
<path fill="none" stroke="#58a6ff" d="M200.4,-367.34C199.23,-359.45 197.91,-350.56 196.67,-342.22"/>
<polygon fill="#58a6ff" stroke="#58a6ff" points="200.15,-341.81 195.21,-332.44 193.22,-342.84 200.15,-341.81"/>
</g>
<!-- Yield -->
<g id="node4" class="node">
<title>Yield</title>
<path fill="#2d1f3d" stroke="black" d="M331.25,-327.8C331.25,-327.8 280.75,-327.8 280.75,-327.8 274.75,-327.8 268.75,-321.8 268.75,-315.8 268.75,-315.8 268.75,-303.8 268.75,-303.8 268.75,-297.8 274.75,-291.8 280.75,-291.8 280.75,-291.8 331.25,-291.8 331.25,-291.8 337.25,-291.8 343.25,-297.8 343.25,-303.8 343.25,-303.8 343.25,-315.8 343.25,-315.8 343.25,-321.8 337.25,-327.8 331.25,-327.8"/>
<text xml:space="preserve" text-anchor="middle" x="306" y="-311.55" font-family="Helvetica,sans-Serif" font-size="10.00" fill="#d2a8ff">ItemActivator</text>
<text xml:space="preserve" text-anchor="middle" x="306" y="-300.3" font-family="Helvetica,sans-Serif" font-size="10.00" fill="#d2a8ff">yield 1 frame</text>
</g>
<!-- HitMsg&#45;&gt;Yield -->
<g id="edge3" class="edge">
<title>HitMsg&#45;&gt;Yield</title>
<path fill="none" stroke="#d2a8ff" d="M234.6,-367.34C247.45,-357.17 262.36,-345.36 275.22,-335.18"/>
<polygon fill="#d2a8ff" stroke="#d2a8ff" points="277.31,-337.99 282.98,-329.03 272.97,-332.5 277.31,-337.99"/>
</g>
<!-- Setup -->
<g id="node5" class="node">
<title>Setup</title>
<path fill="#2d1f3d" stroke="black" d="M356.38,-251.93C356.38,-251.93 255.62,-251.93 255.62,-251.93 249.62,-251.93 243.62,-245.93 243.62,-239.93 243.62,-239.93 243.62,-227.93 243.62,-227.93 243.62,-221.93 249.62,-215.93 255.62,-215.93 255.62,-215.93 356.38,-215.93 356.38,-215.93 362.38,-215.93 368.38,-221.93 368.38,-227.93 368.38,-227.93 368.38,-239.93 368.38,-239.93 368.38,-245.93 362.38,-251.93 356.38,-251.93"/>
<text xml:space="preserve" text-anchor="middle" x="306" y="-235.68" font-family="Helvetica,sans-Serif" font-size="10.00" fill="#d2a8ff">Setup(balloon, worldPos)</text>
<text xml:space="preserve" text-anchor="middle" x="306" y="-224.43" font-family="Helvetica,sans-Serif" font-size="10.00" fill="#d2a8ff">await Activate()</text>
</g>
<!-- Yield&#45;&gt;Setup -->
<g id="edge4" class="edge">
<title>Yield&#45;&gt;Setup</title>
<path fill="none" stroke="#d2a8ff" d="M306,-291.67C306,-283.34 306,-273.1 306,-263.62"/>
<polygon fill="#d2a8ff" stroke="#d2a8ff" points="309.5,-263.74 306,-253.74 302.5,-263.74 309.5,-263.74"/>
</g>
<!-- Bomb -->
<g id="node6" class="node">
<title>Bomb</title>
<path fill="#1a3a1a" stroke="black" d="M90.25,-157.93C90.25,-157.93 27.75,-157.93 27.75,-157.93 21.75,-157.93 15.75,-151.93 15.75,-145.93 15.75,-145.93 15.75,-125.18 15.75,-125.18 15.75,-119.18 21.75,-113.18 27.75,-113.18 27.75,-113.18 90.25,-113.18 90.25,-113.18 96.25,-113.18 102.25,-119.18 102.25,-125.18 102.25,-125.18 102.25,-145.93 102.25,-145.93 102.25,-151.93 96.25,-157.93 90.25,-157.93"/>
<text xml:space="preserve" text-anchor="middle" x="59" y="-144.43" font-family="Helvetica,sans-Serif" font-size="10.00" fill="#3fb950">💣 Bomb</text>
<text xml:space="preserve" text-anchor="middle" x="59" y="-130.18" font-family="Helvetica,sans-Serif" font-size="10.00" fill="#3fb950">OverlapCircleAll</text>
<text xml:space="preserve" text-anchor="middle" x="59" y="-118.93" font-family="Helvetica,sans-Serif" font-size="10.00" fill="#3fb950">nudge + destroy</text>
</g>
<!-- Setup&#45;&gt;Bomb -->
<g id="edge5" class="edge">
<title>Setup&#45;&gt;Bomb</title>
<path fill="none" stroke="#30363d" stroke-dasharray="5,2" d="M243.52,-227.88C203.59,-222.53 151.84,-211.53 111,-188.93 100.74,-183.25 91.17,-174.94 83.11,-166.61"/>
<polygon fill="#30363d" stroke="#30363d" points="85.93,-164.5 76.6,-159.48 80.76,-169.22 85.93,-164.5"/>
</g>
<!-- Laser -->
<g id="node7" class="node">
<title>Laser</title>
<path fill="#1a3a1a" stroke="black" d="M196,-157.93C196,-157.93 132,-157.93 132,-157.93 126,-157.93 120,-151.93 120,-145.93 120,-145.93 120,-125.18 120,-125.18 120,-119.18 126,-113.18 132,-113.18 132,-113.18 196,-113.18 196,-113.18 202,-113.18 208,-119.18 208,-125.18 208,-125.18 208,-145.93 208,-145.93 208,-151.93 202,-157.93 196,-157.93"/>
<text xml:space="preserve" text-anchor="middle" x="164" y="-144.43" font-family="Helvetica,sans-Serif" font-size="10.00" fill="#3fb950">🔫 Laser</text>
<text xml:space="preserve" text-anchor="middle" x="164" y="-130.18" font-family="Helvetica,sans-Serif" font-size="10.00" fill="#3fb950">4× CircleCastAll</text>
<text xml:space="preserve" text-anchor="middle" x="164" y="-118.93" font-family="Helvetica,sans-Serif" font-size="10.00" fill="#3fb950">rotated beams</text>
</g>
<!-- Setup&#45;&gt;Laser -->
<g id="edge6" class="edge">
<title>Setup&#45;&gt;Laser</title>
<path fill="none" stroke="#30363d" stroke-dasharray="5,2" d="M264.12,-215.61C248.69,-208.37 231.46,-199.23 217,-188.93 207.85,-182.41 198.81,-174.28 190.86,-166.4"/>
<polygon fill="#30363d" stroke="#30363d" points="193.55,-164.14 184.06,-159.42 188.54,-169.03 193.55,-164.14"/>
</g>
<!-- Lightning -->
<g id="node8" class="node">
<title>Lightning</title>
<path fill="#1a3a1a" stroke="black" d="M306.25,-157.93C306.25,-157.93 237.75,-157.93 237.75,-157.93 231.75,-157.93 225.75,-151.93 225.75,-145.93 225.75,-145.93 225.75,-125.18 225.75,-125.18 225.75,-119.18 231.75,-113.18 237.75,-113.18 237.75,-113.18 306.25,-113.18 306.25,-113.18 312.25,-113.18 318.25,-119.18 318.25,-125.18 318.25,-125.18 318.25,-145.93 318.25,-145.93 318.25,-151.93 312.25,-157.93 306.25,-157.93"/>
<text xml:space="preserve" text-anchor="middle" x="272" y="-144.43" font-family="Helvetica,sans-Serif" font-size="10.00" fill="#3fb950">⚡ Lightning</text>
<text xml:space="preserve" text-anchor="middle" x="272" y="-130.18" font-family="Helvetica,sans-Serif" font-size="10.00" fill="#3fb950">Chain same&#45;color</text>
<text xml:space="preserve" text-anchor="middle" x="272" y="-118.93" font-family="Helvetica,sans-Serif" font-size="10.00" fill="#3fb950">fractal bolts</text>
</g>
<!-- Setup&#45;&gt;Lightning -->
<g id="edge7" class="edge">
<title>Setup&#45;&gt;Lightning</title>
<path fill="none" stroke="#30363d" stroke-dasharray="5,2" d="M299.92,-215.7C295.37,-202.8 289.01,-184.78 283.51,-169.18"/>
<polygon fill="#30363d" stroke="#30363d" points="286.83,-168.06 280.2,-159.8 280.23,-170.39 286.83,-168.06"/>
</g>
<!-- Paint -->
<g id="node9" class="node">
<title>Paint</title>
<path fill="#1a3a1a" stroke="black" d="M419.75,-157.93C419.75,-157.93 348.25,-157.93 348.25,-157.93 342.25,-157.93 336.25,-151.93 336.25,-145.93 336.25,-145.93 336.25,-125.18 336.25,-125.18 336.25,-119.18 342.25,-113.18 348.25,-113.18 348.25,-113.18 419.75,-113.18 419.75,-113.18 425.75,-113.18 431.75,-119.18 431.75,-125.18 431.75,-125.18 431.75,-145.93 431.75,-145.93 431.75,-151.93 425.75,-157.93 419.75,-157.93"/>
<text xml:space="preserve" text-anchor="middle" x="384" y="-144.43" font-family="Helvetica,sans-Serif" font-size="10.00" fill="#3fb950">🎨 Paint</text>
<text xml:space="preserve" text-anchor="middle" x="384" y="-130.18" font-family="Helvetica,sans-Serif" font-size="10.00" fill="#3fb950">Hex neighbor arcs</text>
<text xml:space="preserve" text-anchor="middle" x="384" y="-118.93" font-family="Helvetica,sans-Serif" font-size="10.00" fill="#3fb950">recolor IPaintable</text>
</g>
<!-- Setup&#45;&gt;Paint -->
<g id="edge8" class="edge">
<title>Setup&#45;&gt;Paint</title>
<path fill="none" stroke="#30363d" stroke-dasharray="5,2" d="M319.94,-215.7C330.89,-202.18 346.4,-183.01 359.41,-166.93"/>
<polygon fill="#30363d" stroke="#30363d" points="361.82,-169.52 365.39,-159.55 356.38,-165.12 361.82,-169.52"/>
</g>
<!-- Shield -->
<g id="node10" class="node">
<title>Shield</title>
<path fill="#1a3a1a" stroke="black" d="M546.5,-157.93C546.5,-157.93 461.5,-157.93 461.5,-157.93 455.5,-157.93 449.5,-151.93 449.5,-145.93 449.5,-145.93 449.5,-125.18 449.5,-125.18 449.5,-119.18 455.5,-113.18 461.5,-113.18 461.5,-113.18 546.5,-113.18 546.5,-113.18 552.5,-113.18 558.5,-119.18 558.5,-125.18 558.5,-125.18 558.5,-145.93 558.5,-145.93 558.5,-151.93 552.5,-157.93 546.5,-157.93"/>
<text xml:space="preserve" text-anchor="middle" x="504" y="-144.43" font-family="Helvetica,sans-Serif" font-size="10.00" fill="#3fb950">🛡️ Shield</text>
<text xml:space="preserve" text-anchor="middle" x="504" y="-130.18" font-family="Helvetica,sans-Serif" font-size="10.00" fill="#3fb950">+1 ShieldsRemaining</text>
<text xml:space="preserve" text-anchor="middle" x="504" y="-118.93" font-family="Helvetica,sans-Serif" font-size="10.00" fill="#3fb950">on projectile</text>
</g>
<!-- Setup&#45;&gt;Shield -->
<g id="edge9" class="edge">
<title>Setup&#45;&gt;Shield</title>
<path fill="none" stroke="#30363d" stroke-dasharray="5,2" d="M368.86,-217.81C392.32,-210.81 418.66,-201.26 441,-188.93 452.44,-182.61 463.78,-174.08 473.63,-165.75"/>
<polygon fill="#30363d" stroke="#30363d" points="475.86,-168.44 481.07,-159.21 471.24,-163.18 475.86,-168.44"/>
</g>
<!-- ActivatedMsg -->
<g id="node12" class="node">
<title>ActivatedMsg</title>
<path fill="#2a2a2a" stroke="black" d="M724.66,-140.5C724.66,-140.5 706.73,-148.61 706.73,-148.61 701.27,-151.08 689.8,-153.55 683.8,-153.55 683.8,-153.55 628.2,-153.55 628.2,-153.55 622.2,-153.55 610.73,-151.08 605.27,-148.61 605.27,-148.61 587.34,-140.5 587.34,-140.5 581.87,-138.03 581.87,-133.08 587.34,-130.61 587.34,-130.61 605.27,-122.5 605.27,-122.5 610.73,-120.03 622.2,-117.55 628.2,-117.55 628.2,-117.55 683.8,-117.55 683.8,-117.55 689.8,-117.55 701.27,-120.03 706.73,-122.5 706.73,-122.5 724.66,-130.61 724.66,-130.61 730.13,-133.08 730.13,-138.03 724.66,-140.5"/>
<text xml:space="preserve" text-anchor="middle" x="656" y="-131.68" font-family="Helvetica,sans-Serif" font-size="10.00" fill="#c9d1d9">ItemActivatedMessage</text>
</g>
<!-- Setup&#45;&gt;ActivatedMsg -->
<g id="edge14" class="edge">
<title>Setup&#45;&gt;ActivatedMsg</title>
<path fill="none" stroke="#d2a8ff" d="M368.8,-229.35C423.64,-224.64 504.62,-213.79 571,-188.93 589.82,-181.88 609.03,-170.47 624.41,-160.1"/>
<polygon fill="#d2a8ff" stroke="#d2a8ff" points="625.99,-163.26 632.21,-154.69 622,-157.51 625.99,-163.26"/>
</g>
<!-- SecondaryHits -->
<g id="node11" class="node">
<title>SecondaryHits</title>
<path fill="#2a2a2a" stroke="black" d="M301.21,-40.27C301.21,-40.27 265.03,-62 265.03,-62 259.89,-65.09 248.75,-68.18 242.75,-68.18 242.75,-68.18 153.25,-68.18 153.25,-68.18 147.25,-68.18 136.11,-65.09 130.97,-62 130.97,-62 94.79,-40.27 94.79,-40.27 89.65,-37.18 89.65,-31 94.79,-27.91 94.79,-27.91 130.97,-6.18 130.97,-6.18 136.11,-3.09 147.25,0 153.25,0 153.25,0 242.75,0 242.75,0 248.75,0 259.89,-3.09 265.03,-6.18 265.03,-6.18 301.21,-27.91 301.21,-27.91 306.35,-31 306.35,-37.18 301.21,-40.27"/>
<text xml:space="preserve" text-anchor="middle" x="198" y="-41.46" font-family="Helvetica,sans-Serif" font-size="10.00" fill="#c9d1d9">ActorHitMessage</text>
<text xml:space="preserve" text-anchor="middle" x="198" y="-30.21" font-family="Helvetica,sans-Serif" font-size="10.00" fill="#c9d1d9">per secondary balloon</text>
<text xml:space="preserve" text-anchor="middle" x="198" y="-18.96" font-family="Helvetica,sans-Serif" font-size="10.00" fill="#c9d1d9">(Damage=settings.Damage)</text>
</g>
<!-- Bomb&#45;&gt;SecondaryHits -->
<g id="edge10" class="edge">
<title>Bomb&#45;&gt;SecondaryHits</title>
<path fill="none" stroke="#3fb950" d="M89.5,-112.72C104.88,-101.72 124.03,-88.02 141.94,-75.2"/>
<polygon fill="#3fb950" stroke="#3fb950" points="143.84,-78.15 149.94,-69.48 139.77,-72.45 143.84,-78.15"/>
</g>
<!-- Laser&#45;&gt;SecondaryHits -->
<g id="edge11" class="edge">
<title>Laser&#45;&gt;SecondaryHits</title>
<path fill="none" stroke="#3fb950" d="M171.38,-112.97C174.79,-103 178.97,-90.77 182.99,-78.99"/>
<polygon fill="#3fb950" stroke="#3fb950" points="186.21,-80.4 186.13,-69.8 179.59,-78.13 186.21,-80.4"/>
</g>
<!-- Lightning&#45;&gt;SecondaryHits -->
<g id="edge12" class="edge">
<title>Lightning&#45;&gt;SecondaryHits</title>
<path fill="none" stroke="#3fb950" d="M255.94,-112.97C248.22,-102.59 238.68,-89.77 229.59,-77.55"/>
<polygon fill="#3fb950" stroke="#3fb950" points="232.44,-75.52 223.66,-69.58 226.82,-79.7 232.44,-75.52"/>
</g>
<!-- Paint&#45;&gt;SecondaryHits -->
<g id="edge13" class="edge">
<title>Paint&#45;&gt;SecondaryHits</title>
<path fill="none" stroke="#3fb950" stroke-dasharray="5,2" d="M343.18,-112.72C321,-100.86 292.95,-85.86 267.44,-72.22"/>
<polygon fill="#3fb950" stroke="#3fb950" points="269.24,-69.22 258.77,-67.59 265.94,-75.39 269.24,-69.22"/>
<text xml:space="preserve" text-anchor="middle" x="320.41" y="-87.58" font-family="Helvetica,sans-Serif" font-size="8.00">(no hit)</text>
</g>
<!-- ReturnPool -->
<g id="node13" class="node">
<title>ReturnPool</title>
<path fill="#1f3a5f" stroke="black" d="M700,-52.09C700,-52.09 612,-52.09 612,-52.09 606,-52.09 600,-46.09 600,-40.09 600,-40.09 600,-28.09 600,-28.09 600,-22.09 606,-16.09 612,-16.09 612,-16.09 700,-16.09 700,-16.09 706,-16.09 712,-22.09 712,-28.09 712,-28.09 712,-40.09 712,-40.09 712,-46.09 706,-52.09 700,-52.09"/>
<text xml:space="preserve" text-anchor="middle" x="656" y="-35.84" font-family="Helvetica,sans-Serif" font-size="10.00" fill="#58a6ff">BalloonController</text>
<text xml:space="preserve" text-anchor="middle" x="656" y="-24.59" font-family="Helvetica,sans-Serif" font-size="10.00" fill="#58a6ff">returns balloon to pool</text>
</g>
<!-- ActivatedMsg&#45;&gt;ReturnPool -->
<g id="edge15" class="edge">
<title>ActivatedMsg&#45;&gt;ReturnPool</title>
<path fill="none" stroke="#58a6ff" d="M656,-117.23C656,-102.56 656,-81.22 656,-63.97"/>
<polygon fill="#58a6ff" stroke="#58a6ff" points="659.5,-64.06 656,-54.06 652.5,-64.06 659.5,-64.06"/>
</g>
</g>
</svg>
