<?xml version="1.0" encoding="UTF-8" standalone="no"?>
<!DOCTYPE svg PUBLIC "-//W3C//DTD SVG 1.1//EN"
 "http://www.w3.org/Graphics/SVG/1.1/DTD/svg11.dtd">
<!-- Generated by graphviz version 15.0.0 (20260523.1842)
 -->
<!-- Title: MessageFlow Pages: 1 -->
<svg width="435pt" height="737pt"
 viewBox="0.00 0.00 435.00 737.00" xmlns="http://www.w3.org/2000/svg" xmlns:xlink="http://www.w3.org/1999/xlink">
<g id="graph0" class="graph" transform="scale(1 1) rotate(0) translate(4 733)">
<title>MessageFlow</title>
<g id="clust1" class="cluster">
<title>cluster_pub</title>
<polygon fill="none" stroke="#30363d" stroke-dasharray="5,2" points="8,-156 8,-555 114.25,-555 114.25,-156 8,-156"/>
<text xml:space="preserve" text-anchor="middle" x="61.12" y="-537.7" font-family="Helvetica,sans-Serif" font-size="14.00" fill="#8b949e">Publishers</text>
</g>
<g id="clust2" class="cluster">
<title>cluster_msg</title>
<polygon fill="none" stroke="#30363d" stroke-dasharray="5,2" points="134.25,-8 134.25,-721 291.5,-721 291.5,-8 134.25,-8"/>
<text xml:space="preserve" text-anchor="middle" x="212.88" y="-703.7" font-family="Helvetica,sans-Serif" font-size="14.00" fill="#8b949e">Messages</text>
</g>
<g id="clust3" class="cluster">
<title>cluster_sub</title>
<polygon fill="none" stroke="#30363d" stroke-dasharray="5,2" points="311.5,-97 311.5,-604 419.25,-604 419.25,-97 311.5,-97"/>
<text xml:space="preserve" text-anchor="middle" x="365.38" y="-586.7" font-family="Helvetica,sans-Serif" font-size="14.00" fill="#8b949e">Subscribers</text>
</g>
<!-- ProjectileView -->
<g id="node1" class="node">
<title>ProjectileView</title>
<path fill="#1f3a5f" stroke="black" d="M86.38,-254C86.38,-254 35.88,-254 35.88,-254 29.88,-254 23.88,-248 23.88,-242 23.88,-242 23.88,-230 23.88,-230 23.88,-224 29.88,-218 35.88,-218 35.88,-218 86.38,-218 86.38,-218 92.38,-218 98.38,-224 98.38,-230 98.38,-230 98.38,-242 98.38,-242 98.38,-248 92.38,-254 86.38,-254"/>
<text xml:space="preserve" text-anchor="middle" x="61.12" y="-232.32" font-family="Helvetica,sans-Serif" font-size="9.00" fill="#58a6ff">ProjectileView</text>
</g>
<!-- ActorHit -->
<g id="node8" class="node">
<title>ActorHit</title>
<path fill="#3d2a1a" stroke="black" d="M249.28,-297.48C249.28,-297.48 242,-304.97 242,-304.97 238.36,-308.71 229.5,-312.45 224.28,-312.45 224.28,-312.45 201.48,-312.45 201.48,-312.45 196.26,-312.45 187.4,-308.71 183.76,-304.97 183.76,-304.97 176.47,-297.48 176.47,-297.48 172.83,-293.74 172.83,-286.26 176.47,-282.52 176.47,-282.52 183.76,-275.03 183.76,-275.03 187.4,-271.29 196.26,-267.55 201.48,-267.55 201.48,-267.55 224.28,-267.55 224.28,-267.55 229.5,-267.55 238.36,-271.29 242,-275.03 242,-275.03 249.28,-282.52 249.28,-282.52 252.92,-286.26 252.92,-293.74 249.28,-297.48"/>
<text xml:space="preserve" text-anchor="middle" x="212.88" y="-291.2" font-family="Helvetica,sans-Serif" font-size="9.00" fill="#f78166">ActorHit</text>
<text xml:space="preserve" text-anchor="middle" x="212.88" y="-281.45" font-family="Helvetica,sans-Serif" font-size="9.00" fill="#f78166">Message</text>
</g>
<!-- ProjectileView&#45;&gt;ActorHit -->
<g id="edge1" class="edge">
<title>ProjectileView&#45;&gt;ActorHit</title>
<path fill="none" stroke="black" d="M98.76,-249.21C120.19,-256.94 147.33,-266.73 169.66,-274.78"/>
<polygon fill="black" stroke="black" points="168.17,-277.96 178.76,-278.06 170.54,-271.37 168.17,-277.96"/>
</g>
<!-- BalanceBalloons -->
<g id="node9" class="node">
<title>BalanceBalloons</title>
<path fill="#3d2a1a" stroke="black" d="M260.02,-171.46C260.02,-171.46 250.54,-178.99 250.54,-178.99 245.85,-182.72 235.15,-186.45 229.15,-186.45 229.15,-186.45 196.61,-186.45 196.61,-186.45 190.61,-186.45 179.91,-182.72 175.21,-178.99 175.21,-178.99 165.73,-171.46 165.73,-171.46 161.03,-167.73 161.03,-160.27 165.73,-156.54 165.73,-156.54 175.21,-149.01 175.21,-149.01 179.91,-145.28 190.61,-141.55 196.61,-141.55 196.61,-141.55 229.15,-141.55 229.15,-141.55 235.15,-141.55 245.85,-145.28 250.54,-149.01 250.54,-149.01 260.02,-156.54 260.02,-156.54 264.72,-160.27 264.72,-167.73 260.02,-171.46"/>
<text xml:space="preserve" text-anchor="middle" x="212.88" y="-165.2" font-family="Helvetica,sans-Serif" font-size="9.00" fill="#f78166">Balance</text>
<text xml:space="preserve" text-anchor="middle" x="212.88" y="-155.45" font-family="Helvetica,sans-Serif" font-size="9.00" fill="#f78166">BalloonsMsg</text>
</g>
<!-- ProjectileView&#45;&gt;BalanceBalloons -->
<g id="edge3" class="edge">
<title>ProjectileView&#45;&gt;BalanceBalloons</title>
<path fill="none" stroke="black" d="M98.83,-217.57C104.05,-214.78 109.32,-211.87 114.25,-209 123.41,-203.67 124.86,-200.93 134.25,-196 143.44,-191.17 153.53,-186.55 163.3,-182.4"/>
<polygon fill="black" stroke="black" points="164.42,-185.72 172.33,-178.67 161.75,-179.25 164.42,-185.72"/>
</g>
<!-- ProjDestroyed -->
<g id="node10" class="node">
<title>ProjDestroyed</title>
<path fill="#3d2a1a" stroke="black" d="M264.63,-108.08C264.63,-108.08 253.29,-116.37 253.29,-116.37 248.44,-119.91 237.6,-123.45 231.6,-123.45 231.6,-123.45 194.16,-123.45 194.16,-123.45 188.16,-123.45 177.31,-119.91 172.47,-116.37 172.47,-116.37 161.12,-108.08 161.12,-108.08 156.28,-104.54 156.28,-97.46 161.12,-93.92 161.12,-93.92 172.47,-85.63 172.47,-85.63 177.31,-82.09 188.16,-78.55 194.16,-78.55 194.16,-78.55 231.6,-78.55 231.6,-78.55 237.6,-78.55 248.44,-82.09 253.29,-85.63 253.29,-85.63 264.63,-93.92 264.63,-93.92 269.47,-97.46 269.47,-104.54 264.63,-108.08"/>
<text xml:space="preserve" text-anchor="middle" x="212.88" y="-102.2" font-family="Helvetica,sans-Serif" font-size="9.00" fill="#f78166">Projectile</text>
<text xml:space="preserve" text-anchor="middle" x="212.88" y="-92.45" font-family="Helvetica,sans-Serif" font-size="9.00" fill="#f78166">DestroyedMsg</text>
</g>
<!-- ProjectileView&#45;&gt;ProjDestroyed -->
<g id="edge2" class="edge">
<title>ProjectileView&#45;&gt;ProjDestroyed</title>
<path fill="none" stroke="black" d="M98.7,-222.14C104.55,-218.59 110.05,-214.25 114.25,-209 136.08,-181.73 111.26,-159.29 134.25,-133 140.12,-126.29 147.62,-120.96 155.63,-116.73"/>
<polygon fill="black" stroke="black" points="156.99,-119.96 164.59,-112.58 154.05,-113.6 156.99,-119.96"/>
</g>
<!-- BalloonController -->
<g id="node2" class="node">
<title>BalloonController</title>
<path fill="#1f3a5f" stroke="black" d="M93.12,-200C93.12,-200 29.12,-200 29.12,-200 23.12,-200 17.12,-194 17.12,-188 17.12,-188 17.12,-176 17.12,-176 17.12,-170 23.12,-164 29.12,-164 29.12,-164 93.12,-164 93.12,-164 99.12,-164 105.12,-170 105.12,-176 105.12,-176 105.12,-188 105.12,-188 105.12,-194 99.12,-200 93.12,-200"/>
<text xml:space="preserve" text-anchor="middle" x="61.12" y="-178.32" font-family="Helvetica,sans-Serif" font-size="9.00" fill="#58a6ff">BalloonController</text>
</g>
<!-- Deflected -->
<g id="node16" class="node">
<title>Deflected</title>
<path fill="#3d2a1a" stroke="black" d="M273.38,-44.44C273.38,-44.44 258.32,-54.01 258.32,-54.01 253.25,-57.23 242.19,-60.45 236.19,-60.45 236.19,-60.45 189.56,-60.45 189.56,-60.45 183.56,-60.45 172.5,-57.23 167.44,-54.01 167.44,-54.01 152.38,-44.44 152.38,-44.44 147.31,-41.22 147.31,-34.78 152.38,-31.56 152.38,-31.56 167.44,-21.99 167.44,-21.99 172.5,-18.77 183.56,-15.55 189.56,-15.55 189.56,-15.55 236.19,-15.55 236.19,-15.55 242.19,-15.55 253.25,-18.77 258.32,-21.99 258.32,-21.99 273.38,-31.56 273.38,-31.56 278.44,-34.78 278.44,-41.22 273.38,-44.44"/>
<text xml:space="preserve" text-anchor="middle" x="212.88" y="-39.2" font-family="Helvetica,sans-Serif" font-size="9.00" fill="#f78166">BalloonDeflected</text>
<text xml:space="preserve" text-anchor="middle" x="212.88" y="-29.45" font-family="Helvetica,sans-Serif" font-size="9.00" fill="#f78166">Message</text>
</g>
<!-- BalloonController&#45;&gt;Deflected -->
<g id="edge4" class="edge">
<title>BalloonController&#45;&gt;Deflected</title>
<path fill="none" stroke="black" d="M69.69,-163.66C80.62,-139.23 102.98,-96.06 134.25,-70 140.12,-65.11 146.84,-60.88 153.81,-57.25"/>
<polygon fill="black" stroke="black" points="155.25,-60.44 162.78,-52.99 152.24,-54.12 155.25,-60.44"/>
</g>
<!-- BalloonSpawner -->
<g id="node3" class="node">
<title>BalloonSpawner</title>
<path fill="#1f3a5f" stroke="black" d="M91.25,-308C91.25,-308 31,-308 31,-308 25,-308 19,-302 19,-296 19,-296 19,-284 19,-284 19,-278 25,-272 31,-272 31,-272 91.25,-272 91.25,-272 97.25,-272 103.25,-278 103.25,-284 103.25,-284 103.25,-296 103.25,-296 103.25,-302 97.25,-308 91.25,-308"/>
<text xml:space="preserve" text-anchor="middle" x="61.12" y="-286.32" font-family="Helvetica,sans-Serif" font-size="9.00" fill="#58a6ff">BalloonSpawner</text>
</g>
<!-- BalloonSpawner&#45;&gt;BalanceBalloons -->
<g id="edge5" class="edge">
<title>BalloonSpawner&#45;&gt;BalanceBalloons</title>
<path fill="none" stroke="black" d="M103.52,-272.77C107.51,-269.93 111.2,-266.69 114.25,-263 134.07,-239.06 113.41,-219.05 134.25,-196 140.78,-188.77 149.2,-183.14 158.06,-178.75"/>
<polygon fill="black" stroke="black" points="159.44,-181.97 167.21,-174.77 156.64,-175.56 159.44,-181.97"/>
</g>
<!-- ItemCheck -->
<g id="node14" class="node">
<title>ItemCheck</title>
<path fill="#3d2a1a" stroke="black" d="M253.36,-234.48C253.36,-234.48 245.26,-241.97 245.26,-241.97 241.22,-245.71 231.65,-249.45 226.14,-249.45 226.14,-249.45 199.61,-249.45 199.61,-249.45 194.1,-249.45 184.54,-245.71 180.49,-241.97 180.49,-241.97 172.39,-234.48 172.39,-234.48 168.34,-230.74 168.34,-223.26 172.39,-219.52 172.39,-219.52 180.49,-212.03 180.49,-212.03 184.54,-208.29 194.1,-204.55 199.61,-204.55 199.61,-204.55 226.14,-204.55 226.14,-204.55 231.65,-204.55 241.22,-208.29 245.26,-212.03 245.26,-212.03 253.36,-219.52 253.36,-219.52 257.41,-223.26 257.41,-230.74 253.36,-234.48"/>
<text xml:space="preserve" text-anchor="middle" x="212.88" y="-228.2" font-family="Helvetica,sans-Serif" font-size="9.00" fill="#f78166">ItemCheck</text>
<text xml:space="preserve" text-anchor="middle" x="212.88" y="-218.45" font-family="Helvetica,sans-Serif" font-size="9.00" fill="#f78166">Message</text>
</g>
<!-- BalloonSpawner&#45;&gt;ItemCheck -->
<g id="edge6" class="edge">
<title>BalloonSpawner&#45;&gt;ItemCheck</title>
<path fill="none" stroke="black" d="M103.65,-272.03C113.66,-267.73 124.33,-263.18 134.25,-259 145.25,-254.37 157.14,-249.43 168.25,-244.85"/>
<polygon fill="black" stroke="black" points="169.27,-248.21 177.19,-241.17 166.61,-241.74 169.27,-248.21"/>
</g>
<!-- ScoreController -->
<g id="node4" class="node">
<title>ScoreController</title>
<path fill="#1f3a5f" stroke="black" d="M89.38,-416C89.38,-416 32.88,-416 32.88,-416 26.88,-416 20.88,-410 20.88,-404 20.88,-404 20.88,-392 20.88,-392 20.88,-386 26.88,-380 32.88,-380 32.88,-380 89.38,-380 89.38,-380 95.38,-380 101.38,-386 101.38,-392 101.38,-392 101.38,-404 101.38,-404 101.38,-410 95.38,-416 89.38,-416"/>
<text xml:space="preserve" text-anchor="middle" x="61.12" y="-394.32" font-family="Helvetica,sans-Serif" font-size="9.00" fill="#58a6ff">ScoreController</text>
</g>
<!-- ScorePoint -->
<g id="node11" class="node">
<title>ScorePoint</title>
<path fill="#3d2a1a" stroke="black" d="M254.38,-549.48C254.38,-549.48 246.08,-556.97 246.08,-556.97 241.93,-560.71 232.19,-564.45 226.6,-564.45 226.6,-564.45 199.15,-564.45 199.15,-564.45 193.56,-564.45 183.82,-560.71 179.67,-556.97 179.67,-556.97 171.37,-549.48 171.37,-549.48 167.22,-545.74 167.22,-538.26 171.37,-534.52 171.37,-534.52 179.67,-527.03 179.67,-527.03 183.82,-523.29 193.56,-519.55 199.15,-519.55 199.15,-519.55 226.6,-519.55 226.6,-519.55 232.19,-519.55 241.93,-523.29 246.08,-527.03 246.08,-527.03 254.38,-534.52 254.38,-534.52 258.53,-538.26 258.53,-545.74 254.38,-549.48"/>
<text xml:space="preserve" text-anchor="middle" x="212.88" y="-543.2" font-family="Helvetica,sans-Serif" font-size="9.00" fill="#f78166">ScorePoint</text>
<text xml:space="preserve" text-anchor="middle" x="212.88" y="-533.45" font-family="Helvetica,sans-Serif" font-size="9.00" fill="#f78166">Message</text>
</g>
<!-- ScoreController&#45;&gt;ScorePoint -->
<g id="edge7" class="edge">
<title>ScoreController&#45;&gt;ScorePoint</title>
<path fill="none" stroke="black" d="M101.69,-413.62C106.43,-416.81 110.8,-420.58 114.25,-425 138.11,-455.61 109.09,-480.45 134.25,-510 141.4,-518.4 151.12,-524.63 161.25,-529.24"/>
<polygon fill="black" stroke="black" points="159.88,-532.46 170.46,-532.92 162.47,-525.96 159.88,-532.46"/>
</g>
<!-- LevelUp -->
<g id="node12" class="node">
<title>LevelUp</title>
<path fill="#3d2a1a" stroke="black" d="M257.44,-486.48C257.44,-486.48 248.53,-493.97 248.53,-493.97 244.07,-497.71 233.8,-501.45 227.98,-501.45 227.98,-501.45 197.78,-501.45 197.78,-501.45 191.96,-501.45 181.68,-497.71 177.22,-493.97 177.22,-493.97 168.31,-486.48 168.31,-486.48 163.85,-482.74 163.85,-475.26 168.31,-471.52 168.31,-471.52 177.22,-464.03 177.22,-464.03 181.68,-460.29 191.96,-456.55 197.78,-456.55 197.78,-456.55 227.98,-456.55 227.98,-456.55 233.8,-456.55 244.07,-460.29 248.53,-464.03 248.53,-464.03 257.44,-471.52 257.44,-471.52 261.9,-475.26 261.9,-482.74 257.44,-486.48"/>
<text xml:space="preserve" text-anchor="middle" x="212.88" y="-480.2" font-family="Helvetica,sans-Serif" font-size="9.00" fill="#f78166">ScoreLevel</text>
<text xml:space="preserve" text-anchor="middle" x="212.88" y="-470.45" font-family="Helvetica,sans-Serif" font-size="9.00" fill="#f78166">UpMessage</text>
</g>
<!-- ScoreController&#45;&gt;LevelUp -->
<g id="edge8" class="edge">
<title>ScoreController&#45;&gt;LevelUp</title>
<path fill="none" stroke="black" d="M101.49,-416.44C105.94,-419.09 110.29,-421.96 114.25,-425 124.73,-433.05 123.43,-439.41 134.25,-447 142.92,-453.09 152.93,-458.3 162.82,-462.64"/>
<polygon fill="black" stroke="black" points="161.45,-465.86 172.03,-466.43 164.11,-459.39 161.45,-465.86"/>
</g>
<!-- ItemActivator -->
<g id="node5" class="node">
<title>ItemActivator</title>
<path fill="#1f3a5f" stroke="black" d="M83.38,-362C83.38,-362 38.88,-362 38.88,-362 32.88,-362 26.88,-356 26.88,-350 26.88,-350 26.88,-338 26.88,-338 26.88,-332 32.88,-326 38.88,-326 38.88,-326 83.38,-326 83.38,-326 89.38,-326 95.38,-332 95.38,-338 95.38,-338 95.38,-350 95.38,-350 95.38,-356 89.38,-362 83.38,-362"/>
<text xml:space="preserve" text-anchor="middle" x="61.12" y="-340.32" font-family="Helvetica,sans-Serif" font-size="9.00" fill="#58a6ff">ItemActivator</text>
</g>
<!-- ItemActivated -->
<g id="node15" class="node">
<title>ItemActivated</title>
<path fill="#3d2a1a" stroke="black" d="M261.17,-423.36C261.17,-423.36 251.23,-431.09 251.23,-431.09 246.5,-434.77 235.76,-438.45 229.76,-438.45 229.76,-438.45 195.99,-438.45 195.99,-438.45 189.99,-438.45 179.26,-434.77 174.52,-431.09 174.52,-431.09 164.58,-423.36 164.58,-423.36 159.85,-419.68 159.85,-412.32 164.58,-408.64 164.58,-408.64 174.52,-400.91 174.52,-400.91 179.26,-397.23 189.99,-393.55 195.99,-393.55 195.99,-393.55 229.76,-393.55 229.76,-393.55 235.76,-393.55 246.5,-397.23 251.23,-400.91 251.23,-400.91 261.17,-408.64 261.17,-408.64 265.91,-412.32 265.91,-419.68 261.17,-423.36"/>
<text xml:space="preserve" text-anchor="middle" x="212.88" y="-417.2" font-family="Helvetica,sans-Serif" font-size="9.00" fill="#f78166">ItemActivated</text>
<text xml:space="preserve" text-anchor="middle" x="212.88" y="-407.45" font-family="Helvetica,sans-Serif" font-size="9.00" fill="#f78166">Message</text>
</g>
<!-- ItemActivator&#45;&gt;ItemActivated -->
<g id="edge9" class="edge">
<title>ItemActivator&#45;&gt;ItemActivated</title>
<path fill="none" stroke="black" d="M95.76,-360.8C101.97,-364.08 108.35,-367.56 114.25,-371 123.41,-376.33 124.86,-379.07 134.25,-384 143.16,-388.68 152.9,-393.16 162.39,-397.21"/>
<polygon fill="black" stroke="black" points="160.96,-400.41 171.54,-401.01 163.64,-393.94 160.96,-400.41"/>
</g>
<!-- LevelUpPopUp -->
<g id="node6" class="node">
<title>LevelUpPopUp</title>
<path fill="#1f3a5f" stroke="black" d="M88.62,-470C88.62,-470 33.62,-470 33.62,-470 27.62,-470 21.62,-464 21.62,-458 21.62,-458 21.62,-446 21.62,-446 21.62,-440 27.62,-434 33.62,-434 33.62,-434 88.62,-434 88.62,-434 94.62,-434 100.62,-440 100.62,-446 100.62,-446 100.62,-458 100.62,-458 100.62,-464 94.62,-470 88.62,-470"/>
<text xml:space="preserve" text-anchor="middle" x="61.12" y="-448.32" font-family="Helvetica,sans-Serif" font-size="9.00" fill="#58a6ff">LevelUpPopUp</text>
</g>
<!-- Dismissed -->
<g id="node17" class="node">
<title>Dismissed</title>
<path fill="#3d2a1a" stroke="black" d="M265.21,-612.04C265.21,-612.04 253.63,-620.42 253.63,-620.42 248.76,-623.94 237.9,-627.45 231.9,-627.45 231.9,-627.45 193.85,-627.45 193.85,-627.45 187.85,-627.45 176.99,-623.94 172.13,-620.42 172.13,-620.42 160.54,-612.04 160.54,-612.04 155.68,-608.52 155.68,-601.48 160.54,-597.96 160.54,-597.96 172.13,-589.58 172.13,-589.58 176.99,-586.06 187.85,-582.55 193.85,-582.55 193.85,-582.55 231.9,-582.55 231.9,-582.55 237.9,-582.55 248.76,-586.06 253.63,-589.58 253.63,-589.58 265.21,-597.96 265.21,-597.96 270.07,-601.48 270.07,-608.52 265.21,-612.04"/>
<text xml:space="preserve" text-anchor="middle" x="212.88" y="-606.2" font-family="Helvetica,sans-Serif" font-size="9.00" fill="#f78166">LevelUp</text>
<text xml:space="preserve" text-anchor="middle" x="212.88" y="-596.45" font-family="Helvetica,sans-Serif" font-size="9.00" fill="#f78166">DismissedMsg</text>
</g>
<!-- LevelUpPopUp&#45;&gt;Dismissed -->
<g id="edge10" class="edge">
<title>LevelUpPopUp&#45;&gt;Dismissed</title>
<path fill="none" stroke="black" d="M101.01,-467.03C106.03,-470.34 110.67,-474.3 114.25,-479 140.14,-512.97 106.91,-540.19 134.25,-573 139.89,-579.77 147.2,-585.13 155.07,-589.36"/>
<polygon fill="black" stroke="black" points="153.35,-592.42 163.89,-593.51 156.33,-586.09 153.35,-592.42"/>
</g>
<!-- ThrowerCtrl -->
<g id="node7" class="node">
<title>ThrowerCtrl</title>
<path fill="#1f3a5f" stroke="black" d="M94.25,-524C94.25,-524 28,-524 28,-524 22,-524 16,-518 16,-512 16,-512 16,-500 16,-500 16,-494 22,-488 28,-488 28,-488 94.25,-488 94.25,-488 100.25,-488 106.25,-494 106.25,-500 106.25,-500 106.25,-512 106.25,-512 106.25,-518 100.25,-524 94.25,-524"/>
<text xml:space="preserve" text-anchor="middle" x="61.12" y="-502.32" font-family="Helvetica,sans-Serif" font-size="9.00" fill="#58a6ff">ThrowerController</text>
</g>
<!-- ProjLoaded -->
<g id="node18" class="node">
<title>ProjLoaded</title>
<path fill="#3d2a1a" stroke="black" d="M256.93,-675.48C256.93,-675.48 248.12,-682.97 248.12,-682.97 243.72,-686.71 233.53,-690.45 227.75,-690.45 227.75,-690.45 198,-690.45 198,-690.45 192.22,-690.45 182.04,-686.71 177.63,-682.97 177.63,-682.97 168.82,-675.48 168.82,-675.48 164.41,-671.74 164.41,-664.26 168.82,-660.52 168.82,-660.52 177.63,-653.03 177.63,-653.03 182.04,-649.29 192.22,-645.55 198,-645.55 198,-645.55 227.75,-645.55 227.75,-645.55 233.53,-645.55 243.72,-649.29 248.12,-653.03 248.12,-653.03 256.93,-660.52 256.93,-660.52 261.34,-664.26 261.34,-671.74 256.93,-675.48"/>
<text xml:space="preserve" text-anchor="middle" x="212.88" y="-669.2" font-family="Helvetica,sans-Serif" font-size="9.00" fill="#f78166">Projectile</text>
<text xml:space="preserve" text-anchor="middle" x="212.88" y="-659.45" font-family="Helvetica,sans-Serif" font-size="9.00" fill="#f78166">LoadedMsg</text>
</g>
<!-- ThrowerCtrl&#45;&gt;ProjLoaded -->
<g id="edge11" class="edge">
<title>ThrowerCtrl&#45;&gt;ProjLoaded</title>
<path fill="none" stroke="black" d="M67.93,-524.48C77.52,-552.23 99.17,-604.76 134.25,-636 142.08,-642.98 151.65,-648.56 161.35,-652.98"/>
<polygon fill="black" stroke="black" points="159.88,-656.16 170.46,-656.76 162.56,-649.7 159.88,-656.16"/>
</g>
<!-- ActorHit&#45;&gt;ItemActivator -->
<g id="edge15" class="edge">
<title>ActorHit&#45;&gt;ItemActivator</title>
<path fill="none" stroke="black" d="M179.92,-301.52C158.54,-309.23 130.1,-319.49 106.52,-327.99"/>
<polygon fill="black" stroke="black" points="105.38,-324.68 97.16,-331.37 107.75,-331.27 105.38,-324.68"/>
</g>
<!-- BalloonCtrl2 -->
<g id="node19" class="node">
<title>BalloonCtrl2</title>
<path fill="#1a3a1a" stroke="black" d="M397.38,-411C397.38,-411 333.38,-411 333.38,-411 327.38,-411 321.38,-405 321.38,-399 321.38,-399 321.38,-387 321.38,-387 321.38,-381 327.38,-375 333.38,-375 333.38,-375 397.38,-375 397.38,-375 403.38,-375 409.38,-381 409.38,-387 409.38,-387 409.38,-399 409.38,-399 409.38,-405 403.38,-411 397.38,-411"/>
<text xml:space="preserve" text-anchor="middle" x="365.38" y="-389.32" font-family="Helvetica,sans-Serif" font-size="9.00" fill="#3fb950">BalloonController</text>
</g>
<!-- ActorHit&#45;&gt;BalloonCtrl2 -->
<g id="edge12" class="edge">
<title>ActorHit&#45;&gt;BalloonCtrl2</title>
<path fill="none" stroke="black" d="M248.78,-298.22C263.43,-303.12 279.76,-310.66 291.5,-322 306.96,-336.92 296.66,-350.47 311.5,-366 311.97,-366.49 312.45,-366.97 312.94,-367.45"/>
<polygon fill="black" stroke="black" points="310.45,-369.93 320.4,-373.55 314.87,-364.51 310.45,-369.93"/>
</g>
<!-- ScoreCtrl2 -->
<g id="node20" class="node">
<title>ScoreCtrl2</title>
<path fill="#1a3a1a" stroke="black" d="M393.63,-303C393.63,-303 337.13,-303 337.13,-303 331.13,-303 325.13,-297 325.13,-291 325.13,-291 325.13,-279 325.13,-279 325.13,-273 331.13,-267 337.13,-267 337.13,-267 393.63,-267 393.63,-267 399.63,-267 405.63,-273 405.63,-279 405.63,-279 405.63,-291 405.63,-291 405.63,-297 399.63,-303 393.63,-303"/>
<text xml:space="preserve" text-anchor="middle" x="365.38" y="-281.32" font-family="Helvetica,sans-Serif" font-size="9.00" fill="#3fb950">ScoreController</text>
</g>
<!-- ActorHit&#45;&gt;ScoreCtrl2 -->
<g id="edge13" class="edge">
<title>ActorHit&#45;&gt;ScoreCtrl2</title>
<path fill="none" stroke="black" d="M255.8,-288.61C273.66,-288.01 294.67,-287.32 313.42,-286.69"/>
<polygon fill="black" stroke="black" points="313.36,-290.2 323.24,-286.37 313.13,-283.2 313.36,-290.2"/>
</g>
<!-- NudgeService -->
<g id="node21" class="node">
<title>NudgeService</title>
<path fill="#1a3a1a" stroke="black" d="M390.63,-357C390.63,-357 340.13,-357 340.13,-357 334.13,-357 328.13,-351 328.13,-345 328.13,-345 328.13,-333 328.13,-333 328.13,-327 334.13,-321 340.13,-321 340.13,-321 390.63,-321 390.63,-321 396.63,-321 402.63,-327 402.63,-333 402.63,-333 402.63,-345 402.63,-345 402.63,-351 396.63,-357 390.63,-357"/>
<text xml:space="preserve" text-anchor="middle" x="365.38" y="-335.32" font-family="Helvetica,sans-Serif" font-size="9.00" fill="#3fb950">NudgeService</text>
</g>
<!-- ActorHit&#45;&gt;NudgeService -->
<g id="edge14" class="edge">
<title>ActorHit&#45;&gt;NudgeService</title>
<path fill="none" stroke="black" d="M246.53,-300.63C267.11,-307.33 294.03,-316.1 316.94,-323.56"/>
<polygon fill="black" stroke="black" points="315.79,-326.86 326.39,-326.63 317.96,-320.21 315.79,-326.86"/>
</g>
<!-- BalloonBalancer -->
<g id="node22" class="node">
<title>BalloonBalancer</title>
<path fill="#1a3a1a" stroke="black" d="M395.5,-195C395.5,-195 335.25,-195 335.25,-195 329.25,-195 323.25,-189 323.25,-183 323.25,-183 323.25,-171 323.25,-171 323.25,-165 329.25,-159 335.25,-159 335.25,-159 395.5,-159 395.5,-159 401.5,-159 407.5,-165 407.5,-171 407.5,-171 407.5,-183 407.5,-183 407.5,-189 401.5,-195 395.5,-195"/>
<text xml:space="preserve" text-anchor="middle" x="365.38" y="-173.32" font-family="Helvetica,sans-Serif" font-size="9.00" fill="#3fb950">BalloonBalancer</text>
</g>
<!-- BalanceBalloons&#45;&gt;BalloonBalancer -->
<g id="edge16" class="edge">
<title>BalanceBalloons&#45;&gt;BalloonBalancer</title>
<path fill="none" stroke="black" d="M264.41,-168.36C279.65,-169.68 296.42,-171.13 311.79,-172.46"/>
<polygon fill="black" stroke="black" points="311.46,-175.94 321.72,-173.32 312.06,-168.97 311.46,-175.94"/>
</g>
<!-- BalloonSpawner2 -->
<g id="node23" class="node">
<title>BalloonSpawner2</title>
<path fill="#1a3a1a" stroke="black" d="M395.5,-141C395.5,-141 335.25,-141 335.25,-141 329.25,-141 323.25,-135 323.25,-129 323.25,-129 323.25,-117 323.25,-117 323.25,-111 329.25,-105 335.25,-105 335.25,-105 395.5,-105 395.5,-105 401.5,-105 407.5,-111 407.5,-117 407.5,-117 407.5,-129 407.5,-129 407.5,-135 401.5,-141 395.5,-141"/>
<text xml:space="preserve" text-anchor="middle" x="365.38" y="-119.33" font-family="Helvetica,sans-Serif" font-size="9.00" fill="#3fb950">BalloonSpawner</text>
</g>
<!-- ProjDestroyed&#45;&gt;BalloonSpawner2 -->
<g id="edge17" class="edge">
<title>ProjDestroyed&#45;&gt;BalloonSpawner2</title>
<path fill="none" stroke="black" d="M264.83,-108.45C279.92,-110.65 296.46,-113.07 311.66,-115.29"/>
<polygon fill="black" stroke="black" points="311.07,-118.74 321.47,-116.73 312.08,-111.82 311.07,-118.74"/>
</g>
<!-- TrailEffect -->
<g id="node25" class="node">
<title>TrailEffect</title>
<path fill="#1a3a1a" stroke="black" d="M399.25,-573C399.25,-573 331.5,-573 331.5,-573 325.5,-573 319.5,-567 319.5,-561 319.5,-561 319.5,-549 319.5,-549 319.5,-543 325.5,-537 331.5,-537 331.5,-537 399.25,-537 399.25,-537 405.25,-537 411.25,-543 411.25,-549 411.25,-549 411.25,-561 411.25,-561 411.25,-567 405.25,-573 399.25,-573"/>
<text xml:space="preserve" text-anchor="middle" x="365.38" y="-551.33" font-family="Helvetica,sans-Serif" font-size="9.00" fill="#3fb950">LevelUpCinematic</text>
</g>
<!-- ScorePoint&#45;&gt;TrailEffect -->
<g id="edge20" class="edge">
<title>ScorePoint&#45;&gt;TrailEffect</title>
<path fill="none" stroke="black" d="M259.03,-545.9C274.36,-547.22 291.68,-548.72 307.79,-550.11"/>
<polygon fill="black" stroke="black" points="307.48,-553.6 317.75,-550.97 308.09,-546.62 307.48,-553.6"/>
</g>
<!-- ColorBar -->
<g id="node26" class="node">
<title>ColorBar</title>
<path fill="#1a3a1a" stroke="black" d="M398.13,-465C398.13,-465 332.63,-465 332.63,-465 326.63,-465 320.63,-459 320.63,-453 320.63,-453 320.63,-441 320.63,-441 320.63,-435 326.63,-429 332.63,-429 332.63,-429 398.13,-429 398.13,-429 404.13,-429 410.13,-435 410.13,-441 410.13,-441 410.13,-453 410.13,-453 410.13,-459 404.13,-465 398.13,-465"/>
<text xml:space="preserve" text-anchor="middle" x="365.38" y="-443.32" font-family="Helvetica,sans-Serif" font-size="9.00" fill="#3fb950">ColorProgressBar</text>
</g>
<!-- ScorePoint&#45;&gt;ColorBar -->
<g id="edge19" class="edge">
<title>ScorePoint&#45;&gt;ColorBar</title>
<path fill="none" stroke="black" d="M251.9,-532.07C265.53,-527.11 280.29,-519.98 291.5,-510 305.18,-497.83 298.34,-486.71 311.5,-474 312.12,-473.41 312.74,-472.83 313.38,-472.26"/>
<polygon fill="black" stroke="black" points="315.34,-475.17 321.16,-466.32 311.09,-469.61 315.34,-475.17"/>
</g>
<!-- TrailService -->
<g id="node27" class="node">
<title>TrailService</title>
<path fill="#1a3a1a" stroke="black" d="M397.75,-519C397.75,-519 333,-519 333,-519 327,-519 321,-513 321,-507 321,-507 321,-495 321,-495 321,-489 327,-483 333,-483 333,-483 397.75,-483 397.75,-483 403.75,-483 409.75,-489 409.75,-495 409.75,-495 409.75,-507 409.75,-507 409.75,-513 403.75,-519 397.75,-519"/>
<text xml:space="preserve" text-anchor="middle" x="365.38" y="-497.32" font-family="Helvetica,sans-Serif" font-size="9.00" fill="#3fb950">ScoreTrailService</text>
</g>
<!-- ScorePoint&#45;&gt;TrailService -->
<g id="edge18" class="edge">
<title>ScorePoint&#45;&gt;TrailService</title>
<path fill="none" stroke="black" d="M251.85,-531.65C269.33,-526.89 290.38,-521.16 309.53,-515.94"/>
<polygon fill="black" stroke="black" points="310.36,-519.34 319.08,-513.34 308.52,-512.59 310.36,-519.34"/>
</g>
<!-- LevelUp&#45;&gt;ColorBar -->
<g id="edge21" class="edge">
<title>LevelUp&#45;&gt;ColorBar</title>
<path fill="none" stroke="black" d="M256.2,-470C272.6,-466.51 291.61,-462.47 309.07,-458.76"/>
<polygon fill="black" stroke="black" points="309.74,-462.2 318.8,-456.69 308.29,-455.35 309.74,-462.2"/>
</g>
<!-- TrailArrived -->
<g id="node13" class="node">
<title>TrailArrived</title>
<path fill="#3d2a1a" stroke="black" d="M255.4,-360.48C255.4,-360.48 246.9,-367.97 246.9,-367.97 242.65,-371.71 232.73,-375.45 227.06,-375.45 227.06,-375.45 198.69,-375.45 198.69,-375.45 193.03,-375.45 183.11,-371.71 178.86,-367.97 178.86,-367.97 170.35,-360.48 170.35,-360.48 166.1,-356.74 166.1,-349.26 170.35,-345.52 170.35,-345.52 178.86,-338.03 178.86,-338.03 183.11,-334.29 193.03,-330.55 198.69,-330.55 198.69,-330.55 227.06,-330.55 227.06,-330.55 232.73,-330.55 242.65,-334.29 246.9,-338.03 246.9,-338.03 255.4,-345.52 255.4,-345.52 259.66,-349.26 259.66,-356.74 255.4,-360.48"/>
<text xml:space="preserve" text-anchor="middle" x="212.88" y="-354.2" font-family="Helvetica,sans-Serif" font-size="9.00" fill="#f78166">ScoreTrail</text>
<text xml:space="preserve" text-anchor="middle" x="212.88" y="-344.45" font-family="Helvetica,sans-Serif" font-size="9.00" fill="#f78166">ArrivedMsg</text>
</g>
<!-- ItemAssigner -->
<g id="node24" class="node">
<title>ItemAssigner</title>
<path fill="#1a3a1a" stroke="black" d="M388,-249C388,-249 342.75,-249 342.75,-249 336.75,-249 330.75,-243 330.75,-237 330.75,-237 330.75,-225 330.75,-225 330.75,-219 336.75,-213 342.75,-213 342.75,-213 388,-213 388,-213 394,-213 400,-219 400,-225 400,-225 400,-237 400,-237 400,-243 394,-249 388,-249"/>
<text xml:space="preserve" text-anchor="middle" x="365.38" y="-227.32" font-family="Helvetica,sans-Serif" font-size="9.00" fill="#3fb950">ItemAssigner</text>
</g>
<!-- ItemCheck&#45;&gt;ItemAssigner -->
<g id="edge22" class="edge">
<title>ItemCheck&#45;&gt;ItemAssigner</title>
<path fill="none" stroke="black" d="M260.67,-228.24C279.31,-228.74 300.67,-229.31 319.15,-229.8"/>
<polygon fill="black" stroke="black" points="318.92,-233.29 329.01,-230.06 319.1,-226.3 318.92,-233.29"/>
</g>
<!-- ItemActivated&#45;&gt;BalloonCtrl2 -->
<g id="edge23" class="edge">
<title>ItemActivated&#45;&gt;BalloonCtrl2</title>
<path fill="none" stroke="black" d="M261.91,-408.66C277.21,-406.32 294.24,-403.72 309.96,-401.32"/>
<polygon fill="black" stroke="black" points="310.27,-404.81 319.63,-399.84 309.22,-397.89 310.27,-404.81"/>
</g>
<!-- Dismissed&#45;&gt;TrailEffect -->
<g id="edge24" class="edge">
<title>Dismissed&#45;&gt;TrailEffect</title>
<path fill="none" stroke="black" d="M256.2,-590.94C272.47,-585.53 291.3,-579.28 308.65,-573.52"/>
<polygon fill="black" stroke="black" points="309.4,-576.95 317.78,-570.48 307.19,-570.31 309.4,-576.95"/>
</g>
</g>
</svg>
