<?xml version="1.0" encoding="UTF-8" standalone="no"?>
<!DOCTYPE svg PUBLIC "-//W3C//DTD SVG 1.1//EN"
 "http://www.w3.org/Graphics/SVG/1.1/DTD/svg11.dtd">
<!-- Generated by graphviz version 15.0.0 (20260523.1842)
 -->
<!-- Title: MVC Pages: 1 -->
<svg width="521pt" height="362pt"
 viewBox="0.00 0.00 521.00 362.00" xmlns="http://www.w3.org/2000/svg" xmlns:xlink="http://www.w3.org/1999/xlink">
<g id="graph0" class="graph" transform="scale(1 1) rotate(0) translate(4 358)">
<title>MVC</title>
<g id="clust1" class="cluster">
<title>cluster_model</title>
<polygon fill="none" stroke="#30363d" stroke-dasharray="5,2" points="124.86,-217 124.86,-346 284.58,-346 284.58,-217 124.86,-217"/>
<text xml:space="preserve" text-anchor="middle" x="204.72" y="-328.7" font-family="Helvetica,sans-Serif" font-size="14.00" fill="#8b949e">Model Layer</text>
</g>
<g id="clust2" class="cluster">
<title>cluster_view</title>
<polygon fill="none" stroke="#30363d" stroke-dasharray="5,2" points="375.08,-143 375.08,-282 504.92,-282 504.92,-143 375.08,-143"/>
<text xml:space="preserve" text-anchor="middle" x="440" y="-264.7" font-family="Helvetica,sans-Serif" font-size="14.00" fill="#8b949e">View Layer</text>
</g>
<g id="clust3" class="cluster">
<title>cluster_controller</title>
<polygon fill="none" stroke="#30363d" stroke-dasharray="5,2" points="136.59,-8 136.59,-147 272.84,-147 272.84,-8 136.59,-8"/>
<text xml:space="preserve" text-anchor="middle" x="204.72" y="-129.7" font-family="Helvetica,sans-Serif" font-size="14.00" fill="#8b949e">Controller Layer</text>
</g>
<!-- Model -->
<g id="node1" class="node">
<title>Model</title>
<path fill="#1f3a5f" stroke="black" d="M225.09,-261C225.09,-261 184.34,-261 184.34,-261 178.34,-261 172.34,-255 172.34,-249 172.34,-249 172.34,-237 172.34,-237 172.34,-231 178.34,-225 184.34,-225 184.34,-225 225.09,-225 225.09,-225 231.09,-225 237.09,-231 237.09,-237 237.09,-237 237.09,-249 237.09,-249 237.09,-255 231.09,-261 225.09,-261"/>
<text xml:space="preserve" text-anchor="middle" x="204.72" y="-244.55" font-family="Helvetica,sans-Serif" font-size="11.00" fill="#58a6ff">Model</text>
<text xml:space="preserve" text-anchor="middle" x="204.72" y="-232.55" font-family="Helvetica,sans-Serif" font-size="11.00" fill="#58a6ff">(Plain C#)</text>
</g>
<!-- View -->
<g id="node3" class="node">
<title>View</title>
<path fill="#1a3a1a" stroke="black" d="M477.63,-187C477.63,-187 402.38,-187 402.38,-187 396.38,-187 390.38,-181 390.38,-175 390.38,-175 390.38,-163 390.38,-163 390.38,-157 396.38,-151 402.38,-151 402.38,-151 477.63,-151 477.63,-151 483.63,-151 489.63,-157 489.63,-163 489.63,-163 489.63,-175 489.63,-175 489.63,-181 483.63,-187 477.63,-187"/>
<text xml:space="preserve" text-anchor="middle" x="440" y="-170.55" font-family="Helvetica,sans-Serif" font-size="11.00" fill="#3fb950">View</text>
<text xml:space="preserve" text-anchor="middle" x="440" y="-158.55" font-family="Helvetica,sans-Serif" font-size="11.00" fill="#3fb950">(MonoBehaviour)</text>
</g>
<!-- Model&#45;&gt;View -->
<g id="edge1" class="edge">
<title>Model&#45;&gt;View</title>
<path fill="none" stroke="#58a6ff" d="M237.54,-235.74C269.98,-228.03 321.57,-214.92 365.08,-200 366.43,-199.54 374.47,-196.2 384.79,-191.88"/>
<polygon fill="#58a6ff" stroke="#58a6ff" points="385.97,-195.18 393.83,-188.08 383.26,-188.72 385.97,-195.18"/>
<text xml:space="preserve" text-anchor="middle" x="329.83" y="-231.9" font-family="Helvetica,sans-Serif" font-size="9.00" fill="#8b949e">ReactiveProperty</text>
<text xml:space="preserve" text-anchor="middle" x="329.83" y="-222.15" font-family="Helvetica,sans-Serif" font-size="9.00" fill="#8b949e">subscription</text>
</g>
<!-- ReactiveP -->
<g id="node2" class="node">
<title>ReactiveP</title>
<ellipse fill="#1f3a5f" stroke="black" cx="204.72" cy="-297" rx="71.86" ry="18"/>
<text xml:space="preserve" text-anchor="middle" x="204.72" y="-292.55" font-family="Helvetica,sans-Serif" font-size="11.00" fill="#58a6ff">ReactiveProperty&lt;T&gt;</text>
</g>
<!-- MessagePipe -->
<g id="node7" class="node">
<title>MessagePipe</title>
<path fill="#3d2a1a" stroke="black" d="M261.63,-188.43C261.63,-188.43 247.32,-199.7 247.32,-199.7 242.6,-203.42 231.89,-207.13 225.89,-207.13 225.89,-207.13 183.55,-207.13 183.55,-207.13 177.55,-207.13 166.84,-203.42 162.12,-199.7 162.12,-199.7 147.81,-188.43 147.81,-188.43 143.09,-184.71 143.09,-177.29 147.81,-173.57 147.81,-173.57 162.12,-162.3 162.12,-162.3 166.84,-158.58 177.55,-154.87 183.55,-154.87 183.55,-154.87 225.89,-154.87 225.89,-154.87 231.89,-154.87 242.6,-158.58 247.32,-162.3 247.32,-162.3 261.63,-173.57 261.63,-173.57 266.35,-177.29 266.35,-184.71 261.63,-188.43"/>
<text xml:space="preserve" text-anchor="middle" x="204.72" y="-182.55" font-family="Helvetica,sans-Serif" font-size="11.00" fill="#f78166">MessagePipe</text>
<text xml:space="preserve" text-anchor="middle" x="204.72" y="-170.55" font-family="Helvetica,sans-Serif" font-size="11.00" fill="#f78166">(Pub/Sub)</text>
</g>
<!-- View&#45;&gt;MessagePipe -->
<g id="edge4" class="edge">
<title>View&#45;&gt;MessagePipe</title>
<path fill="none" stroke="#3fb950" d="M390.12,-171.51C357.83,-173.18 314.94,-175.38 278.65,-177.25"/>
<polygon fill="#3fb950" stroke="#3fb950" points="278.94,-173.73 269.13,-177.74 279.3,-180.72 278.94,-173.73"/>
<text xml:space="preserve" text-anchor="middle" x="329.83" y="-187.38" font-family="Helvetica,sans-Serif" font-size="9.00" fill="#8b949e">publishes</text>
<text xml:space="preserve" text-anchor="middle" x="329.83" y="-177.63" font-family="Helvetica,sans-Serif" font-size="9.00" fill="#8b949e">events</text>
</g>
<!-- UniRx -->
<g id="node4" class="node">
<title>UniRx</title>
<ellipse fill="#1a3a1a" stroke="black" cx="440" cy="-228" rx="56.92" ry="22.63"/>
<text xml:space="preserve" text-anchor="middle" x="440" y="-229.55" font-family="Helvetica,sans-Serif" font-size="11.00" fill="#3fb950">UniRx</text>
<text xml:space="preserve" text-anchor="middle" x="440" y="-217.55" font-family="Helvetica,sans-Serif" font-size="11.00" fill="#3fb950">Subscriptions</text>
</g>
<!-- Controller -->
<g id="node5" class="node">
<title>Controller</title>
<path fill="#2d1f3d" stroke="black" d="M252.84,-52C252.84,-52 156.59,-52 156.59,-52 150.59,-52 144.59,-46 144.59,-40 144.59,-40 144.59,-28 144.59,-28 144.59,-22 150.59,-16 156.59,-16 156.59,-16 252.84,-16 252.84,-16 258.84,-16 264.84,-22 264.84,-28 264.84,-28 264.84,-40 264.84,-40 264.84,-46 258.84,-52 252.84,-52"/>
<text xml:space="preserve" text-anchor="middle" x="204.72" y="-35.55" font-family="Helvetica,sans-Serif" font-size="11.00" fill="#d2a8ff">Controller</text>
<text xml:space="preserve" text-anchor="middle" x="204.72" y="-23.55" font-family="Helvetica,sans-Serif" font-size="11.00" fill="#d2a8ff">(Plain C# / IStartable)</text>
</g>
<!-- Controller&#45;&gt;Model -->
<g id="edge2" class="edge">
<title>Controller&#45;&gt;Model</title>
<path fill="none" stroke="#d2a8ff" d="M144.23,-48.47C137.21,-51.82 130.54,-55.94 124.86,-61 87.35,-94.4 62.72,-117.84 80.34,-164.88 90.9,-193.09 99.83,-199.23 124.86,-216 135.66,-223.23 148.58,-228.7 160.84,-232.75"/>
<polygon fill="#d2a8ff" stroke="#d2a8ff" points="159.81,-236.09 170.4,-235.64 161.84,-229.4 159.81,-236.09"/>
<text xml:space="preserve" text-anchor="middle" x="87.86" y="-156.32" font-family="Helvetica,sans-Serif" font-size="9.00" fill="#8b949e">mutates state</text>
</g>
<!-- Controller&#45;&gt;View -->
<g id="edge3" class="edge">
<title>Controller&#45;&gt;View</title>
<path fill="none" stroke="#d2a8ff" stroke-dasharray="5,2" d="M265.04,-52.28C271.74,-54.94 278.39,-57.85 284.58,-61 330.57,-84.37 378.49,-119.92 408.52,-143.79"/>
<polygon fill="#d2a8ff" stroke="#d2a8ff" points="406.07,-146.31 416.06,-149.85 410.46,-140.85 406.07,-146.31"/>
<text xml:space="preserve" text-anchor="middle" x="329.83" y="-120.64" font-family="Helvetica,sans-Serif" font-size="9.00" fill="#8b949e">via grid</text>
<text xml:space="preserve" text-anchor="middle" x="329.83" y="-110.89" font-family="Helvetica,sans-Serif" font-size="9.00" fill="#8b949e">lookup</text>
</g>
<!-- VContainer -->
<g id="node6" class="node">
<title>VContainer</title>
<ellipse fill="#2d1f3d" stroke="black" cx="204.72" cy="-93" rx="50.03" ry="22.63"/>
<text xml:space="preserve" text-anchor="middle" x="204.72" y="-94.55" font-family="Helvetica,sans-Serif" font-size="11.00" fill="#d2a8ff">VContainer</text>
<text xml:space="preserve" text-anchor="middle" x="204.72" y="-82.55" font-family="Helvetica,sans-Serif" font-size="11.00" fill="#d2a8ff">DI</text>
</g>
<!-- MessagePipe&#45;&gt;View -->
<g id="edge6" class="edge">
<title>MessagePipe&#45;&gt;View</title>
<path fill="none" stroke="#f78166" stroke-dasharray="5,2" d="M253.76,-167.01C266.88,-163.81 281.18,-160.87 294.58,-159.25 325.69,-155.5 333.81,-157.2 365.08,-159.25 369.66,-159.55 374.38,-159.95 379.13,-160.43"/>
<polygon fill="#f78166" stroke="#f78166" points="378.36,-163.86 388.68,-161.48 379.12,-156.91 378.36,-163.86"/>
<text xml:space="preserve" text-anchor="middle" x="329.83" y="-160.45" font-family="Helvetica,sans-Serif" font-size="9.00" fill="#8b949e">subscribes</text>
</g>
<!-- MessagePipe&#45;&gt;Controller -->
<g id="edge5" class="edge">
<title>MessagePipe&#45;&gt;Controller</title>
<path fill="none" stroke="#f78166" d="M153.63,-168.39C114.64,-155.8 69.99,-133.22 85.21,-98.12 94.23,-77.33 113.35,-63.11 133.71,-53.46"/>
<polygon fill="#f78166" stroke="#f78166" points="134.93,-56.75 142.71,-49.55 132.14,-50.33 134.93,-56.75"/>
<text xml:space="preserve" text-anchor="middle" x="87.86" y="-99.33" font-family="Helvetica,sans-Serif" font-size="9.00" fill="#8b949e">subscribes</text>
</g>
</g>
</svg>
