<?xml version="1.0" encoding="UTF-8" standalone="no"?>
<!DOCTYPE svg PUBLIC "-//W3C//DTD SVG 1.1//EN"
 "http://www.w3.org/Graphics/SVG/1.1/DTD/svg11.dtd">
<!-- Generated by graphviz version 15.0.0 (20260523.1842)
 -->
<!-- Title: StaticState Pages: 1 -->
<svg width="619pt" height="751pt"
 viewBox="0.00 0.00 619.00 751.00" xmlns="http://www.w3.org/2000/svg" xmlns:xlink="http://www.w3.org/1999/xlink">
<g id="graph0" class="graph" transform="scale(1 1) rotate(0) translate(4 747)">
<title>StaticState</title>
<g id="clust1" class="cluster">
<title>cluster_navigation</title>
<polygon fill="none" stroke="#30363d" stroke-dasharray="5,2" points="21.14,-528 21.14,-735 602.77,-735 602.77,-528 21.14,-528"/>
<text xml:space="preserve" text-anchor="middle" x="311.96" y="-717.7" font-family="Helvetica,sans-Serif" font-size="14.00" fill="#8b949e">Navigation (Shared/GameState/)</text>
</g>
<g id="clust2" class="cluster">
<title>cluster_cinematic</title>
<polygon fill="none" stroke="#30363d" stroke-dasharray="5,2" points="8,-8 8,-414 408.15,-414 408.15,-8 8,-8"/>
<text xml:space="preserve" text-anchor="middle" x="208.07" y="-396.7" font-family="Helvetica,sans-Serif" font-size="14.00" fill="#8b949e">Cinematic (Shared/GameState/)</text>
</g>
<!-- NavCurrent -->
<g id="node1" class="node">
<title>NavCurrent</title>
<ellipse fill="#1f3a5f" stroke="black" cx="98.26" cy="-566" rx="69.12" ry="29.52"/>
<text xml:space="preserve" text-anchor="middle" x="98.26" y="-573.38" font-family="Helvetica,sans-Serif" font-size="10.00" fill="#58a6ff">Current</text>
<text xml:space="preserve" text-anchor="middle" x="98.26" y="-562.12" font-family="Helvetica,sans-Serif" font-size="10.00" fill="#58a6ff">ReactiveProperty</text>
<text xml:space="preserve" text-anchor="middle" x="98.26" y="-550.88" font-family="Helvetica,sans-Serif" font-size="10.00" fill="#58a6ff">&lt;NavigationState&gt;</text>
</g>
<!-- Consumers -->
<g id="node14" class="node">
<title>Consumers</title>
<path fill="#2a2a2a" stroke="black" d="M443.27,-520C443.27,-520 270.52,-520 270.52,-520 264.52,-520 258.52,-514 258.52,-508 258.52,-508 258.52,-434 258.52,-434 258.52,-428 264.52,-422 270.52,-422 270.52,-422 443.27,-422 443.27,-422 449.27,-422 455.27,-428 455.27,-434 455.27,-434 455.27,-508 455.27,-508 455.27,-514 449.27,-520 443.27,-520"/>
<text xml:space="preserve" text-anchor="middle" x="356.9" y="-506.5" font-family="Helvetica,sans-Serif" font-size="10.00" fill="#8b949e">Subscribers</text>
<text xml:space="preserve" text-anchor="middle" x="356.9" y="-495.25" font-family="Helvetica,sans-Serif" font-size="10.00" fill="#8b949e">─────────</text>
<text xml:space="preserve" text-anchor="middle" x="356.9" y="-484" font-family="Helvetica,sans-Serif" font-size="10.00" fill="#8b949e">ScoreTrailService</text>
<text xml:space="preserve" text-anchor="middle" x="356.9" y="-472.75" font-family="Helvetica,sans-Serif" font-size="10.00" fill="#8b949e">LevelUpCinematic / HeartDrainCinematic</text>
<text xml:space="preserve" text-anchor="middle" x="356.9" y="-461.5" font-family="Helvetica,sans-Serif" font-size="10.00" fill="#8b949e">RunController / CameraShakeService</text>
<text xml:space="preserve" text-anchor="middle" x="356.9" y="-450.25" font-family="Helvetica,sans-Serif" font-size="10.00" fill="#8b949e">(traits via ICinematicState.Has)</text>
<text xml:space="preserve" text-anchor="middle" x="356.9" y="-439" font-family="Helvetica,sans-Serif" font-size="10.00" fill="#8b949e">BalloonSpawner</text>
<text xml:space="preserve" text-anchor="middle" x="356.9" y="-427.75" font-family="Helvetica,sans-Serif" font-size="10.00" fill="#8b949e">ThrowerController</text>
</g>
<!-- NavCurrent&#45;&gt;Consumers -->
<g id="edge8" class="edge">
<title>NavCurrent&#45;&gt;Consumers</title>
<path fill="none" stroke="#58a6ff" stroke-dasharray="5,2" d="M151.51,-546.66C179.14,-536.43 214.15,-523.47 247.35,-511.18"/>
<polygon fill="#58a6ff" stroke="#58a6ff" points="248.47,-514.5 256.64,-507.74 246.04,-507.93 248.47,-514.5"/>
<text xml:space="preserve" text-anchor="middle" x="219.52" y="-528.41" font-family="Helvetica,sans-Serif" font-size="8.00" fill="#8b949e">subscribe</text>
</g>
<!-- NavLaunch -->
<g id="node2" class="node">
<title>NavLaunch</title>
<path fill="#2a2a2a" stroke="black" d="M113.26,-650C113.26,-650 83.26,-650 83.26,-650 77.26,-650 71.26,-644 71.26,-638 71.26,-638 71.26,-626 71.26,-626 71.26,-620 77.26,-614 83.26,-614 83.26,-614 113.26,-614 113.26,-614 119.26,-614 125.26,-620 125.26,-626 125.26,-626 125.26,-638 125.26,-638 125.26,-644 119.26,-650 113.26,-650"/>
<text xml:space="preserve" text-anchor="middle" x="98.26" y="-628.12" font-family="Helvetica,sans-Serif" font-size="10.00" fill="#c9d1d9">Launch</text>
</g>
<!-- NavGame -->
<g id="node3" class="node">
<title>NavGame</title>
<path fill="#1a3a1a" stroke="black" d="M371.9,-650C371.9,-650 341.9,-650 341.9,-650 335.9,-650 329.9,-644 329.9,-638 329.9,-638 329.9,-626 329.9,-626 329.9,-620 335.9,-614 341.9,-614 341.9,-614 371.9,-614 371.9,-614 377.9,-614 383.9,-620 383.9,-626 383.9,-626 383.9,-638 383.9,-638 383.9,-644 377.9,-650 371.9,-650"/>
<text xml:space="preserve" text-anchor="middle" x="356.9" y="-628.12" font-family="Helvetica,sans-Serif" font-size="10.00" fill="#3fb950">Game</text>
</g>
<!-- NavLaunch&#45;&gt;NavGame -->
<g id="edge1" class="edge">
<title>NavLaunch&#45;&gt;NavGame</title>
<path fill="none" stroke="#3fb950" d="M125.76,-632C171.5,-632 265.42,-632 318.04,-632"/>
<polygon fill="#3fb950" stroke="#3fb950" points="318.03,-635.5 328.03,-632 318.03,-628.5 318.03,-635.5"/>
<text xml:space="preserve" text-anchor="middle" x="219.52" y="-633.4" font-family="Helvetica,sans-Serif" font-size="8.00" fill="#8b949e">game starts</text>
</g>
<!-- NavLevelUp -->
<g id="node4" class="node">
<title>NavLevelUp</title>
<path fill="#2d1f3d" stroke="black" d="M582.77,-650C582.77,-650 552.77,-650 552.77,-650 546.77,-650 540.77,-644 540.77,-638 540.77,-638 540.77,-626 540.77,-626 540.77,-620 546.77,-614 552.77,-614 552.77,-614 582.77,-614 582.77,-614 588.77,-614 594.77,-620 594.77,-626 594.77,-626 594.77,-638 594.77,-638 594.77,-644 588.77,-650 582.77,-650"/>
<text xml:space="preserve" text-anchor="middle" x="567.77" y="-628.12" font-family="Helvetica,sans-Serif" font-size="10.00" fill="#d2a8ff">LevelUp</text>
</g>
<!-- NavGame&#45;&gt;NavLevelUp -->
<g id="edge2" class="edge">
<title>NavGame&#45;&gt;NavLevelUp</title>
<path fill="none" stroke="#d2a8ff" d="M384.32,-625.48C417.01,-618.36 474.29,-608.96 522.77,-617 525.08,-617.38 527.42,-617.87 529.76,-618.43"/>
<polygon fill="#d2a8ff" stroke="#d2a8ff" points="528.58,-621.73 539.16,-621.1 530.49,-615 528.58,-621.73"/>
<text xml:space="preserve" text-anchor="middle" x="498.02" y="-618.4" font-family="Helvetica,sans-Serif" font-size="8.00" fill="#8b949e">score level&#45;up</text>
</g>
<!-- NavLevelUp&#45;&gt;NavGame -->
<g id="edge3" class="edge">
<title>NavLevelUp&#45;&gt;NavGame</title>
<path fill="none" stroke="#3fb950" d="M540.53,-632C504,-632 437.61,-632 395.73,-632"/>
<polygon fill="#3fb950" stroke="#3fb950" points="395.87,-628.5 385.87,-632 395.87,-635.5 395.87,-628.5"/>
<text xml:space="preserve" text-anchor="middle" x="498.02" y="-633.4" font-family="Helvetica,sans-Serif" font-size="8.00" fill="#8b949e">dismissed</text>
</g>
<!-- TransitionTo -->
<g id="node5" class="node">
<title>TransitionTo</title>
<path fill="#2a2a2a" stroke="black" d="M153.99,-691.73C153.99,-691.73 141.94,-698.27 141.94,-698.27 136.67,-701.14 125.4,-704 119.4,-704 119.4,-704 77.13,-704 77.13,-704 71.13,-704 59.85,-701.14 54.58,-698.27 54.58,-698.27 42.53,-691.73 42.53,-691.73 37.26,-688.86 37.26,-683.14 42.53,-680.27 42.53,-680.27 54.58,-673.73 54.58,-673.73 59.85,-670.86 71.13,-668 77.13,-668 77.13,-668 119.4,-668 119.4,-668 125.4,-668 136.67,-670.86 141.94,-673.73 141.94,-673.73 153.99,-680.27 153.99,-680.27 159.26,-683.14 159.26,-688.86 153.99,-691.73"/>
<text xml:space="preserve" text-anchor="middle" x="98.26" y="-682.12" font-family="Helvetica,sans-Serif" font-size="10.00" fill="#c9d1d9">TransitionTo(state)</text>
</g>
<!-- CinCurrent -->
<g id="node6" class="node">
<title>CinCurrent</title>
<ellipse fill="#1f3a5f" stroke="black" cx="98.26" cy="-100" rx="67.53" ry="29.52"/>
<text xml:space="preserve" text-anchor="middle" x="98.26" y="-107.38" font-family="Helvetica,sans-Serif" font-size="10.00" fill="#58a6ff">Current</text>
<text xml:space="preserve" text-anchor="middle" x="98.26" y="-96.12" font-family="Helvetica,sans-Serif" font-size="10.00" fill="#58a6ff">ReactiveProperty</text>
<text xml:space="preserve" text-anchor="middle" x="98.26" y="-84.88" font-family="Helvetica,sans-Serif" font-size="10.00" fill="#58a6ff">&lt;CinematicState&gt;</text>
</g>
<!-- CinCurrent&#45;&gt;Consumers -->
<g id="edge9" class="edge">
<title>CinCurrent&#45;&gt;Consumers</title>
<path fill="none" stroke="#58a6ff" stroke-dasharray="5,2" d="M152.8,-117.66C163.15,-123.13 173.08,-130.13 180.52,-139 260.85,-234.76 183.15,-312.6 254.62,-412.44"/>
<polygon fill="#58a6ff" stroke="#58a6ff" points="251.77,-414.47 260.59,-420.34 257.35,-410.25 251.77,-414.47"/>
<text xml:space="preserve" text-anchor="middle" x="219.52" y="-389.78" font-family="Helvetica,sans-Serif" font-size="8.00" fill="#8b949e">subscribe</text>
</g>
<!-- CinNone -->
<g id="node7" class="node">
<title>CinNone</title>
<path fill="#2a2a2a" stroke="black" d="M113.26,-52C113.26,-52 83.26,-52 83.26,-52 77.26,-52 71.26,-46 71.26,-40 71.26,-40 71.26,-28 71.26,-28 71.26,-22 77.26,-16 83.26,-16 83.26,-16 113.26,-16 113.26,-16 119.26,-16 125.26,-22 125.26,-28 125.26,-28 125.26,-40 125.26,-40 125.26,-46 119.26,-52 113.26,-52"/>
<text xml:space="preserve" text-anchor="middle" x="98.26" y="-30.12" font-family="Helvetica,sans-Serif" font-size="10.00" fill="#c9d1d9">None</text>
</g>
<!-- CinPanIn -->
<g id="node8" class="node">
<title>CinPanIn</title>
<path fill="#3d2a1a" stroke="black" d="M383.65,-70C383.65,-70 330.15,-70 330.15,-70 324.15,-70 318.15,-64 318.15,-58 318.15,-58 318.15,-46 318.15,-46 318.15,-40 324.15,-34 330.15,-34 330.15,-34 383.65,-34 383.65,-34 389.65,-34 395.65,-40 395.65,-46 395.65,-46 395.65,-58 395.65,-58 395.65,-64 389.65,-70 383.65,-70"/>
<text xml:space="preserve" text-anchor="middle" x="356.9" y="-48.12" font-family="Helvetica,sans-Serif" font-size="10.00" fill="#f78166">LevelUpPanIn</text>
</g>
<!-- CinNone&#45;&gt;CinPanIn -->
<g id="edge4" class="edge">
<title>CinNone&#45;&gt;CinPanIn</title>
<path fill="none" stroke="#f78166" d="M125.6,-33.09C154.01,-32.37 200.54,-31.93 240.52,-35 262.31,-36.67 286.23,-39.96 306.62,-43.2"/>
<polygon fill="#f78166" stroke="#f78166" points="305.93,-46.63 316.36,-44.79 307.06,-39.72 305.93,-46.63"/>
<text xml:space="preserve" text-anchor="middle" x="219.52" y="-36.4" font-family="Helvetica,sans-Serif" font-size="8.00" fill="#8b949e">Begin</text>
</g>
<!-- CinRestore -->
<g id="node9" class="node">
<title>CinRestore</title>
<path fill="#2d1f3d" stroke="black" d="M388.15,-129C388.15,-129 325.65,-129 325.65,-129 319.65,-129 313.65,-123 313.65,-117 313.65,-117 313.65,-105 313.65,-105 313.65,-99 319.65,-93 325.65,-93 325.65,-93 388.15,-93 388.15,-93 394.15,-93 400.15,-99 400.15,-105 400.15,-105 400.15,-117 400.15,-117 400.15,-123 394.15,-129 388.15,-129"/>
<text xml:space="preserve" text-anchor="middle" x="356.9" y="-107.12" font-family="Helvetica,sans-Serif" font-size="10.00" fill="#d2a8ff">LevelUpRestore</text>
</g>
<!-- CinNone&#45;&gt;CinRestore -->
<g id="edge6" class="edge">
<title>CinNone&#45;&gt;CinRestore</title>
<path fill="none" stroke="#d2a8ff" d="M125.76,-41.95C167.34,-54.42 248.71,-78.84 302.7,-95.04"/>
<polygon fill="#d2a8ff" stroke="#d2a8ff" points="301.41,-98.31 312,-97.83 303.42,-91.6 301.41,-98.31"/>
<text xml:space="preserve" text-anchor="middle" x="219.52" y="-76.21" font-family="Helvetica,sans-Serif" font-size="8.00" fill="#8b949e">Begin</text>
</g>
<!-- CinPanIn&#45;&gt;CinNone -->
<g id="edge5" class="edge">
<title>CinPanIn&#45;&gt;CinNone</title>
<path fill="none" stroke="#30363d" d="M317.7,-50.59C285.81,-49.28 239.17,-47.08 198.52,-44 178.03,-42.45 155.2,-40.19 136.61,-38.2"/>
<polygon fill="#30363d" stroke="#30363d" points="137.18,-34.75 126.86,-37.15 136.42,-41.71 137.18,-34.75"/>
<text xml:space="preserve" text-anchor="middle" x="219.52" y="-48" font-family="Helvetica,sans-Serif" font-size="8.00" fill="#8b949e">End</text>
</g>
<!-- CinRestore&#45;&gt;CinNone -->
<g id="edge7" class="edge">
<title>CinRestore&#45;&gt;CinNone</title>
<path fill="none" stroke="#30363d" d="M313.26,-113.84C279.63,-114.06 232.83,-109.7 198.52,-88 186.34,-80.29 191.99,-69.75 180.52,-61 167.72,-51.23 151.19,-44.89 136.39,-40.83"/>
<polygon fill="#30363d" stroke="#30363d" points="137.51,-37.5 126.96,-38.51 135.84,-44.3 137.51,-37.5"/>
<text xml:space="preserve" text-anchor="middle" x="219.52" y="-106.3" font-family="Helvetica,sans-Serif" font-size="8.00" fill="#8b949e">End</text>
</g>
<!-- CinDrain -->
<g id="node10" class="node">
<title>CinDrain</title>
<path fill="#3d2a1a" stroke="black" d="M117.89,-184C117.89,-184 78.64,-184 78.64,-184 72.64,-184 66.64,-178 66.64,-172 66.64,-172 66.64,-160 66.64,-160 66.64,-154 72.64,-148 78.64,-148 78.64,-148 117.89,-148 117.89,-148 123.89,-148 129.89,-154 129.89,-160 129.89,-160 129.89,-172 129.89,-172 129.89,-178 123.89,-184 117.89,-184"/>
<text xml:space="preserve" text-anchor="middle" x="98.26" y="-162.12" font-family="Helvetica,sans-Serif" font-size="10.00" fill="#f78166">HeartDrain</text>
</g>
<!-- CinDrainRestore -->
<g id="node11" class="node">
<title>CinDrainRestore</title>
<path fill="#2d1f3d" stroke="black" d="M135.14,-238C135.14,-238 61.39,-238 61.39,-238 55.39,-238 49.39,-232 49.39,-226 49.39,-226 49.39,-214 49.39,-214 49.39,-208 55.39,-202 61.39,-202 61.39,-202 135.14,-202 135.14,-202 141.14,-202 147.14,-208 147.14,-214 147.14,-214 147.14,-226 147.14,-226 147.14,-232 141.14,-238 135.14,-238"/>
<text xml:space="preserve" text-anchor="middle" x="98.26" y="-216.12" font-family="Helvetica,sans-Serif" font-size="10.00" fill="#d2a8ff">HeartDrainRestore</text>
</g>
<!-- CinAPI -->
<g id="node12" class="node">
<title>CinAPI</title>
<path fill="#2a2a2a" stroke="black" d="M170.26,-287.22C170.26,-287.22 149.66,-299.69 149.66,-299.69 144.53,-302.8 133.39,-305.9 127.39,-305.9 127.39,-305.9 69.13,-305.9 69.13,-305.9 63.13,-305.9 52,-302.8 46.87,-299.69 46.87,-299.69 26.27,-287.22 26.27,-287.22 21.13,-284.11 21.13,-277.89 26.27,-274.78 26.27,-274.78 46.87,-262.31 46.87,-262.31 52,-259.2 63.13,-256.1 69.13,-256.1 69.13,-256.1 127.39,-256.1 127.39,-256.1 133.39,-256.1 144.53,-259.2 149.66,-262.31 149.66,-262.31 170.26,-274.78 170.26,-274.78 175.39,-277.89 175.39,-284.11 170.26,-287.22"/>
<text xml:space="preserve" text-anchor="middle" x="98.26" y="-282.75" font-family="Helvetica,sans-Serif" font-size="10.00" fill="#c9d1d9">Begin(state) / End()</text>
<text xml:space="preserve" text-anchor="middle" x="98.26" y="-271.5" font-family="Helvetica,sans-Serif" font-size="10.00" fill="#c9d1d9">IsPlaying: bool</text>
</g>
<!-- CinAware -->
<g id="node13" class="node">
<title>CinAware</title>
<ellipse fill="#1a3a1a" stroke="black" cx="98.26" cy="-353" rx="75.48" ry="29.52"/>
<text xml:space="preserve" text-anchor="middle" x="98.26" y="-360.38" font-family="Helvetica,sans-Serif" font-size="10.00" fill="#3fb950">ICinematicAware</text>
<text xml:space="preserve" text-anchor="middle" x="98.26" y="-349.12" font-family="Helvetica,sans-Serif" font-size="10.00" fill="#3fb950">Register / Unregister</text>
<text xml:space="preserve" text-anchor="middle" x="98.26" y="-337.88" font-family="Helvetica,sans-Serif" font-size="10.00" fill="#3fb950">OnCinematicEnd()</text>
</g>
</g>
</svg>
