<?xml version="1.0" encoding="UTF-8" standalone="no"?>
<!DOCTYPE svg PUBLIC "-//W3C//DTD SVG 1.1//EN"
 "http://www.w3.org/Graphics/SVG/1.1/DTD/svg11.dtd">
<!-- Generated by graphviz version 15.0.0 (20260523.1842)
 -->
<!-- Title: BalloonParty.Shared.Messages.ItemActivatedMessage Pages: 1 -->
<svg width="725pt" height="137pt"
 viewBox="0.00 0.00 725.00 137.00" xmlns="http://www.w3.org/2000/svg" xmlns:xlink="http://www.w3.org/1999/xlink">
<g id="graph0" class="graph" transform="scale(1 1) rotate(0) translate(4 132.5)">
<title>BalloonParty.Shared.Messages.ItemActivatedMessage</title>
<!-- Node1 -->
<g id="Node000001" class="node">
<title>Node1</title>
<g id="a_Node000001"><a xlink:title=" ">
<polygon fill="#999999" stroke="#666666" points="717,-79.5 562.25,-79.5 562.25,-49 717,-49 717,-79.5"/>
<text xml:space="preserve" text-anchor="start" x="570.25" y="-66" font-family="Helvetica,sans-Serif" font-size="10.00">BalloonParty.Shared.Messages.</text>
<text xml:space="preserve" text-anchor="middle" x="639.62" y="-54.75" font-family="Helvetica,sans-Serif" font-size="10.00">ItemActivatedMessage</text>
</a>
</g>
</g>
<!-- Node2 -->
<g id="Node000002" class="node">
<title>Node2</title>
<g id="a_Node000002"><a xlink:href="interface_balloon_party_1_1_balloon_1_1_model_1_1_i_balloon_model.html" target="_top" xlink:title=" ">
<polygon fill="white" stroke="#666666" points="488,-79.5 350.5,-79.5 350.5,-49 488,-49 488,-79.5"/>
<text xml:space="preserve" text-anchor="start" x="358.5" y="-66" font-family="Helvetica,sans-Serif" font-size="10.00">BalloonParty.Balloon.Model.</text>
<text xml:space="preserve" text-anchor="middle" x="419.25" y="-54.75" font-family="Helvetica,sans-Serif" font-size="10.00">IBalloonModel</text>
</a>
</g>
</g>
<!-- Node2&#45;&gt;Node1 -->
<g id="edge1_Node000001_Node000002" class="edge">
<title>Node2&#45;&gt;Node1</title>
<g id="a_edge1_Node000001_Node000002"><a xlink:title=" ">
<path fill="none" stroke="#9a32cd" stroke-dasharray="5,2" d="M499.83,-64.25C520.05,-64.25 541.74,-64.25 561.82,-64.25"/>
<polygon fill="#9a32cd" stroke="#9a32cd" points="499.96,-60.75 489.96,-64.25 499.96,-67.75 499.96,-60.75"/>
</a>
</g>
<text xml:space="preserve" text-anchor="start" x="509" y="-70.25" font-family="Helvetica,sans-Serif" font-size="10.00" fill="grey">Balloon</text>
</g>
<!-- Node3 -->
<g id="Node000003" class="node">
<title>Node3</title>
<g id="a_Node000003"><a xlink:href="interface_balloon_party_1_1_slots_1_1_actor_1_1_i_dynamic_slot_actor.html" target="_top" xlink:title=" ">
<polygon fill="white" stroke="#666666" points="299.25,-128.5 175.25,-128.5 175.25,-98 299.25,-98 299.25,-128.5"/>
<text xml:space="preserve" text-anchor="start" x="183.25" y="-115" font-family="Helvetica,sans-Serif" font-size="10.00">BalloonParty.Slots.Actor.</text>
<text xml:space="preserve" text-anchor="middle" x="237.25" y="-103.75" font-family="Helvetica,sans-Serif" font-size="10.00">IDynamicSlotActor</text>
</a>
</g>
</g>
<!-- Node3&#45;&gt;Node2 -->
<g id="edge2_Node000002_Node000003" class="edge">
<title>Node3&#45;&gt;Node2</title>
<g id="a_edge2_Node000002_Node000003"><a xlink:title=" ">
<path fill="none" stroke="#63b8ff" d="M306.57,-94.65C324.32,-89.82 343.27,-84.66 360.42,-79.99"/>
<polygon fill="#63b8ff" stroke="#63b8ff" points="305.89,-91.21 297.16,-97.21 307.73,-97.96 305.89,-91.21"/>
</a>
</g>
</g>
<!-- Node4 -->
<g id="Node000004" class="node">
<title>Node4</title>
<g id="a_Node000004"><a xlink:href="interface_balloon_party_1_1_slots_1_1_actor_1_1_i_slot_actor.html" target="_top" xlink:title=" ">
<polygon fill="white" stroke="#666666" points="124,-128.5 0,-128.5 0,-98 124,-98 124,-128.5"/>
<text xml:space="preserve" text-anchor="start" x="8" y="-115" font-family="Helvetica,sans-Serif" font-size="10.00">BalloonParty.Slots.Actor.</text>
<text xml:space="preserve" text-anchor="middle" x="62" y="-103.75" font-family="Helvetica,sans-Serif" font-size="10.00">ISlotActor</text>
</a>
</g>
</g>
<!-- Node4&#45;&gt;Node3 -->
<g id="edge3_Node000003_Node000004" class="edge">
<title>Node4&#45;&gt;Node3</title>
<g id="a_edge3_Node000003_Node000004"><a xlink:title=" ">
<path fill="none" stroke="#63b8ff" d="M135.45,-113.25C148.55,-113.25 162.1,-113.25 174.84,-113.25"/>
<polygon fill="#63b8ff" stroke="#63b8ff" points="135.6,-109.75 125.6,-113.25 135.59,-116.75 135.6,-109.75"/>
</a>
</g>
</g>
<!-- Node5 -->
<g id="Node000005" class="node">
<title>Node5</title>
<g id="a_Node000005"><a xlink:href="interface_balloon_party_1_1_slots_1_1_capabilities_1_1_i_hitable.html" target="_top" xlink:title=" ">
<polygon fill="white" stroke="#666666" points="313.5,-79.5 161,-79.5 161,-49 313.5,-49 313.5,-79.5"/>
<text xml:space="preserve" text-anchor="start" x="169" y="-66" font-family="Helvetica,sans-Serif" font-size="10.00">BalloonParty.Slots.Capabilities.</text>
<text xml:space="preserve" text-anchor="middle" x="237.25" y="-54.75" font-family="Helvetica,sans-Serif" font-size="10.00">IHitable</text>
</a>
</g>
</g>
<!-- Node5&#45;&gt;Node2 -->
<g id="edge4_Node000002_Node000005" class="edge">
<title>Node5&#45;&gt;Node2</title>
<g id="a_edge4_Node000002_Node000005"><a xlink:title=" ">
<path fill="none" stroke="#63b8ff" d="M325.15,-64.25C333.51,-64.25 341.91,-64.25 350.05,-64.25"/>
<polygon fill="#63b8ff" stroke="#63b8ff" points="325.32,-60.75 315.32,-64.25 325.32,-67.75 325.32,-60.75"/>
</a>
</g>
</g>
<!-- Node6 -->
<g id="Node000006" class="node">
<title>Node6</title>
<g id="a_Node000006"><a xlink:href="interface_balloon_party_1_1_slots_1_1_capabilities_1_1_i_has_nudge.html" target="_top" xlink:title=" ">
<polygon fill="white" stroke="#666666" points="313.5,-30.5 161,-30.5 161,0 313.5,0 313.5,-30.5"/>
<text xml:space="preserve" text-anchor="start" x="169" y="-17" font-family="Helvetica,sans-Serif" font-size="10.00">BalloonParty.Slots.Capabilities.</text>
<text xml:space="preserve" text-anchor="middle" x="237.25" y="-5.75" font-family="Helvetica,sans-Serif" font-size="10.00">IHasNudge</text>
</a>
</g>
</g>
<!-- Node6&#45;&gt;Node2 -->
<g id="edge5_Node000002_Node000006" class="edge">
<title>Node6&#45;&gt;Node2</title>
<g id="a_edge5_Node000002_Node000006"><a xlink:title=" ">
<path fill="none" stroke="#63b8ff" d="M306.57,-33.85C324.32,-38.68 343.27,-43.84 360.42,-48.51"/>
<polygon fill="#63b8ff" stroke="#63b8ff" points="307.73,-30.54 297.16,-31.29 305.89,-37.29 307.73,-30.54"/>
</a>
</g>
</g>
</g>
</svg>
