<?xml version="1.0" encoding="UTF-8" standalone="no"?>
<!DOCTYPE svg PUBLIC "-//W3C//DTD SVG 1.1//EN"
 "http://www.w3.org/Graphics/SVG/1.1/DTD/svg11.dtd">
<!-- Generated by graphviz version 15.0.0 (20260523.1842)
 -->
<!-- Title: TrailComposition Pages: 1 -->
<svg width="363pt" height="372pt"
 viewBox="0.00 0.00 363.00 372.00" xmlns="http://www.w3.org/2000/svg" xmlns:xlink="http://www.w3.org/1999/xlink">
<g id="graph0" class="graph" transform="scale(1 1) rotate(0) translate(4 368.07)">
<title>TrailComposition</title>
<g id="clust1" class="cluster">
<title>cluster_shared</title>
<polygon fill="none" stroke="#30363d" stroke-dasharray="5,2" points="37.38,-8 37.38,-133.75 347.38,-133.75 347.38,-8 37.38,-8"/>
<text xml:space="preserve" text-anchor="middle" x="192.38" y="-116.45" font-family="Helvetica,sans-Serif" font-size="14.00" fill="#8b949e">Shared/Pool/</text>
</g>
<!-- TrailSpawner -->
<g id="node1" class="node">
<title>TrailSpawner</title>
<path fill="#1f3a5f" stroke="black" d="M327.75,-97.12C327.75,-97.12 215,-97.12 215,-97.12 209,-97.12 203,-91.12 203,-85.12 203,-85.12 203,-33.62 203,-33.62 203,-27.62 209,-21.62 215,-21.62 215,-21.62 327.75,-21.62 327.75,-21.62 333.75,-21.62 339.75,-27.62 339.75,-33.62 339.75,-33.62 339.75,-85.12 339.75,-85.12 339.75,-91.12 333.75,-97.12 327.75,-97.12"/>
<text xml:space="preserve" text-anchor="middle" x="271.38" y="-83.62" font-family="Helvetica,sans-Serif" font-size="10.00" fill="#58a6ff">TrailSpawner</text>
<text xml:space="preserve" text-anchor="middle" x="271.38" y="-72.38" font-family="Helvetica,sans-Serif" font-size="10.00" fill="#58a6ff">─────────</text>
<text xml:space="preserve" text-anchor="middle" x="271.38" y="-61.12" font-family="Helvetica,sans-Serif" font-size="10.00" fill="#58a6ff">PoolManager ref</text>
<text xml:space="preserve" text-anchor="middle" x="271.38" y="-49.88" font-family="Helvetica,sans-Serif" font-size="10.00" fill="#58a6ff">pool key + channel factory</text>
<text xml:space="preserve" text-anchor="middle" x="271.38" y="-38.62" font-family="Helvetica,sans-Serif" font-size="10.00" fill="#58a6ff">Spawn(from, to, dur, color?)</text>
<text xml:space="preserve" text-anchor="middle" x="271.38" y="-27.38" font-family="Helvetica,sans-Serif" font-size="10.00" fill="#58a6ff">SpawnUnscaled(...)</text>
</g>
<!-- TrailTracker -->
<g id="node2" class="node">
<title>TrailTracker</title>
<path fill="#1f3a5f" stroke="black" d="M173.25,-102.75C173.25,-102.75 57.5,-102.75 57.5,-102.75 51.5,-102.75 45.5,-96.75 45.5,-90.75 45.5,-90.75 45.5,-28 45.5,-28 45.5,-22 51.5,-16 57.5,-16 57.5,-16 173.25,-16 173.25,-16 179.25,-16 185.25,-22 185.25,-28 185.25,-28 185.25,-90.75 185.25,-90.75 185.25,-96.75 179.25,-102.75 173.25,-102.75"/>
<text xml:space="preserve" text-anchor="middle" x="115.38" y="-89.25" font-family="Helvetica,sans-Serif" font-size="10.00" fill="#58a6ff">TrailFlightRegistry&lt;TId&gt;</text>
<text xml:space="preserve" text-anchor="middle" x="115.38" y="-78" font-family="Helvetica,sans-Serif" font-size="10.00" fill="#58a6ff">─────────</text>
<text xml:space="preserve" text-anchor="middle" x="115.38" y="-66.75" font-family="Helvetica,sans-Serif" font-size="10.00" fill="#58a6ff">Register / Unregister</text>
<text xml:space="preserve" text-anchor="middle" x="115.38" y="-55.5" font-family="Helvetica,sans-Serif" font-size="10.00" fill="#58a6ff">Contains / Get</text>
<text xml:space="preserve" text-anchor="middle" x="115.38" y="-44.25" font-family="Helvetica,sans-Serif" font-size="10.00" fill="#58a6ff">CompleteAll (snapshot&#45;safe)</text>
<text xml:space="preserve" text-anchor="middle" x="115.38" y="-33" font-family="Helvetica,sans-Serif" font-size="10.00" fill="#58a6ff">per&#45;flight: Pause / Resume /</text>
<text xml:space="preserve" text-anchor="middle" x="115.38" y="-21.75" font-family="Helvetica,sans-Serif" font-size="10.00" fill="#58a6ff">Complete / Speed</text>
</g>
<!-- ScoreTrailService -->
<g id="node3" class="node">
<title>ScoreTrailService</title>
<path fill="#1a3a1a" stroke="black" d="M175.63,-242C175.63,-242 59.13,-242 59.13,-242 53.13,-242 47.13,-236 47.13,-230 47.13,-230 47.13,-189.75 47.13,-189.75 47.13,-183.75 53.13,-177.75 59.13,-177.75 59.13,-177.75 175.63,-177.75 175.63,-177.75 181.63,-177.75 187.63,-183.75 187.63,-189.75 187.63,-189.75 187.63,-230 187.63,-230 187.63,-236 181.63,-242 175.63,-242"/>
<text xml:space="preserve" text-anchor="middle" x="117.38" y="-228.5" font-family="Helvetica,sans-Serif" font-size="10.00" fill="#3fb950">ScoreTrailService</text>
<text xml:space="preserve" text-anchor="middle" x="117.38" y="-217.25" font-family="Helvetica,sans-Serif" font-size="10.00" fill="#3fb950">─────────</text>
<text xml:space="preserve" text-anchor="middle" x="117.38" y="-206" font-family="Helvetica,sans-Serif" font-size="10.00" fill="#3fb950">per&#45;color TrailSpawner</text>
<text xml:space="preserve" text-anchor="middle" x="117.38" y="-194.75" font-family="Helvetica,sans-Serif" font-size="10.00" fill="#3fb950">exposes Flights</text>
<text xml:space="preserve" text-anchor="middle" x="117.38" y="-183.5" font-family="Helvetica,sans-Serif" font-size="10.00" fill="#3fb950">(TrailFlightRegistry&lt;TrailId&gt;)</text>
</g>
<!-- ScoreTrailService&#45;&gt;TrailSpawner -->
<g id="edge1" class="edge">
<title>ScoreTrailService&#45;&gt;TrailSpawner</title>
<path fill="none" stroke="#3fb950" d="M150.04,-177.38C171.77,-156.42 200.66,-128.57 224.79,-105.3"/>
<polygon fill="#3fb950" stroke="#3fb950" points="226.92,-108.11 231.69,-98.65 222.06,-103.07 226.92,-108.11"/>
<text xml:space="preserve" text-anchor="middle" x="209.53" y="-152.15" font-family="Helvetica,sans-Serif" font-size="8.00" fill="#8b949e">composes ×N</text>
<text xml:space="preserve" text-anchor="middle" x="209.53" y="-143.15" font-family="Helvetica,sans-Serif" font-size="8.00" fill="#8b949e">(per color)</text>
</g>
<!-- ScoreTrailService&#45;&gt;TrailTracker -->
<g id="edge2" class="edge">
<title>ScoreTrailService&#45;&gt;TrailTracker</title>
<path fill="none" stroke="#3fb950" d="M116.96,-177.38C116.71,-159.14 116.39,-135.66 116.11,-114.54"/>
<polygon fill="#3fb950" stroke="#3fb950" points="119.61,-114.56 115.98,-104.6 112.61,-114.65 119.61,-114.56"/>
<text xml:space="preserve" text-anchor="middle" x="134.68" y="-147.65" font-family="Helvetica,sans-Serif" font-size="8.00" fill="#8b949e">composes</text>
</g>
<!-- ShieldTrailController -->
<g id="node4" class="node">
<title>ShieldTrailController</title>
<path fill="#2d1f3d" stroke="black" d="M325.13,-242C325.13,-242 217.63,-242 217.63,-242 211.63,-242 205.63,-236 205.63,-230 205.63,-230 205.63,-189.75 205.63,-189.75 205.63,-183.75 211.63,-177.75 217.63,-177.75 217.63,-177.75 325.13,-177.75 325.13,-177.75 331.13,-177.75 337.13,-183.75 337.13,-189.75 337.13,-189.75 337.13,-230 337.13,-230 337.13,-236 331.13,-242 325.13,-242"/>
<text xml:space="preserve" text-anchor="middle" x="271.38" y="-228.5" font-family="Helvetica,sans-Serif" font-size="10.00" fill="#d2a8ff">ShieldTrailController</text>
<text xml:space="preserve" text-anchor="middle" x="271.38" y="-217.25" font-family="Helvetica,sans-Serif" font-size="10.00" fill="#d2a8ff">─────────</text>
<text xml:space="preserve" text-anchor="middle" x="271.38" y="-206" font-family="Helvetica,sans-Serif" font-size="10.00" fill="#d2a8ff">single TrailSpawner</text>
<text xml:space="preserve" text-anchor="middle" x="271.38" y="-194.75" font-family="Helvetica,sans-Serif" font-size="10.00" fill="#d2a8ff">fire&#45;and&#45;forget</text>
<text xml:space="preserve" text-anchor="middle" x="271.38" y="-183.5" font-family="Helvetica,sans-Serif" font-size="10.00" fill="#d2a8ff">(no tracking, no cinematic)</text>
</g>
<!-- ShieldTrailController&#45;&gt;TrailSpawner -->
<g id="edge3" class="edge">
<title>ShieldTrailController&#45;&gt;TrailSpawner</title>
<path fill="none" stroke="#d2a8ff" d="M271.38,-177.38C271.38,-157.52 271.38,-131.46 271.38,-108.98"/>
<polygon fill="#d2a8ff" stroke="#d2a8ff" points="274.88,-109.11 271.38,-99.11 267.88,-109.11 274.88,-109.11"/>
<text xml:space="preserve" text-anchor="middle" x="295" y="-147.65" font-family="Helvetica,sans-Serif" font-size="8.00" fill="#8b949e">composes ×1</text>
</g>
<!-- LevelUpCinematic -->
<g id="node5" class="node">
<title>LevelUpCinematic</title>
<ellipse fill="#3d2a1a" stroke="black" cx="117.38" cy="-325.54" rx="117.38" ry="38.54"/>
<text xml:space="preserve" text-anchor="middle" x="117.38" y="-339.29" font-family="Helvetica,sans-Serif" font-size="10.00" fill="#f78166">LevelUpCinematic</text>
<text xml:space="preserve" text-anchor="middle" x="117.38" y="-328.04" font-family="Helvetica,sans-Serif" font-size="10.00" fill="#f78166">─────────</text>
<text xml:space="preserve" text-anchor="middle" x="117.38" y="-316.79" font-family="Helvetica,sans-Serif" font-size="10.00" fill="#f78166">pauses the tipping trail</text>
<text xml:space="preserve" text-anchor="middle" x="117.38" y="-305.54" font-family="Helvetica,sans-Serif" font-size="10.00" fill="#f78166">EndPanIn → Flights.CompleteAll()</text>
</g>
<!-- LevelUpCinematic&#45;&gt;ScoreTrailService -->
<g id="edge4" class="edge">
<title>LevelUpCinematic&#45;&gt;ScoreTrailService</title>
<path fill="none" stroke="#f78166" stroke-dasharray="5,2" d="M117.38,-286.69C117.38,-276.16 117.38,-264.65 117.38,-253.85"/>
<polygon fill="#f78166" stroke="#f78166" points="120.88,-254 117.38,-244.01 113.88,-254.01 120.88,-254"/>
<text xml:space="preserve" text-anchor="middle" x="140.63" y="-261.4" font-family="Helvetica,sans-Serif" font-size="8.00" fill="#8b949e">drives Flights</text>
</g>
</g>
</svg>
