<?xml version="1.0" encoding="UTF-8" standalone="no"?>
<!DOCTYPE svg PUBLIC "-//W3C//DTD SVG 1.1//EN"
 "http://www.w3.org/Graphics/SVG/1.1/DTD/svg11.dtd">
<!-- Generated by graphviz version 15.0.0 (20260523.1842)
 -->
<!-- Title: TrailComposition Pages: 1 -->
<svg width="567pt" height="261pt"
 viewBox="0.00 0.00 567.00 261.00" xmlns="http://www.w3.org/2000/svg" xmlns:xlink="http://www.w3.org/1999/xlink">
<g id="graph0" class="graph" transform="scale(1 1) rotate(0) translate(4 257.25)">
<title>TrailComposition</title>
<g id="clust1" class="cluster">
<title>cluster_shared</title>
<polygon fill="none" stroke="#30363d" stroke-dasharray="5,2" points="227.89,-8 227.89,-133.75 550.89,-133.75 550.89,-8 227.89,-8"/>
<text xml:space="preserve" text-anchor="middle" x="389.39" y="-116.45" font-family="Helvetica,sans-Serif" font-size="14.00" fill="#8b949e">Shared/Pool/</text>
</g>
<!-- TrailSpawner -->
<g id="node1" class="node">
<title>TrailSpawner</title>
<path fill="#1f3a5f" stroke="black" d="M531.27,-97.12C531.27,-97.12 418.52,-97.12 418.52,-97.12 412.52,-97.12 406.52,-91.12 406.52,-85.12 406.52,-85.12 406.52,-33.62 406.52,-33.62 406.52,-27.62 412.52,-21.62 418.52,-21.62 418.52,-21.62 531.27,-21.62 531.27,-21.62 537.27,-21.62 543.27,-27.62 543.27,-33.62 543.27,-33.62 543.27,-85.12 543.27,-85.12 543.27,-91.12 537.27,-97.12 531.27,-97.12"/>
<text xml:space="preserve" text-anchor="middle" x="474.89" y="-83.62" font-family="Helvetica,sans-Serif" font-size="10.00" fill="#58a6ff">TrailSpawner</text>
<text xml:space="preserve" text-anchor="middle" x="474.89" y="-72.38" font-family="Helvetica,sans-Serif" font-size="10.00" fill="#58a6ff">─────────</text>
<text xml:space="preserve" text-anchor="middle" x="474.89" y="-61.12" font-family="Helvetica,sans-Serif" font-size="10.00" fill="#58a6ff">PoolManager ref</text>
<text xml:space="preserve" text-anchor="middle" x="474.89" y="-49.88" font-family="Helvetica,sans-Serif" font-size="10.00" fill="#58a6ff">pool key + channel factory</text>
<text xml:space="preserve" text-anchor="middle" x="474.89" y="-38.62" font-family="Helvetica,sans-Serif" font-size="10.00" fill="#58a6ff">Spawn(from, to, dur, color?)</text>
<text xml:space="preserve" text-anchor="middle" x="474.89" y="-27.38" font-family="Helvetica,sans-Serif" font-size="10.00" fill="#58a6ff">SpawnUnscaled(...)</text>
</g>
<!-- TrailTracker -->
<g id="node2" class="node">
<title>TrailTracker</title>
<path fill="#1f3a5f" stroke="black" d="M376.14,-102.75C376.14,-102.75 247.64,-102.75 247.64,-102.75 241.64,-102.75 235.64,-96.75 235.64,-90.75 235.64,-90.75 235.64,-28 235.64,-28 235.64,-22 241.64,-16 247.64,-16 247.64,-16 376.14,-16 376.14,-16 382.14,-16 388.14,-22 388.14,-28 388.14,-28 388.14,-90.75 388.14,-90.75 388.14,-96.75 382.14,-102.75 376.14,-102.75"/>
<text xml:space="preserve" text-anchor="middle" x="311.89" y="-89.25" font-family="Helvetica,sans-Serif" font-size="10.00" fill="#58a6ff">TrailTracker&lt;TId&gt;</text>
<text xml:space="preserve" text-anchor="middle" x="311.89" y="-78" font-family="Helvetica,sans-Serif" font-size="10.00" fill="#58a6ff">─────────</text>
<text xml:space="preserve" text-anchor="middle" x="311.89" y="-66.75" font-family="Helvetica,sans-Serif" font-size="10.00" fill="#58a6ff">Register / Unregister</text>
<text xml:space="preserve" text-anchor="middle" x="311.89" y="-55.5" font-family="Helvetica,sans-Serif" font-size="10.00" fill="#58a6ff">TrackTrail (forward+retroactive)</text>
<text xml:space="preserve" text-anchor="middle" x="311.89" y="-44.25" font-family="Helvetica,sans-Serif" font-size="10.00" fill="#58a6ff">PauseWhere / ResumeTrail</text>
<text xml:space="preserve" text-anchor="middle" x="311.89" y="-33" font-family="Helvetica,sans-Serif" font-size="10.00" fill="#58a6ff">ResumeAll</text>
<text xml:space="preserve" text-anchor="middle" x="311.89" y="-21.75" font-family="Helvetica,sans-Serif" font-size="10.00" fill="#58a6ff">IsTracked / GetTransform</text>
</g>
<!-- ScoreTrailService -->
<g id="node3" class="node">
<title>ScoreTrailService</title>
<path fill="#1a3a1a" stroke="black" d="M370.52,-253.25C370.52,-253.25 253.27,-253.25 253.27,-253.25 247.27,-253.25 241.27,-247.25 241.27,-241.25 241.27,-241.25 241.27,-189.75 241.27,-189.75 241.27,-183.75 247.27,-177.75 253.27,-177.75 253.27,-177.75 370.52,-177.75 370.52,-177.75 376.52,-177.75 382.52,-183.75 382.52,-189.75 382.52,-189.75 382.52,-241.25 382.52,-241.25 382.52,-247.25 376.52,-253.25 370.52,-253.25"/>
<text xml:space="preserve" text-anchor="middle" x="311.89" y="-239.75" font-family="Helvetica,sans-Serif" font-size="10.00" fill="#3fb950">ScoreTrailService</text>
<text xml:space="preserve" text-anchor="middle" x="311.89" y="-228.5" font-family="Helvetica,sans-Serif" font-size="10.00" fill="#3fb950">─────────</text>
<text xml:space="preserve" text-anchor="middle" x="311.89" y="-217.25" font-family="Helvetica,sans-Serif" font-size="10.00" fill="#3fb950">per&#45;color TrailSpawner</text>
<text xml:space="preserve" text-anchor="middle" x="311.89" y="-206" font-family="Helvetica,sans-Serif" font-size="10.00" fill="#3fb950">TrailTracker&lt;TrailId&gt;</text>
<text xml:space="preserve" text-anchor="middle" x="311.89" y="-194.75" font-family="Helvetica,sans-Serif" font-size="10.00" fill="#3fb950">ICinematicAware</text>
<text xml:space="preserve" text-anchor="middle" x="311.89" y="-183.5" font-family="Helvetica,sans-Serif" font-size="10.00" fill="#3fb950">PauseTrailsAbove(threshold)</text>
</g>
<!-- ScoreTrailService&#45;&gt;TrailSpawner -->
<g id="edge1" class="edge">
<title>ScoreTrailService&#45;&gt;TrailSpawner</title>
<path fill="none" stroke="#3fb950" d="M350.94,-177.58C373.85,-155.91 402.98,-128.37 427.24,-105.43"/>
<polygon fill="#3fb950" stroke="#3fb950" points="429.64,-107.98 434.51,-98.56 424.83,-102.89 429.64,-107.98"/>
<text xml:space="preserve" text-anchor="middle" x="412.88" y="-152.15" font-family="Helvetica,sans-Serif" font-size="8.00" fill="#8b949e">composes ×N</text>
<text xml:space="preserve" text-anchor="middle" x="412.88" y="-143.15" font-family="Helvetica,sans-Serif" font-size="8.00" fill="#8b949e">(per color)</text>
</g>
<!-- ScoreTrailService&#45;&gt;TrailTracker -->
<g id="edge2" class="edge">
<title>ScoreTrailService&#45;&gt;TrailTracker</title>
<path fill="none" stroke="#3fb950" d="M311.89,-177.58C311.89,-158.65 311.89,-135.23 311.89,-114.31"/>
<polygon fill="#3fb950" stroke="#3fb950" points="315.39,-114.5 311.89,-104.5 308.39,-114.5 315.39,-114.5"/>
<text xml:space="preserve" text-anchor="middle" x="329.89" y="-147.65" font-family="Helvetica,sans-Serif" font-size="8.00" fill="#8b949e">composes</text>
</g>
<!-- CinematicAware -->
<g id="node5" class="node">
<title>CinematicAware</title>
<ellipse fill="#3d2a1a" stroke="black" cx="108.89" cy="-59.38" rx="108.89" ry="30.58"/>
<text xml:space="preserve" text-anchor="middle" x="108.89" y="-67.5" font-family="Helvetica,sans-Serif" font-size="10.00" fill="#f78166">ICinematicAware</text>
<text xml:space="preserve" text-anchor="middle" x="108.89" y="-56.25" font-family="Helvetica,sans-Serif" font-size="10.00" fill="#f78166">─────────</text>
<text xml:space="preserve" text-anchor="middle" x="108.89" y="-45" font-family="Helvetica,sans-Serif" font-size="10.00" fill="#f78166">OnCinematicEnd → ResumeAll</text>
</g>
<!-- ScoreTrailService&#45;&gt;CinematicAware -->
<g id="edge4" class="edge">
<title>ScoreTrailService&#45;&gt;CinematicAware</title>
<path fill="none" stroke="#f78166" stroke-dasharray="5,2" d="M263.01,-177.39C230.09,-152.39 186.96,-119.65 154.7,-95.15"/>
<polygon fill="#f78166" stroke="#f78166" points="157.2,-92.65 147.11,-89.39 152.96,-98.23 157.2,-92.65"/>
<text xml:space="preserve" text-anchor="middle" x="254.8" y="-147.65" font-family="Helvetica,sans-Serif" font-size="8.00" fill="#8b949e">implements</text>
</g>
<!-- ShieldTrailController -->
<g id="node4" class="node">
<title>ShieldTrailController</title>
<path fill="#2d1f3d" stroke="black" d="M528.64,-247.62C528.64,-247.62 421.14,-247.62 421.14,-247.62 415.14,-247.62 409.14,-241.62 409.14,-235.62 409.14,-235.62 409.14,-195.38 409.14,-195.38 409.14,-189.38 415.14,-183.38 421.14,-183.38 421.14,-183.38 528.64,-183.38 528.64,-183.38 534.64,-183.38 540.64,-189.38 540.64,-195.38 540.64,-195.38 540.64,-235.62 540.64,-235.62 540.64,-241.62 534.64,-247.62 528.64,-247.62"/>
<text xml:space="preserve" text-anchor="middle" x="474.89" y="-234.12" font-family="Helvetica,sans-Serif" font-size="10.00" fill="#d2a8ff">ShieldTrailController</text>
<text xml:space="preserve" text-anchor="middle" x="474.89" y="-222.88" font-family="Helvetica,sans-Serif" font-size="10.00" fill="#d2a8ff">─────────</text>
<text xml:space="preserve" text-anchor="middle" x="474.89" y="-211.62" font-family="Helvetica,sans-Serif" font-size="10.00" fill="#d2a8ff">single TrailSpawner</text>
<text xml:space="preserve" text-anchor="middle" x="474.89" y="-200.38" font-family="Helvetica,sans-Serif" font-size="10.00" fill="#d2a8ff">fire&#45;and&#45;forget</text>
<text xml:space="preserve" text-anchor="middle" x="474.89" y="-189.12" font-family="Helvetica,sans-Serif" font-size="10.00" fill="#d2a8ff">(no tracking, no cinematic)</text>
</g>
<!-- ShieldTrailController&#45;&gt;TrailSpawner -->
<g id="edge3" class="edge">
<title>ShieldTrailController&#45;&gt;TrailSpawner</title>
<path fill="none" stroke="#d2a8ff" d="M474.89,-182.94C474.89,-161.67 474.89,-133.2 474.89,-109.05"/>
<polygon fill="#d2a8ff" stroke="#d2a8ff" points="478.39,-109.11 474.89,-99.11 471.39,-109.11 478.39,-109.11"/>
<text xml:space="preserve" text-anchor="middle" x="498.52" y="-147.65" font-family="Helvetica,sans-Serif" font-size="8.00" fill="#8b949e">composes ×1</text>
</g>
</g>
</svg>
