<?xml version="1.0" encoding="UTF-8" standalone="no"?>
<!DOCTYPE svg PUBLIC "-//W3C//DTD SVG 1.1//EN"
 "http://www.w3.org/Graphics/SVG/1.1/DTD/svg11.dtd">
<!-- Generated by graphviz version 2.43.0 (0)
 -->
<!-- Title: BalloonParty.Slots.Grid.SlotGridPierceItemField Pages: 1 -->
<svg width="818pt" height="182pt"
 viewBox="0.00 0.00 818.00 182.00" xmlns="http://www.w3.org/2000/svg" xmlns:xlink="http://www.w3.org/1999/xlink">
<g id="graph0" class="graph" transform="scale(1 1) rotate(0) translate(4 178)">
<title>BalloonParty.Slots.Grid.SlotGridPierceItemField</title>
<!-- Node1 -->
<g id="Node000001" class="node">
<title>Node1</title>
<g id="a_Node000001"><a xlink:title="Every occupied slot hosting a pierce&#45;arming item, as circles.">
<polygon fill="#999999" stroke="#666666" points="810,-126 679,-126 679,-96 810,-96 810,-126"/>
<text text-anchor="start" x="687" y="-114" font-family="Helvetica,sans-Serif" font-size="10.00">BalloonParty.Slots.Grid.</text>
<text text-anchor="middle" x="744.5" y="-103" font-family="Helvetica,sans-Serif" font-size="10.00">SlotGridPierceItemField</text>
</a>
</g>
</g>
<!-- Node2 -->
<g id="Node000002" class="node">
<title>Node2</title>
<g id="a_Node000002"><a xlink:href="interfaceBalloonParty_1_1Shared_1_1IPierceItemField.html" target="_top" xlink:title="The pierce&#45;arming item hosts the aim telegraph must know about, in the geometry the projectile will a...">
<polygon fill="white" stroke="#666666" points="615,-150 466,-150 466,-120 615,-120 615,-150"/>
<text text-anchor="start" x="474" y="-138" font-family="Helvetica,sans-Serif" font-size="10.00">BalloonParty.Shared.IPierce</text>
<text text-anchor="middle" x="540.5" y="-127" font-family="Helvetica,sans-Serif" font-size="10.00">ItemField</text>
</a>
</g>
</g>
<!-- Node2&#45;&gt;Node1 -->
<g id="edge1_Node000001_Node000002" class="edge">
<title>Node2&#45;&gt;Node1</title>
<g id="a_edge1_Node000001_Node000002"><a xlink:title=" ">
<path fill="none" stroke="#63b8ff" d="M625.66,-125C643.46,-122.89 661.98,-120.69 678.92,-118.67"/>
<polygon fill="#63b8ff" stroke="#63b8ff" points="624.8,-121.58 615.28,-126.23 625.63,-128.53 624.8,-121.58"/>
</a>
</g>
</g>
<!-- Node3 -->
<g id="Node000003" class="node">
<title>Node3</title>
<g id="a_Node000003"><a xlink:href="classBalloonParty_1_1Slots_1_1Grid_1_1SlotGrid.html" target="_top" xlink:title=" ">
<polygon fill="white" stroke="#666666" points="605.5,-102 475.5,-102 475.5,-72 605.5,-72 605.5,-102"/>
<text text-anchor="start" x="483.5" y="-90" font-family="Helvetica,sans-Serif" font-size="10.00">BalloonParty.Slots.Grid.</text>
<text text-anchor="middle" x="540.5" y="-79" font-family="Helvetica,sans-Serif" font-size="10.00">SlotGrid</text>
</a>
</g>
</g>
<!-- Node3&#45;&gt;Node1 -->
<g id="edge2_Node000001_Node000003" class="edge">
<title>Node3&#45;&gt;Node1</title>
<g id="a_edge2_Node000001_Node000003"><a xlink:title=" ">
<path fill="none" stroke="#9a32cd" stroke-dasharray="5,2" d="M615.7,-95.82C636.39,-98.27 658.69,-100.92 678.78,-103.31"/>
<polygon fill="#9a32cd" stroke="#9a32cd" points="616.03,-92.33 605.69,-94.63 615.21,-99.28 616.03,-92.33"/>
</a>
</g>
<text text-anchor="middle" x="647" y="-104" font-family="Helvetica,sans-Serif" font-size="10.00" fill="grey"> _grid</text>
</g>
<!-- Node4 -->
<g id="Node000004" class="node">
<title>Node4</title>
<g id="a_Node000004"><a xlink:href="classBalloonParty_1_1Slots_1_1Grid_1_1BalancePathHolder.html" target="_top" xlink:title="Tracks slots in&#45;transit from balance animations so spawn paths avoid them.">
<polygon fill="white" stroke="#666666" points="326,-174 196,-174 196,-144 326,-144 326,-174"/>
<text text-anchor="start" x="204" y="-162" font-family="Helvetica,sans-Serif" font-size="10.00">BalloonParty.Slots.Grid.</text>
<text text-anchor="middle" x="261" y="-151" font-family="Helvetica,sans-Serif" font-size="10.00">BalancePathHolder</text>
</a>
</g>
</g>
<!-- Node4&#45;&gt;Node3 -->
<g id="edge3_Node000003_Node000004" class="edge">
<title>Node4&#45;&gt;Node3</title>
<g id="a_edge3_Node000003_Node000004"><a xlink:title=" ">
<path fill="none" stroke="#9a32cd" stroke-dasharray="5,2" d="M336.28,-145.36C370.6,-138.36 411.71,-128.99 448,-118 456.22,-115.51 457.92,-113.89 466,-111 474.34,-108.02 483.27,-104.98 491.92,-102.11"/>
<polygon fill="#9a32cd" stroke="#9a32cd" points="335.44,-141.95 326.33,-147.36 336.82,-148.82 335.44,-141.95"/>
</a>
</g>
<text text-anchor="middle" x="398" y="-145" font-family="Helvetica,sans-Serif" font-size="10.00" fill="grey"> _balancePathHolder</text>
</g>
<!-- Node5 -->
<g id="Node000005" class="node">
<title>Node5</title>
<g id="a_Node000005"><a xlink:href="interfaceBalloonParty_1_1Game_1_1Run_1_1IRunResettable.html" target="_top" xlink:title="RunController invokes implementations in ascending ResetOrder, lower first.">
<polygon fill="white" stroke="#666666" points="155,-174 0,-174 0,-144 155,-144 155,-174"/>
<text text-anchor="start" x="8" y="-162" font-family="Helvetica,sans-Serif" font-size="10.00">BalloonParty.Game.Run.IRun</text>
<text text-anchor="middle" x="77.5" y="-151" font-family="Helvetica,sans-Serif" font-size="10.00">Resettable</text>
</a>
</g>
</g>
<!-- Node5&#45;&gt;Node4 -->
<g id="edge4_Node000004_Node000005" class="edge">
<title>Node5&#45;&gt;Node4</title>
<g id="a_edge4_Node000004_Node000005"><a xlink:title=" ">
<path fill="none" stroke="#63b8ff" d="M165.43,-159C175.69,-159 186.02,-159 195.88,-159"/>
<polygon fill="#63b8ff" stroke="#63b8ff" points="165.21,-155.5 155.21,-159 165.21,-162.5 165.21,-155.5"/>
</a>
</g>
</g>
<!-- Node6 -->
<g id="Node000006" class="node">
<title>Node6</title>
<g id="a_Node000006"><a xlink:href="interfaceBalloonParty_1_1Shared_1_1ISlotGridConfig.html" target="_top" xlink:title="Slot grid layout: size, spacing, and origin offset.">
<polygon fill="white" stroke="#666666" points="330,-126 192,-126 192,-96 330,-96 330,-126"/>
<text text-anchor="start" x="200" y="-114" font-family="Helvetica,sans-Serif" font-size="10.00">BalloonParty.Shared.ISlot</text>
<text text-anchor="middle" x="261" y="-103" font-family="Helvetica,sans-Serif" font-size="10.00">GridConfig</text>
</a>
</g>
</g>
<!-- Node6&#45;&gt;Node3 -->
<g id="edge5_Node000003_Node000006" class="edge">
<title>Node6&#45;&gt;Node3</title>
<g id="a_edge5_Node000003_Node000006"><a xlink:title=" ">
<path fill="none" stroke="#9a32cd" stroke-dasharray="5,2" d="M340.31,-104.23C382.97,-100.54 435.11,-96.03 475.34,-92.55"/>
<polygon fill="#9a32cd" stroke="#9a32cd" points="339.9,-100.75 330.24,-105.1 340.5,-107.72 339.9,-100.75"/>
</a>
</g>
<text text-anchor="middle" x="398" y="-106" font-family="Helvetica,sans-Serif" font-size="10.00" fill="grey"> _config</text>
</g>
<!-- Node7 -->
<g id="Node000007" class="node">
<title>Node7</title>
<g id="a_Node000007"><a xlink:href="interfaceBalloonParty_1_1Slots_1_1Actor_1_1IWriteableSlotActor.html" target="_top" xlink:title=" ">
<polygon fill="white" stroke="#666666" points="328,-78 194,-78 194,-48 328,-48 328,-78"/>
<text text-anchor="start" x="202" y="-66" font-family="Helvetica,sans-Serif" font-size="10.00">BalloonParty.Slots.Actor.</text>
<text text-anchor="middle" x="261" y="-55" font-family="Helvetica,sans-Serif" font-size="10.00">IWriteableSlotActor</text>
</a>
</g>
</g>
<!-- Node7&#45;&gt;Node3 -->
<g id="edge6_Node000003_Node000007" class="edge">
<title>Node7&#45;&gt;Node3</title>
<g id="a_edge6_Node000003_Node000007"><a xlink:title=" ">
<path fill="none" stroke="#9a32cd" stroke-dasharray="5,2" d="M338.26,-69.6C381.28,-73.32 434.45,-77.91 475.33,-81.45"/>
<polygon fill="#9a32cd" stroke="#9a32cd" points="338.38,-66.09 328.12,-68.72 337.78,-73.07 338.38,-66.09"/>
</a>
</g>
<text text-anchor="middle" x="398" y="-81" font-family="Helvetica,sans-Serif" font-size="10.00" fill="grey"> _slots</text>
</g>
<!-- Node8 -->
<g id="Node000008" class="node">
<title>Node8</title>
<g id="a_Node000008"><a xlink:href="interfaceBalloonParty_1_1Slots_1_1Actor_1_1ISlotActor.html" target="_top" xlink:title=" ">
<polygon fill="white" stroke="#666666" points="144.5,-78 10.5,-78 10.5,-48 144.5,-48 144.5,-78"/>
<text text-anchor="start" x="18.5" y="-66" font-family="Helvetica,sans-Serif" font-size="10.00">BalloonParty.Slots.Actor.</text>
<text text-anchor="middle" x="77.5" y="-55" font-family="Helvetica,sans-Serif" font-size="10.00">ISlotActor</text>
</a>
</g>
</g>
<!-- Node8&#45;&gt;Node7 -->
<g id="edge7_Node000007_Node000008" class="edge">
<title>Node8&#45;&gt;Node7</title>
<g id="a_edge7_Node000007_Node000008"><a xlink:title=" ">
<path fill="none" stroke="#63b8ff" d="M154.8,-63C167.73,-63 181.06,-63 193.71,-63"/>
<polygon fill="#63b8ff" stroke="#63b8ff" points="154.54,-59.5 144.54,-63 154.54,-66.5 154.54,-59.5"/>
</a>
</g>
</g>
<!-- Node9 -->
<g id="Node000009" class="node">
<title>Node9</title>
<g id="a_Node000009"><a xlink:href="interfaceBalloonParty_1_1Slots_1_1Actor_1_1ISlotActorView.html" target="_top" xlink:title=" ">
<polygon fill="white" stroke="#666666" points="328,-30 194,-30 194,0 328,0 328,-30"/>
<text text-anchor="start" x="202" y="-18" font-family="Helvetica,sans-Serif" font-size="10.00">BalloonParty.Slots.Actor.</text>
<text text-anchor="middle" x="261" y="-7" font-family="Helvetica,sans-Serif" font-size="10.00">ISlotActorView</text>
</a>
</g>
</g>
<!-- Node9&#45;&gt;Node3 -->
<g id="edge8_Node000003_Node000009" class="edge">
<title>Node9&#45;&gt;Node3</title>
<g id="a_edge8_Node000003_Node000009"><a xlink:title=" ">
<path fill="none" stroke="#9a32cd" stroke-dasharray="5,2" d="M338.18,-29.15C372.05,-36.01 412.26,-44.95 448,-55 465.17,-59.83 483.81,-66.15 499.76,-71.89"/>
<polygon fill="#9a32cd" stroke="#9a32cd" points="338.84,-25.71 328.34,-27.18 337.46,-32.58 338.84,-25.71"/>
</a>
</g>
<text text-anchor="middle" x="398" y="-58" font-family="Helvetica,sans-Serif" font-size="10.00" fill="grey"> _views</text>
</g>
</g>
</svg>
