<?xml version="1.0" encoding="UTF-8" standalone="no"?>
<!DOCTYPE svg PUBLIC "-//W3C//DTD SVG 1.1//EN"
 "http://www.w3.org/Graphics/SVG/1.1/DTD/svg11.dtd">
<!-- Generated by graphviz version 2.43.0 (0)
 -->
<!-- Title: BalloonParty.Configuration.ScoreTrailBehaviourConfiguration Pages: 1 -->
<svg width="496pt" height="220pt"
 viewBox="0.00 0.00 496.00 219.50" xmlns="http://www.w3.org/2000/svg" xmlns:xlink="http://www.w3.org/1999/xlink">
<g id="graph0" class="graph" transform="scale(1 1) rotate(0) translate(4 215.5)">
<title>BalloonParty.Configuration.ScoreTrailBehaviourConfiguration</title>
<!-- Node1 -->
<g id="Node000001" class="node">
<title>Node1</title>
<g id="a_Node000001"><a xlink:title=" ">
<polygon fill="#999999" stroke="#666666" points="488,-126 309,-126 309,-96 488,-96 488,-126"/>
<text text-anchor="start" x="317" y="-114" font-family="Helvetica,sans-Serif" font-size="10.00">BalloonParty.Configuration.</text>
<text text-anchor="middle" x="398.5" y="-103" font-family="Helvetica,sans-Serif" font-size="10.00">ScoreTrailBehaviourConfiguration</text>
</a>
</g>
</g>
<!-- Node2 -->
<g id="Node000002" class="node">
<title>Node2</title>
<g id="a_Node000002"><a xlink:title=" ">
<polygon fill="white" stroke="#666666" points="139.5,-211.5 42.5,-211.5 42.5,-192.5 139.5,-192.5 139.5,-211.5"/>
<text text-anchor="middle" x="91" y="-199.5" font-family="Helvetica,sans-Serif" font-size="10.00">ScriptableObject</text>
</a>
</g>
</g>
<!-- Node2&#45;&gt;Node1 -->
<g id="edge1_Node000001_Node000002" class="edge">
<title>Node2&#45;&gt;Node1</title>
<g id="a_edge1_Node000001_Node000002"><a xlink:title=" ">
<path fill="none" stroke="#63b8ff" d="M149.64,-190.75C160.44,-188.38 171.6,-185.76 182,-183 244.15,-166.51 314.52,-141.83 357.45,-126.07"/>
<polygon fill="#63b8ff" stroke="#63b8ff" points="148.9,-187.33 139.86,-192.85 150.37,-194.17 148.9,-187.33"/>
</a>
</g>
</g>
<!-- Node3 -->
<g id="Node000003" class="node">
<title>Node3</title>
<g id="a_Node000003"><a xlink:href="interfaceBalloonParty_1_1Configuration_1_1IScoreTrailBehaviourConfiguration.html" target="_top" xlink:title="Read&#45;only view of the score&#45;trail choreography table — the ordered ScoreTrailBehaviourEntry list the ...">
<polygon fill="white" stroke="#666666" points="182,-174 0,-174 0,-144 182,-144 182,-174"/>
<text text-anchor="start" x="8" y="-162" font-family="Helvetica,sans-Serif" font-size="10.00">BalloonParty.Configuration.</text>
<text text-anchor="middle" x="91" y="-151" font-family="Helvetica,sans-Serif" font-size="10.00">IScoreTrailBehaviourConfiguration</text>
</a>
</g>
</g>
<!-- Node3&#45;&gt;Node1 -->
<g id="edge2_Node000001_Node000003" class="edge">
<title>Node3&#45;&gt;Node1</title>
<g id="a_edge2_Node000001_Node000003"><a xlink:title=" ">
<path fill="none" stroke="#63b8ff" d="M191.99,-143.29C229.71,-137.36 272.32,-130.67 308.93,-124.92"/>
<polygon fill="#63b8ff" stroke="#63b8ff" points="191.34,-139.85 182.01,-144.86 192.43,-146.76 191.34,-139.85"/>
</a>
</g>
</g>
<!-- Node4 -->
<g id="Node000004" class="node">
<title>Node4</title>
<g id="a_Node000004"><a xlink:href="interfaceBalloonParty_1_1Shared_1_1IScoreTrailConfig.html" target="_top" xlink:title="Score trail presentation: timing, scatter, burst, and pool prewarm sizes.">
<polygon fill="white" stroke="#666666" points="164,-126 18,-126 18,-96 164,-96 164,-126"/>
<text text-anchor="start" x="26" y="-114" font-family="Helvetica,sans-Serif" font-size="10.00">BalloonParty.Shared.IScore</text>
<text text-anchor="middle" x="91" y="-103" font-family="Helvetica,sans-Serif" font-size="10.00">TrailConfig</text>
</a>
</g>
</g>
<!-- Node4&#45;&gt;Node1 -->
<g id="edge3_Node000001_Node000004" class="edge">
<title>Node4&#45;&gt;Node1</title>
<g id="a_edge3_Node000001_Node000004"><a xlink:title=" ">
<path fill="none" stroke="#63b8ff" d="M174.11,-111C215.71,-111 266.28,-111 308.78,-111"/>
<polygon fill="#63b8ff" stroke="#63b8ff" points="174.01,-107.5 164.01,-111 174.01,-114.5 174.01,-107.5"/>
</a>
</g>
</g>
<!-- Node5 -->
<g id="Node000005" class="node">
<title>Node5</title>
<g id="a_Node000005"><a xlink:href="structBalloonParty_1_1Configuration_1_1ScoreTrailBehaviourEntry.html" target="_top" xlink:title="One row of the choreography table: the handler to use once a group clears MinPoints.">
<polygon fill="white" stroke="#666666" points="165,-78 17,-78 17,-48 165,-48 165,-78"/>
<text text-anchor="start" x="25" y="-66" font-family="Helvetica,sans-Serif" font-size="10.00">BalloonParty.Configuration.</text>
<text text-anchor="middle" x="91" y="-55" font-family="Helvetica,sans-Serif" font-size="10.00">ScoreTrailBehaviourEntry</text>
</a>
</g>
</g>
<!-- Node5&#45;&gt;Node1 -->
<g id="edge4_Node000001_Node000005" class="edge">
<title>Node5&#45;&gt;Node1</title>
<g id="a_edge4_Node000001_Node000005"><a xlink:title=" ">
<path fill="none" stroke="#9a32cd" stroke-dasharray="5,2" d="M175.23,-76.08C216.65,-82.58 266.73,-90.45 308.86,-97.07"/>
<polygon fill="#9a32cd" stroke="#9a32cd" points="175.6,-72.59 165.17,-74.5 174.51,-79.51 175.6,-72.59"/>
</a>
</g>
<text text-anchor="middle" x="245.5" y="-97" font-family="Helvetica,sans-Serif" font-size="10.00" fill="grey"> _entries</text>
</g>
<!-- Node6 -->
<g id="Node000006" class="node">
<title>Node6</title>
<g id="a_Node000006"><a xlink:href="structBalloonParty_1_1Configuration_1_1BigScoreFormationSettings.html" target="_top" xlink:title="Global knobs shared by every BigScore formation: radius, pen speed, coverage, spin and the scale&#45;over...">
<polygon fill="white" stroke="#666666" points="165.5,-30 16.5,-30 16.5,0 165.5,0 165.5,-30"/>
<text text-anchor="start" x="24.5" y="-18" font-family="Helvetica,sans-Serif" font-size="10.00">BalloonParty.Configuration.</text>
<text text-anchor="middle" x="91" y="-7" font-family="Helvetica,sans-Serif" font-size="10.00">BigScoreFormationSettings</text>
</a>
</g>
</g>
<!-- Node6&#45;&gt;Node1 -->
<g id="edge5_Node000001_Node000006" class="edge">
<title>Node6&#45;&gt;Node1</title>
<g id="a_edge5_Node000001_Node000006"><a xlink:title=" ">
<path fill="none" stroke="#9a32cd" stroke-dasharray="5,2" d="M171.51,-32.51C208.25,-41.33 252.23,-52.92 291,-66 316.49,-74.6 344.47,-86.52 365.36,-95.94"/>
<polygon fill="#9a32cd" stroke="#9a32cd" points="171.89,-29 161.35,-30.09 170.27,-35.81 171.89,-29"/>
</a>
</g>
<text text-anchor="middle" x="245.5" y="-69" font-family="Helvetica,sans-Serif" font-size="10.00" fill="grey"> _bigScoreSettings</text>
</g>
</g>
</svg>
