<?xml version="1.0" encoding="UTF-8" standalone="no"?>
<!DOCTYPE svg PUBLIC "-//W3C//DTD SVG 1.1//EN"
 "http://www.w3.org/Graphics/SVG/1.1/DTD/svg11.dtd">
<!-- Generated by graphviz version 2.43.0 (0)
 -->
<!-- Title: BalloonParty.Item.Preview.ItemPreviewTicker Pages: 1 -->
<!--zoomable 304 -->

<svg id="main" version="1.1" xmlns="http://www.w3.org/2000/svg" xmlns:xlink="http://www.w3.org/1999/xlink" xml:space="preserve" onload="init(evt)">

<style type="text/css"><![CDATA[
.node, .edge {opacity: 0.7;}
.node.selected, .edge.selected {opacity: 1;}
.edge:hover path { stroke: red; }
.edge:hover polygon { stroke: red; fill: red; }
]]></style>

<defs>
  <circle id="rim" cx="0" cy="0" r="7"/>
  <circle id="rim2" cx="0" cy="0" r="3.5"/>
  <g id="zoomPlus">
    <use xlink:href="#rim" fill="#404040"><set attributeName="fill" to="#808080" begin="zoomplus.mouseover" end="zoomplus.mouseout"/></use>
    <path d="M-4,0h8M0,-4v8" fill="none" stroke="white" stroke-width="1.5" pointer-events="none"/>
  </g>
  <g id="zoomMin">
    <use xlink:href="#rim" fill="#404040"><set attributeName="fill" to="#808080" begin="zoomminus.mouseover" end="zoomminus.mouseout"/></use>
    <path d="M-4,0h8" fill="none" stroke="white" stroke-width="1.5" pointer-events="none"/>
  </g>
  <g id="arrowUp" transform="translate(30 24)">
    <use xlink:href="#rim"/>
    <path pointer-events="none" fill="none" stroke="white" stroke-width="1.5" d="M0,-3.0v7 M-2.5,-0.5L0,-3.0L2.5,-0.5"/>
  </g>
  <g id="arrowRight" transform="rotate(90) translate(36 -43)">
    <use xlink:href="#rim"/>
    <path pointer-events="none" fill="none" stroke="white" stroke-width="1.5" d="M0,-3.0v7 M-2.5,-0.5L0,-3.0L2.5,-0.5"/>
  </g>
  <g id="arrowDown" transform="rotate(180) translate(-30 -48)">
    <use xlink:href="#rim"/>
    <path pointer-events="none" fill="none" stroke="white" stroke-width="1.5" d="M0,-3.0v7 M-2.5,-0.5L0,-3.0L2.5,-0.5"/>
  </g>
  <g id="arrowLeft" transform="rotate(270) translate(-36 17)">
    <use xlink:href="#rim"/>
    <path pointer-events="none" fill="none" stroke="white" stroke-width="1.5" d="M0,-3.0v7 M-2.5,-0.5L0,-3.0L2.5,-0.5"/>
  </g>
  <g id="resetDef">
    <use xlink:href="#rim2" fill="#404040"><set attributeName="fill" to="#808080" begin="reset.mouseover" end="reset.mouseout"/></use>
  </g>
</defs>
<script type="application/ecmascript">
var viewWidth = 631;
var viewHeight = 304;
var sectionId = 'dynsection-1';
</script>
<script type="application/ecmascript" xlink:href="svg.min.js"/>
<svg id="graph" class="graph">
<g id="viewport">
<title>BalloonParty.Item.Preview.ItemPreviewTicker</title>
<!-- Node1 -->
<g id="Node000001" class="node">
<title>Node1</title>
<g id="a_Node000001"><a xlink:title="Drives the pens of the one visible item&#45;range figure, closed&#45;form off a single clock — no tweens,...">
<polygon fill="#999999" stroke="#666666" points="623,-173 477,-173 477,-143 623,-143 623,-173"/>
<text text-anchor="start" x="485" y="-161" font-family="Helvetica,sans-Serif" font-size="10.00">BalloonParty.Item.Preview.</text>
<text text-anchor="middle" x="550" y="-150" font-family="Helvetica,sans-Serif" font-size="10.00">ItemPreviewTicker</text>
</a>
</g>
</g>
<!-- Node2 -->
<g id="Node000002" class="node">
<title>Node2</title>
<g id="a_Node000002"><a xlink:title=" ">
<polygon fill="white" stroke="#666666" points="335.5,-295.5 254.5,-295.5 254.5,-276.5 335.5,-276.5 335.5,-295.5"/>
<text text-anchor="middle" x="295" y="-283.5" font-family="Helvetica,sans-Serif" font-size="10.00">ILateTickable</text>
</a>
</g>
</g>
<!-- Node2&#45;&gt;Node1 -->
<g id="edge1_Node000001_Node000002" class="edge">
<title>Node2&#45;&gt;Node1</title>
<g id="a_edge1_Node000001_Node000002"><a xlink:title=" ">
<path fill="none" stroke="#63b8ff" d="M345.49,-274.87C353.1,-272.8 360.81,-270.5 368,-268 409.91,-253.45 420.92,-249.76 459,-227 486.04,-210.84 514.44,-187.93 531.93,-173.01"/>
<polygon fill="#63b8ff" stroke="#63b8ff" points="344.4,-271.53 335.61,-277.44 346.17,-278.31 344.4,-271.53"/>
</a>
</g>
</g>
<!-- Node3 -->
<g id="Node000003" class="node">
<title>Node3</title>
<g id="a_Node000003"><a xlink:title=" ">
<polygon fill="white" stroke="#666666" points="332,-258.5 258,-258.5 258,-239.5 332,-239.5 332,-258.5"/>
<text text-anchor="middle" x="295" y="-246.5" font-family="Helvetica,sans-Serif" font-size="10.00">IDisposable</text>
</a>
</g>
</g>
<!-- Node3&#45;&gt;Node1 -->
<g id="edge2_Node000001_Node000003" class="edge">
<title>Node3&#45;&gt;Node1</title>
<g id="a_edge2_Node000001_Node000003"><a xlink:title=" ">
<path fill="none" stroke="#63b8ff" d="M342.23,-237.1C350.81,-234.8 359.69,-232.37 368,-230 408.69,-218.38 419.65,-217.56 459,-202 480.35,-193.56 503.61,-182.12 521.14,-173.03"/>
<polygon fill="#63b8ff" stroke="#63b8ff" points="341.11,-233.77 332.34,-239.72 342.9,-240.54 341.11,-233.77"/>
</a>
</g>
</g>
<!-- Node4 -->
<g id="Node000004" class="node">
<title>Node4</title>
<g id="a_Node000004"><a xlink:href="classBalloonParty_1_1Shared_1_1Pool_1_1PoolManager.html" target="_top" xlink:title=" ">
<polygon fill="white" stroke="#666666" points="365,-221 225,-221 225,-191 365,-191 365,-221"/>
<text text-anchor="start" x="233" y="-209" font-family="Helvetica,sans-Serif" font-size="10.00">BalloonParty.Shared.Pool.</text>
<text text-anchor="middle" x="295" y="-198" font-family="Helvetica,sans-Serif" font-size="10.00">PoolManager</text>
</a>
</g>
</g>
<!-- Node4&#45;&gt;Node1 -->
<g id="edge3_Node000001_Node000004" class="edge">
<title>Node4&#45;&gt;Node1</title>
<g id="a_edge3_Node000001_Node000004"><a xlink:title=" ">
<path fill="none" stroke="#9a32cd" stroke-dasharray="5,2" d="M375.07,-191C407.62,-184.82 445.07,-177.72 476.86,-171.69"/>
<polygon fill="#9a32cd" stroke="#9a32cd" points="374.31,-187.58 365.13,-192.88 375.61,-194.46 374.31,-187.58"/>
</a>
</g>
<text text-anchor="middle" x="422.5" y="-190" font-family="Helvetica,sans-Serif" font-size="10.00" fill="grey"> _poolManager</text>
</g>
<!-- Node5 -->
<g id="Node000005" class="node">
<title>Node5</title>
<g id="a_Node000005"><a xlink:href="classBalloonParty_1_1Item_1_1Preview_1_1HighlightTrail.html" target="_top" xlink:title="One pen of an item&#45;range telegraph: a head sprite dragging a TrailRenderer ribbon,...">
<polygon fill="white" stroke="#666666" points="368,-173 222,-173 222,-143 368,-143 368,-173"/>
<text text-anchor="start" x="230" y="-161" font-family="Helvetica,sans-Serif" font-size="10.00">BalloonParty.Item.Preview.</text>
<text text-anchor="middle" x="295" y="-150" font-family="Helvetica,sans-Serif" font-size="10.00">HighlightTrail</text>
</a>
</g>
</g>
<!-- Node5&#45;&gt;Node1 -->
<g id="edge4_Node000001_Node000005" class="edge">
<title>Node5&#45;&gt;Node1</title>
<g id="a_edge4_Node000001_Node000005"><a xlink:title=" ">
<path fill="none" stroke="#9a32cd" stroke-dasharray="5,2" d="M378.3,-158C410.04,-158 446.02,-158 476.74,-158"/>
<polygon fill="#9a32cd" stroke="#9a32cd" points="378.16,-154.5 368.16,-158 378.16,-161.5 378.16,-154.5"/>
</a>
</g>
<text text-anchor="middle" x="422.5" y="-161" font-family="Helvetica,sans-Serif" font-size="10.00" fill="grey"> _penPrefab</text>
</g>
<!-- Node6 -->
<g id="Node000006" class="node">
<title>Node6</title>
<g id="a_Node000006"><a xlink:title=" ">
<polygon fill="white" stroke="#666666" points="120.5,-200.5 27.5,-200.5 27.5,-181.5 120.5,-181.5 120.5,-200.5"/>
<text text-anchor="middle" x="74" y="-188.5" font-family="Helvetica,sans-Serif" font-size="10.00">MonoBehaviour</text>
</a>
</g>
</g>
<!-- Node6&#45;&gt;Node5 -->
<g id="edge5_Node000005_Node000006" class="edge">
<title>Node6&#45;&gt;Node5</title>
<g id="a_edge5_Node000005_Node000006"><a xlink:title=" ">
<path fill="none" stroke="#63b8ff" d="M130.54,-182.63C158.22,-178.46 192.02,-173.37 221.69,-168.9"/>
<polygon fill="#63b8ff" stroke="#63b8ff" points="130.01,-179.17 120.64,-184.12 131.05,-186.09 130.01,-179.17"/>
</a>
</g>
</g>
<!-- Node7 -->
<g id="Node000007" class="node">
<title>Node7</title>
<g id="a_Node000007"><a xlink:href="interfaceBalloonParty_1_1Shared_1_1Pool_1_1IPoolable.html" target="_top" xlink:title=" ">
<polygon fill="white" stroke="#666666" points="144,-163 4,-163 4,-133 144,-133 144,-163"/>
<text text-anchor="start" x="12" y="-151" font-family="Helvetica,sans-Serif" font-size="10.00">BalloonParty.Shared.Pool.</text>
<text text-anchor="middle" x="74" y="-140" font-family="Helvetica,sans-Serif" font-size="10.00">IPoolable</text>
</a>
</g>
</g>
<!-- Node7&#45;&gt;Node5 -->
<g id="edge6_Node000005_Node000007" class="edge">
<title>Node7&#45;&gt;Node5</title>
<g id="a_edge6_Node000005_Node000007"><a xlink:title=" ">
<path fill="none" stroke="#63b8ff" d="M154.58,-151.63C176.54,-152.64 200.24,-153.72 221.76,-154.7"/>
<polygon fill="#63b8ff" stroke="#63b8ff" points="154.44,-148.12 144.29,-151.16 154.12,-155.12 154.44,-148.12"/>
</a>
</g>
</g>
<!-- Node8 -->
<g id="Node000008" class="node">
<title>Node8</title>
<g id="a_Node000008"><a xlink:href="interfaceBalloonParty_1_1Configuration_1_1IItemPreviewConfig.html" target="_top" xlink:title="Tuning for the aim&#45;time item range telegraph (Item Range Preview).">
<polygon fill="white" stroke="#666666" points="148,-114 0,-114 0,-84 148,-84 148,-114"/>
<text text-anchor="start" x="8" y="-102" font-family="Helvetica,sans-Serif" font-size="10.00">BalloonParty.Configuration.</text>
<text text-anchor="middle" x="74" y="-91" font-family="Helvetica,sans-Serif" font-size="10.00">IItemPreviewConfig</text>
</a>
</g>
</g>
<!-- Node8&#45;&gt;Node1 -->
<g id="edge7_Node000001_Node000008" class="edge">
<title>Node8&#45;&gt;Node1</title>
<g id="a_edge7_Node000001_Node000008"><a xlink:title=" ">
<path fill="none" stroke="#9a32cd" stroke-dasharray="5,2" d="M158.43,-103.4C217.21,-107.1 297.64,-113.35 368,-123 405.42,-128.13 446.8,-135.97 480.53,-142.93"/>
<polygon fill="#9a32cd" stroke="#9a32cd" points="158.29,-99.89 148.09,-102.76 157.86,-106.87 158.29,-99.89"/>
</a>
</g>
<text text-anchor="middle" x="295" y="-126" font-family="Helvetica,sans-Serif" font-size="10.00" fill="grey"> _config</text>
</g>
<!-- Node9 -->
<g id="Node000009" class="node">
<title>Node9</title>
<g id="a_Node000009"><a xlink:href="classBalloonParty_1_1Item_1_1Preview_1_1ItemPreviewViewport.html" target="_top" xlink:title="Single shared owner of &quot;what is visible&quot; for the range&#45;preview figures — the camera&#45;derived world rec...">
<polygon fill="white" stroke="#666666" points="368,-78 222,-78 222,-48 368,-48 368,-78"/>
<text text-anchor="start" x="230" y="-66" font-family="Helvetica,sans-Serif" font-size="10.00">BalloonParty.Item.Preview.</text>
<text text-anchor="middle" x="295" y="-55" font-family="Helvetica,sans-Serif" font-size="10.00">ItemPreviewViewport</text>
</a>
</g>
</g>
<!-- Node8&#45;&gt;Node9 -->
<g id="edge9_Node000009_Node000008" class="edge">
<title>Node8&#45;&gt;Node9</title>
<g id="a_edge9_Node000009_Node000008"><a xlink:title=" ">
<path fill="none" stroke="#9a32cd" stroke-dasharray="5,2" d="M158.1,-85.34C179.12,-81.88 201.53,-78.2 221.96,-74.84"/>
<polygon fill="#9a32cd" stroke="#9a32cd" points="157.53,-81.89 148.23,-86.96 158.66,-88.79 157.53,-81.89"/>
</a>
</g>
<text text-anchor="middle" x="185" y="-86" font-family="Helvetica,sans-Serif" font-size="10.00" fill="grey"> _config</text>
</g>
<!-- Node9&#45;&gt;Node1 -->
<g id="edge8_Node000001_Node000009" class="edge">
<title>Node9&#45;&gt;Node1</title>
<g id="a_edge8_Node000001_Node000009"><a xlink:title=" ">
<path fill="none" stroke="#9a32cd" stroke-dasharray="5,2" d="M378.38,-68.12C404.9,-71.85 433.91,-78.21 459,-89 488.84,-101.83 517.6,-126.79 534.28,-142.91"/>
<polygon fill="#9a32cd" stroke="#9a32cd" points="378.71,-64.63 368.34,-66.81 377.81,-71.57 378.71,-64.63"/>
</a>
</g>
<text text-anchor="middle" x="422.5" y="-92" font-family="Helvetica,sans-Serif" font-size="10.00" fill="grey"> _viewport</text>
</g>
<!-- Node10 -->
<g id="Node000010" class="node">
<title>Node10</title>
<g id="a_Node000010"><a xlink:href="classBalloonParty_1_1Item_1_1Preview_1_1ItemPreviewShape.html" target="_top" xlink:title="The figure one item&#39;s range draws, as a set of polylines.">
<polygon fill="white" stroke="#666666" points="368,-30 222,-30 222,0 368,0 368,-30"/>
<text text-anchor="start" x="230" y="-18" font-family="Helvetica,sans-Serif" font-size="10.00">BalloonParty.Item.Preview.</text>
<text text-anchor="middle" x="295" y="-7" font-family="Helvetica,sans-Serif" font-size="10.00">ItemPreviewShape</text>
</a>
</g>
</g>
<!-- Node10&#45;&gt;Node1 -->
<g id="edge10_Node000001_Node000010" class="edge">
<title>Node10&#45;&gt;Node1</title>
<g id="a_edge10_Node000001_Node000010"><a xlink:title=" ">
<path fill="none" stroke="#9a32cd" stroke-dasharray="5,2" d="M378.18,-24.39C405.32,-30.09 434.75,-39.26 459,-54 496.34,-76.7 526.29,-120.09 540.33,-142.99"/>
<polygon fill="#9a32cd" stroke="#9a32cd" points="378.78,-20.94 368.3,-22.44 377.43,-27.81 378.78,-20.94"/>
</a>
</g>
<text text-anchor="middle" x="422.5" y="-57" font-family="Helvetica,sans-Serif" font-size="10.00" fill="grey"> _shape</text>
</g>
</g>
</svg>

<g id="navigator" transform="translate(0 0)" fill="#404254">
  <rect fill="#f2f5e9" fill-opacity="0.5" stroke="#606060" stroke-width=".5" x="0" y="0" width="60" height="60"/>
  <use id="zoomplus" xlink:href="#zoomPlus" x="17" y="9" onmousedown="handleZoom(evt,'in')"/>
  <use id="zoomminus" xlink:href="#zoomMin" x="42" y="9" onmousedown="handleZoom(evt,'out')"/>
  <use id="reset" xlink:href="#resetDef" x="30" y="36" onmousedown="handleReset()"/>
   <use id="arrowup" xlink:href="#arrowUp" x="0" y="0" onmousedown="handlePan(0,-1)"/>
  <use id="arrowright" xlink:href="#arrowRight" x="0" y="0" onmousedown="handlePan(1,0)"/>
  <use id="arrowdown" xlink:href="#arrowDown" x="0" y="0" onmousedown="handlePan(0,1)"/>
  <use id="arrowleft" xlink:href="#arrowLeft" x="0" y="0" onmousedown="handlePan(-1,0)"/>
</g>
<svg viewBox="0 0 15 15" width="100%" height="30px" preserveAspectRatio="xMaxYMin meet">
 <g id="arrow_out" transform="scale(0.3 0.3)">
  <a xlink:href="classBalloonParty_1_1Item_1_1Preview_1_1ItemPreviewTicker__coll__graph_org.svg" target="_base">
   <rect id="button" ry="5" rx="5" y="6" x="6" height="38" width="38"
        fill="#f2f5e9" fill-opacity="0.5" stroke="#606060" stroke-width="1.0"/>
   <path id="arrow"
     d="M 11.500037,31.436501 C 11.940474,20.09759 22.043105,11.32322 32.158766,21.979434 L 37.068811,17.246167 C 37.068811,17.246167 37.088388,32 37.088388,32 L 22.160133,31.978069 C 22.160133,31.978069 26.997745,27.140456 26.997745,27.140456 C 18.528582,18.264221 13.291696,25.230495 11.500037,31.436501 z"
     style="fill:#404040;"/>
  </a>
 </g>
</svg>

<style type='text/css'>
<![CDATA[
[data-mouse-over-selected='false'] { opacity: 0.7; }
[data-mouse-over-selected='true']  { opacity: 1.0; }
]]>
</style>
<script type="application/ecmascript"><![CDATA[
document.addEventListener('DOMContentLoaded', (event) => {
  highlightEdges();
  highlightAdjacentNodes();
});
]]></script>
</svg>
