<?xml version="1.0" encoding="UTF-8" standalone="no"?>
<!DOCTYPE svg PUBLIC "-//W3C//DTD SVG 1.1//EN"
 "http://www.w3.org/Graphics/SVG/1.1/DTD/svg11.dtd">
<!-- Generated by graphviz version 2.43.0 (0)
 -->
<!-- Title: BalloonParty.Slots.Grid.SlotGridDeflectorField Pages: 1 -->
<!--zoomable 182 -->

<svg id="main" version="1.1" xmlns="http://www.w3.org/2000/svg" xmlns:xlink="http://www.w3.org/1999/xlink" xml:space="preserve" onload="init(evt)">

<style type="text/css"><![CDATA[
.node, .edge {opacity: 0.7;}
.node.selected, .edge.selected {opacity: 1;}
.edge:hover path { stroke: red; }
.edge:hover polygon { stroke: red; fill: red; }
]]></style>

<defs>
  <circle id="rim" cx="0" cy="0" r="7"/>
  <circle id="rim2" cx="0" cy="0" r="3.5"/>
  <g id="zoomPlus">
    <use xlink:href="#rim" fill="#404040"><set attributeName="fill" to="#808080" begin="zoomplus.mouseover" end="zoomplus.mouseout"/></use>
    <path d="M-4,0h8M0,-4v8" fill="none" stroke="white" stroke-width="1.5" pointer-events="none"/>
  </g>
  <g id="zoomMin">
    <use xlink:href="#rim" fill="#404040"><set attributeName="fill" to="#808080" begin="zoomminus.mouseover" end="zoomminus.mouseout"/></use>
    <path d="M-4,0h8" fill="none" stroke="white" stroke-width="1.5" pointer-events="none"/>
  </g>
  <g id="arrowUp" transform="translate(30 24)">
    <use xlink:href="#rim"/>
    <path pointer-events="none" fill="none" stroke="white" stroke-width="1.5" d="M0,-3.0v7 M-2.5,-0.5L0,-3.0L2.5,-0.5"/>
  </g>
  <g id="arrowRight" transform="rotate(90) translate(36 -43)">
    <use xlink:href="#rim"/>
    <path pointer-events="none" fill="none" stroke="white" stroke-width="1.5" d="M0,-3.0v7 M-2.5,-0.5L0,-3.0L2.5,-0.5"/>
  </g>
  <g id="arrowDown" transform="rotate(180) translate(-30 -48)">
    <use xlink:href="#rim"/>
    <path pointer-events="none" fill="none" stroke="white" stroke-width="1.5" d="M0,-3.0v7 M-2.5,-0.5L0,-3.0L2.5,-0.5"/>
  </g>
  <g id="arrowLeft" transform="rotate(270) translate(-36 17)">
    <use xlink:href="#rim"/>
    <path pointer-events="none" fill="none" stroke="white" stroke-width="1.5" d="M0,-3.0v7 M-2.5,-0.5L0,-3.0L2.5,-0.5"/>
  </g>
  <g id="resetDef">
    <use xlink:href="#rim2" fill="#404040"><set attributeName="fill" to="#808080" begin="reset.mouseover" end="reset.mouseout"/></use>
  </g>
</defs>
<script type="application/ecmascript">
var viewWidth = 832;
var viewHeight = 182;
var sectionId = 'dynsection-1';
</script>
<script type="application/ecmascript" xlink:href="svg.min.js"/>
<svg id="graph" class="graph">
<g id="viewport">
<title>BalloonParty.Slots.Grid.SlotGridDeflectorField</title>
<!-- Node1 -->
<g id="Node000001" class="node">
<title>Node1</title>
<g id="a_Node000001"><a xlink:title="Every occupied slot whose actor would turn an ordinary shot away, as circles.">
<polygon fill="#999999" stroke="#666666" points="824,-126 694,-126 694,-96 824,-96 824,-126"/>
<text text-anchor="start" x="702" y="-114" font-family="Helvetica,sans-Serif" font-size="10.00">BalloonParty.Slots.Grid.</text>
<text text-anchor="middle" x="759" y="-103" font-family="Helvetica,sans-Serif" font-size="10.00">SlotGridDeflectorField</text>
</a>
</g>
</g>
<!-- Node2 -->
<g id="Node000002" class="node">
<title>Node2</title>
<g id="a_Node000002"><a xlink:href="interfaceBalloonParty_1_1Shared_1_1IDeflectorField.html" target="_top" xlink:title="The deflectors the aim telegraph must bounce off, in the geometry the projectile will actually meet.">
<polygon fill="white" stroke="#666666" points="630,-150 466,-150 466,-120 630,-120 630,-150"/>
<text text-anchor="start" x="474" y="-138" font-family="Helvetica,sans-Serif" font-size="10.00">BalloonParty.Shared.IDeflector</text>
<text text-anchor="middle" x="548" y="-127" font-family="Helvetica,sans-Serif" font-size="10.00">Field</text>
</a>
</g>
</g>
<!-- Node2&#45;&gt;Node1 -->
<g id="edge1_Node000001_Node000002" class="edge">
<title>Node2&#45;&gt;Node1</title>
<g id="a_edge1_Node000001_Node000002"><a xlink:title=" ">
<path fill="none" stroke="#63b8ff" d="M640.08,-124.54C658.18,-122.46 676.81,-120.32 693.78,-118.37"/>
<polygon fill="#63b8ff" stroke="#63b8ff" points="639.64,-121.07 630.1,-125.69 640.44,-128.02 639.64,-121.07"/>
</a>
</g>
</g>
<!-- Node3 -->
<g id="Node000003" class="node">
<title>Node3</title>
<g id="a_Node000003"><a xlink:href="classBalloonParty_1_1Slots_1_1Grid_1_1SlotGrid.html" target="_top" xlink:title=" ">
<polygon fill="white" stroke="#666666" points="613,-102 483,-102 483,-72 613,-72 613,-102"/>
<text text-anchor="start" x="491" y="-90" font-family="Helvetica,sans-Serif" font-size="10.00">BalloonParty.Slots.Grid.</text>
<text text-anchor="middle" x="548" y="-79" font-family="Helvetica,sans-Serif" font-size="10.00">SlotGrid</text>
</a>
</g>
</g>
<!-- Node3&#45;&gt;Node1 -->
<g id="edge2_Node000001_Node000003" class="edge">
<title>Node3&#45;&gt;Node1</title>
<g id="a_edge2_Node000001_Node000003"><a xlink:title=" ">
<path fill="none" stroke="#9a32cd" stroke-dasharray="5,2" d="M623.23,-95.52C646.35,-98.18 671.64,-101.08 693.99,-103.65"/>
<polygon fill="#9a32cd" stroke="#9a32cd" points="623.46,-92.03 613.13,-94.36 622.66,-98.98 623.46,-92.03"/>
</a>
</g>
<text text-anchor="middle" x="662" y="-104" font-family="Helvetica,sans-Serif" font-size="10.00" fill="grey"> _grid</text>
</g>
<!-- Node4 -->
<g id="Node000004" class="node">
<title>Node4</title>
<g id="a_Node000004"><a xlink:href="classBalloonParty_1_1Slots_1_1Grid_1_1BalancePathHolder.html" target="_top" xlink:title="Tracks slots in&#45;transit from balance animations so spawn paths avoid them.">
<polygon fill="white" stroke="#666666" points="326,-174 196,-174 196,-144 326,-144 326,-174"/>
<text text-anchor="start" x="204" y="-162" font-family="Helvetica,sans-Serif" font-size="10.00">BalloonParty.Slots.Grid.</text>
<text text-anchor="middle" x="261" y="-151" font-family="Helvetica,sans-Serif" font-size="10.00">BalancePathHolder</text>
</a>
</g>
</g>
<!-- Node4&#45;&gt;Node3 -->
<g id="edge3_Node000003_Node000004" class="edge">
<title>Node4&#45;&gt;Node3</title>
<g id="a_edge3_Node000003_Node000004"><a xlink:title=" ">
<path fill="none" stroke="#9a32cd" stroke-dasharray="5,2" d="M336.28,-145.36C370.6,-138.36 411.71,-128.99 448,-118 456.22,-115.51 457.88,-113.78 466,-111 474.88,-107.96 484.39,-104.94 493.64,-102.13"/>
<polygon fill="#9a32cd" stroke="#9a32cd" points="335.44,-141.95 326.33,-147.36 336.82,-148.82 335.44,-141.95"/>
</a>
</g>
<text text-anchor="middle" x="398" y="-145" font-family="Helvetica,sans-Serif" font-size="10.00" fill="grey"> _balancePathHolder</text>
</g>
<!-- Node5 -->
<g id="Node000005" class="node">
<title>Node5</title>
<g id="a_Node000005"><a xlink:href="interfaceBalloonParty_1_1Game_1_1Run_1_1IRunResettable.html" target="_top" xlink:title="RunController invokes implementations in ascending ResetOrder, lower first.">
<polygon fill="white" stroke="#666666" points="155,-174 0,-174 0,-144 155,-144 155,-174"/>
<text text-anchor="start" x="8" y="-162" font-family="Helvetica,sans-Serif" font-size="10.00">BalloonParty.Game.Run.IRun</text>
<text text-anchor="middle" x="77.5" y="-151" font-family="Helvetica,sans-Serif" font-size="10.00">Resettable</text>
</a>
</g>
</g>
<!-- Node5&#45;&gt;Node4 -->
<g id="edge4_Node000004_Node000005" class="edge">
<title>Node5&#45;&gt;Node4</title>
<g id="a_edge4_Node000004_Node000005"><a xlink:title=" ">
<path fill="none" stroke="#63b8ff" d="M165.43,-159C175.69,-159 186.02,-159 195.88,-159"/>
<polygon fill="#63b8ff" stroke="#63b8ff" points="165.21,-155.5 155.21,-159 165.21,-162.5 165.21,-155.5"/>
</a>
</g>
</g>
<!-- Node6 -->
<g id="Node000006" class="node">
<title>Node6</title>
<g id="a_Node000006"><a xlink:href="interfaceBalloonParty_1_1Shared_1_1ISlotGridConfig.html" target="_top" xlink:title="Slot grid layout: size, spacing, and origin offset.">
<polygon fill="white" stroke="#666666" points="330,-126 192,-126 192,-96 330,-96 330,-126"/>
<text text-anchor="start" x="200" y="-114" font-family="Helvetica,sans-Serif" font-size="10.00">BalloonParty.Shared.ISlot</text>
<text text-anchor="middle" x="261" y="-103" font-family="Helvetica,sans-Serif" font-size="10.00">GridConfig</text>
</a>
</g>
</g>
<!-- Node6&#45;&gt;Node3 -->
<g id="edge5_Node000003_Node000006" class="edge">
<title>Node6&#45;&gt;Node3</title>
<g id="a_edge5_Node000003_Node000006"><a xlink:title=" ">
<path fill="none" stroke="#9a32cd" stroke-dasharray="5,2" d="M340.23,-104.41C385.01,-100.64 440.5,-95.97 482.71,-92.41"/>
<polygon fill="#9a32cd" stroke="#9a32cd" points="339.94,-100.92 330.26,-105.25 340.52,-107.9 339.94,-100.92"/>
</a>
</g>
<text text-anchor="middle" x="398" y="-106" font-family="Helvetica,sans-Serif" font-size="10.00" fill="grey"> _config</text>
</g>
<!-- Node7 -->
<g id="Node000007" class="node">
<title>Node7</title>
<g id="a_Node000007"><a xlink:href="interfaceBalloonParty_1_1Slots_1_1Actor_1_1IWriteableSlotActor.html" target="_top" xlink:title=" ">
<polygon fill="white" stroke="#666666" points="328,-78 194,-78 194,-48 328,-48 328,-78"/>
<text text-anchor="start" x="202" y="-66" font-family="Helvetica,sans-Serif" font-size="10.00">BalloonParty.Slots.Actor.</text>
<text text-anchor="middle" x="261" y="-55" font-family="Helvetica,sans-Serif" font-size="10.00">IWriteableSlotActor</text>
</a>
</g>
</g>
<!-- Node7&#45;&gt;Node3 -->
<g id="edge6_Node000003_Node000007" class="edge">
<title>Node7&#45;&gt;Node3</title>
<g id="a_edge6_Node000003_Node000007"><a xlink:title=" ">
<path fill="none" stroke="#9a32cd" stroke-dasharray="5,2" d="M338.14,-69.41C383.27,-73.21 439.85,-77.98 482.73,-81.59"/>
<polygon fill="#9a32cd" stroke="#9a32cd" points="338.36,-65.92 328.1,-68.57 337.77,-72.89 338.36,-65.92"/>
</a>
</g>
<text text-anchor="middle" x="398" y="-81" font-family="Helvetica,sans-Serif" font-size="10.00" fill="grey"> _slots</text>
</g>
<!-- Node8 -->
<g id="Node000008" class="node">
<title>Node8</title>
<g id="a_Node000008"><a xlink:href="interfaceBalloonParty_1_1Slots_1_1Actor_1_1ISlotActor.html" target="_top" xlink:title=" ">
<polygon fill="white" stroke="#666666" points="144.5,-78 10.5,-78 10.5,-48 144.5,-48 144.5,-78"/>
<text text-anchor="start" x="18.5" y="-66" font-family="Helvetica,sans-Serif" font-size="10.00">BalloonParty.Slots.Actor.</text>
<text text-anchor="middle" x="77.5" y="-55" font-family="Helvetica,sans-Serif" font-size="10.00">ISlotActor</text>
</a>
</g>
</g>
<!-- Node8&#45;&gt;Node7 -->
<g id="edge7_Node000007_Node000008" class="edge">
<title>Node8&#45;&gt;Node7</title>
<g id="a_edge7_Node000007_Node000008"><a xlink:title=" ">
<path fill="none" stroke="#63b8ff" d="M154.8,-63C167.73,-63 181.06,-63 193.71,-63"/>
<polygon fill="#63b8ff" stroke="#63b8ff" points="154.54,-59.5 144.54,-63 154.54,-66.5 154.54,-59.5"/>
</a>
</g>
</g>
<!-- Node9 -->
<g id="Node000009" class="node">
<title>Node9</title>
<g id="a_Node000009"><a xlink:href="interfaceBalloonParty_1_1Slots_1_1Actor_1_1ISlotActorView.html" target="_top" xlink:title=" ">
<polygon fill="white" stroke="#666666" points="328,-30 194,-30 194,0 328,0 328,-30"/>
<text text-anchor="start" x="202" y="-18" font-family="Helvetica,sans-Serif" font-size="10.00">BalloonParty.Slots.Actor.</text>
<text text-anchor="middle" x="261" y="-7" font-family="Helvetica,sans-Serif" font-size="10.00">ISlotActorView</text>
</a>
</g>
</g>
<!-- Node9&#45;&gt;Node3 -->
<g id="edge8_Node000003_Node000009" class="edge">
<title>Node9&#45;&gt;Node3</title>
<g id="a_edge8_Node000003_Node000009"><a xlink:title=" ">
<path fill="none" stroke="#9a32cd" stroke-dasharray="5,2" d="M338.07,-29.55C371.91,-36.49 412.14,-45.38 448,-55 466.32,-59.92 486.26,-66.18 503.42,-71.87"/>
<polygon fill="#9a32cd" stroke="#9a32cd" points="338.74,-26.12 328.24,-27.56 337.34,-32.98 338.74,-26.12"/>
</a>
</g>
<text text-anchor="middle" x="398" y="-58" font-family="Helvetica,sans-Serif" font-size="10.00" fill="grey"> _views</text>
</g>
</g>
</svg>

<g id="navigator" transform="translate(0 0)" fill="#404254">
  <rect fill="#f2f5e9" fill-opacity="0.5" stroke="#606060" stroke-width=".5" x="0" y="0" width="60" height="60"/>
  <use id="zoomplus" xlink:href="#zoomPlus" x="17" y="9" onmousedown="handleZoom(evt,'in')"/>
  <use id="zoomminus" xlink:href="#zoomMin" x="42" y="9" onmousedown="handleZoom(evt,'out')"/>
  <use id="reset" xlink:href="#resetDef" x="30" y="36" onmousedown="handleReset()"/>
   <use id="arrowup" xlink:href="#arrowUp" x="0" y="0" onmousedown="handlePan(0,-1)"/>
  <use id="arrowright" xlink:href="#arrowRight" x="0" y="0" onmousedown="handlePan(1,0)"/>
  <use id="arrowdown" xlink:href="#arrowDown" x="0" y="0" onmousedown="handlePan(0,1)"/>
  <use id="arrowleft" xlink:href="#arrowLeft" x="0" y="0" onmousedown="handlePan(-1,0)"/>
</g>
<svg viewBox="0 0 15 15" width="100%" height="30px" preserveAspectRatio="xMaxYMin meet">
 <g id="arrow_out" transform="scale(0.3 0.3)">
  <a xlink:href="classBalloonParty_1_1Slots_1_1Grid_1_1SlotGridDeflectorField__coll__graph_org.svg" target="_base">
   <rect id="button" ry="5" rx="5" y="6" x="6" height="38" width="38"
        fill="#f2f5e9" fill-opacity="0.5" stroke="#606060" stroke-width="1.0"/>
   <path id="arrow"
     d="M 11.500037,31.436501 C 11.940474,20.09759 22.043105,11.32322 32.158766,21.979434 L 37.068811,17.246167 C 37.068811,17.246167 37.088388,32 37.088388,32 L 22.160133,31.978069 C 22.160133,31.978069 26.997745,27.140456 26.997745,27.140456 C 18.528582,18.264221 13.291696,25.230495 11.500037,31.436501 z"
     style="fill:#404040;"/>
  </a>
 </g>
</svg>

<style type='text/css'>
<![CDATA[
[data-mouse-over-selected='false'] { opacity: 0.7; }
[data-mouse-over-selected='true']  { opacity: 1.0; }
]]>
</style>
<script type="application/ecmascript"><![CDATA[
document.addEventListener('DOMContentLoaded', (event) => {
  highlightEdges();
  highlightAdjacentNodes();
});
]]></script>
</svg>
