<?xml version="1.0" encoding="UTF-8" standalone="no"?>
<!DOCTYPE svg PUBLIC "-//W3C//DTD SVG 1.1//EN"
 "http://www.w3.org/Graphics/SVG/1.1/DTD/svg11.dtd">
<!-- Generated by graphviz version 2.43.0 (0)
 -->
<!-- Title: BalloonParty.Item.Preview.ItemPreviewTicker Pages: 1 -->
<!--zoomable 352 -->

<svg id="main" version="1.1" xmlns="http://www.w3.org/2000/svg" xmlns:xlink="http://www.w3.org/1999/xlink" xml:space="preserve" onload="init(evt)">

<style type="text/css"><![CDATA[
.node, .edge {opacity: 0.7;}
.node.selected, .edge.selected {opacity: 1;}
.edge:hover path { stroke: red; }
.edge:hover polygon { stroke: red; fill: red; }
]]></style>

<defs>
  <circle id="rim" cx="0" cy="0" r="7"/>
  <circle id="rim2" cx="0" cy="0" r="3.5"/>
  <g id="zoomPlus">
    <use xlink:href="#rim" fill="#404040"><set attributeName="fill" to="#808080" begin="zoomplus.mouseover" end="zoomplus.mouseout"/></use>
    <path d="M-4,0h8M0,-4v8" fill="none" stroke="white" stroke-width="1.5" pointer-events="none"/>
  </g>
  <g id="zoomMin">
    <use xlink:href="#rim" fill="#404040"><set attributeName="fill" to="#808080" begin="zoomminus.mouseover" end="zoomminus.mouseout"/></use>
    <path d="M-4,0h8" fill="none" stroke="white" stroke-width="1.5" pointer-events="none"/>
  </g>
  <g id="arrowUp" transform="translate(30 24)">
    <use xlink:href="#rim"/>
    <path pointer-events="none" fill="none" stroke="white" stroke-width="1.5" d="M0,-3.0v7 M-2.5,-0.5L0,-3.0L2.5,-0.5"/>
  </g>
  <g id="arrowRight" transform="rotate(90) translate(36 -43)">
    <use xlink:href="#rim"/>
    <path pointer-events="none" fill="none" stroke="white" stroke-width="1.5" d="M0,-3.0v7 M-2.5,-0.5L0,-3.0L2.5,-0.5"/>
  </g>
  <g id="arrowDown" transform="rotate(180) translate(-30 -48)">
    <use xlink:href="#rim"/>
    <path pointer-events="none" fill="none" stroke="white" stroke-width="1.5" d="M0,-3.0v7 M-2.5,-0.5L0,-3.0L2.5,-0.5"/>
  </g>
  <g id="arrowLeft" transform="rotate(270) translate(-36 17)">
    <use xlink:href="#rim"/>
    <path pointer-events="none" fill="none" stroke="white" stroke-width="1.5" d="M0,-3.0v7 M-2.5,-0.5L0,-3.0L2.5,-0.5"/>
  </g>
  <g id="resetDef">
    <use xlink:href="#rim2" fill="#404040"><set attributeName="fill" to="#808080" begin="reset.mouseover" end="reset.mouseout"/></use>
  </g>
</defs>
<script type="application/ecmascript">
var viewWidth = 641;
var viewHeight = 352;
var sectionId = 'dynsection-1';
</script>
<script type="application/ecmascript" xlink:href="svg.min.js"/>
<svg id="graph" class="graph">
<g id="viewport">
<title>BalloonParty.Item.Preview.ItemPreviewTicker</title>
<!-- Node1 -->
<g id="Node000001" class="node">
<title>Node1</title>
<g id="a_Node000001"><a xlink:title="Drives the pens of the one visible item&#45;range figure, closed&#45;form off a single clock — no tweens,...">
<polygon fill="#999999" stroke="#666666" points="633,-199 487,-199 487,-169 633,-169 633,-199"/>
<text text-anchor="start" x="495" y="-187" font-family="Helvetica,sans-Serif" font-size="10.00">BalloonParty.Item.Preview.</text>
<text text-anchor="middle" x="560" y="-176" font-family="Helvetica,sans-Serif" font-size="10.00">ItemPreviewTicker</text>
</a>
</g>
</g>
<!-- Node2 -->
<g id="Node000002" class="node">
<title>Node2</title>
<g id="a_Node000002"><a xlink:title=" ">
<polygon fill="white" stroke="#666666" points="340.5,-343.5 259.5,-343.5 259.5,-324.5 340.5,-324.5 340.5,-343.5"/>
<text text-anchor="middle" x="300" y="-331.5" font-family="Helvetica,sans-Serif" font-size="10.00">ILateTickable</text>
</a>
</g>
</g>
<!-- Node2&#45;&gt;Node1 -->
<g id="edge1_Node000001_Node000002" class="edge">
<title>Node2&#45;&gt;Node1</title>
<g id="a_edge1_Node000001_Node000002"><a xlink:title=" ">
<path fill="none" stroke="#63b8ff" d="M350.53,-324.13C359.76,-321.81 369.26,-319.09 378,-316 420.35,-301.02 432.24,-297.82 469,-272 499.76,-250.4 529.81,-218.1 546.22,-199.23"/>
<polygon fill="#63b8ff" stroke="#63b8ff" points="349.57,-320.76 340.65,-326.49 351.19,-327.57 349.57,-320.76"/>
</a>
</g>
</g>
<!-- Node3 -->
<g id="Node000003" class="node">
<title>Node3</title>
<g id="a_Node000003"><a xlink:title=" ">
<polygon fill="white" stroke="#666666" points="337,-306.5 263,-306.5 263,-287.5 337,-287.5 337,-306.5"/>
<text text-anchor="middle" x="300" y="-294.5" font-family="Helvetica,sans-Serif" font-size="10.00">IDisposable</text>
</a>
</g>
</g>
<!-- Node3&#45;&gt;Node1 -->
<g id="edge2_Node000001_Node000003" class="edge">
<title>Node3&#45;&gt;Node1</title>
<g id="a_edge2_Node000001_Node000003"><a xlink:title=" ">
<path fill="none" stroke="#63b8ff" d="M347.23,-286.44C357.42,-283.88 368.12,-281 378,-278 419.16,-265.5 430.68,-264.55 469,-245 494.89,-231.79 522.2,-212.4 539.85,-199.04"/>
<polygon fill="#63b8ff" stroke="#63b8ff" points="346.13,-283.1 337.25,-288.89 347.8,-289.9 346.13,-283.1"/>
</a>
</g>
</g>
<!-- Node4 -->
<g id="Node000004" class="node">
<title>Node4</title>
<g id="a_Node000004"><a xlink:href="classBalloonParty_1_1Shared_1_1Pool_1_1PoolManager.html" target="_top" xlink:title=" ">
<polygon fill="white" stroke="#666666" points="370,-269 230,-269 230,-239 370,-239 370,-269"/>
<text text-anchor="start" x="238" y="-257" font-family="Helvetica,sans-Serif" font-size="10.00">BalloonParty.Shared.Pool.</text>
<text text-anchor="middle" x="300" y="-246" font-family="Helvetica,sans-Serif" font-size="10.00">PoolManager</text>
</a>
</g>
</g>
<!-- Node4&#45;&gt;Node1 -->
<g id="edge3_Node000001_Node000004" class="edge">
<title>Node4&#45;&gt;Node1</title>
<g id="a_edge3_Node000001_Node000004"><a xlink:title=" ">
<path fill="none" stroke="#9a32cd" stroke-dasharray="5,2" d="M374.45,-236.59C403.94,-229.36 438.18,-220.64 469,-212 483.18,-208.02 498.51,-203.38 512.44,-199.04"/>
<polygon fill="#9a32cd" stroke="#9a32cd" points="373.53,-233.22 364.65,-238.99 375.19,-240.02 373.53,-233.22"/>
</a>
</g>
<text text-anchor="middle" x="432.5" y="-233" font-family="Helvetica,sans-Serif" font-size="10.00" fill="grey"> _poolManager</text>
</g>
<!-- Node5 -->
<g id="Node000005" class="node">
<title>Node5</title>
<g id="a_Node000005"><a xlink:href="classBalloonParty_1_1Item_1_1Preview_1_1HighlightTrail.html" target="_top" xlink:title="One pen of an item&#45;range telegraph: a head sprite dragging a TrailRenderer ribbon,...">
<polygon fill="white" stroke="#666666" points="373,-221 227,-221 227,-191 373,-191 373,-221"/>
<text text-anchor="start" x="235" y="-209" font-family="Helvetica,sans-Serif" font-size="10.00">BalloonParty.Item.Preview.</text>
<text text-anchor="middle" x="300" y="-198" font-family="Helvetica,sans-Serif" font-size="10.00">HighlightTrail</text>
</a>
</g>
</g>
<!-- Node5&#45;&gt;Node1 -->
<g id="edge4_Node000001_Node000005" class="edge">
<title>Node5&#45;&gt;Node1</title>
<g id="a_edge4_Node000001_Node000005"><a xlink:title=" ">
<path fill="none" stroke="#9a32cd" stroke-dasharray="5,2" d="M383.37,-198.98C416.62,-196.14 454.66,-192.9 486.81,-190.16"/>
<polygon fill="#9a32cd" stroke="#9a32cd" points="382.88,-195.51 373.21,-199.84 383.47,-202.48 382.88,-195.51"/>
</a>
</g>
<text text-anchor="middle" x="432.5" y="-200" font-family="Helvetica,sans-Serif" font-size="10.00" fill="grey"> _penPrefab</text>
</g>
<!-- Node6 -->
<g id="Node000006" class="node">
<title>Node6</title>
<g id="a_Node000006"><a xlink:title=" ">
<polygon fill="white" stroke="#666666" points="120.5,-248.5 27.5,-248.5 27.5,-229.5 120.5,-229.5 120.5,-248.5"/>
<text text-anchor="middle" x="74" y="-236.5" font-family="Helvetica,sans-Serif" font-size="10.00">MonoBehaviour</text>
</a>
</g>
</g>
<!-- Node6&#45;&gt;Node5 -->
<g id="edge5_Node000005_Node000006" class="edge">
<title>Node6&#45;&gt;Node5</title>
<g id="a_edge5_Node000005_Node000006"><a xlink:title=" ">
<path fill="none" stroke="#63b8ff" d="M130.56,-230.82C159.56,-226.54 195.41,-221.26 226.56,-216.67"/>
<polygon fill="#63b8ff" stroke="#63b8ff" points="129.98,-227.36 120.6,-232.28 131,-234.29 129.98,-227.36"/>
</a>
</g>
</g>
<!-- Node7 -->
<g id="Node000007" class="node">
<title>Node7</title>
<g id="a_Node000007"><a xlink:href="interfaceBalloonParty_1_1Shared_1_1Pool_1_1IPoolable.html" target="_top" xlink:title=" ">
<polygon fill="white" stroke="#666666" points="144,-211 4,-211 4,-181 144,-181 144,-211"/>
<text text-anchor="start" x="12" y="-199" font-family="Helvetica,sans-Serif" font-size="10.00">BalloonParty.Shared.Pool.</text>
<text text-anchor="middle" x="74" y="-188" font-family="Helvetica,sans-Serif" font-size="10.00">IPoolable</text>
</a>
</g>
</g>
<!-- Node7&#45;&gt;Node5 -->
<g id="edge6_Node000005_Node000007" class="edge">
<title>Node7&#45;&gt;Node5</title>
<g id="a_edge6_Node000005_Node000007"><a xlink:title=" ">
<path fill="none" stroke="#63b8ff" d="M154.03,-199.53C177.69,-200.58 203.5,-201.74 226.7,-202.77"/>
<polygon fill="#63b8ff" stroke="#63b8ff" points="154.18,-196.03 144.04,-199.08 153.87,-203.02 154.18,-196.03"/>
</a>
</g>
</g>
<!-- Node8 -->
<g id="Node000008" class="node">
<title>Node8</title>
<g id="a_Node000008"><a xlink:href="interfaceBalloonParty_1_1Configuration_1_1IItemPreviewConfig.html" target="_top" xlink:title="Tuning for the aim&#45;time item range telegraph (Item Range Preview).">
<polygon fill="white" stroke="#666666" points="148,-162 0,-162 0,-132 148,-132 148,-162"/>
<text text-anchor="start" x="8" y="-150" font-family="Helvetica,sans-Serif" font-size="10.00">BalloonParty.Configuration.</text>
<text text-anchor="middle" x="74" y="-139" font-family="Helvetica,sans-Serif" font-size="10.00">IItemPreviewConfig</text>
</a>
</g>
</g>
<!-- Node8&#45;&gt;Node1 -->
<g id="edge7_Node000001_Node000008" class="edge">
<title>Node8&#45;&gt;Node1</title>
<g id="a_edge7_Node000001_Node000008"><a xlink:title=" ">
<path fill="none" stroke="#9a32cd" stroke-dasharray="5,2" d="M158.42,-153.38C250.99,-160.45 398.86,-171.76 486.69,-178.47"/>
<polygon fill="#9a32cd" stroke="#9a32cd" points="158.48,-149.87 148.25,-152.6 157.95,-156.85 158.48,-149.87"/>
</a>
</g>
<text text-anchor="middle" x="300" y="-172" font-family="Helvetica,sans-Serif" font-size="10.00" fill="grey"> _config</text>
</g>
<!-- Node9 -->
<g id="Node000009" class="node">
<title>Node9</title>
<g id="a_Node000009"><a xlink:href="classBalloonParty_1_1Item_1_1Preview_1_1ItemPreviewViewport.html" target="_top" xlink:title="Single shared owner of &quot;what is visible&quot; for the range&#45;preview figures — the camera&#45;derived world rec...">
<polygon fill="white" stroke="#666666" points="373,-126 227,-126 227,-96 373,-96 373,-126"/>
<text text-anchor="start" x="235" y="-114" font-family="Helvetica,sans-Serif" font-size="10.00">BalloonParty.Item.Preview.</text>
<text text-anchor="middle" x="300" y="-103" font-family="Helvetica,sans-Serif" font-size="10.00">ItemPreviewViewport</text>
</a>
</g>
</g>
<!-- Node8&#45;&gt;Node9 -->
<g id="edge9_Node000009_Node000008" class="edge">
<title>Node8&#45;&gt;Node9</title>
<g id="a_edge9_Node000009_Node000008"><a xlink:title=" ">
<path fill="none" stroke="#9a32cd" stroke-dasharray="5,2" d="M157.95,-133.67C180.56,-130.03 204.87,-126.13 226.83,-122.6"/>
<polygon fill="#9a32cd" stroke="#9a32cd" points="157.35,-130.22 148.04,-135.26 158.46,-137.13 157.35,-130.22"/>
</a>
</g>
<text text-anchor="middle" x="185" y="-136" font-family="Helvetica,sans-Serif" font-size="10.00" fill="grey"> _config</text>
</g>
<!-- Node9&#45;&gt;Node1 -->
<g id="edge8_Node000001_Node000009" class="edge">
<title>Node9&#45;&gt;Node1</title>
<g id="a_edge8_Node000001_Node000009"><a xlink:title=" ">
<path fill="none" stroke="#9a32cd" stroke-dasharray="5,2" d="M383.38,-118.28C411.05,-122.16 441.78,-128.06 469,-137 492.78,-144.81 517.87,-158.42 535.5,-168.99"/>
<polygon fill="#9a32cd" stroke="#9a32cd" points="383.71,-114.79 373.33,-116.94 382.78,-121.73 383.71,-114.79"/>
</a>
</g>
<text text-anchor="middle" x="432.5" y="-140" font-family="Helvetica,sans-Serif" font-size="10.00" fill="grey"> _viewport</text>
</g>
<!-- Node10 -->
<g id="Node000010" class="node">
<title>Node10</title>
<g id="a_Node000010"><a xlink:href="classBalloonParty_1_1Balloon_1_1BalloonContactRadii.html" target="_top" xlink:title="Per&#45;type contact radius, read once off the authored prefabs.">
<polygon fill="white" stroke="#666666" points="378,-78 222,-78 222,-48 378,-48 378,-78"/>
<text text-anchor="start" x="230" y="-66" font-family="Helvetica,sans-Serif" font-size="10.00">BalloonParty.Balloon.Balloon</text>
<text text-anchor="middle" x="300" y="-55" font-family="Helvetica,sans-Serif" font-size="10.00">ContactRadii</text>
</a>
</g>
</g>
<!-- Node10&#45;&gt;Node1 -->
<g id="edge10_Node000001_Node000010" class="edge">
<title>Node10&#45;&gt;Node1</title>
<g id="a_edge10_Node000001_Node000010"><a xlink:title=" ">
<path fill="none" stroke="#9a32cd" stroke-dasharray="5,2" d="M387.98,-77.2C414.92,-83.68 444.06,-92.94 469,-106 499.96,-122.21 529.26,-151.01 545.61,-168.71"/>
<polygon fill="#9a32cd" stroke="#9a32cd" points="388.7,-73.77 378.17,-74.93 387.12,-80.59 388.7,-73.77"/>
</a>
</g>
<text text-anchor="middle" x="432.5" y="-109" font-family="Helvetica,sans-Serif" font-size="10.00" fill="grey"> _balloonRadii</text>
</g>
<!-- Node11 -->
<g id="Node000011" class="node">
<title>Node11</title>
<g id="a_Node000011"><a xlink:href="classBalloonParty_1_1Item_1_1Preview_1_1ItemPreviewShape.html" target="_top" xlink:title="The figure one item&#39;s range draws, as a set of polylines.">
<polygon fill="white" stroke="#666666" points="373,-30 227,-30 227,0 373,0 373,-30"/>
<text text-anchor="start" x="235" y="-18" font-family="Helvetica,sans-Serif" font-size="10.00">BalloonParty.Item.Preview.</text>
<text text-anchor="middle" x="300" y="-7" font-family="Helvetica,sans-Serif" font-size="10.00">ItemPreviewShape</text>
</a>
</g>
</g>
<!-- Node11&#45;&gt;Node1 -->
<g id="edge11_Node000001_Node000011" class="edge">
<title>Node11&#45;&gt;Node1</title>
<g id="a_edge11_Node000001_Node000011"><a xlink:title=" ">
<path fill="none" stroke="#9a32cd" stroke-dasharray="5,2" d="M382.96,-28.42C411.94,-35.89 443.61,-47.4 469,-65 508.81,-92.6 538.48,-143.38 551.59,-168.74"/>
<polygon fill="#9a32cd" stroke="#9a32cd" points="383.79,-25.02 373.25,-26.03 382.12,-31.82 383.79,-25.02"/>
</a>
</g>
<text text-anchor="middle" x="432.5" y="-68" font-family="Helvetica,sans-Serif" font-size="10.00" fill="grey"> _shape</text>
</g>
</g>
</svg>

<g id="navigator" transform="translate(0 0)" fill="#404254">
  <rect fill="#f2f5e9" fill-opacity="0.5" stroke="#606060" stroke-width=".5" x="0" y="0" width="60" height="60"/>
  <use id="zoomplus" xlink:href="#zoomPlus" x="17" y="9" onmousedown="handleZoom(evt,'in')"/>
  <use id="zoomminus" xlink:href="#zoomMin" x="42" y="9" onmousedown="handleZoom(evt,'out')"/>
  <use id="reset" xlink:href="#resetDef" x="30" y="36" onmousedown="handleReset()"/>
   <use id="arrowup" xlink:href="#arrowUp" x="0" y="0" onmousedown="handlePan(0,-1)"/>
  <use id="arrowright" xlink:href="#arrowRight" x="0" y="0" onmousedown="handlePan(1,0)"/>
  <use id="arrowdown" xlink:href="#arrowDown" x="0" y="0" onmousedown="handlePan(0,1)"/>
  <use id="arrowleft" xlink:href="#arrowLeft" x="0" y="0" onmousedown="handlePan(-1,0)"/>
</g>
<svg viewBox="0 0 15 15" width="100%" height="30px" preserveAspectRatio="xMaxYMin meet">
 <g id="arrow_out" transform="scale(0.3 0.3)">
  <a xlink:href="classBalloonParty_1_1Item_1_1Preview_1_1ItemPreviewTicker__coll__graph_org.svg" target="_base">
   <rect id="button" ry="5" rx="5" y="6" x="6" height="38" width="38"
        fill="#f2f5e9" fill-opacity="0.5" stroke="#606060" stroke-width="1.0"/>
   <path id="arrow"
     d="M 11.500037,31.436501 C 11.940474,20.09759 22.043105,11.32322 32.158766,21.979434 L 37.068811,17.246167 C 37.068811,17.246167 37.088388,32 37.088388,32 L 22.160133,31.978069 C 22.160133,31.978069 26.997745,27.140456 26.997745,27.140456 C 18.528582,18.264221 13.291696,25.230495 11.500037,31.436501 z"
     style="fill:#404040;"/>
  </a>
 </g>
</svg>

<style type='text/css'>
<![CDATA[
[data-mouse-over-selected='false'] { opacity: 0.7; }
[data-mouse-over-selected='true']  { opacity: 1.0; }
]]>
</style>
<script type="application/ecmascript"><![CDATA[
document.addEventListener('DOMContentLoaded', (event) => {
  highlightEdges();
  highlightAdjacentNodes();
});
]]></script>
</svg>
