<?xml version="1.0" encoding="UTF-8" standalone="no"?>
<!DOCTYPE svg PUBLIC "-//W3C//DTD SVG 1.1//EN"
 "http://www.w3.org/Graphics/SVG/1.1/DTD/svg11.dtd">
<!-- Generated by graphviz version 2.43.0 (0)
 -->
<!-- Title: BalloonParty.Slots.Actor.StaticActorSpawner Pages: 1 -->
<!--zoomable 354 -->

<svg id="main" version="1.1" xmlns="http://www.w3.org/2000/svg" xmlns:xlink="http://www.w3.org/1999/xlink" xml:space="preserve" onload="init(evt)">

<style type="text/css"><![CDATA[
.node, .edge {opacity: 0.7;}
.node.selected, .edge.selected {opacity: 1;}
.edge:hover path { stroke: red; }
.edge:hover polygon { stroke: red; fill: red; }
]]></style>

<defs>
  <circle id="rim" cx="0" cy="0" r="7"/>
  <circle id="rim2" cx="0" cy="0" r="3.5"/>
  <g id="zoomPlus">
    <use xlink:href="#rim" fill="#404040"><set attributeName="fill" to="#808080" begin="zoomplus.mouseover" end="zoomplus.mouseout"/></use>
    <path d="M-4,0h8M0,-4v8" fill="none" stroke="white" stroke-width="1.5" pointer-events="none"/>
  </g>
  <g id="zoomMin">
    <use xlink:href="#rim" fill="#404040"><set attributeName="fill" to="#808080" begin="zoomminus.mouseover" end="zoomminus.mouseout"/></use>
    <path d="M-4,0h8" fill="none" stroke="white" stroke-width="1.5" pointer-events="none"/>
  </g>
  <g id="arrowUp" transform="translate(30 24)">
    <use xlink:href="#rim"/>
    <path pointer-events="none" fill="none" stroke="white" stroke-width="1.5" d="M0,-3.0v7 M-2.5,-0.5L0,-3.0L2.5,-0.5"/>
  </g>
  <g id="arrowRight" transform="rotate(90) translate(36 -43)">
    <use xlink:href="#rim"/>
    <path pointer-events="none" fill="none" stroke="white" stroke-width="1.5" d="M0,-3.0v7 M-2.5,-0.5L0,-3.0L2.5,-0.5"/>
  </g>
  <g id="arrowDown" transform="rotate(180) translate(-30 -48)">
    <use xlink:href="#rim"/>
    <path pointer-events="none" fill="none" stroke="white" stroke-width="1.5" d="M0,-3.0v7 M-2.5,-0.5L0,-3.0L2.5,-0.5"/>
  </g>
  <g id="arrowLeft" transform="rotate(270) translate(-36 17)">
    <use xlink:href="#rim"/>
    <path pointer-events="none" fill="none" stroke="white" stroke-width="1.5" d="M0,-3.0v7 M-2.5,-0.5L0,-3.0L2.5,-0.5"/>
  </g>
  <g id="resetDef">
    <use xlink:href="#rim2" fill="#404040"><set attributeName="fill" to="#808080" begin="reset.mouseover" end="reset.mouseout"/></use>
  </g>
</defs>
<script type="application/ecmascript">
var viewWidth = 913;
var viewHeight = 354;
var sectionId = 'dynsection-1';
</script>
<script type="application/ecmascript" xlink:href="svg.min.js"/>
<svg id="graph" class="graph">
<g id="viewport">
<title>BalloonParty.Slots.Actor.StaticActorSpawner</title>
<!-- Node1 -->
<g id="Node000001" class="node">
<title>Node1</title>
<g id="a_Node000001"><a xlink:title=" ">
<polygon fill="#999999" stroke="#666666" points="905,-201 771,-201 771,-171 905,-171 905,-201"/>
<text text-anchor="start" x="779" y="-189" font-family="Helvetica,sans-Serif" font-size="10.00">BalloonParty.Slots.Actor.</text>
<text text-anchor="middle" x="838" y="-178" font-family="Helvetica,sans-Serif" font-size="10.00">StaticActorSpawner</text>
</a>
</g>
</g>
<!-- Node2 -->
<g id="Node000002" class="node">
<title>Node2</title>
<g id="a_Node000002"><a xlink:title=" ">
<polygon fill="white" stroke="#666666" points="590.5,-345.5 526.5,-345.5 526.5,-326.5 590.5,-326.5 590.5,-345.5"/>
<text text-anchor="middle" x="558.5" y="-333.5" font-family="Helvetica,sans-Serif" font-size="10.00">IStartable</text>
</a>
</g>
</g>
<!-- Node2&#45;&gt;Node1 -->
<g id="edge1_Node000001_Node000002" class="edge">
<title>Node2&#45;&gt;Node1</title>
<g id="a_edge1_Node000001_Node000002"><a xlink:title=" ">
<path fill="none" stroke="#63b8ff" d="M600.86,-333.89C642.33,-330.05 706.53,-319.26 753,-289 788.19,-266.08 815.8,-223.69 828.82,-201.1"/>
<polygon fill="#63b8ff" stroke="#63b8ff" points="600.5,-330.41 590.83,-334.73 601.08,-337.39 600.5,-330.41"/>
</a>
</g>
</g>
<!-- Node3 -->
<g id="Node000003" class="node">
<title>Node3</title>
<g id="a_Node000003"><a xlink:href="interfaceBalloonParty_1_1Slots_1_1Spawner_1_1IGridSpawner.html" target="_top" xlink:title=" ">
<polygon fill="white" stroke="#666666" points="634,-308 483,-308 483,-278 634,-278 634,-308"/>
<text text-anchor="start" x="491" y="-296" font-family="Helvetica,sans-Serif" font-size="10.00">BalloonParty.Slots.Spawner.</text>
<text text-anchor="middle" x="558.5" y="-285" font-family="Helvetica,sans-Serif" font-size="10.00">IGridSpawner</text>
</a>
</g>
</g>
<!-- Node3&#45;&gt;Node1 -->
<g id="edge2_Node000001_Node000003" class="edge">
<title>Node3&#45;&gt;Node1</title>
<g id="a_edge2_Node000001_Node000003"><a xlink:title=" ">
<path fill="none" stroke="#63b8ff" d="M644.42,-291.2C679.44,-287.73 719.57,-280.09 753,-264 783.66,-249.24 810.84,-219.4 825.51,-201.21"/>
<polygon fill="#63b8ff" stroke="#63b8ff" points="643.86,-287.74 634.21,-292.11 644.48,-294.71 643.86,-287.74"/>
</a>
</g>
</g>
<!-- Node4 -->
<g id="Node000004" class="node">
<title>Node4</title>
<g id="a_Node000004"><a xlink:title=" ">
<polygon fill="white" stroke="#666666" points="298,-259.5 224,-259.5 224,-240.5 298,-240.5 298,-259.5"/>
<text text-anchor="middle" x="261" y="-247.5" font-family="Helvetica,sans-Serif" font-size="10.00">IDisposable</text>
</a>
</g>
</g>
<!-- Node4&#45;&gt;Node1 -->
<g id="edge3_Node000001_Node000004" class="edge">
<title>Node4&#45;&gt;Node1</title>
<g id="a_edge3_Node000001_Node000004"><a xlink:title=" ">
<path fill="none" stroke="#63b8ff" d="M308.26,-251.61C396.28,-253.55 593.33,-252.55 753,-213 766.53,-209.65 781.06,-205.27 794.16,-201.01"/>
<polygon fill="#63b8ff" stroke="#63b8ff" points="308.16,-248.1 298.07,-251.36 307.99,-255.1 308.16,-248.1"/>
</a>
</g>
</g>
<!-- Node15 -->
<g id="Node000015" class="node">
<title>Node15</title>
<g id="a_Node000015"><a xlink:href="classBalloonParty_1_1Slots_1_1Actor_1_1ScenarioContentRoot.html" target="_top" xlink:title="Parent transform for scenario static content; the Ascent transition moves this root,...">
<polygon fill="white" stroke="#666666" points="625.5,-222 491.5,-222 491.5,-192 625.5,-192 625.5,-222"/>
<text text-anchor="start" x="499.5" y="-210" font-family="Helvetica,sans-Serif" font-size="10.00">BalloonParty.Slots.Actor.</text>
<text text-anchor="middle" x="558.5" y="-199" font-family="Helvetica,sans-Serif" font-size="10.00">ScenarioContentRoot</text>
</a>
</g>
</g>
<!-- Node4&#45;&gt;Node15 -->
<g id="edge15_Node000015_Node000004" class="edge">
<title>Node4&#45;&gt;Node15</title>
<g id="a_edge15_Node000015_Node000004"><a xlink:title=" ">
<path fill="none" stroke="#63b8ff" d="M308.4,-242.92C321.23,-240.98 335.15,-238.89 348,-237 395.98,-229.94 450.18,-222.18 491.43,-216.33"/>
<polygon fill="#63b8ff" stroke="#63b8ff" points="307.76,-239.48 298.4,-244.43 308.81,-246.4 307.76,-239.48"/>
</a>
</g>
</g>
<!-- Node5 -->
<g id="Node000005" class="node">
<title>Node5</title>
<g id="a_Node000005"><a xlink:href="classBalloonParty_1_1Slots_1_1Grid_1_1SlotGrid.html" target="_top" xlink:title=" ">
<polygon fill="white" stroke="#666666" points="623.5,-174 493.5,-174 493.5,-144 623.5,-144 623.5,-174"/>
<text text-anchor="start" x="501.5" y="-162" font-family="Helvetica,sans-Serif" font-size="10.00">BalloonParty.Slots.Grid.</text>
<text text-anchor="middle" x="558.5" y="-151" font-family="Helvetica,sans-Serif" font-size="10.00">SlotGrid</text>
</a>
</g>
</g>
<!-- Node5&#45;&gt;Node1 -->
<g id="edge4_Node000001_Node000005" class="edge">
<title>Node5&#45;&gt;Node1</title>
<g id="a_edge4_Node000001_Node000005"><a xlink:title=" ">
<path fill="none" stroke="#9a32cd" stroke-dasharray="5,2" d="M633.99,-165.68C669.96,-168.97 713.74,-173.07 753,-177 758.84,-177.58 764.9,-178.21 770.98,-178.84"/>
<polygon fill="#9a32cd" stroke="#9a32cd" points="633.86,-162.16 623.58,-164.73 633.22,-169.13 633.86,-162.16"/>
</a>
</g>
<text text-anchor="middle" x="711" y="-180" font-family="Helvetica,sans-Serif" font-size="10.00" fill="grey"> _grid</text>
</g>
<!-- Node6 -->
<g id="Node000006" class="node">
<title>Node6</title>
<g id="a_Node000006"><a xlink:href="classBalloonParty_1_1Slots_1_1Grid_1_1BalancePathHolder.html" target="_top" xlink:title="Tracks slots in&#45;transit from balance animations so spawn paths avoid them.">
<polygon fill="white" stroke="#666666" points="326,-222 196,-222 196,-192 326,-192 326,-222"/>
<text text-anchor="start" x="204" y="-210" font-family="Helvetica,sans-Serif" font-size="10.00">BalloonParty.Slots.Grid.</text>
<text text-anchor="middle" x="261" y="-199" font-family="Helvetica,sans-Serif" font-size="10.00">BalancePathHolder</text>
</a>
</g>
</g>
<!-- Node6&#45;&gt;Node5 -->
<g id="edge5_Node000005_Node000006" class="edge">
<title>Node6&#45;&gt;Node5</title>
<g id="a_edge5_Node000005_Node000006"><a xlink:title=" ">
<path fill="none" stroke="#9a32cd" stroke-dasharray="5,2" d="M336.21,-194.95C384.57,-187.09 447.03,-176.94 493.25,-169.44"/>
<polygon fill="#9a32cd" stroke="#9a32cd" points="335.43,-191.53 326.12,-196.58 336.55,-198.44 335.43,-191.53"/>
</a>
</g>
<text text-anchor="middle" x="398" y="-195" font-family="Helvetica,sans-Serif" font-size="10.00" fill="grey"> _balancePathHolder</text>
</g>
<!-- Node7 -->
<g id="Node000007" class="node">
<title>Node7</title>
<g id="a_Node000007"><a xlink:href="interfaceBalloonParty_1_1Game_1_1Run_1_1IRunResettable.html" target="_top" xlink:title="RunController invokes implementations in ascending ResetOrder, lower first.">
<polygon fill="white" stroke="#666666" points="155,-222 0,-222 0,-192 155,-192 155,-222"/>
<text text-anchor="start" x="8" y="-210" font-family="Helvetica,sans-Serif" font-size="10.00">BalloonParty.Game.Run.IRun</text>
<text text-anchor="middle" x="77.5" y="-199" font-family="Helvetica,sans-Serif" font-size="10.00">Resettable</text>
</a>
</g>
</g>
<!-- Node7&#45;&gt;Node6 -->
<g id="edge6_Node000006_Node000007" class="edge">
<title>Node7&#45;&gt;Node6</title>
<g id="a_edge6_Node000006_Node000007"><a xlink:title=" ">
<path fill="none" stroke="#63b8ff" d="M165.43,-207C175.69,-207 186.02,-207 195.88,-207"/>
<polygon fill="#63b8ff" stroke="#63b8ff" points="165.21,-203.5 155.21,-207 165.21,-210.5 165.21,-203.5"/>
</a>
</g>
</g>
<!-- Node8 -->
<g id="Node000008" class="node">
<title>Node8</title>
<g id="a_Node000008"><a xlink:href="interfaceBalloonParty_1_1Shared_1_1ISlotGridConfig.html" target="_top" xlink:title="Slot grid layout: size, spacing, and origin offset.">
<polygon fill="white" stroke="#666666" points="330,-174 192,-174 192,-144 330,-144 330,-174"/>
<text text-anchor="start" x="200" y="-162" font-family="Helvetica,sans-Serif" font-size="10.00">BalloonParty.Shared.ISlot</text>
<text text-anchor="middle" x="261" y="-151" font-family="Helvetica,sans-Serif" font-size="10.00">GridConfig</text>
</a>
</g>
</g>
<!-- Node8&#45;&gt;Node5 -->
<g id="edge7_Node000005_Node000008" class="edge">
<title>Node8&#45;&gt;Node5</title>
<g id="a_edge7_Node000005_Node000008"><a xlink:title=" ">
<path fill="none" stroke="#9a32cd" stroke-dasharray="5,2" d="M340.45,-159C388.17,-159 448.34,-159 493.22,-159"/>
<polygon fill="#9a32cd" stroke="#9a32cd" points="340.16,-155.5 330.16,-159 340.16,-162.5 340.16,-155.5"/>
</a>
</g>
<text text-anchor="middle" x="398" y="-162" font-family="Helvetica,sans-Serif" font-size="10.00" fill="grey"> _config</text>
</g>
<!-- Node9 -->
<g id="Node000009" class="node">
<title>Node9</title>
<g id="a_Node000009"><a xlink:href="interfaceBalloonParty_1_1Slots_1_1Actor_1_1IWriteableSlotActor.html" target="_top" xlink:title=" ">
<polygon fill="white" stroke="#666666" points="328,-126 194,-126 194,-96 328,-96 328,-126"/>
<text text-anchor="start" x="202" y="-114" font-family="Helvetica,sans-Serif" font-size="10.00">BalloonParty.Slots.Actor.</text>
<text text-anchor="middle" x="261" y="-103" font-family="Helvetica,sans-Serif" font-size="10.00">IWriteableSlotActor</text>
</a>
</g>
</g>
<!-- Node9&#45;&gt;Node5 -->
<g id="edge8_Node000005_Node000009" class="edge">
<title>Node9&#45;&gt;Node5</title>
<g id="a_edge8_Node000005_Node000009"><a xlink:title=" ">
<path fill="none" stroke="#9a32cd" stroke-dasharray="5,2" d="M338.37,-123.41C386.48,-131.22 447.88,-141.19 493.43,-148.59"/>
<polygon fill="#9a32cd" stroke="#9a32cd" points="338.75,-119.92 328.32,-121.77 337.63,-126.83 338.75,-119.92"/>
</a>
</g>
<text text-anchor="middle" x="398" y="-143" font-family="Helvetica,sans-Serif" font-size="10.00" fill="grey"> _slots</text>
</g>
<!-- Node10 -->
<g id="Node000010" class="node">
<title>Node10</title>
<g id="a_Node000010"><a xlink:href="interfaceBalloonParty_1_1Slots_1_1Actor_1_1ISlotActor.html" target="_top" xlink:title=" ">
<polygon fill="white" stroke="#666666" points="144.5,-126 10.5,-126 10.5,-96 144.5,-96 144.5,-126"/>
<text text-anchor="start" x="18.5" y="-114" font-family="Helvetica,sans-Serif" font-size="10.00">BalloonParty.Slots.Actor.</text>
<text text-anchor="middle" x="77.5" y="-103" font-family="Helvetica,sans-Serif" font-size="10.00">ISlotActor</text>
</a>
</g>
</g>
<!-- Node10&#45;&gt;Node9 -->
<g id="edge9_Node000009_Node000010" class="edge">
<title>Node10&#45;&gt;Node9</title>
<g id="a_edge9_Node000009_Node000010"><a xlink:title=" ">
<path fill="none" stroke="#63b8ff" d="M154.8,-111C167.73,-111 181.06,-111 193.71,-111"/>
<polygon fill="#63b8ff" stroke="#63b8ff" points="154.54,-107.5 144.54,-111 154.54,-114.5 154.54,-107.5"/>
</a>
</g>
</g>
<!-- Node11 -->
<g id="Node000011" class="node">
<title>Node11</title>
<g id="a_Node000011"><a xlink:href="interfaceBalloonParty_1_1Slots_1_1Actor_1_1ISlotActorView.html" target="_top" xlink:title=" ">
<polygon fill="white" stroke="#666666" points="328,-78 194,-78 194,-48 328,-48 328,-78"/>
<text text-anchor="start" x="202" y="-66" font-family="Helvetica,sans-Serif" font-size="10.00">BalloonParty.Slots.Actor.</text>
<text text-anchor="middle" x="261" y="-55" font-family="Helvetica,sans-Serif" font-size="10.00">ISlotActorView</text>
</a>
</g>
</g>
<!-- Node11&#45;&gt;Node5 -->
<g id="edge10_Node000005_Node000011" class="edge">
<title>Node11&#45;&gt;Node5</title>
<g id="a_edge10_Node000005_Node000011"><a xlink:title=" ">
<path fill="none" stroke="#9a32cd" stroke-dasharray="5,2" d="M338.04,-70.07C373.83,-76.3 415.65,-88 448,-110 459.32,-117.7 454.71,-127.25 466,-135 474.26,-140.67 483.78,-145 493.49,-148.31"/>
<polygon fill="#9a32cd" stroke="#9a32cd" points="338.55,-66.61 328.12,-68.45 337.43,-73.52 338.55,-66.61"/>
</a>
</g>
<text text-anchor="middle" x="398" y="-113" font-family="Helvetica,sans-Serif" font-size="10.00" fill="grey"> _views</text>
</g>
<!-- Node12 -->
<g id="Node000012" class="node">
<title>Node12</title>
<g id="a_Node000012"><a xlink:href="classBalloonParty_1_1Shared_1_1Pool_1_1PoolManager.html" target="_top" xlink:title=" ">
<polygon fill="white" stroke="#666666" points="628.5,-126 488.5,-126 488.5,-96 628.5,-96 628.5,-126"/>
<text text-anchor="start" x="496.5" y="-114" font-family="Helvetica,sans-Serif" font-size="10.00">BalloonParty.Shared.Pool.</text>
<text text-anchor="middle" x="558.5" y="-103" font-family="Helvetica,sans-Serif" font-size="10.00">PoolManager</text>
</a>
</g>
</g>
<!-- Node12&#45;&gt;Node1 -->
<g id="edge11_Node000001_Node000012" class="edge">
<title>Node12&#45;&gt;Node1</title>
<g id="a_edge11_Node000001_Node000012"><a xlink:title=" ">
<path fill="none" stroke="#9a32cd" stroke-dasharray="5,2" d="M638.87,-125.92C674.13,-133.25 715.95,-142.89 753,-154 768.99,-158.8 786.29,-165.17 801.01,-170.97"/>
<polygon fill="#9a32cd" stroke="#9a32cd" points="639.13,-122.4 628.63,-123.82 637.73,-129.26 639.13,-122.4"/>
</a>
</g>
<text text-anchor="middle" x="711" y="-157" font-family="Helvetica,sans-Serif" font-size="10.00" fill="grey"> _poolManager</text>
</g>
<!-- Node13 -->
<g id="Node000013" class="node">
<title>Node13</title>
<g id="a_Node000013"><a xlink:href="interfaceBalloonParty_1_1Configuration_1_1GridActors_1_1IGridActorConfiguration.html" target="_top" xlink:title=" ">
<polygon fill="white" stroke="#666666" points="651,-78 466,-78 466,-48 651,-48 651,-78"/>
<text text-anchor="start" x="474" y="-66" font-family="Helvetica,sans-Serif" font-size="10.00">BalloonParty.Configuration.</text>
<text text-anchor="middle" x="558.5" y="-55" font-family="Helvetica,sans-Serif" font-size="10.00">GridActors.IGridActorConfiguration</text>
</a>
</g>
</g>
<!-- Node13&#45;&gt;Node1 -->
<g id="edge12_Node000001_Node000013" class="edge">
<title>Node13&#45;&gt;Node1</title>
<g id="a_edge12_Node000001_Node000013"><a xlink:title=" ">
<path fill="none" stroke="#9a32cd" stroke-dasharray="5,2" d="M650.78,-80.54C684.14,-89.09 721.41,-101.24 753,-118 779.85,-132.25 806.36,-155.69 822.2,-170.99"/>
<polygon fill="#9a32cd" stroke="#9a32cd" points="651.57,-77.13 641.02,-78.11 649.88,-83.92 651.57,-77.13"/>
</a>
</g>
<text text-anchor="middle" x="711" y="-121" font-family="Helvetica,sans-Serif" font-size="10.00" fill="grey"> _gridActorConfig</text>
</g>
<!-- Node14 -->
<g id="Node000014" class="node">
<title>Node14</title>
<g id="a_Node000014"><a xlink:href="interfaceBalloonParty_1_1Game_1_1Level_1_1IActiveLevelParameters.html" target="_top" xlink:title="Single read surface for the live per&#45;level difficulty mix; never read ILevelPacingConfiguration direc...">
<polygon fill="white" stroke="#666666" points="629,-30 488,-30 488,0 629,0 629,-30"/>
<text text-anchor="start" x="496" y="-18" font-family="Helvetica,sans-Serif" font-size="10.00">BalloonParty.Game.Level.</text>
<text text-anchor="middle" x="558.5" y="-7" font-family="Helvetica,sans-Serif" font-size="10.00">IActiveLevelParameters</text>
</a>
</g>
</g>
<!-- Node14&#45;&gt;Node1 -->
<g id="edge13_Node000001_Node000014" class="edge">
<title>Node14&#45;&gt;Node1</title>
<g id="a_edge13_Node000001_Node000014"><a xlink:title=" ">
<path fill="none" stroke="#9a32cd" stroke-dasharray="5,2" d="M639.25,-25.97C676.45,-34.07 719.74,-48.04 753,-72 789.9,-98.59 817.34,-146.28 829.72,-170.69"/>
<polygon fill="#9a32cd" stroke="#9a32cd" points="639.94,-22.54 629.43,-23.94 638.51,-29.39 639.94,-22.54"/>
</a>
</g>
<text text-anchor="middle" x="711" y="-75" font-family="Helvetica,sans-Serif" font-size="10.00" fill="grey"> _levelParams</text>
</g>
<!-- Node15&#45;&gt;Node1 -->
<g id="edge14_Node000001_Node000015" class="edge">
<title>Node15&#45;&gt;Node1</title>
<g id="a_edge14_Node000001_Node000015"><a xlink:title=" ">
<path fill="none" stroke="#9a32cd" stroke-dasharray="5,2" d="M635.61,-201.24C677.99,-198.03 730.25,-194.08 770.91,-191"/>
<polygon fill="#9a32cd" stroke="#9a32cd" points="635.32,-197.75 625.62,-202 635.85,-204.73 635.32,-197.75"/>
</a>
</g>
<text text-anchor="middle" x="711" y="-201" font-family="Helvetica,sans-Serif" font-size="10.00" fill="grey"> _scenarioRoot</text>
</g>
</g>
</svg>

<g id="navigator" transform="translate(0 0)" fill="#404254">
  <rect fill="#f2f5e9" fill-opacity="0.5" stroke="#606060" stroke-width=".5" x="0" y="0" width="60" height="60"/>
  <use id="zoomplus" xlink:href="#zoomPlus" x="17" y="9" onmousedown="handleZoom(evt,'in')"/>
  <use id="zoomminus" xlink:href="#zoomMin" x="42" y="9" onmousedown="handleZoom(evt,'out')"/>
  <use id="reset" xlink:href="#resetDef" x="30" y="36" onmousedown="handleReset()"/>
   <use id="arrowup" xlink:href="#arrowUp" x="0" y="0" onmousedown="handlePan(0,-1)"/>
  <use id="arrowright" xlink:href="#arrowRight" x="0" y="0" onmousedown="handlePan(1,0)"/>
  <use id="arrowdown" xlink:href="#arrowDown" x="0" y="0" onmousedown="handlePan(0,1)"/>
  <use id="arrowleft" xlink:href="#arrowLeft" x="0" y="0" onmousedown="handlePan(-1,0)"/>
</g>
<svg viewBox="0 0 15 15" width="100%" height="30px" preserveAspectRatio="xMaxYMin meet">
 <g id="arrow_out" transform="scale(0.3 0.3)">
  <a xlink:href="classBalloonParty_1_1Slots_1_1Actor_1_1StaticActorSpawner__coll__graph_org.svg" target="_base">
   <rect id="button" ry="5" rx="5" y="6" x="6" height="38" width="38"
        fill="#f2f5e9" fill-opacity="0.5" stroke="#606060" stroke-width="1.0"/>
   <path id="arrow"
     d="M 11.500037,31.436501 C 11.940474,20.09759 22.043105,11.32322 32.158766,21.979434 L 37.068811,17.246167 C 37.068811,17.246167 37.088388,32 37.088388,32 L 22.160133,31.978069 C 22.160133,31.978069 26.997745,27.140456 26.997745,27.140456 C 18.528582,18.264221 13.291696,25.230495 11.500037,31.436501 z"
     style="fill:#404040;"/>
  </a>
 </g>
</svg>

<style type='text/css'>
<![CDATA[
[data-mouse-over-selected='false'] { opacity: 0.7; }
[data-mouse-over-selected='true']  { opacity: 1.0; }
]]>
</style>
<script type="application/ecmascript"><![CDATA[
document.addEventListener('DOMContentLoaded', (event) => {
  highlightEdges();
  highlightAdjacentNodes();
});
]]></script>
</svg>
