<?xml version="1.0" encoding="UTF-8" standalone="no"?>
<!DOCTYPE svg PUBLIC "-//W3C//DTD SVG 1.1//EN"
 "http://www.w3.org/Graphics/SVG/1.1/DTD/svg11.dtd">
<!-- Generated by graphviz version 2.43.0 (0)
 -->
<!-- Title: BalloonParty.Audio.Routing.CombatSoundRouter Pages: 1 -->
<!--zoomable 298 -->

<svg id="main" version="1.1" xmlns="http://www.w3.org/2000/svg" xmlns:xlink="http://www.w3.org/1999/xlink" xml:space="preserve" onload="init(evt)">

<style type="text/css"><![CDATA[
.node, .edge {opacity: 0.7;}
.node.selected, .edge.selected {opacity: 1;}
.edge:hover path { stroke: red; }
.edge:hover polygon { stroke: red; fill: red; }
]]></style>

<defs>
  <circle id="rim" cx="0" cy="0" r="7"/>
  <circle id="rim2" cx="0" cy="0" r="3.5"/>
  <g id="zoomPlus">
    <use xlink:href="#rim" fill="#404040"><set attributeName="fill" to="#808080" begin="zoomplus.mouseover" end="zoomplus.mouseout"/></use>
    <path d="M-4,0h8M0,-4v8" fill="none" stroke="white" stroke-width="1.5" pointer-events="none"/>
  </g>
  <g id="zoomMin">
    <use xlink:href="#rim" fill="#404040"><set attributeName="fill" to="#808080" begin="zoomminus.mouseover" end="zoomminus.mouseout"/></use>
    <path d="M-4,0h8" fill="none" stroke="white" stroke-width="1.5" pointer-events="none"/>
  </g>
  <g id="arrowUp" transform="translate(30 24)">
    <use xlink:href="#rim"/>
    <path pointer-events="none" fill="none" stroke="white" stroke-width="1.5" d="M0,-3.0v7 M-2.5,-0.5L0,-3.0L2.5,-0.5"/>
  </g>
  <g id="arrowRight" transform="rotate(90) translate(36 -43)">
    <use xlink:href="#rim"/>
    <path pointer-events="none" fill="none" stroke="white" stroke-width="1.5" d="M0,-3.0v7 M-2.5,-0.5L0,-3.0L2.5,-0.5"/>
  </g>
  <g id="arrowDown" transform="rotate(180) translate(-30 -48)">
    <use xlink:href="#rim"/>
    <path pointer-events="none" fill="none" stroke="white" stroke-width="1.5" d="M0,-3.0v7 M-2.5,-0.5L0,-3.0L2.5,-0.5"/>
  </g>
  <g id="arrowLeft" transform="rotate(270) translate(-36 17)">
    <use xlink:href="#rim"/>
    <path pointer-events="none" fill="none" stroke="white" stroke-width="1.5" d="M0,-3.0v7 M-2.5,-0.5L0,-3.0L2.5,-0.5"/>
  </g>
  <g id="resetDef">
    <use xlink:href="#rim2" fill="#404040"><set attributeName="fill" to="#808080" begin="reset.mouseover" end="reset.mouseout"/></use>
  </g>
</defs>
<script type="application/ecmascript">
var viewWidth = 646;
var viewHeight = 298;
var sectionId = 'dynsection-1';
</script>
<script type="application/ecmascript" xlink:href="svg.min.js"/>
<svg id="graph" class="graph">
<g id="viewport">
<title>BalloonParty.Audio.Routing.CombatSoundRouter</title>
<!-- Node1 -->
<g id="Node000001" class="node">
<title>Node1</title>
<g id="a_Node000001"><a xlink:title=" ">
<polygon fill="#999999" stroke="#666666" points="638,-191 487,-191 487,-161 638,-161 638,-191"/>
<text text-anchor="start" x="495" y="-179" font-family="Helvetica,sans-Serif" font-size="10.00">BalloonParty.Audio.Routing.</text>
<text text-anchor="middle" x="562.5" y="-168" font-family="Helvetica,sans-Serif" font-size="10.00">CombatSoundRouter</text>
</a>
</g>
</g>
<!-- Node2 -->
<g id="Node000002" class="node">
<title>Node2</title>
<g id="a_Node000002"><a xlink:title=" ">
<polygon fill="white" stroke="#666666" points="306.5,-289.5 242.5,-289.5 242.5,-270.5 306.5,-270.5 306.5,-289.5"/>
<text text-anchor="middle" x="274.5" y="-277.5" font-family="Helvetica,sans-Serif" font-size="10.00">IStartable</text>
</a>
</g>
</g>
<!-- Node2&#45;&gt;Node1 -->
<g id="edge1_Node000001_Node000002" class="edge">
<title>Node2&#45;&gt;Node1</title>
<g id="a_edge1_Node000001_Node000002"><a xlink:title=" ">
<path fill="none" stroke="#63b8ff" d="M316.63,-271.5C329.59,-268.66 343.93,-265.36 357,-262 407.26,-249.06 421.27,-249.37 469,-229 493.85,-218.39 520.44,-202.65 538.71,-191.07"/>
<polygon fill="#63b8ff" stroke="#63b8ff" points="315.62,-268.13 306.58,-273.66 317.09,-274.98 315.62,-268.13"/>
</a>
</g>
</g>
<!-- Node3 -->
<g id="Node000003" class="node">
<title>Node3</title>
<g id="a_Node000003"><a xlink:title=" ">
<polygon fill="white" stroke="#666666" points="311.5,-252.5 237.5,-252.5 237.5,-233.5 311.5,-233.5 311.5,-252.5"/>
<text text-anchor="middle" x="274.5" y="-240.5" font-family="Helvetica,sans-Serif" font-size="10.00">IDisposable</text>
</a>
</g>
</g>
<!-- Node3&#45;&gt;Node1 -->
<g id="edge2_Node000001_Node000003" class="edge">
<title>Node3&#45;&gt;Node1</title>
<g id="a_edge2_Node000001_Node000003"><a xlink:title=" ">
<path fill="none" stroke="#63b8ff" d="M321.92,-235.8C361.35,-229.28 419.28,-218.76 469,-206 485.52,-201.76 503.4,-196.2 519,-191.01"/>
<polygon fill="#63b8ff" stroke="#63b8ff" points="321.12,-232.38 311.82,-237.44 322.25,-239.29 321.12,-232.38"/>
</a>
</g>
</g>
<!-- Node4 -->
<g id="Node000004" class="node">
<title>Node4</title>
<g id="a_Node000004"><a xlink:href="interfaceBalloonParty_1_1Audio_1_1ISoundPlayer.html" target="_top" xlink:title=" ">
<polygon fill="white" stroke="#666666" points="346,-215 203,-215 203,-185 346,-185 346,-215"/>
<text text-anchor="start" x="211" y="-203" font-family="Helvetica,sans-Serif" font-size="10.00">BalloonParty.Audio.ISound</text>
<text text-anchor="middle" x="274.5" y="-192" font-family="Helvetica,sans-Serif" font-size="10.00">Player</text>
</a>
</g>
</g>
<!-- Node4&#45;&gt;Node1 -->
<g id="edge3_Node000001_Node000004" class="edge">
<title>Node4&#45;&gt;Node1</title>
<g id="a_edge3_Node000001_Node000004"><a xlink:title=" ">
<path fill="none" stroke="#9a32cd" stroke-dasharray="5,2" d="M356.16,-193.23C397.19,-189.79 446.73,-185.63 486.87,-182.26"/>
<polygon fill="#9a32cd" stroke="#9a32cd" points="355.87,-189.74 346.2,-194.07 356.45,-196.72 355.87,-189.74"/>
</a>
</g>
<text text-anchor="middle" x="422" y="-194" font-family="Helvetica,sans-Serif" font-size="10.00" fill="grey"> _player</text>
</g>
<!-- Node5 -->
<g id="Node000005" class="node">
<title>Node5</title>
<g id="a_Node000005"><a xlink:href="interfaceBalloonParty_1_1Shared_1_1IProjectileFlightConfig.html" target="_top" xlink:title="Read&#45;only projectile flight configuration: physics, cruise, sweep, pierce, and doom tuning.">
<polygon fill="white" stroke="#666666" points="357,-167 192,-167 192,-137 357,-137 357,-167"/>
<text text-anchor="start" x="200" y="-155" font-family="Helvetica,sans-Serif" font-size="10.00">BalloonParty.Shared.IProjectile</text>
<text text-anchor="middle" x="274.5" y="-144" font-family="Helvetica,sans-Serif" font-size="10.00">FlightConfig</text>
</a>
</g>
</g>
<!-- Node5&#45;&gt;Node1 -->
<g id="edge4_Node000001_Node000005" class="edge">
<title>Node5&#45;&gt;Node1</title>
<g id="a_edge4_Node000001_Node000005"><a xlink:title=" ">
<path fill="none" stroke="#9a32cd" stroke-dasharray="5,2" d="M367.68,-159.55C399.75,-162.2 435.96,-165.21 469,-168 474.78,-168.49 480.77,-169 486.78,-169.51"/>
<polygon fill="#9a32cd" stroke="#9a32cd" points="367.67,-156.04 357.42,-158.7 367.1,-163.01 367.67,-156.04"/>
</a>
</g>
<text text-anchor="middle" x="422" y="-171" font-family="Helvetica,sans-Serif" font-size="10.00" fill="grey"> _flightConfig</text>
</g>
<!-- Node6 -->
<g id="Node000006" class="node">
<title>Node6</title>
<g id="a_Node000006"><a xlink:href="interfaceBalloonParty_1_1Projectile_1_1Controller_1_1IActiveProjectilePierce.html" target="_top" xlink:title="Whether the active shot is currently piercing.">
<polygon fill="white" stroke="#666666" points="347.5,-118.5 201.5,-118.5 201.5,-77.5 347.5,-77.5 347.5,-118.5"/>
<text text-anchor="start" x="209.5" y="-106.5" font-family="Helvetica,sans-Serif" font-size="10.00">BalloonParty.Projectile.</text>
<text text-anchor="start" x="209.5" y="-95.5" font-family="Helvetica,sans-Serif" font-size="10.00">Controller.IActiveProjectile</text>
<text text-anchor="middle" x="274.5" y="-84.5" font-family="Helvetica,sans-Serif" font-size="10.00">Pierce</text>
</a>
</g>
</g>
<!-- Node6&#45;&gt;Node1 -->
<g id="edge5_Node000001_Node000006" class="edge">
<title>Node6&#45;&gt;Node1</title>
<g id="a_edge5_Node000001_Node000006"><a xlink:title=" ">
<path fill="none" stroke="#9a32cd" stroke-dasharray="5,2" d="M357.61,-116.31C392.18,-124.45 432.72,-134.54 469,-145 485.44,-149.74 503.3,-155.57 518.91,-160.88"/>
<polygon fill="#9a32cd" stroke="#9a32cd" points="358.09,-112.83 347.56,-113.97 356.5,-119.65 358.09,-112.83"/>
</a>
</g>
<text text-anchor="middle" x="422" y="-148" font-family="Helvetica,sans-Serif" font-size="10.00" fill="grey"> _activePierce</text>
</g>
<!-- Node7 -->
<g id="Node000007" class="node">
<title>Node7</title>
<g id="a_Node000007"><a xlink:href="structBalloonParty_1_1Audio_1_1SoundHandle.html" target="_top" xlink:title="Identifies one play of a voice slot — the only way to ISoundPlayer.Stop a loop.">
<polygon fill="white" stroke="#666666" points="344.5,-30 204.5,-30 204.5,0 344.5,0 344.5,-30"/>
<text text-anchor="start" x="212.5" y="-18" font-family="Helvetica,sans-Serif" font-size="10.00">BalloonParty.Audio.Sound</text>
<text text-anchor="middle" x="274.5" y="-7" font-family="Helvetica,sans-Serif" font-size="10.00">Handle</text>
</a>
</g>
</g>
<!-- Node7&#45;&gt;Node1 -->
<g id="edge6_Node000001_Node000007" class="edge">
<title>Node7&#45;&gt;Node1</title>
<g id="a_edge6_Node000001_Node000007"><a xlink:title=" ">
<path fill="none" stroke="#9a32cd" stroke-dasharray="5,2" d="M333.67,-33.42C373.4,-47.32 426.35,-68.52 469,-95 499.65,-114.03 530.14,-143.23 547.33,-160.89"/>
<polygon fill="#9a32cd" stroke="#9a32cd" points="334.73,-30.08 324.13,-30.13 332.44,-36.7 334.73,-30.08"/>
</a>
</g>
<text text-anchor="middle" x="422" y="-109" font-family="Helvetica,sans-Serif" font-size="10.00" fill="grey"> _cruiseHandle</text>
<text text-anchor="middle" x="422" y="-98" font-family="Helvetica,sans-Serif" font-size="10.00" fill="grey">_pierceLoopHandle</text>
</g>
<!-- Node7&#45;&gt;Node7 -->
<g id="edge8_Node000007_Node000007" class="edge">
<title>Node7&#45;&gt;Node7</title>
<g id="a_edge8_Node000007_Node000007"><a xlink:title=" ">
<path fill="none" stroke="#9a32cd" stroke-dasharray="5,2" d="M257,-40.6C259.39,-44.97 265.22,-48 274.5,-48 290.12,-48 295.98,-39.41 292.08,-30.28"/>
<polygon fill="#9a32cd" stroke="#9a32cd" points="260.49,-40.25 256.92,-30.28 253.49,-40.3 260.49,-40.25"/>
</a>
</g>
<text text-anchor="middle" x="274.5" y="-51" font-family="Helvetica,sans-Serif" font-size="10.00" fill="grey"> None</text>
</g>
<!-- Node8 -->
<g id="Node000008" class="node">
<title>Node8</title>
<g id="a_Node000008"><a xlink:title=" ">
<polygon fill="white" stroke="#666666" points="155,-24.5 0,-24.5 0,-5.5 155,-5.5 155,-24.5"/>
<text text-anchor="middle" x="77.5" y="-12.5" font-family="Helvetica,sans-Serif" font-size="10.00">IEquatable&lt; SoundHandle &gt;</text>
</a>
</g>
</g>
<!-- Node8&#45;&gt;Node7 -->
<g id="edge7_Node000007_Node000008" class="edge">
<title>Node8&#45;&gt;Node7</title>
<g id="a_edge7_Node000007_Node000008"><a xlink:title=" ">
<path fill="none" stroke="#63b8ff" d="M165.36,-15C178.36,-15 191.62,-15 204.19,-15"/>
<polygon fill="#63b8ff" stroke="#63b8ff" points="165.01,-11.5 155.01,-15 165.01,-18.5 165.01,-11.5"/>
</a>
</g>
</g>
</g>
</svg>

<g id="navigator" transform="translate(0 0)" fill="#404254">
  <rect fill="#f2f5e9" fill-opacity="0.5" stroke="#606060" stroke-width=".5" x="0" y="0" width="60" height="60"/>
  <use id="zoomplus" xlink:href="#zoomPlus" x="17" y="9" onmousedown="handleZoom(evt,'in')"/>
  <use id="zoomminus" xlink:href="#zoomMin" x="42" y="9" onmousedown="handleZoom(evt,'out')"/>
  <use id="reset" xlink:href="#resetDef" x="30" y="36" onmousedown="handleReset()"/>
   <use id="arrowup" xlink:href="#arrowUp" x="0" y="0" onmousedown="handlePan(0,-1)"/>
  <use id="arrowright" xlink:href="#arrowRight" x="0" y="0" onmousedown="handlePan(1,0)"/>
  <use id="arrowdown" xlink:href="#arrowDown" x="0" y="0" onmousedown="handlePan(0,1)"/>
  <use id="arrowleft" xlink:href="#arrowLeft" x="0" y="0" onmousedown="handlePan(-1,0)"/>
</g>
<svg viewBox="0 0 15 15" width="100%" height="30px" preserveAspectRatio="xMaxYMin meet">
 <g id="arrow_out" transform="scale(0.3 0.3)">
  <a xlink:href="classBalloonParty_1_1Audio_1_1Routing_1_1CombatSoundRouter__coll__graph_org.svg" target="_base">
   <rect id="button" ry="5" rx="5" y="6" x="6" height="38" width="38"
        fill="#f2f5e9" fill-opacity="0.5" stroke="#606060" stroke-width="1.0"/>
   <path id="arrow"
     d="M 11.500037,31.436501 C 11.940474,20.09759 22.043105,11.32322 32.158766,21.979434 L 37.068811,17.246167 C 37.068811,17.246167 37.088388,32 37.088388,32 L 22.160133,31.978069 C 22.160133,31.978069 26.997745,27.140456 26.997745,27.140456 C 18.528582,18.264221 13.291696,25.230495 11.500037,31.436501 z"
     style="fill:#404040;"/>
  </a>
 </g>
</svg>

<style type='text/css'>
<![CDATA[
[data-mouse-over-selected='false'] { opacity: 0.7; }
[data-mouse-over-selected='true']  { opacity: 1.0; }
]]>
</style>
<script type="application/ecmascript"><![CDATA[
document.addEventListener('DOMContentLoaded', (event) => {
  highlightEdges();
  highlightAdjacentNodes();
});
]]></script>
</svg>
