<?xml version="1.0" encoding="UTF-8" standalone="no"?>
<!DOCTYPE svg PUBLIC "-//W3C//DTD SVG 1.1//EN"
 "http://www.w3.org/Graphics/SVG/1.1/DTD/svg11.dtd">
<!-- Generated by graphviz version 2.43.0 (0)
 -->
<!-- Title: BalloonParty.Configuration.Level.RangedLevelParameters Pages: 1 -->
<!--zoomable 229 -->

<svg id="main" version="1.1" xmlns="http://www.w3.org/2000/svg" xmlns:xlink="http://www.w3.org/1999/xlink" xml:space="preserve" onload="init(evt)">

<style type="text/css"><![CDATA[
.node, .edge {opacity: 0.7;}
.node.selected, .edge.selected {opacity: 1;}
.edge:hover path { stroke: red; }
.edge:hover polygon { stroke: red; fill: red; }
]]></style>

<defs>
  <circle id="rim" cx="0" cy="0" r="7"/>
  <circle id="rim2" cx="0" cy="0" r="3.5"/>
  <g id="zoomPlus">
    <use xlink:href="#rim" fill="#404040"><set attributeName="fill" to="#808080" begin="zoomplus.mouseover" end="zoomplus.mouseout"/></use>
    <path d="M-4,0h8M0,-4v8" fill="none" stroke="white" stroke-width="1.5" pointer-events="none"/>
  </g>
  <g id="zoomMin">
    <use xlink:href="#rim" fill="#404040"><set attributeName="fill" to="#808080" begin="zoomminus.mouseover" end="zoomminus.mouseout"/></use>
    <path d="M-4,0h8" fill="none" stroke="white" stroke-width="1.5" pointer-events="none"/>
  </g>
  <g id="arrowUp" transform="translate(30 24)">
    <use xlink:href="#rim"/>
    <path pointer-events="none" fill="none" stroke="white" stroke-width="1.5" d="M0,-3.0v7 M-2.5,-0.5L0,-3.0L2.5,-0.5"/>
  </g>
  <g id="arrowRight" transform="rotate(90) translate(36 -43)">
    <use xlink:href="#rim"/>
    <path pointer-events="none" fill="none" stroke="white" stroke-width="1.5" d="M0,-3.0v7 M-2.5,-0.5L0,-3.0L2.5,-0.5"/>
  </g>
  <g id="arrowDown" transform="rotate(180) translate(-30 -48)">
    <use xlink:href="#rim"/>
    <path pointer-events="none" fill="none" stroke="white" stroke-width="1.5" d="M0,-3.0v7 M-2.5,-0.5L0,-3.0L2.5,-0.5"/>
  </g>
  <g id="arrowLeft" transform="rotate(270) translate(-36 17)">
    <use xlink:href="#rim"/>
    <path pointer-events="none" fill="none" stroke="white" stroke-width="1.5" d="M0,-3.0v7 M-2.5,-0.5L0,-3.0L2.5,-0.5"/>
  </g>
  <g id="resetDef">
    <use xlink:href="#rim2" fill="#404040"><set attributeName="fill" to="#808080" begin="reset.mouseover" end="reset.mouseout"/></use>
  </g>
</defs>
<script type="application/ecmascript">
var viewWidth = 674;
var viewHeight = 229;
var sectionId = 'dynsection-1';
</script>
<script type="application/ecmascript" xlink:href="svg.min.js"/>
<svg id="graph" class="graph">
<g id="viewport">
<title>BalloonParty.Configuration.Level.RangedLevelParameters</title>
<!-- Node1 -->
<g id="Node000001" class="node">
<title>Node1</title>
<g id="a_Node000001"><a xlink:title="The range&#45;authored form of a level&#39;s difficulty mix; Resolve is a pure function, so it&#39;s EditMode&#45;tes...">
<polygon fill="#999999" stroke="#666666" points="666,-126 502,-126 502,-96 666,-96 666,-126"/>
<text text-anchor="start" x="510" y="-114" font-family="Helvetica,sans-Serif" font-size="10.00">BalloonParty.Configuration.</text>
<text text-anchor="middle" x="584" y="-103" font-family="Helvetica,sans-Serif" font-size="10.00">Level.RangedLevelParameters</text>
</a>
</g>
</g>
<!-- Node2 -->
<g id="Node000002" class="node">
<title>Node2</title>
<g id="a_Node000002"><a xlink:href="interfaceBalloonParty_1_1Configuration_1_1Palette_1_1IPaletteColorMasked.html" target="_top" xlink:title="Base contract for a config entry keyed to a set of palette colours by a PaletteColorMaskAttribute bit...">
<polygon fill="white" stroke="#666666" points="377.5,-221 224.5,-221 224.5,-191 377.5,-191 377.5,-221"/>
<text text-anchor="start" x="232.5" y="-209" font-family="Helvetica,sans-Serif" font-size="10.00">BalloonParty.Configuration.</text>
<text text-anchor="middle" x="301" y="-198" font-family="Helvetica,sans-Serif" font-size="10.00">Palette.IPaletteColorMasked</text>
</a>
</g>
</g>
<!-- Node2&#45;&gt;Node1 -->
<g id="edge1_Node000001_Node000002" class="edge">
<title>Node2&#45;&gt;Node1</title>
<g id="a_edge1_Node000001_Node000002"><a xlink:title=" ">
<path fill="none" stroke="#63b8ff" d="M387.76,-199.33C418.83,-194.98 453.72,-187.82 484,-176 514.84,-163.96 546.04,-141.36 564.96,-126.24"/>
<polygon fill="#63b8ff" stroke="#63b8ff" points="387.27,-195.86 377.81,-200.64 388.19,-202.8 387.27,-195.86"/>
</a>
</g>
</g>
<!-- Node3 -->
<g id="Node000003" class="node">
<title>Node3</title>
<g id="a_Node000003"><a xlink:href="structBalloonParty_1_1Configuration_1_1Ranges_1_1RangedInt.html" target="_top" xlink:title="Pure — resolved once when a level begins, never re&#45;rolled per turn.">
<polygon fill="white" stroke="#666666" points="148,-152 0,-152 0,-122 148,-122 148,-152"/>
<text text-anchor="start" x="8" y="-140" font-family="Helvetica,sans-Serif" font-size="10.00">BalloonParty.Configuration.</text>
<text text-anchor="middle" x="74" y="-129" font-family="Helvetica,sans-Serif" font-size="10.00">Ranges.RangedInt</text>
</a>
</g>
</g>
<!-- Node3&#45;&gt;Node1 -->
<g id="edge2_Node000001_Node000003" class="edge">
<title>Node3&#45;&gt;Node1</title>
<g id="a_edge2_Node000001_Node000003"><a xlink:title=" ">
<path fill="none" stroke="#9a32cd" stroke-dasharray="5,2" d="M158.22,-140.81C160.84,-140.88 163.44,-140.94 166,-141 307.46,-144.11 343.51,-142.82 484,-126 489.78,-125.31 495.75,-124.54 501.75,-123.73"/>
<polygon fill="#9a32cd" stroke="#9a32cd" points="158.11,-137.3 148,-140.49 157.89,-144.3 158.11,-137.3"/>
</a>
</g>
<text text-anchor="middle" x="301" y="-145" font-family="Helvetica,sans-Serif" font-size="10.00" fill="grey"> _itemCadence</text>
</g>
<!-- Node6 -->
<g id="Node000006" class="node">
<title>Node6</title>
<g id="a_Node000006"><a xlink:href="structBalloonParty_1_1Configuration_1_1GridActors_1_1GridActorTypeGate.html" target="_top" xlink:title="Presence in a range&#39;s array gates one GridActorType for that level.">
<polygon fill="white" stroke="#666666" points="382,-126 220,-126 220,-96 382,-96 382,-126"/>
<text text-anchor="start" x="228" y="-114" font-family="Helvetica,sans-Serif" font-size="10.00">BalloonParty.Configuration.</text>
<text text-anchor="middle" x="301" y="-103" font-family="Helvetica,sans-Serif" font-size="10.00">GridActors.GridActorTypeGate</text>
</a>
</g>
</g>
<!-- Node3&#45;&gt;Node6 -->
<g id="edge6_Node000006_Node000003" class="edge">
<title>Node3&#45;&gt;Node6</title>
<g id="a_edge6_Node000006_Node000003"><a xlink:title=" ">
<path fill="none" stroke="#9a32cd" stroke-dasharray="5,2" d="M158.15,-127.39C178.34,-125.06 199.89,-122.57 219.93,-120.25"/>
<polygon fill="#9a32cd" stroke="#9a32cd" points="157.58,-123.93 148.05,-128.56 158.39,-130.89 157.58,-123.93"/>
</a>
</g>
<text text-anchor="middle" x="184" y="-129" font-family="Helvetica,sans-Serif" font-size="10.00" fill="grey"> _count</text>
</g>
<!-- Node4 -->
<g id="Node000004" class="node">
<title>Node4</title>
<g id="a_Node000004"><a xlink:href="structBalloonParty_1_1Configuration_1_1Balloons_1_1BalloonTypeWeight.html" target="_top" xlink:title="One entry of a range&#39;s static WeightedSet&lt;BalloonType&gt;; membership is the type gate.">
<polygon fill="white" stroke="#666666" points="378.5,-78 223.5,-78 223.5,-48 378.5,-48 378.5,-78"/>
<text text-anchor="start" x="231.5" y="-66" font-family="Helvetica,sans-Serif" font-size="10.00">BalloonParty.Configuration.</text>
<text text-anchor="middle" x="301" y="-55" font-family="Helvetica,sans-Serif" font-size="10.00">Balloons.BalloonTypeWeight</text>
</a>
</g>
</g>
<!-- Node4&#45;&gt;Node1 -->
<g id="edge3_Node000001_Node000004" class="edge">
<title>Node4&#45;&gt;Node1</title>
<g id="a_edge3_Node000001_Node000004"><a xlink:title=" ">
<path fill="none" stroke="#9a32cd" stroke-dasharray="5,2" d="M388.8,-77.83C424.85,-83.98 466.46,-91.09 501.89,-97.14"/>
<polygon fill="#9a32cd" stroke="#9a32cd" points="389.23,-74.35 378.78,-76.12 388.05,-81.25 389.23,-74.35"/>
</a>
</g>
<text text-anchor="middle" x="442" y="-96" font-family="Helvetica,sans-Serif" font-size="10.00" fill="grey"> _balloonWeights</text>
</g>
<!-- Node5 -->
<g id="Node000005" class="node">
<title>Node5</title>
<g id="a_Node000005"><a xlink:href="structBalloonParty_1_1Configuration_1_1Items_1_1ItemTypeWeight.html" target="_top" xlink:title="Item counterpart of BalloonTypeWeight — same gate/override semantics.">
<polygon fill="white" stroke="#666666" points="375,-30 227,-30 227,0 375,0 375,-30"/>
<text text-anchor="start" x="235" y="-18" font-family="Helvetica,sans-Serif" font-size="10.00">BalloonParty.Configuration.</text>
<text text-anchor="middle" x="301" y="-7" font-family="Helvetica,sans-Serif" font-size="10.00">Items.ItemTypeWeight</text>
</a>
</g>
</g>
<!-- Node5&#45;&gt;Node1 -->
<g id="edge4_Node000001_Node000005" class="edge">
<title>Node5&#45;&gt;Node1</title>
<g id="a_edge4_Node000001_Node000005"><a xlink:title=" ">
<path fill="none" stroke="#9a32cd" stroke-dasharray="5,2" d="M376.94,-32.58C410.14,-41.14 449.43,-52.32 484,-65 508.02,-73.81 534.24,-86.12 553.66,-95.79"/>
<polygon fill="#9a32cd" stroke="#9a32cd" points="377.39,-29.09 366.84,-30.01 375.67,-35.87 377.39,-29.09"/>
</a>
</g>
<text text-anchor="middle" x="442" y="-68" font-family="Helvetica,sans-Serif" font-size="10.00" fill="grey"> _itemWeights</text>
</g>
<!-- Node6&#45;&gt;Node1 -->
<g id="edge5_Node000001_Node000006" class="edge">
<title>Node6&#45;&gt;Node1</title>
<g id="a_edge5_Node000001_Node000006"><a xlink:title=" ">
<path fill="none" stroke="#9a32cd" stroke-dasharray="5,2" d="M392.41,-111C427.57,-111 467.54,-111 501.77,-111"/>
<polygon fill="#9a32cd" stroke="#9a32cd" points="392.15,-107.5 382.15,-111 392.15,-114.5 392.15,-107.5"/>
</a>
</g>
<text text-anchor="middle" x="442" y="-114" font-family="Helvetica,sans-Serif" font-size="10.00" fill="grey"> _gridActorGates</text>
</g>
</g>
</svg>

<g id="navigator" transform="translate(0 0)" fill="#404254">
  <rect fill="#f2f5e9" fill-opacity="0.5" stroke="#606060" stroke-width=".5" x="0" y="0" width="60" height="60"/>
  <use id="zoomplus" xlink:href="#zoomPlus" x="17" y="9" onmousedown="handleZoom(evt,'in')"/>
  <use id="zoomminus" xlink:href="#zoomMin" x="42" y="9" onmousedown="handleZoom(evt,'out')"/>
  <use id="reset" xlink:href="#resetDef" x="30" y="36" onmousedown="handleReset()"/>
   <use id="arrowup" xlink:href="#arrowUp" x="0" y="0" onmousedown="handlePan(0,-1)"/>
  <use id="arrowright" xlink:href="#arrowRight" x="0" y="0" onmousedown="handlePan(1,0)"/>
  <use id="arrowdown" xlink:href="#arrowDown" x="0" y="0" onmousedown="handlePan(0,1)"/>
  <use id="arrowleft" xlink:href="#arrowLeft" x="0" y="0" onmousedown="handlePan(-1,0)"/>
</g>
<svg viewBox="0 0 15 15" width="100%" height="30px" preserveAspectRatio="xMaxYMin meet">
 <g id="arrow_out" transform="scale(0.3 0.3)">
  <a xlink:href="classBalloonParty_1_1Configuration_1_1Level_1_1RangedLevelParameters__coll__graph_org.svg" target="_base">
   <rect id="button" ry="5" rx="5" y="6" x="6" height="38" width="38"
        fill="#f2f5e9" fill-opacity="0.5" stroke="#606060" stroke-width="1.0"/>
   <path id="arrow"
     d="M 11.500037,31.436501 C 11.940474,20.09759 22.043105,11.32322 32.158766,21.979434 L 37.068811,17.246167 C 37.068811,17.246167 37.088388,32 37.088388,32 L 22.160133,31.978069 C 22.160133,31.978069 26.997745,27.140456 26.997745,27.140456 C 18.528582,18.264221 13.291696,25.230495 11.500037,31.436501 z"
     style="fill:#404040;"/>
  </a>
 </g>
</svg>

<style type='text/css'>
<![CDATA[
[data-mouse-over-selected='false'] { opacity: 0.7; }
[data-mouse-over-selected='true']  { opacity: 1.0; }
]]>
</style>
<script type="application/ecmascript"><![CDATA[
document.addEventListener('DOMContentLoaded', (event) => {
  highlightEdges();
  highlightAdjacentNodes();
});
]]></script>
</svg>
