<?xml version="1.0" encoding="UTF-8" standalone="no"?>
<!DOCTYPE svg PUBLIC "-//W3C//DTD SVG 1.1//EN"
 "http://www.w3.org/Graphics/SVG/1.1/DTD/svg11.dtd">
<!-- Generated by graphviz version 2.43.0 (0)
 -->
<!-- Title: BalloonParty.UI.Shields.ShieldCounterAnimation Pages: 1 -->
<svg width="735pt" height="128pt"
 viewBox="0.00 0.00 735.00 127.50" xmlns="http://www.w3.org/2000/svg" xmlns:xlink="http://www.w3.org/1999/xlink">
<g id="graph0" class="graph" transform="scale(1 1) rotate(0) translate(4 123.5)">
<title>BalloonParty.UI.Shields.ShieldCounterAnimation</title>
<!-- Node1 -->
<g id="Node000001" class="node">
<title>Node1</title>
<g id="a_Node000001"><a xlink:title=" ">
<polygon fill="#999999" stroke="#666666" points="727,-107 592,-107 592,-77 727,-77 727,-107"/>
<text text-anchor="start" x="600" y="-95" font-family="Helvetica,sans-Serif" font-size="10.00">BalloonParty.UI.Shields.</text>
<text text-anchor="middle" x="659.5" y="-84" font-family="Helvetica,sans-Serif" font-size="10.00">ShieldCounterAnimation</text>
</a>
</g>
</g>
<!-- Node2 -->
<g id="Node000002" class="node">
<title>Node2</title>
<g id="a_Node000002"><a xlink:title=" ">
<polygon fill="white" stroke="#666666" points="113.5,-119.5 20.5,-119.5 20.5,-100.5 113.5,-100.5 113.5,-119.5"/>
<text text-anchor="middle" x="67" y="-107.5" font-family="Helvetica,sans-Serif" font-size="10.00">MonoBehaviour</text>
</a>
</g>
</g>
<!-- Node2&#45;&gt;Node1 -->
<g id="edge1_Node000001_Node000002" class="edge">
<title>Node2&#45;&gt;Node1</title>
<g id="a_edge1_Node000001_Node000002"><a xlink:title=" ">
<path fill="none" stroke="#63b8ff" d="M123.78,-109.18C217.02,-107.66 410.46,-103.94 574,-97 579.73,-96.76 585.67,-96.47 591.63,-96.16"/>
<polygon fill="#63b8ff" stroke="#63b8ff" points="123.66,-105.68 113.72,-109.34 123.77,-112.68 123.66,-105.68"/>
</a>
</g>
</g>
<!-- Node4 -->
<g id="Node000004" class="node">
<title>Node4</title>
<g id="a_Node000004"><a xlink:href="classBalloonParty_1_1UI_1_1ReactiveCounterLabel.html" target="_top" xlink:title="Subscribes to a reactive int and delegates rendering to an ICounterDisplay on the same GameObject.">
<polygon fill="white" stroke="#666666" points="350,-82 214,-82 214,-52 350,-52 350,-82"/>
<text text-anchor="start" x="222" y="-70" font-family="Helvetica,sans-Serif" font-size="10.00">BalloonParty.UI.Reactive</text>
<text text-anchor="middle" x="282" y="-59" font-family="Helvetica,sans-Serif" font-size="10.00">CounterLabel</text>
</a>
</g>
</g>
<!-- Node2&#45;&gt;Node4 -->
<g id="edge4_Node000004_Node000002" class="edge">
<title>Node2&#45;&gt;Node4</title>
<g id="a_edge4_Node000004_Node000002"><a xlink:title=" ">
<path fill="none" stroke="#63b8ff" d="M123.59,-98.78C151.24,-93.2 184.87,-86.41 213.94,-80.54"/>
<polygon fill="#63b8ff" stroke="#63b8ff" points="122.8,-95.37 113.69,-100.78 124.19,-102.23 122.8,-95.37"/>
</a>
</g>
</g>
<!-- Node3 -->
<g id="Node000003" class="node">
<title>Node3</title>
<g id="a_Node000003"><a xlink:href="classBalloonParty_1_1UI_1_1Shields_1_1ShieldCounterLabel.html" target="_top" xlink:title="The loaded projectile&#39;s remaining&#45;shields counter; behaviour lives in ReactiveCounterLabel.">
<polygon fill="white" stroke="#666666" points="518,-85 387,-85 387,-55 518,-55 518,-85"/>
<text text-anchor="start" x="395" y="-73" font-family="Helvetica,sans-Serif" font-size="10.00">BalloonParty.UI.Shields.</text>
<text text-anchor="middle" x="452.5" y="-62" font-family="Helvetica,sans-Serif" font-size="10.00">ShieldCounterLabel</text>
</a>
</g>
</g>
<!-- Node3&#45;&gt;Node1 -->
<g id="edge2_Node000001_Node000003" class="edge">
<title>Node3&#45;&gt;Node1</title>
<g id="a_edge2_Node000001_Node000003"><a xlink:title=" ">
<path fill="none" stroke="#9a32cd" stroke-dasharray="5,2" d="M528.15,-78.01C548.97,-80.25 571.44,-82.66 591.77,-84.84"/>
<polygon fill="#9a32cd" stroke="#9a32cd" points="528.4,-74.52 518.08,-76.93 527.65,-81.48 528.4,-74.52"/>
</a>
</g>
<text text-anchor="middle" x="555" y="-85" font-family="Helvetica,sans-Serif" font-size="10.00" fill="grey"> _labels</text>
</g>
<!-- Node4&#45;&gt;Node3 -->
<g id="edge3_Node000003_Node000004" class="edge">
<title>Node4&#45;&gt;Node3</title>
<g id="a_edge3_Node000003_Node000004"><a xlink:title=" ">
<path fill="none" stroke="#63b8ff" d="M360.11,-68.37C369.05,-68.53 378.1,-68.69 386.85,-68.85"/>
<polygon fill="#63b8ff" stroke="#63b8ff" points="360.14,-64.87 350.08,-68.19 360.02,-71.87 360.14,-64.87"/>
</a>
</g>
</g>
<!-- Node5 -->
<g id="Node000005" class="node">
<title>Node5</title>
<g id="a_Node000005"><a xlink:href="interfaceBalloonParty_1_1UI_1_1Binding_1_1IReactiveBindable-1-g.html" target="_top" xlink:title="A view that binds itself to a reactive source of T .">
<polygon fill="white" stroke="#666666" points="134,-78 0,-78 0,-48 134,-48 134,-78"/>
<text text-anchor="start" x="8" y="-66" font-family="Helvetica,sans-Serif" font-size="10.00">BalloonParty.UI.Binding.</text>
<text text-anchor="middle" x="67" y="-55" font-family="Helvetica,sans-Serif" font-size="10.00">IReactiveBindable&lt; T &gt;</text>
</a>
</g>
</g>
<!-- Node5&#45;&gt;Node4 -->
<g id="edge5_Node000004_Node000005" class="edge">
<title>Node5&#45;&gt;Node4</title>
<g id="a_edge5_Node000004_Node000005"><a xlink:title=" ">
<path fill="none" stroke="#63b8ff" d="M144.47,-64.44C167.1,-64.86 191.71,-65.32 213.71,-65.74"/>
<polygon fill="#63b8ff" stroke="#63b8ff" points="144.29,-60.93 134.23,-64.24 144.16,-67.93 144.29,-60.93"/>
</a>
</g>
</g>
<!-- Node6 -->
<g id="Node000006" class="node">
<title>Node6</title>
<g id="a_Node000006"><a xlink:href="interfaceBalloonParty_1_1UI_1_1Binding_1_1ICounterDisplay.html" target="_top" xlink:title="Strategy for how a counter label renders its numeric value.">
<polygon fill="white" stroke="#666666" points="133.5,-30 0.5,-30 0.5,0 133.5,0 133.5,-30"/>
<text text-anchor="start" x="8.5" y="-18" font-family="Helvetica,sans-Serif" font-size="10.00">BalloonParty.UI.Binding.</text>
<text text-anchor="middle" x="67" y="-7" font-family="Helvetica,sans-Serif" font-size="10.00">ICounterDisplay</text>
</a>
</g>
</g>
<!-- Node6&#45;&gt;Node4 -->
<g id="edge6_Node000004_Node000006" class="edge">
<title>Node6&#45;&gt;Node4</title>
<g id="a_edge6_Node000004_Node000006"><a xlink:title=" ">
<path fill="none" stroke="#9a32cd" stroke-dasharray="5,2" d="M139.4,-32.43C165.37,-38.77 194.49,-45.88 219.53,-51.99"/>
<polygon fill="#9a32cd" stroke="#9a32cd" points="140.15,-29.01 129.61,-30.04 138.49,-35.81 140.15,-29.01"/>
</a>
</g>
<text text-anchor="middle" x="174" y="-48" font-family="Helvetica,sans-Serif" font-size="10.00" fill="grey"> _display</text>
</g>
</g>
</svg>
