<?xml version="1.0" encoding="UTF-8" standalone="no"?>
<!DOCTYPE svg PUBLIC "-//W3C//DTD SVG 1.1//EN"
 "http://www.w3.org/Graphics/SVG/1.1/DTD/svg11.dtd">
<!-- Generated by graphviz version 2.43.0 (0)
 -->
<!-- Title: BalloonParty.Balloon.Model.IWriteableBalloonModel Pages: 1 -->
<svg width="724pt" height="182pt"
 viewBox="0.00 0.00 724.00 182.00" xmlns="http://www.w3.org/2000/svg" xmlns:xlink="http://www.w3.org/1999/xlink">
<g id="graph0" class="graph" transform="scale(1 1) rotate(0) translate(4 178)">
<title>BalloonParty.Balloon.Model.IWriteableBalloonModel</title>
<!-- Node1 -->
<g id="Node000001" class="node">
<title>Node1</title>
<g id="a_Node000001"><a xlink:title=" ">
<polygon fill="#999999" stroke="#666666" points="716,-102 564,-102 564,-72 716,-72 716,-102"/>
<text text-anchor="start" x="572" y="-90" font-family="Helvetica,sans-Serif" font-size="10.00">BalloonParty.Balloon.Model.</text>
<text text-anchor="middle" x="640" y="-79" font-family="Helvetica,sans-Serif" font-size="10.00">IWriteableBalloonModel</text>
</a>
</g>
</g>
<!-- Node2 -->
<g id="Node000002" class="node">
<title>Node2</title>
<g id="a_Node000002"><a xlink:href="interfaceBalloonParty_1_1Slots_1_1Actor_1_1IWriteableDynamicSlotActor.html" target="_top" xlink:title=" ">
<polygon fill="white" stroke="#666666" points="528,-78 373,-78 373,-48 528,-48 528,-78"/>
<text text-anchor="start" x="381" y="-66" font-family="Helvetica,sans-Serif" font-size="10.00">BalloonParty.Slots.Actor.</text>
<text text-anchor="middle" x="450.5" y="-55" font-family="Helvetica,sans-Serif" font-size="10.00">IWriteableDynamicSlotActor</text>
</a>
</g>
</g>
<!-- Node2&#45;&gt;Node1 -->
<g id="edge1_Node000001_Node000002" class="edge">
<title>Node2&#45;&gt;Node1</title>
<g id="a_edge1_Node000001_Node000002"><a xlink:title=" ">
<path fill="none" stroke="#63b8ff" d="M538.1,-74.09C546.73,-75.19 555.43,-76.3 563.92,-77.39"/>
<polygon fill="#63b8ff" stroke="#63b8ff" points="538.4,-70.59 528.03,-72.8 537.51,-77.54 538.4,-70.59"/>
</a>
</g>
</g>
<!-- Node3 -->
<g id="Node000003" class="node">
<title>Node3</title>
<g id="a_Node000003"><a xlink:href="interfaceBalloonParty_1_1Slots_1_1Actor_1_1IDynamicSlotActor.html" target="_top" xlink:title=" ">
<polygon fill="white" stroke="#666666" points="320.5,-78 186.5,-78 186.5,-48 320.5,-48 320.5,-78"/>
<text text-anchor="start" x="194.5" y="-66" font-family="Helvetica,sans-Serif" font-size="10.00">BalloonParty.Slots.Actor.</text>
<text text-anchor="middle" x="253.5" y="-55" font-family="Helvetica,sans-Serif" font-size="10.00">IDynamicSlotActor</text>
</a>
</g>
</g>
<!-- Node3&#45;&gt;Node2 -->
<g id="edge2_Node000002_Node000003" class="edge">
<title>Node3&#45;&gt;Node2</title>
<g id="a_edge2_Node000002_Node000003"><a xlink:title=" ">
<path fill="none" stroke="#63b8ff" d="M330.91,-63C344.66,-63 359.01,-63 372.78,-63"/>
<polygon fill="#63b8ff" stroke="#63b8ff" points="330.52,-59.5 320.52,-63 330.52,-66.5 330.52,-59.5"/>
</a>
</g>
</g>
<!-- Node6 -->
<g id="Node000006" class="node">
<title>Node6</title>
<g id="a_Node000006"><a xlink:href="interfaceBalloonParty_1_1Balloon_1_1Model_1_1IBalloonModel.html" target="_top" xlink:title=" ">
<polygon fill="white" stroke="#666666" points="526.5,-126 374.5,-126 374.5,-96 526.5,-96 526.5,-126"/>
<text text-anchor="start" x="382.5" y="-114" font-family="Helvetica,sans-Serif" font-size="10.00">BalloonParty.Balloon.Model.</text>
<text text-anchor="middle" x="450.5" y="-103" font-family="Helvetica,sans-Serif" font-size="10.00">IBalloonModel</text>
</a>
</g>
</g>
<!-- Node3&#45;&gt;Node6 -->
<g id="edge7_Node000006_Node000003" class="edge">
<title>Node3&#45;&gt;Node6</title>
<g id="a_edge7_Node000006_Node000003"><a xlink:title=" ">
<path fill="none" stroke="#63b8ff" d="M325.64,-80.51C346.27,-85.59 368.6,-91.09 388.55,-96"/>
<polygon fill="#63b8ff" stroke="#63b8ff" points="326.21,-77.05 315.66,-78.06 324.54,-83.84 326.21,-77.05"/>
</a>
</g>
</g>
<!-- Node4 -->
<g id="Node000004" class="node">
<title>Node4</title>
<g id="a_Node000004"><a xlink:href="interfaceBalloonParty_1_1Slots_1_1Actor_1_1ISlotActor.html" target="_top" xlink:title=" ">
<polygon fill="white" stroke="#666666" points="134,-54 0,-54 0,-24 134,-24 134,-54"/>
<text text-anchor="start" x="8" y="-42" font-family="Helvetica,sans-Serif" font-size="10.00">BalloonParty.Slots.Actor.</text>
<text text-anchor="middle" x="67" y="-31" font-family="Helvetica,sans-Serif" font-size="10.00">ISlotActor</text>
</a>
</g>
</g>
<!-- Node4&#45;&gt;Node3 -->
<g id="edge3_Node000003_Node000004" class="edge">
<title>Node4&#45;&gt;Node3</title>
<g id="a_edge3_Node000003_Node000004"><a xlink:title=" ">
<path fill="none" stroke="#63b8ff" d="M144.15,-48.91C158.12,-50.72 172.6,-52.61 186.25,-54.38"/>
<polygon fill="#63b8ff" stroke="#63b8ff" points="144.46,-45.42 134.09,-47.6 143.55,-52.36 144.46,-45.42"/>
</a>
</g>
</g>
<!-- Node5 -->
<g id="Node000005" class="node">
<title>Node5</title>
<g id="a_Node000005"><a xlink:href="interfaceBalloonParty_1_1Slots_1_1Actor_1_1IWriteableSlotActor.html" target="_top" xlink:title=" ">
<polygon fill="white" stroke="#666666" points="320.5,-30 186.5,-30 186.5,0 320.5,0 320.5,-30"/>
<text text-anchor="start" x="194.5" y="-18" font-family="Helvetica,sans-Serif" font-size="10.00">BalloonParty.Slots.Actor.</text>
<text text-anchor="middle" x="253.5" y="-7" font-family="Helvetica,sans-Serif" font-size="10.00">IWriteableSlotActor</text>
</a>
</g>
</g>
<!-- Node4&#45;&gt;Node5 -->
<g id="edge5_Node000005_Node000004" class="edge">
<title>Node4&#45;&gt;Node5</title>
<g id="a_edge5_Node000005_Node000004"><a xlink:title=" ">
<path fill="none" stroke="#63b8ff" d="M144.15,-29.09C158.12,-27.28 172.6,-25.39 186.25,-23.62"/>
<polygon fill="#63b8ff" stroke="#63b8ff" points="143.55,-25.64 134.09,-30.4 144.46,-32.58 143.55,-25.64"/>
</a>
</g>
</g>
<!-- Node5&#45;&gt;Node2 -->
<g id="edge4_Node000002_Node000005" class="edge">
<title>Node5&#45;&gt;Node2</title>
<g id="a_edge4_Node000002_Node000005"><a xlink:title=" ">
<path fill="none" stroke="#63b8ff" d="M325.64,-32.51C346.27,-37.59 368.6,-43.09 388.55,-48"/>
<polygon fill="#63b8ff" stroke="#63b8ff" points="326.21,-29.05 315.66,-30.06 324.54,-35.84 326.21,-29.05"/>
</a>
</g>
</g>
<!-- Node6&#45;&gt;Node1 -->
<g id="edge6_Node000001_Node000006" class="edge">
<title>Node6&#45;&gt;Node1</title>
<g id="a_edge6_Node000001_Node000006"><a xlink:title=" ">
<path fill="none" stroke="#63b8ff" d="M536.79,-100.08C545.8,-98.93 554.92,-97.76 563.8,-96.63"/>
<polygon fill="#63b8ff" stroke="#63b8ff" points="536.16,-96.64 526.68,-101.38 537.05,-103.58 536.16,-96.64"/>
</a>
</g>
</g>
<!-- Node7 -->
<g id="Node000007" class="node">
<title>Node7</title>
<g id="a_Node000007"><a xlink:href="interfaceBalloonParty_1_1Slots_1_1Capabilities_1_1IHitable.html" target="_top" xlink:title=" ">
<polygon fill="white" stroke="#666666" points="337,-174 170,-174 170,-144 337,-144 337,-174"/>
<text text-anchor="start" x="178" y="-162" font-family="Helvetica,sans-Serif" font-size="10.00">BalloonParty.Slots.Capabilities.</text>
<text text-anchor="middle" x="253.5" y="-151" font-family="Helvetica,sans-Serif" font-size="10.00">IHitable</text>
</a>
</g>
</g>
<!-- Node7&#45;&gt;Node6 -->
<g id="edge8_Node000006_Node000007" class="edge">
<title>Node7&#45;&gt;Node6</title>
<g id="a_edge8_Node000006_Node000007"><a xlink:title=" ">
<path fill="none" stroke="#63b8ff" d="M325.64,-141.49C346.27,-136.41 368.6,-130.91 388.55,-126"/>
<polygon fill="#63b8ff" stroke="#63b8ff" points="324.54,-138.16 315.66,-143.94 326.21,-144.95 324.54,-138.16"/>
</a>
</g>
</g>
<!-- Node8 -->
<g id="Node000008" class="node">
<title>Node8</title>
<g id="a_Node000008"><a xlink:href="interfaceBalloonParty_1_1Slots_1_1Capabilities_1_1IHasNudge.html" target="_top" xlink:title=" ">
<polygon fill="white" stroke="#666666" points="337,-126 170,-126 170,-96 337,-96 337,-126"/>
<text text-anchor="start" x="178" y="-114" font-family="Helvetica,sans-Serif" font-size="10.00">BalloonParty.Slots.Capabilities.</text>
<text text-anchor="middle" x="253.5" y="-103" font-family="Helvetica,sans-Serif" font-size="10.00">IHasNudge</text>
</a>
</g>
</g>
<!-- Node8&#45;&gt;Node6 -->
<g id="edge9_Node000006_Node000008" class="edge">
<title>Node8&#45;&gt;Node6</title>
<g id="a_edge9_Node000006_Node000008"><a xlink:title=" ">
<path fill="none" stroke="#63b8ff" d="M347.39,-111C356.45,-111 365.56,-111 374.41,-111"/>
<polygon fill="#63b8ff" stroke="#63b8ff" points="347.2,-107.5 337.2,-111 347.2,-114.5 347.2,-107.5"/>
</a>
</g>
</g>
</g>
</svg>
