<?xml version="1.0" encoding="UTF-8" standalone="no"?>
<!DOCTYPE svg PUBLIC "-//W3C//DTD SVG 1.1//EN"
 "http://www.w3.org/Graphics/SVG/1.1/DTD/svg11.dtd">
<!-- Generated by graphviz version 15.0.0 (20260523.1842)
 -->
<!-- Title: ActorHierarchy Pages: 1 -->
<svg width="626pt" height="514pt"
 viewBox="0.00 0.00 626.00 514.00" xmlns="http://www.w3.org/2000/svg" xmlns:xlink="http://www.w3.org/1999/xlink">
<g id="graph0" class="graph" transform="scale(1 1) rotate(0) translate(4 510)">
<title>ActorHierarchy</title>
<!-- ISlotActor -->
<g id="node1" class="node">
<title>ISlotActor</title>
<path fill="#1f3a5f" stroke="black" d="M280.75,-506C280.75,-506 201,-506 201,-506 195,-506 189,-500 189,-494 189,-494 189,-465 189,-465 189,-459 195,-453 201,-453 201,-453 280.75,-453 280.75,-453 286.75,-453 292.75,-459 292.75,-465 292.75,-465 292.75,-494 292.75,-494 292.75,-500 286.75,-506 280.75,-506"/>
<text xml:space="preserve" text-anchor="middle" x="240.88" y="-492.5" font-family="Helvetica,sans-Serif" font-size="10.00" fill="#58a6ff">ISlotActor</text>
<text xml:space="preserve" text-anchor="middle" x="240.88" y="-481.25" font-family="Helvetica,sans-Serif" font-size="10.00" fill="#58a6ff">─────────</text>
<text xml:space="preserve" text-anchor="middle" x="240.88" y="-470" font-family="Helvetica,sans-Serif" font-size="10.00" fill="#58a6ff">SlotIndex</text>
<text xml:space="preserve" text-anchor="middle" x="240.88" y="-458.75" font-family="Helvetica,sans-Serif" font-size="10.00" fill="#58a6ff">Kind</text>
</g>
<!-- IWriteableSlotActor -->
<g id="node2" class="node">
<title>IWriteableSlotActor</title>
<path fill="#1f3a5f" stroke="black" d="M220.75,-416C220.75,-416 141,-416 141,-416 135,-416 129,-410 129,-404 129,-404 129,-386.25 129,-386.25 129,-380.25 135,-374.25 141,-374.25 141,-374.25 220.75,-374.25 220.75,-374.25 226.75,-374.25 232.75,-380.25 232.75,-386.25 232.75,-386.25 232.75,-404 232.75,-404 232.75,-410 226.75,-416 220.75,-416"/>
<text xml:space="preserve" text-anchor="middle" x="180.88" y="-402.5" font-family="Helvetica,sans-Serif" font-size="10.00" fill="#58a6ff">IWriteableSlotActor</text>
<text xml:space="preserve" text-anchor="middle" x="180.88" y="-391.25" font-family="Helvetica,sans-Serif" font-size="10.00" fill="#58a6ff">─────────</text>
<text xml:space="preserve" text-anchor="middle" x="180.88" y="-380" font-family="Helvetica,sans-Serif" font-size="10.00" fill="#58a6ff">SlotIndex {set}</text>
</g>
<!-- IWriteableSlotActor&#45;&gt;ISlotActor -->
<g id="edge1" class="edge">
<title>IWriteableSlotActor&#45;&gt;ISlotActor</title>
<path fill="none" stroke="#30363d" d="M195.71,-416.49C201.69,-424.71 208.77,-434.43 215.53,-443.7"/>
<polygon fill="none" stroke="#30363d" points="212.52,-445.51 221.23,-451.54 218.18,-441.39 212.52,-445.51"/>
</g>
<!-- IDynamicSlotActor -->
<g id="node3" class="node">
<title>IDynamicSlotActor</title>
<path fill="#2d1f3d" stroke="black" d="M342.75,-416C342.75,-416 263,-416 263,-416 257,-416 251,-410 251,-404 251,-404 251,-386.25 251,-386.25 251,-380.25 257,-374.25 263,-374.25 263,-374.25 342.75,-374.25 342.75,-374.25 348.75,-374.25 354.75,-380.25 354.75,-386.25 354.75,-386.25 354.75,-404 354.75,-404 354.75,-410 348.75,-416 342.75,-416"/>
<text xml:space="preserve" text-anchor="middle" x="302.88" y="-402.5" font-family="Helvetica,sans-Serif" font-size="10.00" fill="#d2a8ff">IDynamicSlotActor</text>
<text xml:space="preserve" text-anchor="middle" x="302.88" y="-391.25" font-family="Helvetica,sans-Serif" font-size="10.00" fill="#d2a8ff">─────────</text>
<text xml:space="preserve" text-anchor="middle" x="302.88" y="-380" font-family="Helvetica,sans-Serif" font-size="10.00" fill="#d2a8ff">IsStable (readonly)</text>
</g>
<!-- IDynamicSlotActor&#45;&gt;ISlotActor -->
<g id="edge2" class="edge">
<title>IDynamicSlotActor&#45;&gt;ISlotActor</title>
<path fill="none" stroke="#30363d" d="M287.55,-416.49C281.36,-424.71 274.05,-434.43 267.07,-443.7"/>
<polygon fill="none" stroke="#30363d" points="264.38,-441.46 261.16,-451.55 269.97,-445.66 264.38,-441.46"/>
</g>
<!-- IWriteableDynamic -->
<g id="node4" class="node">
<title>IWriteableDynamic</title>
<path fill="#2d1f3d" stroke="black" d="M220.75,-337.25C220.75,-337.25 141,-337.25 141,-337.25 135,-337.25 129,-331.25 129,-325.25 129,-325.25 129,-296.25 129,-296.25 129,-290.25 135,-284.25 141,-284.25 141,-284.25 220.75,-284.25 220.75,-284.25 226.75,-284.25 232.75,-290.25 232.75,-296.25 232.75,-296.25 232.75,-325.25 232.75,-325.25 232.75,-331.25 226.75,-337.25 220.75,-337.25"/>
<text xml:space="preserve" text-anchor="middle" x="180.88" y="-323.75" font-family="Helvetica,sans-Serif" font-size="10.00" fill="#d2a8ff">IWriteableDynamic</text>
<text xml:space="preserve" text-anchor="middle" x="180.88" y="-312.5" font-family="Helvetica,sans-Serif" font-size="10.00" fill="#d2a8ff">SlotActor</text>
<text xml:space="preserve" text-anchor="middle" x="180.88" y="-301.25" font-family="Helvetica,sans-Serif" font-size="10.00" fill="#d2a8ff">─────────</text>
<text xml:space="preserve" text-anchor="middle" x="180.88" y="-290" font-family="Helvetica,sans-Serif" font-size="10.00" fill="#d2a8ff">IsStable {set}</text>
</g>
<!-- IWriteableDynamic&#45;&gt;IWriteableSlotActor -->
<g id="edge4" class="edge">
<title>IWriteableDynamic&#45;&gt;IWriteableSlotActor</title>
<path fill="none" stroke="#30363d" d="M180.88,-337.36C180.88,-345.32 180.88,-354.2 180.88,-362.51"/>
<polygon fill="none" stroke="#30363d" points="177.38,-362.24 180.88,-372.24 184.38,-362.24 177.38,-362.24"/>
</g>
<!-- IWriteableDynamic&#45;&gt;IDynamicSlotActor -->
<g id="edge3" class="edge">
<title>IWriteableDynamic&#45;&gt;IDynamicSlotActor</title>
<path fill="none" stroke="#30363d" d="M219.14,-337.59C233.22,-347.1 249.19,-357.88 263.38,-367.46"/>
<polygon fill="none" stroke="#30363d" points="261.37,-370.32 271.61,-373.02 265.29,-364.52 261.37,-370.32"/>
</g>
<!-- ISlotActorView -->
<g id="node5" class="node">
<title>ISlotActorView</title>
<path fill="#1a3a1a" stroke="black" d="M605.75,-64.25C605.75,-64.25 526,-64.25 526,-64.25 520,-64.25 514,-58.25 514,-52.25 514,-52.25 514,-12 514,-12 514,-6 520,0 526,0 526,0 605.75,0 605.75,0 611.75,0 617.75,-6 617.75,-12 617.75,-12 617.75,-52.25 617.75,-52.25 617.75,-58.25 611.75,-64.25 605.75,-64.25"/>
<text xml:space="preserve" text-anchor="middle" x="565.88" y="-50.75" font-family="Helvetica,sans-Serif" font-size="10.00" fill="#3fb950">ISlotActorView</text>
<text xml:space="preserve" text-anchor="middle" x="565.88" y="-39.5" font-family="Helvetica,sans-Serif" font-size="10.00" fill="#3fb950">─────────</text>
<text xml:space="preserve" text-anchor="middle" x="565.88" y="-28.25" font-family="Helvetica,sans-Serif" font-size="10.00" fill="#3fb950">transform</text>
<text xml:space="preserve" text-anchor="middle" x="565.88" y="-17" font-family="Helvetica,sans-Serif" font-size="10.00" fill="#3fb950">TweenTracker</text>
<text xml:space="preserve" text-anchor="middle" x="565.88" y="-5.75" font-family="Helvetica,sans-Serif" font-size="10.00" fill="#3fb950">ActorKind</text>
</g>
<!-- IBalloonModel -->
<g id="node6" class="node">
<title>IBalloonModel</title>
<path fill="#3d2a1a" stroke="black" d="M342.75,-331.62C342.75,-331.62 263,-331.62 263,-331.62 257,-331.62 251,-325.62 251,-319.62 251,-319.62 251,-301.88 251,-301.88 251,-295.88 257,-289.88 263,-289.88 263,-289.88 342.75,-289.88 342.75,-289.88 348.75,-289.88 354.75,-295.88 354.75,-301.88 354.75,-301.88 354.75,-319.62 354.75,-319.62 354.75,-325.62 348.75,-331.62 342.75,-331.62"/>
<text xml:space="preserve" text-anchor="middle" x="302.88" y="-318.12" font-family="Helvetica,sans-Serif" font-size="10.00" fill="#f78166">IBalloonModel</text>
<text xml:space="preserve" text-anchor="middle" x="302.88" y="-306.88" font-family="Helvetica,sans-Serif" font-size="10.00" fill="#f78166">─────────</text>
<text xml:space="preserve" text-anchor="middle" x="302.88" y="-295.62" font-family="Helvetica,sans-Serif" font-size="10.00" fill="#f78166">TypeName</text>
</g>
<!-- IBalloonModel&#45;&gt;IDynamicSlotActor -->
<g id="edge5" class="edge">
<title>IBalloonModel&#45;&gt;IDynamicSlotActor</title>
<path fill="none" stroke="#f78166" stroke-width="2" d="M302.88,-332.11C302.88,-341.29 302.88,-352.34 302.88,-362.55"/>
<polygon fill="none" stroke="#f78166" stroke-width="2" points="299.38,-360.97 302.88,-370.97 306.38,-360.97 299.38,-360.97"/>
</g>
<!-- IWriteableBalloon -->
<g id="node7" class="node">
<title>IWriteableBalloon</title>
<path fill="#3d2a1a" stroke="black" d="M287.88,-247.25C287.88,-247.25 193.88,-247.25 193.88,-247.25 187.88,-247.25 181.88,-241.25 181.88,-235.25 181.88,-235.25 181.88,-223.25 181.88,-223.25 181.88,-217.25 187.88,-211.25 193.88,-211.25 193.88,-211.25 287.88,-211.25 287.88,-211.25 293.88,-211.25 299.88,-217.25 299.88,-223.25 299.88,-223.25 299.88,-235.25 299.88,-235.25 299.88,-241.25 293.88,-247.25 287.88,-247.25"/>
<text xml:space="preserve" text-anchor="middle" x="240.88" y="-225.38" font-family="Helvetica,sans-Serif" font-size="10.00" fill="#f78166">IWriteableBalloonModel</text>
</g>
<!-- IWriteableBalloon&#45;&gt;IWriteableDynamic -->
<g id="edge7" class="edge">
<title>IWriteableBalloon&#45;&gt;IWriteableDynamic</title>
<path fill="none" stroke="#30363d" d="M227.86,-247.5C221.8,-255.53 214.36,-265.38 207.2,-274.86"/>
<polygon fill="none" stroke="#30363d" points="204.63,-272.47 201.4,-282.56 210.21,-276.69 204.63,-272.47"/>
</g>
<!-- IWriteableBalloon&#45;&gt;IBalloonModel -->
<g id="edge6" class="edge">
<title>IWriteableBalloon&#45;&gt;IBalloonModel</title>
<path fill="none" stroke="#30363d" d="M254.33,-247.5C261.84,-257.13 271.4,-269.39 280.05,-280.48"/>
<polygon fill="none" stroke="#30363d" points="277.2,-282.51 286.1,-288.25 282.71,-278.21 277.2,-282.51"/>
</g>
<!-- BalloonModelBase -->
<g id="node8" class="node">
<title>BalloonModelBase</title>
<path fill="#3d1a1a" stroke="black" stroke-width="2" d="M280.75,-165.5C280.75,-165.5 201,-165.5 201,-165.5 195,-165.5 189,-159.5 189,-153.5 189,-153.5 189,-113.25 189,-113.25 189,-107.25 195,-101.25 201,-101.25 201,-101.25 280.75,-101.25 280.75,-101.25 286.75,-101.25 292.75,-107.25 292.75,-113.25 292.75,-113.25 292.75,-153.5 292.75,-153.5 292.75,-159.5 286.75,-165.5 280.75,-165.5"/>
<text xml:space="preserve" text-anchor="middle" x="240.88" y="-152" font-family="Helvetica,sans-Serif" font-size="10.00" fill="#f78166">«abstract»</text>
<text xml:space="preserve" text-anchor="middle" x="240.88" y="-140.75" font-family="Helvetica,sans-Serif" font-size="10.00" fill="#f78166">BalloonModelBase</text>
<text xml:space="preserve" text-anchor="middle" x="240.88" y="-129.5" font-family="Helvetica,sans-Serif" font-size="10.00" fill="#f78166">─────────</text>
<text xml:space="preserve" text-anchor="middle" x="240.88" y="-118.25" font-family="Helvetica,sans-Serif" font-size="10.00" fill="#f78166">EvaluateHit()</text>
<text xml:space="preserve" text-anchor="middle" x="240.88" y="-107" font-family="Helvetica,sans-Serif" font-size="10.00" fill="#f78166">NudgeOverrides</text>
</g>
<!-- BalloonModelBase&#45;&gt;IWriteableBalloon -->
<g id="edge8" class="edge">
<title>BalloonModelBase&#45;&gt;IWriteableBalloon</title>
<path fill="none" stroke="#30363d" stroke-dasharray="5,2" d="M240.88,-165.9C240.88,-176.81 240.88,-188.97 240.88,-199.64"/>
<polygon fill="none" stroke="#30363d" points="237.38,-199.39 240.88,-209.39 244.38,-199.39 237.38,-199.39"/>
<text xml:space="preserve" text-anchor="middle" x="259.25" y="-185.65" font-family="Times,serif" font-size="8.00" fill="#8b949e">implements</text>
</g>
<!-- BalloonModel -->
<g id="node9" class="node">
<title>BalloonModel</title>
<path fill="#2a2a2a" stroke="black" d="M91.75,-64.25C91.75,-64.25 12,-64.25 12,-64.25 6,-64.25 0,-58.25 0,-52.25 0,-52.25 0,-12 0,-12 0,-6 6,0 12,0 12,0 91.75,0 91.75,0 97.75,0 103.75,-6 103.75,-12 103.75,-12 103.75,-52.25 103.75,-52.25 103.75,-58.25 97.75,-64.25 91.75,-64.25"/>
<text xml:space="preserve" text-anchor="middle" x="51.88" y="-50.75" font-family="Helvetica,sans-Serif" font-size="10.00" fill="#c9d1d9">BalloonModel</text>
<text xml:space="preserve" text-anchor="middle" x="51.88" y="-39.5" font-family="Helvetica,sans-Serif" font-size="10.00" fill="#c9d1d9">─────────</text>
<text xml:space="preserve" text-anchor="middle" x="51.88" y="-28.25" font-family="Helvetica,sans-Serif" font-size="10.00" fill="#c9d1d9">IPaintable</text>
<text xml:space="preserve" text-anchor="middle" x="51.88" y="-17" font-family="Helvetica,sans-Serif" font-size="10.00" fill="#c9d1d9">IHasDurability</text>
<text xml:space="preserve" text-anchor="middle" x="51.88" y="-5.75" font-family="Helvetica,sans-Serif" font-size="10.00" fill="#c9d1d9">IHasItemSlot</text>
</g>
<!-- BalloonModel&#45;&gt;BalloonModelBase -->
<g id="edge9" class="edge">
<title>BalloonModel&#45;&gt;BalloonModelBase</title>
<path fill="none" stroke="#30363d" d="M104.02,-60.51C127.06,-72.61 154.34,-86.93 178.45,-99.59"/>
<polygon fill="none" stroke="#30363d" points="176.75,-102.65 187.23,-104.21 180.01,-96.46 176.75,-102.65"/>
</g>
<!-- ToughBalloonModel -->
<g id="node10" class="node">
<title>ToughBalloonModel</title>
<path fill="#2a2a2a" stroke="black" d="M213.75,-58.62C213.75,-58.62 134,-58.62 134,-58.62 128,-58.62 122,-52.62 122,-46.62 122,-46.62 122,-17.62 122,-17.62 122,-11.62 128,-5.62 134,-5.62 134,-5.62 213.75,-5.62 213.75,-5.62 219.75,-5.62 225.75,-11.62 225.75,-17.62 225.75,-17.62 225.75,-46.62 225.75,-46.62 225.75,-52.62 219.75,-58.62 213.75,-58.62"/>
<text xml:space="preserve" text-anchor="middle" x="173.88" y="-45.12" font-family="Helvetica,sans-Serif" font-size="10.00" fill="#c9d1d9">ToughBalloonModel</text>
<text xml:space="preserve" text-anchor="middle" x="173.88" y="-33.88" font-family="Helvetica,sans-Serif" font-size="10.00" fill="#c9d1d9">─────────</text>
<text xml:space="preserve" text-anchor="middle" x="173.88" y="-22.62" font-family="Helvetica,sans-Serif" font-size="10.00" fill="#c9d1d9">IHasDurability</text>
<text xml:space="preserve" text-anchor="middle" x="173.88" y="-11.38" font-family="Helvetica,sans-Serif" font-size="10.00" fill="#c9d1d9">Deflect on survival</text>
</g>
<!-- ToughBalloonModel&#45;&gt;BalloonModelBase -->
<g id="edge10" class="edge">
<title>ToughBalloonModel&#45;&gt;BalloonModelBase</title>
<path fill="none" stroke="#30363d" d="M191.3,-58.94C198.02,-68.89 205.87,-80.52 213.31,-91.54"/>
<polygon fill="none" stroke="#30363d" points="210.37,-93.44 218.86,-99.77 216.17,-89.52 210.37,-93.44"/>
</g>
<!-- UnbreakableBalloonModel -->
<g id="node11" class="node">
<title>UnbreakableBalloonModel</title>
<path fill="#2a2a2a" stroke="black" d="M361.5,-58.62C361.5,-58.62 256.25,-58.62 256.25,-58.62 250.25,-58.62 244.25,-52.62 244.25,-46.62 244.25,-46.62 244.25,-17.62 244.25,-17.62 244.25,-11.62 250.25,-5.62 256.25,-5.62 256.25,-5.62 361.5,-5.62 361.5,-5.62 367.5,-5.62 373.5,-11.62 373.5,-17.62 373.5,-17.62 373.5,-46.62 373.5,-46.62 373.5,-52.62 367.5,-58.62 361.5,-58.62"/>
<text xml:space="preserve" text-anchor="middle" x="308.88" y="-45.12" font-family="Helvetica,sans-Serif" font-size="10.00" fill="#c9d1d9">UnbreakableBalloonModel</text>
<text xml:space="preserve" text-anchor="middle" x="308.88" y="-33.88" font-family="Helvetica,sans-Serif" font-size="10.00" fill="#c9d1d9">─────────</text>
<text xml:space="preserve" text-anchor="middle" x="308.88" y="-22.62" font-family="Helvetica,sans-Serif" font-size="10.00" fill="#c9d1d9">IHitable only</text>
<text xml:space="preserve" text-anchor="middle" x="308.88" y="-11.38" font-family="Helvetica,sans-Serif" font-size="10.00" fill="#c9d1d9">Always Deflect</text>
</g>
<!-- UnbreakableBalloonModel&#45;&gt;BalloonModelBase -->
<g id="edge11" class="edge">
<title>UnbreakableBalloonModel&#45;&gt;BalloonModelBase</title>
<path fill="none" stroke="#30363d" d="M291.19,-58.94C284.37,-68.89 276.4,-80.52 268.85,-91.54"/>
<polygon fill="none" stroke="#30363d" points="265.98,-89.55 263.21,-99.77 271.75,-93.5 265.98,-89.55"/>
</g>
<!-- BubbleClusterModel -->
<g id="node12" class="node">
<title>BubbleClusterModel</title>
<path fill="#2a2a2a" stroke="black" d="M483.75,-58.62C483.75,-58.62 404,-58.62 404,-58.62 398,-58.62 392,-52.62 392,-46.62 392,-46.62 392,-17.62 392,-17.62 392,-11.62 398,-5.62 404,-5.62 404,-5.62 483.75,-5.62 483.75,-5.62 489.75,-5.62 495.75,-11.62 495.75,-17.62 495.75,-17.62 495.75,-46.62 495.75,-46.62 495.75,-52.62 489.75,-58.62 483.75,-58.62"/>
<text xml:space="preserve" text-anchor="middle" x="443.88" y="-45.12" font-family="Helvetica,sans-Serif" font-size="10.00" fill="#c9d1d9">BubbleClusterModel</text>
<text xml:space="preserve" text-anchor="middle" x="443.88" y="-33.88" font-family="Helvetica,sans-Serif" font-size="10.00" fill="#c9d1d9">─────────</text>
<text xml:space="preserve" text-anchor="middle" x="443.88" y="-22.62" font-family="Helvetica,sans-Serif" font-size="10.00" fill="#c9d1d9">IHasDurability</text>
<text xml:space="preserve" text-anchor="middle" x="443.88" y="-11.38" font-family="Helvetica,sans-Serif" font-size="10.00" fill="#c9d1d9">PassThrough</text>
</g>
<!-- BubbleClusterModel&#45;&gt;BalloonModelBase -->
<g id="edge12" class="edge">
<title>BubbleClusterModel&#45;&gt;BalloonModelBase</title>
<path fill="none" stroke="#30363d" d="M393.33,-59.04C389.8,-60.81 386.28,-62.56 382.88,-64.25 356.93,-77.09 328.16,-90.96 303.33,-102.82"/>
<polygon fill="none" stroke="#30363d" points="301.84,-99.65 294.32,-107.11 304.85,-105.97 301.84,-99.65"/>
</g>
</g>
</svg>
