<?xml version="1.0" encoding="UTF-8" standalone="no"?>
<!DOCTYPE svg PUBLIC "-//W3C//DTD SVG 1.1//EN"
 "http://www.w3.org/Graphics/SVG/1.1/DTD/svg11.dtd">
<!-- Generated by graphviz version 15.0.0 (20260523.1842)
 -->
<!-- Title: CinematicsArchitecture Pages: 1 -->
<svg width="1424pt" height="597pt"
 viewBox="0.00 0.00 1424.00 597.00" xmlns="http://www.w3.org/2000/svg" xmlns:xlink="http://www.w3.org/1999/xlink">
<g id="graph0" class="graph" transform="scale(1 1) rotate(0) translate(4 593.29)">
<title>CinematicsArchitecture</title>
<g id="clust1" class="cluster">
<title>cluster_config</title>
<polygon fill="none" stroke="#30363d" stroke-dasharray="5,2" points="405,-347 405,-495.25 667,-495.25 667,-347 405,-347"/>
<text xml:space="preserve" text-anchor="middle" x="536" y="-477.95" font-family="Helvetica,sans-Serif" font-size="14.00" fill="#8b949e">Configuration (single setup point)</text>
</g>
<g id="clust2" class="cluster">
<title>cluster_producers</title>
<polygon fill="none" stroke="#30363d" stroke-dasharray="5,2" points="700,-358.25 700,-484 1106,-484 1106,-358.25 700,-358.25"/>
<text xml:space="preserve" text-anchor="middle" x="903" y="-466.7" font-family="Helvetica,sans-Serif" font-size="14.00" fill="#8b949e">Producers (plain C# IStartable — trigger + focus + end condition)</text>
</g>
<g id="clust3" class="cluster">
<title>cluster_services</title>
<polygon fill="none" stroke="#30363d" stroke-dasharray="5,2" points="548,-73 548,-187.5 1242,-187.5 1242,-73 548,-73"/>
<text xml:space="preserve" text-anchor="middle" x="895" y="-170.2" font-family="Helvetica,sans-Serif" font-size="14.00" fill="#8b949e">Shared services</text>
</g>
<g id="clust4" class="cluster">
<title>cluster_traits</title>
<polygon fill="none" stroke="#30363d" stroke-dasharray="5,2" points="8,-84.25 8,-176.25 540,-176.25 540,-84.25 8,-84.25"/>
<text xml:space="preserve" text-anchor="middle" x="274" y="-158.95" font-family="Helvetica,sans-Serif" font-size="14.00" fill="#8b949e">Trait consumers — ICinematicState.Has(trait)</text>
</g>
<!-- ScorePoint -->
<g id="node1" class="node">
<title>ScorePoint</title>
<ellipse fill="#3d2a1a" stroke="black" cx="992" cy="-559.77" rx="73.36" ry="21.57"/>
<text xml:space="preserve" text-anchor="middle" x="992" y="-561.52" font-family="Helvetica,sans-Serif" font-size="10.00" fill="#f78166">ScorePointMessage</text>
<text xml:space="preserve" text-anchor="middle" x="992" y="-550.27" font-family="Helvetica,sans-Serif" font-size="10.00" fill="#f78166">+ WillLevelUp()</text>
</g>
<!-- LevelUp -->
<g id="node5" class="node">
<title>LevelUp</title>
<path fill="#2d1f3d" stroke="black" d="M1085.88,-453C1085.88,-453 898.12,-453 898.12,-453 892.12,-453 886.12,-447 886.12,-441 886.12,-441 886.12,-378.25 886.12,-378.25 886.12,-372.25 892.12,-366.25 898.12,-366.25 898.12,-366.25 1085.88,-366.25 1085.88,-366.25 1091.88,-366.25 1097.88,-372.25 1097.88,-378.25 1097.88,-378.25 1097.88,-441 1097.88,-441 1097.88,-447 1091.88,-453 1085.88,-453"/>
<text xml:space="preserve" text-anchor="middle" x="992" y="-439.5" font-family="Helvetica,sans-Serif" font-size="10.00" fill="#d2a8ff">LevelUpCinematic</text>
<text xml:space="preserve" text-anchor="middle" x="992" y="-428.25" font-family="Helvetica,sans-Serif" font-size="10.00" fill="#d2a8ff">─────────</text>
<text xml:space="preserve" text-anchor="middle" x="992" y="-417" font-family="Helvetica,sans-Serif" font-size="10.00" fill="#d2a8ff">split phases around the popup gate</text>
<text xml:space="preserve" text-anchor="middle" x="992" y="-405.75" font-family="Helvetica,sans-Serif" font-size="10.00" fill="#d2a8ff">DrivesTimeScale = false (puppets the</text>
<text xml:space="preserve" text-anchor="middle" x="992" y="-394.5" font-family="Helvetica,sans-Serif" font-size="10.00" fill="#d2a8ff">tipping trail via the curve instead)</text>
<text xml:space="preserve" text-anchor="middle" x="992" y="-383.25" font-family="Helvetica,sans-Serif" font-size="10.00" fill="#d2a8ff">RestoreEvaluatesCurve (ramp from frozen 0)</text>
<text xml:space="preserve" text-anchor="middle" x="992" y="-372" font-family="Helvetica,sans-Serif" font-size="10.00" fill="#d2a8ff">focus: PointFocus(tipping trail)</text>
</g>
<!-- ScorePoint&#45;&gt;LevelUp -->
<g id="edge1" class="edge">
<title>ScorePoint&#45;&gt;LevelUp</title>
<path fill="none" stroke="#f78166" d="M992,-537.86C992,-518.91 992,-490.14 992,-464.76"/>
<polygon fill="#f78166" stroke="#f78166" points="995.5,-464.89 992,-454.89 988.5,-464.89 995.5,-464.89"/>
</g>
<!-- HeartRequested -->
<g id="node2" class="node">
<title>HeartRequested</title>
<ellipse fill="#3d2a1a" stroke="black" cx="598" cy="-559.77" rx="117.38" ry="29.52"/>
<text xml:space="preserve" text-anchor="middle" x="598" y="-567.15" font-family="Helvetica,sans-Serif" font-size="10.00" fill="#f78166">OverflowHeartRequestedMessage</text>
<text xml:space="preserve" text-anchor="middle" x="598" y="-555.9" font-family="Helvetica,sans-Serif" font-size="10.00" fill="#f78166">(RejectedBalloonEffect,</text>
<text xml:space="preserve" text-anchor="middle" x="598" y="-544.65" font-family="Helvetica,sans-Serif" font-size="10.00" fill="#f78166">one per ready overflow balloon)</text>
</g>
<!-- HeartDrain -->
<g id="node6" class="node">
<title>HeartDrain</title>
<path fill="#2d1f3d" stroke="black" d="M855.62,-448.5C855.62,-448.5 720.38,-448.5 720.38,-448.5 714.38,-448.5 708.38,-442.5 708.38,-436.5 708.38,-436.5 708.38,-382.75 708.38,-382.75 708.38,-376.75 714.38,-370.75 720.38,-370.75 720.38,-370.75 855.62,-370.75 855.62,-370.75 861.62,-370.75 867.62,-376.75 867.62,-382.75 867.62,-382.75 867.62,-436.5 867.62,-436.5 867.62,-442.5 861.62,-448.5 855.62,-448.5"/>
<text xml:space="preserve" text-anchor="middle" x="788" y="-435" font-family="Helvetica,sans-Serif" font-size="10.00" fill="#d2a8ff">HeartDrainCinematic</text>
<text xml:space="preserve" text-anchor="middle" x="788" y="-423.75" font-family="Helvetica,sans-Serif" font-size="10.00" fill="#d2a8ff">─────────</text>
<text xml:space="preserve" text-anchor="middle" x="788" y="-412.5" font-family="Helvetica,sans-Serif" font-size="10.00" fill="#d2a8ff">continuous pan&#45;in → restore</text>
<text xml:space="preserve" text-anchor="middle" x="788" y="-399.75" font-family="Helvetica,sans-Serif" font-size="10.00" fill="#d2a8ff">drives timeScale (slow&#45;mo ramp)</text>
<text xml:space="preserve" text-anchor="middle" x="788" y="-388.5" font-family="Helvetica,sans-Serif" font-size="10.00" fill="#d2a8ff">end: pile drained ∨ game over</text>
<text xml:space="preserve" text-anchor="middle" x="788" y="-376.5" font-family="Helvetica,sans-Serif" font-size="10.00" fill="#d2a8ff">focus: HeartTrailFocus(tracker)</text>
</g>
<!-- HeartRequested&#45;&gt;HeartDrain -->
<g id="edge2" class="edge">
<title>HeartRequested&#45;&gt;HeartDrain</title>
<path fill="none" stroke="#f78166" d="M633.29,-531.25C660.46,-510.07 698.6,-480.33 730.2,-455.69"/>
<polygon fill="#f78166" stroke="#f78166" points="732,-458.73 737.74,-449.82 727.7,-453.21 732,-458.73"/>
</g>
<!-- Dismissed -->
<g id="node3" class="node">
<title>Dismissed</title>
<ellipse fill="#3d2a1a" stroke="black" cx="1334" cy="-118.75" rx="81.8" ry="18"/>
<text xml:space="preserve" text-anchor="middle" x="1334" y="-114.88" font-family="Helvetica,sans-Serif" font-size="10.00" fill="#f78166">LevelUpDismissedMessage</text>
</g>
<!-- Dismissed&#45;&gt;LevelUp -->
<g id="edge3" class="edge">
<title>Dismissed&#45;&gt;LevelUp</title>
<path fill="none" stroke="#f78166" d="M1333.17,-137.21C1330.55,-172.74 1319.73,-254.03 1275,-301 1231.32,-346.86 1166.07,-373.39 1109.23,-388.63"/>
<polygon fill="#f78166" stroke="#f78166" points="1108.62,-385.17 1099.82,-391.06 1110.37,-391.95 1108.62,-385.17"/>
<text xml:space="preserve" text-anchor="middle" x="1346.75" y="-258.65" font-family="Helvetica,sans-Serif" font-size="8.00" fill="#8b949e">TryBeginRestore</text>
</g>
<!-- Settings -->
<g id="node4" class="node">
<title>Settings</title>
<path fill="#1a3a1a" stroke="black" d="M647.12,-464.25C647.12,-464.25 424.88,-464.25 424.88,-464.25 418.88,-464.25 412.88,-458.25 412.88,-452.25 412.88,-452.25 412.88,-367 412.88,-367 412.88,-361 418.88,-355 424.88,-355 424.88,-355 647.12,-355 647.12,-355 653.12,-355 659.12,-361 659.12,-367 659.12,-367 659.12,-452.25 659.12,-452.25 659.12,-458.25 653.12,-464.25 647.12,-464.25"/>
<text xml:space="preserve" text-anchor="middle" x="536" y="-450.75" font-family="Helvetica,sans-Serif" font-size="10.00" fill="#3fb950">CinematicsSettings (SO)</text>
<text xml:space="preserve" text-anchor="middle" x="536" y="-439.5" font-family="Helvetica,sans-Serif" font-size="10.00" fill="#3fb950">─────────</text>
<text xml:space="preserve" text-anchor="middle" x="536" y="-428.25" font-family="Helvetica,sans-Serif" font-size="10.00" fill="#3fb950">[EnumIndexed] one CinematicStateEntry</text>
<text xml:space="preserve" text-anchor="middle" x="536" y="-417" font-family="Helvetica,sans-Serif" font-size="10.00" fill="#3fb950">per CinematicState:</text>
<text xml:space="preserve" text-anchor="middle" x="536" y="-405.75" font-family="Helvetica,sans-Serif" font-size="10.00" fill="#3fb950">Traits + Rig segment + TrackedTrail</text>
<text xml:space="preserve" text-anchor="middle" x="536" y="-394.5" font-family="Helvetica,sans-Serif" font-size="10.00" fill="#3fb950">─────────</text>
<text xml:space="preserve" text-anchor="middle" x="536" y="-383.25" font-family="Helvetica,sans-Serif" font-size="10.00" fill="#3fb950">Rig segment = TimeScaleCurve (last key = duration)</text>
<text xml:space="preserve" text-anchor="middle" x="536" y="-372" font-family="Helvetica,sans-Serif" font-size="10.00" fill="#3fb950">+ zoom / pan / followSpeed</text>
<text xml:space="preserve" text-anchor="middle" x="536" y="-360.75" font-family="Helvetica,sans-Serif" font-size="10.00" fill="#3fb950">restores are ordinary segments</text>
</g>
<!-- Runner -->
<g id="node7" class="node">
<title>Runner</title>
<path fill="#1f3a5f" stroke="black" d="M901.25,-301C901.25,-301 658.75,-301 658.75,-301 652.75,-301 646.75,-295 646.75,-289 646.75,-289 646.75,-234.5 646.75,-234.5 646.75,-228.5 652.75,-222.5 658.75,-222.5 658.75,-222.5 901.25,-222.5 901.25,-222.5 907.25,-222.5 913.25,-228.5 913.25,-234.5 913.25,-234.5 913.25,-289 913.25,-289 913.25,-295 907.25,-301 901.25,-301"/>
<text xml:space="preserve" text-anchor="middle" x="780" y="-287.5" font-family="Helvetica,sans-Serif" font-size="10.00" fill="#58a6ff">CameraRigCinematic (runner)</text>
<text xml:space="preserve" text-anchor="middle" x="780" y="-276.25" font-family="Helvetica,sans-Serif" font-size="10.00" fill="#58a6ff">─────────</text>
<text xml:space="preserve" text-anchor="middle" x="780" y="-265" font-family="Helvetica,sans-Serif" font-size="10.00" fill="#58a6ff">TryBegin → PanInTick (timeScale claim + Frame + hook)</text>
<text xml:space="preserve" text-anchor="middle" x="780" y="-252.25" font-family="Helvetica,sans-Serif" font-size="10.00" fill="#58a6ff">→ end condition → restore segment → EndCinematic</text>
<text xml:space="preserve" text-anchor="middle" x="780" y="-239.5" font-family="Helvetica,sans-Serif" font-size="10.00" fill="#58a6ff">split form: EndPanIn … gate … TryBeginRestore</text>
<text xml:space="preserve" text-anchor="middle" x="780" y="-228.25" font-family="Helvetica,sans-Serif" font-size="10.00" fill="#58a6ff">owns begin/end pairing + Abort() teardown</text>
</g>
<!-- Settings&#45;&gt;Runner -->
<g id="edge4" class="edge">
<title>Settings&#45;&gt;Runner</title>
<path fill="none" stroke="#3fb950" d="M626.51,-354.51C652.61,-338.91 680.78,-322.07 705.77,-307.13"/>
<polygon fill="#3fb950" stroke="#3fb950" points="707.45,-310.2 714.24,-302.06 703.86,-304.19 707.45,-310.2"/>
<text xml:space="preserve" text-anchor="middle" x="712.1" y="-324.9" font-family="Helvetica,sans-Serif" font-size="8.00" fill="#8b949e">EntryOf(state).Rig</text>
</g>
<!-- CinematicState -->
<g id="node12" class="node">
<title>CinematicState</title>
<ellipse fill="#2a2a2a" stroke="black" cx="452" cy="-261.75" rx="144.43" ry="37.48"/>
<text xml:space="preserve" text-anchor="middle" x="452" y="-274.75" font-family="Helvetica,sans-Serif" font-size="10.00" fill="#c9d1d9">Cinematic.Current</text>
<text xml:space="preserve" text-anchor="middle" x="452" y="-263.5" font-family="Helvetica,sans-Serif" font-size="10.00" fill="#c9d1d9">(static ReactiveProperty&lt;CinematicState&gt;)</text>
<text xml:space="preserve" text-anchor="middle" x="452" y="-252.25" font-family="Helvetica,sans-Serif" font-size="10.00" fill="#c9d1d9">None / LevelUpPanIn / LevelUpRestore /</text>
<text xml:space="preserve" text-anchor="middle" x="452" y="-241" font-family="Helvetica,sans-Serif" font-size="10.00" fill="#c9d1d9">HeartDrain / HeartDrainRestore</text>
</g>
<!-- Settings&#45;&gt;CinematicState -->
<g id="edge5" class="edge">
<title>Settings&#45;&gt;CinematicState</title>
<path fill="none" stroke="#3fb950" stroke-dasharray="5,2" d="M504.96,-354.72C496.3,-339.69 486.98,-323.49 478.6,-308.94"/>
<polygon fill="#3fb950" stroke="#3fb950" points="481.75,-307.4 473.73,-300.48 475.68,-310.89 481.75,-307.4"/>
<text xml:space="preserve" text-anchor="middle" x="543.12" y="-329.4" font-family="Helvetica,sans-Serif" font-size="8.00" fill="#8b949e">EntryOf(state).Traits</text>
<text xml:space="preserve" text-anchor="middle" x="543.12" y="-320.4" font-family="Helvetica,sans-Serif" font-size="8.00" fill="#8b949e">(via CinematicStateService)</text>
</g>
<!-- LevelUp&#45;&gt;Runner -->
<g id="edge6" class="edge">
<title>LevelUp&#45;&gt;Runner</title>
<path fill="none" stroke="#d2a8ff" d="M929.83,-365.84C903.27,-347.57 872.25,-326.23 845.36,-307.72"/>
<polygon fill="#d2a8ff" stroke="#d2a8ff" points="847.5,-304.95 837.28,-302.16 843.53,-310.71 847.5,-304.95"/>
<text xml:space="preserve" text-anchor="middle" x="896.5" y="-324.9" font-family="Helvetica,sans-Serif" font-size="8.00" fill="#8b949e">config</text>
</g>
<!-- Pause -->
<g id="node17" class="node">
<title>Pause</title>
<path fill="#2a2a2a" stroke="black" d="M1054.25,-288.25C1054.25,-288.25 943.75,-288.25 943.75,-288.25 937.75,-288.25 931.75,-282.25 931.75,-276.25 931.75,-276.25 931.75,-247.25 931.75,-247.25 931.75,-241.25 937.75,-235.25 943.75,-235.25 943.75,-235.25 1054.25,-235.25 1054.25,-235.25 1060.25,-235.25 1066.25,-241.25 1066.25,-247.25 1066.25,-247.25 1066.25,-276.25 1066.25,-276.25 1066.25,-282.25 1060.25,-288.25 1054.25,-288.25"/>
<text xml:space="preserve" text-anchor="middle" x="999" y="-274.75" font-family="Helvetica,sans-Serif" font-size="10.00" fill="#c9d1d9">PauseService</text>
<text xml:space="preserve" text-anchor="middle" x="999" y="-263.5" font-family="Helvetica,sans-Serif" font-size="10.00" fill="#c9d1d9">Pause/Resume(Cinematic)</text>
<text xml:space="preserve" text-anchor="middle" x="999" y="-252.25" font-family="Helvetica,sans-Serif" font-size="10.00" fill="#c9d1d9">(logical freeze — projectile,</text>
<text xml:space="preserve" text-anchor="middle" x="999" y="-241" font-family="Helvetica,sans-Serif" font-size="10.00" fill="#c9d1d9">trail spawning)</text>
</g>
<!-- LevelUp&#45;&gt;Pause -->
<g id="edge8" class="edge">
<title>LevelUp&#45;&gt;Pause</title>
<path fill="none" stroke="#30363d" d="M994.04,-366.04C995.05,-345.09 996.25,-320.08 997.22,-299.91"/>
<polygon fill="#30363d" stroke="#30363d" points="1000.7,-300.33 997.68,-290.18 993.71,-300 1000.7,-300.33"/>
<text xml:space="preserve" text-anchor="middle" x="1025.75" y="-324.9" font-family="Helvetica,sans-Serif" font-size="8.00">Pause / Resume</text>
</g>
<!-- HeartDrain&#45;&gt;Runner -->
<g id="edge7" class="edge">
<title>HeartDrain&#45;&gt;Runner</title>
<path fill="none" stroke="#d2a8ff" d="M785.9,-370.3C784.93,-352.68 783.77,-331.56 782.74,-312.71"/>
<polygon fill="#d2a8ff" stroke="#d2a8ff" points="786.24,-312.63 782.2,-302.84 779.25,-313.02 786.24,-312.63"/>
<text xml:space="preserve" text-anchor="middle" x="794.5" y="-324.9" font-family="Helvetica,sans-Serif" font-size="8.00" fill="#8b949e">config</text>
</g>
<!-- Director -->
<g id="node8" class="node">
<title>Director</title>
<path fill="#1f3a5f" stroke="black" d="M756.25,-150.88C756.25,-150.88 567.75,-150.88 567.75,-150.88 561.75,-150.88 555.75,-144.88 555.75,-138.88 555.75,-138.88 555.75,-98.62 555.75,-98.62 555.75,-92.62 561.75,-86.62 567.75,-86.62 567.75,-86.62 756.25,-86.62 756.25,-86.62 762.25,-86.62 768.25,-92.62 768.25,-98.62 768.25,-98.62 768.25,-138.88 768.25,-138.88 768.25,-144.88 762.25,-150.88 756.25,-150.88"/>
<text xml:space="preserve" text-anchor="middle" x="662" y="-137.38" font-family="Helvetica,sans-Serif" font-size="10.00" fill="#58a6ff">CinematicDirector</text>
<text xml:space="preserve" text-anchor="middle" x="662" y="-126.12" font-family="Helvetica,sans-Serif" font-size="10.00" fill="#58a6ff">─────────</text>
<text xml:space="preserve" text-anchor="middle" x="662" y="-114.88" font-family="Helvetica,sans-Serif" font-size="10.00" fill="#58a6ff">TryBeginCinematic (drop while busy)</text>
<text xml:space="preserve" text-anchor="middle" x="662" y="-103.62" font-family="Helvetica,sans-Serif" font-size="10.00" fill="#58a6ff">PlayScene / CompleteScene / EndCinematic</text>
<text xml:space="preserve" text-anchor="middle" x="662" y="-92.38" font-family="Helvetica,sans-Serif" font-size="10.00" fill="#58a6ff">ticks the active CinematicScene</text>
</g>
<!-- Runner&#45;&gt;Director -->
<g id="edge10" class="edge">
<title>Runner&#45;&gt;Director</title>
<path fill="none" stroke="#58a6ff" d="M730.29,-222.28C724.16,-216.62 718.23,-210.62 713,-204.5 701.76,-191.35 691.47,-175.42 683.12,-160.94"/>
<polygon fill="#58a6ff" stroke="#58a6ff" points="686.34,-159.53 678.4,-152.52 680.24,-162.95 686.34,-159.53"/>
<text xml:space="preserve" text-anchor="middle" x="750.5" y="-196.9" font-family="Helvetica,sans-Serif" font-size="8.00" fill="#8b949e">TryBegin / PlayScene</text>
</g>
<!-- Rig -->
<g id="node9" class="node">
<title>Rig</title>
<path fill="#1f3a5f" stroke="black" d="M1017.62,-150.88C1017.62,-150.88 798.38,-150.88 798.38,-150.88 792.38,-150.88 786.38,-144.88 786.38,-138.88 786.38,-138.88 786.38,-98.62 786.38,-98.62 786.38,-92.62 792.38,-86.62 798.38,-86.62 798.38,-86.62 1017.62,-86.62 1017.62,-86.62 1023.62,-86.62 1029.62,-92.62 1029.62,-98.62 1029.62,-98.62 1029.62,-138.88 1029.62,-138.88 1029.62,-144.88 1023.62,-150.88 1017.62,-150.88"/>
<text xml:space="preserve" text-anchor="middle" x="908" y="-137.38" font-family="Helvetica,sans-Serif" font-size="10.00" fill="#58a6ff">CinematicCameraRig (DI singleton)</text>
<text xml:space="preserve" text-anchor="middle" x="908" y="-126.12" font-family="Helvetica,sans-Serif" font-size="10.00" fill="#58a6ff">─────────</text>
<text xml:space="preserve" text-anchor="middle" x="908" y="-114.88" font-family="Helvetica,sans-Serif" font-size="10.00" fill="#58a6ff">PreparePanIn(segment) / Frame(focus, segment, dt)</text>
<text xml:space="preserve" text-anchor="middle" x="908" y="-103.62" font-family="Helvetica,sans-Serif" font-size="10.00" fill="#58a6ff">PrepareRestore / Restore</text>
<text xml:space="preserve" text-anchor="middle" x="908" y="-92.38" font-family="Helvetica,sans-Serif" font-size="10.00" fill="#58a6ff">disables OrthogonalSizeCameraController</text>
</g>
<!-- Runner&#45;&gt;Rig -->
<g id="edge11" class="edge">
<title>Runner&#45;&gt;Rig</title>
<path fill="none" stroke="#58a6ff" d="M814.98,-222.22C832.64,-202.76 854.05,-179.17 871.88,-159.54"/>
<polygon fill="#58a6ff" stroke="#58a6ff" points="874.39,-161.99 878.52,-152.23 869.2,-157.28 874.39,-161.99"/>
<text xml:space="preserve" text-anchor="middle" x="894.46" y="-196.9" font-family="Helvetica,sans-Serif" font-size="8.00" fill="#8b949e">PreparePanIn / Frame / Restore</text>
</g>
<!-- TimeScale -->
<g id="node10" class="node">
<title>TimeScale</title>
<path fill="#1a3a1a" stroke="black" d="M1222.12,-156.5C1222.12,-156.5 1059.88,-156.5 1059.88,-156.5 1053.88,-156.5 1047.88,-150.5 1047.88,-144.5 1047.88,-144.5 1047.88,-93 1047.88,-93 1047.88,-87 1053.88,-81 1059.88,-81 1059.88,-81 1222.12,-81 1222.12,-81 1228.12,-81 1234.12,-87 1234.12,-93 1234.12,-93 1234.12,-144.5 1234.12,-144.5 1234.12,-150.5 1228.12,-156.5 1222.12,-156.5"/>
<text xml:space="preserve" text-anchor="middle" x="1141" y="-143" font-family="Helvetica,sans-Serif" font-size="10.00" fill="#3fb950">TimeScaleService</text>
<text xml:space="preserve" text-anchor="middle" x="1141" y="-131.75" font-family="Helvetica,sans-Serif" font-size="10.00" fill="#3fb950">─────────</text>
<text xml:space="preserve" text-anchor="middle" x="1141" y="-120.5" font-family="Helvetica,sans-Serif" font-size="10.00" fill="#3fb950">Claim(source, value) / Release(source)</text>
<text xml:space="preserve" text-anchor="middle" x="1141" y="-109.25" font-family="Helvetica,sans-Serif" font-size="10.00" fill="#3fb950">lowest active claim wins; none = 1</text>
<text xml:space="preserve" text-anchor="middle" x="1141" y="-98" font-family="Helvetica,sans-Serif" font-size="10.00" fill="#3fb950">ONLY legal Time.timeScale writer</text>
<text xml:space="preserve" text-anchor="middle" x="1141" y="-86.75" font-family="Helvetica,sans-Serif" font-size="10.00" fill="#3fb950">(style&#45;audit rule: timescale&#45;writes)</text>
</g>
<!-- Runner&#45;&gt;TimeScale -->
<g id="edge12" class="edge">
<title>Runner&#45;&gt;TimeScale</title>
<path fill="none" stroke="#58a6ff" d="M913.73,-224.86C970.47,-209.27 1026.48,-193.26 1039,-187.5 1053.67,-180.75 1068.62,-172.04 1082.39,-163.13"/>
<polygon fill="#58a6ff" stroke="#58a6ff" points="1084.05,-166.23 1090.45,-157.79 1080.18,-160.4 1084.05,-166.23"/>
<text xml:space="preserve" text-anchor="middle" x="1061.9" y="-196.9" font-family="Helvetica,sans-Serif" font-size="8.00" fill="#8b949e">Claim / Release (Cinematic)</text>
</g>
<!-- Director&#45;&gt;CinematicState -->
<g id="edge13" class="edge">
<title>Director&#45;&gt;CinematicState</title>
<path fill="none" stroke="#30363d" d="M625.13,-151.1C604.75,-167.79 578.64,-188.19 554,-204.5 544.89,-210.53 535.09,-216.51 525.29,-222.21"/>
<polygon fill="#30363d" stroke="#30363d" points="523.77,-219.05 516.83,-227.05 527.25,-225.12 523.77,-219.05"/>
<text xml:space="preserve" text-anchor="middle" x="586.92" y="-196.9" font-family="Helvetica,sans-Serif" font-size="8.00">Begin / End</text>
</g>
<!-- CameraView -->
<g id="node11" class="node">
<title>CameraView</title>
<path fill="#2a2a2a" stroke="black" d="M967,-36C967,-36 849,-36 849,-36 843,-36 837,-30 837,-24 837,-24 837,-12 837,-12 837,-6 843,0 849,0 849,0 967,0 967,0 973,0 979,-6 979,-12 979,-12 979,-24 979,-24 979,-30 973,-36 967,-36"/>
<text xml:space="preserve" text-anchor="middle" x="908" y="-20.5" font-family="Helvetica,sans-Serif" font-size="10.00" fill="#c9d1d9">CinematicCameraView</text>
<text xml:space="preserve" text-anchor="middle" x="908" y="-9.25" font-family="Helvetica,sans-Serif" font-size="10.00" fill="#c9d1d9">(thin scene View → Camera)</text>
</g>
<!-- Rig&#45;&gt;CameraView -->
<g id="edge14" class="edge">
<title>Rig&#45;&gt;CameraView</title>
<path fill="none" stroke="#30363d" d="M908,-86.23C908,-73.87 908,-59.78 908,-47.71"/>
<polygon fill="#30363d" stroke="#30363d" points="911.5,-47.96 908,-37.96 904.5,-47.96 911.5,-47.96"/>
<text xml:space="preserve" text-anchor="middle" x="922.62" y="-55.4" font-family="Helvetica,sans-Serif" font-size="8.00">Camera</text>
</g>
<!-- RunController -->
<g id="node13" class="node">
<title>RunController</title>
<path fill="#2a2a2a" stroke="black" d="M162.25,-145.25C162.25,-145.25 27.75,-145.25 27.75,-145.25 21.75,-145.25 15.75,-139.25 15.75,-133.25 15.75,-133.25 15.75,-104.25 15.75,-104.25 15.75,-98.25 21.75,-92.25 27.75,-92.25 27.75,-92.25 162.25,-92.25 162.25,-92.25 168.25,-92.25 174.25,-98.25 174.25,-104.25 174.25,-104.25 174.25,-133.25 174.25,-133.25 174.25,-139.25 168.25,-145.25 162.25,-145.25"/>
<text xml:space="preserve" text-anchor="middle" x="95" y="-131.75" font-family="Helvetica,sans-Serif" font-size="10.00" fill="#c9d1d9">RunController</text>
<text xml:space="preserve" text-anchor="middle" x="95" y="-120.5" font-family="Helvetica,sans-Serif" font-size="10.00" fill="#c9d1d9">EndRun gated on BlocksLoss</text>
<text xml:space="preserve" text-anchor="middle" x="95" y="-109.25" font-family="Helvetica,sans-Serif" font-size="10.00" fill="#c9d1d9">(level&#45;up blocks; heart&#45;drain lets</text>
<text xml:space="preserve" text-anchor="middle" x="95" y="-98" font-family="Helvetica,sans-Serif" font-size="10.00" fill="#c9d1d9">the 0&#45;HP game&#45;over fire through)</text>
</g>
<!-- CinematicState&#45;&gt;RunController -->
<g id="edge15" class="edge">
<title>CinematicState&#45;&gt;RunController</title>
<path fill="none" stroke="#30363d" d="M335.18,-239.4C286.54,-227.88 230.47,-211.08 183,-187.5 164.67,-178.39 146.41,-165.19 131.31,-152.85"/>
<polygon fill="#30363d" stroke="#30363d" points="133.88,-150.44 123.97,-146.7 129.38,-155.8 133.88,-150.44"/>
</g>
<!-- Shake -->
<g id="node14" class="node">
<title>Shake</title>
<path fill="#2a2a2a" stroke="black" d="M342.12,-145.25C342.12,-145.25 203.88,-145.25 203.88,-145.25 197.88,-145.25 191.88,-139.25 191.88,-133.25 191.88,-133.25 191.88,-104.25 191.88,-104.25 191.88,-98.25 197.88,-92.25 203.88,-92.25 203.88,-92.25 342.12,-92.25 342.12,-92.25 348.12,-92.25 354.12,-98.25 354.12,-104.25 354.12,-104.25 354.12,-133.25 354.12,-133.25 354.12,-139.25 348.12,-145.25 342.12,-145.25"/>
<text xml:space="preserve" text-anchor="middle" x="273" y="-131.75" font-family="Helvetica,sans-Serif" font-size="10.00" fill="#c9d1d9">CameraShakeService</text>
<text xml:space="preserve" text-anchor="middle" x="273" y="-120.5" font-family="Helvetica,sans-Serif" font-size="10.00" fill="#c9d1d9">stands down on BlocksShake</text>
<text xml:space="preserve" text-anchor="middle" x="273" y="-109.25" font-family="Helvetica,sans-Serif" font-size="10.00" fill="#c9d1d9">(additive offset — composes with</text>
<text xml:space="preserve" text-anchor="middle" x="273" y="-98" font-family="Helvetica,sans-Serif" font-size="10.00" fill="#c9d1d9">the pan during the heart&#45;drain)</text>
</g>
<!-- CinematicState&#45;&gt;Shake -->
<g id="edge16" class="edge">
<title>CinematicState&#45;&gt;Shake</title>
<path fill="none" stroke="#30363d" d="M407.75,-225.9C379.26,-203.45 342.46,-174.47 314.52,-152.46"/>
<polygon fill="#30363d" stroke="#30363d" points="316.99,-149.95 306.97,-146.51 312.66,-155.45 316.99,-149.95"/>
</g>
<!-- Gate -->
<g id="node15" class="node">
<title>Gate</title>
<path fill="#2a2a2a" stroke="black" d="M520,-139.62C520,-139.62 384,-139.62 384,-139.62 378,-139.62 372,-133.62 372,-127.62 372,-127.62 372,-109.88 372,-109.88 372,-103.88 378,-97.88 384,-97.88 384,-97.88 520,-97.88 520,-97.88 526,-97.88 532,-103.88 532,-109.88 532,-109.88 532,-127.62 532,-127.62 532,-133.62 526,-139.62 520,-139.62"/>
<text xml:space="preserve" text-anchor="middle" x="452" y="-126.12" font-family="Helvetica,sans-Serif" font-size="10.00" fill="#c9d1d9">CinematicEndGate (IReadyGate)</text>
<text xml:space="preserve" text-anchor="middle" x="452" y="-114.88" font-family="Helvetica,sans-Serif" font-size="10.00" fill="#c9d1d9">holds the popup until</text>
<text xml:space="preserve" text-anchor="middle" x="452" y="-103.62" font-family="Helvetica,sans-Serif" font-size="10.00" fill="#c9d1d9">LevelUpPanIn ends</text>
</g>
<!-- CinematicState&#45;&gt;Gate -->
<g id="edge17" class="edge">
<title>CinematicState&#45;&gt;Gate</title>
<path fill="none" stroke="#30363d" d="M452,-224.07C452,-201.59 452,-173.11 452,-151.58"/>
<polygon fill="#30363d" stroke="#30363d" points="455.5,-151.63 452,-141.63 448.5,-151.63 455.5,-151.63"/>
</g>
<!-- Popup -->
<g id="node16" class="node">
<title>Popup</title>
<path fill="#1a3a1a" stroke="black" d="M1253.88,-293.88C1253.88,-293.88 1096.12,-293.88 1096.12,-293.88 1090.12,-293.88 1084.12,-287.88 1084.12,-281.88 1084.12,-281.88 1084.12,-241.62 1084.12,-241.62 1084.12,-235.62 1090.12,-229.62 1096.12,-229.62 1096.12,-229.62 1253.88,-229.62 1253.88,-229.62 1259.88,-229.62 1265.88,-235.62 1265.88,-241.62 1265.88,-241.62 1265.88,-281.88 1265.88,-281.88 1265.88,-287.88 1259.88,-293.88 1253.88,-293.88"/>
<text xml:space="preserve" text-anchor="middle" x="1175" y="-280.38" font-family="Helvetica,sans-Serif" font-size="10.00" fill="#3fb950">LevelUpPopUp</text>
<text xml:space="preserve" text-anchor="middle" x="1175" y="-269.12" font-family="Helvetica,sans-Serif" font-size="10.00" fill="#3fb950">─────────</text>
<text xml:space="preserve" text-anchor="middle" x="1175" y="-257.88" font-family="Helvetica,sans-Serif" font-size="10.00" fill="#3fb950">claims LevelUpPopup = 0 (freeze)</text>
<text xml:space="preserve" text-anchor="middle" x="1175" y="-246.62" font-family="Helvetica,sans-Serif" font-size="10.00" fill="#3fb950">releases AFTER publishing dismissed</text>
<text xml:space="preserve" text-anchor="middle" x="1175" y="-235.38" font-family="Helvetica,sans-Serif" font-size="10.00" fill="#3fb950">(restore&#39;s claim already active)</text>
</g>
<!-- Gate&#45;&gt;Popup -->
<g id="edge18" class="edge">
<title>Gate&#45;&gt;Popup</title>
<path fill="none" stroke="#3fb950" d="M459.53,-140.03C468.29,-160.37 484.87,-190.63 510.25,-204.5 565.34,-234.61 1013.45,-210.11 1075,-222.5 1079.85,-223.48 1084.76,-224.66 1089.69,-226"/>
<polygon fill="#3fb950" stroke="#3fb950" points="1088.41,-229.28 1099,-228.74 1090.39,-222.56 1088.41,-229.28"/>
<text xml:space="preserve" text-anchor="middle" x="530.12" y="-196.9" font-family="Helvetica,sans-Serif" font-size="8.00" fill="#8b949e">gate opens</text>
</g>
<!-- Popup&#45;&gt;Dismissed -->
<g id="edge20" class="edge">
<title>Popup&#45;&gt;Dismissed</title>
<path fill="none" stroke="#30363d" d="M1245.85,-229.29C1257.99,-222.14 1269.92,-213.85 1280,-204.5 1297.56,-188.21 1311.82,-165.02 1321.26,-147.02"/>
<polygon fill="#30363d" stroke="#30363d" points="1324.33,-148.7 1325.7,-138.2 1318.08,-145.55 1324.33,-148.7"/>
</g>
<!-- Popup&#45;&gt;TimeScale -->
<g id="edge19" class="edge">
<title>Popup&#45;&gt;TimeScale</title>
<path fill="none" stroke="#3fb950" d="M1167.45,-229.46C1163.1,-211.39 1157.52,-188.27 1152.62,-167.93"/>
<polygon fill="#3fb950" stroke="#3fb950" points="1156.07,-167.33 1150.33,-158.43 1149.27,-168.97 1156.07,-167.33"/>
<text xml:space="preserve" text-anchor="middle" x="1219.55" y="-196.9" font-family="Helvetica,sans-Serif" font-size="8.00" fill="#8b949e">Claim / Release (LevelUpPopup)</text>
</g>
<!-- Tracker -->
<g id="node18" class="node">
<title>Tracker</title>
<path fill="#2a2a2a" stroke="black" d="M868.62,-580.65C868.62,-580.65 745.38,-580.65 745.38,-580.65 739.38,-580.65 733.38,-574.65 733.38,-568.65 733.38,-568.65 733.38,-550.9 733.38,-550.9 733.38,-544.9 739.38,-538.9 745.38,-538.9 745.38,-538.9 868.62,-538.9 868.62,-538.9 874.62,-538.9 880.62,-544.9 880.62,-550.9 880.62,-550.9 880.62,-568.65 880.62,-568.65 880.62,-574.65 874.62,-580.65 868.62,-580.65"/>
<text xml:space="preserve" text-anchor="middle" x="807" y="-567.15" font-family="Helvetica,sans-Serif" font-size="10.00" fill="#c9d1d9">HeartTrailTracker</text>
<text xml:space="preserve" text-anchor="middle" x="807" y="-555.9" font-family="Helvetica,sans-Serif" font-size="10.00" fill="#c9d1d9">(live heart trail transforms,</text>
<text xml:space="preserve" text-anchor="middle" x="807" y="-544.65" font-family="Helvetica,sans-Serif" font-size="10.00" fill="#c9d1d9">fed by UI HeartTrailController)</text>
</g>
<!-- Tracker&#45;&gt;HeartDrain -->
<g id="edge9" class="edge">
<title>Tracker&#45;&gt;HeartDrain</title>
<path fill="none" stroke="#30363d" d="M804.4,-538.48C801.82,-518.37 797.77,-486.79 794.34,-460.05"/>
<polygon fill="#30363d" stroke="#30363d" points="797.85,-459.91 793.11,-450.43 790.91,-460.8 797.85,-459.91"/>
<text xml:space="preserve" text-anchor="middle" x="838.35" y="-504.65" font-family="Helvetica,sans-Serif" font-size="8.00">focus + end condition</text>
</g>
</g>
</svg>
