<?xml version="1.0" encoding="UTF-8" standalone="no"?>
<!DOCTYPE svg PUBLIC "-//W3C//DTD SVG 1.1//EN"
 "http://www.w3.org/Graphics/SVG/1.1/DTD/svg11.dtd">
<!-- Generated by graphviz version 15.0.0 (20260523.1842)
 -->
<!-- Title: Cinematic Pages: 1 -->
<svg width="240pt" height="957pt"
 viewBox="0.00 0.00 240.00 957.00" xmlns="http://www.w3.org/2000/svg" xmlns:xlink="http://www.w3.org/1999/xlink">
<g id="graph0" class="graph" transform="scale(1 1) rotate(0) translate(4 953.09)">
<title>Cinematic</title>
<!-- ScorePoint -->
<g id="node1" class="node">
<title>ScorePoint</title>
<ellipse fill="#3d2a1a" stroke="black" cx="116" cy="-919.57" rx="73.36" ry="29.52"/>
<text xml:space="preserve" text-anchor="middle" x="116" y="-926.94" font-family="Helvetica,sans-Serif" font-size="10.00" fill="#f78166">ScorePointMessage</text>
<text xml:space="preserve" text-anchor="middle" x="116" y="-915.69" font-family="Helvetica,sans-Serif" font-size="10.00" fill="#f78166">+</text>
<text xml:space="preserve" text-anchor="middle" x="116" y="-904.44" font-family="Helvetica,sans-Serif" font-size="10.00" fill="#f78166">WillLevelUp() = true</text>
</g>
<!-- WaitTrail -->
<g id="node2" class="node">
<title>WaitTrail</title>
<path fill="#2a2a2a" stroke="black" d="M182.12,-853.04C182.12,-853.04 49.88,-853.04 49.88,-853.04 43.88,-853.04 37.88,-847.04 37.88,-841.04 37.88,-841.04 37.88,-829.04 37.88,-829.04 37.88,-823.04 43.88,-817.04 49.88,-817.04 49.88,-817.04 182.12,-817.04 182.12,-817.04 188.12,-817.04 194.12,-823.04 194.12,-829.04 194.12,-829.04 194.12,-841.04 194.12,-841.04 194.12,-847.04 188.12,-853.04 182.12,-853.04"/>
<text xml:space="preserve" text-anchor="middle" x="116" y="-836.79" font-family="Helvetica,sans-Serif" font-size="10.00" fill="#c9d1d9">LevelUpCinematic waits for the</text>
<text xml:space="preserve" text-anchor="middle" x="116" y="-825.54" font-family="Helvetica,sans-Serif" font-size="10.00" fill="#c9d1d9">tipping trail in TrailFlightRegistry</text>
</g>
<!-- ScorePoint&#45;&gt;WaitTrail -->
<g id="edge1" class="edge">
<title>ScorePoint&#45;&gt;WaitTrail</title>
<path fill="none" stroke="#f78166" d="M116,-889.7C116,-881.68 116,-872.96 116,-864.94"/>
<polygon fill="#f78166" stroke="#f78166" points="119.5,-864.98 116,-854.98 112.5,-864.98 119.5,-864.98"/>
</g>
<!-- BeginPanIn -->
<g id="node3" class="node">
<title>BeginPanIn</title>
<path fill="#1f3a5f" stroke="black" d="M205,-780.04C205,-780.04 27,-780.04 27,-780.04 21,-780.04 15,-774.04 15,-768.04 15,-768.04 15,-737.54 15,-737.54 15,-731.54 21,-725.54 27,-725.54 27,-725.54 205,-725.54 205,-725.54 211,-725.54 217,-731.54 217,-737.54 217,-737.54 217,-768.04 217,-768.04 217,-774.04 211,-780.04 205,-780.04"/>
<text xml:space="preserve" text-anchor="middle" x="116" y="-766.54" font-family="Helvetica,sans-Serif" font-size="10.00" fill="#58a6ff">runner.TryBegin()</text>
<text xml:space="preserve" text-anchor="middle" x="116" y="-755.29" font-family="Helvetica,sans-Serif" font-size="10.00" fill="#58a6ff">→ TryBeginCinematic(LevelUpPanIn)</text>
<text xml:space="preserve" text-anchor="middle" x="116" y="-742.54" font-family="Helvetica,sans-Serif" font-size="10.00" fill="#58a6ff">Pause(Cinematic)</text>
<text xml:space="preserve" text-anchor="middle" x="116" y="-731.29" font-family="Helvetica,sans-Serif" font-size="10.00" fill="#58a6ff">tipping trail intercepted (move tween killed)</text>
</g>
<!-- WaitTrail&#45;&gt;BeginPanIn -->
<g id="edge2" class="edge">
<title>WaitTrail&#45;&gt;BeginPanIn</title>
<path fill="none" stroke="#58a6ff" d="M116,-816.63C116,-809.26 116,-800.36 116,-791.61"/>
<polygon fill="#58a6ff" stroke="#58a6ff" points="119.5,-791.85 116,-781.85 112.5,-791.85 119.5,-791.85"/>
</g>
<!-- PanInTick -->
<g id="node4" class="node">
<title>PanInTick</title>
<path fill="#1f3a5f" stroke="black" d="M220,-688.54C220,-688.54 12,-688.54 12,-688.54 6,-688.54 0,-682.54 0,-676.54 0,-676.54 0,-613.79 0,-613.79 0,-607.79 6,-601.79 12,-601.79 12,-601.79 220,-601.79 220,-601.79 226,-601.79 232,-607.79 232,-613.79 232,-613.79 232,-676.54 232,-676.54 232,-682.54 226,-688.54 220,-688.54"/>
<text xml:space="preserve" text-anchor="middle" x="116" y="-675.04" font-family="Helvetica,sans-Serif" font-size="10.00" fill="#58a6ff">PanInTick (runner + hook)</text>
<text xml:space="preserve" text-anchor="middle" x="116" y="-663.79" font-family="Helvetica,sans-Serif" font-size="10.00" fill="#58a6ff">─────────</text>
<text xml:space="preserve" text-anchor="middle" x="116" y="-652.54" font-family="Helvetica,sans-Serif" font-size="10.00" fill="#58a6ff">segment TimeScaleCurve modulates the</text>
<text xml:space="preserve" text-anchor="middle" x="116" y="-641.29" font-family="Helvetica,sans-Serif" font-size="10.00" fill="#58a6ff">tipping trail&#39;s speed (timeScale untouched —</text>
<text xml:space="preserve" text-anchor="middle" x="116" y="-630.04" font-family="Helvetica,sans-Serif" font-size="10.00" fill="#58a6ff">gameplay is paused; other trails fly normally)</text>
<text xml:space="preserve" text-anchor="middle" x="116" y="-618.79" font-family="Helvetica,sans-Serif" font-size="10.00" fill="#58a6ff">rig.Frame(PointFocus, segment) pans the camera</text>
<text xml:space="preserve" text-anchor="middle" x="116" y="-607.54" font-family="Helvetica,sans-Serif" font-size="10.00" fill="#58a6ff">(frustum&#45;clamped)</text>
</g>
<!-- BeginPanIn&#45;&gt;PanInTick -->
<g id="edge3" class="edge">
<title>BeginPanIn&#45;&gt;PanInTick</title>
<path fill="none" stroke="#58a6ff" d="M116,-725.14C116,-717.49 116,-708.86 116,-700.19"/>
<polygon fill="#58a6ff" stroke="#58a6ff" points="119.5,-700.36 116,-690.36 112.5,-700.36 119.5,-700.36"/>
</g>
<!-- TrailComplete -->
<g id="node5" class="node">
<title>TrailComplete</title>
<path fill="#1f3a5f" stroke="black" d="M181.75,-547.79C181.75,-547.79 50.25,-547.79 50.25,-547.79 44.25,-547.79 38.25,-541.79 38.25,-535.79 38.25,-535.79 38.25,-523.79 38.25,-523.79 38.25,-517.79 44.25,-511.79 50.25,-511.79 50.25,-511.79 181.75,-511.79 181.75,-511.79 187.75,-511.79 193.75,-517.79 193.75,-523.79 193.75,-523.79 193.75,-535.79 193.75,-535.79 193.75,-541.79 187.75,-547.79 181.75,-547.79"/>
<text xml:space="preserve" text-anchor="middle" x="116" y="-532.29" font-family="Helvetica,sans-Serif" font-size="10.00" fill="#58a6ff">Trail progress ≥ 1 → Complete()</text>
<text xml:space="preserve" text-anchor="middle" x="116" y="-519.54" font-family="Helvetica,sans-Serif" font-size="10.00" fill="#58a6ff">Flights.CompleteAll()</text>
</g>
<!-- PanInTick&#45;&gt;TrailComplete -->
<g id="edge4" class="edge">
<title>PanInTick&#45;&gt;TrailComplete</title>
<path fill="none" stroke="#58a6ff" d="M116,-601.31C116,-587.34 116,-572.17 116,-559.5"/>
<polygon fill="#58a6ff" stroke="#58a6ff" points="119.5,-559.74 116,-549.74 112.5,-559.74 119.5,-559.74"/>
<text xml:space="preserve" text-anchor="middle" x="149" y="-576.19" font-family="Helvetica,sans-Serif" font-size="8.00" fill="#8b949e">progress ≥ 1</text>
<text xml:space="preserve" text-anchor="middle" x="149" y="-567.19" font-family="Helvetica,sans-Serif" font-size="8.00" fill="#8b949e">or arrival message</text>
</g>
<!-- EndPanIn -->
<g id="node6" class="node">
<title>EndPanIn</title>
<path fill="#2a2a2a" stroke="black" d="M202,-474.79C202,-474.79 30,-474.79 30,-474.79 24,-474.79 18,-468.79 18,-462.79 18,-462.79 18,-450.79 18,-450.79 18,-444.79 24,-438.79 30,-438.79 30,-438.79 202,-438.79 202,-438.79 208,-438.79 214,-444.79 214,-450.79 214,-450.79 214,-462.79 214,-462.79 214,-468.79 208,-474.79 202,-474.79"/>
<text xml:space="preserve" text-anchor="middle" x="116" y="-458.54" font-family="Helvetica,sans-Serif" font-size="10.00" fill="#c9d1d9">runner.EndPanIn()</text>
<text xml:space="preserve" text-anchor="middle" x="116" y="-447.29" font-family="Helvetica,sans-Serif" font-size="10.00" fill="#c9d1d9">EndCinematic() — camera stays zoomed</text>
</g>
<!-- TrailComplete&#45;&gt;EndPanIn -->
<g id="edge5" class="edge">
<title>TrailComplete&#45;&gt;EndPanIn</title>
<path fill="none" stroke="#30363d" d="M116,-511.61C116,-504.02 116,-494.89 116,-486.33"/>
<polygon fill="#30363d" stroke="#30363d" points="119.5,-486.34 116,-476.34 112.5,-486.34 119.5,-486.34"/>
</g>
<!-- Popup -->
<g id="node7" class="node">
<title>Popup</title>
<path fill="#1a3a1a" stroke="black" d="M206.5,-393.79C206.5,-393.79 25.5,-393.79 25.5,-393.79 19.5,-393.79 13.5,-387.79 13.5,-381.79 13.5,-381.79 13.5,-341.54 13.5,-341.54 13.5,-335.54 19.5,-329.54 25.5,-329.54 25.5,-329.54 206.5,-329.54 206.5,-329.54 212.5,-329.54 218.5,-335.54 218.5,-341.54 218.5,-341.54 218.5,-381.79 218.5,-381.79 218.5,-387.79 212.5,-393.79 206.5,-393.79"/>
<text xml:space="preserve" text-anchor="middle" x="116" y="-380.29" font-family="Helvetica,sans-Serif" font-size="10.00" fill="#3fb950">Level&#45;Up Popup</text>
<text xml:space="preserve" text-anchor="middle" x="116" y="-369.04" font-family="Helvetica,sans-Serif" font-size="10.00" fill="#3fb950">TimeScaleService.Claim(LevelUpPopup, 0)</text>
<text xml:space="preserve" text-anchor="middle" x="116" y="-357.79" font-family="Helvetica,sans-Serif" font-size="10.00" fill="#3fb950">─────────</text>
<text xml:space="preserve" text-anchor="middle" x="116" y="-346.54" font-family="Helvetica,sans-Serif" font-size="10.00" fill="#3fb950">Glow trails drain bars</text>
<text xml:space="preserve" text-anchor="middle" x="116" y="-335.29" font-family="Helvetica,sans-Serif" font-size="10.00" fill="#3fb950">Orbs fly to fill</text>
</g>
<!-- EndPanIn&#45;&gt;Popup -->
<g id="edge6" class="edge">
<title>EndPanIn&#45;&gt;Popup</title>
<path fill="none" stroke="#3fb950" d="M116,-438.71C116,-429.24 116,-417.01 116,-405.13"/>
<polygon fill="#3fb950" stroke="#3fb950" points="119.5,-405.47 116,-395.47 112.5,-405.47 119.5,-405.47"/>
<text xml:space="preserve" text-anchor="middle" x="161.38" y="-413.19" font-family="Helvetica,sans-Serif" font-size="8.00" fill="#8b949e">CinematicEndGate opens</text>
</g>
<!-- Dismiss -->
<g id="node8" class="node">
<title>Dismiss</title>
<ellipse fill="#3d2a1a" stroke="black" cx="116" cy="-263.02" rx="106.24" ry="29.52"/>
<text xml:space="preserve" text-anchor="middle" x="116" y="-270.4" font-family="Helvetica,sans-Serif" font-size="10.00" fill="#f78166">LevelUpDismissedMessage</text>
<text xml:space="preserve" text-anchor="middle" x="116" y="-259.15" font-family="Helvetica,sans-Serif" font-size="10.00" fill="#f78166">(published BEFORE the popup</text>
<text xml:space="preserve" text-anchor="middle" x="116" y="-247.9" font-family="Helvetica,sans-Serif" font-size="10.00" fill="#f78166">releases its freeze claim)</text>
</g>
<!-- Popup&#45;&gt;Dismiss -->
<g id="edge7" class="edge">
<title>Popup&#45;&gt;Dismiss</title>
<path fill="none" stroke="#f78166" d="M116,-329.29C116,-321.35 116,-312.71 116,-304.39"/>
<polygon fill="#f78166" stroke="#f78166" points="119.5,-304.46 116,-294.46 112.5,-304.46 119.5,-304.46"/>
</g>
<!-- BeginRestore -->
<g id="node9" class="node">
<title>BeginRestore</title>
<path fill="#2d1f3d" stroke="black" d="M198.25,-196.5C198.25,-196.5 33.75,-196.5 33.75,-196.5 27.75,-196.5 21.75,-190.5 21.75,-184.5 21.75,-184.5 21.75,-165.25 21.75,-165.25 21.75,-159.25 27.75,-153.25 33.75,-153.25 33.75,-153.25 198.25,-153.25 198.25,-153.25 204.25,-153.25 210.25,-159.25 210.25,-165.25 210.25,-165.25 210.25,-184.5 210.25,-184.5 210.25,-190.5 204.25,-196.5 198.25,-196.5"/>
<text xml:space="preserve" text-anchor="middle" x="116" y="-183" font-family="Helvetica,sans-Serif" font-size="10.00" fill="#d2a8ff">runner.TryBeginRestore()</text>
<text xml:space="preserve" text-anchor="middle" x="116" y="-171.75" font-family="Helvetica,sans-Serif" font-size="10.00" fill="#d2a8ff">→ TryBeginCinematic(LevelUpRestore)</text>
<text xml:space="preserve" text-anchor="middle" x="116" y="-159" font-family="Helvetica,sans-Serif" font-size="10.00" fill="#d2a8ff">Resume(Cinematic)</text>
</g>
<!-- Dismiss&#45;&gt;BeginRestore -->
<g id="edge8" class="edge">
<title>Dismiss&#45;&gt;BeginRestore</title>
<path fill="none" stroke="#d2a8ff" d="M116,-233.34C116,-225.31 116,-216.54 116,-208.31"/>
<polygon fill="#d2a8ff" stroke="#d2a8ff" points="119.5,-208.32 116,-198.32 112.5,-208.32 119.5,-208.32"/>
</g>
<!-- RestoreTick -->
<g id="node10" class="node">
<title>RestoreTick</title>
<path fill="#2d1f3d" stroke="black" d="M193,-116.25C193,-116.25 39,-116.25 39,-116.25 33,-116.25 27,-110.25 27,-104.25 27,-104.25 27,-92.25 27,-92.25 27,-86.25 33,-80.25 39,-80.25 39,-80.25 193,-80.25 193,-80.25 199,-80.25 205,-86.25 205,-92.25 205,-92.25 205,-104.25 205,-104.25 205,-110.25 199,-116.25 193,-116.25"/>
<text xml:space="preserve" text-anchor="middle" x="116" y="-100.75" font-family="Helvetica,sans-Serif" font-size="10.00" fill="#d2a8ff">Claim(Cinematic, restore curve 0→1)</text>
<text xml:space="preserve" text-anchor="middle" x="116" y="-88" font-family="Helvetica,sans-Serif" font-size="10.00" fill="#d2a8ff">Camera tweens to base framing</text>
</g>
<!-- BeginRestore&#45;&gt;RestoreTick -->
<g id="edge9" class="edge">
<title>BeginRestore&#45;&gt;RestoreTick</title>
<path fill="none" stroke="#d2a8ff" d="M116,-153.09C116,-145.23 116,-136.15 116,-127.71"/>
<polygon fill="#d2a8ff" stroke="#d2a8ff" points="119.5,-127.92 116,-117.92 112.5,-127.92 119.5,-127.92"/>
</g>
<!-- Done -->
<g id="node11" class="node">
<title>Done</title>
<path fill="#2a2a2a" stroke="black" d="M188.88,-43.25C188.88,-43.25 43.12,-43.25 43.12,-43.25 37.12,-43.25 31.12,-37.25 31.12,-31.25 31.12,-31.25 31.12,-12 31.12,-12 31.12,-6 37.12,0 43.12,0 43.12,0 188.88,0 188.88,0 194.88,0 200.88,-6 200.88,-12 200.88,-12 200.88,-31.25 200.88,-31.25 200.88,-37.25 194.88,-43.25 188.88,-43.25"/>
<text xml:space="preserve" text-anchor="middle" x="116" y="-29.75" font-family="Helvetica,sans-Serif" font-size="10.00" fill="#c9d1d9">Release(Cinematic) → timeScale 1</text>
<text xml:space="preserve" text-anchor="middle" x="116" y="-17" font-family="Helvetica,sans-Serif" font-size="10.00" fill="#c9d1d9">EndCinematic()</text>
<text xml:space="preserve" text-anchor="middle" x="116" y="-5.75" font-family="Helvetica,sans-Serif" font-size="10.00" fill="#c9d1d9">NavigationState.Game</text>
</g>
<!-- RestoreTick&#45;&gt;Done -->
<g id="edge10" class="edge">
<title>RestoreTick&#45;&gt;Done</title>
<path fill="none" stroke="#30363d" d="M116,-79.94C116,-72.48 116,-63.51 116,-54.9"/>
<polygon fill="#30363d" stroke="#30363d" points="119.5,-55.07 116,-45.07 112.5,-55.07 119.5,-55.07"/>
</g>
</g>
</svg>
