<?xml version="1.0" encoding="UTF-8" standalone="no"?>
<!DOCTYPE svg PUBLIC "-//W3C//DTD SVG 1.1//EN"
 "http://www.w3.org/Graphics/SVG/1.1/DTD/svg11.dtd">
<!-- Generated by graphviz version 15.0.0 (20260523.1842)
 -->
<!-- Title: ScopeHierarchy Pages: 1 -->
<svg width="1436pt" height="141pt"
 viewBox="0.00 0.00 1436.00 141.00" xmlns="http://www.w3.org/2000/svg" xmlns:xlink="http://www.w3.org/1999/xlink">
<g id="graph0" class="graph" transform="scale(1 1) rotate(0) translate(4 136.62)">
<title>ScopeHierarchy</title>
<g id="clust1" class="cluster">
<title>cluster_singletons</title>
<polygon fill="none" stroke="#30363d" stroke-dasharray="5,2" points="804.5,-8 804.5,-77.75 1419.5,-77.75 1419.5,-8 804.5,-8"/>
<text xml:space="preserve" text-anchor="middle" x="1112" y="-65.2" font-family="Helvetica,sans-Serif" font-size="9.00" fill="#8b949e">Registered Singletons</text>
</g>
<!-- Game -->
<g id="node1" class="node">
<title>Game</title>
<path fill="#1f3a5f" stroke="black" d="M658,-132.62C658,-132.62 531,-132.62 531,-132.62 525,-132.62 519,-126.62 519,-120.62 519,-120.62 519,-102.88 519,-102.88 519,-96.88 525,-90.88 531,-90.88 531,-90.88 658,-90.88 658,-90.88 664,-90.88 670,-96.88 670,-102.88 670,-102.88 670,-120.62 670,-120.62 670,-126.62 664,-132.62 658,-132.62"/>
<text xml:space="preserve" text-anchor="middle" x="594.5" y="-119.12" font-family="Helvetica,sans-Serif" font-size="10.00" fill="#58a6ff">GameLifetimeScope</text>
<text xml:space="preserve" text-anchor="middle" x="594.5" y="-107.88" font-family="Helvetica,sans-Serif" font-size="10.00" fill="#58a6ff">(composition root)</text>
<text xml:space="preserve" text-anchor="middle" x="594.5" y="-96.62" font-family="Helvetica,sans-Serif" font-size="10.00" fill="#58a6ff">[DefaultExecutionOrder(&#45;5001)]</text>
</g>
<!-- Thrower -->
<g id="node2" class="node">
<title>Thrower</title>
<path fill="#2a2a2a" stroke="black" d="M103,-52C103,-52 12,-52 12,-52 6,-52 0,-46 0,-40 0,-40 0,-28 0,-28 0,-22 6,-16 12,-16 12,-16 103,-16 103,-16 109,-16 115,-22 115,-28 115,-28 115,-40 115,-40 115,-46 109,-52 103,-52"/>
<text xml:space="preserve" text-anchor="middle" x="57.5" y="-35.75" font-family="Helvetica,sans-Serif" font-size="10.00" fill="#c9d1d9">ThrowerLifetimeScope</text>
<text xml:space="preserve" text-anchor="middle" x="57.5" y="-24.5" font-family="Helvetica,sans-Serif" font-size="10.00" fill="#c9d1d9">(Thrower GameObject)</text>
</g>
<!-- Game&#45;&gt;Thrower -->
<g id="edge1" class="edge">
<title>Game&#45;&gt;Thrower</title>
<path fill="none" stroke="#30363d" d="M518.51,-109.95C404.63,-107.98 195.47,-101.19 124.5,-77.75 111.63,-73.5 98.77,-66.22 87.81,-58.85"/>
<polygon fill="#30363d" stroke="#30363d" points="90.14,-56.22 79.95,-53.31 86.11,-61.94 90.14,-56.22"/>
</g>
<!-- ScoreUI -->
<g id="node3" class="node">
<title>ScoreUI</title>
<path fill="#2a2a2a" stroke="black" d="M235.62,-52C235.62,-52 145.38,-52 145.38,-52 139.38,-52 133.38,-46 133.38,-40 133.38,-40 133.38,-28 133.38,-28 133.38,-22 139.38,-16 145.38,-16 145.38,-16 235.62,-16 235.62,-16 241.62,-16 247.62,-22 247.62,-28 247.62,-28 247.62,-40 247.62,-40 247.62,-46 241.62,-52 235.62,-52"/>
<text xml:space="preserve" text-anchor="middle" x="190.5" y="-35.75" font-family="Helvetica,sans-Serif" font-size="10.00" fill="#c9d1d9">ScoreUILifetimeScope</text>
<text xml:space="preserve" text-anchor="middle" x="190.5" y="-24.5" font-family="Helvetica,sans-Serif" font-size="10.00" fill="#c9d1d9">(Score HUD canvas)</text>
</g>
<!-- Game&#45;&gt;ScoreUI -->
<g id="edge2" class="edge">
<title>Game&#45;&gt;ScoreUI</title>
<path fill="none" stroke="#30363d" d="M518.71,-107.52C434.21,-103.19 303.26,-94.08 256.5,-77.75 244.07,-73.41 231.63,-66.27 220.96,-59.05"/>
<polygon fill="#30363d" stroke="#30363d" points="223.13,-56.3 212.94,-53.36 219.07,-62.01 223.13,-56.3"/>
</g>
<!-- LevelUp -->
<g id="node4" class="node">
<title>LevelUp</title>
<path fill="#2a2a2a" stroke="black" d="M367.62,-52C367.62,-52 277.38,-52 277.38,-52 271.38,-52 265.38,-46 265.38,-40 265.38,-40 265.38,-28 265.38,-28 265.38,-22 271.38,-16 277.38,-16 277.38,-16 367.62,-16 367.62,-16 373.62,-16 379.62,-22 379.62,-28 379.62,-28 379.62,-40 379.62,-40 379.62,-46 373.62,-52 367.62,-52"/>
<text xml:space="preserve" text-anchor="middle" x="322.5" y="-35.75" font-family="Helvetica,sans-Serif" font-size="10.00" fill="#c9d1d9">LevelUpLifetimeScope</text>
<text xml:space="preserve" text-anchor="middle" x="322.5" y="-24.5" font-family="Helvetica,sans-Serif" font-size="10.00" fill="#c9d1d9">(LevelUp popup)</text>
</g>
<!-- Game&#45;&gt;LevelUp -->
<g id="edge3" class="edge">
<title>Game&#45;&gt;LevelUp</title>
<path fill="none" stroke="#30363d" d="M518.66,-106.17C478.87,-101.9 429.92,-93.66 388.5,-77.75 376.3,-73.06 364,-65.91 353.38,-58.78"/>
<polygon fill="#30363d" stroke="#30363d" points="355.59,-56.05 345.39,-53.19 351.57,-61.79 355.59,-56.05"/>
</g>
<!-- ShieldUI -->
<g id="node5" class="node">
<title>ShieldUI</title>
<path fill="#2a2a2a" stroke="black" d="M501.38,-52C501.38,-52 409.62,-52 409.62,-52 403.62,-52 397.62,-46 397.62,-40 397.62,-40 397.62,-28 397.62,-28 397.62,-22 403.62,-16 409.62,-16 409.62,-16 501.38,-16 501.38,-16 507.38,-16 513.38,-22 513.38,-28 513.38,-28 513.38,-40 513.38,-40 513.38,-46 507.38,-52 501.38,-52"/>
<text xml:space="preserve" text-anchor="middle" x="455.5" y="-35.75" font-family="Helvetica,sans-Serif" font-size="10.00" fill="#c9d1d9">ShieldUILifetimeScope</text>
<text xml:space="preserve" text-anchor="middle" x="455.5" y="-24.5" font-family="Helvetica,sans-Serif" font-size="10.00" fill="#c9d1d9">(Shield HUD)</text>
</g>
<!-- Game&#45;&gt;ShieldUI -->
<g id="edge4" class="edge">
<title>Game&#45;&gt;ShieldUI</title>
<path fill="none" stroke="#30363d" d="M547.94,-90.56C539.38,-86.52 530.59,-82.16 522.5,-77.75 511.76,-71.9 500.42,-64.97 490.19,-58.42"/>
<polygon fill="#30363d" stroke="#30363d" points="492.33,-55.64 482.04,-53.12 488.51,-61.5 492.33,-55.64"/>
</g>
<!-- Balloon -->
<g id="node6" class="node">
<title>Balloon</title>
<path fill="#3d2a1a" stroke="black" stroke-dasharray="5,2" d="M646,-54.88C646,-54.88 543,-54.88 543,-54.88 537,-54.88 531,-48.88 531,-42.88 531,-42.88 531,-25.13 531,-25.13 531,-19.12 537,-13.12 543,-13.12 543,-13.12 646,-13.12 646,-13.12 652,-13.12 658,-19.12 658,-25.12 658,-25.12 658,-42.88 658,-42.88 658,-48.88 652,-54.88 646,-54.88"/>
<text xml:space="preserve" text-anchor="middle" x="594.5" y="-41.38" font-family="Helvetica,sans-Serif" font-size="10.00" fill="#f78166">BalloonLifetimeScope ×N</text>
<text xml:space="preserve" text-anchor="middle" x="594.5" y="-30.12" font-family="Helvetica,sans-Serif" font-size="10.00" fill="#f78166">(autoRun=false)</text>
<text xml:space="preserve" text-anchor="middle" x="594.5" y="-18.88" font-family="Helvetica,sans-Serif" font-size="10.00" fill="#f78166">InjectingPoolChannel</text>
</g>
<!-- Game&#45;&gt;Balloon -->
<g id="edge5" class="edge">
<title>Game&#45;&gt;Balloon</title>
<path fill="none" stroke="#30363d" d="M594.5,-90.45C594.5,-83.15 594.5,-74.73 594.5,-66.69"/>
<polygon fill="#30363d" stroke="#30363d" points="598,-66.87 594.5,-56.87 591,-66.87 598,-66.87"/>
</g>
<!-- Projectile -->
<g id="node7" class="node">
<title>Projectile</title>
<path fill="#3d2a1a" stroke="black" stroke-dasharray="5,2" d="M782.88,-54.88C782.88,-54.88 688.12,-54.88 688.12,-54.88 682.12,-54.88 676.12,-48.88 676.12,-42.88 676.12,-42.88 676.12,-25.13 676.12,-25.13 676.12,-19.12 682.12,-13.12 688.12,-13.12 688.12,-13.12 782.88,-13.12 782.88,-13.12 788.88,-13.12 794.88,-19.12 794.88,-25.12 794.88,-25.12 794.88,-42.88 794.88,-42.88 794.88,-48.88 788.88,-54.88 782.88,-54.88"/>
<text xml:space="preserve" text-anchor="middle" x="735.5" y="-41.38" font-family="Helvetica,sans-Serif" font-size="10.00" fill="#f78166">ProjectileLifetimeScope</text>
<text xml:space="preserve" text-anchor="middle" x="735.5" y="-30.12" font-family="Helvetica,sans-Serif" font-size="10.00" fill="#f78166">(autoRun=false)</text>
<text xml:space="preserve" text-anchor="middle" x="735.5" y="-18.88" font-family="Helvetica,sans-Serif" font-size="10.00" fill="#f78166">InjectingPoolChannel</text>
</g>
<!-- Game&#45;&gt;Projectile -->
<g id="edge6" class="edge">
<title>Game&#45;&gt;Projectile</title>
<path fill="none" stroke="#30363d" d="M642.08,-90.38C650.64,-86.39 659.41,-82.09 667.5,-77.75 676.79,-72.76 686.53,-66.99 695.64,-61.33"/>
<polygon fill="#30363d" stroke="#30363d" points="697.36,-64.38 703.94,-56.08 693.62,-58.46 697.36,-64.38"/>
</g>
<!-- SlotGrid -->
<g id="node9" class="node">
<title>SlotGrid</title>
<ellipse fill="#161b22" stroke="black" cx="839.5" cy="-34" rx="27" ry="18"/>
<text xml:space="preserve" text-anchor="middle" x="839.5" y="-30.9" font-family="Helvetica,sans-Serif" font-size="8.00" fill="#8b949e">SlotGrid</text>
</g>
<!-- Game&#45;&gt;SlotGrid -->
<g id="edge7" class="edge">
<title>Game&#45;&gt;SlotGrid</title>
<path fill="none" stroke="#30363d" stroke-dasharray="1,5" d="M670.42,-92.33C673.14,-91.81 675.84,-91.33 678.5,-90.88 706.04,-86.19 778.83,-90.84 803.5,-77.75 811.28,-73.62 818.07,-67.05 823.59,-60.28"/>
<polygon fill="#30363d" stroke="#30363d" points="826.3,-62.5 829.41,-52.37 820.67,-58.35 826.3,-62.5"/>
</g>
<!-- PoolMgr -->
<g id="node10" class="node">
<title>PoolMgr</title>
<ellipse fill="#161b22" stroke="black" cx="920.5" cy="-34" rx="36.3" ry="18"/>
<text xml:space="preserve" text-anchor="middle" x="920.5" y="-30.9" font-family="Helvetica,sans-Serif" font-size="8.00" fill="#8b949e">PoolManager</text>
</g>
<!-- Game&#45;&gt;PoolMgr -->
<g id="edge8" class="edge">
<title>Game&#45;&gt;PoolMgr</title>
<path fill="none" stroke="#30363d" stroke-dasharray="1,5" d="M670.4,-92.2C673.12,-91.72 675.83,-91.28 678.5,-90.88 721.89,-84.34 835.32,-95.37 875.5,-77.75 884.86,-73.65 893.47,-66.71 900.59,-59.61"/>
<polygon fill="#30363d" stroke="#30363d" points="902.98,-62.18 907.2,-52.46 897.84,-57.43 902.98,-62.18"/>
</g>
<!-- PathHolder -->
<g id="node11" class="node">
<title>PathHolder</title>
<ellipse fill="#161b22" stroke="black" cx="1023.5" cy="-34" rx="48.21" ry="18"/>
<text xml:space="preserve" text-anchor="middle" x="1023.5" y="-30.9" font-family="Helvetica,sans-Serif" font-size="8.00" fill="#8b949e">BalancePathHolder</text>
</g>
<!-- Game&#45;&gt;PathHolder -->
<g id="edge9" class="edge">
<title>Game&#45;&gt;PathHolder</title>
<path fill="none" stroke="#30363d" stroke-dasharray="1,5" d="M670.39,-92.13C673.12,-91.67 675.83,-91.25 678.5,-90.88 741.73,-82.03 905.32,-99.07 965.5,-77.75 977.47,-73.51 989.07,-65.91 998.71,-58.28"/>
<polygon fill="#30363d" stroke="#30363d" points="1000.74,-61.15 1006.14,-52.03 996.24,-55.79 1000.74,-61.15"/>
</g>
<!-- Launch -->
<g id="node8" class="node">
<title>Launch</title>
<path fill="#1a3a1a" stroke="black" d="M785.38,-129.75C785.38,-129.75 699.62,-129.75 699.62,-129.75 693.62,-129.75 687.62,-123.75 687.62,-117.75 687.62,-117.75 687.62,-105.75 687.62,-105.75 687.62,-99.75 693.62,-93.75 699.62,-93.75 699.62,-93.75 785.38,-93.75 785.38,-93.75 791.38,-93.75 797.38,-99.75 797.38,-105.75 797.38,-105.75 797.38,-117.75 797.38,-117.75 797.38,-123.75 791.38,-129.75 785.38,-129.75"/>
<text xml:space="preserve" text-anchor="middle" x="742.5" y="-113.5" font-family="Helvetica,sans-Serif" font-size="10.00" fill="#3fb950">LaunchLifetimeScope</text>
<text xml:space="preserve" text-anchor="middle" x="742.5" y="-102.25" font-family="Helvetica,sans-Serif" font-size="10.00" fill="#3fb950">(Launcher scene)</text>
</g>
<!-- PauseSvc -->
<g id="node12" class="node">
<title>PauseSvc</title>
<ellipse fill="#161b22" stroke="black" cx="1126.5" cy="-34" rx="36.73" ry="18"/>
<text xml:space="preserve" text-anchor="middle" x="1126.5" y="-30.9" font-family="Helvetica,sans-Serif" font-size="8.00" fill="#8b949e">PauseService</text>
</g>
<!-- NudgeRes -->
<g id="node13" class="node">
<title>NudgeRes</title>
<ellipse fill="#161b22" stroke="black" cx="1239.5" cy="-34" rx="58" ry="18"/>
<text xml:space="preserve" text-anchor="middle" x="1239.5" y="-30.9" font-family="Helvetica,sans-Serif" font-size="8.00" fill="#8b949e">NudgeOverrideResolver</text>
</g>
<!-- StreakTrack -->
<g id="node14" class="node">
<title>StreakTrack</title>
<ellipse fill="#161b22" stroke="black" cx="1363.5" cy="-34" rx="48.21" ry="18"/>
<text xml:space="preserve" text-anchor="middle" x="1363.5" y="-30.9" font-family="Helvetica,sans-Serif" font-size="8.00" fill="#8b949e">ColorStreakTracker</text>
</g>
</g>
</svg>
