<?xml version="1.0" encoding="UTF-8" standalone="no"?>
<!DOCTYPE svg PUBLIC "-//W3C//DTD SVG 1.1//EN"
 "http://www.w3.org/Graphics/SVG/1.1/DTD/svg11.dtd">
<!-- Generated by graphviz version 15.0.0 (20260523.1842)
 -->
<!-- Title: SpawnerCoordination Pages: 1 -->
<svg width="302pt" height="321pt"
 viewBox="0.00 0.00 302.00 321.00" xmlns="http://www.w3.org/2000/svg" xmlns:xlink="http://www.w3.org/1999/xlink">
<g id="graph0" class="graph" transform="scale(1 1) rotate(0) translate(4 317.25)">
<title>SpawnerCoordination</title>
<!-- Gate -->
<g id="node1" class="node">
<title>Gate</title>
<path fill="#3d2a1a" stroke="black" d="M147.17,-310.1C147.17,-310.1 58.33,-285.9 58.33,-285.9 52.54,-284.33 52.54,-281.17 58.33,-279.6 58.33,-279.6 147.17,-255.4 147.17,-255.4 152.96,-253.83 164.54,-253.83 170.33,-255.4 170.33,-255.4 259.17,-279.6 259.17,-279.6 264.96,-281.17 264.96,-284.33 259.17,-285.9 259.17,-285.9 170.33,-310.1 170.33,-310.1 164.54,-311.67 152.96,-311.67 147.17,-310.1"/>
<text xml:space="preserve" text-anchor="middle" x="158.75" y="-284.5" font-family="Helvetica,sans-Serif" font-size="10.00" fill="#f78166">NavigationReadyGate</text>
<text xml:space="preserve" text-anchor="middle" x="158.75" y="-273.25" font-family="Helvetica,sans-Serif" font-size="10.00" fill="#f78166">opens</text>
</g>
<!-- Stage0 -->
<g id="node2" class="node">
<title>Stage0</title>
<path fill="#1f3a5f" stroke="black" d="M228.25,-215.25C228.25,-215.25 89.25,-215.25 89.25,-215.25 83.25,-215.25 77.25,-209.25 77.25,-203.25 77.25,-203.25 77.25,-185.5 77.25,-185.5 77.25,-179.5 83.25,-173.5 89.25,-173.5 89.25,-173.5 228.25,-173.5 228.25,-173.5 234.25,-173.5 240.25,-179.5 240.25,-185.5 240.25,-185.5 240.25,-203.25 240.25,-203.25 240.25,-209.25 234.25,-215.25 228.25,-215.25"/>
<text xml:space="preserve" text-anchor="middle" x="158.75" y="-201.75" font-family="Helvetica,sans-Serif" font-size="10.00" fill="#58a6ff">SpawnStage.StaticActors (0)</text>
<text xml:space="preserve" text-anchor="middle" x="158.75" y="-190.5" font-family="Helvetica,sans-Serif" font-size="10.00" fill="#58a6ff">─────────</text>
<text xml:space="preserve" text-anchor="middle" x="158.75" y="-179.25" font-family="Helvetica,sans-Serif" font-size="10.00" fill="#58a6ff">StaticActorSpawner.SpawnAsync</text>
</g>
<!-- Gate&#45;&gt;Stage0 -->
<g id="edge1" class="edge">
<title>Gate&#45;&gt;Stage0</title>
<path fill="none" stroke="#f78166" d="M158.75,-252.02C158.75,-243.96 158.75,-235.2 158.75,-227.03"/>
<polygon fill="#f78166" stroke="#f78166" points="162.25,-227.15 158.75,-217.15 155.25,-227.15 162.25,-227.15"/>
</g>
<!-- Stage50 -->
<g id="node3" class="node">
<title>Stage50</title>
<path fill="#2a2a2a" stroke="black" stroke-dasharray="5,2" d="M149.5,-128.5C149.5,-128.5 12,-128.5 12,-128.5 6,-128.5 0,-122.5 0,-116.5 0,-116.5 0,-98.75 0,-98.75 0,-92.75 6,-86.75 12,-86.75 12,-86.75 149.5,-86.75 149.5,-86.75 155.5,-86.75 161.5,-92.75 161.5,-98.75 161.5,-98.75 161.5,-116.5 161.5,-116.5 161.5,-122.5 155.5,-128.5 149.5,-128.5"/>
<text xml:space="preserve" text-anchor="middle" x="80.75" y="-115" font-family="Helvetica,sans-Serif" font-size="10.00" fill="#8b949e">SpawnStage.DynamicActors (50)</text>
<text xml:space="preserve" text-anchor="middle" x="80.75" y="-103.75" font-family="Helvetica,sans-Serif" font-size="10.00" fill="#8b949e">─────────</text>
<text xml:space="preserve" text-anchor="middle" x="80.75" y="-92.5" font-family="Helvetica,sans-Serif" font-size="10.00" fill="#8b949e">(future GridSpawner)</text>
</g>
<!-- Stage0&#45;&gt;Stage50 -->
<g id="edge2" class="edge">
<title>Stage0&#45;&gt;Stage50</title>
<path fill="none" stroke="#30363d" d="M140.27,-173.29C130.33,-162.5 117.92,-149.01 107,-137.15"/>
<polygon fill="#30363d" stroke="#30363d" points="109.74,-134.96 100.4,-129.97 104.59,-139.7 109.74,-134.96"/>
<text xml:space="preserve" text-anchor="middle" x="131.46" y="-147.9" font-family="Helvetica,sans-Serif" font-size="8.00" fill="#8b949e">await</text>
</g>
<!-- Parallel -->
<g id="node5" class="node">
<title>Parallel</title>
<polygon fill="none" stroke="black" points="288.25,-128.5 179.25,-128.5 179.25,-86.75 294.25,-86.75 294.25,-122.5 288.25,-128.5"/>
<polyline fill="none" stroke="black" points="288.25,-128.5 288.25,-122.5"/>
<polyline fill="none" stroke="black" points="294.25,-122.5 288.25,-122.5"/>
<text xml:space="preserve" text-anchor="middle" x="236.75" y="-115" font-family="Helvetica,sans-Serif" font-size="10.00" fill="#8b949e">Spawners within same</text>
<text xml:space="preserve" text-anchor="middle" x="236.75" y="-103.75" font-family="Helvetica,sans-Serif" font-size="10.00" fill="#8b949e">stage run in parallel</text>
<text xml:space="preserve" text-anchor="middle" x="236.75" y="-92.5" font-family="Helvetica,sans-Serif" font-size="10.00" fill="#8b949e">(UniTask.WhenAll)</text>
</g>
<!-- Stage0&#45;&gt;Parallel -->
<!-- Stage100 -->
<g id="node4" class="node">
<title>Stage100</title>
<path fill="#1a3a1a" stroke="black" d="M148.75,-41.75C148.75,-41.75 12.75,-41.75 12.75,-41.75 6.75,-41.75 0.75,-35.75 0.75,-29.75 0.75,-29.75 0.75,-12 0.75,-12 0.75,-6 6.75,0 12.75,0 12.75,0 148.75,0 148.75,0 154.75,0 160.75,-6 160.75,-12 160.75,-12 160.75,-29.75 160.75,-29.75 160.75,-35.75 154.75,-41.75 148.75,-41.75"/>
<text xml:space="preserve" text-anchor="middle" x="80.75" y="-28.25" font-family="Helvetica,sans-Serif" font-size="10.00" fill="#3fb950">SpawnStage.BalloonActors (100)</text>
<text xml:space="preserve" text-anchor="middle" x="80.75" y="-17" font-family="Helvetica,sans-Serif" font-size="10.00" fill="#3fb950">─────────</text>
<text xml:space="preserve" text-anchor="middle" x="80.75" y="-5.75" font-family="Helvetica,sans-Serif" font-size="10.00" fill="#3fb950">BalloonSpawner.SpawnAsync</text>
</g>
<!-- Stage50&#45;&gt;Stage100 -->
<g id="edge3" class="edge">
<title>Stage50&#45;&gt;Stage100</title>
<path fill="none" stroke="#30363d" d="M80.75,-86.54C80.75,-76.69 80.75,-64.6 80.75,-53.54"/>
<polygon fill="#30363d" stroke="#30363d" points="84.25,-53.62 80.75,-43.62 77.25,-53.62 84.25,-53.62"/>
<text xml:space="preserve" text-anchor="middle" x="90.12" y="-61.15" font-family="Helvetica,sans-Serif" font-size="8.00" fill="#8b949e">await</text>
</g>
</g>
</svg>
