<?xml version="1.0" encoding="UTF-8" standalone="no"?>
<!DOCTYPE svg PUBLIC "-//W3C//DTD SVG 1.1//EN"
 "http://www.w3.org/Graphics/SVG/1.1/DTD/svg11.dtd">
<!-- Generated by graphviz version 15.0.0 (20260523.1842)
 -->
<!-- Title: StaticState Pages: 1 -->
<svg width="619pt" height="674pt"
 viewBox="0.00 0.00 619.00 674.00" xmlns="http://www.w3.org/2000/svg" xmlns:xlink="http://www.w3.org/1999/xlink">
<g id="graph0" class="graph" transform="scale(1 1) rotate(0) translate(4 670)">
<title>StaticState</title>
<g id="clust1" class="cluster">
<title>cluster_navigation</title>
<polygon fill="none" stroke="#30363d" stroke-dasharray="5,2" points="21.14,-451 21.14,-658 602.77,-658 602.77,-451 21.14,-451"/>
<text xml:space="preserve" text-anchor="middle" x="311.96" y="-640.7" font-family="Helvetica,sans-Serif" font-size="14.00" fill="#8b949e">Navigation (Shared/GameState/)</text>
</g>
<g id="clust2" class="cluster">
<title>cluster_cinematic</title>
<polygon fill="none" stroke="#30363d" stroke-dasharray="5,2" points="8,-8 8,-337 408.15,-337 408.15,-8 8,-8"/>
<text xml:space="preserve" text-anchor="middle" x="208.07" y="-319.7" font-family="Helvetica,sans-Serif" font-size="14.00" fill="#8b949e">Cinematic (Shared/GameState/)</text>
</g>
<!-- NavCurrent -->
<g id="node1" class="node">
<title>NavCurrent</title>
<ellipse fill="#1f3a5f" stroke="black" cx="98.26" cy="-489" rx="69.12" ry="29.52"/>
<text xml:space="preserve" text-anchor="middle" x="98.26" y="-496.38" font-family="Helvetica,sans-Serif" font-size="10.00" fill="#58a6ff">Current</text>
<text xml:space="preserve" text-anchor="middle" x="98.26" y="-485.12" font-family="Helvetica,sans-Serif" font-size="10.00" fill="#58a6ff">ReactiveProperty</text>
<text xml:space="preserve" text-anchor="middle" x="98.26" y="-473.88" font-family="Helvetica,sans-Serif" font-size="10.00" fill="#58a6ff">&lt;NavigationState&gt;</text>
</g>
<!-- Consumers -->
<g id="node13" class="node">
<title>Consumers</title>
<path fill="#2a2a2a" stroke="black" d="M443.27,-443C443.27,-443 270.52,-443 270.52,-443 264.52,-443 258.52,-437 258.52,-431 258.52,-431 258.52,-357 258.52,-357 258.52,-351 264.52,-345 270.52,-345 270.52,-345 443.27,-345 443.27,-345 449.27,-345 455.27,-351 455.27,-357 455.27,-357 455.27,-431 455.27,-431 455.27,-437 449.27,-443 443.27,-443"/>
<text xml:space="preserve" text-anchor="middle" x="356.9" y="-429.5" font-family="Helvetica,sans-Serif" font-size="10.00" fill="#8b949e">Subscribers</text>
<text xml:space="preserve" text-anchor="middle" x="356.9" y="-418.25" font-family="Helvetica,sans-Serif" font-size="10.00" fill="#8b949e">─────────</text>
<text xml:space="preserve" text-anchor="middle" x="356.9" y="-407" font-family="Helvetica,sans-Serif" font-size="10.00" fill="#8b949e">ScoreTrailService</text>
<text xml:space="preserve" text-anchor="middle" x="356.9" y="-395.75" font-family="Helvetica,sans-Serif" font-size="10.00" fill="#8b949e">LevelUpCinematic / HeartDrainCinematic</text>
<text xml:space="preserve" text-anchor="middle" x="356.9" y="-384.5" font-family="Helvetica,sans-Serif" font-size="10.00" fill="#8b949e">RunController / CameraShakeService</text>
<text xml:space="preserve" text-anchor="middle" x="356.9" y="-373.25" font-family="Helvetica,sans-Serif" font-size="10.00" fill="#8b949e">(traits via ICinematicState.Has)</text>
<text xml:space="preserve" text-anchor="middle" x="356.9" y="-362" font-family="Helvetica,sans-Serif" font-size="10.00" fill="#8b949e">BalloonSpawner</text>
<text xml:space="preserve" text-anchor="middle" x="356.9" y="-350.75" font-family="Helvetica,sans-Serif" font-size="10.00" fill="#8b949e">ThrowerController</text>
</g>
<!-- NavCurrent&#45;&gt;Consumers -->
<g id="edge8" class="edge">
<title>NavCurrent&#45;&gt;Consumers</title>
<path fill="none" stroke="#58a6ff" stroke-dasharray="5,2" d="M151.51,-469.66C179.14,-459.43 214.15,-446.47 247.35,-434.18"/>
<polygon fill="#58a6ff" stroke="#58a6ff" points="248.47,-437.5 256.64,-430.74 246.04,-430.93 248.47,-437.5"/>
<text xml:space="preserve" text-anchor="middle" x="219.52" y="-451.41" font-family="Helvetica,sans-Serif" font-size="8.00" fill="#8b949e">subscribe</text>
</g>
<!-- NavLaunch -->
<g id="node2" class="node">
<title>NavLaunch</title>
<path fill="#2a2a2a" stroke="black" d="M113.26,-573C113.26,-573 83.26,-573 83.26,-573 77.26,-573 71.26,-567 71.26,-561 71.26,-561 71.26,-549 71.26,-549 71.26,-543 77.26,-537 83.26,-537 83.26,-537 113.26,-537 113.26,-537 119.26,-537 125.26,-543 125.26,-549 125.26,-549 125.26,-561 125.26,-561 125.26,-567 119.26,-573 113.26,-573"/>
<text xml:space="preserve" text-anchor="middle" x="98.26" y="-551.12" font-family="Helvetica,sans-Serif" font-size="10.00" fill="#c9d1d9">Launch</text>
</g>
<!-- NavGame -->
<g id="node3" class="node">
<title>NavGame</title>
<path fill="#1a3a1a" stroke="black" d="M371.9,-573C371.9,-573 341.9,-573 341.9,-573 335.9,-573 329.9,-567 329.9,-561 329.9,-561 329.9,-549 329.9,-549 329.9,-543 335.9,-537 341.9,-537 341.9,-537 371.9,-537 371.9,-537 377.9,-537 383.9,-543 383.9,-549 383.9,-549 383.9,-561 383.9,-561 383.9,-567 377.9,-573 371.9,-573"/>
<text xml:space="preserve" text-anchor="middle" x="356.9" y="-551.12" font-family="Helvetica,sans-Serif" font-size="10.00" fill="#3fb950">Game</text>
</g>
<!-- NavLaunch&#45;&gt;NavGame -->
<g id="edge1" class="edge">
<title>NavLaunch&#45;&gt;NavGame</title>
<path fill="none" stroke="#3fb950" d="M125.76,-555C171.5,-555 265.42,-555 318.04,-555"/>
<polygon fill="#3fb950" stroke="#3fb950" points="318.03,-558.5 328.03,-555 318.03,-551.5 318.03,-558.5"/>
<text xml:space="preserve" text-anchor="middle" x="219.52" y="-556.4" font-family="Helvetica,sans-Serif" font-size="8.00" fill="#8b949e">game starts</text>
</g>
<!-- NavLevelUp -->
<g id="node4" class="node">
<title>NavLevelUp</title>
<path fill="#2d1f3d" stroke="black" d="M582.77,-573C582.77,-573 552.77,-573 552.77,-573 546.77,-573 540.77,-567 540.77,-561 540.77,-561 540.77,-549 540.77,-549 540.77,-543 546.77,-537 552.77,-537 552.77,-537 582.77,-537 582.77,-537 588.77,-537 594.77,-543 594.77,-549 594.77,-549 594.77,-561 594.77,-561 594.77,-567 588.77,-573 582.77,-573"/>
<text xml:space="preserve" text-anchor="middle" x="567.77" y="-551.12" font-family="Helvetica,sans-Serif" font-size="10.00" fill="#d2a8ff">LevelUp</text>
</g>
<!-- NavGame&#45;&gt;NavLevelUp -->
<g id="edge2" class="edge">
<title>NavGame&#45;&gt;NavLevelUp</title>
<path fill="none" stroke="#d2a8ff" d="M384.32,-548.48C417.01,-541.36 474.29,-531.96 522.77,-540 525.08,-540.38 527.42,-540.87 529.76,-541.43"/>
<polygon fill="#d2a8ff" stroke="#d2a8ff" points="528.58,-544.73 539.16,-544.1 530.49,-538 528.58,-544.73"/>
<text xml:space="preserve" text-anchor="middle" x="498.02" y="-541.4" font-family="Helvetica,sans-Serif" font-size="8.00" fill="#8b949e">score level&#45;up</text>
</g>
<!-- NavLevelUp&#45;&gt;NavGame -->
<g id="edge3" class="edge">
<title>NavLevelUp&#45;&gt;NavGame</title>
<path fill="none" stroke="#3fb950" d="M540.53,-555C504,-555 437.61,-555 395.73,-555"/>
<polygon fill="#3fb950" stroke="#3fb950" points="395.87,-551.5 385.87,-555 395.87,-558.5 395.87,-551.5"/>
<text xml:space="preserve" text-anchor="middle" x="498.02" y="-556.4" font-family="Helvetica,sans-Serif" font-size="8.00" fill="#8b949e">dismissed</text>
</g>
<!-- TransitionTo -->
<g id="node5" class="node">
<title>TransitionTo</title>
<path fill="#2a2a2a" stroke="black" d="M153.99,-614.73C153.99,-614.73 141.94,-621.27 141.94,-621.27 136.67,-624.14 125.4,-627 119.4,-627 119.4,-627 77.13,-627 77.13,-627 71.13,-627 59.85,-624.14 54.58,-621.27 54.58,-621.27 42.53,-614.73 42.53,-614.73 37.26,-611.86 37.26,-606.14 42.53,-603.27 42.53,-603.27 54.58,-596.73 54.58,-596.73 59.85,-593.86 71.13,-591 77.13,-591 77.13,-591 119.4,-591 119.4,-591 125.4,-591 136.67,-593.86 141.94,-596.73 141.94,-596.73 153.99,-603.27 153.99,-603.27 159.26,-606.14 159.26,-611.86 153.99,-614.73"/>
<text xml:space="preserve" text-anchor="middle" x="98.26" y="-605.12" font-family="Helvetica,sans-Serif" font-size="10.00" fill="#c9d1d9">TransitionTo(state)</text>
</g>
<!-- CinCurrent -->
<g id="node6" class="node">
<title>CinCurrent</title>
<ellipse fill="#1f3a5f" stroke="black" cx="98.26" cy="-100" rx="67.53" ry="29.52"/>
<text xml:space="preserve" text-anchor="middle" x="98.26" y="-107.38" font-family="Helvetica,sans-Serif" font-size="10.00" fill="#58a6ff">Current</text>
<text xml:space="preserve" text-anchor="middle" x="98.26" y="-96.12" font-family="Helvetica,sans-Serif" font-size="10.00" fill="#58a6ff">ReactiveProperty</text>
<text xml:space="preserve" text-anchor="middle" x="98.26" y="-84.88" font-family="Helvetica,sans-Serif" font-size="10.00" fill="#58a6ff">&lt;CinematicState&gt;</text>
</g>
<!-- CinCurrent&#45;&gt;Consumers -->
<g id="edge9" class="edge">
<title>CinCurrent&#45;&gt;Consumers</title>
<path fill="none" stroke="#58a6ff" stroke-dasharray="5,2" d="M152.16,-118.21C162.56,-123.65 172.67,-130.49 180.52,-139 243.28,-206.92 198.83,-264.05 254.74,-335.98"/>
<polygon fill="#58a6ff" stroke="#58a6ff" points="252.03,-338.19 261.1,-343.66 257.42,-333.73 252.03,-338.19"/>
<text xml:space="preserve" text-anchor="middle" x="219.52" y="-316.9" font-family="Helvetica,sans-Serif" font-size="8.00" fill="#8b949e">subscribe</text>
</g>
<!-- CinNone -->
<g id="node7" class="node">
<title>CinNone</title>
<path fill="#2a2a2a" stroke="black" d="M113.26,-52C113.26,-52 83.26,-52 83.26,-52 77.26,-52 71.26,-46 71.26,-40 71.26,-40 71.26,-28 71.26,-28 71.26,-22 77.26,-16 83.26,-16 83.26,-16 113.26,-16 113.26,-16 119.26,-16 125.26,-22 125.26,-28 125.26,-28 125.26,-40 125.26,-40 125.26,-46 119.26,-52 113.26,-52"/>
<text xml:space="preserve" text-anchor="middle" x="98.26" y="-30.12" font-family="Helvetica,sans-Serif" font-size="10.00" fill="#c9d1d9">None</text>
</g>
<!-- CinPanIn -->
<g id="node8" class="node">
<title>CinPanIn</title>
<path fill="#3d2a1a" stroke="black" d="M383.65,-70C383.65,-70 330.15,-70 330.15,-70 324.15,-70 318.15,-64 318.15,-58 318.15,-58 318.15,-46 318.15,-46 318.15,-40 324.15,-34 330.15,-34 330.15,-34 383.65,-34 383.65,-34 389.65,-34 395.65,-40 395.65,-46 395.65,-46 395.65,-58 395.65,-58 395.65,-64 389.65,-70 383.65,-70"/>
<text xml:space="preserve" text-anchor="middle" x="356.9" y="-48.12" font-family="Helvetica,sans-Serif" font-size="10.00" fill="#f78166">LevelUpPanIn</text>
</g>
<!-- CinNone&#45;&gt;CinPanIn -->
<g id="edge4" class="edge">
<title>CinNone&#45;&gt;CinPanIn</title>
<path fill="none" stroke="#f78166" d="M125.6,-33.09C154.01,-32.37 200.54,-31.93 240.52,-35 262.31,-36.67 286.23,-39.96 306.62,-43.2"/>
<polygon fill="#f78166" stroke="#f78166" points="305.93,-46.63 316.36,-44.79 307.06,-39.72 305.93,-46.63"/>
<text xml:space="preserve" text-anchor="middle" x="219.52" y="-36.4" font-family="Helvetica,sans-Serif" font-size="8.00" fill="#8b949e">Begin</text>
</g>
<!-- CinRestore -->
<g id="node9" class="node">
<title>CinRestore</title>
<path fill="#2d1f3d" stroke="black" d="M388.15,-129C388.15,-129 325.65,-129 325.65,-129 319.65,-129 313.65,-123 313.65,-117 313.65,-117 313.65,-105 313.65,-105 313.65,-99 319.65,-93 325.65,-93 325.65,-93 388.15,-93 388.15,-93 394.15,-93 400.15,-99 400.15,-105 400.15,-105 400.15,-117 400.15,-117 400.15,-123 394.15,-129 388.15,-129"/>
<text xml:space="preserve" text-anchor="middle" x="356.9" y="-107.12" font-family="Helvetica,sans-Serif" font-size="10.00" fill="#d2a8ff">LevelUpRestore</text>
</g>
<!-- CinNone&#45;&gt;CinRestore -->
<g id="edge6" class="edge">
<title>CinNone&#45;&gt;CinRestore</title>
<path fill="none" stroke="#d2a8ff" d="M125.76,-41.95C167.34,-54.42 248.71,-78.84 302.7,-95.04"/>
<polygon fill="#d2a8ff" stroke="#d2a8ff" points="301.41,-98.31 312,-97.83 303.42,-91.6 301.41,-98.31"/>
<text xml:space="preserve" text-anchor="middle" x="219.52" y="-76.21" font-family="Helvetica,sans-Serif" font-size="8.00" fill="#8b949e">Begin</text>
</g>
<!-- CinPanIn&#45;&gt;CinNone -->
<g id="edge5" class="edge">
<title>CinPanIn&#45;&gt;CinNone</title>
<path fill="none" stroke="#30363d" d="M317.7,-50.59C285.81,-49.28 239.17,-47.08 198.52,-44 178.03,-42.45 155.2,-40.19 136.61,-38.2"/>
<polygon fill="#30363d" stroke="#30363d" points="137.18,-34.75 126.86,-37.15 136.42,-41.71 137.18,-34.75"/>
<text xml:space="preserve" text-anchor="middle" x="219.52" y="-48" font-family="Helvetica,sans-Serif" font-size="8.00" fill="#8b949e">End</text>
</g>
<!-- CinRestore&#45;&gt;CinNone -->
<g id="edge7" class="edge">
<title>CinRestore&#45;&gt;CinNone</title>
<path fill="none" stroke="#30363d" d="M313.26,-113.84C279.63,-114.06 232.83,-109.7 198.52,-88 186.34,-80.29 191.99,-69.75 180.52,-61 167.72,-51.23 151.19,-44.89 136.39,-40.83"/>
<polygon fill="#30363d" stroke="#30363d" points="137.51,-37.5 126.96,-38.51 135.84,-44.3 137.51,-37.5"/>
<text xml:space="preserve" text-anchor="middle" x="219.52" y="-106.3" font-family="Helvetica,sans-Serif" font-size="8.00" fill="#8b949e">End</text>
</g>
<!-- CinDrain -->
<g id="node10" class="node">
<title>CinDrain</title>
<path fill="#3d2a1a" stroke="black" d="M117.89,-184C117.89,-184 78.64,-184 78.64,-184 72.64,-184 66.64,-178 66.64,-172 66.64,-172 66.64,-160 66.64,-160 66.64,-154 72.64,-148 78.64,-148 78.64,-148 117.89,-148 117.89,-148 123.89,-148 129.89,-154 129.89,-160 129.89,-160 129.89,-172 129.89,-172 129.89,-178 123.89,-184 117.89,-184"/>
<text xml:space="preserve" text-anchor="middle" x="98.26" y="-162.12" font-family="Helvetica,sans-Serif" font-size="10.00" fill="#f78166">HeartDrain</text>
</g>
<!-- CinDrainRestore -->
<g id="node11" class="node">
<title>CinDrainRestore</title>
<path fill="#2d1f3d" stroke="black" d="M135.14,-238C135.14,-238 61.39,-238 61.39,-238 55.39,-238 49.39,-232 49.39,-226 49.39,-226 49.39,-214 49.39,-214 49.39,-208 55.39,-202 61.39,-202 61.39,-202 135.14,-202 135.14,-202 141.14,-202 147.14,-208 147.14,-214 147.14,-214 147.14,-226 147.14,-226 147.14,-232 141.14,-238 135.14,-238"/>
<text xml:space="preserve" text-anchor="middle" x="98.26" y="-216.12" font-family="Helvetica,sans-Serif" font-size="10.00" fill="#d2a8ff">HeartDrainRestore</text>
</g>
<!-- CinAPI -->
<g id="node12" class="node">
<title>CinAPI</title>
<path fill="#2a2a2a" stroke="black" d="M170.26,-287.22C170.26,-287.22 149.66,-299.69 149.66,-299.69 144.53,-302.8 133.39,-305.9 127.39,-305.9 127.39,-305.9 69.13,-305.9 69.13,-305.9 63.13,-305.9 52,-302.8 46.87,-299.69 46.87,-299.69 26.27,-287.22 26.27,-287.22 21.13,-284.11 21.13,-277.89 26.27,-274.78 26.27,-274.78 46.87,-262.31 46.87,-262.31 52,-259.2 63.13,-256.1 69.13,-256.1 69.13,-256.1 127.39,-256.1 127.39,-256.1 133.39,-256.1 144.53,-259.2 149.66,-262.31 149.66,-262.31 170.26,-274.78 170.26,-274.78 175.39,-277.89 175.39,-284.11 170.26,-287.22"/>
<text xml:space="preserve" text-anchor="middle" x="98.26" y="-282.75" font-family="Helvetica,sans-Serif" font-size="10.00" fill="#c9d1d9">Begin(state) / End()</text>
<text xml:space="preserve" text-anchor="middle" x="98.26" y="-271.5" font-family="Helvetica,sans-Serif" font-size="10.00" fill="#c9d1d9">IsPlaying: bool</text>
</g>
</g>
</svg>
