<?xml version="1.0" encoding="UTF-8" standalone="no"?>
<!DOCTYPE svg PUBLIC "-//W3C//DTD SVG 1.1//EN"
 "http://www.w3.org/Graphics/SVG/1.1/DTD/svg11.dtd">
<!-- Generated by graphviz version 15.0.0 (20260523.1842)
 -->
<!-- Title: StaticState Pages: 1 -->
<svg width="526pt" height="620pt"
 viewBox="0.00 0.00 526.00 620.00" xmlns="http://www.w3.org/2000/svg" xmlns:xlink="http://www.w3.org/1999/xlink">
<g id="graph0" class="graph" transform="scale(1 1) rotate(0) translate(4 616)">
<title>StaticState</title>
<g id="clust1" class="cluster">
<title>cluster_navigation</title>
<polygon fill="none" stroke="#30363d" stroke-dasharray="5,2" points="21.14,-397 21.14,-604 509.77,-604 509.77,-397 21.14,-397"/>
<text xml:space="preserve" text-anchor="middle" x="265.46" y="-586.7" font-family="Helvetica,sans-Serif" font-size="14.00" fill="#8b949e">Navigation (Shared/GameState/)</text>
</g>
<g id="clust2" class="cluster">
<title>cluster_cinematic</title>
<polygon fill="none" stroke="#30363d" stroke-dasharray="5,2" points="8,-8 8,-305 361.65,-305 361.65,-8 8,-8"/>
<text xml:space="preserve" text-anchor="middle" x="184.82" y="-287.7" font-family="Helvetica,sans-Serif" font-size="14.00" fill="#8b949e">Cinematic (Shared/GameState/)</text>
</g>
<!-- NavCurrent -->
<g id="node1" class="node">
<title>NavCurrent</title>
<ellipse fill="#1f3a5f" stroke="black" cx="98.26" cy="-435" rx="69.12" ry="29.52"/>
<text xml:space="preserve" text-anchor="middle" x="98.26" y="-442.38" font-family="Helvetica,sans-Serif" font-size="10.00" fill="#58a6ff">Current</text>
<text xml:space="preserve" text-anchor="middle" x="98.26" y="-431.12" font-family="Helvetica,sans-Serif" font-size="10.00" fill="#58a6ff">ReactiveProperty</text>
<text xml:space="preserve" text-anchor="middle" x="98.26" y="-419.88" font-family="Helvetica,sans-Serif" font-size="10.00" fill="#58a6ff">&lt;NavigationState&gt;</text>
</g>
<!-- Consumers -->
<g id="node12" class="node">
<title>Consumers</title>
<path fill="#2a2a2a" stroke="black" d="M350.27,-388.75C350.27,-388.75 270.52,-388.75 270.52,-388.75 264.52,-388.75 258.52,-382.75 258.52,-376.75 258.52,-376.75 258.52,-325.25 258.52,-325.25 258.52,-319.25 264.52,-313.25 270.52,-313.25 270.52,-313.25 350.27,-313.25 350.27,-313.25 356.27,-313.25 362.27,-319.25 362.27,-325.25 362.27,-325.25 362.27,-376.75 362.27,-376.75 362.27,-382.75 356.27,-388.75 350.27,-388.75"/>
<text xml:space="preserve" text-anchor="middle" x="310.4" y="-375.25" font-family="Helvetica,sans-Serif" font-size="10.00" fill="#8b949e">Subscribers</text>
<text xml:space="preserve" text-anchor="middle" x="310.4" y="-364" font-family="Helvetica,sans-Serif" font-size="10.00" fill="#8b949e">─────────</text>
<text xml:space="preserve" text-anchor="middle" x="310.4" y="-352.75" font-family="Helvetica,sans-Serif" font-size="10.00" fill="#8b949e">ScoreTrailService</text>
<text xml:space="preserve" text-anchor="middle" x="310.4" y="-341.5" font-family="Helvetica,sans-Serif" font-size="10.00" fill="#8b949e">LevelUpTrailEffect</text>
<text xml:space="preserve" text-anchor="middle" x="310.4" y="-330.25" font-family="Helvetica,sans-Serif" font-size="10.00" fill="#8b949e">BalloonSpawner</text>
<text xml:space="preserve" text-anchor="middle" x="310.4" y="-319" font-family="Helvetica,sans-Serif" font-size="10.00" fill="#8b949e">ThrowerController</text>
</g>
<!-- NavCurrent&#45;&gt;Consumers -->
<g id="edge8" class="edge">
<title>NavCurrent&#45;&gt;Consumers</title>
<path fill="none" stroke="#58a6ff" stroke-dasharray="5,2" d="M149.6,-414.88C179.16,-403.06 216.74,-388.04 248.03,-375.53"/>
<polygon fill="#58a6ff" stroke="#58a6ff" points="248.99,-378.92 256.98,-371.95 246.39,-372.42 248.99,-378.92"/>
<text xml:space="preserve" text-anchor="middle" x="219.52" y="-394.4" font-family="Helvetica,sans-Serif" font-size="8.00" fill="#8b949e">subscribe</text>
</g>
<!-- NavLaunch -->
<g id="node2" class="node">
<title>NavLaunch</title>
<path fill="#2a2a2a" stroke="black" d="M113.26,-519C113.26,-519 83.26,-519 83.26,-519 77.26,-519 71.26,-513 71.26,-507 71.26,-507 71.26,-495 71.26,-495 71.26,-489 77.26,-483 83.26,-483 83.26,-483 113.26,-483 113.26,-483 119.26,-483 125.26,-489 125.26,-495 125.26,-495 125.26,-507 125.26,-507 125.26,-513 119.26,-519 113.26,-519"/>
<text xml:space="preserve" text-anchor="middle" x="98.26" y="-497.12" font-family="Helvetica,sans-Serif" font-size="10.00" fill="#c9d1d9">Launch</text>
</g>
<!-- NavGame -->
<g id="node3" class="node">
<title>NavGame</title>
<path fill="#1a3a1a" stroke="black" d="M325.4,-519C325.4,-519 295.4,-519 295.4,-519 289.4,-519 283.4,-513 283.4,-507 283.4,-507 283.4,-495 283.4,-495 283.4,-489 289.4,-483 295.4,-483 295.4,-483 325.4,-483 325.4,-483 331.4,-483 337.4,-489 337.4,-495 337.4,-495 337.4,-507 337.4,-507 337.4,-513 331.4,-519 325.4,-519"/>
<text xml:space="preserve" text-anchor="middle" x="310.4" y="-497.12" font-family="Helvetica,sans-Serif" font-size="10.00" fill="#3fb950">Game</text>
</g>
<!-- NavLaunch&#45;&gt;NavGame -->
<g id="edge1" class="edge">
<title>NavLaunch&#45;&gt;NavGame</title>
<path fill="none" stroke="#3fb950" d="M125.45,-501C162.28,-501 229.58,-501 271.77,-501"/>
<polygon fill="#3fb950" stroke="#3fb950" points="271.7,-504.5 281.7,-501 271.7,-497.5 271.7,-504.5"/>
<text xml:space="preserve" text-anchor="middle" x="219.52" y="-502.4" font-family="Helvetica,sans-Serif" font-size="8.00" fill="#8b949e">game starts</text>
</g>
<!-- NavLevelUp -->
<g id="node4" class="node">
<title>NavLevelUp</title>
<path fill="#2d1f3d" stroke="black" d="M489.77,-519C489.77,-519 459.77,-519 459.77,-519 453.77,-519 447.77,-513 447.77,-507 447.77,-507 447.77,-495 447.77,-495 447.77,-489 453.77,-483 459.77,-483 459.77,-483 489.77,-483 489.77,-483 495.77,-483 501.77,-489 501.77,-495 501.77,-495 501.77,-507 501.77,-507 501.77,-513 495.77,-519 489.77,-519"/>
<text xml:space="preserve" text-anchor="middle" x="474.77" y="-497.12" font-family="Helvetica,sans-Serif" font-size="10.00" fill="#d2a8ff">LevelUp</text>
</g>
<!-- NavGame&#45;&gt;NavLevelUp -->
<g id="edge2" class="edge">
<title>NavGame&#45;&gt;NavLevelUp</title>
<path fill="none" stroke="#d2a8ff" d="M337.81,-493.27C361.86,-487.27 398.3,-480.78 429.77,-486 432.08,-486.38 434.42,-486.87 436.76,-487.43"/>
<polygon fill="#d2a8ff" stroke="#d2a8ff" points="435.58,-490.73 446.16,-490.1 437.49,-484 435.58,-490.73"/>
<text xml:space="preserve" text-anchor="middle" x="405.02" y="-487.4" font-family="Helvetica,sans-Serif" font-size="8.00" fill="#8b949e">score level&#45;up</text>
</g>
<!-- NavLevelUp&#45;&gt;NavGame -->
<g id="edge3" class="edge">
<title>NavLevelUp&#45;&gt;NavGame</title>
<path fill="none" stroke="#3fb950" d="M447.34,-501C420.68,-501 379.29,-501 349.18,-501"/>
<polygon fill="#3fb950" stroke="#3fb950" points="349.36,-497.5 339.36,-501 349.36,-504.5 349.36,-497.5"/>
<text xml:space="preserve" text-anchor="middle" x="405.02" y="-502.4" font-family="Helvetica,sans-Serif" font-size="8.00" fill="#8b949e">dismissed</text>
</g>
<!-- TransitionTo -->
<g id="node5" class="node">
<title>TransitionTo</title>
<path fill="#2a2a2a" stroke="black" d="M153.99,-560.73C153.99,-560.73 141.94,-567.27 141.94,-567.27 136.67,-570.14 125.4,-573 119.4,-573 119.4,-573 77.13,-573 77.13,-573 71.13,-573 59.85,-570.14 54.58,-567.27 54.58,-567.27 42.53,-560.73 42.53,-560.73 37.26,-557.86 37.26,-552.14 42.53,-549.27 42.53,-549.27 54.58,-542.73 54.58,-542.73 59.85,-539.86 71.13,-537 77.13,-537 77.13,-537 119.4,-537 119.4,-537 125.4,-537 136.67,-539.86 141.94,-542.73 141.94,-542.73 153.99,-549.27 153.99,-549.27 159.26,-552.14 159.26,-557.86 153.99,-560.73"/>
<text xml:space="preserve" text-anchor="middle" x="98.26" y="-551.12" font-family="Helvetica,sans-Serif" font-size="10.00" fill="#c9d1d9">TransitionTo(state)</text>
</g>
<!-- CinCurrent -->
<g id="node6" class="node">
<title>CinCurrent</title>
<ellipse fill="#1f3a5f" stroke="black" cx="98.26" cy="-100" rx="67.53" ry="29.52"/>
<text xml:space="preserve" text-anchor="middle" x="98.26" y="-107.38" font-family="Helvetica,sans-Serif" font-size="10.00" fill="#58a6ff">Current</text>
<text xml:space="preserve" text-anchor="middle" x="98.26" y="-96.12" font-family="Helvetica,sans-Serif" font-size="10.00" fill="#58a6ff">ReactiveProperty</text>
<text xml:space="preserve" text-anchor="middle" x="98.26" y="-84.88" font-family="Helvetica,sans-Serif" font-size="10.00" fill="#58a6ff">&lt;CinematicState&gt;</text>
</g>
<!-- CinCurrent&#45;&gt;Consumers -->
<g id="edge9" class="edge">
<title>CinCurrent&#45;&gt;Consumers</title>
<path fill="none" stroke="#58a6ff" stroke-dasharray="5,2" d="M152.2,-118.11C162.48,-123.36 172.52,-129.92 180.52,-138 236.67,-194.68 210.34,-238.61 254.82,-303.48"/>
<polygon fill="#58a6ff" stroke="#58a6ff" points="251.98,-305.52 260.69,-311.55 257.64,-301.4 251.98,-305.52"/>
<text xml:space="preserve" text-anchor="middle" x="219.52" y="-280.05" font-family="Helvetica,sans-Serif" font-size="8.00" fill="#8b949e">subscribe</text>
</g>
<!-- CinNone -->
<g id="node7" class="node">
<title>CinNone</title>
<path fill="#2a2a2a" stroke="black" d="M113.26,-52C113.26,-52 83.26,-52 83.26,-52 77.26,-52 71.26,-46 71.26,-40 71.26,-40 71.26,-28 71.26,-28 71.26,-22 77.26,-16 83.26,-16 83.26,-16 113.26,-16 113.26,-16 119.26,-16 125.26,-22 125.26,-28 125.26,-28 125.26,-40 125.26,-40 125.26,-46 119.26,-52 113.26,-52"/>
<text xml:space="preserve" text-anchor="middle" x="98.26" y="-30.12" font-family="Helvetica,sans-Serif" font-size="10.00" fill="#c9d1d9">None</text>
</g>
<!-- CinPanIn -->
<g id="node8" class="node">
<title>CinPanIn</title>
<path fill="#3d2a1a" stroke="black" d="M337.15,-70C337.15,-70 283.65,-70 283.65,-70 277.65,-70 271.65,-64 271.65,-58 271.65,-58 271.65,-46 271.65,-46 271.65,-40 277.65,-34 283.65,-34 283.65,-34 337.15,-34 337.15,-34 343.15,-34 349.15,-40 349.15,-46 349.15,-46 349.15,-58 349.15,-58 349.15,-64 343.15,-70 337.15,-70"/>
<text xml:space="preserve" text-anchor="middle" x="310.4" y="-48.12" font-family="Helvetica,sans-Serif" font-size="10.00" fill="#f78166">LevelUpPanIn</text>
</g>
<!-- CinNone&#45;&gt;CinPanIn -->
<g id="edge4" class="edge">
<title>CinNone&#45;&gt;CinPanIn</title>
<path fill="none" stroke="#f78166" d="M125.68,-32.35C154.15,-30.99 200.74,-30.02 240.52,-35 247.02,-35.81 253.79,-37.02 260.44,-38.43"/>
<polygon fill="#f78166" stroke="#f78166" points="259.44,-41.79 269.97,-40.6 261,-34.97 259.44,-41.79"/>
<text xml:space="preserve" text-anchor="middle" x="219.52" y="-36.4" font-family="Helvetica,sans-Serif" font-size="8.00" fill="#8b949e">Begin</text>
</g>
<!-- CinRestore -->
<g id="node9" class="node">
<title>CinRestore</title>
<path fill="#2d1f3d" stroke="black" d="M341.65,-129C341.65,-129 279.15,-129 279.15,-129 273.15,-129 267.15,-123 267.15,-117 267.15,-117 267.15,-105 267.15,-105 267.15,-99 273.15,-93 279.15,-93 279.15,-93 341.65,-93 341.65,-93 347.65,-93 353.65,-99 353.65,-105 353.65,-105 353.65,-117 353.65,-117 353.65,-123 347.65,-129 341.65,-129"/>
<text xml:space="preserve" text-anchor="middle" x="310.4" y="-107.12" font-family="Helvetica,sans-Serif" font-size="10.00" fill="#d2a8ff">LevelUpRestore</text>
</g>
<!-- CinNone&#45;&gt;CinRestore -->
<g id="edge6" class="edge">
<title>CinNone&#45;&gt;CinRestore</title>
<path fill="none" stroke="#d2a8ff" d="M125.73,-42.43C141.67,-47.6 162.34,-54.46 180.52,-61 205.57,-70.01 233.11,-80.61 256.28,-89.71"/>
<polygon fill="#d2a8ff" stroke="#d2a8ff" points="254.94,-92.95 265.52,-93.36 257.51,-86.43 254.94,-92.95"/>
<text xml:space="preserve" text-anchor="middle" x="219.52" y="-83.72" font-family="Helvetica,sans-Serif" font-size="8.00" fill="#8b949e">Begin</text>
</g>
<!-- CinPanIn&#45;&gt;CinNone -->
<g id="edge5" class="edge">
<title>CinPanIn&#45;&gt;CinNone</title>
<path fill="none" stroke="#30363d" d="M271.15,-49.51C249.77,-48.05 222.65,-46.09 198.52,-44 178.04,-42.23 155.22,-39.95 136.62,-38.02"/>
<polygon fill="#30363d" stroke="#30363d" points="137.18,-34.56 126.87,-36.99 136.45,-41.52 137.18,-34.56"/>
<text xml:space="preserve" text-anchor="middle" x="219.52" y="-48.56" font-family="Helvetica,sans-Serif" font-size="8.00" fill="#8b949e">End</text>
</g>
<!-- CinRestore&#45;&gt;CinNone -->
<g id="edge7" class="edge">
<title>CinRestore&#45;&gt;CinNone</title>
<path fill="none" stroke="#30363d" d="M266.82,-113.69C244.66,-113.04 218.16,-108.83 198.52,-95 184.55,-85.15 193.58,-72.05 180.52,-61 168.14,-50.52 151.53,-44.06 136.57,-40.11"/>
<polygon fill="#30363d" stroke="#30363d" points="137.54,-36.74 127.01,-37.89 135.96,-43.56 137.54,-36.74"/>
<text xml:space="preserve" text-anchor="middle" x="219.52" y="-112.5" font-family="Helvetica,sans-Serif" font-size="8.00" fill="#8b949e">End</text>
</g>
<!-- CinAPI -->
<g id="node10" class="node">
<title>CinAPI</title>
<path fill="#2a2a2a" stroke="black" d="M170.26,-178.22C170.26,-178.22 149.66,-190.69 149.66,-190.69 144.53,-193.8 133.39,-196.9 127.39,-196.9 127.39,-196.9 69.13,-196.9 69.13,-196.9 63.13,-196.9 52,-193.8 46.87,-190.69 46.87,-190.69 26.27,-178.22 26.27,-178.22 21.13,-175.11 21.13,-168.89 26.27,-165.78 26.27,-165.78 46.87,-153.31 46.87,-153.31 52,-150.2 63.13,-147.1 69.13,-147.1 69.13,-147.1 127.39,-147.1 127.39,-147.1 133.39,-147.1 144.53,-150.2 149.66,-153.31 149.66,-153.31 170.26,-165.78 170.26,-165.78 175.39,-168.89 175.39,-175.11 170.26,-178.22"/>
<text xml:space="preserve" text-anchor="middle" x="98.26" y="-173.75" font-family="Helvetica,sans-Serif" font-size="10.00" fill="#c9d1d9">Begin(state) / End()</text>
<text xml:space="preserve" text-anchor="middle" x="98.26" y="-162.5" font-family="Helvetica,sans-Serif" font-size="10.00" fill="#c9d1d9">IsPlaying: bool</text>
</g>
<!-- CinAware -->
<g id="node11" class="node">
<title>CinAware</title>
<ellipse fill="#1a3a1a" stroke="black" cx="98.26" cy="-244" rx="75.48" ry="29.52"/>
<text xml:space="preserve" text-anchor="middle" x="98.26" y="-251.38" font-family="Helvetica,sans-Serif" font-size="10.00" fill="#3fb950">ICinematicAware</text>
<text xml:space="preserve" text-anchor="middle" x="98.26" y="-240.12" font-family="Helvetica,sans-Serif" font-size="10.00" fill="#3fb950">Register / Unregister</text>
<text xml:space="preserve" text-anchor="middle" x="98.26" y="-228.88" font-family="Helvetica,sans-Serif" font-size="10.00" fill="#3fb950">OnCinematicEnd()</text>
</g>
</g>
</svg>
