<?xml version="1.0" encoding="UTF-8" standalone="no"?>
<!DOCTYPE svg PUBLIC "-//W3C//DTD SVG 1.1//EN"
 "http://www.w3.org/Graphics/SVG/1.1/DTD/svg11.dtd">
<!-- Generated by graphviz version 15.0.0 (20260523.1842)
 -->
<!-- Title: TrailComposition Pages: 1 -->
<svg width="554pt" height="261pt"
 viewBox="0.00 0.00 554.00 261.00" xmlns="http://www.w3.org/2000/svg" xmlns:xlink="http://www.w3.org/1999/xlink">
<g id="graph0" class="graph" transform="scale(1 1) rotate(0) translate(4 257.25)">
<title>TrailComposition</title>
<g id="clust1" class="cluster">
<title>cluster_shared</title>
<polygon fill="none" stroke="#30363d" stroke-dasharray="5,2" points="227.89,-8 227.89,-133.75 537.89,-133.75 537.89,-8 227.89,-8"/>
<text xml:space="preserve" text-anchor="middle" x="382.89" y="-116.45" font-family="Helvetica,sans-Serif" font-size="14.00" fill="#8b949e">Shared/Pool/</text>
</g>
<!-- TrailSpawner -->
<g id="node1" class="node">
<title>TrailSpawner</title>
<path fill="#1f3a5f" stroke="black" d="M518.27,-97.12C518.27,-97.12 405.52,-97.12 405.52,-97.12 399.52,-97.12 393.52,-91.12 393.52,-85.12 393.52,-85.12 393.52,-33.62 393.52,-33.62 393.52,-27.62 399.52,-21.62 405.52,-21.62 405.52,-21.62 518.27,-21.62 518.27,-21.62 524.27,-21.62 530.27,-27.62 530.27,-33.62 530.27,-33.62 530.27,-85.12 530.27,-85.12 530.27,-91.12 524.27,-97.12 518.27,-97.12"/>
<text xml:space="preserve" text-anchor="middle" x="461.89" y="-83.62" font-family="Helvetica,sans-Serif" font-size="10.00" fill="#58a6ff">TrailSpawner</text>
<text xml:space="preserve" text-anchor="middle" x="461.89" y="-72.38" font-family="Helvetica,sans-Serif" font-size="10.00" fill="#58a6ff">─────────</text>
<text xml:space="preserve" text-anchor="middle" x="461.89" y="-61.12" font-family="Helvetica,sans-Serif" font-size="10.00" fill="#58a6ff">PoolManager ref</text>
<text xml:space="preserve" text-anchor="middle" x="461.89" y="-49.88" font-family="Helvetica,sans-Serif" font-size="10.00" fill="#58a6ff">pool key + channel factory</text>
<text xml:space="preserve" text-anchor="middle" x="461.89" y="-38.62" font-family="Helvetica,sans-Serif" font-size="10.00" fill="#58a6ff">Spawn(from, to, dur, color?)</text>
<text xml:space="preserve" text-anchor="middle" x="461.89" y="-27.38" font-family="Helvetica,sans-Serif" font-size="10.00" fill="#58a6ff">SpawnUnscaled(...)</text>
</g>
<!-- TrailTracker -->
<g id="node2" class="node">
<title>TrailTracker</title>
<path fill="#1f3a5f" stroke="black" d="M363.77,-102.75C363.77,-102.75 248.02,-102.75 248.02,-102.75 242.02,-102.75 236.02,-96.75 236.02,-90.75 236.02,-90.75 236.02,-28 236.02,-28 236.02,-22 242.02,-16 248.02,-16 248.02,-16 363.77,-16 363.77,-16 369.77,-16 375.77,-22 375.77,-28 375.77,-28 375.77,-90.75 375.77,-90.75 375.77,-96.75 369.77,-102.75 363.77,-102.75"/>
<text xml:space="preserve" text-anchor="middle" x="305.89" y="-89.25" font-family="Helvetica,sans-Serif" font-size="10.00" fill="#58a6ff">TrailFlightRegistry&lt;TId&gt;</text>
<text xml:space="preserve" text-anchor="middle" x="305.89" y="-78" font-family="Helvetica,sans-Serif" font-size="10.00" fill="#58a6ff">─────────</text>
<text xml:space="preserve" text-anchor="middle" x="305.89" y="-66.75" font-family="Helvetica,sans-Serif" font-size="10.00" fill="#58a6ff">Register / Unregister</text>
<text xml:space="preserve" text-anchor="middle" x="305.89" y="-55.5" font-family="Helvetica,sans-Serif" font-size="10.00" fill="#58a6ff">Contains / Get</text>
<text xml:space="preserve" text-anchor="middle" x="305.89" y="-44.25" font-family="Helvetica,sans-Serif" font-size="10.00" fill="#58a6ff">CompleteAll (snapshot&#45;safe)</text>
<text xml:space="preserve" text-anchor="middle" x="305.89" y="-33" font-family="Helvetica,sans-Serif" font-size="10.00" fill="#58a6ff">per&#45;flight: Pause / Resume /</text>
<text xml:space="preserve" text-anchor="middle" x="305.89" y="-21.75" font-family="Helvetica,sans-Serif" font-size="10.00" fill="#58a6ff">Complete / Speed</text>
</g>
<!-- ScoreTrailService -->
<g id="node3" class="node">
<title>ScoreTrailService</title>
<path fill="#1a3a1a" stroke="black" d="M364.52,-253.25C364.52,-253.25 247.27,-253.25 247.27,-253.25 241.27,-253.25 235.27,-247.25 235.27,-241.25 235.27,-241.25 235.27,-189.75 235.27,-189.75 235.27,-183.75 241.27,-177.75 247.27,-177.75 247.27,-177.75 364.52,-177.75 364.52,-177.75 370.52,-177.75 376.52,-183.75 376.52,-189.75 376.52,-189.75 376.52,-241.25 376.52,-241.25 376.52,-247.25 370.52,-253.25 364.52,-253.25"/>
<text xml:space="preserve" text-anchor="middle" x="305.89" y="-239.75" font-family="Helvetica,sans-Serif" font-size="10.00" fill="#3fb950">ScoreTrailService</text>
<text xml:space="preserve" text-anchor="middle" x="305.89" y="-228.5" font-family="Helvetica,sans-Serif" font-size="10.00" fill="#3fb950">─────────</text>
<text xml:space="preserve" text-anchor="middle" x="305.89" y="-217.25" font-family="Helvetica,sans-Serif" font-size="10.00" fill="#3fb950">per&#45;color TrailSpawner</text>
<text xml:space="preserve" text-anchor="middle" x="305.89" y="-206" font-family="Helvetica,sans-Serif" font-size="10.00" fill="#3fb950">TrailTracker&lt;TrailId&gt;</text>
<text xml:space="preserve" text-anchor="middle" x="305.89" y="-194.75" font-family="Helvetica,sans-Serif" font-size="10.00" fill="#3fb950">ICinematicAware</text>
<text xml:space="preserve" text-anchor="middle" x="305.89" y="-183.5" font-family="Helvetica,sans-Serif" font-size="10.00" fill="#3fb950">PauseTrailsAbove(threshold)</text>
</g>
<!-- ScoreTrailService&#45;&gt;TrailSpawner -->
<g id="edge1" class="edge">
<title>ScoreTrailService&#45;&gt;TrailSpawner</title>
<path fill="none" stroke="#3fb950" d="M343.26,-177.58C365.19,-155.91 393.07,-128.37 416.29,-105.43"/>
<polygon fill="#3fb950" stroke="#3fb950" points="418.56,-108.11 423.22,-98.59 413.64,-103.13 418.56,-108.11"/>
<text xml:space="preserve" text-anchor="middle" x="403.59" y="-152.15" font-family="Helvetica,sans-Serif" font-size="8.00" fill="#8b949e">composes ×N</text>
<text xml:space="preserve" text-anchor="middle" x="403.59" y="-143.15" font-family="Helvetica,sans-Serif" font-size="8.00" fill="#8b949e">(per color)</text>
</g>
<!-- ScoreTrailService&#45;&gt;TrailTracker -->
<g id="edge2" class="edge">
<title>ScoreTrailService&#45;&gt;TrailTracker</title>
<path fill="none" stroke="#3fb950" d="M305.89,-177.58C305.89,-158.65 305.89,-135.23 305.89,-114.31"/>
<polygon fill="#3fb950" stroke="#3fb950" points="309.39,-114.5 305.89,-104.5 302.39,-114.5 309.39,-114.5"/>
<text xml:space="preserve" text-anchor="middle" x="323.89" y="-147.65" font-family="Helvetica,sans-Serif" font-size="8.00" fill="#8b949e">composes</text>
</g>
<!-- CinematicAware -->
<g id="node5" class="node">
<title>CinematicAware</title>
<ellipse fill="#3d2a1a" stroke="black" cx="108.89" cy="-59.38" rx="108.89" ry="30.58"/>
<text xml:space="preserve" text-anchor="middle" x="108.89" y="-67.5" font-family="Helvetica,sans-Serif" font-size="10.00" fill="#f78166">ICinematicAware</text>
<text xml:space="preserve" text-anchor="middle" x="108.89" y="-56.25" font-family="Helvetica,sans-Serif" font-size="10.00" fill="#f78166">─────────</text>
<text xml:space="preserve" text-anchor="middle" x="108.89" y="-45" font-family="Helvetica,sans-Serif" font-size="10.00" fill="#f78166">OnCinematicEnd → ResumeAll</text>
</g>
<!-- ScoreTrailService&#45;&gt;CinematicAware -->
<g id="edge4" class="edge">
<title>ScoreTrailService&#45;&gt;CinematicAware</title>
<path fill="none" stroke="#f78166" stroke-dasharray="5,2" d="M258.46,-177.39C226.65,-152.5 185.01,-119.93 153.75,-95.47"/>
<polygon fill="#f78166" stroke="#f78166" points="156.04,-92.82 146.01,-89.41 151.73,-98.33 156.04,-92.82"/>
<text xml:space="preserve" text-anchor="middle" x="251.08" y="-147.65" font-family="Helvetica,sans-Serif" font-size="8.00" fill="#8b949e">implements</text>
</g>
<!-- ShieldTrailController -->
<g id="node4" class="node">
<title>ShieldTrailController</title>
<path fill="#2d1f3d" stroke="black" d="M515.64,-247.62C515.64,-247.62 408.14,-247.62 408.14,-247.62 402.14,-247.62 396.14,-241.62 396.14,-235.62 396.14,-235.62 396.14,-195.38 396.14,-195.38 396.14,-189.38 402.14,-183.38 408.14,-183.38 408.14,-183.38 515.64,-183.38 515.64,-183.38 521.64,-183.38 527.64,-189.38 527.64,-195.38 527.64,-195.38 527.64,-235.62 527.64,-235.62 527.64,-241.62 521.64,-247.62 515.64,-247.62"/>
<text xml:space="preserve" text-anchor="middle" x="461.89" y="-234.12" font-family="Helvetica,sans-Serif" font-size="10.00" fill="#d2a8ff">ShieldTrailController</text>
<text xml:space="preserve" text-anchor="middle" x="461.89" y="-222.88" font-family="Helvetica,sans-Serif" font-size="10.00" fill="#d2a8ff">─────────</text>
<text xml:space="preserve" text-anchor="middle" x="461.89" y="-211.62" font-family="Helvetica,sans-Serif" font-size="10.00" fill="#d2a8ff">single TrailSpawner</text>
<text xml:space="preserve" text-anchor="middle" x="461.89" y="-200.38" font-family="Helvetica,sans-Serif" font-size="10.00" fill="#d2a8ff">fire&#45;and&#45;forget</text>
<text xml:space="preserve" text-anchor="middle" x="461.89" y="-189.12" font-family="Helvetica,sans-Serif" font-size="10.00" fill="#d2a8ff">(no tracking, no cinematic)</text>
</g>
<!-- ShieldTrailController&#45;&gt;TrailSpawner -->
<g id="edge3" class="edge">
<title>ShieldTrailController&#45;&gt;TrailSpawner</title>
<path fill="none" stroke="#d2a8ff" d="M461.89,-182.94C461.89,-161.67 461.89,-133.2 461.89,-109.05"/>
<polygon fill="#d2a8ff" stroke="#d2a8ff" points="465.39,-109.11 461.89,-99.11 458.39,-109.11 465.39,-109.11"/>
<text xml:space="preserve" text-anchor="middle" x="485.52" y="-147.65" font-family="Helvetica,sans-Serif" font-size="8.00" fill="#8b949e">composes ×1</text>
</g>
</g>
</svg>
