<?xml version="1.0" encoding="UTF-8" standalone="no"?>
<!DOCTYPE svg PUBLIC "-//W3C//DTD SVG 1.1//EN"
 "http://www.w3.org/Graphics/SVG/1.1/DTD/svg11.dtd">
<!-- Generated by graphviz version 15.0.0 (20260523.1842)
 -->
<!-- Title: TurnPipeline Pages: 1 -->
<svg width="208pt" height="556pt"
 viewBox="0.00 0.00 208.00 556.00" xmlns="http://www.w3.org/2000/svg" xmlns:xlink="http://www.w3.org/1999/xlink">
<g id="graph0" class="graph" transform="scale(1 1) rotate(0) translate(4 552.38)">
<title>TurnPipeline</title>
<!-- Hit -->
<g id="node1" class="node">
<title>Hit</title>
<path fill="#3d2a1a" stroke="black" d="M145.38,-548.38C145.38,-548.38 54.38,-548.38 54.38,-548.38 48.38,-548.38 42.38,-542.38 42.38,-536.38 42.38,-536.38 42.38,-496.13 42.38,-496.13 42.38,-490.13 48.38,-484.13 54.38,-484.13 54.38,-484.13 145.38,-484.13 145.38,-484.13 151.38,-484.13 157.38,-490.13 157.38,-496.13 157.38,-496.13 157.38,-536.38 157.38,-536.38 157.38,-542.38 151.38,-548.38 145.38,-548.38"/>
<text xml:space="preserve" text-anchor="middle" x="99.88" y="-534.88" font-family="Helvetica,sans-Serif" font-size="10.00" fill="#f78166">1. Hit Phase</text>
<text xml:space="preserve" text-anchor="middle" x="99.88" y="-523.63" font-family="Helvetica,sans-Serif" font-size="10.00" fill="#f78166">─────────</text>
<text xml:space="preserve" text-anchor="middle" x="99.88" y="-512.38" font-family="Helvetica,sans-Serif" font-size="10.00" fill="#f78166">Projectile bounces</text>
<text xml:space="preserve" text-anchor="middle" x="99.88" y="-501.13" font-family="Helvetica,sans-Serif" font-size="10.00" fill="#f78166">Pops/deflects balloons</text>
<text xml:space="preserve" text-anchor="middle" x="99.88" y="-489.88" font-family="Helvetica,sans-Serif" font-size="10.00" fill="#f78166">Neighbors nudge</text>
</g>
<!-- ProjectileDeath -->
<g id="node5" class="node">
<title>ProjectileDeath</title>
<ellipse fill="#2a2a2a" stroke="black" cx="99.88" cy="-417.57" rx="99.88" ry="21.57"/>
<text xml:space="preserve" text-anchor="middle" x="99.88" y="-419.32" font-family="Helvetica,sans-Serif" font-size="10.00" fill="#8b949e">Projectile Death</text>
<text xml:space="preserve" text-anchor="middle" x="99.88" y="-408.07" font-family="Helvetica,sans-Serif" font-size="10.00" fill="#8b949e">ProjectileDestroyedMessage</text>
</g>
<!-- Hit&#45;&gt;ProjectileDeath -->
<g id="edge1" class="edge">
<title>Hit&#45;&gt;ProjectileDeath</title>
<path fill="none" stroke="#f78166" d="M99.88,-483.87C99.88,-473.29 99.88,-461.47 99.88,-450.83"/>
<polygon fill="#f78166" stroke="#f78166" points="103.38,-450.95 99.88,-440.95 96.38,-450.95 103.38,-450.95"/>
<text xml:space="preserve" text-anchor="middle" x="118.63" y="-458.53" font-family="Helvetica,sans-Serif" font-size="8.00" fill="#8b949e">shields = 0</text>
</g>
<!-- Balance -->
<g id="node2" class="node">
<title>Balance</title>
<path fill="#1f3a5f" stroke="black" d="M149.5,-359C149.5,-359 50.25,-359 50.25,-359 44.25,-359 38.25,-353 38.25,-347 38.25,-347 38.25,-295.5 38.25,-295.5 38.25,-289.5 44.25,-283.5 50.25,-283.5 50.25,-283.5 149.5,-283.5 149.5,-283.5 155.5,-283.5 161.5,-289.5 161.5,-295.5 161.5,-295.5 161.5,-347 161.5,-347 161.5,-353 155.5,-359 149.5,-359"/>
<text xml:space="preserve" text-anchor="middle" x="99.88" y="-345.5" font-family="Helvetica,sans-Serif" font-size="10.00" fill="#58a6ff">2. Balance Phase</text>
<text xml:space="preserve" text-anchor="middle" x="99.88" y="-334.25" font-family="Helvetica,sans-Serif" font-size="10.00" fill="#58a6ff">─────────</text>
<text xml:space="preserve" text-anchor="middle" x="99.88" y="-323" font-family="Helvetica,sans-Serif" font-size="10.00" fill="#58a6ff">Balance() consolidates</text>
<text xml:space="preserve" text-anchor="middle" x="99.88" y="-311.75" font-family="Helvetica,sans-Serif" font-size="10.00" fill="#58a6ff">existing balloons upward</text>
<text xml:space="preserve" text-anchor="middle" x="99.88" y="-300.5" font-family="Helvetica,sans-Serif" font-size="10.00" fill="#58a6ff">Transit slots reserved</text>
<text xml:space="preserve" text-anchor="middle" x="99.88" y="-289.25" font-family="Helvetica,sans-Serif" font-size="10.00" fill="#58a6ff">in BalancePathHolder</text>
</g>
<!-- Spawn -->
<g id="node3" class="node">
<title>Spawn</title>
<path fill="#1a3a1a" stroke="black" d="M150.25,-238.5C150.25,-238.5 49.5,-238.5 49.5,-238.5 43.5,-238.5 37.5,-232.5 37.5,-226.5 37.5,-226.5 37.5,-186.25 37.5,-186.25 37.5,-180.25 43.5,-174.25 49.5,-174.25 49.5,-174.25 150.25,-174.25 150.25,-174.25 156.25,-174.25 162.25,-180.25 162.25,-186.25 162.25,-186.25 162.25,-226.5 162.25,-226.5 162.25,-232.5 156.25,-238.5 150.25,-238.5"/>
<text xml:space="preserve" text-anchor="middle" x="99.88" y="-225" font-family="Helvetica,sans-Serif" font-size="10.00" fill="#3fb950">3. Spawn Phase</text>
<text xml:space="preserve" text-anchor="middle" x="99.88" y="-213.75" font-family="Helvetica,sans-Serif" font-size="10.00" fill="#3fb950">─────────</text>
<text xml:space="preserve" text-anchor="middle" x="99.88" y="-202.5" font-family="Helvetica,sans-Serif" font-size="10.00" fill="#3fb950">New balloon lines spawn</text>
<text xml:space="preserve" text-anchor="middle" x="99.88" y="-191.25" font-family="Helvetica,sans-Serif" font-size="10.00" fill="#3fb950">ComputePath checks</text>
<text xml:space="preserve" text-anchor="middle" x="99.88" y="-180" font-family="Helvetica,sans-Serif" font-size="10.00" fill="#3fb950">BalancePathHolder</text>
</g>
<!-- Balance&#45;&gt;Spawn -->
<g id="edge3" class="edge">
<title>Balance&#45;&gt;Spawn</title>
<path fill="none" stroke="#3fb950" d="M99.88,-283.29C99.88,-272.71 99.88,-261.1 99.88,-250.2"/>
<polygon fill="#3fb950" stroke="#3fb950" points="103.38,-250.26 99.88,-240.26 96.38,-250.26 103.38,-250.26"/>
<text xml:space="preserve" text-anchor="middle" x="122.38" y="-257.9" font-family="Helvetica,sans-Serif" font-size="8.00" fill="#8b949e">grid updated</text>
</g>
<!-- BalanceMsg -->
<g id="node6" class="node">
<title>BalanceMsg</title>
<ellipse fill="#2a2a2a" stroke="black" cx="99.88" cy="-119.25" rx="76.03" ry="18"/>
<text xml:space="preserve" text-anchor="middle" x="99.88" y="-115.38" font-family="Helvetica,sans-Serif" font-size="10.00" fill="#8b949e">BalanceBalloonsMessage</text>
</g>
<!-- Spawn&#45;&gt;BalanceMsg -->
<g id="edge4" class="edge">
<title>Spawn&#45;&gt;BalanceMsg</title>
<path fill="none" stroke="#d2a8ff" d="M99.88,-174.16C99.88,-165.97 99.88,-157.17 99.88,-149.11"/>
<polygon fill="#d2a8ff" stroke="#d2a8ff" points="103.38,-149.12 99.88,-139.12 96.38,-149.12 103.38,-149.12"/>
</g>
<!-- PostBalance -->
<g id="node4" class="node">
<title>PostBalance</title>
<path fill="#2d1f3d" stroke="black" d="M152.13,-64.25C152.13,-64.25 47.63,-64.25 47.63,-64.25 41.63,-64.25 35.63,-58.25 35.63,-52.25 35.63,-52.25 35.63,-12 35.63,-12 35.63,-6 41.63,0 47.63,0 47.63,0 152.13,0 152.13,0 158.13,0 164.13,-6 164.13,-12 164.13,-12 164.13,-52.25 164.13,-52.25 164.13,-58.25 158.13,-64.25 152.13,-64.25"/>
<text xml:space="preserve" text-anchor="middle" x="99.88" y="-50.75" font-family="Helvetica,sans-Serif" font-size="10.00" fill="#d2a8ff">4. Post&#45;Spawn Balance</text>
<text xml:space="preserve" text-anchor="middle" x="99.88" y="-39.5" font-family="Helvetica,sans-Serif" font-size="10.00" fill="#d2a8ff">─────────</text>
<text xml:space="preserve" text-anchor="middle" x="99.88" y="-28.25" font-family="Helvetica,sans-Serif" font-size="10.00" fill="#d2a8ff">Deferred balance pass</text>
<text xml:space="preserve" text-anchor="middle" x="99.88" y="-17" font-family="Helvetica,sans-Serif" font-size="10.00" fill="#d2a8ff">(next frame)</text>
<text xml:space="preserve" text-anchor="middle" x="99.88" y="-5.75" font-family="Helvetica,sans-Serif" font-size="10.00" fill="#d2a8ff">BalanceBalloonsMessage</text>
</g>
<!-- ProjectileDeath&#45;&gt;Balance -->
<g id="edge2" class="edge">
<title>ProjectileDeath&#45;&gt;Balance</title>
<path fill="none" stroke="#58a6ff" d="M99.88,-395.63C99.88,-388.24 99.88,-379.58 99.88,-370.86"/>
<polygon fill="#58a6ff" stroke="#58a6ff" points="103.38,-370.96 99.88,-360.96 96.38,-370.96 103.38,-370.96"/>
</g>
<!-- BalanceMsg&#45;&gt;PostBalance -->
<g id="edge5" class="edge">
<title>BalanceMsg&#45;&gt;PostBalance</title>
<path fill="none" stroke="#d2a8ff" d="M99.88,-101.02C99.88,-93.65 99.88,-84.67 99.88,-75.69"/>
<polygon fill="#d2a8ff" stroke="#d2a8ff" points="103.38,-75.96 99.88,-65.96 96.38,-75.96 103.38,-75.96"/>
</g>
</g>
</svg>
